<?xml version="1.0" encoding="utf-8" standalone="no"?>
<!DOCTYPE svg PUBLIC "-//W3C//DTD SVG 1.1//EN"
  "http://www.w3.org/Graphics/SVG/1.1/DTD/svg11.dtd">
<svg xmlns:xlink="http://www.w3.org/1999/xlink" width="1080pt" height="432pt" viewBox="0 0 1080 432" xmlns="http://www.w3.org/2000/svg" version="1.1">
 <metadata>
  <rdf:RDF xmlns:dc="http://purl.org/dc/elements/1.1/" xmlns:cc="http://creativecommons.org/ns#" xmlns:rdf="http://www.w3.org/1999/02/22-rdf-syntax-ns#">
   <cc:Work>
    <dc:type rdf:resource="http://purl.org/dc/dcmitype/StillImage"/>
    <dc:date>2024-10-21T09:38:07.112533</dc:date>
    <dc:format>image/svg+xml</dc:format>
    <dc:creator>
     <cc:Agent>
      <dc:title>Matplotlib v3.7.2, https://matplotlib.org/</dc:title>
     </cc:Agent>
    </dc:creator>
   </cc:Work>
  </rdf:RDF>
 </metadata>
 <defs>
  <style type="text/css">*{stroke-linejoin: round; stroke-linecap: butt}</style>
 </defs>
 <g id="figure_1">
  <g id="patch_1">
   <path d="M 0 432 
L 1080 432 
L 1080 0 
L 0 0 
z
" style="fill: #ffffff"/>
  </g>
  <g id="axes_1">
   <g id="patch_2">
    <path d="M 64.37 310.435572 
L 539.415 310.435572 
L 539.415 29.04 
L 64.37 29.04 
z
" style="fill: #e5e5e5"/>
   </g>
   <g id="matplotlib.axis_1">
    <g id="xtick_1">
     <g id="line2d_1">
      <path d="M 103.589856 310.435572 
L 103.589856 29.04 
" clip-path="url(#p61bfe155f3)" style="fill: none; stroke: #ffffff; stroke-width: 0.8; stroke-linecap: square"/>
     </g>
     <g id="line2d_2">
      <defs>
       <path id="m8eb7b44611" d="M 0 0 
L 0 3.5 
" style="stroke: #555555; stroke-width: 0.8"/>
      </defs>
      <g>
       <use xlink:href="#m8eb7b44611" x="103.589856" y="310.435572" style="fill: #555555; stroke: #555555; stroke-width: 0.8"/>
      </g>
     </g>
     <g id="text_1">
      <!-- VCONDESIN002 -->
      <g transform="translate(29.041356 396.666886) rotate(-45) scale(0.12 -0.12)">
       <defs>
        <path id="DejaVuSerif-56" d="M 1119 4331 
L 2497 750 
L 3872 4331 
L 3347 4331 
L 3347 4666 
L 4716 4666 
L 4716 4331 
L 4263 4331 
L 2597 0 
L 2059 0 
L 403 4331 
L -63 4331 
L -63 4666 
L 1638 4666 
L 1638 4331 
L 1119 4331 
z
" transform="scale(0.015625)"/>
        <path id="DejaVuSerif-43" d="M 4513 1234 
Q 4306 581 3820 245 
Q 3334 -91 2591 -91 
Q 2134 -91 1743 65 
Q 1353 222 1050 525 
Q 700 875 529 1320 
Q 359 1766 359 2328 
Q 359 3416 987 4083 
Q 1616 4750 2644 4750 
Q 3025 4750 3456 4650 
Q 3888 4550 4384 4347 
L 4384 3272 
L 4031 3272 
Q 3916 3859 3567 4137 
Q 3219 4416 2591 4416 
Q 1844 4416 1459 3886 
Q 1075 3356 1075 2328 
Q 1075 1303 1459 773 
Q 1844 244 2591 244 
Q 3113 244 3450 492 
Q 3788 741 3938 1234 
L 4513 1234 
z
" transform="scale(0.015625)"/>
        <path id="DejaVuSerif-4f" d="M 2625 244 
Q 3391 244 3781 770 
Q 4172 1297 4172 2328 
Q 4172 3363 3781 3889 
Q 3391 4416 2625 4416 
Q 1856 4416 1465 3889 
Q 1075 3363 1075 2328 
Q 1075 1297 1465 770 
Q 1856 244 2625 244 
z
M 2625 -91 
Q 2150 -91 1751 65 
Q 1353 222 1050 525 
Q 700 875 529 1319 
Q 359 1763 359 2328 
Q 359 2894 529 3339 
Q 700 3784 1050 4134 
Q 1356 4441 1750 4595 
Q 2144 4750 2625 4750 
Q 3641 4750 4266 4084 
Q 4891 3419 4891 2328 
Q 4891 1769 4719 1320 
Q 4547 872 4197 525 
Q 3891 219 3497 64 
Q 3103 -91 2625 -91 
z
" transform="scale(0.015625)"/>
        <path id="DejaVuSerif-4e" d="M 313 0 
L 313 331 
L 941 331 
L 941 4331 
L 313 4331 
L 313 4666 
L 1509 4666 
L 4306 984 
L 4306 4331 
L 3681 4331 
L 3681 4666 
L 5319 4666 
L 5319 4331 
L 4691 4331 
L 4691 -91 
L 4313 -91 
L 1325 3841 
L 1325 331 
L 1953 331 
L 1953 0 
L 313 0 
z
" transform="scale(0.015625)"/>
        <path id="DejaVuSerif-44" d="M 1581 331 
L 2163 331 
Q 3072 331 3558 850 
Q 4044 1369 4044 2338 
Q 4044 3306 3559 3818 
Q 3075 4331 2163 4331 
L 1581 4331 
L 1581 331 
z
M 353 0 
L 353 331 
L 947 331 
L 947 4331 
L 353 4331 
L 353 4666 
L 2209 4666 
Q 3416 4666 4089 4050 
Q 4763 3434 4763 2338 
Q 4763 1238 4088 619 
Q 3413 0 2209 0 
L 353 0 
z
" transform="scale(0.015625)"/>
        <path id="DejaVuSerif-45" d="M 353 0 
L 353 331 
L 947 331 
L 947 4331 
L 353 4331 
L 353 4666 
L 4109 4666 
L 4109 3628 
L 3725 3628 
L 3725 4281 
L 1581 4281 
L 1581 2719 
L 3109 2719 
L 3109 3303 
L 3494 3303 
L 3494 1753 
L 3109 1753 
L 3109 2338 
L 1581 2338 
L 1581 384 
L 3775 384 
L 3775 1038 
L 4159 1038 
L 4159 0 
L 353 0 
z
" transform="scale(0.015625)"/>
        <path id="DejaVuSerif-53" d="M 594 225 
L 594 1288 
L 953 1284 
Q 969 753 1261 498 
Q 1553 244 2150 244 
Q 2706 244 2998 464 
Q 3291 684 3291 1106 
Q 3291 1444 3114 1625 
Q 2938 1806 2369 1978 
L 1753 2163 
Q 1084 2366 811 2669 
Q 538 2972 538 3500 
Q 538 4094 959 4422 
Q 1381 4750 2144 4750 
Q 2469 4750 2856 4679 
Q 3244 4609 3681 4475 
L 3681 3481 
L 3328 3481 
Q 3275 3975 2998 4195 
Q 2722 4416 2156 4416 
Q 1663 4416 1405 4214 
Q 1147 4013 1147 3628 
Q 1147 3294 1340 3103 
Q 1534 2913 2163 2725 
L 2741 2553 
Q 3375 2363 3645 2067 
Q 3916 1772 3916 1275 
Q 3916 597 3481 253 
Q 3047 -91 2188 -91 
Q 1803 -91 1404 -12 
Q 1006 66 594 225 
z
" transform="scale(0.015625)"/>
        <path id="DejaVuSerif-49" d="M 1581 331 
L 2175 331 
L 2175 0 
L 353 0 
L 353 331 
L 947 331 
L 947 4331 
L 353 4331 
L 353 4666 
L 2175 4666 
L 2175 4331 
L 1581 4331 
L 1581 331 
z
" transform="scale(0.015625)"/>
        <path id="DejaVuSerif-30" d="M 2034 219 
Q 2513 219 2750 744 
Q 2988 1269 2988 2328 
Q 2988 3391 2750 3916 
Q 2513 4441 2034 4441 
Q 1556 4441 1318 3916 
Q 1081 3391 1081 2328 
Q 1081 1269 1318 744 
Q 1556 219 2034 219 
z
M 2034 -91 
Q 1275 -91 848 546 
Q 422 1184 422 2328 
Q 422 3475 848 4112 
Q 1275 4750 2034 4750 
Q 2797 4750 3222 4112 
Q 3647 3475 3647 2328 
Q 3647 1184 3222 546 
Q 2797 -91 2034 -91 
z
" transform="scale(0.015625)"/>
        <path id="DejaVuSerif-32" d="M 819 3553 
L 469 3553 
L 469 4384 
Q 803 4563 1142 4656 
Q 1481 4750 1806 4750 
Q 2534 4750 2956 4397 
Q 3378 4044 3378 3438 
Q 3378 2753 2422 1800 
Q 2347 1728 2309 1691 
L 1131 513 
L 3078 513 
L 3078 1088 
L 3444 1088 
L 3444 0 
L 434 0 
L 434 341 
L 1850 1753 
Q 2319 2222 2519 2614 
Q 2719 3006 2719 3438 
Q 2719 3909 2473 4175 
Q 2228 4441 1797 4441 
Q 1350 4441 1106 4219 
Q 863 3997 819 3553 
z
" transform="scale(0.015625)"/>
       </defs>
       <use xlink:href="#DejaVuSerif-56"/>
       <use xlink:href="#DejaVuSerif-43" x="72.216797"/>
       <use xlink:href="#DejaVuSerif-4f" x="148.730469"/>
       <use xlink:href="#DejaVuSerif-4e" x="230.712891"/>
       <use xlink:href="#DejaVuSerif-44" x="318.212891"/>
       <use xlink:href="#DejaVuSerif-45" x="398.388672"/>
       <use xlink:href="#DejaVuSerif-53" x="471.386719"/>
       <use xlink:href="#DejaVuSerif-49" x="539.892578"/>
       <use xlink:href="#DejaVuSerif-4e" x="579.394531"/>
       <use xlink:href="#DejaVuSerif-30" x="666.894531"/>
       <use xlink:href="#DejaVuSerif-30" x="730.517578"/>
       <use xlink:href="#DejaVuSerif-32" x="794.140625"/>
      </g>
     </g>
    </g>
    <g id="xtick_2">
     <g id="line2d_3">
      <path d="M 147.65711 310.435572 
L 147.65711 29.04 
" clip-path="url(#p61bfe155f3)" style="fill: none; stroke: #ffffff; stroke-width: 0.8; stroke-linecap: square"/>
     </g>
     <g id="line2d_4">
      <g>
       <use xlink:href="#m8eb7b44611" x="147.65711" y="310.435572" style="fill: #555555; stroke: #555555; stroke-width: 0.8"/>
      </g>
     </g>
     <g id="text_2">
      <!-- MARITU-PA500 -->
      <g transform="translate(78.545819 391.229677) rotate(-45) scale(0.12 -0.12)">
       <defs>
        <path id="DejaVuSerif-4d" d="M 353 0 
L 353 331 
L 947 331 
L 947 4331 
L 319 4331 
L 319 4666 
L 1678 4666 
L 3316 1344 
L 4953 4666 
L 6228 4666 
L 6228 4331 
L 5606 4331 
L 5606 331 
L 6203 331 
L 6203 0 
L 4378 0 
L 4378 331 
L 4972 331 
L 4972 3938 
L 3372 684 
L 2931 684 
L 1331 3938 
L 1331 331 
L 1925 331 
L 1925 0 
L 353 0 
z
" transform="scale(0.015625)"/>
        <path id="DejaVuSerif-41" d="M 1281 1691 
L 2994 1691 
L 2138 3909 
L 1281 1691 
z
M -38 0 
L -38 331 
L 372 331 
L 2034 4666 
L 2559 4666 
L 4225 331 
L 4684 331 
L 4684 0 
L 2988 0 
L 2988 331 
L 3506 331 
L 3116 1356 
L 1153 1356 
L 763 331 
L 1275 331 
L 1275 0 
L -38 0 
z
" transform="scale(0.015625)"/>
        <path id="DejaVuSerif-52" d="M 3066 2316 
Q 3284 2256 3442 2114 
Q 3600 1972 3725 1716 
L 4403 331 
L 4972 331 
L 4972 0 
L 3872 0 
L 3144 1484 
Q 2934 1916 2759 2042 
Q 2584 2169 2278 2169 
L 1581 2169 
L 1581 331 
L 2241 331 
L 2241 0 
L 353 0 
L 353 331 
L 947 331 
L 947 4331 
L 353 4331 
L 353 4666 
L 2719 4666 
Q 3400 4666 3770 4341 
Q 4141 4016 4141 3419 
Q 4141 2938 3870 2661 
Q 3600 2384 3066 2316 
z
M 1581 2503 
L 2503 2503 
Q 2975 2503 3200 2726 
Q 3425 2950 3425 3419 
Q 3425 3888 3200 4109 
Q 2975 4331 2503 4331 
L 1581 4331 
L 1581 2503 
z
" transform="scale(0.015625)"/>
        <path id="DejaVuSerif-54" d="M 1222 0 
L 1222 331 
L 1819 331 
L 1819 4294 
L 447 4294 
L 447 3566 
L 63 3566 
L 63 4666 
L 4206 4666 
L 4206 3566 
L 3822 3566 
L 3822 4294 
L 2450 4294 
L 2450 331 
L 3047 331 
L 3047 0 
L 1222 0 
z
" transform="scale(0.015625)"/>
        <path id="DejaVuSerif-55" d="M 897 4331 
L 300 4331 
L 300 4666 
L 2125 4666 
L 2125 4331 
L 1528 4331 
L 1528 1919 
Q 1528 1025 1820 672 
Q 2113 319 2828 319 
Q 3544 319 3836 672 
Q 4128 1025 4128 1919 
L 4128 4331 
L 3531 4331 
L 3531 4666 
L 5106 4666 
L 5106 4331 
L 4513 4331 
L 4513 1856 
Q 4513 791 4103 350 
Q 3694 -91 2713 -91 
Q 1731 -91 1314 353 
Q 897 797 897 1856 
L 897 4331 
z
" transform="scale(0.015625)"/>
        <path id="DejaVuSerif-2d" d="M 281 1959 
L 1881 1959 
L 1881 1472 
L 281 1472 
L 281 1959 
z
" transform="scale(0.015625)"/>
        <path id="DejaVuSerif-50" d="M 1581 2375 
L 2406 2375 
Q 2872 2375 3115 2626 
Q 3359 2878 3359 3353 
Q 3359 3831 3115 4081 
Q 2872 4331 2406 4331 
L 1581 4331 
L 1581 2375 
z
M 353 0 
L 353 331 
L 947 331 
L 947 4331 
L 353 4331 
L 353 4666 
L 2559 4666 
Q 3259 4666 3668 4311 
Q 4078 3956 4078 3353 
Q 4078 2753 3668 2397 
Q 3259 2041 2559 2041 
L 1581 2041 
L 1581 331 
L 2303 331 
L 2303 0 
L 353 0 
z
" transform="scale(0.015625)"/>
        <path id="DejaVuSerif-35" d="M 3219 4666 
L 3219 4153 
L 1081 4153 
L 1081 2816 
Q 1244 2928 1461 2984 
Q 1678 3041 1947 3041 
Q 2703 3041 3140 2622 
Q 3578 2203 3578 1478 
Q 3578 738 3136 323 
Q 2694 -91 1894 -91 
Q 1572 -91 1234 -12 
Q 897 66 544 225 
L 544 1131 
L 897 1131 
Q 925 688 1179 453 
Q 1434 219 1894 219 
Q 2388 219 2653 544 
Q 2919 869 2919 1478 
Q 2919 2084 2655 2407 
Q 2391 2731 1894 2731 
Q 1613 2731 1398 2631 
Q 1184 2531 1019 2322 
L 750 2322 
L 750 4666 
L 3219 4666 
z
" transform="scale(0.015625)"/>
       </defs>
       <use xlink:href="#DejaVuSerif-4d"/>
       <use xlink:href="#DejaVuSerif-41" x="102.392578"/>
       <use xlink:href="#DejaVuSerif-52" x="174.609375"/>
       <use xlink:href="#DejaVuSerif-49" x="249.902344"/>
       <use xlink:href="#DejaVuSerif-54" x="289.404297"/>
       <use xlink:href="#DejaVuSerif-55" x="356.103516"/>
       <use xlink:href="#DejaVuSerif-2d" x="438.630859"/>
       <use xlink:href="#DejaVuSerif-50" x="472.419922"/>
       <use xlink:href="#DejaVuSerif-41" x="530.580078"/>
       <use xlink:href="#DejaVuSerif-35" x="602.796875"/>
       <use xlink:href="#DejaVuSerif-30" x="666.419922"/>
       <use xlink:href="#DejaVuSerif-30" x="730.042969"/>
      </g>
     </g>
    </g>
    <g id="xtick_3">
     <g id="line2d_5">
      <path d="M 191.724365 310.435572 
L 191.724365 29.04 
" clip-path="url(#p61bfe155f3)" style="fill: none; stroke: #ffffff; stroke-width: 0.8; stroke-linecap: square"/>
     </g>
     <g id="line2d_6">
      <g>
       <use xlink:href="#m8eb7b44611" x="191.724365" y="310.435572" style="fill: #555555; stroke: #555555; stroke-width: 0.8"/>
      </g>
     </g>
     <g id="text_3">
      <!-- PIEJR1UTE011 -->
      <g transform="translate(124.312782 389.529969) rotate(-45) scale(0.12 -0.12)">
       <defs>
        <path id="DejaVuSerif-4a" d="M -538 -1119 
L -538 -384 
L -181 -384 
Q -172 -694 -34 -845 
Q 103 -997 378 -997 
Q 750 -997 897 -762 
Q 1044 -528 1044 153 
L 1044 4331 
L 319 4331 
L 319 4666 
L 2272 4666 
L 2272 4331 
L 1678 4331 
L 1678 128 
Q 1678 -644 1368 -987 
Q 1059 -1331 372 -1331 
Q 150 -1331 -79 -1278 
Q -309 -1225 -538 -1119 
z
" transform="scale(0.015625)"/>
        <path id="DejaVuSerif-31" d="M 909 0 
L 909 331 
L 1722 331 
L 1722 4213 
L 781 3603 
L 781 4013 
L 1919 4750 
L 2350 4750 
L 2350 331 
L 3163 331 
L 3163 0 
L 909 0 
z
" transform="scale(0.015625)"/>
       </defs>
       <use xlink:href="#DejaVuSerif-50"/>
       <use xlink:href="#DejaVuSerif-49" x="67.285156"/>
       <use xlink:href="#DejaVuSerif-45" x="106.787109"/>
       <use xlink:href="#DejaVuSerif-4a" x="179.785156"/>
       <use xlink:href="#DejaVuSerif-52" x="219.873047"/>
       <use xlink:href="#DejaVuSerif-31" x="295.166016"/>
       <use xlink:href="#DejaVuSerif-55" x="358.789062"/>
       <use xlink:href="#DejaVuSerif-54" x="443.066406"/>
       <use xlink:href="#DejaVuSerif-45" x="509.765625"/>
       <use xlink:href="#DejaVuSerif-30" x="582.763672"/>
       <use xlink:href="#DejaVuSerif-31" x="646.386719"/>
       <use xlink:href="#DejaVuSerif-31" x="710.009766"/>
      </g>
     </g>
    </g>
    <g id="xtick_4">
     <g id="line2d_7">
      <path d="M 235.791619 310.435572 
L 235.791619 29.04 
" clip-path="url(#p61bfe155f3)" style="fill: none; stroke: #ffffff; stroke-width: 0.8; stroke-linecap: square"/>
     </g>
     <g id="line2d_8">
      <g>
       <use xlink:href="#m8eb7b44611" x="235.791619" y="310.435572" style="fill: #555555; stroke: #555555; stroke-width: 0.8"/>
      </g>
     </g>
     <g id="text_4">
      <!-- PIE-MAUTE004 -->
      <g transform="translate(165.727059 392.182945) rotate(-45) scale(0.12 -0.12)">
       <defs>
        <path id="DejaVuSerif-34" d="M 2234 1581 
L 2234 4063 
L 641 1581 
L 2234 1581 
z
M 3609 0 
L 1484 0 
L 1484 331 
L 2234 331 
L 2234 1247 
L 197 1247 
L 197 1588 
L 2241 4750 
L 2859 4750 
L 2859 1581 
L 3750 1581 
L 3750 1247 
L 2859 1247 
L 2859 331 
L 3609 331 
L 3609 0 
z
" transform="scale(0.015625)"/>
       </defs>
       <use xlink:href="#DejaVuSerif-50"/>
       <use xlink:href="#DejaVuSerif-49" x="67.285156"/>
       <use xlink:href="#DejaVuSerif-45" x="106.787109"/>
       <use xlink:href="#DejaVuSerif-2d" x="181.660156"/>
       <use xlink:href="#DejaVuSerif-4d" x="215.449219"/>
       <use xlink:href="#DejaVuSerif-41" x="317.841797"/>
       <use xlink:href="#DejaVuSerif-55" x="390.058594"/>
       <use xlink:href="#DejaVuSerif-54" x="474.335938"/>
       <use xlink:href="#DejaVuSerif-45" x="541.035156"/>
       <use xlink:href="#DejaVuSerif-30" x="614.033203"/>
       <use xlink:href="#DejaVuSerif-30" x="677.65625"/>
       <use xlink:href="#DejaVuSerif-34" x="741.279297"/>
      </g>
     </g>
    </g>
    <g id="xtick_5">
     <g id="line2d_9">
      <path d="M 279.858873 310.435572 
L 279.858873 29.04 
" clip-path="url(#p61bfe155f3)" style="fill: none; stroke: #ffffff; stroke-width: 0.8; stroke-linecap: square"/>
     </g>
     <g id="line2d_10">
      <g>
       <use xlink:href="#m8eb7b44611" x="279.858873" y="310.435572" style="fill: #555555; stroke: #555555; stroke-width: 0.8"/>
      </g>
     </g>
     <g id="text_5">
      <!-- PIEJR2UTE010 -->
      <g transform="translate(212.44729 389.529969) rotate(-45) scale(0.12 -0.12)">
       <use xlink:href="#DejaVuSerif-50"/>
       <use xlink:href="#DejaVuSerif-49" x="67.285156"/>
       <use xlink:href="#DejaVuSerif-45" x="106.787109"/>
       <use xlink:href="#DejaVuSerif-4a" x="179.785156"/>
       <use xlink:href="#DejaVuSerif-52" x="219.873047"/>
       <use xlink:href="#DejaVuSerif-32" x="295.166016"/>
       <use xlink:href="#DejaVuSerif-55" x="358.789062"/>
       <use xlink:href="#DejaVuSerif-54" x="443.066406"/>
       <use xlink:href="#DejaVuSerif-45" x="509.765625"/>
       <use xlink:href="#DejaVuSerif-30" x="582.763672"/>
       <use xlink:href="#DejaVuSerif-31" x="646.386719"/>
       <use xlink:href="#DejaVuSerif-30" x="710.009766"/>
      </g>
     </g>
    </g>
    <g id="xtick_6">
     <g id="line2d_11">
      <path d="M 323.926127 310.435572 
L 323.926127 29.04 
" clip-path="url(#p61bfe155f3)" style="fill: none; stroke: #ffffff; stroke-width: 0.8; stroke-linecap: square"/>
     </g>
     <g id="line2d_12">
      <g>
       <use xlink:href="#m8eb7b44611" x="323.926127" y="310.435572" style="fill: #555555; stroke: #555555; stroke-width: 0.8"/>
      </g>
     </g>
     <g id="text_6">
      <!-- LECHUG-AM500 -->
      <g transform="translate(248.470762 397.573751) rotate(-45) scale(0.12 -0.12)">
       <defs>
        <path id="DejaVuSerif-4c" d="M 353 0 
L 353 331 
L 947 331 
L 947 4331 
L 353 4331 
L 353 4666 
L 2175 4666 
L 2175 4331 
L 1581 4331 
L 1581 384 
L 3713 384 
L 3713 1166 
L 4097 1166 
L 4097 0 
L 353 0 
z
" transform="scale(0.015625)"/>
        <path id="DejaVuSerif-48" d="M 353 0 
L 353 331 
L 947 331 
L 947 4331 
L 353 4331 
L 353 4666 
L 2175 4666 
L 2175 4331 
L 1581 4331 
L 1581 2719 
L 4000 2719 
L 4000 4331 
L 3406 4331 
L 3406 4666 
L 5228 4666 
L 5228 4331 
L 4634 4331 
L 4634 331 
L 5228 331 
L 5228 0 
L 3406 0 
L 3406 331 
L 4000 331 
L 4000 2338 
L 1581 2338 
L 1581 331 
L 2175 331 
L 2175 0 
L 353 0 
z
" transform="scale(0.015625)"/>
        <path id="DejaVuSerif-47" d="M 4097 3272 
Q 3988 3856 3641 4136 
Q 3294 4416 2675 4416 
Q 1869 4416 1472 3897 
Q 1075 3378 1075 2328 
Q 1075 1300 1484 772 
Q 1894 244 2688 244 
Q 3041 244 3362 331 
Q 3684 419 3975 594 
L 3975 1797 
L 3097 1797 
L 3097 2131 
L 4609 2131 
L 4609 391 
Q 4194 150 3714 29 
Q 3234 -91 2688 -91 
Q 1631 -91 995 570 
Q 359 1231 359 2328 
Q 359 3434 996 4092 
Q 1634 4750 2713 4750 
Q 3113 4750 3539 4658 
Q 3966 4566 4447 4378 
L 4447 3272 
L 4097 3272 
z
" transform="scale(0.015625)"/>
       </defs>
       <use xlink:href="#DejaVuSerif-4c"/>
       <use xlink:href="#DejaVuSerif-45" x="66.40625"/>
       <use xlink:href="#DejaVuSerif-43" x="139.404297"/>
       <use xlink:href="#DejaVuSerif-48" x="215.917969"/>
       <use xlink:href="#DejaVuSerif-55" x="303.125"/>
       <use xlink:href="#DejaVuSerif-47" x="387.402344"/>
       <use xlink:href="#DejaVuSerif-2d" x="469.160156"/>
       <use xlink:href="#DejaVuSerif-41" x="502.949219"/>
       <use xlink:href="#DejaVuSerif-4d" x="575.166016"/>
       <use xlink:href="#DejaVuSerif-35" x="677.558594"/>
       <use xlink:href="#DejaVuSerif-30" x="741.181641"/>
       <use xlink:href="#DejaVuSerif-30" x="804.804688"/>
      </g>
     </g>
    </g>
    <g id="xtick_7">
     <g id="line2d_13">
      <path d="M 367.993381 310.435572 
L 367.993381 29.04 
" clip-path="url(#p61bfe155f3)" style="fill: none; stroke: #ffffff; stroke-width: 0.8; stroke-linecap: square"/>
     </g>
     <g id="line2d_14">
      <g>
       <use xlink:href="#m8eb7b44611" x="367.993381" y="310.435572" style="fill: #555555; stroke: #555555; stroke-width: 0.8"/>
      </g>
     </g>
     <g id="text_7">
      <!-- MANAUS-AM230 -->
      <g transform="translate(290.708378 399.40339) rotate(-45) scale(0.12 -0.12)">
       <defs>
        <path id="DejaVuSerif-33" d="M 622 4469 
Q 988 4606 1323 4678 
Q 1659 4750 1953 4750 
Q 2638 4750 3022 4454 
Q 3406 4159 3406 3634 
Q 3406 3213 3140 2930 
Q 2875 2647 2388 2547 
Q 2963 2466 3280 2130 
Q 3597 1794 3597 1259 
Q 3597 606 3158 257 
Q 2719 -91 1894 -91 
Q 1528 -91 1179 -12 
Q 831 66 488 225 
L 488 1131 
L 838 1131 
Q 869 681 1141 450 
Q 1413 219 1906 219 
Q 2384 219 2661 495 
Q 2938 772 2938 1253 
Q 2938 1803 2653 2086 
Q 2369 2369 1819 2369 
L 1522 2369 
L 1522 2688 
L 1678 2688 
Q 2225 2688 2498 2914 
Q 2772 3141 2772 3597 
Q 2772 4006 2547 4223 
Q 2322 4441 1900 4441 
Q 1478 4441 1245 4241 
Q 1013 4041 972 3647 
L 622 3647 
L 622 4469 
z
" transform="scale(0.015625)"/>
       </defs>
       <use xlink:href="#DejaVuSerif-4d"/>
       <use xlink:href="#DejaVuSerif-41" x="102.392578"/>
       <use xlink:href="#DejaVuSerif-4e" x="174.609375"/>
       <use xlink:href="#DejaVuSerif-41" x="262.109375"/>
       <use xlink:href="#DejaVuSerif-55" x="334.326172"/>
       <use xlink:href="#DejaVuSerif-53" x="418.603516"/>
       <use xlink:href="#DejaVuSerif-2d" x="490.734375"/>
       <use xlink:href="#DejaVuSerif-41" x="524.523438"/>
       <use xlink:href="#DejaVuSerif-4d" x="596.740234"/>
       <use xlink:href="#DejaVuSerif-32" x="699.132812"/>
       <use xlink:href="#DejaVuSerif-33" x="762.755859"/>
       <use xlink:href="#DejaVuSerif-30" x="826.378906"/>
      </g>
     </g>
    </g>
    <g id="xtick_8">
     <g id="line2d_15">
      <path d="M 412.060635 310.435572 
L 412.060635 29.04 
" clip-path="url(#p61bfe155f3)" style="fill: none; stroke: #ffffff; stroke-width: 0.8; stroke-linecap: square"/>
     </g>
     <g id="line2d_16">
      <g>
       <use xlink:href="#m8eb7b44611" x="412.060635" y="310.435572" style="fill: #555555; stroke: #555555; stroke-width: 0.8"/>
      </g>
     </g>
     <g id="text_8">
      <!-- C.ROCH-AM230 -->
      <g transform="translate(340.296368 393.882653) rotate(-45) scale(0.12 -0.12)">
       <defs>
        <path id="DejaVuSerif-2e" d="M 603 325 
Q 603 500 722 622 
Q 841 744 1019 744 
Q 1191 744 1312 622 
Q 1434 500 1434 325 
Q 1434 153 1312 31 
Q 1191 -91 1019 -91 
Q 841 -91 722 29 
Q 603 150 603 325 
z
" transform="scale(0.015625)"/>
       </defs>
       <use xlink:href="#DejaVuSerif-43"/>
       <use xlink:href="#DejaVuSerif-2e" x="72.888672"/>
       <use xlink:href="#DejaVuSerif-52" x="104.675781"/>
       <use xlink:href="#DejaVuSerif-4f" x="179.96875"/>
       <use xlink:href="#DejaVuSerif-43" x="261.951172"/>
       <use xlink:href="#DejaVuSerif-48" x="338.464844"/>
       <use xlink:href="#DejaVuSerif-2d" x="425.671875"/>
       <use xlink:href="#DejaVuSerif-41" x="459.460938"/>
       <use xlink:href="#DejaVuSerif-4d" x="531.677734"/>
       <use xlink:href="#DejaVuSerif-32" x="634.070312"/>
       <use xlink:href="#DejaVuSerif-33" x="697.693359"/>
       <use xlink:href="#DejaVuSerif-30" x="761.316406"/>
      </g>
     </g>
    </g>
    <g id="xtick_9">
     <g id="line2d_17">
      <path d="M 456.12789 310.435572 
L 456.12789 29.04 
" clip-path="url(#p61bfe155f3)" style="fill: none; stroke: #ffffff; stroke-width: 0.8; stroke-linecap: square"/>
     </g>
     <g id="line2d_18">
      <g>
       <use xlink:href="#m8eb7b44611" x="456.12789" y="310.435572" style="fill: #555555; stroke: #555555; stroke-width: 0.8"/>
      </g>
     </g>
     <g id="text_9">
      <!-- MAUAG2UTE001 -->
      <g transform="translate(379.153129 399.093147) rotate(-45) scale(0.12 -0.12)">
       <use xlink:href="#DejaVuSerif-4d"/>
       <use xlink:href="#DejaVuSerif-41" x="102.392578"/>
       <use xlink:href="#DejaVuSerif-55" x="174.609375"/>
       <use xlink:href="#DejaVuSerif-41" x="255.761719"/>
       <use xlink:href="#DejaVuSerif-47" x="327.978516"/>
       <use xlink:href="#DejaVuSerif-32" x="407.861328"/>
       <use xlink:href="#DejaVuSerif-55" x="471.484375"/>
       <use xlink:href="#DejaVuSerif-54" x="555.761719"/>
       <use xlink:href="#DejaVuSerif-45" x="622.460938"/>
       <use xlink:href="#DejaVuSerif-30" x="695.458984"/>
       <use xlink:href="#DejaVuSerif-30" x="759.082031"/>
       <use xlink:href="#DejaVuSerif-31" x="822.705078"/>
      </g>
     </g>
    </g>
    <g id="xtick_10">
     <g id="line2d_19">
      <path d="M 500.195144 310.435572 
L 500.195144 29.04 
" clip-path="url(#p61bfe155f3)" style="fill: none; stroke: #ffffff; stroke-width: 0.8; stroke-linecap: square"/>
     </g>
     <g id="line2d_20">
      <g>
       <use xlink:href="#m8eb7b44611" x="500.195144" y="310.435572" style="fill: #555555; stroke: #555555; stroke-width: 0.8"/>
      </g>
     </g>
     <g id="text_10">
      <!-- J.TEIX-AM230 -->
      <g transform="translate(438.170389 384.143141) rotate(-45) scale(0.12 -0.12)">
       <defs>
        <path id="DejaVuSerif-58" d="M 2119 1997 
L 978 331 
L 1581 331 
L 1581 0 
L 38 0 
L 38 331 
L 575 331 
L 1919 2291 
L 556 4331 
L 56 4331 
L 56 4666 
L 1906 4666 
L 1906 4331 
L 1356 4331 
L 2356 2828 
L 3384 4331 
L 2784 4331 
L 2784 4666 
L 4313 4666 
L 4313 4331 
L 3788 4331 
L 2553 2534 
L 4025 331 
L 4525 331 
L 4525 0 
L 2675 0 
L 2675 331 
L 3231 331 
L 2119 1997 
z
" transform="scale(0.015625)"/>
       </defs>
       <use xlink:href="#DejaVuSerif-4a"/>
       <use xlink:href="#DejaVuSerif-2e" x="32.337891"/>
       <use xlink:href="#DejaVuSerif-54" x="64.125"/>
       <use xlink:href="#DejaVuSerif-45" x="130.824219"/>
       <use xlink:href="#DejaVuSerif-49" x="203.822266"/>
       <use xlink:href="#DejaVuSerif-58" x="243.324219"/>
       <use xlink:href="#DejaVuSerif-2d" x="310.890625"/>
       <use xlink:href="#DejaVuSerif-41" x="344.679688"/>
       <use xlink:href="#DejaVuSerif-4d" x="416.896484"/>
       <use xlink:href="#DejaVuSerif-32" x="519.289062"/>
       <use xlink:href="#DejaVuSerif-33" x="582.912109"/>
       <use xlink:href="#DejaVuSerif-30" x="646.535156"/>
      </g>
     </g>
    </g>
    <g id="text_11">
     <!-- Bus Name -->
     <g transform="translate(265.34375 415.805875) scale(0.14 -0.14)">
      <defs>
       <path id="DejaVuSerif-42" d="M 1581 331 
L 2516 331 
Q 3078 331 3337 575 
Q 3597 819 3597 1350 
Q 3597 1878 3339 2120 
Q 3081 2363 2516 2363 
L 1581 2363 
L 1581 331 
z
M 1581 2694 
L 2375 2694 
Q 2888 2694 3123 2891 
Q 3359 3088 3359 3513 
Q 3359 3941 3123 4136 
Q 2888 4331 2375 4331 
L 1581 4331 
L 1581 2694 
z
M 353 0 
L 353 331 
L 947 331 
L 947 4331 
L 353 4331 
L 353 4666 
L 2656 4666 
Q 3363 4666 3720 4377 
Q 4078 4088 4078 3513 
Q 4078 3097 3829 2850 
Q 3581 2603 3103 2547 
Q 3697 2472 4005 2167 
Q 4313 1863 4313 1350 
Q 4313 656 3875 328 
Q 3438 0 2509 0 
L 353 0 
z
" transform="scale(0.015625)"/>
       <path id="DejaVuSerif-75" d="M 2266 3322 
L 3341 3322 
L 3341 331 
L 3884 331 
L 3884 0 
L 2766 0 
L 2766 588 
Q 2606 256 2353 82 
Q 2100 -91 1766 -91 
Q 1213 -91 952 223 
Q 691 538 691 1209 
L 691 2988 
L 172 2988 
L 172 3322 
L 1269 3322 
L 1269 1388 
Q 1269 781 1417 556 
Q 1566 331 1947 331 
Q 2347 331 2556 625 
Q 2766 919 2766 1478 
L 2766 2988 
L 2266 2988 
L 2266 3322 
z
" transform="scale(0.015625)"/>
       <path id="DejaVuSerif-73" d="M 359 184 
L 359 959 
L 691 959 
Q 703 588 923 403 
Q 1144 219 1575 219 
Q 1963 219 2166 364 
Q 2369 509 2369 788 
Q 2369 1006 2220 1140 
Q 2072 1275 1594 1428 
L 1178 1569 
Q 750 1706 558 1912 
Q 366 2119 366 2438 
Q 366 2894 700 3153 
Q 1034 3413 1625 3413 
Q 1888 3413 2178 3344 
Q 2469 3275 2778 3144 
L 2778 2419 
L 2447 2419 
Q 2434 2741 2221 2922 
Q 2009 3103 1644 3103 
Q 1281 3103 1095 2975 
Q 909 2847 909 2591 
Q 909 2381 1050 2254 
Q 1191 2128 1613 1997 
L 2069 1856 
Q 2541 1709 2748 1489 
Q 2956 1269 2956 922 
Q 2956 450 2595 179 
Q 2234 -91 1600 -91 
Q 1278 -91 972 -22 
Q 666 47 359 184 
z
" transform="scale(0.015625)"/>
       <path id="DejaVuSerif-20" transform="scale(0.015625)"/>
       <path id="DejaVuSerif-61" d="M 2547 1044 
L 2547 1747 
L 1806 1747 
Q 1378 1747 1168 1562 
Q 959 1378 959 997 
Q 959 650 1171 447 
Q 1384 244 1747 244 
Q 2106 244 2326 466 
Q 2547 688 2547 1044 
z
M 3122 2075 
L 3122 331 
L 3634 331 
L 3634 0 
L 2547 0 
L 2547 359 
Q 2356 128 2106 18 
Q 1856 -91 1522 -91 
Q 969 -91 644 203 
Q 319 497 319 997 
Q 319 1513 691 1797 
Q 1063 2081 1741 2081 
L 2547 2081 
L 2547 2309 
Q 2547 2688 2317 2895 
Q 2088 3103 1672 3103 
Q 1328 3103 1125 2947 
Q 922 2791 872 2484 
L 575 2484 
L 575 3156 
Q 875 3284 1158 3348 
Q 1441 3413 1709 3413 
Q 2400 3413 2761 3070 
Q 3122 2728 3122 2075 
z
" transform="scale(0.015625)"/>
       <path id="DejaVuSerif-6d" d="M 3316 2675 
Q 3481 3041 3739 3227 
Q 3997 3413 4341 3413 
Q 4863 3413 5119 3089 
Q 5375 2766 5375 2113 
L 5375 331 
L 5894 331 
L 5894 0 
L 4300 0 
L 4300 331 
L 4800 331 
L 4800 2047 
Q 4800 2556 4650 2772 
Q 4500 2988 4153 2988 
Q 3769 2988 3567 2697 
Q 3366 2406 3366 1850 
L 3366 331 
L 3866 331 
L 3866 0 
L 2291 0 
L 2291 331 
L 2791 331 
L 2791 2069 
Q 2791 2566 2641 2777 
Q 2491 2988 2144 2988 
Q 1759 2988 1557 2697 
Q 1356 2406 1356 1850 
L 1356 331 
L 1856 331 
L 1856 0 
L 263 0 
L 263 331 
L 781 331 
L 781 2994 
L 231 2994 
L 231 3322 
L 1356 3322 
L 1356 2731 
Q 1516 3063 1762 3238 
Q 2009 3413 2322 3413 
Q 2709 3413 2968 3220 
Q 3228 3028 3316 2675 
z
" transform="scale(0.015625)"/>
       <path id="DejaVuSerif-65" d="M 3469 1600 
L 991 1600 
L 991 1575 
Q 991 903 1244 561 
Q 1497 219 1991 219 
Q 2369 219 2611 417 
Q 2853 616 2950 1006 
L 3413 1006 
Q 3275 459 2904 184 
Q 2534 -91 1931 -91 
Q 1203 -91 761 389 
Q 319 869 319 1663 
Q 319 2450 753 2931 
Q 1188 3413 1894 3413 
Q 2647 3413 3050 2948 
Q 3453 2484 3469 1600 
z
M 2791 1931 
Q 2772 2513 2545 2808 
Q 2319 3103 1894 3103 
Q 1497 3103 1269 2806 
Q 1041 2509 991 1931 
L 2791 1931 
z
" transform="scale(0.015625)"/>
      </defs>
      <use xlink:href="#DejaVuSerif-42"/>
      <use xlink:href="#DejaVuSerif-75" x="73.486328"/>
      <use xlink:href="#DejaVuSerif-73" x="137.890625"/>
      <use xlink:href="#DejaVuSerif-20" x="189.208984"/>
      <use xlink:href="#DejaVuSerif-4e" x="220.996094"/>
      <use xlink:href="#DejaVuSerif-61" x="308.496094"/>
      <use xlink:href="#DejaVuSerif-6d" x="368.115234"/>
      <use xlink:href="#DejaVuSerif-65" x="462.939453"/>
     </g>
    </g>
   </g>
   <g id="matplotlib.axis_2">
    <g id="ytick_1">
     <g id="line2d_21">
      <path d="M 64.37 310.435572 
L 539.415 310.435572 
" clip-path="url(#p61bfe155f3)" style="fill: none; stroke: #ffffff; stroke-width: 0.8; stroke-linecap: square"/>
     </g>
     <g id="line2d_22">
      <defs>
       <path id="m5607d59226" d="M 0 0 
L -3.5 0 
" style="stroke: #000000; stroke-width: 0.8"/>
      </defs>
      <g>
       <use xlink:href="#m5607d59226" x="64.37" y="310.435572" style="stroke: #000000; stroke-width: 0.8"/>
      </g>
     </g>
     <g id="text_12">
      <!-- 0 -->
      <g transform="translate(47.82625 316.1344) scale(0.15 -0.15)">
       <use xlink:href="#DejaVuSerif-30"/>
      </g>
     </g>
    </g>
    <g id="ytick_2">
     <g id="line2d_23">
      <path d="M 64.37 277.753159 
L 539.415 277.753159 
" clip-path="url(#p61bfe155f3)" style="fill: none; stroke: #ffffff; stroke-width: 0.8; stroke-linecap: square"/>
     </g>
     <g id="line2d_24">
      <g>
       <use xlink:href="#m5607d59226" x="64.37" y="277.753159" style="stroke: #000000; stroke-width: 0.8"/>
      </g>
     </g>
     <g id="text_13">
      <!-- 20 -->
      <g transform="translate(38.2825 283.451987) scale(0.15 -0.15)">
       <use xlink:href="#DejaVuSerif-32"/>
       <use xlink:href="#DejaVuSerif-30" x="63.623047"/>
      </g>
     </g>
    </g>
    <g id="ytick_3">
     <g id="line2d_25">
      <path d="M 64.37 245.070747 
L 539.415 245.070747 
" clip-path="url(#p61bfe155f3)" style="fill: none; stroke: #ffffff; stroke-width: 0.8; stroke-linecap: square"/>
     </g>
     <g id="line2d_26">
      <g>
       <use xlink:href="#m5607d59226" x="64.37" y="245.070747" style="stroke: #000000; stroke-width: 0.8"/>
      </g>
     </g>
     <g id="text_14">
      <!-- 40 -->
      <g transform="translate(38.2825 250.769575) scale(0.15 -0.15)">
       <use xlink:href="#DejaVuSerif-34"/>
       <use xlink:href="#DejaVuSerif-30" x="63.623047"/>
      </g>
     </g>
    </g>
    <g id="ytick_4">
     <g id="line2d_27">
      <path d="M 64.37 212.388334 
L 539.415 212.388334 
" clip-path="url(#p61bfe155f3)" style="fill: none; stroke: #ffffff; stroke-width: 0.8; stroke-linecap: square"/>
     </g>
     <g id="line2d_28">
      <g>
       <use xlink:href="#m5607d59226" x="64.37" y="212.388334" style="stroke: #000000; stroke-width: 0.8"/>
      </g>
     </g>
     <g id="text_15">
      <!-- 60 -->
      <g transform="translate(38.2825 218.087162) scale(0.15 -0.15)">
       <defs>
        <path id="DejaVuSerif-36" d="M 2094 219 
Q 2534 219 2771 542 
Q 3009 866 3009 1472 
Q 3009 2078 2771 2401 
Q 2534 2725 2094 2725 
Q 1647 2725 1412 2412 
Q 1178 2100 1178 1509 
Q 1178 888 1415 553 
Q 1653 219 2094 219 
z
M 1075 2569 
Q 1288 2803 1556 2918 
Q 1825 3034 2163 3034 
Q 2859 3034 3264 2615 
Q 3669 2197 3669 1472 
Q 3669 763 3233 336 
Q 2797 -91 2069 -91 
Q 1278 -91 853 498 
Q 428 1088 428 2181 
Q 428 3406 931 4078 
Q 1434 4750 2350 4750 
Q 2597 4750 2869 4703 
Q 3141 4656 3425 4563 
L 3425 3794 
L 3072 3794 
Q 3034 4109 2831 4275 
Q 2628 4441 2284 4441 
Q 1678 4441 1381 3981 
Q 1084 3522 1075 2569 
z
" transform="scale(0.015625)"/>
       </defs>
       <use xlink:href="#DejaVuSerif-36"/>
       <use xlink:href="#DejaVuSerif-30" x="63.623047"/>
      </g>
     </g>
    </g>
    <g id="ytick_5">
     <g id="line2d_29">
      <path d="M 64.37 179.705922 
L 539.415 179.705922 
" clip-path="url(#p61bfe155f3)" style="fill: none; stroke: #ffffff; stroke-width: 0.8; stroke-linecap: square"/>
     </g>
     <g id="line2d_30">
      <g>
       <use xlink:href="#m5607d59226" x="64.37" y="179.705922" style="stroke: #000000; stroke-width: 0.8"/>
      </g>
     </g>
     <g id="text_16">
      <!-- 80 -->
      <g transform="translate(38.2825 185.40475) scale(0.15 -0.15)">
       <defs>
        <path id="DejaVuSerif-38" d="M 2981 1275 
Q 2981 1775 2732 2051 
Q 2484 2328 2034 2328 
Q 1584 2328 1336 2051 
Q 1088 1775 1088 1275 
Q 1088 772 1336 495 
Q 1584 219 2034 219 
Q 2484 219 2732 495 
Q 2981 772 2981 1275 
z
M 2853 3541 
Q 2853 3966 2637 4203 
Q 2422 4441 2034 4441 
Q 1650 4441 1433 4203 
Q 1216 3966 1216 3541 
Q 1216 3113 1433 2875 
Q 1650 2638 2034 2638 
Q 2422 2638 2637 2875 
Q 2853 3113 2853 3541 
z
M 2516 2484 
Q 3047 2413 3344 2092 
Q 3641 1772 3641 1275 
Q 3641 619 3225 264 
Q 2809 -91 2034 -91 
Q 1263 -91 845 264 
Q 428 619 428 1275 
Q 428 1772 725 2092 
Q 1022 2413 1556 2484 
Q 1084 2569 832 2842 
Q 581 3116 581 3541 
Q 581 4103 968 4426 
Q 1356 4750 2034 4750 
Q 2713 4750 3100 4426 
Q 3488 4103 3488 3541 
Q 3488 3116 3236 2842 
Q 2984 2569 2516 2484 
z
" transform="scale(0.015625)"/>
       </defs>
       <use xlink:href="#DejaVuSerif-38"/>
       <use xlink:href="#DejaVuSerif-30" x="63.623047"/>
      </g>
     </g>
    </g>
    <g id="ytick_6">
     <g id="line2d_31">
      <path d="M 64.37 147.023509 
L 539.415 147.023509 
" clip-path="url(#p61bfe155f3)" style="fill: none; stroke: #ffffff; stroke-width: 0.8; stroke-linecap: square"/>
     </g>
     <g id="line2d_32">
      <g>
       <use xlink:href="#m5607d59226" x="64.37" y="147.023509" style="stroke: #000000; stroke-width: 0.8"/>
      </g>
     </g>
     <g id="text_17">
      <!-- 100 -->
      <g transform="translate(28.73875 152.722337) scale(0.15 -0.15)">
       <use xlink:href="#DejaVuSerif-31"/>
       <use xlink:href="#DejaVuSerif-30" x="63.623047"/>
       <use xlink:href="#DejaVuSerif-30" x="127.246094"/>
      </g>
     </g>
    </g>
    <g id="ytick_7">
     <g id="line2d_33">
      <path d="M 64.37 114.341097 
L 539.415 114.341097 
" clip-path="url(#p61bfe155f3)" style="fill: none; stroke: #ffffff; stroke-width: 0.8; stroke-linecap: square"/>
     </g>
     <g id="line2d_34">
      <g>
       <use xlink:href="#m5607d59226" x="64.37" y="114.341097" style="stroke: #000000; stroke-width: 0.8"/>
      </g>
     </g>
     <g id="text_18">
      <!-- 120 -->
      <g transform="translate(28.73875 120.039925) scale(0.15 -0.15)">
       <use xlink:href="#DejaVuSerif-31"/>
       <use xlink:href="#DejaVuSerif-32" x="63.623047"/>
       <use xlink:href="#DejaVuSerif-30" x="127.246094"/>
      </g>
     </g>
    </g>
    <g id="ytick_8">
     <g id="line2d_35">
      <path d="M 64.37 81.658684 
L 539.415 81.658684 
" clip-path="url(#p61bfe155f3)" style="fill: none; stroke: #ffffff; stroke-width: 0.8; stroke-linecap: square"/>
     </g>
     <g id="line2d_36">
      <g>
       <use xlink:href="#m5607d59226" x="64.37" y="81.658684" style="stroke: #000000; stroke-width: 0.8"/>
      </g>
     </g>
     <g id="text_19">
      <!-- 140 -->
      <g transform="translate(28.73875 87.357512) scale(0.15 -0.15)">
       <use xlink:href="#DejaVuSerif-31"/>
       <use xlink:href="#DejaVuSerif-34" x="63.623047"/>
       <use xlink:href="#DejaVuSerif-30" x="127.246094"/>
      </g>
     </g>
    </g>
    <g id="ytick_9">
     <g id="line2d_37">
      <path d="M 64.37 48.976272 
L 539.415 48.976272 
" clip-path="url(#p61bfe155f3)" style="fill: none; stroke: #ffffff; stroke-width: 0.8; stroke-linecap: square"/>
     </g>
     <g id="line2d_38">
      <g>
       <use xlink:href="#m5607d59226" x="64.37" y="48.976272" style="stroke: #000000; stroke-width: 0.8"/>
      </g>
     </g>
     <g id="text_20">
      <!-- 160 -->
      <g transform="translate(28.73875 54.6751) scale(0.15 -0.15)">
       <use xlink:href="#DejaVuSerif-31"/>
       <use xlink:href="#DejaVuSerif-36" x="63.623047"/>
       <use xlink:href="#DejaVuSerif-30" x="127.246094"/>
      </g>
     </g>
    </g>
    <g id="text_21">
     <!-- Count -->
     <g transform="translate(21.619219 192.666692) rotate(-90) scale(0.15 -0.15)">
      <defs>
       <path id="DejaVuSerif-6f" d="M 1925 219 
Q 2388 219 2623 584 
Q 2859 950 2859 1663 
Q 2859 2375 2623 2739 
Q 2388 3103 1925 3103 
Q 1463 3103 1227 2739 
Q 991 2375 991 1663 
Q 991 950 1228 584 
Q 1466 219 1925 219 
z
M 1925 -91 
Q 1200 -91 759 389 
Q 319 869 319 1663 
Q 319 2456 758 2934 
Q 1197 3413 1925 3413 
Q 2653 3413 3092 2934 
Q 3531 2456 3531 1663 
Q 3531 869 3092 389 
Q 2653 -91 1925 -91 
z
" transform="scale(0.015625)"/>
       <path id="DejaVuSerif-6e" d="M 263 0 
L 263 331 
L 781 331 
L 781 2988 
L 231 2988 
L 231 3322 
L 1356 3322 
L 1356 2731 
Q 1516 3069 1770 3241 
Q 2025 3413 2363 3413 
Q 2913 3413 3172 3097 
Q 3431 2781 3431 2113 
L 3431 331 
L 3944 331 
L 3944 0 
L 2356 0 
L 2356 331 
L 2853 331 
L 2853 1931 
Q 2853 2541 2703 2767 
Q 2553 2994 2175 2994 
Q 1775 2994 1565 2701 
Q 1356 2409 1356 1850 
L 1356 331 
L 1856 331 
L 1856 0 
L 263 0 
z
" transform="scale(0.015625)"/>
       <path id="DejaVuSerif-74" d="M 691 2988 
L 184 2988 
L 184 3322 
L 691 3322 
L 691 4353 
L 1269 4353 
L 1269 3322 
L 2350 3322 
L 2350 2988 
L 1269 2988 
L 1269 878 
Q 1269 456 1350 337 
Q 1431 219 1650 219 
Q 1875 219 1978 351 
Q 2081 484 2088 781 
L 2522 781 
Q 2497 328 2275 118 
Q 2053 -91 1600 -91 
Q 1103 -91 897 129 
Q 691 350 691 878 
L 691 2988 
z
" transform="scale(0.015625)"/>
      </defs>
      <use xlink:href="#DejaVuSerif-43"/>
      <use xlink:href="#DejaVuSerif-6f" x="76.513672"/>
      <use xlink:href="#DejaVuSerif-75" x="136.71875"/>
      <use xlink:href="#DejaVuSerif-6e" x="201.123047"/>
      <use xlink:href="#DejaVuSerif-74" x="265.527344"/>
     </g>
    </g>
   </g>
   <g id="patch_3">
    <path d="M 85.962955 310.435572 
L 121.216758 310.435572 
L 121.216758 42.439789 
L 85.962955 42.439789 
z
" clip-path="url(#p61bfe155f3)" style="fill: #87ceeb"/>
   </g>
   <g id="patch_4">
    <path d="M 130.030209 310.435572 
L 165.284012 310.435572 
L 165.284012 225.461299 
L 130.030209 225.461299 
z
" clip-path="url(#p61bfe155f3)" style="fill: #87ceeb"/>
   </g>
   <g id="patch_5">
    <path d="M 174.097463 310.435572 
L 209.351266 310.435572 
L 209.351266 282.655521 
L 174.097463 282.655521 
z
" clip-path="url(#p61bfe155f3)" style="fill: #87ceeb"/>
   </g>
   <g id="patch_6">
    <path d="M 218.164717 310.435572 
L 253.41852 310.435572 
L 253.41852 282.655521 
L 218.164717 282.655521 
z
" clip-path="url(#p61bfe155f3)" style="fill: #87ceeb"/>
   </g>
   <g id="patch_7">
    <path d="M 262.231971 310.435572 
L 297.485775 310.435572 
L 297.485775 282.655521 
L 262.231971 282.655521 
z
" clip-path="url(#p61bfe155f3)" style="fill: #87ceeb"/>
   </g>
   <g id="patch_8">
    <path d="M 306.299225 310.435572 
L 341.553029 310.435572 
L 341.553029 284.289642 
L 306.299225 284.289642 
z
" clip-path="url(#p61bfe155f3)" style="fill: #87ceeb"/>
   </g>
   <g id="patch_9">
    <path d="M 350.36648 310.435572 
L 385.620283 310.435572 
L 385.620283 284.289642 
L 350.36648 284.289642 
z
" clip-path="url(#p61bfe155f3)" style="fill: #87ceeb"/>
   </g>
   <g id="patch_10">
    <path d="M 394.433734 310.435572 
L 429.687537 310.435572 
L 429.687537 287.557883 
L 394.433734 287.557883 
z
" clip-path="url(#p61bfe155f3)" style="fill: #87ceeb"/>
   </g>
   <g id="patch_11">
    <path d="M 438.500988 310.435572 
L 473.754791 310.435572 
L 473.754791 287.557883 
L 438.500988 287.557883 
z
" clip-path="url(#p61bfe155f3)" style="fill: #87ceeb"/>
   </g>
   <g id="patch_12">
    <path d="M 482.568242 310.435572 
L 517.822045 310.435572 
L 517.822045 287.557883 
L 482.568242 287.557883 
z
" clip-path="url(#p61bfe155f3)" style="fill: #87ceeb"/>
   </g>
   <g id="patch_13">
    <path d="M 64.37 310.435572 
L 64.37 29.04 
" style="fill: none; stroke: #000000; stroke-width: 1.2; stroke-linejoin: miter; stroke-linecap: square"/>
   </g>
   <g id="patch_14">
    <path d="M 539.415 310.435572 
L 539.415 29.04 
" style="fill: none; stroke: #000000; stroke-width: 1.2; stroke-linejoin: miter; stroke-linecap: square"/>
   </g>
   <g id="patch_15">
    <path d="M 64.37 310.435572 
L 539.415 310.435572 
" style="fill: none; stroke: #000000; stroke-width: 1.2; stroke-linejoin: miter; stroke-linecap: square"/>
   </g>
   <g id="patch_16">
    <path d="M 64.37 29.04 
L 539.415 29.04 
" style="fill: none; stroke: #000000; stroke-width: 1.2; stroke-linejoin: miter; stroke-linecap: square"/>
   </g>
   <g id="text_22">
    <!-- Top 10 Bus Names with MODV_PU &lt; 0.8 -->
    <g transform="translate(135.9425 23.04) scale(0.16 -0.16)">
     <defs>
      <path id="DejaVuSerif-70" d="M 1313 1825 
L 1313 1497 
Q 1313 897 1542 583 
Q 1772 269 2209 269 
Q 2650 269 2876 622 
Q 3103 975 3103 1663 
Q 3103 2353 2876 2703 
Q 2650 3053 2209 3053 
Q 1772 3053 1542 2737 
Q 1313 2422 1313 1825 
z
M 738 2988 
L 184 2988 
L 184 3322 
L 1313 3322 
L 1313 2803 
Q 1481 3116 1742 3264 
Q 2003 3413 2388 3413 
Q 3000 3413 3387 2928 
Q 3775 2444 3775 1663 
Q 3775 881 3387 395 
Q 3000 -91 2388 -91 
Q 2003 -91 1742 57 
Q 1481 206 1313 519 
L 1313 -997 
L 1856 -997 
L 1856 -1331 
L 184 -1331 
L 184 -997 
L 738 -997 
L 738 2988 
z
" transform="scale(0.015625)"/>
      <path id="DejaVuSerif-77" d="M 3072 3322 
L 3922 728 
L 4672 2988 
L 4191 2988 
L 4191 3322 
L 5394 3322 
L 5394 2988 
L 5025 2988 
L 4038 0 
L 3559 0 
L 2741 2484 
L 1919 0 
L 1459 0 
L 475 2988 
L 103 2988 
L 103 3322 
L 1606 3322 
L 1606 2988 
L 1069 2988 
L 1813 728 
L 2669 3322 
L 3072 3322 
z
" transform="scale(0.015625)"/>
      <path id="DejaVuSerif-69" d="M 622 4353 
Q 622 4497 726 4603 
Q 831 4709 978 4709 
Q 1122 4709 1226 4603 
Q 1331 4497 1331 4353 
Q 1331 4206 1228 4103 
Q 1125 4000 978 4000 
Q 831 4000 726 4103 
Q 622 4206 622 4353 
z
M 1356 331 
L 1900 331 
L 1900 0 
L 231 0 
L 231 331 
L 781 331 
L 781 2988 
L 231 2988 
L 231 3322 
L 1356 3322 
L 1356 331 
z
" transform="scale(0.015625)"/>
      <path id="DejaVuSerif-68" d="M 263 0 
L 263 331 
L 781 331 
L 781 4531 
L 231 4531 
L 231 4863 
L 1356 4863 
L 1356 2731 
Q 1516 3069 1770 3241 
Q 2025 3413 2363 3413 
Q 2913 3413 3172 3097 
Q 3431 2781 3431 2113 
L 3431 331 
L 3944 331 
L 3944 0 
L 2356 0 
L 2356 331 
L 2853 331 
L 2853 1931 
Q 2853 2541 2704 2764 
Q 2556 2988 2175 2988 
Q 1775 2988 1565 2697 
Q 1356 2406 1356 1850 
L 1356 331 
L 1856 331 
L 1856 0 
L 263 0 
z
" transform="scale(0.015625)"/>
      <path id="DejaVuSerif-5f" d="M 3200 -1259 
L 3200 -1509 
L 0 -1509 
L 0 -1259 
L 3200 -1259 
z
" transform="scale(0.015625)"/>
      <path id="DejaVuSerif-3c" d="M 4684 3188 
L 1441 2003 
L 4684 825 
L 4684 294 
L 678 1747 
L 678 2266 
L 4684 3719 
L 4684 3188 
z
" transform="scale(0.015625)"/>
     </defs>
     <use xlink:href="#DejaVuSerif-54"/>
     <use xlink:href="#DejaVuSerif-6f" x="58.949219"/>
     <use xlink:href="#DejaVuSerif-70" x="119.154297"/>
     <use xlink:href="#DejaVuSerif-20" x="183.167969"/>
     <use xlink:href="#DejaVuSerif-31" x="214.955078"/>
     <use xlink:href="#DejaVuSerif-30" x="278.578125"/>
     <use xlink:href="#DejaVuSerif-20" x="342.201172"/>
     <use xlink:href="#DejaVuSerif-42" x="373.988281"/>
     <use xlink:href="#DejaVuSerif-75" x="447.474609"/>
     <use xlink:href="#DejaVuSerif-73" x="511.878906"/>
     <use xlink:href="#DejaVuSerif-20" x="563.197266"/>
     <use xlink:href="#DejaVuSerif-4e" x="594.984375"/>
     <use xlink:href="#DejaVuSerif-61" x="682.484375"/>
     <use xlink:href="#DejaVuSerif-6d" x="742.103516"/>
     <use xlink:href="#DejaVuSerif-65" x="836.927734"/>
     <use xlink:href="#DejaVuSerif-73" x="896.107422"/>
     <use xlink:href="#DejaVuSerif-20" x="947.425781"/>
     <use xlink:href="#DejaVuSerif-77" x="979.212891"/>
     <use xlink:href="#DejaVuSerif-69" x="1064.808594"/>
     <use xlink:href="#DejaVuSerif-74" x="1096.791016"/>
     <use xlink:href="#DejaVuSerif-68" x="1136.976562"/>
     <use xlink:href="#DejaVuSerif-20" x="1201.380859"/>
     <use xlink:href="#DejaVuSerif-4d" x="1233.167969"/>
     <use xlink:href="#DejaVuSerif-4f" x="1335.560547"/>
     <use xlink:href="#DejaVuSerif-44" x="1417.542969"/>
     <use xlink:href="#DejaVuSerif-56" x="1495.96875"/>
     <use xlink:href="#DejaVuSerif-5f" x="1568.185547"/>
     <use xlink:href="#DejaVuSerif-50" x="1618.185547"/>
     <use xlink:href="#DejaVuSerif-55" x="1683.720703"/>
     <use xlink:href="#DejaVuSerif-20" x="1767.998047"/>
     <use xlink:href="#DejaVuSerif-3c" x="1799.785156"/>
     <use xlink:href="#DejaVuSerif-20" x="1883.574219"/>
     <use xlink:href="#DejaVuSerif-30" x="1915.361328"/>
     <use xlink:href="#DejaVuSerif-2e" x="1978.984375"/>
     <use xlink:href="#DejaVuSerif-38" x="2010.771484"/>
    </g>
   </g>
  </g>
  <g id="axes_2">
   <g id="patch_17">
    <path d="M 594.155 310.435572 
L 1069.2 310.435572 
L 1069.2 29.04 
L 594.155 29.04 
z
" style="fill: #e5e5e5"/>
   </g>
   <g id="matplotlib.axis_3">
    <g id="xtick_11">
     <g id="line2d_39">
      <path d="M 633.374856 310.435572 
L 633.374856 29.04 
" clip-path="url(#p50ae570420)" style="fill: none; stroke: #ffffff; stroke-width: 0.8; stroke-linecap: square"/>
     </g>
     <g id="line2d_40">
      <g>
       <use xlink:href="#m8eb7b44611" x="633.374856" y="310.435572" style="fill: #555555; stroke: #555555; stroke-width: 0.8"/>
      </g>
     </g>
     <g id="text_23">
      <!-- JURUPA-PA230 -->
      <g transform="translate(566.326549 389.166693) rotate(-45) scale(0.12 -0.12)">
       <use xlink:href="#DejaVuSerif-4a"/>
       <use xlink:href="#DejaVuSerif-55" x="40.087891"/>
       <use xlink:href="#DejaVuSerif-52" x="124.365234"/>
       <use xlink:href="#DejaVuSerif-55" x="199.658203"/>
       <use xlink:href="#DejaVuSerif-50" x="283.935547"/>
       <use xlink:href="#DejaVuSerif-41" x="342.095703"/>
       <use xlink:href="#DejaVuSerif-2d" x="414.3125"/>
       <use xlink:href="#DejaVuSerif-50" x="448.101562"/>
       <use xlink:href="#DejaVuSerif-41" x="506.261719"/>
       <use xlink:href="#DejaVuSerif-32" x="578.478516"/>
       <use xlink:href="#DejaVuSerif-33" x="642.101562"/>
       <use xlink:href="#DejaVuSerif-30" x="705.724609"/>
      </g>
     </g>
    </g>
    <g id="xtick_12">
     <g id="line2d_41">
      <path d="M 677.44211 310.435572 
L 677.44211 29.04 
" clip-path="url(#p50ae570420)" style="fill: none; stroke: #ffffff; stroke-width: 0.8; stroke-linecap: square"/>
     </g>
     <g id="line2d_42">
      <g>
       <use xlink:href="#m8eb7b44611" x="677.44211" y="310.435572" style="fill: #555555; stroke: #555555; stroke-width: 0.8"/>
      </g>
     </g>
     <g id="text_24">
      <!-- BMONTEUHE018 -->
      <g transform="translate(597.577051 401.983445) rotate(-45) scale(0.12 -0.12)">
       <use xlink:href="#DejaVuSerif-42"/>
       <use xlink:href="#DejaVuSerif-4d" x="73.486328"/>
       <use xlink:href="#DejaVuSerif-4f" x="175.878906"/>
       <use xlink:href="#DejaVuSerif-4e" x="257.861328"/>
       <use xlink:href="#DejaVuSerif-54" x="345.361328"/>
       <use xlink:href="#DejaVuSerif-45" x="412.060547"/>
       <use xlink:href="#DejaVuSerif-55" x="485.058594"/>
       <use xlink:href="#DejaVuSerif-48" x="569.335938"/>
       <use xlink:href="#DejaVuSerif-45" x="656.542969"/>
       <use xlink:href="#DejaVuSerif-30" x="729.541016"/>
       <use xlink:href="#DejaVuSerif-31" x="793.164062"/>
       <use xlink:href="#DejaVuSerif-38" x="856.787109"/>
      </g>
     </g>
    </g>
    <g id="xtick_13">
     <g id="line2d_43">
      <path d="M 721.509365 310.435572 
L 721.509365 29.04 
" clip-path="url(#p50ae570420)" style="fill: none; stroke: #ffffff; stroke-width: 0.8; stroke-linecap: square"/>
     </g>
     <g id="line2d_44">
      <g>
       <use xlink:href="#m8eb7b44611" x="721.509365" y="310.435572" style="fill: #555555; stroke: #555555; stroke-width: 0.8"/>
      </g>
     </g>
     <g id="text_25">
      <!-- PIETB2UTE010 -->
      <g transform="translate(651.993697 391.634054) rotate(-45) scale(0.12 -0.12)">
       <use xlink:href="#DejaVuSerif-50"/>
       <use xlink:href="#DejaVuSerif-49" x="67.285156"/>
       <use xlink:href="#DejaVuSerif-45" x="106.787109"/>
       <use xlink:href="#DejaVuSerif-54" x="179.785156"/>
       <use xlink:href="#DejaVuSerif-42" x="246.484375"/>
       <use xlink:href="#DejaVuSerif-32" x="319.970703"/>
       <use xlink:href="#DejaVuSerif-55" x="383.59375"/>
       <use xlink:href="#DejaVuSerif-54" x="467.871094"/>
       <use xlink:href="#DejaVuSerif-45" x="534.570312"/>
       <use xlink:href="#DejaVuSerif-30" x="607.568359"/>
       <use xlink:href="#DejaVuSerif-31" x="671.191406"/>
       <use xlink:href="#DejaVuSerif-30" x="734.814453"/>
      </g>
     </g>
    </g>
    <g id="xtick_14">
     <g id="line2d_45">
      <path d="M 765.576619 310.435572 
L 765.576619 29.04 
" clip-path="url(#p50ae570420)" style="fill: none; stroke: #ffffff; stroke-width: 0.8; stroke-linecap: square"/>
     </g>
     <g id="line2d_46">
      <g>
       <use xlink:href="#m8eb7b44611" x="765.576619" y="310.435572" style="fill: #555555; stroke: #555555; stroke-width: 0.8"/>
      </g>
     </g>
     <g id="text_26">
      <!-- PIETB1UTE011 -->
      <g transform="translate(696.060951 391.634054) rotate(-45) scale(0.12 -0.12)">
       <use xlink:href="#DejaVuSerif-50"/>
       <use xlink:href="#DejaVuSerif-49" x="67.285156"/>
       <use xlink:href="#DejaVuSerif-45" x="106.787109"/>
       <use xlink:href="#DejaVuSerif-54" x="179.785156"/>
       <use xlink:href="#DejaVuSerif-42" x="246.484375"/>
       <use xlink:href="#DejaVuSerif-31" x="319.970703"/>
       <use xlink:href="#DejaVuSerif-55" x="383.59375"/>
       <use xlink:href="#DejaVuSerif-54" x="467.871094"/>
       <use xlink:href="#DejaVuSerif-45" x="534.570312"/>
       <use xlink:href="#DejaVuSerif-30" x="607.568359"/>
       <use xlink:href="#DejaVuSerif-31" x="671.191406"/>
       <use xlink:href="#DejaVuSerif-31" x="734.814453"/>
      </g>
     </g>
    </g>
    <g id="xtick_15">
     <g id="line2d_47">
      <path d="M 809.643873 310.435572 
L 809.643873 29.04 
" clip-path="url(#p50ae570420)" style="fill: none; stroke: #ffffff; stroke-width: 0.8; stroke-linecap: square"/>
     </g>
     <g id="line2d_48">
      <g>
       <use xlink:href="#m8eb7b44611" x="809.643873" y="310.435572" style="fill: #555555; stroke: #555555; stroke-width: 0.8"/>
      </g>
     </g>
     <g id="text_27">
      <!-- BALBIN-AM230 -->
      <g transform="translate(738.989321 392.772938) rotate(-45) scale(0.12 -0.12)">
       <use xlink:href="#DejaVuSerif-42"/>
       <use xlink:href="#DejaVuSerif-41" x="73.486328"/>
       <use xlink:href="#DejaVuSerif-4c" x="145.703125"/>
       <use xlink:href="#DejaVuSerif-42" x="212.109375"/>
       <use xlink:href="#DejaVuSerif-49" x="285.595703"/>
       <use xlink:href="#DejaVuSerif-4e" x="325.097656"/>
       <use xlink:href="#DejaVuSerif-2d" x="412.597656"/>
       <use xlink:href="#DejaVuSerif-41" x="446.386719"/>
       <use xlink:href="#DejaVuSerif-4d" x="518.603516"/>
       <use xlink:href="#DejaVuSerif-32" x="620.996094"/>
       <use xlink:href="#DejaVuSerif-33" x="684.619141"/>
       <use xlink:href="#DejaVuSerif-30" x="748.242188"/>
      </g>
     </g>
    </g>
    <g id="xtick_16">
     <g id="line2d_49">
      <path d="M 853.711127 310.435572 
L 853.711127 29.04 
" clip-path="url(#p50ae570420)" style="fill: none; stroke: #ffffff; stroke-width: 0.8; stroke-linecap: square"/>
     </g>
     <g id="line2d_50">
      <g>
       <use xlink:href="#m8eb7b44611" x="853.711127" y="310.435572" style="fill: #555555; stroke: #555555; stroke-width: 0.8"/>
      </g>
     </g>
     <g id="text_28">
      <!-- BALBEQUHE002 -->
      <g transform="translate(777.620692 398.208821) rotate(-45) scale(0.12 -0.12)">
       <defs>
        <path id="DejaVuSerif-51" d="M 2700 -91 
Q 1628 -91 993 567 
Q 359 1225 359 2328 
Q 359 2894 529 3339 
Q 700 3784 1050 4134 
Q 1356 4441 1750 4595 
Q 2144 4750 2625 4750 
Q 3641 4750 4266 4084 
Q 4891 3419 4891 2328 
Q 4891 1403 4422 773 
Q 3953 144 3128 -38 
Q 3297 -247 3539 -347 
Q 3781 -447 4122 -447 
L 4219 -447 
L 4219 -1025 
Q 3691 -1000 3314 -767 
Q 2938 -534 2700 -91 
z
M 2625 244 
Q 3391 244 3781 770 
Q 4172 1297 4172 2328 
Q 4172 3363 3781 3889 
Q 3391 4416 2625 4416 
Q 1856 4416 1465 3889 
Q 1075 3363 1075 2328 
Q 1075 1297 1465 770 
Q 1856 244 2625 244 
z
" transform="scale(0.015625)"/>
       </defs>
       <use xlink:href="#DejaVuSerif-42"/>
       <use xlink:href="#DejaVuSerif-41" x="73.486328"/>
       <use xlink:href="#DejaVuSerif-4c" x="145.703125"/>
       <use xlink:href="#DejaVuSerif-42" x="212.109375"/>
       <use xlink:href="#DejaVuSerif-45" x="285.595703"/>
       <use xlink:href="#DejaVuSerif-51" x="358.59375"/>
       <use xlink:href="#DejaVuSerif-55" x="440.576172"/>
       <use xlink:href="#DejaVuSerif-48" x="524.853516"/>
       <use xlink:href="#DejaVuSerif-45" x="612.060547"/>
       <use xlink:href="#DejaVuSerif-30" x="685.058594"/>
       <use xlink:href="#DejaVuSerif-30" x="748.681641"/>
       <use xlink:href="#DejaVuSerif-32" x="812.304688"/>
      </g>
     </g>
    </g>
    <g id="xtick_17">
     <g id="line2d_51">
      <path d="M 897.778381 310.435572 
L 897.778381 29.04 
" clip-path="url(#p50ae570420)" style="fill: none; stroke: #ffffff; stroke-width: 0.8; stroke-linecap: square"/>
     </g>
     <g id="line2d_52">
      <g>
       <use xlink:href="#m8eb7b44611" x="897.778381" y="310.435572" style="fill: #555555; stroke: #555555; stroke-width: 0.8"/>
      </g>
     </g>
     <g id="text_29">
      <!-- APARE2UTE001 -->
      <g transform="translate(825.638906 394.257862) rotate(-45) scale(0.12 -0.12)">
       <use xlink:href="#DejaVuSerif-41"/>
       <use xlink:href="#DejaVuSerif-50" x="72.216797"/>
       <use xlink:href="#DejaVuSerif-41" x="130.376953"/>
       <use xlink:href="#DejaVuSerif-52" x="202.59375"/>
       <use xlink:href="#DejaVuSerif-45" x="277.886719"/>
       <use xlink:href="#DejaVuSerif-32" x="350.884766"/>
       <use xlink:href="#DejaVuSerif-55" x="414.507812"/>
       <use xlink:href="#DejaVuSerif-54" x="498.785156"/>
       <use xlink:href="#DejaVuSerif-45" x="565.484375"/>
       <use xlink:href="#DejaVuSerif-30" x="638.482422"/>
       <use xlink:href="#DejaVuSerif-30" x="702.105469"/>
       <use xlink:href="#DejaVuSerif-31" x="765.728516"/>
      </g>
     </g>
    </g>
    <g id="xtick_18">
     <g id="line2d_53">
      <path d="M 941.845635 310.435572 
L 941.845635 29.04 
" clip-path="url(#p50ae570420)" style="fill: none; stroke: #ffffff; stroke-width: 0.8; stroke-linecap: square"/>
     </g>
     <g id="line2d_54">
      <g>
       <use xlink:href="#m8eb7b44611" x="941.845635" y="310.435572" style="fill: #555555; stroke: #555555; stroke-width: 0.8"/>
      </g>
     </g>
     <g id="text_30">
      <!-- CROCHAUTE004 -->
      <g transform="translate(865.020693 398.943328) rotate(-45) scale(0.12 -0.12)">
       <use xlink:href="#DejaVuSerif-43"/>
       <use xlink:href="#DejaVuSerif-52" x="76.513672"/>
       <use xlink:href="#DejaVuSerif-4f" x="151.806641"/>
       <use xlink:href="#DejaVuSerif-43" x="233.789062"/>
       <use xlink:href="#DejaVuSerif-48" x="310.302734"/>
       <use xlink:href="#DejaVuSerif-41" x="397.509766"/>
       <use xlink:href="#DejaVuSerif-55" x="469.726562"/>
       <use xlink:href="#DejaVuSerif-54" x="554.003906"/>
       <use xlink:href="#DejaVuSerif-45" x="620.703125"/>
       <use xlink:href="#DejaVuSerif-30" x="693.701172"/>
       <use xlink:href="#DejaVuSerif-30" x="757.324219"/>
       <use xlink:href="#DejaVuSerif-34" x="820.947266"/>
      </g>
     </g>
    </g>
    <g id="xtick_19">
     <g id="line2d_55">
      <path d="M 985.91289 310.435572 
L 985.91289 29.04 
" clip-path="url(#p50ae570420)" style="fill: none; stroke: #ffffff; stroke-width: 0.8; stroke-linecap: square"/>
     </g>
     <g id="line2d_56">
      <g>
       <use xlink:href="#m8eb7b44611" x="985.91289" y="310.435572" style="fill: #555555; stroke: #555555; stroke-width: 0.8"/>
      </g>
     </g>
     <g id="text_31">
      <!-- P.FIGU-AM230 -->
      <g transform="translate(920.558987 387.472289) rotate(-45) scale(0.12 -0.12)">
       <defs>
        <path id="DejaVuSerif-46" d="M 353 0 
L 353 331 
L 947 331 
L 947 4331 
L 353 4331 
L 353 4666 
L 4172 4666 
L 4172 3628 
L 3788 3628 
L 3788 4281 
L 1581 4281 
L 1581 2719 
L 3175 2719 
L 3175 3303 
L 3559 3303 
L 3559 1753 
L 3175 1753 
L 3175 2338 
L 1581 2338 
L 1581 331 
L 2328 331 
L 2328 0 
L 353 0 
z
" transform="scale(0.015625)"/>
       </defs>
       <use xlink:href="#DejaVuSerif-50"/>
       <use xlink:href="#DejaVuSerif-2e" x="47.035156"/>
       <use xlink:href="#DejaVuSerif-46" x="78.822266"/>
       <use xlink:href="#DejaVuSerif-49" x="148.207031"/>
       <use xlink:href="#DejaVuSerif-47" x="187.708984"/>
       <use xlink:href="#DejaVuSerif-55" x="267.591797"/>
       <use xlink:href="#DejaVuSerif-2d" x="350.119141"/>
       <use xlink:href="#DejaVuSerif-41" x="383.908203"/>
       <use xlink:href="#DejaVuSerif-4d" x="456.125"/>
       <use xlink:href="#DejaVuSerif-32" x="558.517578"/>
       <use xlink:href="#DejaVuSerif-33" x="622.140625"/>
       <use xlink:href="#DejaVuSerif-30" x="685.763672"/>
      </g>
     </g>
    </g>
    <g id="xtick_20">
     <g id="line2d_57">
      <path d="M 1029.980144 310.435572 
L 1029.980144 29.04 
" clip-path="url(#p50ae570420)" style="fill: none; stroke: #ffffff; stroke-width: 0.8; stroke-linecap: square"/>
     </g>
     <g id="line2d_58">
      <g>
       <use xlink:href="#m8eb7b44611" x="1029.980144" y="310.435572" style="fill: #555555; stroke: #555555; stroke-width: 0.8"/>
      </g>
     </g>
     <g id="text_32">
      <!-- MAUAG1UTE001 -->
      <g transform="translate(953.005383 399.093147) rotate(-45) scale(0.12 -0.12)">
       <use xlink:href="#DejaVuSerif-4d"/>
       <use xlink:href="#DejaVuSerif-41" x="102.392578"/>
       <use xlink:href="#DejaVuSerif-55" x="174.609375"/>
       <use xlink:href="#DejaVuSerif-41" x="255.761719"/>
       <use xlink:href="#DejaVuSerif-47" x="327.978516"/>
       <use xlink:href="#DejaVuSerif-31" x="407.861328"/>
       <use xlink:href="#DejaVuSerif-55" x="471.484375"/>
       <use xlink:href="#DejaVuSerif-54" x="555.761719"/>
       <use xlink:href="#DejaVuSerif-45" x="622.460938"/>
       <use xlink:href="#DejaVuSerif-30" x="695.458984"/>
       <use xlink:href="#DejaVuSerif-30" x="759.082031"/>
       <use xlink:href="#DejaVuSerif-31" x="822.705078"/>
      </g>
     </g>
    </g>
    <g id="text_33">
     <!-- Bus Name -->
     <g transform="translate(795.12875 418.385931) scale(0.14 -0.14)">
      <use xlink:href="#DejaVuSerif-42"/>
      <use xlink:href="#DejaVuSerif-75" x="73.486328"/>
      <use xlink:href="#DejaVuSerif-73" x="137.890625"/>
      <use xlink:href="#DejaVuSerif-20" x="189.208984"/>
      <use xlink:href="#DejaVuSerif-4e" x="220.996094"/>
      <use xlink:href="#DejaVuSerif-61" x="308.496094"/>
      <use xlink:href="#DejaVuSerif-6d" x="368.115234"/>
      <use xlink:href="#DejaVuSerif-65" x="462.939453"/>
     </g>
    </g>
   </g>
   <g id="matplotlib.axis_4">
    <g id="ytick_10">
     <g id="line2d_59">
      <path d="M 594.155 310.435572 
L 1069.2 310.435572 
" clip-path="url(#p50ae570420)" style="fill: none; stroke: #ffffff; stroke-width: 0.8; stroke-linecap: square"/>
     </g>
     <g id="line2d_60">
      <g>
       <use xlink:href="#m5607d59226" x="594.155" y="310.435572" style="stroke: #000000; stroke-width: 0.8"/>
      </g>
     </g>
     <g id="text_34">
      <!-- 0 -->
      <g transform="translate(577.61125 316.1344) scale(0.15 -0.15)">
       <use xlink:href="#DejaVuSerif-30"/>
      </g>
     </g>
    </g>
    <g id="ytick_11">
     <g id="line2d_61">
      <path d="M 594.155 267.210445 
L 1069.2 267.210445 
" clip-path="url(#p50ae570420)" style="fill: none; stroke: #ffffff; stroke-width: 0.8; stroke-linecap: square"/>
     </g>
     <g id="line2d_62">
      <g>
       <use xlink:href="#m5607d59226" x="594.155" y="267.210445" style="stroke: #000000; stroke-width: 0.8"/>
      </g>
     </g>
     <g id="text_35">
      <!-- 5 -->
      <g transform="translate(577.61125 272.909273) scale(0.15 -0.15)">
       <use xlink:href="#DejaVuSerif-35"/>
      </g>
     </g>
    </g>
    <g id="ytick_12">
     <g id="line2d_63">
      <path d="M 594.155 223.985319 
L 1069.2 223.985319 
" clip-path="url(#p50ae570420)" style="fill: none; stroke: #ffffff; stroke-width: 0.8; stroke-linecap: square"/>
     </g>
     <g id="line2d_64">
      <g>
       <use xlink:href="#m5607d59226" x="594.155" y="223.985319" style="stroke: #000000; stroke-width: 0.8"/>
      </g>
     </g>
     <g id="text_36">
      <!-- 10 -->
      <g transform="translate(568.0675 229.684147) scale(0.15 -0.15)">
       <use xlink:href="#DejaVuSerif-31"/>
       <use xlink:href="#DejaVuSerif-30" x="63.623047"/>
      </g>
     </g>
    </g>
    <g id="ytick_13">
     <g id="line2d_65">
      <path d="M 594.155 180.760193 
L 1069.2 180.760193 
" clip-path="url(#p50ae570420)" style="fill: none; stroke: #ffffff; stroke-width: 0.8; stroke-linecap: square"/>
     </g>
     <g id="line2d_66">
      <g>
       <use xlink:href="#m5607d59226" x="594.155" y="180.760193" style="stroke: #000000; stroke-width: 0.8"/>
      </g>
     </g>
     <g id="text_37">
      <!-- 15 -->
      <g transform="translate(568.0675 186.459021) scale(0.15 -0.15)">
       <use xlink:href="#DejaVuSerif-31"/>
       <use xlink:href="#DejaVuSerif-35" x="63.623047"/>
      </g>
     </g>
    </g>
    <g id="ytick_14">
     <g id="line2d_67">
      <path d="M 594.155 137.535067 
L 1069.2 137.535067 
" clip-path="url(#p50ae570420)" style="fill: none; stroke: #ffffff; stroke-width: 0.8; stroke-linecap: square"/>
     </g>
     <g id="line2d_68">
      <g>
       <use xlink:href="#m5607d59226" x="594.155" y="137.535067" style="stroke: #000000; stroke-width: 0.8"/>
      </g>
     </g>
     <g id="text_38">
      <!-- 20 -->
      <g transform="translate(568.0675 143.233895) scale(0.15 -0.15)">
       <use xlink:href="#DejaVuSerif-32"/>
       <use xlink:href="#DejaVuSerif-30" x="63.623047"/>
      </g>
     </g>
    </g>
    <g id="ytick_15">
     <g id="line2d_69">
      <path d="M 594.155 94.309941 
L 1069.2 94.309941 
" clip-path="url(#p50ae570420)" style="fill: none; stroke: #ffffff; stroke-width: 0.8; stroke-linecap: square"/>
     </g>
     <g id="line2d_70">
      <g>
       <use xlink:href="#m5607d59226" x="594.155" y="94.309941" style="stroke: #000000; stroke-width: 0.8"/>
      </g>
     </g>
     <g id="text_39">
      <!-- 25 -->
      <g transform="translate(568.0675 100.008769) scale(0.15 -0.15)">
       <use xlink:href="#DejaVuSerif-32"/>
       <use xlink:href="#DejaVuSerif-35" x="63.623047"/>
      </g>
     </g>
    </g>
    <g id="ytick_16">
     <g id="line2d_71">
      <path d="M 594.155 51.084814 
L 1069.2 51.084814 
" clip-path="url(#p50ae570420)" style="fill: none; stroke: #ffffff; stroke-width: 0.8; stroke-linecap: square"/>
     </g>
     <g id="line2d_72">
      <g>
       <use xlink:href="#m5607d59226" x="594.155" y="51.084814" style="stroke: #000000; stroke-width: 0.8"/>
      </g>
     </g>
     <g id="text_40">
      <!-- 30 -->
      <g transform="translate(568.0675 56.783642) scale(0.15 -0.15)">
       <use xlink:href="#DejaVuSerif-33"/>
       <use xlink:href="#DejaVuSerif-30" x="63.623047"/>
      </g>
     </g>
    </g>
    <g id="text_41">
     <!-- Count -->
     <g transform="translate(560.947969 192.666692) rotate(-90) scale(0.15 -0.15)">
      <use xlink:href="#DejaVuSerif-43"/>
      <use xlink:href="#DejaVuSerif-6f" x="76.513672"/>
      <use xlink:href="#DejaVuSerif-75" x="136.71875"/>
      <use xlink:href="#DejaVuSerif-6e" x="201.123047"/>
      <use xlink:href="#DejaVuSerif-74" x="265.527344"/>
     </g>
    </g>
   </g>
   <g id="patch_18">
    <path d="M 615.747955 310.435572 
L 651.001758 310.435572 
L 651.001758 42.439789 
L 615.747955 42.439789 
z
" clip-path="url(#p50ae570420)" style="fill: #87ceeb"/>
   </g>
   <g id="patch_19">
    <path d="M 659.815209 310.435572 
L 695.069012 310.435572 
L 695.069012 51.084814 
L 659.815209 51.084814 
z
" clip-path="url(#p50ae570420)" style="fill: #87ceeb"/>
   </g>
   <g id="patch_20">
    <path d="M 703.882463 310.435572 
L 739.136266 310.435572 
L 739.136266 59.72984 
L 703.882463 59.72984 
z
" clip-path="url(#p50ae570420)" style="fill: #87ceeb"/>
   </g>
   <g id="patch_21">
    <path d="M 747.949717 310.435572 
L 783.20352 310.435572 
L 783.20352 68.374865 
L 747.949717 68.374865 
z
" clip-path="url(#p50ae570420)" style="fill: #87ceeb"/>
   </g>
   <g id="patch_22">
    <path d="M 792.016971 310.435572 
L 827.270775 310.435572 
L 827.270775 68.374865 
L 792.016971 68.374865 
z
" clip-path="url(#p50ae570420)" style="fill: #87ceeb"/>
   </g>
   <g id="patch_23">
    <path d="M 836.084225 310.435572 
L 871.338029 310.435572 
L 871.338029 85.664915 
L 836.084225 85.664915 
z
" clip-path="url(#p50ae570420)" style="fill: #87ceeb"/>
   </g>
   <g id="patch_24">
    <path d="M 880.15148 310.435572 
L 915.405283 310.435572 
L 915.405283 94.309941 
L 880.15148 94.309941 
z
" clip-path="url(#p50ae570420)" style="fill: #87ceeb"/>
   </g>
   <g id="patch_25">
    <path d="M 924.218734 310.435572 
L 959.472537 310.435572 
L 959.472537 111.599991 
L 924.218734 111.599991 
z
" clip-path="url(#p50ae570420)" style="fill: #87ceeb"/>
   </g>
   <g id="patch_26">
    <path d="M 968.285988 310.435572 
L 1003.539791 310.435572 
L 1003.539791 120.245016 
L 968.285988 120.245016 
z
" clip-path="url(#p50ae570420)" style="fill: #87ceeb"/>
   </g>
   <g id="patch_27">
    <path d="M 1012.353242 310.435572 
L 1047.607045 310.435572 
L 1047.607045 128.890042 
L 1012.353242 128.890042 
z
" clip-path="url(#p50ae570420)" style="fill: #87ceeb"/>
   </g>
   <g id="patch_28">
    <path d="M 594.155 310.435572 
L 594.155 29.04 
" style="fill: none; stroke: #000000; stroke-width: 1.2; stroke-linejoin: miter; stroke-linecap: square"/>
   </g>
   <g id="patch_29">
    <path d="M 1069.2 310.435572 
L 1069.2 29.04 
" style="fill: none; stroke: #000000; stroke-width: 1.2; stroke-linejoin: miter; stroke-linecap: square"/>
   </g>
   <g id="patch_30">
    <path d="M 594.155 310.435572 
L 1069.2 310.435572 
" style="fill: none; stroke: #000000; stroke-width: 1.2; stroke-linejoin: miter; stroke-linecap: square"/>
   </g>
   <g id="patch_31">
    <path d="M 594.155 29.04 
L 1069.2 29.04 
" style="fill: none; stroke: #000000; stroke-width: 1.2; stroke-linejoin: miter; stroke-linecap: square"/>
   </g>
   <g id="text_42">
    <!-- Top 10 Bus Names with MODV_PU &gt; 1.2 -->
    <g transform="translate(665.7275 23.04) scale(0.16 -0.16)">
     <defs>
      <path id="DejaVuSerif-3e" d="M 678 3188 
L 678 3719 
L 4684 2266 
L 4684 1747 
L 678 294 
L 678 825 
L 3922 2003 
L 678 3188 
z
" transform="scale(0.015625)"/>
     </defs>
     <use xlink:href="#DejaVuSerif-54"/>
     <use xlink:href="#DejaVuSerif-6f" x="58.949219"/>
     <use xlink:href="#DejaVuSerif-70" x="119.154297"/>
     <use xlink:href="#DejaVuSerif-20" x="183.167969"/>
     <use xlink:href="#DejaVuSerif-31" x="214.955078"/>
     <use xlink:href="#DejaVuSerif-30" x="278.578125"/>
     <use xlink:href="#DejaVuSerif-20" x="342.201172"/>
     <use xlink:href="#DejaVuSerif-42" x="373.988281"/>
     <use xlink:href="#DejaVuSerif-75" x="447.474609"/>
     <use xlink:href="#DejaVuSerif-73" x="511.878906"/>
     <use xlink:href="#DejaVuSerif-20" x="563.197266"/>
     <use xlink:href="#DejaVuSerif-4e" x="594.984375"/>
     <use xlink:href="#DejaVuSerif-61" x="682.484375"/>
     <use xlink:href="#DejaVuSerif-6d" x="742.103516"/>
     <use xlink:href="#DejaVuSerif-65" x="836.927734"/>
     <use xlink:href="#DejaVuSerif-73" x="896.107422"/>
     <use xlink:href="#DejaVuSerif-20" x="947.425781"/>
     <use xlink:href="#DejaVuSerif-77" x="979.212891"/>
     <use xlink:href="#DejaVuSerif-69" x="1064.808594"/>
     <use xlink:href="#DejaVuSerif-74" x="1096.791016"/>
     <use xlink:href="#DejaVuSerif-68" x="1136.976562"/>
     <use xlink:href="#DejaVuSerif-20" x="1201.380859"/>
     <use xlink:href="#DejaVuSerif-4d" x="1233.167969"/>
     <use xlink:href="#DejaVuSerif-4f" x="1335.560547"/>
     <use xlink:href="#DejaVuSerif-44" x="1417.542969"/>
     <use xlink:href="#DejaVuSerif-56" x="1495.96875"/>
     <use xlink:href="#DejaVuSerif-5f" x="1568.185547"/>
     <use xlink:href="#DejaVuSerif-50" x="1618.185547"/>
     <use xlink:href="#DejaVuSerif-55" x="1683.720703"/>
     <use xlink:href="#DejaVuSerif-20" x="1767.998047"/>
     <use xlink:href="#DejaVuSerif-3e" x="1799.785156"/>
     <use xlink:href="#DejaVuSerif-20" x="1883.574219"/>
     <use xlink:href="#DejaVuSerif-31" x="1915.361328"/>
     <use xlink:href="#DejaVuSerif-2e" x="1978.984375"/>
     <use xlink:href="#DejaVuSerif-32" x="2010.771484"/>
    </g>
   </g>
  </g>
 </g>
 <defs>
  <clipPath id="p61bfe155f3">
   <rect x="64.37" y="29.04" width="475.045" height="281.395572"/>
  </clipPath>
  <clipPath id="p50ae570420">
   <rect x="594.155" y="29.04" width="475.045" height="281.395572"/>
  </clipPath>
 </defs>
</svg>
