<?xml version="1.0" encoding="utf-8" standalone="no"?>
<!DOCTYPE svg PUBLIC "-//W3C//DTD SVG 1.1//EN"
  "http://www.w3.org/Graphics/SVG/1.1/DTD/svg11.dtd">
<svg xmlns:xlink="http://www.w3.org/1999/xlink" width="1296pt" height="504pt" viewBox="0 0 1296 504" xmlns="http://www.w3.org/2000/svg" version="1.1">
 <metadata>
  <rdf:RDF xmlns:dc="http://purl.org/dc/elements/1.1/" xmlns:cc="http://creativecommons.org/ns#" xmlns:rdf="http://www.w3.org/1999/02/22-rdf-syntax-ns#">
   <cc:Work>
    <dc:type rdf:resource="http://purl.org/dc/dcmitype/StillImage"/>
    <dc:date>2024-11-04T18:26:43.158554</dc:date>
    <dc:format>image/svg+xml</dc:format>
    <dc:creator>
     <cc:Agent>
      <dc:title>Matplotlib v3.7.2, https://matplotlib.org/</dc:title>
     </cc:Agent>
    </dc:creator>
   </cc:Work>
  </rdf:RDF>
 </metadata>
 <defs>
  <style type="text/css">*{stroke-linejoin: round; stroke-linecap: butt}</style>
 </defs>
 <g id="figure_1">
  <g id="patch_1">
   <path d="M 0 504 
L 1296 504 
L 1296 0 
L 0 0 
z
" style="fill: #ffffff"/>
  </g>
  <g id="axes_1">
   <g id="patch_2">
    <path d="M 162 448.56 
L 1166.4 448.56 
L 1166.4 60.48 
L 162 60.48 
z
" style="fill: #e5e5e5"/>
   </g>
   <g id="matplotlib.axis_1">
    <g id="xtick_1">
     <g id="line2d_1">
      <defs>
       <path id="m2ac9c2168a" d="M 0 0 
L 0 3.5 
" style="stroke: #000000; stroke-width: 0.8"/>
      </defs>
      <g>
       <use xlink:href="#m2ac9c2168a" x="203.85" y="448.56" style="stroke: #000000; stroke-width: 0.8"/>
      </g>
     </g>
     <g id="text_1">
      <!-- V1A1F2 -->
      <g transform="translate(173.497266 466.957656) scale(0.15 -0.15)">
       <defs>
        <path id="DejaVuSerif-56" d="M 1119 4331 
L 2497 750 
L 3872 4331 
L 3347 4331 
L 3347 4666 
L 4716 4666 
L 4716 4331 
L 4263 4331 
L 2597 0 
L 2059 0 
L 403 4331 
L -63 4331 
L -63 4666 
L 1638 4666 
L 1638 4331 
L 1119 4331 
z
" transform="scale(0.015625)"/>
        <path id="DejaVuSerif-31" d="M 909 0 
L 909 331 
L 1722 331 
L 1722 4213 
L 781 3603 
L 781 4013 
L 1919 4750 
L 2350 4750 
L 2350 331 
L 3163 331 
L 3163 0 
L 909 0 
z
" transform="scale(0.015625)"/>
        <path id="DejaVuSerif-41" d="M 1281 1691 
L 2994 1691 
L 2138 3909 
L 1281 1691 
z
M -38 0 
L -38 331 
L 372 331 
L 2034 4666 
L 2559 4666 
L 4225 331 
L 4684 331 
L 4684 0 
L 2988 0 
L 2988 331 
L 3506 331 
L 3116 1356 
L 1153 1356 
L 763 331 
L 1275 331 
L 1275 0 
L -38 0 
z
" transform="scale(0.015625)"/>
        <path id="DejaVuSerif-46" d="M 353 0 
L 353 331 
L 947 331 
L 947 4331 
L 353 4331 
L 353 4666 
L 4172 4666 
L 4172 3628 
L 3788 3628 
L 3788 4281 
L 1581 4281 
L 1581 2719 
L 3175 2719 
L 3175 3303 
L 3559 3303 
L 3559 1753 
L 3175 1753 
L 3175 2338 
L 1581 2338 
L 1581 331 
L 2328 331 
L 2328 0 
L 353 0 
z
" transform="scale(0.015625)"/>
        <path id="DejaVuSerif-32" d="M 819 3553 
L 469 3553 
L 469 4384 
Q 803 4563 1142 4656 
Q 1481 4750 1806 4750 
Q 2534 4750 2956 4397 
Q 3378 4044 3378 3438 
Q 3378 2753 2422 1800 
Q 2347 1728 2309 1691 
L 1131 513 
L 3078 513 
L 3078 1088 
L 3444 1088 
L 3444 0 
L 434 0 
L 434 341 
L 1850 1753 
Q 2319 2222 2519 2614 
Q 2719 3006 2719 3438 
Q 2719 3909 2473 4175 
Q 2228 4441 1797 4441 
Q 1350 4441 1106 4219 
Q 863 3997 819 3553 
z
" transform="scale(0.015625)"/>
       </defs>
       <use xlink:href="#DejaVuSerif-56"/>
       <use xlink:href="#DejaVuSerif-31" x="72.216797"/>
       <use xlink:href="#DejaVuSerif-41" x="135.839844"/>
       <use xlink:href="#DejaVuSerif-31" x="208.056641"/>
       <use xlink:href="#DejaVuSerif-46" x="271.679688"/>
       <use xlink:href="#DejaVuSerif-32" x="341.064453"/>
      </g>
     </g>
    </g>
    <g id="xtick_2">
     <g id="line2d_2">
      <g>
       <use xlink:href="#m2ac9c2168a" x="287.55" y="448.56" style="stroke: #000000; stroke-width: 0.8"/>
      </g>
     </g>
     <g id="text_2">
      <!-- V1A1F3 -->
      <g transform="translate(257.197266 466.957656) scale(0.15 -0.15)">
       <defs>
        <path id="DejaVuSerif-33" d="M 622 4469 
Q 988 4606 1323 4678 
Q 1659 4750 1953 4750 
Q 2638 4750 3022 4454 
Q 3406 4159 3406 3634 
Q 3406 3213 3140 2930 
Q 2875 2647 2388 2547 
Q 2963 2466 3280 2130 
Q 3597 1794 3597 1259 
Q 3597 606 3158 257 
Q 2719 -91 1894 -91 
Q 1528 -91 1179 -12 
Q 831 66 488 225 
L 488 1131 
L 838 1131 
Q 869 681 1141 450 
Q 1413 219 1906 219 
Q 2384 219 2661 495 
Q 2938 772 2938 1253 
Q 2938 1803 2653 2086 
Q 2369 2369 1819 2369 
L 1522 2369 
L 1522 2688 
L 1678 2688 
Q 2225 2688 2498 2914 
Q 2772 3141 2772 3597 
Q 2772 4006 2547 4223 
Q 2322 4441 1900 4441 
Q 1478 4441 1245 4241 
Q 1013 4041 972 3647 
L 622 3647 
L 622 4469 
z
" transform="scale(0.015625)"/>
       </defs>
       <use xlink:href="#DejaVuSerif-56"/>
       <use xlink:href="#DejaVuSerif-31" x="72.216797"/>
       <use xlink:href="#DejaVuSerif-41" x="135.839844"/>
       <use xlink:href="#DejaVuSerif-31" x="208.056641"/>
       <use xlink:href="#DejaVuSerif-46" x="271.679688"/>
       <use xlink:href="#DejaVuSerif-33" x="341.064453"/>
      </g>
     </g>
    </g>
    <g id="xtick_3">
     <g id="line2d_3">
      <g>
       <use xlink:href="#m2ac9c2168a" x="371.25" y="448.56" style="stroke: #000000; stroke-width: 0.8"/>
      </g>
     </g>
     <g id="text_3">
      <!-- V1A1F4 -->
      <g transform="translate(340.897266 466.957656) scale(0.15 -0.15)">
       <defs>
        <path id="DejaVuSerif-34" d="M 2234 1581 
L 2234 4063 
L 641 1581 
L 2234 1581 
z
M 3609 0 
L 1484 0 
L 1484 331 
L 2234 331 
L 2234 1247 
L 197 1247 
L 197 1588 
L 2241 4750 
L 2859 4750 
L 2859 1581 
L 3750 1581 
L 3750 1247 
L 2859 1247 
L 2859 331 
L 3609 331 
L 3609 0 
z
" transform="scale(0.015625)"/>
       </defs>
       <use xlink:href="#DejaVuSerif-56"/>
       <use xlink:href="#DejaVuSerif-31" x="72.216797"/>
       <use xlink:href="#DejaVuSerif-41" x="135.839844"/>
       <use xlink:href="#DejaVuSerif-31" x="208.056641"/>
       <use xlink:href="#DejaVuSerif-46" x="271.679688"/>
       <use xlink:href="#DejaVuSerif-34" x="341.064453"/>
      </g>
     </g>
    </g>
    <g id="xtick_4">
     <g id="line2d_4">
      <g>
       <use xlink:href="#m2ac9c2168a" x="454.95" y="448.56" style="stroke: #000000; stroke-width: 0.8"/>
      </g>
     </g>
     <g id="text_4">
      <!-- V1A1F5 -->
      <g transform="translate(424.597266 466.957656) scale(0.15 -0.15)">
       <defs>
        <path id="DejaVuSerif-35" d="M 3219 4666 
L 3219 4153 
L 1081 4153 
L 1081 2816 
Q 1244 2928 1461 2984 
Q 1678 3041 1947 3041 
Q 2703 3041 3140 2622 
Q 3578 2203 3578 1478 
Q 3578 738 3136 323 
Q 2694 -91 1894 -91 
Q 1572 -91 1234 -12 
Q 897 66 544 225 
L 544 1131 
L 897 1131 
Q 925 688 1179 453 
Q 1434 219 1894 219 
Q 2388 219 2653 544 
Q 2919 869 2919 1478 
Q 2919 2084 2655 2407 
Q 2391 2731 1894 2731 
Q 1613 2731 1398 2631 
Q 1184 2531 1019 2322 
L 750 2322 
L 750 4666 
L 3219 4666 
z
" transform="scale(0.015625)"/>
       </defs>
       <use xlink:href="#DejaVuSerif-56"/>
       <use xlink:href="#DejaVuSerif-31" x="72.216797"/>
       <use xlink:href="#DejaVuSerif-41" x="135.839844"/>
       <use xlink:href="#DejaVuSerif-31" x="208.056641"/>
       <use xlink:href="#DejaVuSerif-46" x="271.679688"/>
       <use xlink:href="#DejaVuSerif-35" x="341.064453"/>
      </g>
     </g>
    </g>
    <g id="xtick_5">
     <g id="line2d_5">
      <g>
       <use xlink:href="#m2ac9c2168a" x="538.65" y="448.56" style="stroke: #000000; stroke-width: 0.8"/>
      </g>
     </g>
     <g id="text_5">
      <!-- V2A2F2 -->
      <g transform="translate(508.297266 466.957656) scale(0.15 -0.15)">
       <use xlink:href="#DejaVuSerif-56"/>
       <use xlink:href="#DejaVuSerif-32" x="72.216797"/>
       <use xlink:href="#DejaVuSerif-41" x="135.839844"/>
       <use xlink:href="#DejaVuSerif-32" x="208.056641"/>
       <use xlink:href="#DejaVuSerif-46" x="271.679688"/>
       <use xlink:href="#DejaVuSerif-32" x="341.064453"/>
      </g>
     </g>
    </g>
    <g id="xtick_6">
     <g id="line2d_6">
      <g>
       <use xlink:href="#m2ac9c2168a" x="622.35" y="448.56" style="stroke: #000000; stroke-width: 0.8"/>
      </g>
     </g>
     <g id="text_6">
      <!-- V2A2F3 -->
      <g transform="translate(591.997266 466.957656) scale(0.15 -0.15)">
       <use xlink:href="#DejaVuSerif-56"/>
       <use xlink:href="#DejaVuSerif-32" x="72.216797"/>
       <use xlink:href="#DejaVuSerif-41" x="135.839844"/>
       <use xlink:href="#DejaVuSerif-32" x="208.056641"/>
       <use xlink:href="#DejaVuSerif-46" x="271.679688"/>
       <use xlink:href="#DejaVuSerif-33" x="341.064453"/>
      </g>
     </g>
    </g>
    <g id="xtick_7">
     <g id="line2d_7">
      <g>
       <use xlink:href="#m2ac9c2168a" x="706.05" y="448.56" style="stroke: #000000; stroke-width: 0.8"/>
      </g>
     </g>
     <g id="text_7">
      <!-- V2A2F4 -->
      <g transform="translate(675.697266 466.957656) scale(0.15 -0.15)">
       <use xlink:href="#DejaVuSerif-56"/>
       <use xlink:href="#DejaVuSerif-32" x="72.216797"/>
       <use xlink:href="#DejaVuSerif-41" x="135.839844"/>
       <use xlink:href="#DejaVuSerif-32" x="208.056641"/>
       <use xlink:href="#DejaVuSerif-46" x="271.679688"/>
       <use xlink:href="#DejaVuSerif-34" x="341.064453"/>
      </g>
     </g>
    </g>
    <g id="xtick_8">
     <g id="line2d_8">
      <g>
       <use xlink:href="#m2ac9c2168a" x="789.75" y="448.56" style="stroke: #000000; stroke-width: 0.8"/>
      </g>
     </g>
     <g id="text_8">
      <!-- V2A2F5 -->
      <g transform="translate(759.397266 466.957656) scale(0.15 -0.15)">
       <use xlink:href="#DejaVuSerif-56"/>
       <use xlink:href="#DejaVuSerif-32" x="72.216797"/>
       <use xlink:href="#DejaVuSerif-41" x="135.839844"/>
       <use xlink:href="#DejaVuSerif-32" x="208.056641"/>
       <use xlink:href="#DejaVuSerif-46" x="271.679688"/>
       <use xlink:href="#DejaVuSerif-35" x="341.064453"/>
      </g>
     </g>
    </g>
    <g id="xtick_9">
     <g id="line2d_9">
      <g>
       <use xlink:href="#m2ac9c2168a" x="873.45" y="448.56" style="stroke: #000000; stroke-width: 0.8"/>
      </g>
     </g>
     <g id="text_9">
      <!-- V3A3F2 -->
      <g transform="translate(843.097266 466.957656) scale(0.15 -0.15)">
       <use xlink:href="#DejaVuSerif-56"/>
       <use xlink:href="#DejaVuSerif-33" x="72.216797"/>
       <use xlink:href="#DejaVuSerif-41" x="135.839844"/>
       <use xlink:href="#DejaVuSerif-33" x="208.056641"/>
       <use xlink:href="#DejaVuSerif-46" x="271.679688"/>
       <use xlink:href="#DejaVuSerif-32" x="341.064453"/>
      </g>
     </g>
    </g>
    <g id="xtick_10">
     <g id="line2d_10">
      <g>
       <use xlink:href="#m2ac9c2168a" x="957.15" y="448.56" style="stroke: #000000; stroke-width: 0.8"/>
      </g>
     </g>
     <g id="text_10">
      <!-- V3A3F3 -->
      <g transform="translate(926.797266 466.957656) scale(0.15 -0.15)">
       <use xlink:href="#DejaVuSerif-56"/>
       <use xlink:href="#DejaVuSerif-33" x="72.216797"/>
       <use xlink:href="#DejaVuSerif-41" x="135.839844"/>
       <use xlink:href="#DejaVuSerif-33" x="208.056641"/>
       <use xlink:href="#DejaVuSerif-46" x="271.679688"/>
       <use xlink:href="#DejaVuSerif-33" x="341.064453"/>
      </g>
     </g>
    </g>
    <g id="xtick_11">
     <g id="line2d_11">
      <g>
       <use xlink:href="#m2ac9c2168a" x="1040.85" y="448.56" style="stroke: #000000; stroke-width: 0.8"/>
      </g>
     </g>
     <g id="text_11">
      <!-- V3A3F4 -->
      <g transform="translate(1010.497266 466.957656) scale(0.15 -0.15)">
       <use xlink:href="#DejaVuSerif-56"/>
       <use xlink:href="#DejaVuSerif-33" x="72.216797"/>
       <use xlink:href="#DejaVuSerif-41" x="135.839844"/>
       <use xlink:href="#DejaVuSerif-33" x="208.056641"/>
       <use xlink:href="#DejaVuSerif-46" x="271.679688"/>
       <use xlink:href="#DejaVuSerif-34" x="341.064453"/>
      </g>
     </g>
    </g>
    <g id="xtick_12">
     <g id="line2d_12">
      <g>
       <use xlink:href="#m2ac9c2168a" x="1124.55" y="448.56" style="stroke: #000000; stroke-width: 0.8"/>
      </g>
     </g>
     <g id="text_12">
      <!-- V3A3F5 -->
      <g transform="translate(1094.197266 466.957656) scale(0.15 -0.15)">
       <use xlink:href="#DejaVuSerif-56"/>
       <use xlink:href="#DejaVuSerif-33" x="72.216797"/>
       <use xlink:href="#DejaVuSerif-41" x="135.839844"/>
       <use xlink:href="#DejaVuSerif-33" x="208.056641"/>
       <use xlink:href="#DejaVuSerif-46" x="271.679688"/>
       <use xlink:href="#DejaVuSerif-35" x="341.064453"/>
      </g>
     </g>
    </g>
    <g id="text_13">
     <!-- Cenário -->
     <g transform="translate(632.2225 486.234688) scale(0.16 -0.16)">
      <defs>
       <path id="DejaVuSerif-43" d="M 4513 1234 
Q 4306 581 3820 245 
Q 3334 -91 2591 -91 
Q 2134 -91 1743 65 
Q 1353 222 1050 525 
Q 700 875 529 1320 
Q 359 1766 359 2328 
Q 359 3416 987 4083 
Q 1616 4750 2644 4750 
Q 3025 4750 3456 4650 
Q 3888 4550 4384 4347 
L 4384 3272 
L 4031 3272 
Q 3916 3859 3567 4137 
Q 3219 4416 2591 4416 
Q 1844 4416 1459 3886 
Q 1075 3356 1075 2328 
Q 1075 1303 1459 773 
Q 1844 244 2591 244 
Q 3113 244 3450 492 
Q 3788 741 3938 1234 
L 4513 1234 
z
" transform="scale(0.015625)"/>
       <path id="DejaVuSerif-65" d="M 3469 1600 
L 991 1600 
L 991 1575 
Q 991 903 1244 561 
Q 1497 219 1991 219 
Q 2369 219 2611 417 
Q 2853 616 2950 1006 
L 3413 1006 
Q 3275 459 2904 184 
Q 2534 -91 1931 -91 
Q 1203 -91 761 389 
Q 319 869 319 1663 
Q 319 2450 753 2931 
Q 1188 3413 1894 3413 
Q 2647 3413 3050 2948 
Q 3453 2484 3469 1600 
z
M 2791 1931 
Q 2772 2513 2545 2808 
Q 2319 3103 1894 3103 
Q 1497 3103 1269 2806 
Q 1041 2509 991 1931 
L 2791 1931 
z
" transform="scale(0.015625)"/>
       <path id="DejaVuSerif-6e" d="M 263 0 
L 263 331 
L 781 331 
L 781 2988 
L 231 2988 
L 231 3322 
L 1356 3322 
L 1356 2731 
Q 1516 3069 1770 3241 
Q 2025 3413 2363 3413 
Q 2913 3413 3172 3097 
Q 3431 2781 3431 2113 
L 3431 331 
L 3944 331 
L 3944 0 
L 2356 0 
L 2356 331 
L 2853 331 
L 2853 1931 
Q 2853 2541 2703 2767 
Q 2553 2994 2175 2994 
Q 1775 2994 1565 2701 
Q 1356 2409 1356 1850 
L 1356 331 
L 1856 331 
L 1856 0 
L 263 0 
z
" transform="scale(0.015625)"/>
       <path id="DejaVuSerif-e1" d="M 2547 1044 
L 2547 1747 
L 1806 1747 
Q 1378 1747 1168 1562 
Q 959 1378 959 997 
Q 959 650 1171 447 
Q 1384 244 1747 244 
Q 2106 244 2326 466 
Q 2547 688 2547 1044 
z
M 3122 2075 
L 3122 331 
L 3634 331 
L 3634 0 
L 2547 0 
L 2547 359 
Q 2356 128 2106 18 
Q 1856 -91 1522 -91 
Q 969 -91 644 203 
Q 319 497 319 997 
Q 319 1513 691 1797 
Q 1063 2081 1741 2081 
L 2547 2081 
L 2547 2309 
Q 2547 2688 2317 2895 
Q 2088 3103 1672 3103 
Q 1328 3103 1125 2947 
Q 922 2791 872 2484 
L 575 2484 
L 575 3156 
Q 875 3284 1158 3348 
Q 1441 3413 1709 3413 
Q 2400 3413 2761 3070 
Q 3122 2728 3122 2075 
z
M 2210 5119 
L 2832 5119 
L 1770 3944 
L 1404 3944 
L 2210 5119 
z
" transform="scale(0.015625)"/>
       <path id="DejaVuSerif-72" d="M 3059 3328 
L 3059 2497 
L 2728 2497 
Q 2713 2744 2591 2866 
Q 2469 2988 2234 2988 
Q 1809 2988 1582 2694 
Q 1356 2400 1356 1850 
L 1356 331 
L 2022 331 
L 2022 0 
L 263 0 
L 263 331 
L 781 331 
L 781 2994 
L 231 2994 
L 231 3322 
L 1356 3322 
L 1356 2731 
Q 1525 3078 1790 3245 
Q 2056 3413 2438 3413 
Q 2578 3413 2733 3391 
Q 2888 3369 3059 3328 
z
" transform="scale(0.015625)"/>
       <path id="DejaVuSerif-69" d="M 622 4353 
Q 622 4497 726 4603 
Q 831 4709 978 4709 
Q 1122 4709 1226 4603 
Q 1331 4497 1331 4353 
Q 1331 4206 1228 4103 
Q 1125 4000 978 4000 
Q 831 4000 726 4103 
Q 622 4206 622 4353 
z
M 1356 331 
L 1900 331 
L 1900 0 
L 231 0 
L 231 331 
L 781 331 
L 781 2988 
L 231 2988 
L 231 3322 
L 1356 3322 
L 1356 331 
z
" transform="scale(0.015625)"/>
       <path id="DejaVuSerif-6f" d="M 1925 219 
Q 2388 219 2623 584 
Q 2859 950 2859 1663 
Q 2859 2375 2623 2739 
Q 2388 3103 1925 3103 
Q 1463 3103 1227 2739 
Q 991 2375 991 1663 
Q 991 950 1228 584 
Q 1466 219 1925 219 
z
M 1925 -91 
Q 1200 -91 759 389 
Q 319 869 319 1663 
Q 319 2456 758 2934 
Q 1197 3413 1925 3413 
Q 2653 3413 3092 2934 
Q 3531 2456 3531 1663 
Q 3531 869 3092 389 
Q 2653 -91 1925 -91 
z
" transform="scale(0.015625)"/>
      </defs>
      <use xlink:href="#DejaVuSerif-43"/>
      <use xlink:href="#DejaVuSerif-65" x="76.513672"/>
      <use xlink:href="#DejaVuSerif-6e" x="135.693359"/>
      <use xlink:href="#DejaVuSerif-e1" x="200.097656"/>
      <use xlink:href="#DejaVuSerif-72" x="259.716797"/>
      <use xlink:href="#DejaVuSerif-69" x="307.519531"/>
      <use xlink:href="#DejaVuSerif-6f" x="339.501953"/>
     </g>
    </g>
   </g>
   <g id="matplotlib.axis_2">
    <g id="ytick_1">
     <g id="line2d_13">
      <path d="M 162 431.091077 
L 1166.4 431.091077 
" clip-path="url(#p530606f48e)" style="fill: none; stroke: #ffffff; stroke-width: 0.8; stroke-linecap: square"/>
     </g>
     <g id="line2d_14">
      <defs>
       <path id="madc59bb3f0" d="M 0 0 
L -3.5 0 
" style="stroke: #000000; stroke-width: 0.8"/>
      </defs>
      <g>
       <use xlink:href="#madc59bb3f0" x="162" y="431.091077" style="stroke: #000000; stroke-width: 0.8"/>
      </g>
     </g>
     <g id="text_14">
      <!-- 17.5 -->
      <g transform="translate(121.601562 436.789905) scale(0.15 -0.15)">
       <defs>
        <path id="DejaVuSerif-37" d="M 3609 4347 
L 1784 0 
L 1319 0 
L 3059 4153 
L 903 4153 
L 903 3578 
L 538 3578 
L 538 4666 
L 3609 4666 
L 3609 4347 
z
" transform="scale(0.015625)"/>
        <path id="DejaVuSerif-2e" d="M 603 325 
Q 603 500 722 622 
Q 841 744 1019 744 
Q 1191 744 1312 622 
Q 1434 500 1434 325 
Q 1434 153 1312 31 
Q 1191 -91 1019 -91 
Q 841 -91 722 29 
Q 603 150 603 325 
z
" transform="scale(0.015625)"/>
       </defs>
       <use xlink:href="#DejaVuSerif-31"/>
       <use xlink:href="#DejaVuSerif-37" x="63.623047"/>
       <use xlink:href="#DejaVuSerif-2e" x="127.246094"/>
       <use xlink:href="#DejaVuSerif-35" x="159.033203"/>
      </g>
     </g>
    </g>
    <g id="ytick_2">
     <g id="line2d_15">
      <path d="M 162 378.424864 
L 1166.4 378.424864 
" clip-path="url(#p530606f48e)" style="fill: none; stroke: #ffffff; stroke-width: 0.8; stroke-linecap: square"/>
     </g>
     <g id="line2d_16">
      <g>
       <use xlink:href="#madc59bb3f0" x="162" y="378.424864" style="stroke: #000000; stroke-width: 0.8"/>
      </g>
     </g>
     <g id="text_15">
      <!-- 20.0 -->
      <g transform="translate(121.601562 384.123692) scale(0.15 -0.15)">
       <defs>
        <path id="DejaVuSerif-30" d="M 2034 219 
Q 2513 219 2750 744 
Q 2988 1269 2988 2328 
Q 2988 3391 2750 3916 
Q 2513 4441 2034 4441 
Q 1556 4441 1318 3916 
Q 1081 3391 1081 2328 
Q 1081 1269 1318 744 
Q 1556 219 2034 219 
z
M 2034 -91 
Q 1275 -91 848 546 
Q 422 1184 422 2328 
Q 422 3475 848 4112 
Q 1275 4750 2034 4750 
Q 2797 4750 3222 4112 
Q 3647 3475 3647 2328 
Q 3647 1184 3222 546 
Q 2797 -91 2034 -91 
z
" transform="scale(0.015625)"/>
       </defs>
       <use xlink:href="#DejaVuSerif-32"/>
       <use xlink:href="#DejaVuSerif-30" x="63.623047"/>
       <use xlink:href="#DejaVuSerif-2e" x="127.246094"/>
       <use xlink:href="#DejaVuSerif-30" x="159.033203"/>
      </g>
     </g>
    </g>
    <g id="ytick_3">
     <g id="line2d_17">
      <path d="M 162 325.758652 
L 1166.4 325.758652 
" clip-path="url(#p530606f48e)" style="fill: none; stroke: #ffffff; stroke-width: 0.8; stroke-linecap: square"/>
     </g>
     <g id="line2d_18">
      <g>
       <use xlink:href="#madc59bb3f0" x="162" y="325.758652" style="stroke: #000000; stroke-width: 0.8"/>
      </g>
     </g>
     <g id="text_16">
      <!-- 22.5 -->
      <g transform="translate(121.601562 331.45748) scale(0.15 -0.15)">
       <use xlink:href="#DejaVuSerif-32"/>
       <use xlink:href="#DejaVuSerif-32" x="63.623047"/>
       <use xlink:href="#DejaVuSerif-2e" x="127.246094"/>
       <use xlink:href="#DejaVuSerif-35" x="159.033203"/>
      </g>
     </g>
    </g>
    <g id="ytick_4">
     <g id="line2d_19">
      <path d="M 162 273.092439 
L 1166.4 273.092439 
" clip-path="url(#p530606f48e)" style="fill: none; stroke: #ffffff; stroke-width: 0.8; stroke-linecap: square"/>
     </g>
     <g id="line2d_20">
      <g>
       <use xlink:href="#madc59bb3f0" x="162" y="273.092439" style="stroke: #000000; stroke-width: 0.8"/>
      </g>
     </g>
     <g id="text_17">
      <!-- 25.0 -->
      <g transform="translate(121.601562 278.791268) scale(0.15 -0.15)">
       <use xlink:href="#DejaVuSerif-32"/>
       <use xlink:href="#DejaVuSerif-35" x="63.623047"/>
       <use xlink:href="#DejaVuSerif-2e" x="127.246094"/>
       <use xlink:href="#DejaVuSerif-30" x="159.033203"/>
      </g>
     </g>
    </g>
    <g id="ytick_5">
     <g id="line2d_21">
      <path d="M 162 220.426227 
L 1166.4 220.426227 
" clip-path="url(#p530606f48e)" style="fill: none; stroke: #ffffff; stroke-width: 0.8; stroke-linecap: square"/>
     </g>
     <g id="line2d_22">
      <g>
       <use xlink:href="#madc59bb3f0" x="162" y="220.426227" style="stroke: #000000; stroke-width: 0.8"/>
      </g>
     </g>
     <g id="text_18">
      <!-- 27.5 -->
      <g transform="translate(121.601562 226.125055) scale(0.15 -0.15)">
       <use xlink:href="#DejaVuSerif-32"/>
       <use xlink:href="#DejaVuSerif-37" x="63.623047"/>
       <use xlink:href="#DejaVuSerif-2e" x="127.246094"/>
       <use xlink:href="#DejaVuSerif-35" x="159.033203"/>
      </g>
     </g>
    </g>
    <g id="ytick_6">
     <g id="line2d_23">
      <path d="M 162 167.760014 
L 1166.4 167.760014 
" clip-path="url(#p530606f48e)" style="fill: none; stroke: #ffffff; stroke-width: 0.8; stroke-linecap: square"/>
     </g>
     <g id="line2d_24">
      <g>
       <use xlink:href="#madc59bb3f0" x="162" y="167.760014" style="stroke: #000000; stroke-width: 0.8"/>
      </g>
     </g>
     <g id="text_19">
      <!-- 30.0 -->
      <g transform="translate(121.601562 173.458843) scale(0.15 -0.15)">
       <use xlink:href="#DejaVuSerif-33"/>
       <use xlink:href="#DejaVuSerif-30" x="63.623047"/>
       <use xlink:href="#DejaVuSerif-2e" x="127.246094"/>
       <use xlink:href="#DejaVuSerif-30" x="159.033203"/>
      </g>
     </g>
    </g>
    <g id="ytick_7">
     <g id="line2d_25">
      <path d="M 162 115.093802 
L 1166.4 115.093802 
" clip-path="url(#p530606f48e)" style="fill: none; stroke: #ffffff; stroke-width: 0.8; stroke-linecap: square"/>
     </g>
     <g id="line2d_26">
      <g>
       <use xlink:href="#madc59bb3f0" x="162" y="115.093802" style="stroke: #000000; stroke-width: 0.8"/>
      </g>
     </g>
     <g id="text_20">
      <!-- 32.5 -->
      <g transform="translate(121.601562 120.79263) scale(0.15 -0.15)">
       <use xlink:href="#DejaVuSerif-33"/>
       <use xlink:href="#DejaVuSerif-32" x="63.623047"/>
       <use xlink:href="#DejaVuSerif-2e" x="127.246094"/>
       <use xlink:href="#DejaVuSerif-35" x="159.033203"/>
      </g>
     </g>
    </g>
    <g id="ytick_8">
     <g id="line2d_27">
      <path d="M 162 62.427589 
L 1166.4 62.427589 
" clip-path="url(#p530606f48e)" style="fill: none; stroke: #ffffff; stroke-width: 0.8; stroke-linecap: square"/>
     </g>
     <g id="line2d_28">
      <g>
       <use xlink:href="#madc59bb3f0" x="162" y="62.427589" style="stroke: #000000; stroke-width: 0.8"/>
      </g>
     </g>
     <g id="text_21">
      <!-- 35.0 -->
      <g transform="translate(121.601562 68.126418) scale(0.15 -0.15)">
       <use xlink:href="#DejaVuSerif-33"/>
       <use xlink:href="#DejaVuSerif-35" x="63.623047"/>
       <use xlink:href="#DejaVuSerif-2e" x="127.246094"/>
       <use xlink:href="#DejaVuSerif-30" x="159.033203"/>
      </g>
     </g>
    </g>
    <g id="text_22">
     <!-- Carregamento (%) -->
     <g transform="translate(114.046562 329.57625) rotate(-90) scale(0.16 -0.16)">
      <defs>
       <path id="DejaVuSerif-61" d="M 2547 1044 
L 2547 1747 
L 1806 1747 
Q 1378 1747 1168 1562 
Q 959 1378 959 997 
Q 959 650 1171 447 
Q 1384 244 1747 244 
Q 2106 244 2326 466 
Q 2547 688 2547 1044 
z
M 3122 2075 
L 3122 331 
L 3634 331 
L 3634 0 
L 2547 0 
L 2547 359 
Q 2356 128 2106 18 
Q 1856 -91 1522 -91 
Q 969 -91 644 203 
Q 319 497 319 997 
Q 319 1513 691 1797 
Q 1063 2081 1741 2081 
L 2547 2081 
L 2547 2309 
Q 2547 2688 2317 2895 
Q 2088 3103 1672 3103 
Q 1328 3103 1125 2947 
Q 922 2791 872 2484 
L 575 2484 
L 575 3156 
Q 875 3284 1158 3348 
Q 1441 3413 1709 3413 
Q 2400 3413 2761 3070 
Q 3122 2728 3122 2075 
z
" transform="scale(0.015625)"/>
       <path id="DejaVuSerif-67" d="M 3359 2988 
L 3359 72 
Q 3359 -644 2965 -1033 
Q 2572 -1422 1844 -1422 
Q 1516 -1422 1216 -1362 
Q 916 -1303 641 -1184 
L 641 -488 
L 941 -488 
Q 997 -813 1206 -963 
Q 1416 -1113 1806 -1113 
Q 2313 -1113 2548 -827 
Q 2784 -541 2784 72 
L 2784 519 
Q 2616 206 2355 57 
Q 2094 -91 1709 -91 
Q 1097 -91 708 395 
Q 319 881 319 1663 
Q 319 2444 706 2928 
Q 1094 3413 1709 3413 
Q 2094 3413 2355 3264 
Q 2616 3116 2784 2803 
L 2784 3322 
L 3909 3322 
L 3909 2988 
L 3359 2988 
z
M 2784 1825 
Q 2784 2422 2554 2737 
Q 2325 3053 1888 3053 
Q 1444 3053 1217 2703 
Q 991 2353 991 1663 
Q 991 975 1217 622 
Q 1444 269 1888 269 
Q 2325 269 2554 583 
Q 2784 897 2784 1497 
L 2784 1825 
z
" transform="scale(0.015625)"/>
       <path id="DejaVuSerif-6d" d="M 3316 2675 
Q 3481 3041 3739 3227 
Q 3997 3413 4341 3413 
Q 4863 3413 5119 3089 
Q 5375 2766 5375 2113 
L 5375 331 
L 5894 331 
L 5894 0 
L 4300 0 
L 4300 331 
L 4800 331 
L 4800 2047 
Q 4800 2556 4650 2772 
Q 4500 2988 4153 2988 
Q 3769 2988 3567 2697 
Q 3366 2406 3366 1850 
L 3366 331 
L 3866 331 
L 3866 0 
L 2291 0 
L 2291 331 
L 2791 331 
L 2791 2069 
Q 2791 2566 2641 2777 
Q 2491 2988 2144 2988 
Q 1759 2988 1557 2697 
Q 1356 2406 1356 1850 
L 1356 331 
L 1856 331 
L 1856 0 
L 263 0 
L 263 331 
L 781 331 
L 781 2994 
L 231 2994 
L 231 3322 
L 1356 3322 
L 1356 2731 
Q 1516 3063 1762 3238 
Q 2009 3413 2322 3413 
Q 2709 3413 2968 3220 
Q 3228 3028 3316 2675 
z
" transform="scale(0.015625)"/>
       <path id="DejaVuSerif-74" d="M 691 2988 
L 184 2988 
L 184 3322 
L 691 3322 
L 691 4353 
L 1269 4353 
L 1269 3322 
L 2350 3322 
L 2350 2988 
L 1269 2988 
L 1269 878 
Q 1269 456 1350 337 
Q 1431 219 1650 219 
Q 1875 219 1978 351 
Q 2081 484 2088 781 
L 2522 781 
Q 2497 328 2275 118 
Q 2053 -91 1600 -91 
Q 1103 -91 897 129 
Q 691 350 691 878 
L 691 2988 
z
" transform="scale(0.015625)"/>
       <path id="DejaVuSerif-20" transform="scale(0.015625)"/>
       <path id="DejaVuSerif-28" d="M 2041 -997 
Q 1281 -656 893 83 
Q 506 822 506 1931 
Q 506 3044 893 3783 
Q 1281 4522 2041 4863 
L 2041 4556 
Q 1559 4225 1350 3623 
Q 1141 3022 1141 1931 
Q 1141 844 1350 242 
Q 1559 -359 2041 -691 
L 2041 -997 
z
" transform="scale(0.015625)"/>
       <path id="DejaVuSerif-25" d="M 1434 4459 
Q 1159 4459 1004 4200 
Q 850 3941 850 3475 
Q 850 3016 1008 2753 
Q 1166 2491 1434 2491 
Q 1700 2491 1854 2752 
Q 2009 3013 2009 3475 
Q 2009 3938 1854 4198 
Q 1700 4459 1434 4459 
z
M 4653 2169 
Q 4381 2169 4226 1906 
Q 4072 1644 4072 1178 
Q 4072 719 4228 458 
Q 4384 197 4653 197 
Q 4922 197 5075 458 
Q 5228 719 5228 1178 
Q 5228 1641 5073 1905 
Q 4919 2169 4653 2169 
z
M 4653 2450 
Q 5147 2450 5437 2106 
Q 5728 1763 5728 1178 
Q 5728 594 5436 251 
Q 5144 -91 4653 -91 
Q 4153 -91 3862 251 
Q 3572 594 3572 1178 
Q 3572 1766 3864 2108 
Q 4156 2450 4653 2450 
z
M 4263 4750 
L 4738 4750 
L 1819 -91 
L 1344 -91 
L 4263 4750 
z
M 1428 4750 
Q 1922 4750 2215 4408 
Q 2509 4066 2509 3481 
Q 2509 2891 2217 2550 
Q 1925 2209 1428 2209 
Q 931 2209 642 2551 
Q 353 2894 353 3481 
Q 353 4063 643 4406 
Q 934 4750 1428 4750 
z
" transform="scale(0.015625)"/>
       <path id="DejaVuSerif-29" d="M 453 -997 
L 453 -691 
Q 934 -359 1145 242 
Q 1356 844 1356 1931 
Q 1356 3022 1145 3623 
Q 934 4225 453 4556 
L 453 4863 
Q 1216 4522 1603 3783 
Q 1991 3044 1991 1931 
Q 1991 822 1603 83 
Q 1216 -656 453 -997 
z
" transform="scale(0.015625)"/>
      </defs>
      <use xlink:href="#DejaVuSerif-43"/>
      <use xlink:href="#DejaVuSerif-61" x="76.513672"/>
      <use xlink:href="#DejaVuSerif-72" x="136.132812"/>
      <use xlink:href="#DejaVuSerif-72" x="183.935547"/>
      <use xlink:href="#DejaVuSerif-65" x="231.738281"/>
      <use xlink:href="#DejaVuSerif-67" x="290.917969"/>
      <use xlink:href="#DejaVuSerif-61" x="354.931641"/>
      <use xlink:href="#DejaVuSerif-6d" x="414.550781"/>
      <use xlink:href="#DejaVuSerif-65" x="509.375"/>
      <use xlink:href="#DejaVuSerif-6e" x="568.554688"/>
      <use xlink:href="#DejaVuSerif-74" x="632.958984"/>
      <use xlink:href="#DejaVuSerif-6f" x="673.144531"/>
      <use xlink:href="#DejaVuSerif-20" x="733.349609"/>
      <use xlink:href="#DejaVuSerif-28" x="765.136719"/>
      <use xlink:href="#DejaVuSerif-25" x="804.150391"/>
      <use xlink:href="#DejaVuSerif-29" x="899.169922"/>
     </g>
    </g>
   </g>
   <g id="patch_3">
    <path d="M 203.85 799.754564 
L 203.85 799.754564 
L 203.85 799.754564 
L 203.85 799.754564 
z
" clip-path="url(#p530606f48e)" style="fill: #cc5a49; stroke: #535353; stroke-width: 1.5; stroke-linejoin: miter"/>
   </g>
   <g id="patch_4">
    <path d="M 170.37 307.21661 
L 237.33 307.21661 
L 237.33 219.736971 
L 170.37 219.736971 
L 170.37 307.21661 
z
" clip-path="url(#p530606f48e)" style="fill: #cc5a49; stroke: #535353; stroke-width: 1.5; stroke-linejoin: miter"/>
   </g>
   <g id="line2d_29">
    <path d="M 203.85 307.21661 
L 203.85 386.23643 
" clip-path="url(#p530606f48e)" style="fill: none; stroke: #00008b; stroke-width: 1.5"/>
   </g>
   <g id="line2d_30">
    <path d="M 203.85 219.736971 
L 203.85 94.877046 
" clip-path="url(#p530606f48e)" style="fill: none; stroke: #00008b; stroke-width: 1.5"/>
   </g>
   <g id="line2d_31">
    <path d="M 187.11 386.23643 
L 220.59 386.23643 
" clip-path="url(#p530606f48e)" style="fill: none; stroke: #00008b; stroke-width: 1.5; stroke-linecap: square"/>
   </g>
   <g id="line2d_32">
    <path d="M 187.11 94.877046 
L 220.59 94.877046 
" clip-path="url(#p530606f48e)" style="fill: none; stroke: #00008b; stroke-width: 1.5; stroke-linecap: square"/>
   </g>
   <g id="patch_5">
    <path d="M 254.07 301.383739 
L 321.03 301.383739 
L 321.03 215.821998 
L 254.07 215.821998 
L 254.07 301.383739 
z
" clip-path="url(#p530606f48e)" style="fill: #cc5a49; stroke: #535353; stroke-width: 1.5; stroke-linejoin: miter"/>
   </g>
   <g id="line2d_33">
    <path d="M 287.55 301.383739 
L 287.55 392.894288 
" clip-path="url(#p530606f48e)" style="fill: none; stroke: #00008b; stroke-width: 1.5"/>
   </g>
   <g id="line2d_34">
    <path d="M 287.55 215.821998 
L 287.55 89.767363 
" clip-path="url(#p530606f48e)" style="fill: none; stroke: #00008b; stroke-width: 1.5"/>
   </g>
   <g id="line2d_35">
    <path d="M 270.81 392.894288 
L 304.29 392.894288 
" clip-path="url(#p530606f48e)" style="fill: none; stroke: #00008b; stroke-width: 1.5; stroke-linecap: square"/>
   </g>
   <g id="line2d_36">
    <path d="M 270.81 89.767363 
L 304.29 89.767363 
" clip-path="url(#p530606f48e)" style="fill: none; stroke: #00008b; stroke-width: 1.5; stroke-linecap: square"/>
   </g>
   <g id="patch_6">
    <path d="M 337.77 292.283088 
L 404.73 292.283088 
L 404.73 206.222255 
L 337.77 206.222255 
L 337.77 292.283088 
z
" clip-path="url(#p530606f48e)" style="fill: #cc5a49; stroke: #535353; stroke-width: 1.5; stroke-linejoin: miter"/>
   </g>
   <g id="line2d_37">
    <path d="M 371.25 292.283088 
L 371.25 385.867413 
" clip-path="url(#p530606f48e)" style="fill: none; stroke: #00008b; stroke-width: 1.5"/>
   </g>
   <g id="line2d_38">
    <path d="M 371.25 206.222255 
L 371.25 78.12 
" clip-path="url(#p530606f48e)" style="fill: none; stroke: #00008b; stroke-width: 1.5"/>
   </g>
   <g id="line2d_39">
    <path d="M 354.51 385.867413 
L 387.99 385.867413 
" clip-path="url(#p530606f48e)" style="fill: none; stroke: #00008b; stroke-width: 1.5; stroke-linecap: square"/>
   </g>
   <g id="line2d_40">
    <path d="M 354.51 78.12 
L 387.99 78.12 
" clip-path="url(#p530606f48e)" style="fill: none; stroke: #00008b; stroke-width: 1.5; stroke-linecap: square"/>
   </g>
   <g id="patch_7">
    <path d="M 421.47 292.877262 
L 488.43 292.877262 
L 488.43 204.957913 
L 421.47 204.957913 
L 421.47 292.877262 
z
" clip-path="url(#p530606f48e)" style="fill: #cc5a49; stroke: #535353; stroke-width: 1.5; stroke-linejoin: miter"/>
   </g>
   <g id="line2d_41">
    <path d="M 454.95 292.877262 
L 454.95 391.729269 
" clip-path="url(#p530606f48e)" style="fill: none; stroke: #00008b; stroke-width: 1.5"/>
   </g>
   <g id="line2d_42">
    <path d="M 454.95 204.957913 
L 454.95 84.668991 
" clip-path="url(#p530606f48e)" style="fill: none; stroke: #00008b; stroke-width: 1.5"/>
   </g>
   <g id="line2d_43">
    <path d="M 438.21 391.729269 
L 471.69 391.729269 
" clip-path="url(#p530606f48e)" style="fill: none; stroke: #00008b; stroke-width: 1.5; stroke-linecap: square"/>
   </g>
   <g id="line2d_44">
    <path d="M 438.21 84.668991 
L 471.69 84.668991 
" clip-path="url(#p530606f48e)" style="fill: none; stroke: #00008b; stroke-width: 1.5; stroke-linecap: square"/>
   </g>
   <g id="patch_8">
    <path d="M 505.17 331.088897 
L 572.13 331.088897 
L 572.13 240.310373 
L 505.17 240.310373 
L 505.17 331.088897 
z
" clip-path="url(#p530606f48e)" style="fill: #cc5a49; stroke: #535353; stroke-width: 1.5; stroke-linejoin: miter"/>
   </g>
   <g id="line2d_45">
    <path d="M 538.65 331.088897 
L 538.65 397.975694 
" clip-path="url(#p530606f48e)" style="fill: none; stroke: #00008b; stroke-width: 1.5"/>
   </g>
   <g id="line2d_46">
    <path d="M 538.65 240.310373 
L 538.65 136.793695 
" clip-path="url(#p530606f48e)" style="fill: none; stroke: #00008b; stroke-width: 1.5"/>
   </g>
   <g id="line2d_47">
    <path d="M 521.91 397.975694 
L 555.39 397.975694 
" clip-path="url(#p530606f48e)" style="fill: none; stroke: #00008b; stroke-width: 1.5; stroke-linecap: square"/>
   </g>
   <g id="line2d_48">
    <path d="M 521.91 136.793695 
L 555.39 136.793695 
" clip-path="url(#p530606f48e)" style="fill: none; stroke: #00008b; stroke-width: 1.5; stroke-linecap: square"/>
   </g>
   <g id="patch_9">
    <path d="M 588.87 328.093285 
L 655.83 328.093285 
L 655.83 235.572888 
L 588.87 235.572888 
L 588.87 328.093285 
z
" clip-path="url(#p530606f48e)" style="fill: #cc5a49; stroke: #535353; stroke-width: 1.5; stroke-linejoin: miter"/>
   </g>
   <g id="line2d_49">
    <path d="M 622.35 328.093285 
L 622.35 413.723244 
" clip-path="url(#p530606f48e)" style="fill: none; stroke: #00008b; stroke-width: 1.5"/>
   </g>
   <g id="line2d_50">
    <path d="M 622.35 235.572888 
L 622.35 128.453347 
" clip-path="url(#p530606f48e)" style="fill: none; stroke: #00008b; stroke-width: 1.5"/>
   </g>
   <g id="line2d_51">
    <path d="M 605.61 413.723244 
L 639.09 413.723244 
" clip-path="url(#p530606f48e)" style="fill: none; stroke: #00008b; stroke-width: 1.5; stroke-linecap: square"/>
   </g>
   <g id="line2d_52">
    <path d="M 605.61 128.453347 
L 639.09 128.453347 
" clip-path="url(#p530606f48e)" style="fill: none; stroke: #00008b; stroke-width: 1.5; stroke-linecap: square"/>
   </g>
   <g id="patch_10">
    <path d="M 672.57 326.505522 
L 739.53 326.505522 
L 739.53 232.854039 
L 672.57 232.854039 
L 672.57 326.505522 
z
" clip-path="url(#p530606f48e)" style="fill: #cc5a49; stroke: #535353; stroke-width: 1.5; stroke-linejoin: miter"/>
   </g>
   <g id="line2d_53">
    <path d="M 706.05 326.505522 
L 706.05 399.238269 
" clip-path="url(#p530606f48e)" style="fill: none; stroke: #00008b; stroke-width: 1.5"/>
   </g>
   <g id="line2d_54">
    <path d="M 706.05 232.854039 
L 706.05 117.797099 
" clip-path="url(#p530606f48e)" style="fill: none; stroke: #00008b; stroke-width: 1.5"/>
   </g>
   <g id="line2d_55">
    <path d="M 689.31 399.238269 
L 722.79 399.238269 
" clip-path="url(#p530606f48e)" style="fill: none; stroke: #00008b; stroke-width: 1.5; stroke-linecap: square"/>
   </g>
   <g id="line2d_56">
    <path d="M 689.31 117.797099 
L 722.79 117.797099 
" clip-path="url(#p530606f48e)" style="fill: none; stroke: #00008b; stroke-width: 1.5; stroke-linecap: square"/>
   </g>
   <g id="patch_11">
    <path d="M 756.27 324.425384 
L 823.23 324.425384 
L 823.23 222.825191 
L 756.27 222.825191 
L 756.27 324.425384 
z
" clip-path="url(#p530606f48e)" style="fill: #cc5a49; stroke: #535353; stroke-width: 1.5; stroke-linejoin: miter"/>
   </g>
   <g id="line2d_57">
    <path d="M 789.75 324.425384 
L 789.75 403.486912 
" clip-path="url(#p530606f48e)" style="fill: none; stroke: #00008b; stroke-width: 1.5"/>
   </g>
   <g id="line2d_58">
    <path d="M 789.75 222.825191 
L 789.75 104.000672 
" clip-path="url(#p530606f48e)" style="fill: none; stroke: #00008b; stroke-width: 1.5"/>
   </g>
   <g id="line2d_59">
    <path d="M 773.01 403.486912 
L 806.49 403.486912 
" clip-path="url(#p530606f48e)" style="fill: none; stroke: #00008b; stroke-width: 1.5; stroke-linecap: square"/>
   </g>
   <g id="line2d_60">
    <path d="M 773.01 104.000672 
L 806.49 104.000672 
" clip-path="url(#p530606f48e)" style="fill: none; stroke: #00008b; stroke-width: 1.5; stroke-linecap: square"/>
   </g>
   <g id="patch_12">
    <path d="M 839.97 330.842532 
L 906.93 330.842532 
L 906.93 244.770388 
L 839.97 244.770388 
L 839.97 330.842532 
z
" clip-path="url(#p530606f48e)" style="fill: #cc5a49; stroke: #535353; stroke-width: 1.5; stroke-linejoin: miter"/>
   </g>
   <g id="line2d_61">
    <path d="M 873.45 330.842532 
L 873.45 426.631769 
" clip-path="url(#p530606f48e)" style="fill: none; stroke: #00008b; stroke-width: 1.5"/>
   </g>
   <g id="line2d_62">
    <path d="M 873.45 244.770388 
L 873.45 144.725439 
" clip-path="url(#p530606f48e)" style="fill: none; stroke: #00008b; stroke-width: 1.5"/>
   </g>
   <g id="line2d_63">
    <path d="M 856.71 426.631769 
L 890.19 426.631769 
" clip-path="url(#p530606f48e)" style="fill: none; stroke: #00008b; stroke-width: 1.5; stroke-linecap: square"/>
   </g>
   <g id="line2d_64">
    <path d="M 856.71 144.725439 
L 890.19 144.725439 
" clip-path="url(#p530606f48e)" style="fill: none; stroke: #00008b; stroke-width: 1.5; stroke-linecap: square"/>
   </g>
   <g id="patch_13">
    <path d="M 923.67 329.178774 
L 990.63 329.178774 
L 990.63 241.703377 
L 923.67 241.703377 
L 923.67 329.178774 
z
" clip-path="url(#p530606f48e)" style="fill: #cc5a49; stroke: #535353; stroke-width: 1.5; stroke-linejoin: miter"/>
   </g>
   <g id="line2d_65">
    <path d="M 957.15 329.178774 
L 957.15 430.92 
" clip-path="url(#p530606f48e)" style="fill: none; stroke: #00008b; stroke-width: 1.5"/>
   </g>
   <g id="line2d_66">
    <path d="M 957.15 241.703377 
L 957.15 132.72037 
" clip-path="url(#p530606f48e)" style="fill: none; stroke: #00008b; stroke-width: 1.5"/>
   </g>
   <g id="line2d_67">
    <path d="M 940.41 430.92 
L 973.89 430.92 
" clip-path="url(#p530606f48e)" style="fill: none; stroke: #00008b; stroke-width: 1.5; stroke-linecap: square"/>
   </g>
   <g id="line2d_68">
    <path d="M 940.41 132.72037 
L 973.89 132.72037 
" clip-path="url(#p530606f48e)" style="fill: none; stroke: #00008b; stroke-width: 1.5; stroke-linecap: square"/>
   </g>
   <g id="patch_14">
    <path d="M 1007.37 328.691347 
L 1074.33 328.691347 
L 1074.33 236.168122 
L 1007.37 236.168122 
L 1007.37 328.691347 
z
" clip-path="url(#p530606f48e)" style="fill: #cc5a49; stroke: #535353; stroke-width: 1.5; stroke-linejoin: miter"/>
   </g>
   <g id="line2d_69">
    <path d="M 1040.85 328.691347 
L 1040.85 420.147815 
" clip-path="url(#p530606f48e)" style="fill: none; stroke: #00008b; stroke-width: 1.5"/>
   </g>
   <g id="line2d_70">
    <path d="M 1040.85 236.168122 
L 1040.85 127.479198 
" clip-path="url(#p530606f48e)" style="fill: none; stroke: #00008b; stroke-width: 1.5"/>
   </g>
   <g id="line2d_71">
    <path d="M 1024.11 420.147815 
L 1057.59 420.147815 
" clip-path="url(#p530606f48e)" style="fill: none; stroke: #00008b; stroke-width: 1.5; stroke-linecap: square"/>
   </g>
   <g id="line2d_72">
    <path d="M 1024.11 127.479198 
L 1057.59 127.479198 
" clip-path="url(#p530606f48e)" style="fill: none; stroke: #00008b; stroke-width: 1.5; stroke-linecap: square"/>
   </g>
   <g id="patch_15">
    <path d="M 1091.07 327.768451 
L 1158.03 327.768451 
L 1158.03 231.856916 
L 1091.07 231.856916 
L 1091.07 327.768451 
z
" clip-path="url(#p530606f48e)" style="fill: #cc5a49; stroke: #535353; stroke-width: 1.5; stroke-linejoin: miter"/>
   </g>
   <g id="line2d_73">
    <path d="M 1124.55 327.768451 
L 1124.55 421.325559 
" clip-path="url(#p530606f48e)" style="fill: none; stroke: #00008b; stroke-width: 1.5"/>
   </g>
   <g id="line2d_74">
    <path d="M 1124.55 231.856916 
L 1124.55 114.040478 
" clip-path="url(#p530606f48e)" style="fill: none; stroke: #00008b; stroke-width: 1.5"/>
   </g>
   <g id="line2d_75">
    <path d="M 1107.81 421.325559 
L 1141.29 421.325559 
" clip-path="url(#p530606f48e)" style="fill: none; stroke: #00008b; stroke-width: 1.5; stroke-linecap: square"/>
   </g>
   <g id="line2d_76">
    <path d="M 1107.81 114.040478 
L 1141.29 114.040478 
" clip-path="url(#p530606f48e)" style="fill: none; stroke: #00008b; stroke-width: 1.5; stroke-linecap: square"/>
   </g>
   <g id="line2d_77">
    <path d="M 170.37 257.92457 
L 237.33 257.92457 
" clip-path="url(#p530606f48e)" style="fill: none; stroke: #00008b; stroke-width: 1.5"/>
   </g>
   <g id="line2d_78">
    <path d="M 254.07 255.690674 
L 321.03 255.690674 
" clip-path="url(#p530606f48e)" style="fill: none; stroke: #00008b; stroke-width: 1.5"/>
   </g>
   <g id="line2d_79">
    <path d="M 337.77 252.32852 
L 404.73 252.32852 
" clip-path="url(#p530606f48e)" style="fill: none; stroke: #00008b; stroke-width: 1.5"/>
   </g>
   <g id="line2d_80">
    <path d="M 421.47 249.217325 
L 488.43 249.217325 
" clip-path="url(#p530606f48e)" style="fill: none; stroke: #00008b; stroke-width: 1.5"/>
   </g>
   <g id="line2d_81">
    <path d="M 505.17 280.851692 
L 572.13 280.851692 
" clip-path="url(#p530606f48e)" style="fill: none; stroke: #00008b; stroke-width: 1.5"/>
   </g>
   <g id="line2d_82">
    <path d="M 588.87 278.7712 
L 655.83 278.7712 
" clip-path="url(#p530606f48e)" style="fill: none; stroke: #00008b; stroke-width: 1.5"/>
   </g>
   <g id="line2d_83">
    <path d="M 672.57 277.258372 
L 739.53 277.258372 
" clip-path="url(#p530606f48e)" style="fill: none; stroke: #00008b; stroke-width: 1.5"/>
   </g>
   <g id="line2d_84">
    <path d="M 756.27 270.502251 
L 823.23 270.502251 
" clip-path="url(#p530606f48e)" style="fill: none; stroke: #00008b; stroke-width: 1.5"/>
   </g>
   <g id="line2d_85">
    <path d="M 839.97 287.723749 
L 906.93 287.723749 
" clip-path="url(#p530606f48e)" style="fill: none; stroke: #00008b; stroke-width: 1.5"/>
   </g>
   <g id="line2d_86">
    <path d="M 923.67 285.518131 
L 990.63 285.518131 
" clip-path="url(#p530606f48e)" style="fill: none; stroke: #00008b; stroke-width: 1.5"/>
   </g>
   <g id="line2d_87">
    <path d="M 1007.37 281.645574 
L 1074.33 281.645574 
" clip-path="url(#p530606f48e)" style="fill: none; stroke: #00008b; stroke-width: 1.5"/>
   </g>
   <g id="line2d_88">
    <path d="M 1091.07 277.237164 
L 1158.03 277.237164 
" clip-path="url(#p530606f48e)" style="fill: none; stroke: #00008b; stroke-width: 1.5"/>
   </g>
   <g id="patch_16">
    <path d="M 162 448.56 
L 162 60.48 
" style="fill: none; stroke: #000000; stroke-width: 1.2; stroke-linejoin: miter; stroke-linecap: square"/>
   </g>
   <g id="patch_17">
    <path d="M 1166.4 448.56 
L 1166.4 60.48 
" style="fill: none; stroke: #000000; stroke-width: 1.2; stroke-linejoin: miter; stroke-linecap: square"/>
   </g>
   <g id="patch_18">
    <path d="M 162 448.56 
L 1166.4 448.56 
" style="fill: none; stroke: #000000; stroke-width: 1.2; stroke-linejoin: miter; stroke-linecap: square"/>
   </g>
   <g id="patch_19">
    <path d="M 162 60.48 
L 1166.4 60.48 
" style="fill: none; stroke: #000000; stroke-width: 1.2; stroke-linejoin: miter; stroke-linecap: square"/>
   </g>
   <g id="legend_1">
    <g id="text_23">
     <!-- Área Geoelétrica -->
     <g transform="translate(600.011719 27.165656) scale(0.15 -0.15)">
      <defs>
       <path id="DejaVuSerif-c1" d="M 1281 1691 
L 2994 1691 
L 2138 3909 
L 1281 1691 
z
M -38 0 
L -38 331 
L 372 331 
L 2034 4666 
L 2559 4666 
L 4225 331 
L 4684 331 
L 4684 0 
L 2988 0 
L 2988 331 
L 3506 331 
L 3116 1356 
L 1153 1356 
L 763 331 
L 1275 331 
L 1275 0 
L -38 0 
z
M 2509 5921 
L 3125 5921 
L 2306 5096 
L 1940 5096 
L 2509 5921 
z
" transform="scale(0.015625)"/>
       <path id="DejaVuSerif-47" d="M 4097 3272 
Q 3988 3856 3641 4136 
Q 3294 4416 2675 4416 
Q 1869 4416 1472 3897 
Q 1075 3378 1075 2328 
Q 1075 1300 1484 772 
Q 1894 244 2688 244 
Q 3041 244 3362 331 
Q 3684 419 3975 594 
L 3975 1797 
L 3097 1797 
L 3097 2131 
L 4609 2131 
L 4609 391 
Q 4194 150 3714 29 
Q 3234 -91 2688 -91 
Q 1631 -91 995 570 
Q 359 1231 359 2328 
Q 359 3434 996 4092 
Q 1634 4750 2713 4750 
Q 3113 4750 3539 4658 
Q 3966 4566 4447 4378 
L 4447 3272 
L 4097 3272 
z
" transform="scale(0.015625)"/>
       <path id="DejaVuSerif-6c" d="M 1313 331 
L 1856 331 
L 1856 0 
L 184 0 
L 184 331 
L 738 331 
L 738 4531 
L 184 4531 
L 184 4863 
L 1313 4863 
L 1313 331 
z
" transform="scale(0.015625)"/>
       <path id="DejaVuSerif-e9" d="M 3469 1600 
L 991 1600 
L 991 1575 
Q 991 903 1244 561 
Q 1497 219 1991 219 
Q 2369 219 2611 417 
Q 2853 616 2950 1006 
L 3413 1006 
Q 3275 459 2904 184 
Q 2534 -91 1931 -91 
Q 1203 -91 761 389 
Q 319 869 319 1663 
Q 319 2450 753 2931 
Q 1188 3413 1894 3413 
Q 2647 3413 3050 2948 
Q 3453 2484 3469 1600 
z
M 2791 1931 
Q 2772 2513 2545 2808 
Q 2319 3103 1894 3103 
Q 1497 3103 1269 2806 
Q 1041 2509 991 1931 
L 2791 1931 
z
M 2330 5119 
L 2952 5119 
L 1890 3944 
L 1524 3944 
L 2330 5119 
z
" transform="scale(0.015625)"/>
       <path id="DejaVuSerif-63" d="M 3291 997 
Q 3169 466 2822 187 
Q 2475 -91 1925 -91 
Q 1200 -91 759 389 
Q 319 869 319 1663 
Q 319 2459 759 2936 
Q 1200 3413 1925 3413 
Q 2241 3413 2553 3339 
Q 2866 3266 3181 3116 
L 3181 2266 
L 2847 2266 
Q 2781 2703 2561 2903 
Q 2341 3103 1931 3103 
Q 1466 3103 1228 2742 
Q 991 2381 991 1663 
Q 991 944 1227 581 
Q 1463 219 1931 219 
Q 2303 219 2525 412 
Q 2747 606 2828 997 
L 3291 997 
z
" transform="scale(0.015625)"/>
      </defs>
      <use xlink:href="#DejaVuSerif-c1"/>
      <use xlink:href="#DejaVuSerif-72" x="72.216797"/>
      <use xlink:href="#DejaVuSerif-65" x="120.019531"/>
      <use xlink:href="#DejaVuSerif-61" x="179.199219"/>
      <use xlink:href="#DejaVuSerif-20" x="238.818359"/>
      <use xlink:href="#DejaVuSerif-47" x="270.605469"/>
      <use xlink:href="#DejaVuSerif-65" x="350.488281"/>
      <use xlink:href="#DejaVuSerif-6f" x="409.667969"/>
      <use xlink:href="#DejaVuSerif-65" x="469.873047"/>
      <use xlink:href="#DejaVuSerif-6c" x="529.052734"/>
      <use xlink:href="#DejaVuSerif-e9" x="561.035156"/>
      <use xlink:href="#DejaVuSerif-74" x="620.214844"/>
      <use xlink:href="#DejaVuSerif-72" x="660.400391"/>
      <use xlink:href="#DejaVuSerif-69" x="708.203125"/>
      <use xlink:href="#DejaVuSerif-63" x="740.185547"/>
      <use xlink:href="#DejaVuSerif-61" x="796.191406"/>
     </g>
    </g>
    <g id="patch_20">
     <path d="M 618.024609 49.182844 
L 648.024609 49.182844 
L 648.024609 38.682844 
L 618.024609 38.682844 
z
" style="fill: #cc5a49; stroke: #535353; stroke-width: 1.5; stroke-linejoin: miter"/>
    </g>
    <g id="text_24">
     <!-- SE-CO -->
     <g transform="translate(660.024609 49.182844) scale(0.15 -0.15)">
      <defs>
       <path id="DejaVuSerif-53" d="M 594 225 
L 594 1288 
L 953 1284 
Q 969 753 1261 498 
Q 1553 244 2150 244 
Q 2706 244 2998 464 
Q 3291 684 3291 1106 
Q 3291 1444 3114 1625 
Q 2938 1806 2369 1978 
L 1753 2163 
Q 1084 2366 811 2669 
Q 538 2972 538 3500 
Q 538 4094 959 4422 
Q 1381 4750 2144 4750 
Q 2469 4750 2856 4679 
Q 3244 4609 3681 4475 
L 3681 3481 
L 3328 3481 
Q 3275 3975 2998 4195 
Q 2722 4416 2156 4416 
Q 1663 4416 1405 4214 
Q 1147 4013 1147 3628 
Q 1147 3294 1340 3103 
Q 1534 2913 2163 2725 
L 2741 2553 
Q 3375 2363 3645 2067 
Q 3916 1772 3916 1275 
Q 3916 597 3481 253 
Q 3047 -91 2188 -91 
Q 1803 -91 1404 -12 
Q 1006 66 594 225 
z
" transform="scale(0.015625)"/>
       <path id="DejaVuSerif-45" d="M 353 0 
L 353 331 
L 947 331 
L 947 4331 
L 353 4331 
L 353 4666 
L 4109 4666 
L 4109 3628 
L 3725 3628 
L 3725 4281 
L 1581 4281 
L 1581 2719 
L 3109 2719 
L 3109 3303 
L 3494 3303 
L 3494 1753 
L 3109 1753 
L 3109 2338 
L 1581 2338 
L 1581 384 
L 3775 384 
L 3775 1038 
L 4159 1038 
L 4159 0 
L 353 0 
z
" transform="scale(0.015625)"/>
       <path id="DejaVuSerif-2d" d="M 281 1959 
L 1881 1959 
L 1881 1472 
L 281 1472 
L 281 1959 
z
" transform="scale(0.015625)"/>
       <path id="DejaVuSerif-4f" d="M 2625 244 
Q 3391 244 3781 770 
Q 4172 1297 4172 2328 
Q 4172 3363 3781 3889 
Q 3391 4416 2625 4416 
Q 1856 4416 1465 3889 
Q 1075 3363 1075 2328 
Q 1075 1297 1465 770 
Q 1856 244 2625 244 
z
M 2625 -91 
Q 2150 -91 1751 65 
Q 1353 222 1050 525 
Q 700 875 529 1319 
Q 359 1763 359 2328 
Q 359 2894 529 3339 
Q 700 3784 1050 4134 
Q 1356 4441 1750 4595 
Q 2144 4750 2625 4750 
Q 3641 4750 4266 4084 
Q 4891 3419 4891 2328 
Q 4891 1769 4719 1320 
Q 4547 872 4197 525 
Q 3891 219 3497 64 
Q 3103 -91 2625 -91 
z
" transform="scale(0.015625)"/>
      </defs>
      <use xlink:href="#DejaVuSerif-53"/>
      <use xlink:href="#DejaVuSerif-45" x="68.505859"/>
      <use xlink:href="#DejaVuSerif-2d" x="143.378906"/>
      <use xlink:href="#DejaVuSerif-43" x="177.167969"/>
      <use xlink:href="#DejaVuSerif-4f" x="253.681641"/>
     </g>
    </g>
   </g>
  </g>
 </g>
 <defs>
  <clipPath id="p530606f48e">
   <rect x="162" y="60.48" width="1004.4" height="388.08"/>
  </clipPath>
 </defs>
</svg>
