<?xml version="1.0" encoding="utf-8" standalone="no"?>
<!DOCTYPE svg PUBLIC "-//W3C//DTD SVG 1.1//EN"
  "http://www.w3.org/Graphics/SVG/1.1/DTD/svg11.dtd">
<svg xmlns:xlink="http://www.w3.org/1999/xlink" width="576pt" height="432pt" viewBox="0 0 576 432" xmlns="http://www.w3.org/2000/svg" version="1.1">
 <metadata>
  <rdf:RDF xmlns:dc="http://purl.org/dc/elements/1.1/" xmlns:cc="http://creativecommons.org/ns#" xmlns:rdf="http://www.w3.org/1999/02/22-rdf-syntax-ns#">
   <cc:Work>
    <dc:type rdf:resource="http://purl.org/dc/dcmitype/StillImage"/>
    <dc:date>2024-10-28T23:12:13.790863</dc:date>
    <dc:format>image/svg+xml</dc:format>
    <dc:creator>
     <cc:Agent>
      <dc:title>Matplotlib v3.7.2, https://matplotlib.org/</dc:title>
     </cc:Agent>
    </dc:creator>
   </cc:Work>
  </rdf:RDF>
 </metadata>
 <defs>
  <style type="text/css">*{stroke-linejoin: round; stroke-linecap: butt}</style>
 </defs>
 <g id="figure_1">
  <g id="patch_1">
   <path d="M 0 432 
L 576 432 
L 576 0 
L 0 0 
z
" style="fill: #ffffff"/>
  </g>
  <g id="axes_1">
   <g id="patch_2">
    <path d="M 72 384.48 
L 518.4 384.48 
L 518.4 51.84 
L 72 51.84 
z
" style="fill: #ffffff"/>
   </g>
   <g id="matplotlib.axis_1">
    <g id="xtick_1">
     <g id="line2d_1">
      <path d="M 72 384.48 
L 72 51.84 
" clip-path="url(#p9b37d837bf)" style="fill: none; stroke-dasharray: 2.96,1.28; stroke-dashoffset: 0; stroke: #cccccc; stroke-opacity: 0.7; stroke-width: 0.8"/>
     </g>
     <g id="line2d_2"/>
     <g id="text_1">
      <!-- 0.0 -->
      <g transform="translate(61.575 398.716719) scale(0.15 -0.15)">
       <defs>
        <path id="ArialMT-30" d="M 266 2259 
Q 266 3072 433 3567 
Q 600 4063 929 4331 
Q 1259 4600 1759 4600 
Q 2128 4600 2406 4451 
Q 2684 4303 2865 4023 
Q 3047 3744 3150 3342 
Q 3253 2941 3253 2259 
Q 3253 1453 3087 958 
Q 2922 463 2592 192 
Q 2263 -78 1759 -78 
Q 1097 -78 719 397 
Q 266 969 266 2259 
z
M 844 2259 
Q 844 1131 1108 757 
Q 1372 384 1759 384 
Q 2147 384 2411 759 
Q 2675 1134 2675 2259 
Q 2675 3391 2411 3762 
Q 2147 4134 1753 4134 
Q 1366 4134 1134 3806 
Q 844 3388 844 2259 
z
" transform="scale(0.015625)"/>
        <path id="ArialMT-2e" d="M 581 0 
L 581 641 
L 1222 641 
L 1222 0 
L 581 0 
z
" transform="scale(0.015625)"/>
       </defs>
       <use xlink:href="#ArialMT-30"/>
       <use xlink:href="#ArialMT-2e" x="55.615234"/>
       <use xlink:href="#ArialMT-30" x="83.398438"/>
      </g>
     </g>
    </g>
    <g id="xtick_2">
     <g id="line2d_3">
      <path d="M 127.8 384.48 
L 127.8 51.84 
" clip-path="url(#p9b37d837bf)" style="fill: none; stroke-dasharray: 2.96,1.28; stroke-dashoffset: 0; stroke: #cccccc; stroke-opacity: 0.7; stroke-width: 0.8"/>
     </g>
     <g id="line2d_4"/>
     <g id="text_2">
      <!-- 0.1 -->
      <g transform="translate(117.375 398.716719) scale(0.15 -0.15)">
       <defs>
        <path id="ArialMT-31" d="M 2384 0 
L 1822 0 
L 1822 3584 
Q 1619 3391 1289 3197 
Q 959 3003 697 2906 
L 697 3450 
Q 1169 3672 1522 3987 
Q 1875 4303 2022 4600 
L 2384 4600 
L 2384 0 
z
" transform="scale(0.015625)"/>
       </defs>
       <use xlink:href="#ArialMT-30"/>
       <use xlink:href="#ArialMT-2e" x="55.615234"/>
       <use xlink:href="#ArialMT-31" x="83.398438"/>
      </g>
     </g>
    </g>
    <g id="xtick_3">
     <g id="line2d_5">
      <path d="M 183.6 384.48 
L 183.6 51.84 
" clip-path="url(#p9b37d837bf)" style="fill: none; stroke-dasharray: 2.96,1.28; stroke-dashoffset: 0; stroke: #cccccc; stroke-opacity: 0.7; stroke-width: 0.8"/>
     </g>
     <g id="line2d_6"/>
     <g id="text_3">
      <!-- 0.2 -->
      <g transform="translate(173.175 398.716719) scale(0.15 -0.15)">
       <defs>
        <path id="ArialMT-32" d="M 3222 541 
L 3222 0 
L 194 0 
Q 188 203 259 391 
Q 375 700 629 1000 
Q 884 1300 1366 1694 
Q 2113 2306 2375 2664 
Q 2638 3022 2638 3341 
Q 2638 3675 2398 3904 
Q 2159 4134 1775 4134 
Q 1369 4134 1125 3890 
Q 881 3647 878 3216 
L 300 3275 
Q 359 3922 746 4261 
Q 1134 4600 1788 4600 
Q 2447 4600 2831 4234 
Q 3216 3869 3216 3328 
Q 3216 3053 3103 2787 
Q 2991 2522 2730 2228 
Q 2469 1934 1863 1422 
Q 1356 997 1212 845 
Q 1069 694 975 541 
L 3222 541 
z
" transform="scale(0.015625)"/>
       </defs>
       <use xlink:href="#ArialMT-30"/>
       <use xlink:href="#ArialMT-2e" x="55.615234"/>
       <use xlink:href="#ArialMT-32" x="83.398438"/>
      </g>
     </g>
    </g>
    <g id="xtick_4">
     <g id="line2d_7">
      <path d="M 239.4 384.48 
L 239.4 51.84 
" clip-path="url(#p9b37d837bf)" style="fill: none; stroke-dasharray: 2.96,1.28; stroke-dashoffset: 0; stroke: #cccccc; stroke-opacity: 0.7; stroke-width: 0.8"/>
     </g>
     <g id="line2d_8"/>
     <g id="text_4">
      <!-- 0.3 -->
      <g transform="translate(228.975 398.716719) scale(0.15 -0.15)">
       <defs>
        <path id="ArialMT-33" d="M 269 1209 
L 831 1284 
Q 928 806 1161 595 
Q 1394 384 1728 384 
Q 2125 384 2398 659 
Q 2672 934 2672 1341 
Q 2672 1728 2419 1979 
Q 2166 2231 1775 2231 
Q 1616 2231 1378 2169 
L 1441 2663 
Q 1497 2656 1531 2656 
Q 1891 2656 2178 2843 
Q 2466 3031 2466 3422 
Q 2466 3731 2256 3934 
Q 2047 4138 1716 4138 
Q 1388 4138 1169 3931 
Q 950 3725 888 3313 
L 325 3413 
Q 428 3978 793 4289 
Q 1159 4600 1703 4600 
Q 2078 4600 2393 4439 
Q 2709 4278 2876 4000 
Q 3044 3722 3044 3409 
Q 3044 3113 2884 2869 
Q 2725 2625 2413 2481 
Q 2819 2388 3044 2092 
Q 3269 1797 3269 1353 
Q 3269 753 2831 336 
Q 2394 -81 1725 -81 
Q 1122 -81 723 278 
Q 325 638 269 1209 
z
" transform="scale(0.015625)"/>
       </defs>
       <use xlink:href="#ArialMT-30"/>
       <use xlink:href="#ArialMT-2e" x="55.615234"/>
       <use xlink:href="#ArialMT-33" x="83.398438"/>
      </g>
     </g>
    </g>
    <g id="xtick_5">
     <g id="line2d_9">
      <path d="M 295.2 384.48 
L 295.2 51.84 
" clip-path="url(#p9b37d837bf)" style="fill: none; stroke-dasharray: 2.96,1.28; stroke-dashoffset: 0; stroke: #cccccc; stroke-opacity: 0.7; stroke-width: 0.8"/>
     </g>
     <g id="line2d_10"/>
     <g id="text_5">
      <!-- 0.4 -->
      <g transform="translate(284.775 398.716719) scale(0.15 -0.15)">
       <defs>
        <path id="ArialMT-34" d="M 2069 0 
L 2069 1097 
L 81 1097 
L 81 1613 
L 2172 4581 
L 2631 4581 
L 2631 1613 
L 3250 1613 
L 3250 1097 
L 2631 1097 
L 2631 0 
L 2069 0 
z
M 2069 1613 
L 2069 3678 
L 634 1613 
L 2069 1613 
z
" transform="scale(0.015625)"/>
       </defs>
       <use xlink:href="#ArialMT-30"/>
       <use xlink:href="#ArialMT-2e" x="55.615234"/>
       <use xlink:href="#ArialMT-34" x="83.398438"/>
      </g>
     </g>
    </g>
    <g id="xtick_6">
     <g id="line2d_11">
      <path d="M 351 384.48 
L 351 51.84 
" clip-path="url(#p9b37d837bf)" style="fill: none; stroke-dasharray: 2.96,1.28; stroke-dashoffset: 0; stroke: #cccccc; stroke-opacity: 0.7; stroke-width: 0.8"/>
     </g>
     <g id="line2d_12"/>
     <g id="text_6">
      <!-- 0.5 -->
      <g transform="translate(340.575 398.716719) scale(0.15 -0.15)">
       <defs>
        <path id="ArialMT-35" d="M 266 1200 
L 856 1250 
Q 922 819 1161 601 
Q 1400 384 1738 384 
Q 2144 384 2425 690 
Q 2706 997 2706 1503 
Q 2706 1984 2436 2262 
Q 2166 2541 1728 2541 
Q 1456 2541 1237 2417 
Q 1019 2294 894 2097 
L 366 2166 
L 809 4519 
L 3088 4519 
L 3088 3981 
L 1259 3981 
L 1013 2750 
Q 1425 3038 1878 3038 
Q 2478 3038 2890 2622 
Q 3303 2206 3303 1553 
Q 3303 931 2941 478 
Q 2500 -78 1738 -78 
Q 1113 -78 717 272 
Q 322 622 266 1200 
z
" transform="scale(0.015625)"/>
       </defs>
       <use xlink:href="#ArialMT-30"/>
       <use xlink:href="#ArialMT-2e" x="55.615234"/>
       <use xlink:href="#ArialMT-35" x="83.398438"/>
      </g>
     </g>
    </g>
    <g id="xtick_7">
     <g id="line2d_13">
      <path d="M 406.8 384.48 
L 406.8 51.84 
" clip-path="url(#p9b37d837bf)" style="fill: none; stroke-dasharray: 2.96,1.28; stroke-dashoffset: 0; stroke: #cccccc; stroke-opacity: 0.7; stroke-width: 0.8"/>
     </g>
     <g id="line2d_14"/>
     <g id="text_7">
      <!-- 0.6 -->
      <g transform="translate(396.375 398.716719) scale(0.15 -0.15)">
       <defs>
        <path id="ArialMT-36" d="M 3184 3459 
L 2625 3416 
Q 2550 3747 2413 3897 
Q 2184 4138 1850 4138 
Q 1581 4138 1378 3988 
Q 1113 3794 959 3422 
Q 806 3050 800 2363 
Q 1003 2672 1297 2822 
Q 1591 2972 1913 2972 
Q 2475 2972 2870 2558 
Q 3266 2144 3266 1488 
Q 3266 1056 3080 686 
Q 2894 316 2569 119 
Q 2244 -78 1831 -78 
Q 1128 -78 684 439 
Q 241 956 241 2144 
Q 241 3472 731 4075 
Q 1159 4600 1884 4600 
Q 2425 4600 2770 4297 
Q 3116 3994 3184 3459 
z
M 888 1484 
Q 888 1194 1011 928 
Q 1134 663 1356 523 
Q 1578 384 1822 384 
Q 2178 384 2434 671 
Q 2691 959 2691 1453 
Q 2691 1928 2437 2201 
Q 2184 2475 1800 2475 
Q 1419 2475 1153 2201 
Q 888 1928 888 1484 
z
" transform="scale(0.015625)"/>
       </defs>
       <use xlink:href="#ArialMT-30"/>
       <use xlink:href="#ArialMT-2e" x="55.615234"/>
       <use xlink:href="#ArialMT-36" x="83.398438"/>
      </g>
     </g>
    </g>
    <g id="xtick_8">
     <g id="line2d_15">
      <path d="M 462.6 384.48 
L 462.6 51.84 
" clip-path="url(#p9b37d837bf)" style="fill: none; stroke-dasharray: 2.96,1.28; stroke-dashoffset: 0; stroke: #cccccc; stroke-opacity: 0.7; stroke-width: 0.8"/>
     </g>
     <g id="line2d_16"/>
     <g id="text_8">
      <!-- 0.7 -->
      <g transform="translate(452.175 398.716719) scale(0.15 -0.15)">
       <defs>
        <path id="ArialMT-37" d="M 303 3981 
L 303 4522 
L 3269 4522 
L 3269 4084 
Q 2831 3619 2401 2847 
Q 1972 2075 1738 1259 
Q 1569 684 1522 0 
L 944 0 
Q 953 541 1156 1306 
Q 1359 2072 1739 2783 
Q 2119 3494 2547 3981 
L 303 3981 
z
" transform="scale(0.015625)"/>
       </defs>
       <use xlink:href="#ArialMT-30"/>
       <use xlink:href="#ArialMT-2e" x="55.615234"/>
       <use xlink:href="#ArialMT-37" x="83.398438"/>
      </g>
     </g>
    </g>
    <g id="xtick_9">
     <g id="line2d_17">
      <path d="M 518.4 384.48 
L 518.4 51.84 
" clip-path="url(#p9b37d837bf)" style="fill: none; stroke-dasharray: 2.96,1.28; stroke-dashoffset: 0; stroke: #cccccc; stroke-opacity: 0.7; stroke-width: 0.8"/>
     </g>
     <g id="line2d_18"/>
     <g id="text_9">
      <!-- 0.8 -->
      <g transform="translate(507.975 398.716719) scale(0.15 -0.15)">
       <defs>
        <path id="ArialMT-38" d="M 1131 2484 
Q 781 2613 612 2850 
Q 444 3088 444 3419 
Q 444 3919 803 4259 
Q 1163 4600 1759 4600 
Q 2359 4600 2725 4251 
Q 3091 3903 3091 3403 
Q 3091 3084 2923 2848 
Q 2756 2613 2416 2484 
Q 2838 2347 3058 2040 
Q 3278 1734 3278 1309 
Q 3278 722 2862 322 
Q 2447 -78 1769 -78 
Q 1091 -78 675 323 
Q 259 725 259 1325 
Q 259 1772 486 2073 
Q 713 2375 1131 2484 
z
M 1019 3438 
Q 1019 3113 1228 2906 
Q 1438 2700 1772 2700 
Q 2097 2700 2305 2904 
Q 2513 3109 2513 3406 
Q 2513 3716 2298 3927 
Q 2084 4138 1766 4138 
Q 1444 4138 1231 3931 
Q 1019 3725 1019 3438 
z
M 838 1322 
Q 838 1081 952 856 
Q 1066 631 1291 507 
Q 1516 384 1775 384 
Q 2178 384 2440 643 
Q 2703 903 2703 1303 
Q 2703 1709 2433 1975 
Q 2163 2241 1756 2241 
Q 1359 2241 1098 1978 
Q 838 1716 838 1322 
z
" transform="scale(0.015625)"/>
       </defs>
       <use xlink:href="#ArialMT-30"/>
       <use xlink:href="#ArialMT-2e" x="55.615234"/>
       <use xlink:href="#ArialMT-38" x="83.398438"/>
      </g>
     </g>
    </g>
    <g id="text_10">
     <!-- $p = PX/E^2$ -->
     <g transform="translate(258.75 419.047969) scale(0.15 -0.15)">
      <defs>
       <path id="DejaVuSerif-Italic-70" d="M 1466 1825 
L 1400 1497 
Q 1353 1250 1353 1053 
Q 1353 769 1453 581 
Q 1622 269 2059 269 
Q 2500 269 2795 622 
Q 3091 975 3225 1663 
Q 3284 1978 3284 2225 
Q 3284 2513 3200 2703 
Q 3041 3053 2600 3053 
Q 2163 3053 1872 2737 
Q 1581 2422 1466 1825 
z
M 1116 2988 
L 563 2988 
L 628 3322 
L 1756 3322 
L 1656 2803 
Q 1884 3116 2175 3264 
Q 2466 3413 2850 3413 
Q 3463 3413 3753 2928 
Q 3947 2609 3947 2163 
Q 3947 1928 3897 1663 
Q 3744 881 3262 395 
Q 2781 -91 2169 -91 
Q 1784 -91 1551 57 
Q 1319 206 1213 519 
L 850 -1331 
L 275 -1331 
L 1116 2988 
z
" transform="scale(0.015625)"/>
       <path id="DejaVuSerif-3d" d="M 678 2894 
L 4684 2894 
L 4684 2394 
L 678 2394 
L 678 2894 
z
M 678 1619 
L 4684 1619 
L 4684 1119 
L 678 1119 
L 678 1619 
z
" transform="scale(0.015625)"/>
       <path id="DejaVuSerif-Italic-50" d="M 1594 2375 
L 2419 2375 
Q 2884 2375 3176 2626 
Q 3469 2878 3559 3353 
Q 3653 3831 3458 4081 
Q 3263 4331 2797 4331 
L 1972 4331 
L 1594 2375 
z
M -97 0 
L -34 331 
L 559 331 
L 1338 4331 
L 744 4331 
L 809 4666 
L 3016 4666 
Q 3716 4666 4056 4311 
Q 4397 3956 4278 3353 
Q 4163 2753 3684 2397 
Q 3206 2041 2506 2041 
L 1528 2041 
L 1194 331 
L 1916 331 
L 1853 0 
L -97 0 
z
" transform="scale(0.015625)"/>
       <path id="DejaVuSerif-Italic-58" d="M 2056 1997 
L 591 331 
L 1194 331 
L 1131 0 
L -413 0 
L -350 331 
L 188 331 
L 1913 2291 
L 947 4331 
L 447 4331 
L 513 4666 
L 2363 4666 
L 2297 4331 
L 1747 4331 
L 2456 2828 
L 3775 4331 
L 3175 4331 
L 3241 4666 
L 4769 4666 
L 4703 4331 
L 4178 4331 
L 2597 2534 
L 3641 331 
L 4141 331 
L 4075 0 
L 2225 0 
L 2288 331 
L 2844 331 
L 2056 1997 
z
" transform="scale(0.015625)"/>
       <path id="DejaVuSerif-2f" d="M 1656 4666 
L 2156 4666 
L 500 -594 
L 0 -594 
L 1656 4666 
z
" transform="scale(0.015625)"/>
       <path id="DejaVuSerif-Italic-45" d="M -97 0 
L -34 331 
L 559 331 
L 1338 4331 
L 744 4331 
L 809 4666 
L 4566 4666 
L 4366 3628 
L 3981 3628 
L 4106 4281 
L 1963 4281 
L 1659 2719 
L 3188 2719 
L 3300 3303 
L 3684 3303 
L 3384 1753 
L 3000 1753 
L 3113 2338 
L 1584 2338 
L 1206 384 
L 3400 384 
L 3525 1038 
L 3909 1038 
L 3709 0 
L -97 0 
z
" transform="scale(0.015625)"/>
       <path id="DejaVuSerif-32" d="M 819 3553 
L 469 3553 
L 469 4384 
Q 803 4563 1142 4656 
Q 1481 4750 1806 4750 
Q 2534 4750 2956 4397 
Q 3378 4044 3378 3438 
Q 3378 2753 2422 1800 
Q 2347 1728 2309 1691 
L 1131 513 
L 3078 513 
L 3078 1088 
L 3444 1088 
L 3444 0 
L 434 0 
L 434 341 
L 1850 1753 
Q 2319 2222 2519 2614 
Q 2719 3006 2719 3438 
Q 2719 3909 2473 4175 
Q 2228 4441 1797 4441 
Q 1350 4441 1106 4219 
Q 863 3997 819 3553 
z
" transform="scale(0.015625)"/>
      </defs>
      <use xlink:href="#DejaVuSerif-Italic-70" transform="translate(0 0.7125)"/>
      <use xlink:href="#DejaVuSerif-3d" transform="translate(82.978516 0.7125)"/>
      <use xlink:href="#DejaVuSerif-Italic-50" transform="translate(185.732422 0.7125)"/>
      <use xlink:href="#DejaVuSerif-Italic-58" transform="translate(253.017578 0.7125)"/>
      <use xlink:href="#DejaVuSerif-2f" transform="translate(324.208984 0.7125)"/>
      <use xlink:href="#DejaVuSerif-Italic-45" transform="translate(357.900391 0.7125)"/>
      <use xlink:href="#DejaVuSerif-32" transform="translate(438.077448 37.046875) scale(0.7)"/>
     </g>
    </g>
   </g>
   <g id="matplotlib.axis_2">
    <g id="ytick_1">
     <g id="line2d_19">
      <path d="M 72 384.48 
L 518.4 384.48 
" clip-path="url(#p9b37d837bf)" style="fill: none; stroke-dasharray: 2.96,1.28; stroke-dashoffset: 0; stroke: #cccccc; stroke-opacity: 0.7; stroke-width: 0.8"/>
     </g>
     <g id="line2d_20"/>
     <g id="text_11">
      <!-- 0.0 -->
      <g transform="translate(47.65 389.848359) scale(0.15 -0.15)">
       <use xlink:href="#ArialMT-30"/>
       <use xlink:href="#ArialMT-2e" x="55.615234"/>
       <use xlink:href="#ArialMT-30" x="83.398438"/>
      </g>
     </g>
    </g>
    <g id="ytick_2">
     <g id="line2d_21">
      <path d="M 72 329.04 
L 518.4 329.04 
" clip-path="url(#p9b37d837bf)" style="fill: none; stroke-dasharray: 2.96,1.28; stroke-dashoffset: 0; stroke: #cccccc; stroke-opacity: 0.7; stroke-width: 0.8"/>
     </g>
     <g id="line2d_22"/>
     <g id="text_12">
      <!-- 0.2 -->
      <g transform="translate(47.65 334.408359) scale(0.15 -0.15)">
       <use xlink:href="#ArialMT-30"/>
       <use xlink:href="#ArialMT-2e" x="55.615234"/>
       <use xlink:href="#ArialMT-32" x="83.398438"/>
      </g>
     </g>
    </g>
    <g id="ytick_3">
     <g id="line2d_23">
      <path d="M 72 273.6 
L 518.4 273.6 
" clip-path="url(#p9b37d837bf)" style="fill: none; stroke-dasharray: 2.96,1.28; stroke-dashoffset: 0; stroke: #cccccc; stroke-opacity: 0.7; stroke-width: 0.8"/>
     </g>
     <g id="line2d_24"/>
     <g id="text_13">
      <!-- 0.4 -->
      <g transform="translate(47.65 278.968359) scale(0.15 -0.15)">
       <use xlink:href="#ArialMT-30"/>
       <use xlink:href="#ArialMT-2e" x="55.615234"/>
       <use xlink:href="#ArialMT-34" x="83.398438"/>
      </g>
     </g>
    </g>
    <g id="ytick_4">
     <g id="line2d_25">
      <path d="M 72 218.16 
L 518.4 218.16 
" clip-path="url(#p9b37d837bf)" style="fill: none; stroke-dasharray: 2.96,1.28; stroke-dashoffset: 0; stroke: #cccccc; stroke-opacity: 0.7; stroke-width: 0.8"/>
     </g>
     <g id="line2d_26"/>
     <g id="text_14">
      <!-- 0.6 -->
      <g transform="translate(47.65 223.528359) scale(0.15 -0.15)">
       <use xlink:href="#ArialMT-30"/>
       <use xlink:href="#ArialMT-2e" x="55.615234"/>
       <use xlink:href="#ArialMT-36" x="83.398438"/>
      </g>
     </g>
    </g>
    <g id="ytick_5">
     <g id="line2d_27">
      <path d="M 72 162.72 
L 518.4 162.72 
" clip-path="url(#p9b37d837bf)" style="fill: none; stroke-dasharray: 2.96,1.28; stroke-dashoffset: 0; stroke: #cccccc; stroke-opacity: 0.7; stroke-width: 0.8"/>
     </g>
     <g id="line2d_28"/>
     <g id="text_15">
      <!-- 0.8 -->
      <g transform="translate(47.65 168.088359) scale(0.15 -0.15)">
       <use xlink:href="#ArialMT-30"/>
       <use xlink:href="#ArialMT-2e" x="55.615234"/>
       <use xlink:href="#ArialMT-38" x="83.398438"/>
      </g>
     </g>
    </g>
    <g id="ytick_6">
     <g id="line2d_29">
      <path d="M 72 107.28 
L 518.4 107.28 
" clip-path="url(#p9b37d837bf)" style="fill: none; stroke-dasharray: 2.96,1.28; stroke-dashoffset: 0; stroke: #cccccc; stroke-opacity: 0.7; stroke-width: 0.8"/>
     </g>
     <g id="line2d_30"/>
     <g id="text_16">
      <!-- 1.0 -->
      <g transform="translate(47.65 112.648359) scale(0.15 -0.15)">
       <use xlink:href="#ArialMT-31"/>
       <use xlink:href="#ArialMT-2e" x="55.615234"/>
       <use xlink:href="#ArialMT-30" x="83.398438"/>
      </g>
     </g>
    </g>
    <g id="ytick_7">
     <g id="line2d_31">
      <path d="M 72 51.84 
L 518.4 51.84 
" clip-path="url(#p9b37d837bf)" style="fill: none; stroke-dasharray: 2.96,1.28; stroke-dashoffset: 0; stroke: #cccccc; stroke-opacity: 0.7; stroke-width: 0.8"/>
     </g>
     <g id="line2d_32"/>
     <g id="text_17">
      <!-- 1.2 -->
      <g transform="translate(47.65 57.208359) scale(0.15 -0.15)">
       <use xlink:href="#ArialMT-31"/>
       <use xlink:href="#ArialMT-2e" x="55.615234"/>
       <use xlink:href="#ArialMT-32" x="83.398438"/>
      </g>
     </g>
    </g>
    <g id="text_18">
     <!-- $v = V/E$ -->
     <g transform="translate(40.66875 245.01) rotate(-90) scale(0.15 -0.15)">
      <defs>
       <path id="DejaVuSerif-Italic-76" d="M 1681 0 
L 1259 0 
L 619 2988 
L 241 2988 
L 303 3322 
L 1163 3322 
L 1725 703 
Q 2084 1016 2325 1413 
Q 2825 2238 3003 2988 
L 2622 2988 
L 2688 3322 
L 3547 3322 
Q 3206 2034 2775 1313 
Q 2400 688 1681 0 
z
" transform="scale(0.015625)"/>
       <path id="DejaVuSerif-Italic-56" d="M 1506 4331 
L 2191 750 
L 4259 4331 
L 3734 4331 
L 3800 4666 
L 5169 4666 
L 5103 4331 
L 4650 4331 
L 2144 0 
L 1606 0 
L 791 4331 
L 325 4331 
L 391 4666 
L 2091 4666 
L 2025 4331 
L 1506 4331 
z
" transform="scale(0.015625)"/>
      </defs>
      <use xlink:href="#DejaVuSerif-Italic-76" transform="translate(0 0.09375)"/>
      <use xlink:href="#DejaVuSerif-3d" transform="translate(75.458984 0.09375)"/>
      <use xlink:href="#DejaVuSerif-Italic-56" transform="translate(178.212891 0.09375)"/>
      <use xlink:href="#DejaVuSerif-2f" transform="translate(250.429688 0.09375)"/>
      <use xlink:href="#DejaVuSerif-Italic-45" transform="translate(284.121094 0.09375)"/>
     </g>
    </g>
   </g>
   <g id="line2d_33">
    <path d="M 72 107.28 
L 85.420065 104.165433 
L 99.405707 101.149106 
L 113.934252 98.244269 
L 128.975747 95.464615 
L 144.491236 92.824338 
L 160.43286 90.337796 
L 176.74378 88.019238 
L 193.357671 85.882578 
L 210.198822 83.941067 
L 227.1844 82.206736 
L 244.223685 80.690229 
L 261.221925 79.400194 
L 278.082276 78.343008 
L 294.705227 77.522661 
L 310.996177 76.940263 
L 326.862746 76.594207 
L 341.916837 76.480055 
L 342.251734 76.48 
M 342.251745 76.48 
L 357.425229 76.597089 
L 371.562392 76.92973 
L 385.000424 77.466279 
L 397.712577 78.194096 
L 409.673587 79.09921 
L 420.867375 80.166653 
L 431.290247 81.381123 
L 440.9506 82.727651 
L 449.86022 84.190936 
L 458.039486 85.756341 
L 465.514174 87.409896 
L 472.313648 89.138295 
L 478.470782 90.929231 
L 484.019555 92.77106 
L 488.995437 94.653139 
L 493.435958 96.566486 
L 497.377257 98.502786 
L 500.855826 100.455385 
L 503.906002 102.418295 
L 506.562221 104.387859 
L 508.856218 106.361414 
L 510.817666 108.337963 
L 512.47394 110.318503 
L 513.849489 112.306029 
L 514.964986 114.304865 
L 515.837653 116.321663 
L 516.480355 118.364407 
L 516.90165 120.443077 
L 517.10528 122.568316 
L 517.09035 124.7521 
L 516.851235 127.007069 
L 516.377737 129.346195 
L 515.655383 131.782453 
L 514.665846 134.328482 
L 513.386813 136.997588 
L 511.792715 139.802412 
L 509.854768 142.755593 
L 507.541176 145.869771 
L 504.817058 149.157921 
L 501.644222 152.63368 
L 497.981839 156.310686 
L 493.785618 160.203576 
L 489.007736 164.327983 
L 483.595975 168.701206 
L 477.493528 173.342204 
L 470.637473 178.272599 
L 462.95794 183.517006 
L 454.37573 189.104366 
L 444.799614 195.069272 
L 434.121164 201.454636 
L 422.20903 208.314345 
L 408.896892 215.719252 
L 393.964802 223.766154 
L 377.103417 232.595094 
L 357.839487 242.425281 
L 335.354143 253.642578 
L 307.904173 267.077921 
L 269.513002 285.599002 
L 192.513693 322.705364 
L 162.560683 337.422703 
L 137.609974 349.924657 
L 115.734469 361.129979 
L 96.108616 371.428857 
L 78.278626 381.032848 
L 72 384.48 
L 72 384.48 
" clip-path="url(#p9b37d837bf)" style="fill: none; stroke: #e24a33; stroke-width: 1.5; stroke-linecap: round"/>
   </g>
   <g id="line2d_34">
    <path d="M 72 107.28 
L 86.589766 105.01034 
L 101.639341 102.895024 
L 117.095771 100.947748 
L 132.896636 99.181705 
L 148.970146 97.609258 
L 165.236537 96.241497 
L 181.608885 95.0879 
L 197.995155 94.155953 
L 214.299622 93.450866 
L 230.427689 92.975246 
L 246.286483 92.729092 
L 255.132324 92.690561 
M 255.67905 92.690561 
L 271.214036 92.809979 
L 285.970643 93.146611 
L 300.170516 93.691476 
L 313.75794 94.433597 
L 326.690919 95.360665 
L 338.938542 96.459376 
L 350.47749 97.715426 
L 361.295923 99.114179 
L 371.393926 100.641331 
L 380.775685 102.282245 
L 389.454202 104.022952 
L 397.447036 105.849813 
L 404.778957 107.75052 
L 411.474919 109.712765 
L 417.564425 111.725572 
L 423.078836 113.77896 
L 428.049766 115.863617 
L 432.51018 117.971559 
L 436.493404 120.096133 
L 440.03133 122.231351 
L 443.155368 124.372557 
L 445.896254 126.516757 
L 448.282639 128.661954 
L 450.341884 130.80815 
L 452.098281 132.956008 
L 453.574317 135.108524 
L 454.789321 137.270021 
L 455.759449 139.446486 
L 456.49725 141.645239 
L 457.011575 143.87526 
L 457.307156 146.146195 
L 457.384727 148.46869 
L 457.240939 150.854387 
L 456.86843 153.314927 
L 456.256015 155.862287 
L 455.388894 158.508441 
L 454.24886 161.265364 
L 452.814649 164.144699 
L 451.062047 167.158087 
L 448.963808 170.317505 
L 446.489949 173.634927 
L 443.608216 177.121996 
L 440.28347 180.791019 
L 436.477636 184.654969 
L 432.149693 188.727484 
L 427.255313 193.023202 
L 421.746399 197.558087 
L 415.570536 202.349771 
L 408.669468 207.418545 
L 400.979194 212.787027 
L 392.426293 218.482495 
L 382.927219 224.536881 
L 372.382367 230.990104 
L 360.671594 237.892058 
L 347.643728 245.307942 
L 333.099097 253.326902 
L 316.76023 262.076341 
L 298.207025 271.753846 
L 276.726663 282.700707 
L 250.859164 295.624449 
L 216.11523 312.716175 
L 129.701795 355.12815 
L 102.270427 368.902121 
L 79.238526 380.71052 
L 72 384.48 
L 72 384.48 
" clip-path="url(#p9b37d837bf)" style="fill: none; stroke: #348abd; stroke-width: 1.5; stroke-linecap: round"/>
   </g>
   <g id="line2d_35">
    <path d="M 72 384.48 
L 125.48505 357.785946 
L 153.168669 343.714262 
L 175.596824 332.07052 
L 194.877248 321.815551 
L 211.878494 312.525572 
L 227.072361 303.974054 
L 240.756214 296.021289 
L 253.13598 288.573139 
L 264.363173 281.562744 
L 274.557027 274.93921 
L 283.813089 268.663617 
L 292.212409 262.704033 
L 299.823591 257.034844 
L 306.707361 251.634096 
L 312.917949 246.482827 
L 318.503966 241.56474 
L 323.509952 236.865198 
L 327.97695 232.370894 
L 331.942693 228.069854 
L 335.442672 223.950437 
L 338.509562 220.001996 
L 341.173863 216.21422 
L 343.464079 212.576798 
L 345.406246 209.080083 
L 347.024657 205.713763 
L 348.340909 202.468524 
L 349.374761 199.334054 
L 350.143315 196.300707 
L 350.661362 193.35817 
L 350.940986 190.496133 
L 350.991466 187.704948 
L 350.819284 184.974304 
L 350.42801 182.294886 
L 349.818179 179.657048 
L 348.98742 177.052141 
L 347.930651 174.472516 
L 346.6399 171.910852 
L 345.104586 169.360832 
L 343.311927 166.817464 
L 341.246688 164.276424 
L 338.891816 161.734719 
L 336.228423 159.190353 
L 333.235977 156.642328 
L 329.892964 154.090977 
L 326.176351 151.537297 
L 322.062173 148.983285 
L 317.526456 146.432266 
L 312.543834 143.8879 
L 307.089581 141.355177 
L 301.137939 138.839418 
L 294.665511 136.347609 
L 287.648709 133.887069 
L 280.064702 131.46578 
L 271.89409 129.093056 
L 263.119771 126.778877 
L 253.727552 124.533888 
L 243.706905 122.369397 
L 233.053739 120.297713 
L 221.766727 118.331143 
L 209.856155 116.483326 
L 197.336623 114.767568 
L 184.229928 113.197173 
L 170.570789 111.78578 
L 156.402189 110.546362 
L 141.77874 109.491227 
L 126.762645 108.631351 
L 111.428584 107.976383 
L 95.858711 107.533971 
L 80.131188 107.309439 
L 72.611258 107.280166 
L 72.611258 107.280166 
" clip-path="url(#p9b37d837bf)" style="fill: none; stroke: #988ed5; stroke-width: 1.5; stroke-linecap: round"/>
   </g>
   <g id="line2d_36">
    <path d="M 72 384.48 
L 91.416345 374.201414 
L 108.883176 364.707193 
L 124.746158 355.835343 
L 139.236177 347.480083 
L 152.51851 339.5679 
L 164.71859 332.044906 
L 175.937156 324.869189 
L 186.255674 318.008482 
L 195.744242 311.435842 
L 204.462398 305.129647 
L 212.463147 299.071268 
L 219.793823 293.24474 
L 226.497714 287.635759 
L 232.61392 282.232017 
L 238.178429 277.022536 
L 243.225315 271.996674 
L 247.785774 267.145114 
L 251.889531 262.458545 
L 255.563948 257.928649 
L 258.834964 253.54711 
L 261.727004 249.305613 
L 264.262527 245.196507 
L 266.462519 241.212141 
L 268.346747 237.3442 
L 269.932976 233.585031 
L 271.237571 229.92632 
L 272.274986 226.360083 
L 273.057891 222.878337 
L 273.597171 219.472765 
L 273.901754 216.135052 
L 273.978549 212.856881 
L 273.832388 209.629938 
L 273.465994 206.446237 
L 272.879939 203.297796 
L 272.072829 200.17763 
L 271.041065 197.07842 
L 269.779021 193.993514 
L 268.279327 190.917256 
L 266.532491 187.843992 
L 264.527635 184.769397 
L 262.252091 181.68948 
L 259.691927 178.601247 
L 256.831866 175.50237 
L 253.655039 172.390852 
L 250.144084 169.266029 
L 246.280329 166.127568 
L 242.044665 162.976133 
L 237.417374 159.813056 
L 232.377734 156.64 
L 226.905159 153.459626 
L 220.978952 150.27526 
L 214.578511 147.090894 
L 207.683544 143.911185 
L 200.275107 140.741788 
L 192.333567 137.588358 
L 183.841991 134.457879 
L 174.785091 131.358004 
L 165.148516 128.296715 
L 154.922342 125.283326 
L 144.099848 122.327817 
L 132.678112 119.440832 
L 120.657217 116.633347 
L 108.046901 113.918004 
L 94.859087 111.30711 
L 81.114865 108.813971 
L 66.845067 106.452557 
L 52.086139 104.236507 
L 36.885834 102.179792 
L 21.298542 100.295717 
L 5.393169 98.597588 
L -1 97.977026 
L -1 97.977026 
" clip-path="url(#p9b37d837bf)" style="fill: none; stroke: #777777; stroke-width: 1.5; stroke-linecap: round"/>
   </g>
   <g id="line2d_37">
    <path d="M 72 384.48 
L 87.809947 375.626445 
L 102.368015 367.222287 
L 115.806216 359.210977 
L 128.227805 351.549938 
L 139.717848 344.205239 
L 150.347075 337.149938 
L 160.176889 330.361414 
L 169.260028 323.821372 
L 177.64399 317.513846 
L 185.371771 311.424865 
L 192.482967 305.541788 
L 199.013193 299.853971 
L 204.99591 294.351435 
L 210.462466 289.024865 
L 215.44217 283.865613 
L 219.962094 278.866029 
L 224.048369 274.018129 
L 227.725501 269.314262 
L 231.016187 264.747443 
L 233.94187 260.310686 
L 236.522888 255.996674 
L 238.777996 251.79842 
L 240.72472 247.708607 
L 242.37898 243.720249 
L 243.755369 239.826029 
L 244.866944 236.018628 
L 245.725261 232.290395 
L 246.340154 228.634012 
L 246.719853 225.04183 
L 246.870844 221.506195 
L 246.79782 218.019459 
L 246.50367 214.574304 
L 245.989461 211.16341 
L 245.254456 207.779792 
L 244.296028 204.416466 
L 243.109956 201.067443 
L 241.690206 197.726736 
L 240.029173 194.389023 
L 238.11759 191.049314 
L 235.944977 187.703617 
L 233.499116 184.347942 
L 230.767034 180.979626 
L 227.734457 177.596341 
L 224.385802 174.196091 
L 220.704897 170.777879 
L 216.674463 167.34104 
L 212.276979 163.885904 
L 207.494056 160.413139 
L 202.306948 156.924075 
L 196.696178 153.420374 
L 190.642712 149.904699 
L 184.127733 146.380374 
L 177.131502 142.850728 
L 169.636052 139.320416 
L 161.622785 135.794096 
L 153.075563 132.277755 
L 143.977964 128.77738 
L 134.315869 125.299958 
L 124.078075 121.853472 
L 113.254812 118.446237 
L 101.838965 115.087235 
L 89.828987 111.786778 
L 77.226235 108.555509 
L 64.038032 105.405073 
L 50.277376 102.347775 
L 35.963917 99.39659 
L 21.123401 96.564823 
L 5.792514 93.866778 
L -1 92.741506 
L -1 92.741506 
" clip-path="url(#p9b37d837bf)" style="fill: none; stroke: #fbc15e; stroke-width: 1.5; stroke-linecap: round"/>
   </g>
   <g id="line2d_38">
    <path d="M 72 384.48 
L 84.21556 376.763742 
L 95.6146 369.302952 
L 106.24685 362.080998 
L 116.157788 355.082911 
L 125.387485 348.296383 
L 133.97281 341.710437 
L 141.948432 335.314761 
L 149.345686 329.100707 
L 156.19439 323.059958 
L 162.52283 317.184532 
L 168.356774 311.467775 
L 173.721331 305.902703 
L 178.639914 300.482994 
L 183.135198 295.201996 
L 187.227958 290.054054 
L 190.938262 285.033181 
L 194.285342 280.133056 
L 197.286878 275.348025 
L 199.959703 270.6721 
L 202.319533 266.099293 
L 204.380947 261.623617 
L 206.157374 257.239085 
L 207.661298 252.939044 
L 208.903789 248.717173 
L 209.894662 244.567152 
L 210.642505 240.482328 
L 211.154545 236.45605 
L 211.436626 232.481663 
L 211.493185 228.552516 
L 211.327248 224.662287 
L 210.940364 220.803992 
L 210.332685 216.971642 
L 209.502881 213.158919 
L 208.448196 209.359834 
L 207.164485 205.568732 
L 205.646252 201.780291 
L 203.88684 197.989854 
L 201.878199 194.192765 
L 199.611008 190.384699 
L 197.075158 186.562328 
L 194.259236 182.722328 
L 191.151268 178.86237 
L 187.737764 174.979792 
L 184.004812 171.072931 
L 179.937994 167.14079 
L 175.521783 163.18237 
L 170.740255 159.197339 
L 165.577257 155.186029 
L 160.015647 151.148773 
L 154.038681 147.086902 
L 147.628762 143.001746 
L 140.769022 138.895634 
L 133.44189 134.770894 
L 125.630244 130.63052 
L 117.316958 126.477838 
L 108.485663 122.31684 
L 99.121758 118.152516 
L 89.209641 113.989522 
L 78.736603 109.833846 
L 67.690841 105.691809 
L 56.063435 101.570728 
L 43.845871 97.477921 
L 31.034117 93.422037 
L 17.627276 89.412391 
L 3.627979 85.45896 
L -1 84.200983 
L -1 84.200983 
" clip-path="url(#p9b37d837bf)" style="fill: none; stroke: #8eba42; stroke-width: 1.5; stroke-linecap: round"/>
   </g>
   <g id="line2d_39">
    <path d="M 72 384.48 
L 82.144086 377.217464 
L 91.648104 370.142204 
L 100.542745 363.245904 
L 108.856411 356.521247 
L 116.616154 349.961247 
L 123.847695 343.559252 
L 130.575092 337.309272 
L 136.821531 331.205322 
L 142.608646 325.242079 
L 147.957253 319.41422 
L 152.887319 313.716424 
L 157.417927 308.143368 
L 161.567019 302.690062 
L 165.351684 297.351518 
L 168.788144 292.122744 
L 171.891742 286.998753 
L 174.677286 281.973888 
L 177.15823 277.04316 
L 179.347268 272.201247 
L 181.256116 267.442827 
L 182.895616 262.762245 
L 184.275555 258.153846 
L 185.404736 253.611642 
L 186.29077 249.129979 
L 186.940194 244.703202 
L 187.358511 240.32499 
L 187.549978 235.989688 
L 187.517719 231.690977 
L 187.263648 227.423202 
L 186.788481 223.180374 
L 186.091749 218.95684 
L 185.171772 214.746944 
L 184.025722 210.545364 
L 182.649672 206.34711 
L 181.038512 202.147193 
L 179.186046 197.940956 
L 177.085042 193.724075 
L 174.727462 189.49289 
L 172.104168 185.243742 
L 169.205104 180.973306 
L 166.01958 176.678919 
L 162.536147 172.358254 
L 158.742331 168.008981 
L 154.625213 163.629439 
L 150.171233 159.218295 
L 145.366608 154.774886 
L 140.196312 150.298212 
L 134.645561 145.788274 
L 128.699218 141.245405 
L 122.341378 136.669938 
L 115.55629 132.062869 
L 108.328022 127.42553 
L 100.639955 122.759252 
L 92.47647 118.066362 
L 83.822069 113.349522 
L 74.660779 108.611393 
L 64.977437 103.855301 
L 54.757192 99.084906 
L 43.987093 94.304865 
L 32.653308 89.519501 
L 20.745024 84.73447 
L 8.251549 79.955426 
L -1 76.561807 
L -1 76.561807 
" clip-path="url(#p9b37d837bf)" style="fill: none; stroke: #ffb5b8; stroke-width: 1.5; stroke-linecap: round"/>
   </g>
   <g id="patch_3">
    <path d="M 72 384.48 
L 72 51.84 
" style="fill: none; stroke: #000000; stroke-linejoin: miter; stroke-linecap: square"/>
   </g>
   <g id="patch_4">
    <path d="M 518.4 384.48 
L 518.4 51.84 
" style="fill: none; stroke: #000000; stroke-linejoin: miter; stroke-linecap: square"/>
   </g>
   <g id="patch_5">
    <path d="M 72 384.48 
L 518.4 384.48 
" style="fill: none; stroke: #000000; stroke-linejoin: miter; stroke-linecap: square"/>
   </g>
   <g id="patch_6">
    <path d="M 72 51.84 
L 518.4 51.84 
" style="fill: none; stroke: #000000; stroke-linejoin: miter; stroke-linecap: square"/>
   </g>
   <g id="text_19">
    <!-- PV curves for various power factors -->
    <g style="fill: #262626" transform="translate(181.56375 45.84) scale(0.144 -0.144)">
     <defs>
      <path id="ArialMT-50" d="M 494 0 
L 494 4581 
L 2222 4581 
Q 2678 4581 2919 4538 
Q 3256 4481 3484 4323 
Q 3713 4166 3852 3881 
Q 3991 3597 3991 3256 
Q 3991 2672 3619 2267 
Q 3247 1863 2275 1863 
L 1100 1863 
L 1100 0 
L 494 0 
z
M 1100 2403 
L 2284 2403 
Q 2872 2403 3119 2622 
Q 3366 2841 3366 3238 
Q 3366 3525 3220 3729 
Q 3075 3934 2838 4000 
Q 2684 4041 2272 4041 
L 1100 4041 
L 1100 2403 
z
" transform="scale(0.015625)"/>
      <path id="ArialMT-56" d="M 1803 0 
L 28 4581 
L 684 4581 
L 1875 1253 
Q 2019 853 2116 503 
Q 2222 878 2363 1253 
L 3600 4581 
L 4219 4581 
L 2425 0 
L 1803 0 
z
" transform="scale(0.015625)"/>
      <path id="ArialMT-20" transform="scale(0.015625)"/>
      <path id="ArialMT-63" d="M 2588 1216 
L 3141 1144 
Q 3050 572 2676 248 
Q 2303 -75 1759 -75 
Q 1078 -75 664 370 
Q 250 816 250 1647 
Q 250 2184 428 2587 
Q 606 2991 970 3192 
Q 1334 3394 1763 3394 
Q 2303 3394 2647 3120 
Q 2991 2847 3088 2344 
L 2541 2259 
Q 2463 2594 2264 2762 
Q 2066 2931 1784 2931 
Q 1359 2931 1093 2626 
Q 828 2322 828 1663 
Q 828 994 1084 691 
Q 1341 388 1753 388 
Q 2084 388 2306 591 
Q 2528 794 2588 1216 
z
" transform="scale(0.015625)"/>
      <path id="ArialMT-75" d="M 2597 0 
L 2597 488 
Q 2209 -75 1544 -75 
Q 1250 -75 995 37 
Q 741 150 617 320 
Q 494 491 444 738 
Q 409 903 409 1263 
L 409 3319 
L 972 3319 
L 972 1478 
Q 972 1038 1006 884 
Q 1059 663 1231 536 
Q 1403 409 1656 409 
Q 1909 409 2131 539 
Q 2353 669 2445 892 
Q 2538 1116 2538 1541 
L 2538 3319 
L 3100 3319 
L 3100 0 
L 2597 0 
z
" transform="scale(0.015625)"/>
      <path id="ArialMT-72" d="M 416 0 
L 416 3319 
L 922 3319 
L 922 2816 
Q 1116 3169 1280 3281 
Q 1444 3394 1641 3394 
Q 1925 3394 2219 3213 
L 2025 2691 
Q 1819 2813 1613 2813 
Q 1428 2813 1281 2702 
Q 1134 2591 1072 2394 
Q 978 2094 978 1738 
L 978 0 
L 416 0 
z
" transform="scale(0.015625)"/>
      <path id="ArialMT-76" d="M 1344 0 
L 81 3319 
L 675 3319 
L 1388 1331 
Q 1503 1009 1600 663 
Q 1675 925 1809 1294 
L 2547 3319 
L 3125 3319 
L 1869 0 
L 1344 0 
z
" transform="scale(0.015625)"/>
      <path id="ArialMT-65" d="M 2694 1069 
L 3275 997 
Q 3138 488 2766 206 
Q 2394 -75 1816 -75 
Q 1088 -75 661 373 
Q 234 822 234 1631 
Q 234 2469 665 2931 
Q 1097 3394 1784 3394 
Q 2450 3394 2872 2941 
Q 3294 2488 3294 1666 
Q 3294 1616 3291 1516 
L 816 1516 
Q 847 969 1125 678 
Q 1403 388 1819 388 
Q 2128 388 2347 550 
Q 2566 713 2694 1069 
z
M 847 1978 
L 2700 1978 
Q 2663 2397 2488 2606 
Q 2219 2931 1791 2931 
Q 1403 2931 1139 2672 
Q 875 2413 847 1978 
z
" transform="scale(0.015625)"/>
      <path id="ArialMT-73" d="M 197 991 
L 753 1078 
Q 800 744 1014 566 
Q 1228 388 1613 388 
Q 2000 388 2187 545 
Q 2375 703 2375 916 
Q 2375 1106 2209 1216 
Q 2094 1291 1634 1406 
Q 1016 1563 777 1677 
Q 538 1791 414 1992 
Q 291 2194 291 2438 
Q 291 2659 392 2848 
Q 494 3038 669 3163 
Q 800 3259 1026 3326 
Q 1253 3394 1513 3394 
Q 1903 3394 2198 3281 
Q 2494 3169 2634 2976 
Q 2775 2784 2828 2463 
L 2278 2388 
Q 2241 2644 2061 2787 
Q 1881 2931 1553 2931 
Q 1166 2931 1000 2803 
Q 834 2675 834 2503 
Q 834 2394 903 2306 
Q 972 2216 1119 2156 
Q 1203 2125 1616 2013 
Q 2213 1853 2448 1751 
Q 2684 1650 2818 1456 
Q 2953 1263 2953 975 
Q 2953 694 2789 445 
Q 2625 197 2315 61 
Q 2006 -75 1616 -75 
Q 969 -75 630 194 
Q 291 463 197 991 
z
" transform="scale(0.015625)"/>
      <path id="ArialMT-66" d="M 556 0 
L 556 2881 
L 59 2881 
L 59 3319 
L 556 3319 
L 556 3672 
Q 556 4006 616 4169 
Q 697 4388 901 4523 
Q 1106 4659 1475 4659 
Q 1713 4659 2000 4603 
L 1916 4113 
Q 1741 4144 1584 4144 
Q 1328 4144 1222 4034 
Q 1116 3925 1116 3625 
L 1116 3319 
L 1763 3319 
L 1763 2881 
L 1116 2881 
L 1116 0 
L 556 0 
z
" transform="scale(0.015625)"/>
      <path id="ArialMT-6f" d="M 213 1659 
Q 213 2581 725 3025 
Q 1153 3394 1769 3394 
Q 2453 3394 2887 2945 
Q 3322 2497 3322 1706 
Q 3322 1066 3130 698 
Q 2938 331 2570 128 
Q 2203 -75 1769 -75 
Q 1072 -75 642 372 
Q 213 819 213 1659 
z
M 791 1659 
Q 791 1022 1069 705 
Q 1347 388 1769 388 
Q 2188 388 2466 706 
Q 2744 1025 2744 1678 
Q 2744 2294 2464 2611 
Q 2184 2928 1769 2928 
Q 1347 2928 1069 2612 
Q 791 2297 791 1659 
z
" transform="scale(0.015625)"/>
      <path id="ArialMT-61" d="M 2588 409 
Q 2275 144 1986 34 
Q 1697 -75 1366 -75 
Q 819 -75 525 192 
Q 231 459 231 875 
Q 231 1119 342 1320 
Q 453 1522 633 1644 
Q 813 1766 1038 1828 
Q 1203 1872 1538 1913 
Q 2219 1994 2541 2106 
Q 2544 2222 2544 2253 
Q 2544 2597 2384 2738 
Q 2169 2928 1744 2928 
Q 1347 2928 1158 2789 
Q 969 2650 878 2297 
L 328 2372 
Q 403 2725 575 2942 
Q 747 3159 1072 3276 
Q 1397 3394 1825 3394 
Q 2250 3394 2515 3294 
Q 2781 3194 2906 3042 
Q 3031 2891 3081 2659 
Q 3109 2516 3109 2141 
L 3109 1391 
Q 3109 606 3145 398 
Q 3181 191 3288 0 
L 2700 0 
Q 2613 175 2588 409 
z
M 2541 1666 
Q 2234 1541 1622 1453 
Q 1275 1403 1131 1340 
Q 988 1278 909 1158 
Q 831 1038 831 891 
Q 831 666 1001 516 
Q 1172 366 1500 366 
Q 1825 366 2078 508 
Q 2331 650 2450 897 
Q 2541 1088 2541 1459 
L 2541 1666 
z
" transform="scale(0.015625)"/>
      <path id="ArialMT-69" d="M 425 3934 
L 425 4581 
L 988 4581 
L 988 3934 
L 425 3934 
z
M 425 0 
L 425 3319 
L 988 3319 
L 988 0 
L 425 0 
z
" transform="scale(0.015625)"/>
      <path id="ArialMT-70" d="M 422 -1272 
L 422 3319 
L 934 3319 
L 934 2888 
Q 1116 3141 1344 3267 
Q 1572 3394 1897 3394 
Q 2322 3394 2647 3175 
Q 2972 2956 3137 2557 
Q 3303 2159 3303 1684 
Q 3303 1175 3120 767 
Q 2938 359 2589 142 
Q 2241 -75 1856 -75 
Q 1575 -75 1351 44 
Q 1128 163 984 344 
L 984 -1272 
L 422 -1272 
z
M 931 1641 
Q 931 1000 1190 694 
Q 1450 388 1819 388 
Q 2194 388 2461 705 
Q 2728 1022 2728 1688 
Q 2728 2322 2467 2637 
Q 2206 2953 1844 2953 
Q 1484 2953 1207 2617 
Q 931 2281 931 1641 
z
" transform="scale(0.015625)"/>
      <path id="ArialMT-77" d="M 1034 0 
L 19 3319 
L 600 3319 
L 1128 1403 
L 1325 691 
Q 1338 744 1497 1375 
L 2025 3319 
L 2603 3319 
L 3100 1394 
L 3266 759 
L 3456 1400 
L 4025 3319 
L 4572 3319 
L 3534 0 
L 2950 0 
L 2422 1988 
L 2294 2553 
L 1622 0 
L 1034 0 
z
" transform="scale(0.015625)"/>
      <path id="ArialMT-74" d="M 1650 503 
L 1731 6 
Q 1494 -44 1306 -44 
Q 1000 -44 831 53 
Q 663 150 594 308 
Q 525 466 525 972 
L 525 2881 
L 113 2881 
L 113 3319 
L 525 3319 
L 525 4141 
L 1084 4478 
L 1084 3319 
L 1650 3319 
L 1650 2881 
L 1084 2881 
L 1084 941 
Q 1084 700 1114 631 
Q 1144 563 1211 522 
Q 1278 481 1403 481 
Q 1497 481 1650 503 
z
" transform="scale(0.015625)"/>
     </defs>
     <use xlink:href="#ArialMT-50"/>
     <use xlink:href="#ArialMT-56" x="66.699219"/>
     <use xlink:href="#ArialMT-20" x="133.398438"/>
     <use xlink:href="#ArialMT-63" x="161.181641"/>
     <use xlink:href="#ArialMT-75" x="211.181641"/>
     <use xlink:href="#ArialMT-72" x="266.796875"/>
     <use xlink:href="#ArialMT-76" x="300.097656"/>
     <use xlink:href="#ArialMT-65" x="350.097656"/>
     <use xlink:href="#ArialMT-73" x="405.712891"/>
     <use xlink:href="#ArialMT-20" x="455.712891"/>
     <use xlink:href="#ArialMT-66" x="483.496094"/>
     <use xlink:href="#ArialMT-6f" x="511.279297"/>
     <use xlink:href="#ArialMT-72" x="566.894531"/>
     <use xlink:href="#ArialMT-20" x="600.195312"/>
     <use xlink:href="#ArialMT-76" x="627.978516"/>
     <use xlink:href="#ArialMT-61" x="677.978516"/>
     <use xlink:href="#ArialMT-72" x="733.59375"/>
     <use xlink:href="#ArialMT-69" x="766.894531"/>
     <use xlink:href="#ArialMT-6f" x="789.111328"/>
     <use xlink:href="#ArialMT-75" x="844.726562"/>
     <use xlink:href="#ArialMT-73" x="900.341797"/>
     <use xlink:href="#ArialMT-20" x="950.341797"/>
     <use xlink:href="#ArialMT-70" x="978.125"/>
     <use xlink:href="#ArialMT-6f" x="1033.740234"/>
     <use xlink:href="#ArialMT-77" x="1089.355469"/>
     <use xlink:href="#ArialMT-65" x="1161.572266"/>
     <use xlink:href="#ArialMT-72" x="1217.1875"/>
     <use xlink:href="#ArialMT-20" x="1250.488281"/>
     <use xlink:href="#ArialMT-66" x="1278.271484"/>
     <use xlink:href="#ArialMT-61" x="1306.054688"/>
     <use xlink:href="#ArialMT-63" x="1361.669922"/>
     <use xlink:href="#ArialMT-74" x="1411.669922"/>
     <use xlink:href="#ArialMT-6f" x="1439.453125"/>
     <use xlink:href="#ArialMT-72" x="1495.068359"/>
     <use xlink:href="#ArialMT-73" x="1528.369141"/>
    </g>
   </g>
   <g id="legend_1">
    <g id="line2d_40">
     <path d="M 407.062813 244.353125 
L 421.062813 244.353125 
L 435.062813 244.353125 
" style="fill: none; stroke: #e24a33; stroke-width: 1.5; stroke-linecap: round"/>
    </g>
    <g id="text_20">
     <!-- pf = -0.90 -->
     <g style="fill: #262626" transform="translate(446.262812 249.253125) scale(0.14 -0.14)">
      <defs>
       <path id="ArialMT-3d" d="M 3381 2694 
L 356 2694 
L 356 3219 
L 3381 3219 
L 3381 2694 
z
M 3381 1303 
L 356 1303 
L 356 1828 
L 3381 1828 
L 3381 1303 
z
" transform="scale(0.015625)"/>
       <path id="ArialMT-2d" d="M 203 1375 
L 203 1941 
L 1931 1941 
L 1931 1375 
L 203 1375 
z
" transform="scale(0.015625)"/>
       <path id="ArialMT-39" d="M 350 1059 
L 891 1109 
Q 959 728 1153 556 
Q 1347 384 1650 384 
Q 1909 384 2104 503 
Q 2300 622 2425 820 
Q 2550 1019 2634 1356 
Q 2719 1694 2719 2044 
Q 2719 2081 2716 2156 
Q 2547 1888 2255 1720 
Q 1963 1553 1622 1553 
Q 1053 1553 659 1965 
Q 266 2378 266 3053 
Q 266 3750 677 4175 
Q 1088 4600 1706 4600 
Q 2153 4600 2523 4359 
Q 2894 4119 3086 3673 
Q 3278 3228 3278 2384 
Q 3278 1506 3087 986 
Q 2897 466 2520 194 
Q 2144 -78 1638 -78 
Q 1100 -78 759 220 
Q 419 519 350 1059 
z
M 2653 3081 
Q 2653 3566 2395 3850 
Q 2138 4134 1775 4134 
Q 1400 4134 1122 3828 
Q 844 3522 844 3034 
Q 844 2597 1108 2323 
Q 1372 2050 1759 2050 
Q 2150 2050 2401 2323 
Q 2653 2597 2653 3081 
z
" transform="scale(0.015625)"/>
      </defs>
      <use xlink:href="#ArialMT-70"/>
      <use xlink:href="#ArialMT-66" x="55.615234"/>
      <use xlink:href="#ArialMT-20" x="83.398438"/>
      <use xlink:href="#ArialMT-3d" x="111.181641"/>
      <use xlink:href="#ArialMT-20" x="169.580078"/>
      <use xlink:href="#ArialMT-2d" x="197.363281"/>
      <use xlink:href="#ArialMT-30" x="230.664062"/>
      <use xlink:href="#ArialMT-2e" x="286.279297"/>
      <use xlink:href="#ArialMT-39" x="314.0625"/>
      <use xlink:href="#ArialMT-30" x="369.677734"/>
     </g>
    </g>
    <g id="line2d_41">
     <path d="M 407.062813 264.327188 
L 421.062813 264.327188 
L 435.062813 264.327188 
" style="fill: none; stroke: #348abd; stroke-width: 1.5; stroke-linecap: round"/>
    </g>
    <g id="text_21">
     <!-- pf = -0.95 -->
     <g style="fill: #262626" transform="translate(446.262812 269.227188) scale(0.14 -0.14)">
      <use xlink:href="#ArialMT-70"/>
      <use xlink:href="#ArialMT-66" x="55.615234"/>
      <use xlink:href="#ArialMT-20" x="83.398438"/>
      <use xlink:href="#ArialMT-3d" x="111.181641"/>
      <use xlink:href="#ArialMT-20" x="169.580078"/>
      <use xlink:href="#ArialMT-2d" x="197.363281"/>
      <use xlink:href="#ArialMT-30" x="230.664062"/>
      <use xlink:href="#ArialMT-2e" x="286.279297"/>
      <use xlink:href="#ArialMT-39" x="314.0625"/>
      <use xlink:href="#ArialMT-35" x="369.677734"/>
     </g>
    </g>
    <g id="line2d_42">
     <path d="M 407.062813 284.30125 
L 421.062813 284.30125 
L 435.062813 284.30125 
" style="fill: none; stroke: #988ed5; stroke-width: 1.5; stroke-linecap: round"/>
    </g>
    <g id="text_22">
     <!-- pf = 1.00 -->
     <g style="fill: #262626" transform="translate(446.262812 289.20125) scale(0.14 -0.14)">
      <use xlink:href="#ArialMT-70"/>
      <use xlink:href="#ArialMT-66" x="55.615234"/>
      <use xlink:href="#ArialMT-20" x="83.398438"/>
      <use xlink:href="#ArialMT-3d" x="111.181641"/>
      <use xlink:href="#ArialMT-20" x="169.580078"/>
      <use xlink:href="#ArialMT-31" x="197.363281"/>
      <use xlink:href="#ArialMT-2e" x="252.978516"/>
      <use xlink:href="#ArialMT-30" x="280.761719"/>
      <use xlink:href="#ArialMT-30" x="336.376953"/>
     </g>
    </g>
    <g id="line2d_43">
     <path d="M 407.062813 304.275313 
L 421.062813 304.275313 
L 435.062813 304.275313 
" style="fill: none; stroke: #777777; stroke-width: 1.5; stroke-linecap: round"/>
    </g>
    <g id="text_23">
     <!-- pf = 0.95 -->
     <g style="fill: #262626" transform="translate(446.262812 309.175313) scale(0.14 -0.14)">
      <use xlink:href="#ArialMT-70"/>
      <use xlink:href="#ArialMT-66" x="55.615234"/>
      <use xlink:href="#ArialMT-20" x="83.398438"/>
      <use xlink:href="#ArialMT-3d" x="111.181641"/>
      <use xlink:href="#ArialMT-20" x="169.580078"/>
      <use xlink:href="#ArialMT-30" x="197.363281"/>
      <use xlink:href="#ArialMT-2e" x="252.978516"/>
      <use xlink:href="#ArialMT-39" x="280.761719"/>
      <use xlink:href="#ArialMT-35" x="336.376953"/>
     </g>
    </g>
    <g id="line2d_44">
     <path d="M 407.062813 324.249375 
L 421.062813 324.249375 
L 435.062813 324.249375 
" style="fill: none; stroke: #fbc15e; stroke-width: 1.5; stroke-linecap: round"/>
    </g>
    <g id="text_24">
     <!-- pf = 0.90 -->
     <g style="fill: #262626" transform="translate(446.262812 329.149375) scale(0.14 -0.14)">
      <use xlink:href="#ArialMT-70"/>
      <use xlink:href="#ArialMT-66" x="55.615234"/>
      <use xlink:href="#ArialMT-20" x="83.398438"/>
      <use xlink:href="#ArialMT-3d" x="111.181641"/>
      <use xlink:href="#ArialMT-20" x="169.580078"/>
      <use xlink:href="#ArialMT-30" x="197.363281"/>
      <use xlink:href="#ArialMT-2e" x="252.978516"/>
      <use xlink:href="#ArialMT-39" x="280.761719"/>
      <use xlink:href="#ArialMT-30" x="336.376953"/>
     </g>
    </g>
    <g id="line2d_45">
     <path d="M 407.062813 344.223438 
L 421.062813 344.223438 
L 435.062813 344.223438 
" style="fill: none; stroke: #8eba42; stroke-width: 1.5; stroke-linecap: round"/>
    </g>
    <g id="text_25">
     <!-- pf = 0.80 -->
     <g style="fill: #262626" transform="translate(446.262812 349.123438) scale(0.14 -0.14)">
      <use xlink:href="#ArialMT-70"/>
      <use xlink:href="#ArialMT-66" x="55.615234"/>
      <use xlink:href="#ArialMT-20" x="83.398438"/>
      <use xlink:href="#ArialMT-3d" x="111.181641"/>
      <use xlink:href="#ArialMT-20" x="169.580078"/>
      <use xlink:href="#ArialMT-30" x="197.363281"/>
      <use xlink:href="#ArialMT-2e" x="252.978516"/>
      <use xlink:href="#ArialMT-38" x="280.761719"/>
      <use xlink:href="#ArialMT-30" x="336.376953"/>
     </g>
    </g>
    <g id="line2d_46">
     <path d="M 407.062813 364.1975 
L 421.062813 364.1975 
L 435.062813 364.1975 
" style="fill: none; stroke: #ffb5b8; stroke-width: 1.5; stroke-linecap: round"/>
    </g>
    <g id="text_26">
     <!-- pf = 0.71 -->
     <g style="fill: #262626" transform="translate(446.262812 369.0975) scale(0.14 -0.14)">
      <use xlink:href="#ArialMT-70"/>
      <use xlink:href="#ArialMT-66" x="55.615234"/>
      <use xlink:href="#ArialMT-20" x="83.398438"/>
      <use xlink:href="#ArialMT-3d" x="111.181641"/>
      <use xlink:href="#ArialMT-20" x="169.580078"/>
      <use xlink:href="#ArialMT-30" x="197.363281"/>
      <use xlink:href="#ArialMT-2e" x="252.978516"/>
      <use xlink:href="#ArialMT-37" x="280.761719"/>
      <use xlink:href="#ArialMT-31" x="336.376953"/>
     </g>
    </g>
   </g>
  </g>
 </g>
 <defs>
  <clipPath id="p9b37d837bf">
   <rect x="72" y="51.84" width="446.4" height="332.64"/>
  </clipPath>
 </defs>
</svg>
