<?xml version="1.0" encoding="utf-8" standalone="no"?>
<!DOCTYPE svg PUBLIC "-//W3C//DTD SVG 1.1//EN"
  "http://www.w3.org/Graphics/SVG/1.1/DTD/svg11.dtd">
<svg xmlns:xlink="http://www.w3.org/1999/xlink" width="720pt" height="432pt" viewBox="0 0 720 432" xmlns="http://www.w3.org/2000/svg" version="1.1">
 <metadata>
  <rdf:RDF xmlns:dc="http://purl.org/dc/elements/1.1/" xmlns:cc="http://creativecommons.org/ns#" xmlns:rdf="http://www.w3.org/1999/02/22-rdf-syntax-ns#">
   <cc:Work>
    <dc:type rdf:resource="http://purl.org/dc/dcmitype/StillImage"/>
    <dc:date>2024-09-27T00:26:48.992362</dc:date>
    <dc:format>image/svg+xml</dc:format>
    <dc:creator>
     <cc:Agent>
      <dc:title>Matplotlib v3.7.2, https://matplotlib.org/</dc:title>
     </cc:Agent>
    </dc:creator>
   </cc:Work>
  </rdf:RDF>
 </metadata>
 <defs>
  <style type="text/css">*{stroke-linejoin: round; stroke-linecap: butt}</style>
 </defs>
 <g id="figure_1">
  <g id="patch_1">
   <path d="M 0 432 
L 720 432 
L 720 0 
L 0 0 
z
" style="fill: #ffffff"/>
  </g>
  <g id="axes_1">
   <g id="patch_2">
    <path d="M 112.533984 313.135464 
L 616.445969 313.135464 
L 616.445969 28.08375 
L 112.533984 28.08375 
z
" style="fill: #e5e5e5"/>
   </g>
   <g id="matplotlib.axis_1">
    <g id="xtick_1">
     <g id="line2d_1">
      <path d="M 135.439074 313.135464 
L 135.439074 28.08375 
" clip-path="url(#p7ad9331127)" style="fill: none; stroke: #ffffff; stroke-width: 0.8; stroke-linecap: square"/>
     </g>
     <g id="line2d_2">
      <defs>
       <path id="m123c08894f" d="M 0 0 
L 0 3.5 
" style="stroke: #000000; stroke-width: 0.8"/>
      </defs>
      <g>
       <use xlink:href="#m123c08894f" x="135.439074" y="313.135464" style="stroke: #000000; stroke-width: 0.8"/>
      </g>
     </g>
     <g id="text_1">
      <!-- 477 - DIT/DIST Anel Cuiabá -->
      <g transform="translate(12.228756 397.25106) rotate(-30) scale(0.1 -0.1)">
       <defs>
        <path id="DejaVuSerif-34" d="M 2234 1581 
L 2234 4063 
L 641 1581 
L 2234 1581 
z
M 3609 0 
L 1484 0 
L 1484 331 
L 2234 331 
L 2234 1247 
L 197 1247 
L 197 1588 
L 2241 4750 
L 2859 4750 
L 2859 1581 
L 3750 1581 
L 3750 1247 
L 2859 1247 
L 2859 331 
L 3609 331 
L 3609 0 
z
" transform="scale(0.015625)"/>
        <path id="DejaVuSerif-37" d="M 3609 4347 
L 1784 0 
L 1319 0 
L 3059 4153 
L 903 4153 
L 903 3578 
L 538 3578 
L 538 4666 
L 3609 4666 
L 3609 4347 
z
" transform="scale(0.015625)"/>
        <path id="DejaVuSerif-20" transform="scale(0.015625)"/>
        <path id="DejaVuSerif-2d" d="M 281 1959 
L 1881 1959 
L 1881 1472 
L 281 1472 
L 281 1959 
z
" transform="scale(0.015625)"/>
        <path id="DejaVuSerif-44" d="M 1581 331 
L 2163 331 
Q 3072 331 3558 850 
Q 4044 1369 4044 2338 
Q 4044 3306 3559 3818 
Q 3075 4331 2163 4331 
L 1581 4331 
L 1581 331 
z
M 353 0 
L 353 331 
L 947 331 
L 947 4331 
L 353 4331 
L 353 4666 
L 2209 4666 
Q 3416 4666 4089 4050 
Q 4763 3434 4763 2338 
Q 4763 1238 4088 619 
Q 3413 0 2209 0 
L 353 0 
z
" transform="scale(0.015625)"/>
        <path id="DejaVuSerif-49" d="M 1581 331 
L 2175 331 
L 2175 0 
L 353 0 
L 353 331 
L 947 331 
L 947 4331 
L 353 4331 
L 353 4666 
L 2175 4666 
L 2175 4331 
L 1581 4331 
L 1581 331 
z
" transform="scale(0.015625)"/>
        <path id="DejaVuSerif-54" d="M 1222 0 
L 1222 331 
L 1819 331 
L 1819 4294 
L 447 4294 
L 447 3566 
L 63 3566 
L 63 4666 
L 4206 4666 
L 4206 3566 
L 3822 3566 
L 3822 4294 
L 2450 4294 
L 2450 331 
L 3047 331 
L 3047 0 
L 1222 0 
z
" transform="scale(0.015625)"/>
        <path id="DejaVuSerif-2f" d="M 1656 4666 
L 2156 4666 
L 500 -594 
L 0 -594 
L 1656 4666 
z
" transform="scale(0.015625)"/>
        <path id="DejaVuSerif-53" d="M 594 225 
L 594 1288 
L 953 1284 
Q 969 753 1261 498 
Q 1553 244 2150 244 
Q 2706 244 2998 464 
Q 3291 684 3291 1106 
Q 3291 1444 3114 1625 
Q 2938 1806 2369 1978 
L 1753 2163 
Q 1084 2366 811 2669 
Q 538 2972 538 3500 
Q 538 4094 959 4422 
Q 1381 4750 2144 4750 
Q 2469 4750 2856 4679 
Q 3244 4609 3681 4475 
L 3681 3481 
L 3328 3481 
Q 3275 3975 2998 4195 
Q 2722 4416 2156 4416 
Q 1663 4416 1405 4214 
Q 1147 4013 1147 3628 
Q 1147 3294 1340 3103 
Q 1534 2913 2163 2725 
L 2741 2553 
Q 3375 2363 3645 2067 
Q 3916 1772 3916 1275 
Q 3916 597 3481 253 
Q 3047 -91 2188 -91 
Q 1803 -91 1404 -12 
Q 1006 66 594 225 
z
" transform="scale(0.015625)"/>
        <path id="DejaVuSerif-41" d="M 1281 1691 
L 2994 1691 
L 2138 3909 
L 1281 1691 
z
M -38 0 
L -38 331 
L 372 331 
L 2034 4666 
L 2559 4666 
L 4225 331 
L 4684 331 
L 4684 0 
L 2988 0 
L 2988 331 
L 3506 331 
L 3116 1356 
L 1153 1356 
L 763 331 
L 1275 331 
L 1275 0 
L -38 0 
z
" transform="scale(0.015625)"/>
        <path id="DejaVuSerif-6e" d="M 263 0 
L 263 331 
L 781 331 
L 781 2988 
L 231 2988 
L 231 3322 
L 1356 3322 
L 1356 2731 
Q 1516 3069 1770 3241 
Q 2025 3413 2363 3413 
Q 2913 3413 3172 3097 
Q 3431 2781 3431 2113 
L 3431 331 
L 3944 331 
L 3944 0 
L 2356 0 
L 2356 331 
L 2853 331 
L 2853 1931 
Q 2853 2541 2703 2767 
Q 2553 2994 2175 2994 
Q 1775 2994 1565 2701 
Q 1356 2409 1356 1850 
L 1356 331 
L 1856 331 
L 1856 0 
L 263 0 
z
" transform="scale(0.015625)"/>
        <path id="DejaVuSerif-65" d="M 3469 1600 
L 991 1600 
L 991 1575 
Q 991 903 1244 561 
Q 1497 219 1991 219 
Q 2369 219 2611 417 
Q 2853 616 2950 1006 
L 3413 1006 
Q 3275 459 2904 184 
Q 2534 -91 1931 -91 
Q 1203 -91 761 389 
Q 319 869 319 1663 
Q 319 2450 753 2931 
Q 1188 3413 1894 3413 
Q 2647 3413 3050 2948 
Q 3453 2484 3469 1600 
z
M 2791 1931 
Q 2772 2513 2545 2808 
Q 2319 3103 1894 3103 
Q 1497 3103 1269 2806 
Q 1041 2509 991 1931 
L 2791 1931 
z
" transform="scale(0.015625)"/>
        <path id="DejaVuSerif-6c" d="M 1313 331 
L 1856 331 
L 1856 0 
L 184 0 
L 184 331 
L 738 331 
L 738 4531 
L 184 4531 
L 184 4863 
L 1313 4863 
L 1313 331 
z
" transform="scale(0.015625)"/>
        <path id="DejaVuSerif-43" d="M 4513 1234 
Q 4306 581 3820 245 
Q 3334 -91 2591 -91 
Q 2134 -91 1743 65 
Q 1353 222 1050 525 
Q 700 875 529 1320 
Q 359 1766 359 2328 
Q 359 3416 987 4083 
Q 1616 4750 2644 4750 
Q 3025 4750 3456 4650 
Q 3888 4550 4384 4347 
L 4384 3272 
L 4031 3272 
Q 3916 3859 3567 4137 
Q 3219 4416 2591 4416 
Q 1844 4416 1459 3886 
Q 1075 3356 1075 2328 
Q 1075 1303 1459 773 
Q 1844 244 2591 244 
Q 3113 244 3450 492 
Q 3788 741 3938 1234 
L 4513 1234 
z
" transform="scale(0.015625)"/>
        <path id="DejaVuSerif-75" d="M 2266 3322 
L 3341 3322 
L 3341 331 
L 3884 331 
L 3884 0 
L 2766 0 
L 2766 588 
Q 2606 256 2353 82 
Q 2100 -91 1766 -91 
Q 1213 -91 952 223 
Q 691 538 691 1209 
L 691 2988 
L 172 2988 
L 172 3322 
L 1269 3322 
L 1269 1388 
Q 1269 781 1417 556 
Q 1566 331 1947 331 
Q 2347 331 2556 625 
Q 2766 919 2766 1478 
L 2766 2988 
L 2266 2988 
L 2266 3322 
z
" transform="scale(0.015625)"/>
        <path id="DejaVuSerif-69" d="M 622 4353 
Q 622 4497 726 4603 
Q 831 4709 978 4709 
Q 1122 4709 1226 4603 
Q 1331 4497 1331 4353 
Q 1331 4206 1228 4103 
Q 1125 4000 978 4000 
Q 831 4000 726 4103 
Q 622 4206 622 4353 
z
M 1356 331 
L 1900 331 
L 1900 0 
L 231 0 
L 231 331 
L 781 331 
L 781 2988 
L 231 2988 
L 231 3322 
L 1356 3322 
L 1356 331 
z
" transform="scale(0.015625)"/>
        <path id="DejaVuSerif-61" d="M 2547 1044 
L 2547 1747 
L 1806 1747 
Q 1378 1747 1168 1562 
Q 959 1378 959 997 
Q 959 650 1171 447 
Q 1384 244 1747 244 
Q 2106 244 2326 466 
Q 2547 688 2547 1044 
z
M 3122 2075 
L 3122 331 
L 3634 331 
L 3634 0 
L 2547 0 
L 2547 359 
Q 2356 128 2106 18 
Q 1856 -91 1522 -91 
Q 969 -91 644 203 
Q 319 497 319 997 
Q 319 1513 691 1797 
Q 1063 2081 1741 2081 
L 2547 2081 
L 2547 2309 
Q 2547 2688 2317 2895 
Q 2088 3103 1672 3103 
Q 1328 3103 1125 2947 
Q 922 2791 872 2484 
L 575 2484 
L 575 3156 
Q 875 3284 1158 3348 
Q 1441 3413 1709 3413 
Q 2400 3413 2761 3070 
Q 3122 2728 3122 2075 
z
" transform="scale(0.015625)"/>
        <path id="DejaVuSerif-62" d="M 738 331 
L 738 4531 
L 184 4531 
L 184 4863 
L 1313 4863 
L 1313 2803 
Q 1481 3116 1742 3264 
Q 2003 3413 2388 3413 
Q 3000 3413 3387 2928 
Q 3775 2444 3775 1663 
Q 3775 881 3387 395 
Q 3000 -91 2388 -91 
Q 2003 -91 1742 57 
Q 1481 206 1313 519 
L 1313 0 
L 184 0 
L 184 331 
L 738 331 
z
M 1313 1497 
Q 1313 897 1542 583 
Q 1772 269 2209 269 
Q 2650 269 2876 622 
Q 3103 975 3103 1663 
Q 3103 2353 2876 2703 
Q 2650 3053 2209 3053 
Q 1772 3053 1542 2737 
Q 1313 2422 1313 1825 
L 1313 1497 
z
" transform="scale(0.015625)"/>
        <path id="DejaVuSerif-e1" d="M 2547 1044 
L 2547 1747 
L 1806 1747 
Q 1378 1747 1168 1562 
Q 959 1378 959 997 
Q 959 650 1171 447 
Q 1384 244 1747 244 
Q 2106 244 2326 466 
Q 2547 688 2547 1044 
z
M 3122 2075 
L 3122 331 
L 3634 331 
L 3634 0 
L 2547 0 
L 2547 359 
Q 2356 128 2106 18 
Q 1856 -91 1522 -91 
Q 969 -91 644 203 
Q 319 497 319 997 
Q 319 1513 691 1797 
Q 1063 2081 1741 2081 
L 2547 2081 
L 2547 2309 
Q 2547 2688 2317 2895 
Q 2088 3103 1672 3103 
Q 1328 3103 1125 2947 
Q 922 2791 872 2484 
L 575 2484 
L 575 3156 
Q 875 3284 1158 3348 
Q 1441 3413 1709 3413 
Q 2400 3413 2761 3070 
Q 3122 2728 3122 2075 
z
M 2210 5119 
L 2832 5119 
L 1770 3944 
L 1404 3944 
L 2210 5119 
z
" transform="scale(0.015625)"/>
       </defs>
       <use xlink:href="#DejaVuSerif-34"/>
       <use xlink:href="#DejaVuSerif-37" x="63.623047"/>
       <use xlink:href="#DejaVuSerif-37" x="127.246094"/>
       <use xlink:href="#DejaVuSerif-20" x="190.869141"/>
       <use xlink:href="#DejaVuSerif-2d" x="222.65625"/>
       <use xlink:href="#DejaVuSerif-20" x="256.445312"/>
       <use xlink:href="#DejaVuSerif-44" x="288.232422"/>
       <use xlink:href="#DejaVuSerif-49" x="368.408203"/>
       <use xlink:href="#DejaVuSerif-54" x="407.910156"/>
       <use xlink:href="#DejaVuSerif-2f" x="474.609375"/>
       <use xlink:href="#DejaVuSerif-44" x="508.300781"/>
       <use xlink:href="#DejaVuSerif-49" x="588.476562"/>
       <use xlink:href="#DejaVuSerif-53" x="627.978516"/>
       <use xlink:href="#DejaVuSerif-54" x="696.484375"/>
       <use xlink:href="#DejaVuSerif-20" x="763.183594"/>
       <use xlink:href="#DejaVuSerif-41" x="794.970703"/>
       <use xlink:href="#DejaVuSerif-6e" x="867.1875"/>
       <use xlink:href="#DejaVuSerif-65" x="931.591797"/>
       <use xlink:href="#DejaVuSerif-6c" x="990.771484"/>
       <use xlink:href="#DejaVuSerif-20" x="1022.753906"/>
       <use xlink:href="#DejaVuSerif-43" x="1054.541016"/>
       <use xlink:href="#DejaVuSerif-75" x="1131.054688"/>
       <use xlink:href="#DejaVuSerif-69" x="1195.458984"/>
       <use xlink:href="#DejaVuSerif-61" x="1227.441406"/>
       <use xlink:href="#DejaVuSerif-62" x="1287.060547"/>
       <use xlink:href="#DejaVuSerif-e1" x="1351.074219"/>
      </g>
     </g>
    </g>
    <g id="xtick_2">
     <g id="line2d_3">
      <path d="M 186.339275 313.135464 
L 186.339275 28.08375 
" clip-path="url(#p7ad9331127)" style="fill: none; stroke: #ffffff; stroke-width: 0.8; stroke-linecap: square"/>
     </g>
     <g id="line2d_4">
      <g>
       <use xlink:href="#m123c08894f" x="186.339275" y="313.135464" style="stroke: #000000; stroke-width: 0.8"/>
      </g>
     </g>
     <g id="text_2">
      <!-- 251 - 500 kV -->
      <g transform="translate(129.553105 358.90106) rotate(-30) scale(0.1 -0.1)">
       <defs>
        <path id="DejaVuSerif-32" d="M 819 3553 
L 469 3553 
L 469 4384 
Q 803 4563 1142 4656 
Q 1481 4750 1806 4750 
Q 2534 4750 2956 4397 
Q 3378 4044 3378 3438 
Q 3378 2753 2422 1800 
Q 2347 1728 2309 1691 
L 1131 513 
L 3078 513 
L 3078 1088 
L 3444 1088 
L 3444 0 
L 434 0 
L 434 341 
L 1850 1753 
Q 2319 2222 2519 2614 
Q 2719 3006 2719 3438 
Q 2719 3909 2473 4175 
Q 2228 4441 1797 4441 
Q 1350 4441 1106 4219 
Q 863 3997 819 3553 
z
" transform="scale(0.015625)"/>
        <path id="DejaVuSerif-35" d="M 3219 4666 
L 3219 4153 
L 1081 4153 
L 1081 2816 
Q 1244 2928 1461 2984 
Q 1678 3041 1947 3041 
Q 2703 3041 3140 2622 
Q 3578 2203 3578 1478 
Q 3578 738 3136 323 
Q 2694 -91 1894 -91 
Q 1572 -91 1234 -12 
Q 897 66 544 225 
L 544 1131 
L 897 1131 
Q 925 688 1179 453 
Q 1434 219 1894 219 
Q 2388 219 2653 544 
Q 2919 869 2919 1478 
Q 2919 2084 2655 2407 
Q 2391 2731 1894 2731 
Q 1613 2731 1398 2631 
Q 1184 2531 1019 2322 
L 750 2322 
L 750 4666 
L 3219 4666 
z
" transform="scale(0.015625)"/>
        <path id="DejaVuSerif-31" d="M 909 0 
L 909 331 
L 1722 331 
L 1722 4213 
L 781 3603 
L 781 4013 
L 1919 4750 
L 2350 4750 
L 2350 331 
L 3163 331 
L 3163 0 
L 909 0 
z
" transform="scale(0.015625)"/>
        <path id="DejaVuSerif-30" d="M 2034 219 
Q 2513 219 2750 744 
Q 2988 1269 2988 2328 
Q 2988 3391 2750 3916 
Q 2513 4441 2034 4441 
Q 1556 4441 1318 3916 
Q 1081 3391 1081 2328 
Q 1081 1269 1318 744 
Q 1556 219 2034 219 
z
M 2034 -91 
Q 1275 -91 848 546 
Q 422 1184 422 2328 
Q 422 3475 848 4112 
Q 1275 4750 2034 4750 
Q 2797 4750 3222 4112 
Q 3647 3475 3647 2328 
Q 3647 1184 3222 546 
Q 2797 -91 2034 -91 
z
" transform="scale(0.015625)"/>
        <path id="DejaVuSerif-6b" d="M 1831 0 
L 219 0 
L 219 331 
L 738 331 
L 738 4531 
L 184 4531 
L 184 4863 
L 1313 4863 
L 1313 1697 
L 2713 2988 
L 2234 2988 
L 2234 3322 
L 3738 3322 
L 3738 2988 
L 3169 2988 
L 2181 2075 
L 3444 331 
L 3922 331 
L 3922 0 
L 2284 0 
L 2284 331 
L 2759 331 
L 1766 1697 
L 1313 1275 
L 1313 331 
L 1831 331 
L 1831 0 
z
" transform="scale(0.015625)"/>
        <path id="DejaVuSerif-56" d="M 1119 4331 
L 2497 750 
L 3872 4331 
L 3347 4331 
L 3347 4666 
L 4716 4666 
L 4716 4331 
L 4263 4331 
L 2597 0 
L 2059 0 
L 403 4331 
L -63 4331 
L -63 4666 
L 1638 4666 
L 1638 4331 
L 1119 4331 
z
" transform="scale(0.015625)"/>
       </defs>
       <use xlink:href="#DejaVuSerif-32"/>
       <use xlink:href="#DejaVuSerif-35" x="63.623047"/>
       <use xlink:href="#DejaVuSerif-31" x="127.246094"/>
       <use xlink:href="#DejaVuSerif-20" x="190.869141"/>
       <use xlink:href="#DejaVuSerif-2d" x="222.65625"/>
       <use xlink:href="#DejaVuSerif-20" x="256.445312"/>
       <use xlink:href="#DejaVuSerif-35" x="288.232422"/>
       <use xlink:href="#DejaVuSerif-30" x="351.855469"/>
       <use xlink:href="#DejaVuSerif-30" x="415.478516"/>
       <use xlink:href="#DejaVuSerif-20" x="479.101562"/>
       <use xlink:href="#DejaVuSerif-6b" x="510.888672"/>
       <use xlink:href="#DejaVuSerif-56" x="571.484375"/>
      </g>
     </g>
    </g>
    <g id="xtick_3">
     <g id="line2d_5">
      <path d="M 237.239475 313.135464 
L 237.239475 28.08375 
" clip-path="url(#p7ad9331127)" style="fill: none; stroke: #ffffff; stroke-width: 0.8; stroke-linecap: square"/>
     </g>
     <g id="line2d_6">
      <g>
       <use xlink:href="#m123c08894f" x="237.239475" y="313.135464" style="stroke: #000000; stroke-width: 0.8"/>
      </g>
     </g>
     <g id="text_3">
      <!-- 357 - DIT/DIST Leste -->
      <g transform="translate(143.428013 380.277623) rotate(-30) scale(0.1 -0.1)">
       <defs>
        <path id="DejaVuSerif-33" d="M 622 4469 
Q 988 4606 1323 4678 
Q 1659 4750 1953 4750 
Q 2638 4750 3022 4454 
Q 3406 4159 3406 3634 
Q 3406 3213 3140 2930 
Q 2875 2647 2388 2547 
Q 2963 2466 3280 2130 
Q 3597 1794 3597 1259 
Q 3597 606 3158 257 
Q 2719 -91 1894 -91 
Q 1528 -91 1179 -12 
Q 831 66 488 225 
L 488 1131 
L 838 1131 
Q 869 681 1141 450 
Q 1413 219 1906 219 
Q 2384 219 2661 495 
Q 2938 772 2938 1253 
Q 2938 1803 2653 2086 
Q 2369 2369 1819 2369 
L 1522 2369 
L 1522 2688 
L 1678 2688 
Q 2225 2688 2498 2914 
Q 2772 3141 2772 3597 
Q 2772 4006 2547 4223 
Q 2322 4441 1900 4441 
Q 1478 4441 1245 4241 
Q 1013 4041 972 3647 
L 622 3647 
L 622 4469 
z
" transform="scale(0.015625)"/>
        <path id="DejaVuSerif-4c" d="M 353 0 
L 353 331 
L 947 331 
L 947 4331 
L 353 4331 
L 353 4666 
L 2175 4666 
L 2175 4331 
L 1581 4331 
L 1581 384 
L 3713 384 
L 3713 1166 
L 4097 1166 
L 4097 0 
L 353 0 
z
" transform="scale(0.015625)"/>
        <path id="DejaVuSerif-73" d="M 359 184 
L 359 959 
L 691 959 
Q 703 588 923 403 
Q 1144 219 1575 219 
Q 1963 219 2166 364 
Q 2369 509 2369 788 
Q 2369 1006 2220 1140 
Q 2072 1275 1594 1428 
L 1178 1569 
Q 750 1706 558 1912 
Q 366 2119 366 2438 
Q 366 2894 700 3153 
Q 1034 3413 1625 3413 
Q 1888 3413 2178 3344 
Q 2469 3275 2778 3144 
L 2778 2419 
L 2447 2419 
Q 2434 2741 2221 2922 
Q 2009 3103 1644 3103 
Q 1281 3103 1095 2975 
Q 909 2847 909 2591 
Q 909 2381 1050 2254 
Q 1191 2128 1613 1997 
L 2069 1856 
Q 2541 1709 2748 1489 
Q 2956 1269 2956 922 
Q 2956 450 2595 179 
Q 2234 -91 1600 -91 
Q 1278 -91 972 -22 
Q 666 47 359 184 
z
" transform="scale(0.015625)"/>
        <path id="DejaVuSerif-74" d="M 691 2988 
L 184 2988 
L 184 3322 
L 691 3322 
L 691 4353 
L 1269 4353 
L 1269 3322 
L 2350 3322 
L 2350 2988 
L 1269 2988 
L 1269 878 
Q 1269 456 1350 337 
Q 1431 219 1650 219 
Q 1875 219 1978 351 
Q 2081 484 2088 781 
L 2522 781 
Q 2497 328 2275 118 
Q 2053 -91 1600 -91 
Q 1103 -91 897 129 
Q 691 350 691 878 
L 691 2988 
z
" transform="scale(0.015625)"/>
       </defs>
       <use xlink:href="#DejaVuSerif-33"/>
       <use xlink:href="#DejaVuSerif-35" x="63.623047"/>
       <use xlink:href="#DejaVuSerif-37" x="127.246094"/>
       <use xlink:href="#DejaVuSerif-20" x="190.869141"/>
       <use xlink:href="#DejaVuSerif-2d" x="222.65625"/>
       <use xlink:href="#DejaVuSerif-20" x="256.445312"/>
       <use xlink:href="#DejaVuSerif-44" x="288.232422"/>
       <use xlink:href="#DejaVuSerif-49" x="368.408203"/>
       <use xlink:href="#DejaVuSerif-54" x="407.910156"/>
       <use xlink:href="#DejaVuSerif-2f" x="474.609375"/>
       <use xlink:href="#DejaVuSerif-44" x="508.300781"/>
       <use xlink:href="#DejaVuSerif-49" x="588.476562"/>
       <use xlink:href="#DejaVuSerif-53" x="627.978516"/>
       <use xlink:href="#DejaVuSerif-54" x="696.484375"/>
       <use xlink:href="#DejaVuSerif-20" x="763.183594"/>
       <use xlink:href="#DejaVuSerif-4c" x="794.970703"/>
       <use xlink:href="#DejaVuSerif-65" x="861.376953"/>
       <use xlink:href="#DejaVuSerif-73" x="920.556641"/>
       <use xlink:href="#DejaVuSerif-74" x="971.875"/>
       <use xlink:href="#DejaVuSerif-65" x="1012.060547"/>
      </g>
     </g>
    </g>
    <g id="xtick_4">
     <g id="line2d_7">
      <path d="M 288.139676 313.135464 
L 288.139676 28.08375 
" clip-path="url(#p7ad9331127)" style="fill: none; stroke: #ffffff; stroke-width: 0.8; stroke-linecap: square"/>
     </g>
     <g id="line2d_8">
      <g>
       <use xlink:href="#m123c08894f" x="288.139676" y="313.135464" style="stroke: #000000; stroke-width: 0.8"/>
      </g>
     </g>
     <g id="text_4">
      <!-- 358 - DIT/DIST Triângulo -->
      <g transform="translate(175.651105 391.36622) rotate(-30) scale(0.1 -0.1)">
       <defs>
        <path id="DejaVuSerif-38" d="M 2981 1275 
Q 2981 1775 2732 2051 
Q 2484 2328 2034 2328 
Q 1584 2328 1336 2051 
Q 1088 1775 1088 1275 
Q 1088 772 1336 495 
Q 1584 219 2034 219 
Q 2484 219 2732 495 
Q 2981 772 2981 1275 
z
M 2853 3541 
Q 2853 3966 2637 4203 
Q 2422 4441 2034 4441 
Q 1650 4441 1433 4203 
Q 1216 3966 1216 3541 
Q 1216 3113 1433 2875 
Q 1650 2638 2034 2638 
Q 2422 2638 2637 2875 
Q 2853 3113 2853 3541 
z
M 2516 2484 
Q 3047 2413 3344 2092 
Q 3641 1772 3641 1275 
Q 3641 619 3225 264 
Q 2809 -91 2034 -91 
Q 1263 -91 845 264 
Q 428 619 428 1275 
Q 428 1772 725 2092 
Q 1022 2413 1556 2484 
Q 1084 2569 832 2842 
Q 581 3116 581 3541 
Q 581 4103 968 4426 
Q 1356 4750 2034 4750 
Q 2713 4750 3100 4426 
Q 3488 4103 3488 3541 
Q 3488 3116 3236 2842 
Q 2984 2569 2516 2484 
z
" transform="scale(0.015625)"/>
        <path id="DejaVuSerif-72" d="M 3059 3328 
L 3059 2497 
L 2728 2497 
Q 2713 2744 2591 2866 
Q 2469 2988 2234 2988 
Q 1809 2988 1582 2694 
Q 1356 2400 1356 1850 
L 1356 331 
L 2022 331 
L 2022 0 
L 263 0 
L 263 331 
L 781 331 
L 781 2994 
L 231 2994 
L 231 3322 
L 1356 3322 
L 1356 2731 
Q 1525 3078 1790 3245 
Q 2056 3413 2438 3413 
Q 2578 3413 2733 3391 
Q 2888 3369 3059 3328 
z
" transform="scale(0.015625)"/>
        <path id="DejaVuSerif-e2" d="M 2547 1044 
L 2547 1747 
L 1806 1747 
Q 1378 1747 1168 1562 
Q 959 1378 959 997 
Q 959 650 1171 447 
Q 1384 244 1747 244 
Q 2106 244 2326 466 
Q 2547 688 2547 1044 
z
M 3122 2075 
L 3122 331 
L 3634 331 
L 3634 0 
L 2547 0 
L 2547 359 
Q 2356 128 2106 18 
Q 1856 -91 1522 -91 
Q 969 -91 644 203 
Q 319 497 319 997 
Q 319 1513 691 1797 
Q 1063 2081 1741 2081 
L 2547 2081 
L 2547 2309 
Q 2547 2688 2317 2895 
Q 2088 3103 1672 3103 
Q 1328 3103 1125 2947 
Q 922 2791 872 2484 
L 575 2484 
L 575 3156 
Q 875 3284 1158 3348 
Q 1441 3413 1709 3413 
Q 2400 3413 2761 3070 
Q 3122 2728 3122 2075 
z
M 1514 5119 
L 2039 5119 
L 2773 3944 
L 2410 3944 
L 1776 4756 
L 1142 3944 
L 779 3944 
L 1514 5119 
z
" transform="scale(0.015625)"/>
        <path id="DejaVuSerif-67" d="M 3359 2988 
L 3359 72 
Q 3359 -644 2965 -1033 
Q 2572 -1422 1844 -1422 
Q 1516 -1422 1216 -1362 
Q 916 -1303 641 -1184 
L 641 -488 
L 941 -488 
Q 997 -813 1206 -963 
Q 1416 -1113 1806 -1113 
Q 2313 -1113 2548 -827 
Q 2784 -541 2784 72 
L 2784 519 
Q 2616 206 2355 57 
Q 2094 -91 1709 -91 
Q 1097 -91 708 395 
Q 319 881 319 1663 
Q 319 2444 706 2928 
Q 1094 3413 1709 3413 
Q 2094 3413 2355 3264 
Q 2616 3116 2784 2803 
L 2784 3322 
L 3909 3322 
L 3909 2988 
L 3359 2988 
z
M 2784 1825 
Q 2784 2422 2554 2737 
Q 2325 3053 1888 3053 
Q 1444 3053 1217 2703 
Q 991 2353 991 1663 
Q 991 975 1217 622 
Q 1444 269 1888 269 
Q 2325 269 2554 583 
Q 2784 897 2784 1497 
L 2784 1825 
z
" transform="scale(0.015625)"/>
        <path id="DejaVuSerif-6f" d="M 1925 219 
Q 2388 219 2623 584 
Q 2859 950 2859 1663 
Q 2859 2375 2623 2739 
Q 2388 3103 1925 3103 
Q 1463 3103 1227 2739 
Q 991 2375 991 1663 
Q 991 950 1228 584 
Q 1466 219 1925 219 
z
M 1925 -91 
Q 1200 -91 759 389 
Q 319 869 319 1663 
Q 319 2456 758 2934 
Q 1197 3413 1925 3413 
Q 2653 3413 3092 2934 
Q 3531 2456 3531 1663 
Q 3531 869 3092 389 
Q 2653 -91 1925 -91 
z
" transform="scale(0.015625)"/>
       </defs>
       <use xlink:href="#DejaVuSerif-33"/>
       <use xlink:href="#DejaVuSerif-35" x="63.623047"/>
       <use xlink:href="#DejaVuSerif-38" x="127.246094"/>
       <use xlink:href="#DejaVuSerif-20" x="190.869141"/>
       <use xlink:href="#DejaVuSerif-2d" x="222.65625"/>
       <use xlink:href="#DejaVuSerif-20" x="256.445312"/>
       <use xlink:href="#DejaVuSerif-44" x="288.232422"/>
       <use xlink:href="#DejaVuSerif-49" x="368.408203"/>
       <use xlink:href="#DejaVuSerif-54" x="407.910156"/>
       <use xlink:href="#DejaVuSerif-2f" x="474.609375"/>
       <use xlink:href="#DejaVuSerif-44" x="508.300781"/>
       <use xlink:href="#DejaVuSerif-49" x="588.476562"/>
       <use xlink:href="#DejaVuSerif-53" x="627.978516"/>
       <use xlink:href="#DejaVuSerif-54" x="696.484375"/>
       <use xlink:href="#DejaVuSerif-20" x="763.183594"/>
       <use xlink:href="#DejaVuSerif-54" x="794.970703"/>
       <use xlink:href="#DejaVuSerif-72" x="861.669922"/>
       <use xlink:href="#DejaVuSerif-69" x="909.472656"/>
       <use xlink:href="#DejaVuSerif-e2" x="941.455078"/>
       <use xlink:href="#DejaVuSerif-6e" x="1001.074219"/>
       <use xlink:href="#DejaVuSerif-67" x="1065.478516"/>
       <use xlink:href="#DejaVuSerif-75" x="1129.492188"/>
       <use xlink:href="#DejaVuSerif-6c" x="1193.896484"/>
       <use xlink:href="#DejaVuSerif-6f" x="1225.878906"/>
      </g>
     </g>
    </g>
    <g id="xtick_5">
     <g id="line2d_9">
      <path d="M 339.039876 313.135464 
L 339.039876 28.08375 
" clip-path="url(#p7ad9331127)" style="fill: none; stroke: #ffffff; stroke-width: 0.8; stroke-linecap: square"/>
     </g>
     <g id="line2d_10">
      <g>
       <use xlink:href="#m123c08894f" x="339.039876" y="313.135464" style="stroke: #000000; stroke-width: 0.8"/>
      </g>
     </g>
     <g id="text_5">
      <!-- 305 - DIT/DIST Sul -->
      <g transform="translate(254.875125 374.708091) rotate(-30) scale(0.1 -0.1)">
       <use xlink:href="#DejaVuSerif-33"/>
       <use xlink:href="#DejaVuSerif-30" x="63.623047"/>
       <use xlink:href="#DejaVuSerif-35" x="127.246094"/>
       <use xlink:href="#DejaVuSerif-20" x="190.869141"/>
       <use xlink:href="#DejaVuSerif-2d" x="222.65625"/>
       <use xlink:href="#DejaVuSerif-20" x="256.445312"/>
       <use xlink:href="#DejaVuSerif-44" x="288.232422"/>
       <use xlink:href="#DejaVuSerif-49" x="368.408203"/>
       <use xlink:href="#DejaVuSerif-54" x="407.910156"/>
       <use xlink:href="#DejaVuSerif-2f" x="474.609375"/>
       <use xlink:href="#DejaVuSerif-44" x="508.300781"/>
       <use xlink:href="#DejaVuSerif-49" x="588.476562"/>
       <use xlink:href="#DejaVuSerif-53" x="627.978516"/>
       <use xlink:href="#DejaVuSerif-54" x="696.484375"/>
       <use xlink:href="#DejaVuSerif-20" x="763.183594"/>
       <use xlink:href="#DejaVuSerif-53" x="794.970703"/>
       <use xlink:href="#DejaVuSerif-75" x="863.476562"/>
       <use xlink:href="#DejaVuSerif-6c" x="927.880859"/>
      </g>
     </g>
    </g>
    <g id="xtick_6">
     <g id="line2d_11">
      <path d="M 389.940077 313.135464 
L 389.940077 28.08375 
" clip-path="url(#p7ad9331127)" style="fill: none; stroke: #ffffff; stroke-width: 0.8; stroke-linecap: square"/>
     </g>
     <g id="line2d_12">
      <g>
       <use xlink:href="#m123c08894f" x="389.940077" y="313.135464" style="stroke: #000000; stroke-width: 0.8"/>
      </g>
     </g>
     <g id="text_6">
      <!-- 473 - DIT/DIST Sinop -->
      <g transform="translate(295.017666 380.919029) rotate(-30) scale(0.1 -0.1)">
       <defs>
        <path id="DejaVuSerif-70" d="M 1313 1825 
L 1313 1497 
Q 1313 897 1542 583 
Q 1772 269 2209 269 
Q 2650 269 2876 622 
Q 3103 975 3103 1663 
Q 3103 2353 2876 2703 
Q 2650 3053 2209 3053 
Q 1772 3053 1542 2737 
Q 1313 2422 1313 1825 
z
M 738 2988 
L 184 2988 
L 184 3322 
L 1313 3322 
L 1313 2803 
Q 1481 3116 1742 3264 
Q 2003 3413 2388 3413 
Q 3000 3413 3387 2928 
Q 3775 2444 3775 1663 
Q 3775 881 3387 395 
Q 3000 -91 2388 -91 
Q 2003 -91 1742 57 
Q 1481 206 1313 519 
L 1313 -997 
L 1856 -997 
L 1856 -1331 
L 184 -1331 
L 184 -997 
L 738 -997 
L 738 2988 
z
" transform="scale(0.015625)"/>
       </defs>
       <use xlink:href="#DejaVuSerif-34"/>
       <use xlink:href="#DejaVuSerif-37" x="63.623047"/>
       <use xlink:href="#DejaVuSerif-33" x="127.246094"/>
       <use xlink:href="#DejaVuSerif-20" x="190.869141"/>
       <use xlink:href="#DejaVuSerif-2d" x="222.65625"/>
       <use xlink:href="#DejaVuSerif-20" x="256.445312"/>
       <use xlink:href="#DejaVuSerif-44" x="288.232422"/>
       <use xlink:href="#DejaVuSerif-49" x="368.408203"/>
       <use xlink:href="#DejaVuSerif-54" x="407.910156"/>
       <use xlink:href="#DejaVuSerif-2f" x="474.609375"/>
       <use xlink:href="#DejaVuSerif-44" x="508.300781"/>
       <use xlink:href="#DejaVuSerif-49" x="588.476562"/>
       <use xlink:href="#DejaVuSerif-53" x="627.978516"/>
       <use xlink:href="#DejaVuSerif-54" x="696.484375"/>
       <use xlink:href="#DejaVuSerif-20" x="763.183594"/>
       <use xlink:href="#DejaVuSerif-53" x="794.970703"/>
       <use xlink:href="#DejaVuSerif-69" x="863.476562"/>
       <use xlink:href="#DejaVuSerif-6e" x="895.458984"/>
       <use xlink:href="#DejaVuSerif-6f" x="959.863281"/>
       <use xlink:href="#DejaVuSerif-70" x="1020.068359"/>
      </g>
     </g>
    </g>
    <g id="xtick_7">
     <g id="line2d_13">
      <path d="M 440.840277 313.135464 
L 440.840277 28.08375 
" clip-path="url(#p7ad9331127)" style="fill: none; stroke: #ffffff; stroke-width: 0.8; stroke-linecap: square"/>
     </g>
     <g id="line2d_14">
      <g>
       <use xlink:href="#m123c08894f" x="440.840277" y="313.135464" style="stroke: #000000; stroke-width: 0.8"/>
      </g>
     </g>
     <g id="text_7">
      <!-- 513 - 230 kV -->
      <g transform="translate(384.054107 358.90106) rotate(-30) scale(0.1 -0.1)">
       <use xlink:href="#DejaVuSerif-35"/>
       <use xlink:href="#DejaVuSerif-31" x="63.623047"/>
       <use xlink:href="#DejaVuSerif-33" x="127.246094"/>
       <use xlink:href="#DejaVuSerif-20" x="190.869141"/>
       <use xlink:href="#DejaVuSerif-2d" x="222.65625"/>
       <use xlink:href="#DejaVuSerif-20" x="256.445312"/>
       <use xlink:href="#DejaVuSerif-32" x="288.232422"/>
       <use xlink:href="#DejaVuSerif-33" x="351.855469"/>
       <use xlink:href="#DejaVuSerif-30" x="415.478516"/>
       <use xlink:href="#DejaVuSerif-20" x="479.101562"/>
       <use xlink:href="#DejaVuSerif-6b" x="510.888672"/>
       <use xlink:href="#DejaVuSerif-56" x="571.484375"/>
      </g>
     </g>
    </g>
    <g id="xtick_8">
     <g id="line2d_15">
      <path d="M 491.740478 313.135464 
L 491.740478 28.08375 
" clip-path="url(#p7ad9331127)" style="fill: none; stroke: #ffffff; stroke-width: 0.8; stroke-linecap: square"/>
     </g>
     <g id="line2d_16">
      <g>
       <use xlink:href="#m123c08894f" x="491.740478" y="313.135464" style="stroke: #000000; stroke-width: 0.8"/>
      </g>
     </g>
     <g id="text_8">
      <!-- 361 - DIT/DIST Padre Fialho -->
      <g transform="translate(366.189185 398.602623) rotate(-30) scale(0.1 -0.1)">
       <defs>
        <path id="DejaVuSerif-36" d="M 2094 219 
Q 2534 219 2771 542 
Q 3009 866 3009 1472 
Q 3009 2078 2771 2401 
Q 2534 2725 2094 2725 
Q 1647 2725 1412 2412 
Q 1178 2100 1178 1509 
Q 1178 888 1415 553 
Q 1653 219 2094 219 
z
M 1075 2569 
Q 1288 2803 1556 2918 
Q 1825 3034 2163 3034 
Q 2859 3034 3264 2615 
Q 3669 2197 3669 1472 
Q 3669 763 3233 336 
Q 2797 -91 2069 -91 
Q 1278 -91 853 498 
Q 428 1088 428 2181 
Q 428 3406 931 4078 
Q 1434 4750 2350 4750 
Q 2597 4750 2869 4703 
Q 3141 4656 3425 4563 
L 3425 3794 
L 3072 3794 
Q 3034 4109 2831 4275 
Q 2628 4441 2284 4441 
Q 1678 4441 1381 3981 
Q 1084 3522 1075 2569 
z
" transform="scale(0.015625)"/>
        <path id="DejaVuSerif-50" d="M 1581 2375 
L 2406 2375 
Q 2872 2375 3115 2626 
Q 3359 2878 3359 3353 
Q 3359 3831 3115 4081 
Q 2872 4331 2406 4331 
L 1581 4331 
L 1581 2375 
z
M 353 0 
L 353 331 
L 947 331 
L 947 4331 
L 353 4331 
L 353 4666 
L 2559 4666 
Q 3259 4666 3668 4311 
Q 4078 3956 4078 3353 
Q 4078 2753 3668 2397 
Q 3259 2041 2559 2041 
L 1581 2041 
L 1581 331 
L 2303 331 
L 2303 0 
L 353 0 
z
" transform="scale(0.015625)"/>
        <path id="DejaVuSerif-64" d="M 3359 331 
L 3909 331 
L 3909 0 
L 2784 0 
L 2784 519 
Q 2616 206 2355 57 
Q 2094 -91 1709 -91 
Q 1097 -91 708 395 
Q 319 881 319 1663 
Q 319 2444 706 2928 
Q 1094 3413 1709 3413 
Q 2094 3413 2355 3264 
Q 2616 3116 2784 2803 
L 2784 4531 
L 2241 4531 
L 2241 4863 
L 3359 4863 
L 3359 331 
z
M 2784 1497 
L 2784 1825 
Q 2784 2422 2554 2737 
Q 2325 3053 1888 3053 
Q 1444 3053 1217 2703 
Q 991 2353 991 1663 
Q 991 975 1217 622 
Q 1444 269 1888 269 
Q 2325 269 2554 583 
Q 2784 897 2784 1497 
z
" transform="scale(0.015625)"/>
        <path id="DejaVuSerif-46" d="M 353 0 
L 353 331 
L 947 331 
L 947 4331 
L 353 4331 
L 353 4666 
L 4172 4666 
L 4172 3628 
L 3788 3628 
L 3788 4281 
L 1581 4281 
L 1581 2719 
L 3175 2719 
L 3175 3303 
L 3559 3303 
L 3559 1753 
L 3175 1753 
L 3175 2338 
L 1581 2338 
L 1581 331 
L 2328 331 
L 2328 0 
L 353 0 
z
" transform="scale(0.015625)"/>
        <path id="DejaVuSerif-68" d="M 263 0 
L 263 331 
L 781 331 
L 781 4531 
L 231 4531 
L 231 4863 
L 1356 4863 
L 1356 2731 
Q 1516 3069 1770 3241 
Q 2025 3413 2363 3413 
Q 2913 3413 3172 3097 
Q 3431 2781 3431 2113 
L 3431 331 
L 3944 331 
L 3944 0 
L 2356 0 
L 2356 331 
L 2853 331 
L 2853 1931 
Q 2853 2541 2704 2764 
Q 2556 2988 2175 2988 
Q 1775 2988 1565 2697 
Q 1356 2406 1356 1850 
L 1356 331 
L 1856 331 
L 1856 0 
L 263 0 
z
" transform="scale(0.015625)"/>
       </defs>
       <use xlink:href="#DejaVuSerif-33"/>
       <use xlink:href="#DejaVuSerif-36" x="63.623047"/>
       <use xlink:href="#DejaVuSerif-31" x="127.246094"/>
       <use xlink:href="#DejaVuSerif-20" x="190.869141"/>
       <use xlink:href="#DejaVuSerif-2d" x="222.65625"/>
       <use xlink:href="#DejaVuSerif-20" x="256.445312"/>
       <use xlink:href="#DejaVuSerif-44" x="288.232422"/>
       <use xlink:href="#DejaVuSerif-49" x="368.408203"/>
       <use xlink:href="#DejaVuSerif-54" x="407.910156"/>
       <use xlink:href="#DejaVuSerif-2f" x="474.609375"/>
       <use xlink:href="#DejaVuSerif-44" x="508.300781"/>
       <use xlink:href="#DejaVuSerif-49" x="588.476562"/>
       <use xlink:href="#DejaVuSerif-53" x="627.978516"/>
       <use xlink:href="#DejaVuSerif-54" x="696.484375"/>
       <use xlink:href="#DejaVuSerif-20" x="763.183594"/>
       <use xlink:href="#DejaVuSerif-50" x="794.970703"/>
       <use xlink:href="#DejaVuSerif-61" x="857.755859"/>
       <use xlink:href="#DejaVuSerif-64" x="917.375"/>
       <use xlink:href="#DejaVuSerif-72" x="981.388672"/>
       <use xlink:href="#DejaVuSerif-65" x="1029.191406"/>
       <use xlink:href="#DejaVuSerif-20" x="1088.371094"/>
       <use xlink:href="#DejaVuSerif-46" x="1120.158203"/>
       <use xlink:href="#DejaVuSerif-69" x="1189.542969"/>
       <use xlink:href="#DejaVuSerif-61" x="1221.525391"/>
       <use xlink:href="#DejaVuSerif-6c" x="1281.144531"/>
       <use xlink:href="#DejaVuSerif-68" x="1313.126953"/>
       <use xlink:href="#DejaVuSerif-6f" x="1377.53125"/>
      </g>
     </g>
    </g>
    <g id="xtick_9">
     <g id="line2d_17">
      <path d="M 542.640678 313.135464 
L 542.640678 28.08375 
" clip-path="url(#p7ad9331127)" style="fill: none; stroke: #ffffff; stroke-width: 0.8; stroke-linecap: square"/>
     </g>
     <g id="line2d_18">
      <g>
       <use xlink:href="#m123c08894f" x="542.640678" y="313.135464" style="stroke: #000000; stroke-width: 0.8"/>
      </g>
     </g>
     <g id="text_9">
      <!-- 403 - DIT/DIST -->
      <g transform="translate(475.508211 364.874498) rotate(-30) scale(0.1 -0.1)">
       <use xlink:href="#DejaVuSerif-34"/>
       <use xlink:href="#DejaVuSerif-30" x="63.623047"/>
       <use xlink:href="#DejaVuSerif-33" x="127.246094"/>
       <use xlink:href="#DejaVuSerif-20" x="190.869141"/>
       <use xlink:href="#DejaVuSerif-2d" x="222.65625"/>
       <use xlink:href="#DejaVuSerif-20" x="256.445312"/>
       <use xlink:href="#DejaVuSerif-44" x="288.232422"/>
       <use xlink:href="#DejaVuSerif-49" x="368.408203"/>
       <use xlink:href="#DejaVuSerif-54" x="407.910156"/>
       <use xlink:href="#DejaVuSerif-2f" x="474.609375"/>
       <use xlink:href="#DejaVuSerif-44" x="508.300781"/>
       <use xlink:href="#DejaVuSerif-49" x="588.476562"/>
       <use xlink:href="#DejaVuSerif-53" x="627.978516"/>
       <use xlink:href="#DejaVuSerif-54" x="696.484375"/>
      </g>
     </g>
    </g>
    <g id="xtick_10">
     <g id="line2d_19">
      <path d="M 593.540879 313.135464 
L 593.540879 28.08375 
" clip-path="url(#p7ad9331127)" style="fill: none; stroke: #ffffff; stroke-width: 0.8; stroke-linecap: square"/>
     </g>
     <g id="line2d_20">
      <g>
       <use xlink:href="#m123c08894f" x="593.540879" y="313.135464" style="stroke: #000000; stroke-width: 0.8"/>
      </g>
     </g>
     <g id="text_10">
      <!-- 306 - DIT/DIST Norte -->
      <g transform="translate(498.119151 381.20731) rotate(-30) scale(0.1 -0.1)">
       <defs>
        <path id="DejaVuSerif-4e" d="M 313 0 
L 313 331 
L 941 331 
L 941 4331 
L 313 4331 
L 313 4666 
L 1509 4666 
L 4306 984 
L 4306 4331 
L 3681 4331 
L 3681 4666 
L 5319 4666 
L 5319 4331 
L 4691 4331 
L 4691 -91 
L 4313 -91 
L 1325 3841 
L 1325 331 
L 1953 331 
L 1953 0 
L 313 0 
z
" transform="scale(0.015625)"/>
       </defs>
       <use xlink:href="#DejaVuSerif-33"/>
       <use xlink:href="#DejaVuSerif-30" x="63.623047"/>
       <use xlink:href="#DejaVuSerif-36" x="127.246094"/>
       <use xlink:href="#DejaVuSerif-20" x="190.869141"/>
       <use xlink:href="#DejaVuSerif-2d" x="222.65625"/>
       <use xlink:href="#DejaVuSerif-20" x="256.445312"/>
       <use xlink:href="#DejaVuSerif-44" x="288.232422"/>
       <use xlink:href="#DejaVuSerif-49" x="368.408203"/>
       <use xlink:href="#DejaVuSerif-54" x="407.910156"/>
       <use xlink:href="#DejaVuSerif-2f" x="474.609375"/>
       <use xlink:href="#DejaVuSerif-44" x="508.300781"/>
       <use xlink:href="#DejaVuSerif-49" x="588.476562"/>
       <use xlink:href="#DejaVuSerif-53" x="627.978516"/>
       <use xlink:href="#DejaVuSerif-54" x="696.484375"/>
       <use xlink:href="#DejaVuSerif-20" x="763.183594"/>
       <use xlink:href="#DejaVuSerif-4e" x="794.970703"/>
       <use xlink:href="#DejaVuSerif-6f" x="882.470703"/>
       <use xlink:href="#DejaVuSerif-72" x="942.675781"/>
       <use xlink:href="#DejaVuSerif-74" x="990.478516"/>
       <use xlink:href="#DejaVuSerif-65" x="1030.664062"/>
      </g>
     </g>
    </g>
    <g id="text_11">
     <!-- Area de Controle -->
     <g transform="translate(290.873336 417.321029) scale(0.17 -0.17)">
      <use xlink:href="#DejaVuSerif-41"/>
      <use xlink:href="#DejaVuSerif-72" x="72.216797"/>
      <use xlink:href="#DejaVuSerif-65" x="120.019531"/>
      <use xlink:href="#DejaVuSerif-61" x="179.199219"/>
      <use xlink:href="#DejaVuSerif-20" x="238.818359"/>
      <use xlink:href="#DejaVuSerif-64" x="270.605469"/>
      <use xlink:href="#DejaVuSerif-65" x="334.619141"/>
      <use xlink:href="#DejaVuSerif-20" x="393.798828"/>
      <use xlink:href="#DejaVuSerif-43" x="425.585938"/>
      <use xlink:href="#DejaVuSerif-6f" x="502.099609"/>
      <use xlink:href="#DejaVuSerif-6e" x="562.304688"/>
      <use xlink:href="#DejaVuSerif-74" x="626.708984"/>
      <use xlink:href="#DejaVuSerif-72" x="666.894531"/>
      <use xlink:href="#DejaVuSerif-6f" x="714.697266"/>
      <use xlink:href="#DejaVuSerif-6c" x="774.902344"/>
      <use xlink:href="#DejaVuSerif-65" x="806.884766"/>
     </g>
    </g>
   </g>
   <g id="matplotlib.axis_2">
    <g id="ytick_1">
     <g id="line2d_21">
      <path d="M 112.533984 279.508157 
L 616.445969 279.508157 
" clip-path="url(#p7ad9331127)" style="fill: none; stroke: #ffffff; stroke-width: 0.8; stroke-linecap: square"/>
     </g>
     <g id="line2d_22">
      <defs>
       <path id="m1610cbfbec" d="M 0 0 
L -3.5 0 
" style="stroke: #000000; stroke-width: 0.8"/>
      </defs>
      <g>
       <use xlink:href="#m1610cbfbec" x="112.533984" y="279.508157" style="stroke: #000000; stroke-width: 0.8"/>
      </g>
     </g>
     <g id="text_12">
      <!-- 0.2 -->
      <g transform="translate(81.679297 285.206985) scale(0.15 -0.15)">
       <defs>
        <path id="DejaVuSerif-2e" d="M 603 325 
Q 603 500 722 622 
Q 841 744 1019 744 
Q 1191 744 1312 622 
Q 1434 500 1434 325 
Q 1434 153 1312 31 
Q 1191 -91 1019 -91 
Q 841 -91 722 29 
Q 603 150 603 325 
z
" transform="scale(0.015625)"/>
       </defs>
       <use xlink:href="#DejaVuSerif-30"/>
       <use xlink:href="#DejaVuSerif-2e" x="63.623047"/>
       <use xlink:href="#DejaVuSerif-32" x="95.410156"/>
      </g>
     </g>
    </g>
    <g id="ytick_2">
     <g id="line2d_23">
      <path d="M 112.533984 240.462311 
L 616.445969 240.462311 
" clip-path="url(#p7ad9331127)" style="fill: none; stroke: #ffffff; stroke-width: 0.8; stroke-linecap: square"/>
     </g>
     <g id="line2d_24">
      <g>
       <use xlink:href="#m1610cbfbec" x="112.533984" y="240.462311" style="stroke: #000000; stroke-width: 0.8"/>
      </g>
     </g>
     <g id="text_13">
      <!-- 0.4 -->
      <g transform="translate(81.679297 246.161139) scale(0.15 -0.15)">
       <use xlink:href="#DejaVuSerif-30"/>
       <use xlink:href="#DejaVuSerif-2e" x="63.623047"/>
       <use xlink:href="#DejaVuSerif-34" x="95.410156"/>
      </g>
     </g>
    </g>
    <g id="ytick_3">
     <g id="line2d_25">
      <path d="M 112.533984 201.416464 
L 616.445969 201.416464 
" clip-path="url(#p7ad9331127)" style="fill: none; stroke: #ffffff; stroke-width: 0.8; stroke-linecap: square"/>
     </g>
     <g id="line2d_26">
      <g>
       <use xlink:href="#m1610cbfbec" x="112.533984" y="201.416464" style="stroke: #000000; stroke-width: 0.8"/>
      </g>
     </g>
     <g id="text_14">
      <!-- 0.6 -->
      <g transform="translate(81.679297 207.115292) scale(0.15 -0.15)">
       <use xlink:href="#DejaVuSerif-30"/>
       <use xlink:href="#DejaVuSerif-2e" x="63.623047"/>
       <use xlink:href="#DejaVuSerif-36" x="95.410156"/>
      </g>
     </g>
    </g>
    <g id="ytick_4">
     <g id="line2d_27">
      <path d="M 112.533984 162.370618 
L 616.445969 162.370618 
" clip-path="url(#p7ad9331127)" style="fill: none; stroke: #ffffff; stroke-width: 0.8; stroke-linecap: square"/>
     </g>
     <g id="line2d_28">
      <g>
       <use xlink:href="#m1610cbfbec" x="112.533984" y="162.370618" style="stroke: #000000; stroke-width: 0.8"/>
      </g>
     </g>
     <g id="text_15">
      <!-- 0.8 -->
      <g transform="translate(81.679297 168.069446) scale(0.15 -0.15)">
       <use xlink:href="#DejaVuSerif-30"/>
       <use xlink:href="#DejaVuSerif-2e" x="63.623047"/>
       <use xlink:href="#DejaVuSerif-38" x="95.410156"/>
      </g>
     </g>
    </g>
    <g id="ytick_5">
     <g id="line2d_29">
      <path d="M 112.533984 123.324771 
L 616.445969 123.324771 
" clip-path="url(#p7ad9331127)" style="fill: none; stroke: #ffffff; stroke-width: 0.8; stroke-linecap: square"/>
     </g>
     <g id="line2d_30">
      <g>
       <use xlink:href="#m1610cbfbec" x="112.533984" y="123.324771" style="stroke: #000000; stroke-width: 0.8"/>
      </g>
     </g>
     <g id="text_16">
      <!-- 1.0 -->
      <g transform="translate(81.679297 129.023599) scale(0.15 -0.15)">
       <use xlink:href="#DejaVuSerif-31"/>
       <use xlink:href="#DejaVuSerif-2e" x="63.623047"/>
       <use xlink:href="#DejaVuSerif-30" x="95.410156"/>
      </g>
     </g>
    </g>
    <g id="ytick_6">
     <g id="line2d_31">
      <path d="M 112.533984 84.278924 
L 616.445969 84.278924 
" clip-path="url(#p7ad9331127)" style="fill: none; stroke: #ffffff; stroke-width: 0.8; stroke-linecap: square"/>
     </g>
     <g id="line2d_32">
      <g>
       <use xlink:href="#m1610cbfbec" x="112.533984" y="84.278924" style="stroke: #000000; stroke-width: 0.8"/>
      </g>
     </g>
     <g id="text_17">
      <!-- 1.2 -->
      <g transform="translate(81.679297 89.977753) scale(0.15 -0.15)">
       <use xlink:href="#DejaVuSerif-31"/>
       <use xlink:href="#DejaVuSerif-2e" x="63.623047"/>
       <use xlink:href="#DejaVuSerif-32" x="95.410156"/>
      </g>
     </g>
    </g>
    <g id="ytick_7">
     <g id="line2d_33">
      <path d="M 112.533984 45.233078 
L 616.445969 45.233078 
" clip-path="url(#p7ad9331127)" style="fill: none; stroke: #ffffff; stroke-width: 0.8; stroke-linecap: square"/>
     </g>
     <g id="line2d_34">
      <g>
       <use xlink:href="#m1610cbfbec" x="112.533984" y="45.233078" style="stroke: #000000; stroke-width: 0.8"/>
      </g>
     </g>
     <g id="text_18">
      <!-- 1.4 -->
      <g transform="translate(81.679297 50.931906) scale(0.15 -0.15)">
       <use xlink:href="#DejaVuSerif-31"/>
       <use xlink:href="#DejaVuSerif-2e" x="63.623047"/>
       <use xlink:href="#DejaVuSerif-34" x="95.410156"/>
      </g>
     </g>
    </g>
    <g id="text_19">
     <!-- (p.u) -->
     <g transform="translate(74.143828 190.859529) rotate(-90) scale(0.17 -0.17)">
      <defs>
       <path id="DejaVuSerif-28" d="M 2041 -997 
Q 1281 -656 893 83 
Q 506 822 506 1931 
Q 506 3044 893 3783 
Q 1281 4522 2041 4863 
L 2041 4556 
Q 1559 4225 1350 3623 
Q 1141 3022 1141 1931 
Q 1141 844 1350 242 
Q 1559 -359 2041 -691 
L 2041 -997 
z
" transform="scale(0.015625)"/>
       <path id="DejaVuSerif-29" d="M 453 -997 
L 453 -691 
Q 934 -359 1145 242 
Q 1356 844 1356 1931 
Q 1356 3022 1145 3623 
Q 934 4225 453 4556 
L 453 4863 
Q 1216 4522 1603 3783 
Q 1991 3044 1991 1931 
Q 1991 822 1603 83 
Q 1216 -656 453 -997 
z
" transform="scale(0.015625)"/>
      </defs>
      <use xlink:href="#DejaVuSerif-28"/>
      <use xlink:href="#DejaVuSerif-70" x="39.013672"/>
      <use xlink:href="#DejaVuSerif-2e" x="103.027344"/>
      <use xlink:href="#DejaVuSerif-75" x="134.814453"/>
      <use xlink:href="#DejaVuSerif-29" x="199.21875"/>
     </g>
    </g>
   </g>
   <g id="PolyCollection_1">
    <defs>
     <path id="m8df98f92e2" d="M 135.439074 -390.959354 
L 135.439074 -388.153236 
L 186.339275 -336.613134 
L 237.239475 -254.558745 
L 288.139676 -246.526104 
L 339.039876 -184.118176 
L 389.940077 -153.465877 
L 440.840277 -147.427198 
L 491.740478 -141.455587 
L 542.640678 -138.065689 
L 593.540879 -133.34559 
L 593.540879 -134.67021 
L 593.540879 -134.67021 
L 542.640678 -139.558679 
L 491.740478 -142.640569 
L 440.840277 -149.51562 
L 389.940077 -155.945132 
L 339.039876 -186.359044 
L 288.139676 -248.821776 
L 237.239475 -255.357411 
L 186.339275 -338.331123 
L 135.439074 -390.959354 
z
" style="stroke: #008000; stroke-opacity: 0.2; stroke-width: 0.5"/>
    </defs>
    <g clip-path="url(#p7ad9331127)">
     <use xlink:href="#m8df98f92e2" x="0" y="432" style="fill: #008000; fill-opacity: 0.2; stroke: #008000; stroke-opacity: 0.2; stroke-width: 0.5"/>
    </g>
   </g>
   <g id="PolyCollection_2">
    <defs>
     <path id="mdf2dbba597" d="M 135.439074 -208.271181 
L 135.439074 -207.333348 
L 186.339275 -132.18612 
L 237.239475 -160.044262 
L 288.139676 -199.417737 
L 339.039876 -164.11347 
L 389.940077 -152.329157 
L 440.840277 -183.8018 
L 491.740478 -175.03685 
L 542.640678 -223.48428 
L 593.540879 -131.821432 
L 593.540879 -132.736433 
L 593.540879 -132.736433 
L 542.640678 -224.428148 
L 491.740478 -176.156951 
L 440.840277 -184.796847 
L 389.940077 -152.928596 
L 339.039876 -165.140836 
L 288.139676 -200.502805 
L 237.239475 -160.889774 
L 186.339275 -132.837269 
L 135.439074 -208.271181 
z
" style="stroke: #ffa500; stroke-opacity: 0.2; stroke-width: 0.5"/>
    </defs>
    <g clip-path="url(#p7ad9331127)">
     <use xlink:href="#mdf2dbba597" x="0" y="432" style="fill: #ffa500; fill-opacity: 0.2; stroke: #ffa500; stroke-opacity: 0.2; stroke-width: 0.5"/>
    </g>
   </g>
   <g id="line2d_35">
    <path d="M 135.439074 42.443012 
L 186.339275 94.516592 
L 237.239475 177.042703 
L 288.139676 184.328108 
L 339.039876 246.806653 
L 389.940077 277.270667 
L 440.840277 283.520373 
L 491.740478 289.98264 
L 542.640678 293.167609 
L 593.540879 297.996586 
" clip-path="url(#p7ad9331127)" style="fill: none; stroke: #008000; stroke-width: 1.5; stroke-linecap: square"/>
    <defs>
     <path id="mebfa3abceb" d="M 0 3 
C 0.795609 3 1.55874 2.683901 2.12132 2.12132 
C 2.683901 1.55874 3 0.795609 3 0 
C 3 -0.795609 2.683901 -1.55874 2.12132 -2.12132 
C 1.55874 -2.683901 0.795609 -3 0 -3 
C -0.795609 -3 -1.55874 -2.683901 -2.12132 -2.12132 
C -2.683901 -1.55874 -3 -0.795609 -3 0 
C -3 0.795609 -2.683901 1.55874 -2.12132 2.12132 
C -1.55874 2.683901 -0.795609 3 0 3 
z
" style="stroke: #ffffff; stroke-width: 0.75"/>
    </defs>
    <g clip-path="url(#p7ad9331127)">
     <use xlink:href="#mebfa3abceb" x="135.439074" y="42.443012" style="fill: #008000; stroke: #ffffff; stroke-width: 0.75"/>
     <use xlink:href="#mebfa3abceb" x="186.339275" y="94.516592" style="fill: #008000; stroke: #ffffff; stroke-width: 0.75"/>
     <use xlink:href="#mebfa3abceb" x="237.239475" y="177.042703" style="fill: #008000; stroke: #ffffff; stroke-width: 0.75"/>
     <use xlink:href="#mebfa3abceb" x="288.139676" y="184.328108" style="fill: #008000; stroke: #ffffff; stroke-width: 0.75"/>
     <use xlink:href="#mebfa3abceb" x="339.039876" y="246.806653" style="fill: #008000; stroke: #ffffff; stroke-width: 0.75"/>
     <use xlink:href="#mebfa3abceb" x="389.940077" y="277.270667" style="fill: #008000; stroke: #ffffff; stroke-width: 0.75"/>
     <use xlink:href="#mebfa3abceb" x="440.840277" y="283.520373" style="fill: #008000; stroke: #ffffff; stroke-width: 0.75"/>
     <use xlink:href="#mebfa3abceb" x="491.740478" y="289.98264" style="fill: #008000; stroke: #ffffff; stroke-width: 0.75"/>
     <use xlink:href="#mebfa3abceb" x="542.640678" y="293.167609" style="fill: #008000; stroke: #ffffff; stroke-width: 0.75"/>
     <use xlink:href="#mebfa3abceb" x="593.540879" y="297.996586" style="fill: #008000; stroke: #ffffff; stroke-width: 0.75"/>
    </g>
   </g>
   <g id="line2d_36">
    <path d="M 135.439074 224.203192 
L 186.339275 299.476961 
L 237.239475 271.548654 
L 288.139676 232.042753 
L 339.039876 267.365814 
L 389.940077 279.34842 
L 440.840277 247.703293 
L 491.740478 256.422917 
L 542.640678 208.041578 
L 593.540879 299.742038 
" clip-path="url(#p7ad9331127)" style="fill: none; stroke-dasharray: 6,2.25; stroke-dashoffset: 0; stroke: #ffa500; stroke-width: 1.5"/>
    <defs>
     <path id="m8e40149177" d="M 0 -3 
L -3 3 
L 3 3 
z
" style="stroke: #ffffff; stroke-width: 0.75; stroke-linejoin: miter"/>
    </defs>
    <g clip-path="url(#p7ad9331127)">
     <use xlink:href="#m8e40149177" x="135.439074" y="224.203192" style="fill: #ffa500; stroke: #ffffff; stroke-width: 0.75; stroke-linejoin: miter"/>
     <use xlink:href="#m8e40149177" x="186.339275" y="299.476961" style="fill: #ffa500; stroke: #ffffff; stroke-width: 0.75; stroke-linejoin: miter"/>
     <use xlink:href="#m8e40149177" x="237.239475" y="271.548654" style="fill: #ffa500; stroke: #ffffff; stroke-width: 0.75; stroke-linejoin: miter"/>
     <use xlink:href="#m8e40149177" x="288.139676" y="232.042753" style="fill: #ffa500; stroke: #ffffff; stroke-width: 0.75; stroke-linejoin: miter"/>
     <use xlink:href="#m8e40149177" x="339.039876" y="267.365814" style="fill: #ffa500; stroke: #ffffff; stroke-width: 0.75; stroke-linejoin: miter"/>
     <use xlink:href="#m8e40149177" x="389.940077" y="279.34842" style="fill: #ffa500; stroke: #ffffff; stroke-width: 0.75; stroke-linejoin: miter"/>
     <use xlink:href="#m8e40149177" x="440.840277" y="247.703293" style="fill: #ffa500; stroke: #ffffff; stroke-width: 0.75; stroke-linejoin: miter"/>
     <use xlink:href="#m8e40149177" x="491.740478" y="256.422917" style="fill: #ffa500; stroke: #ffffff; stroke-width: 0.75; stroke-linejoin: miter"/>
     <use xlink:href="#m8e40149177" x="542.640678" y="208.041578" style="fill: #ffa500; stroke: #ffffff; stroke-width: 0.75; stroke-linejoin: miter"/>
     <use xlink:href="#m8e40149177" x="593.540879" y="299.742038" style="fill: #ffa500; stroke: #ffffff; stroke-width: 0.75; stroke-linejoin: miter"/>
    </g>
   </g>
   <g id="line2d_37"/>
   <g id="line2d_38"/>
   <g id="patch_3">
    <path d="M 112.533984 313.135464 
L 112.533984 28.08375 
" style="fill: none; stroke: #000000; stroke-width: 1.2; stroke-linejoin: miter; stroke-linecap: square"/>
   </g>
   <g id="patch_4">
    <path d="M 616.445969 313.135464 
L 616.445969 28.08375 
" style="fill: none; stroke: #000000; stroke-width: 1.2; stroke-linejoin: miter; stroke-linecap: square"/>
   </g>
   <g id="patch_5">
    <path d="M 112.533984 313.135464 
L 616.445969 313.135464 
" style="fill: none; stroke: #000000; stroke-width: 1.2; stroke-linejoin: miter; stroke-linecap: square"/>
   </g>
   <g id="patch_6">
    <path d="M 112.533984 28.08375 
L 616.445969 28.08375 
" style="fill: none; stroke: #000000; stroke-width: 1.2; stroke-linejoin: miter; stroke-linecap: square"/>
   </g>
   <g id="text_20">
    <!-- Highest average index for each control area (PV Buses) - SE-CW - IndiceSup_s1 -->
    <g transform="translate(60.657945 22.08375) scale(0.15 -0.15)">
     <defs>
      <path id="DejaVuSerif-48" d="M 353 0 
L 353 331 
L 947 331 
L 947 4331 
L 353 4331 
L 353 4666 
L 2175 4666 
L 2175 4331 
L 1581 4331 
L 1581 2719 
L 4000 2719 
L 4000 4331 
L 3406 4331 
L 3406 4666 
L 5228 4666 
L 5228 4331 
L 4634 4331 
L 4634 331 
L 5228 331 
L 5228 0 
L 3406 0 
L 3406 331 
L 4000 331 
L 4000 2338 
L 1581 2338 
L 1581 331 
L 2175 331 
L 2175 0 
L 353 0 
z
" transform="scale(0.015625)"/>
      <path id="DejaVuSerif-76" d="M 1581 0 
L 359 2988 
L -19 2988 
L -19 3322 
L 1509 3322 
L 1509 2988 
L 978 2988 
L 1913 703 
L 2847 2988 
L 2350 2988 
L 2350 3322 
L 3597 3322 
L 3597 2988 
L 3225 2988 
L 2003 0 
L 1581 0 
z
" transform="scale(0.015625)"/>
      <path id="DejaVuSerif-78" d="M 1863 2028 
L 2559 2988 
L 2113 2988 
L 2113 3322 
L 3391 3322 
L 3391 2988 
L 2950 2988 
L 2059 1759 
L 3097 331 
L 3531 331 
L 3531 0 
L 1997 0 
L 1997 331 
L 2419 331 
L 1697 1325 
L 972 331 
L 1403 331 
L 1403 0 
L 141 0 
L 141 331 
L 581 331 
L 1497 1594 
L 488 2988 
L 78 2988 
L 78 3322 
L 1563 3322 
L 1563 2988 
L 1166 2988 
L 1863 2028 
z
" transform="scale(0.015625)"/>
      <path id="DejaVuSerif-66" d="M 2753 4078 
L 2450 4078 
Q 2447 4313 2317 4434 
Q 2188 4556 1941 4556 
Q 1619 4556 1487 4379 
Q 1356 4203 1356 3750 
L 1356 3322 
L 2284 3322 
L 2284 2988 
L 1356 2988 
L 1356 331 
L 2094 331 
L 2094 0 
L 231 0 
L 231 331 
L 781 331 
L 781 2988 
L 231 2988 
L 231 3322 
L 781 3322 
L 781 3738 
Q 781 4294 1070 4578 
Q 1359 4863 1919 4863 
Q 2128 4863 2337 4825 
Q 2547 4788 2753 4709 
L 2753 4078 
z
" transform="scale(0.015625)"/>
      <path id="DejaVuSerif-63" d="M 3291 997 
Q 3169 466 2822 187 
Q 2475 -91 1925 -91 
Q 1200 -91 759 389 
Q 319 869 319 1663 
Q 319 2459 759 2936 
Q 1200 3413 1925 3413 
Q 2241 3413 2553 3339 
Q 2866 3266 3181 3116 
L 3181 2266 
L 2847 2266 
Q 2781 2703 2561 2903 
Q 2341 3103 1931 3103 
Q 1466 3103 1228 2742 
Q 991 2381 991 1663 
Q 991 944 1227 581 
Q 1463 219 1931 219 
Q 2303 219 2525 412 
Q 2747 606 2828 997 
L 3291 997 
z
" transform="scale(0.015625)"/>
      <path id="DejaVuSerif-42" d="M 1581 331 
L 2516 331 
Q 3078 331 3337 575 
Q 3597 819 3597 1350 
Q 3597 1878 3339 2120 
Q 3081 2363 2516 2363 
L 1581 2363 
L 1581 331 
z
M 1581 2694 
L 2375 2694 
Q 2888 2694 3123 2891 
Q 3359 3088 3359 3513 
Q 3359 3941 3123 4136 
Q 2888 4331 2375 4331 
L 1581 4331 
L 1581 2694 
z
M 353 0 
L 353 331 
L 947 331 
L 947 4331 
L 353 4331 
L 353 4666 
L 2656 4666 
Q 3363 4666 3720 4377 
Q 4078 4088 4078 3513 
Q 4078 3097 3829 2850 
Q 3581 2603 3103 2547 
Q 3697 2472 4005 2167 
Q 4313 1863 4313 1350 
Q 4313 656 3875 328 
Q 3438 0 2509 0 
L 353 0 
z
" transform="scale(0.015625)"/>
      <path id="DejaVuSerif-45" d="M 353 0 
L 353 331 
L 947 331 
L 947 4331 
L 353 4331 
L 353 4666 
L 4109 4666 
L 4109 3628 
L 3725 3628 
L 3725 4281 
L 1581 4281 
L 1581 2719 
L 3109 2719 
L 3109 3303 
L 3494 3303 
L 3494 1753 
L 3109 1753 
L 3109 2338 
L 1581 2338 
L 1581 384 
L 3775 384 
L 3775 1038 
L 4159 1038 
L 4159 0 
L 353 0 
z
" transform="scale(0.015625)"/>
      <path id="DejaVuSerif-57" d="M 4878 0 
L 4366 0 
L 3297 3794 
L 2228 0 
L 1716 0 
L 494 4331 
L 31 4331 
L 31 4666 
L 1734 4666 
L 1734 4331 
L 1153 4331 
L 2125 884 
L 3188 4666 
L 3694 4666 
L 4775 844 
L 5753 4331 
L 5216 4331 
L 5216 4666 
L 6559 4666 
L 6559 4331 
L 6100 4331 
L 4878 0 
z
" transform="scale(0.015625)"/>
      <path id="DejaVuSerif-5f" d="M 3200 -1259 
L 3200 -1509 
L 0 -1509 
L 0 -1259 
L 3200 -1259 
z
" transform="scale(0.015625)"/>
     </defs>
     <use xlink:href="#DejaVuSerif-48"/>
     <use xlink:href="#DejaVuSerif-69" x="87.207031"/>
     <use xlink:href="#DejaVuSerif-67" x="119.189453"/>
     <use xlink:href="#DejaVuSerif-68" x="183.203125"/>
     <use xlink:href="#DejaVuSerif-65" x="247.607422"/>
     <use xlink:href="#DejaVuSerif-73" x="306.787109"/>
     <use xlink:href="#DejaVuSerif-74" x="358.105469"/>
     <use xlink:href="#DejaVuSerif-20" x="398.291016"/>
     <use xlink:href="#DejaVuSerif-61" x="430.078125"/>
     <use xlink:href="#DejaVuSerif-76" x="489.697266"/>
     <use xlink:href="#DejaVuSerif-65" x="546.191406"/>
     <use xlink:href="#DejaVuSerif-72" x="605.371094"/>
     <use xlink:href="#DejaVuSerif-61" x="653.173828"/>
     <use xlink:href="#DejaVuSerif-67" x="712.792969"/>
     <use xlink:href="#DejaVuSerif-65" x="776.806641"/>
     <use xlink:href="#DejaVuSerif-20" x="835.986328"/>
     <use xlink:href="#DejaVuSerif-69" x="867.773438"/>
     <use xlink:href="#DejaVuSerif-6e" x="899.755859"/>
     <use xlink:href="#DejaVuSerif-64" x="964.160156"/>
     <use xlink:href="#DejaVuSerif-65" x="1028.173828"/>
     <use xlink:href="#DejaVuSerif-78" x="1087.353516"/>
     <use xlink:href="#DejaVuSerif-20" x="1143.75"/>
     <use xlink:href="#DejaVuSerif-66" x="1175.537109"/>
     <use xlink:href="#DejaVuSerif-6f" x="1212.548828"/>
     <use xlink:href="#DejaVuSerif-72" x="1272.753906"/>
     <use xlink:href="#DejaVuSerif-20" x="1320.556641"/>
     <use xlink:href="#DejaVuSerif-65" x="1352.34375"/>
     <use xlink:href="#DejaVuSerif-61" x="1411.523438"/>
     <use xlink:href="#DejaVuSerif-63" x="1471.142578"/>
     <use xlink:href="#DejaVuSerif-68" x="1527.148438"/>
     <use xlink:href="#DejaVuSerif-20" x="1591.552734"/>
     <use xlink:href="#DejaVuSerif-63" x="1623.339844"/>
     <use xlink:href="#DejaVuSerif-6f" x="1679.345703"/>
     <use xlink:href="#DejaVuSerif-6e" x="1739.550781"/>
     <use xlink:href="#DejaVuSerif-74" x="1803.955078"/>
     <use xlink:href="#DejaVuSerif-72" x="1844.140625"/>
     <use xlink:href="#DejaVuSerif-6f" x="1891.943359"/>
     <use xlink:href="#DejaVuSerif-6c" x="1952.148438"/>
     <use xlink:href="#DejaVuSerif-20" x="1984.130859"/>
     <use xlink:href="#DejaVuSerif-61" x="2015.917969"/>
     <use xlink:href="#DejaVuSerif-72" x="2075.537109"/>
     <use xlink:href="#DejaVuSerif-65" x="2123.339844"/>
     <use xlink:href="#DejaVuSerif-61" x="2182.519531"/>
     <use xlink:href="#DejaVuSerif-20" x="2242.138672"/>
     <use xlink:href="#DejaVuSerif-28" x="2273.925781"/>
     <use xlink:href="#DejaVuSerif-50" x="2312.939453"/>
     <use xlink:href="#DejaVuSerif-56" x="2380.224609"/>
     <use xlink:href="#DejaVuSerif-20" x="2452.441406"/>
     <use xlink:href="#DejaVuSerif-42" x="2484.228516"/>
     <use xlink:href="#DejaVuSerif-75" x="2557.714844"/>
     <use xlink:href="#DejaVuSerif-73" x="2622.119141"/>
     <use xlink:href="#DejaVuSerif-65" x="2673.4375"/>
     <use xlink:href="#DejaVuSerif-73" x="2732.617188"/>
     <use xlink:href="#DejaVuSerif-29" x="2783.935547"/>
     <use xlink:href="#DejaVuSerif-20" x="2822.949219"/>
     <use xlink:href="#DejaVuSerif-2d" x="2854.736328"/>
     <use xlink:href="#DejaVuSerif-20" x="2888.525391"/>
     <use xlink:href="#DejaVuSerif-53" x="2920.3125"/>
     <use xlink:href="#DejaVuSerif-45" x="2988.818359"/>
     <use xlink:href="#DejaVuSerif-2d" x="3063.691406"/>
     <use xlink:href="#DejaVuSerif-43" x="3097.480469"/>
     <use xlink:href="#DejaVuSerif-57" x="3173.994141"/>
     <use xlink:href="#DejaVuSerif-20" x="3276.777344"/>
     <use xlink:href="#DejaVuSerif-2d" x="3308.564453"/>
     <use xlink:href="#DejaVuSerif-20" x="3342.353516"/>
     <use xlink:href="#DejaVuSerif-49" x="3374.140625"/>
     <use xlink:href="#DejaVuSerif-6e" x="3413.642578"/>
     <use xlink:href="#DejaVuSerif-64" x="3478.046875"/>
     <use xlink:href="#DejaVuSerif-69" x="3542.060547"/>
     <use xlink:href="#DejaVuSerif-63" x="3574.042969"/>
     <use xlink:href="#DejaVuSerif-65" x="3630.048828"/>
     <use xlink:href="#DejaVuSerif-53" x="3689.228516"/>
     <use xlink:href="#DejaVuSerif-75" x="3757.734375"/>
     <use xlink:href="#DejaVuSerif-70" x="3822.138672"/>
     <use xlink:href="#DejaVuSerif-5f" x="3886.152344"/>
     <use xlink:href="#DejaVuSerif-73" x="3936.152344"/>
     <use xlink:href="#DejaVuSerif-31" x="3987.470703"/>
    </g>
   </g>
   <g id="legend_1">
    <g id="patch_7">
     <path d="M 625.545969 92.825 
L 705.885969 92.825 
Q 708.485969 92.825 708.485969 90.225 
L 708.485969 37.18375 
Q 708.485969 34.58375 705.885969 34.58375 
L 625.545969 34.58375 
Q 622.945969 34.58375 622.945969 37.18375 
L 622.945969 90.225 
Q 622.945969 92.825 625.545969 92.825 
z
" style="fill: #e5e5e5; opacity: 0.8; stroke: #cccccc; stroke-width: 0.5; stroke-linejoin: miter"/>
    </g>
    <g id="text_21">
     <!-- Indices -->
     <g transform="translate(647.395656 47.382188) scale(0.1 -0.1)">
      <use xlink:href="#DejaVuSerif-49"/>
      <use xlink:href="#DejaVuSerif-6e" x="39.501953"/>
      <use xlink:href="#DejaVuSerif-64" x="103.90625"/>
      <use xlink:href="#DejaVuSerif-69" x="167.919922"/>
      <use xlink:href="#DejaVuSerif-63" x="199.902344"/>
      <use xlink:href="#DejaVuSerif-65" x="255.908203"/>
      <use xlink:href="#DejaVuSerif-73" x="315.087891"/>
     </g>
    </g>
    <g id="line2d_39">
     <defs>
      <path id="mffa2034a38" d="M 0 5 
C 1.326016 5 2.597899 4.473168 3.535534 3.535534 
C 4.473168 2.597899 5 1.326016 5 0 
C 5 -1.326016 4.473168 -2.597899 3.535534 -3.535534 
C 2.597899 -4.473168 1.326016 -5 0 -5 
C -1.326016 -5 -2.597899 -4.473168 -3.535534 -3.535534 
C -4.473168 -2.597899 -5 -1.326016 -5 0 
C -5 1.326016 -4.473168 2.597899 -3.535534 3.535534 
C -2.597899 4.473168 -1.326016 5 0 5 
z
" style="stroke: #008000"/>
     </defs>
     <g>
      <use xlink:href="#mffa2034a38" x="641.145969" y="61.289844" style="fill: #008000; stroke: #008000"/>
     </g>
    </g>
    <g id="text_22">
     <!-- $\mathrm{VPI}^\mathrm{u}$ -->
     <g transform="translate(664.545969 65.839844) scale(0.13 -0.13)">
      <use xlink:href="#DejaVuSerif-56" transform="translate(0 0.09375)"/>
      <use xlink:href="#DejaVuSerif-50" transform="translate(72.216797 0.09375)"/>
      <use xlink:href="#DejaVuSerif-49" transform="translate(139.501953 0.09375)"/>
      <use xlink:href="#DejaVuSerif-75" transform="translate(179.912266 36.428125) scale(0.7)"/>
     </g>
    </g>
    <g id="line2d_40">
     <defs>
      <path id="md85c15e069" d="M 0 -5 
L -5 5 
L 5 5 
z
" style="stroke: #ffa500; stroke-linejoin: miter"/>
     </defs>
     <g>
      <use xlink:href="#md85c15e069" x="641.145969" y="80.371406" style="fill: #ffa500; stroke: #ffa500; stroke-linejoin: miter"/>
     </g>
    </g>
    <g id="text_23">
     <!-- $\mathrm{RPI}^\mathrm{ind}$ -->
     <g transform="translate(664.545969 84.921406) scale(0.13 -0.13)">
      <defs>
       <path id="DejaVuSerif-52" d="M 3066 2316 
Q 3284 2256 3442 2114 
Q 3600 1972 3725 1716 
L 4403 331 
L 4972 331 
L 4972 0 
L 3872 0 
L 3144 1484 
Q 2934 1916 2759 2042 
Q 2584 2169 2278 2169 
L 1581 2169 
L 1581 331 
L 2241 331 
L 2241 0 
L 353 0 
L 353 331 
L 947 331 
L 947 4331 
L 353 4331 
L 353 4666 
L 2719 4666 
Q 3400 4666 3770 4341 
Q 4141 4016 4141 3419 
Q 4141 2938 3870 2661 
Q 3600 2384 3066 2316 
z
M 1581 2503 
L 2503 2503 
Q 2975 2503 3200 2726 
Q 3425 2950 3425 3419 
Q 3425 3888 3200 4109 
Q 2975 4331 2503 4331 
L 1581 4331 
L 1581 2503 
z
" transform="scale(0.015625)"/>
      </defs>
      <use xlink:href="#DejaVuSerif-52" transform="translate(0 0.476562)"/>
      <use xlink:href="#DejaVuSerif-50" transform="translate(75.292969 0.476562)"/>
      <use xlink:href="#DejaVuSerif-49" transform="translate(142.578125 0.476562)"/>
      <use xlink:href="#DejaVuSerif-69" transform="translate(182.988438 36.810937) scale(0.7)"/>
      <use xlink:href="#DejaVuSerif-6e" transform="translate(205.376133 36.810937) scale(0.7)"/>
      <use xlink:href="#DejaVuSerif-64" transform="translate(250.459141 36.810937) scale(0.7)"/>
     </g>
    </g>
   </g>
  </g>
 </g>
 <defs>
  <clipPath id="p7ad9331127">
   <rect x="112.533984" y="28.08375" width="503.911985" height="285.051714"/>
  </clipPath>
 </defs>
</svg>
