<?xml version="1.0" encoding="utf-8" standalone="no"?>
<!DOCTYPE svg PUBLIC "-//W3C//DTD SVG 1.1//EN"
  "http://www.w3.org/Graphics/SVG/1.1/DTD/svg11.dtd">
<svg xmlns:xlink="http://www.w3.org/1999/xlink" width="1440pt" height="576pt" viewBox="0 0 1440 576" xmlns="http://www.w3.org/2000/svg" version="1.1">
 <metadata>
  <rdf:RDF xmlns:dc="http://purl.org/dc/elements/1.1/" xmlns:cc="http://creativecommons.org/ns#" xmlns:rdf="http://www.w3.org/1999/02/22-rdf-syntax-ns#">
   <cc:Work>
    <dc:type rdf:resource="http://purl.org/dc/dcmitype/StillImage"/>
    <dc:date>2024-10-07T19:34:39.798290</dc:date>
    <dc:format>image/svg+xml</dc:format>
    <dc:creator>
     <cc:Agent>
      <dc:title>Matplotlib v3.7.2, https://matplotlib.org/</dc:title>
     </cc:Agent>
    </dc:creator>
   </cc:Work>
  </rdf:RDF>
 </metadata>
 <defs>
  <style type="text/css">*{stroke-linejoin: round; stroke-linecap: butt}</style>
 </defs>
 <g id="figure_1">
  <g id="patch_1">
   <path d="M 0 576 
L 1440 576 
L 1440 0 
L 0 0 
z
" style="fill: #ffffff"/>
  </g>
  <g id="axes_1">
   <g id="patch_2">
    <path d="M 180 512.64 
L 1296 512.64 
L 1296 69.12 
L 180 69.12 
z
" style="fill: #e5e5e5"/>
   </g>
   <g id="matplotlib.axis_1">
    <g id="xtick_1">
     <g id="line2d_1">
      <path d="M 283.725916 512.64 
L 283.725916 69.12 
" clip-path="url(#p513475290b)" style="fill: none; stroke: #ffffff; stroke-width: 0.8; stroke-linecap: square"/>
     </g>
     <g id="line2d_2">
      <defs>
       <path id="m655caf0de1" d="M 0 0 
L 0 3.5 
" style="stroke: #000000; stroke-width: 0.8"/>
      </defs>
      <g>
       <use xlink:href="#m655caf0de1" x="283.725916" y="512.64" style="stroke: #000000; stroke-width: 0.8"/>
      </g>
     </g>
     <g id="text_1">
      <!-- North - 802 - 230 kV -->
      <g transform="translate(165.15731 595.869728) rotate(-30) scale(0.13 -0.13)">
       <defs>
        <path id="DejaVuSerif-4e" d="M 313 0 
L 313 331 
L 941 331 
L 941 4331 
L 313 4331 
L 313 4666 
L 1509 4666 
L 4306 984 
L 4306 4331 
L 3681 4331 
L 3681 4666 
L 5319 4666 
L 5319 4331 
L 4691 4331 
L 4691 -91 
L 4313 -91 
L 1325 3841 
L 1325 331 
L 1953 331 
L 1953 0 
L 313 0 
z
" transform="scale(0.015625)"/>
        <path id="DejaVuSerif-6f" d="M 1925 219 
Q 2388 219 2623 584 
Q 2859 950 2859 1663 
Q 2859 2375 2623 2739 
Q 2388 3103 1925 3103 
Q 1463 3103 1227 2739 
Q 991 2375 991 1663 
Q 991 950 1228 584 
Q 1466 219 1925 219 
z
M 1925 -91 
Q 1200 -91 759 389 
Q 319 869 319 1663 
Q 319 2456 758 2934 
Q 1197 3413 1925 3413 
Q 2653 3413 3092 2934 
Q 3531 2456 3531 1663 
Q 3531 869 3092 389 
Q 2653 -91 1925 -91 
z
" transform="scale(0.015625)"/>
        <path id="DejaVuSerif-72" d="M 3059 3328 
L 3059 2497 
L 2728 2497 
Q 2713 2744 2591 2866 
Q 2469 2988 2234 2988 
Q 1809 2988 1582 2694 
Q 1356 2400 1356 1850 
L 1356 331 
L 2022 331 
L 2022 0 
L 263 0 
L 263 331 
L 781 331 
L 781 2994 
L 231 2994 
L 231 3322 
L 1356 3322 
L 1356 2731 
Q 1525 3078 1790 3245 
Q 2056 3413 2438 3413 
Q 2578 3413 2733 3391 
Q 2888 3369 3059 3328 
z
" transform="scale(0.015625)"/>
        <path id="DejaVuSerif-74" d="M 691 2988 
L 184 2988 
L 184 3322 
L 691 3322 
L 691 4353 
L 1269 4353 
L 1269 3322 
L 2350 3322 
L 2350 2988 
L 1269 2988 
L 1269 878 
Q 1269 456 1350 337 
Q 1431 219 1650 219 
Q 1875 219 1978 351 
Q 2081 484 2088 781 
L 2522 781 
Q 2497 328 2275 118 
Q 2053 -91 1600 -91 
Q 1103 -91 897 129 
Q 691 350 691 878 
L 691 2988 
z
" transform="scale(0.015625)"/>
        <path id="DejaVuSerif-68" d="M 263 0 
L 263 331 
L 781 331 
L 781 4531 
L 231 4531 
L 231 4863 
L 1356 4863 
L 1356 2731 
Q 1516 3069 1770 3241 
Q 2025 3413 2363 3413 
Q 2913 3413 3172 3097 
Q 3431 2781 3431 2113 
L 3431 331 
L 3944 331 
L 3944 0 
L 2356 0 
L 2356 331 
L 2853 331 
L 2853 1931 
Q 2853 2541 2704 2764 
Q 2556 2988 2175 2988 
Q 1775 2988 1565 2697 
Q 1356 2406 1356 1850 
L 1356 331 
L 1856 331 
L 1856 0 
L 263 0 
z
" transform="scale(0.015625)"/>
        <path id="DejaVuSerif-20" transform="scale(0.015625)"/>
        <path id="DejaVuSerif-2d" d="M 281 1959 
L 1881 1959 
L 1881 1472 
L 281 1472 
L 281 1959 
z
" transform="scale(0.015625)"/>
        <path id="DejaVuSerif-38" d="M 2981 1275 
Q 2981 1775 2732 2051 
Q 2484 2328 2034 2328 
Q 1584 2328 1336 2051 
Q 1088 1775 1088 1275 
Q 1088 772 1336 495 
Q 1584 219 2034 219 
Q 2484 219 2732 495 
Q 2981 772 2981 1275 
z
M 2853 3541 
Q 2853 3966 2637 4203 
Q 2422 4441 2034 4441 
Q 1650 4441 1433 4203 
Q 1216 3966 1216 3541 
Q 1216 3113 1433 2875 
Q 1650 2638 2034 2638 
Q 2422 2638 2637 2875 
Q 2853 3113 2853 3541 
z
M 2516 2484 
Q 3047 2413 3344 2092 
Q 3641 1772 3641 1275 
Q 3641 619 3225 264 
Q 2809 -91 2034 -91 
Q 1263 -91 845 264 
Q 428 619 428 1275 
Q 428 1772 725 2092 
Q 1022 2413 1556 2484 
Q 1084 2569 832 2842 
Q 581 3116 581 3541 
Q 581 4103 968 4426 
Q 1356 4750 2034 4750 
Q 2713 4750 3100 4426 
Q 3488 4103 3488 3541 
Q 3488 3116 3236 2842 
Q 2984 2569 2516 2484 
z
" transform="scale(0.015625)"/>
        <path id="DejaVuSerif-30" d="M 2034 219 
Q 2513 219 2750 744 
Q 2988 1269 2988 2328 
Q 2988 3391 2750 3916 
Q 2513 4441 2034 4441 
Q 1556 4441 1318 3916 
Q 1081 3391 1081 2328 
Q 1081 1269 1318 744 
Q 1556 219 2034 219 
z
M 2034 -91 
Q 1275 -91 848 546 
Q 422 1184 422 2328 
Q 422 3475 848 4112 
Q 1275 4750 2034 4750 
Q 2797 4750 3222 4112 
Q 3647 3475 3647 2328 
Q 3647 1184 3222 546 
Q 2797 -91 2034 -91 
z
" transform="scale(0.015625)"/>
        <path id="DejaVuSerif-32" d="M 819 3553 
L 469 3553 
L 469 4384 
Q 803 4563 1142 4656 
Q 1481 4750 1806 4750 
Q 2534 4750 2956 4397 
Q 3378 4044 3378 3438 
Q 3378 2753 2422 1800 
Q 2347 1728 2309 1691 
L 1131 513 
L 3078 513 
L 3078 1088 
L 3444 1088 
L 3444 0 
L 434 0 
L 434 341 
L 1850 1753 
Q 2319 2222 2519 2614 
Q 2719 3006 2719 3438 
Q 2719 3909 2473 4175 
Q 2228 4441 1797 4441 
Q 1350 4441 1106 4219 
Q 863 3997 819 3553 
z
" transform="scale(0.015625)"/>
        <path id="DejaVuSerif-33" d="M 622 4469 
Q 988 4606 1323 4678 
Q 1659 4750 1953 4750 
Q 2638 4750 3022 4454 
Q 3406 4159 3406 3634 
Q 3406 3213 3140 2930 
Q 2875 2647 2388 2547 
Q 2963 2466 3280 2130 
Q 3597 1794 3597 1259 
Q 3597 606 3158 257 
Q 2719 -91 1894 -91 
Q 1528 -91 1179 -12 
Q 831 66 488 225 
L 488 1131 
L 838 1131 
Q 869 681 1141 450 
Q 1413 219 1906 219 
Q 2384 219 2661 495 
Q 2938 772 2938 1253 
Q 2938 1803 2653 2086 
Q 2369 2369 1819 2369 
L 1522 2369 
L 1522 2688 
L 1678 2688 
Q 2225 2688 2498 2914 
Q 2772 3141 2772 3597 
Q 2772 4006 2547 4223 
Q 2322 4441 1900 4441 
Q 1478 4441 1245 4241 
Q 1013 4041 972 3647 
L 622 3647 
L 622 4469 
z
" transform="scale(0.015625)"/>
        <path id="DejaVuSerif-6b" d="M 1831 0 
L 219 0 
L 219 331 
L 738 331 
L 738 4531 
L 184 4531 
L 184 4863 
L 1313 4863 
L 1313 1697 
L 2713 2988 
L 2234 2988 
L 2234 3322 
L 3738 3322 
L 3738 2988 
L 3169 2988 
L 2181 2075 
L 3444 331 
L 3922 331 
L 3922 0 
L 2284 0 
L 2284 331 
L 2759 331 
L 1766 1697 
L 1313 1275 
L 1313 331 
L 1831 331 
L 1831 0 
z
" transform="scale(0.015625)"/>
        <path id="DejaVuSerif-56" d="M 1119 4331 
L 2497 750 
L 3872 4331 
L 3347 4331 
L 3347 4666 
L 4716 4666 
L 4716 4331 
L 4263 4331 
L 2597 0 
L 2059 0 
L 403 4331 
L -63 4331 
L -63 4666 
L 1638 4666 
L 1638 4331 
L 1119 4331 
z
" transform="scale(0.015625)"/>
       </defs>
       <use xlink:href="#DejaVuSerif-4e"/>
       <use xlink:href="#DejaVuSerif-6f" x="87.5"/>
       <use xlink:href="#DejaVuSerif-72" x="147.705078"/>
       <use xlink:href="#DejaVuSerif-74" x="195.507812"/>
       <use xlink:href="#DejaVuSerif-68" x="235.693359"/>
       <use xlink:href="#DejaVuSerif-20" x="300.097656"/>
       <use xlink:href="#DejaVuSerif-2d" x="331.884766"/>
       <use xlink:href="#DejaVuSerif-20" x="365.673828"/>
       <use xlink:href="#DejaVuSerif-38" x="397.460938"/>
       <use xlink:href="#DejaVuSerif-30" x="461.083984"/>
       <use xlink:href="#DejaVuSerif-32" x="524.707031"/>
       <use xlink:href="#DejaVuSerif-20" x="588.330078"/>
       <use xlink:href="#DejaVuSerif-2d" x="620.117188"/>
       <use xlink:href="#DejaVuSerif-20" x="653.90625"/>
       <use xlink:href="#DejaVuSerif-32" x="685.693359"/>
       <use xlink:href="#DejaVuSerif-33" x="749.316406"/>
       <use xlink:href="#DejaVuSerif-30" x="812.939453"/>
       <use xlink:href="#DejaVuSerif-20" x="876.5625"/>
       <use xlink:href="#DejaVuSerif-6b" x="908.349609"/>
       <use xlink:href="#DejaVuSerif-56" x="968.945312"/>
      </g>
     </g>
    </g>
    <g id="xtick_2">
     <g id="line2d_3">
      <path d="M 435.150611 512.64 
L 435.150611 69.12 
" clip-path="url(#p513475290b)" style="fill: none; stroke: #ffffff; stroke-width: 0.8; stroke-linecap: square"/>
     </g>
     <g id="line2d_4">
      <g>
       <use xlink:href="#m655caf0de1" x="435.150611" y="512.64" style="stroke: #000000; stroke-width: 0.8"/>
      </g>
     </g>
     <g id="text_2">
      <!-- North - 863 - 230 kV Imperatriz -->
      <g transform="translate(252.478128 632.880119) rotate(-30) scale(0.13 -0.13)">
       <defs>
        <path id="DejaVuSerif-36" d="M 2094 219 
Q 2534 219 2771 542 
Q 3009 866 3009 1472 
Q 3009 2078 2771 2401 
Q 2534 2725 2094 2725 
Q 1647 2725 1412 2412 
Q 1178 2100 1178 1509 
Q 1178 888 1415 553 
Q 1653 219 2094 219 
z
M 1075 2569 
Q 1288 2803 1556 2918 
Q 1825 3034 2163 3034 
Q 2859 3034 3264 2615 
Q 3669 2197 3669 1472 
Q 3669 763 3233 336 
Q 2797 -91 2069 -91 
Q 1278 -91 853 498 
Q 428 1088 428 2181 
Q 428 3406 931 4078 
Q 1434 4750 2350 4750 
Q 2597 4750 2869 4703 
Q 3141 4656 3425 4563 
L 3425 3794 
L 3072 3794 
Q 3034 4109 2831 4275 
Q 2628 4441 2284 4441 
Q 1678 4441 1381 3981 
Q 1084 3522 1075 2569 
z
" transform="scale(0.015625)"/>
        <path id="DejaVuSerif-49" d="M 1581 331 
L 2175 331 
L 2175 0 
L 353 0 
L 353 331 
L 947 331 
L 947 4331 
L 353 4331 
L 353 4666 
L 2175 4666 
L 2175 4331 
L 1581 4331 
L 1581 331 
z
" transform="scale(0.015625)"/>
        <path id="DejaVuSerif-6d" d="M 3316 2675 
Q 3481 3041 3739 3227 
Q 3997 3413 4341 3413 
Q 4863 3413 5119 3089 
Q 5375 2766 5375 2113 
L 5375 331 
L 5894 331 
L 5894 0 
L 4300 0 
L 4300 331 
L 4800 331 
L 4800 2047 
Q 4800 2556 4650 2772 
Q 4500 2988 4153 2988 
Q 3769 2988 3567 2697 
Q 3366 2406 3366 1850 
L 3366 331 
L 3866 331 
L 3866 0 
L 2291 0 
L 2291 331 
L 2791 331 
L 2791 2069 
Q 2791 2566 2641 2777 
Q 2491 2988 2144 2988 
Q 1759 2988 1557 2697 
Q 1356 2406 1356 1850 
L 1356 331 
L 1856 331 
L 1856 0 
L 263 0 
L 263 331 
L 781 331 
L 781 2994 
L 231 2994 
L 231 3322 
L 1356 3322 
L 1356 2731 
Q 1516 3063 1762 3238 
Q 2009 3413 2322 3413 
Q 2709 3413 2968 3220 
Q 3228 3028 3316 2675 
z
" transform="scale(0.015625)"/>
        <path id="DejaVuSerif-70" d="M 1313 1825 
L 1313 1497 
Q 1313 897 1542 583 
Q 1772 269 2209 269 
Q 2650 269 2876 622 
Q 3103 975 3103 1663 
Q 3103 2353 2876 2703 
Q 2650 3053 2209 3053 
Q 1772 3053 1542 2737 
Q 1313 2422 1313 1825 
z
M 738 2988 
L 184 2988 
L 184 3322 
L 1313 3322 
L 1313 2803 
Q 1481 3116 1742 3264 
Q 2003 3413 2388 3413 
Q 3000 3413 3387 2928 
Q 3775 2444 3775 1663 
Q 3775 881 3387 395 
Q 3000 -91 2388 -91 
Q 2003 -91 1742 57 
Q 1481 206 1313 519 
L 1313 -997 
L 1856 -997 
L 1856 -1331 
L 184 -1331 
L 184 -997 
L 738 -997 
L 738 2988 
z
" transform="scale(0.015625)"/>
        <path id="DejaVuSerif-65" d="M 3469 1600 
L 991 1600 
L 991 1575 
Q 991 903 1244 561 
Q 1497 219 1991 219 
Q 2369 219 2611 417 
Q 2853 616 2950 1006 
L 3413 1006 
Q 3275 459 2904 184 
Q 2534 -91 1931 -91 
Q 1203 -91 761 389 
Q 319 869 319 1663 
Q 319 2450 753 2931 
Q 1188 3413 1894 3413 
Q 2647 3413 3050 2948 
Q 3453 2484 3469 1600 
z
M 2791 1931 
Q 2772 2513 2545 2808 
Q 2319 3103 1894 3103 
Q 1497 3103 1269 2806 
Q 1041 2509 991 1931 
L 2791 1931 
z
" transform="scale(0.015625)"/>
        <path id="DejaVuSerif-61" d="M 2547 1044 
L 2547 1747 
L 1806 1747 
Q 1378 1747 1168 1562 
Q 959 1378 959 997 
Q 959 650 1171 447 
Q 1384 244 1747 244 
Q 2106 244 2326 466 
Q 2547 688 2547 1044 
z
M 3122 2075 
L 3122 331 
L 3634 331 
L 3634 0 
L 2547 0 
L 2547 359 
Q 2356 128 2106 18 
Q 1856 -91 1522 -91 
Q 969 -91 644 203 
Q 319 497 319 997 
Q 319 1513 691 1797 
Q 1063 2081 1741 2081 
L 2547 2081 
L 2547 2309 
Q 2547 2688 2317 2895 
Q 2088 3103 1672 3103 
Q 1328 3103 1125 2947 
Q 922 2791 872 2484 
L 575 2484 
L 575 3156 
Q 875 3284 1158 3348 
Q 1441 3413 1709 3413 
Q 2400 3413 2761 3070 
Q 3122 2728 3122 2075 
z
" transform="scale(0.015625)"/>
        <path id="DejaVuSerif-69" d="M 622 4353 
Q 622 4497 726 4603 
Q 831 4709 978 4709 
Q 1122 4709 1226 4603 
Q 1331 4497 1331 4353 
Q 1331 4206 1228 4103 
Q 1125 4000 978 4000 
Q 831 4000 726 4103 
Q 622 4206 622 4353 
z
M 1356 331 
L 1900 331 
L 1900 0 
L 231 0 
L 231 331 
L 781 331 
L 781 2988 
L 231 2988 
L 231 3322 
L 1356 3322 
L 1356 331 
z
" transform="scale(0.015625)"/>
        <path id="DejaVuSerif-7a" d="M 256 0 
L 256 269 
L 2338 2988 
L 691 2988 
L 691 2413 
L 359 2413 
L 359 3322 
L 3078 3322 
L 3078 3053 
L 997 331 
L 2803 331 
L 2803 934 
L 3138 934 
L 3138 0 
L 256 0 
z
" transform="scale(0.015625)"/>
       </defs>
       <use xlink:href="#DejaVuSerif-4e"/>
       <use xlink:href="#DejaVuSerif-6f" x="87.5"/>
       <use xlink:href="#DejaVuSerif-72" x="147.705078"/>
       <use xlink:href="#DejaVuSerif-74" x="195.507812"/>
       <use xlink:href="#DejaVuSerif-68" x="235.693359"/>
       <use xlink:href="#DejaVuSerif-20" x="300.097656"/>
       <use xlink:href="#DejaVuSerif-2d" x="331.884766"/>
       <use xlink:href="#DejaVuSerif-20" x="365.673828"/>
       <use xlink:href="#DejaVuSerif-38" x="397.460938"/>
       <use xlink:href="#DejaVuSerif-36" x="461.083984"/>
       <use xlink:href="#DejaVuSerif-33" x="524.707031"/>
       <use xlink:href="#DejaVuSerif-20" x="588.330078"/>
       <use xlink:href="#DejaVuSerif-2d" x="620.117188"/>
       <use xlink:href="#DejaVuSerif-20" x="653.90625"/>
       <use xlink:href="#DejaVuSerif-32" x="685.693359"/>
       <use xlink:href="#DejaVuSerif-33" x="749.316406"/>
       <use xlink:href="#DejaVuSerif-30" x="812.939453"/>
       <use xlink:href="#DejaVuSerif-20" x="876.5625"/>
       <use xlink:href="#DejaVuSerif-6b" x="908.349609"/>
       <use xlink:href="#DejaVuSerif-56" x="968.945312"/>
       <use xlink:href="#DejaVuSerif-20" x="1041.162109"/>
       <use xlink:href="#DejaVuSerif-49" x="1072.949219"/>
       <use xlink:href="#DejaVuSerif-6d" x="1112.451172"/>
       <use xlink:href="#DejaVuSerif-70" x="1207.275391"/>
       <use xlink:href="#DejaVuSerif-65" x="1271.289062"/>
       <use xlink:href="#DejaVuSerif-72" x="1330.46875"/>
       <use xlink:href="#DejaVuSerif-61" x="1378.271484"/>
       <use xlink:href="#DejaVuSerif-74" x="1437.890625"/>
       <use xlink:href="#DejaVuSerif-72" x="1478.076172"/>
       <use xlink:href="#DejaVuSerif-69" x="1525.878906"/>
       <use xlink:href="#DejaVuSerif-7a" x="1557.861328"/>
      </g>
     </g>
    </g>
    <g id="xtick_3">
     <g id="line2d_5">
      <path d="M 586.575305 512.64 
L 586.575305 69.12 
" clip-path="url(#p513475290b)" style="fill: none; stroke: #ffffff; stroke-width: 0.8; stroke-linecap: square"/>
     </g>
     <g id="line2d_6">
      <g>
       <use xlink:href="#m655caf0de1" x="586.575305" y="512.64" style="stroke: #000000; stroke-width: 0.8"/>
      </g>
     </g>
     <g id="text_3">
      <!-- SE-CW - 202 - 500 kV -->
      <g transform="translate(461.659816 599.534103) rotate(-30) scale(0.13 -0.13)">
       <defs>
        <path id="DejaVuSerif-53" d="M 594 225 
L 594 1288 
L 953 1284 
Q 969 753 1261 498 
Q 1553 244 2150 244 
Q 2706 244 2998 464 
Q 3291 684 3291 1106 
Q 3291 1444 3114 1625 
Q 2938 1806 2369 1978 
L 1753 2163 
Q 1084 2366 811 2669 
Q 538 2972 538 3500 
Q 538 4094 959 4422 
Q 1381 4750 2144 4750 
Q 2469 4750 2856 4679 
Q 3244 4609 3681 4475 
L 3681 3481 
L 3328 3481 
Q 3275 3975 2998 4195 
Q 2722 4416 2156 4416 
Q 1663 4416 1405 4214 
Q 1147 4013 1147 3628 
Q 1147 3294 1340 3103 
Q 1534 2913 2163 2725 
L 2741 2553 
Q 3375 2363 3645 2067 
Q 3916 1772 3916 1275 
Q 3916 597 3481 253 
Q 3047 -91 2188 -91 
Q 1803 -91 1404 -12 
Q 1006 66 594 225 
z
" transform="scale(0.015625)"/>
        <path id="DejaVuSerif-45" d="M 353 0 
L 353 331 
L 947 331 
L 947 4331 
L 353 4331 
L 353 4666 
L 4109 4666 
L 4109 3628 
L 3725 3628 
L 3725 4281 
L 1581 4281 
L 1581 2719 
L 3109 2719 
L 3109 3303 
L 3494 3303 
L 3494 1753 
L 3109 1753 
L 3109 2338 
L 1581 2338 
L 1581 384 
L 3775 384 
L 3775 1038 
L 4159 1038 
L 4159 0 
L 353 0 
z
" transform="scale(0.015625)"/>
        <path id="DejaVuSerif-43" d="M 4513 1234 
Q 4306 581 3820 245 
Q 3334 -91 2591 -91 
Q 2134 -91 1743 65 
Q 1353 222 1050 525 
Q 700 875 529 1320 
Q 359 1766 359 2328 
Q 359 3416 987 4083 
Q 1616 4750 2644 4750 
Q 3025 4750 3456 4650 
Q 3888 4550 4384 4347 
L 4384 3272 
L 4031 3272 
Q 3916 3859 3567 4137 
Q 3219 4416 2591 4416 
Q 1844 4416 1459 3886 
Q 1075 3356 1075 2328 
Q 1075 1303 1459 773 
Q 1844 244 2591 244 
Q 3113 244 3450 492 
Q 3788 741 3938 1234 
L 4513 1234 
z
" transform="scale(0.015625)"/>
        <path id="DejaVuSerif-57" d="M 4878 0 
L 4366 0 
L 3297 3794 
L 2228 0 
L 1716 0 
L 494 4331 
L 31 4331 
L 31 4666 
L 1734 4666 
L 1734 4331 
L 1153 4331 
L 2125 884 
L 3188 4666 
L 3694 4666 
L 4775 844 
L 5753 4331 
L 5216 4331 
L 5216 4666 
L 6559 4666 
L 6559 4331 
L 6100 4331 
L 4878 0 
z
" transform="scale(0.015625)"/>
        <path id="DejaVuSerif-35" d="M 3219 4666 
L 3219 4153 
L 1081 4153 
L 1081 2816 
Q 1244 2928 1461 2984 
Q 1678 3041 1947 3041 
Q 2703 3041 3140 2622 
Q 3578 2203 3578 1478 
Q 3578 738 3136 323 
Q 2694 -91 1894 -91 
Q 1572 -91 1234 -12 
Q 897 66 544 225 
L 544 1131 
L 897 1131 
Q 925 688 1179 453 
Q 1434 219 1894 219 
Q 2388 219 2653 544 
Q 2919 869 2919 1478 
Q 2919 2084 2655 2407 
Q 2391 2731 1894 2731 
Q 1613 2731 1398 2631 
Q 1184 2531 1019 2322 
L 750 2322 
L 750 4666 
L 3219 4666 
z
" transform="scale(0.015625)"/>
       </defs>
       <use xlink:href="#DejaVuSerif-53"/>
       <use xlink:href="#DejaVuSerif-45" x="68.505859"/>
       <use xlink:href="#DejaVuSerif-2d" x="143.378906"/>
       <use xlink:href="#DejaVuSerif-43" x="177.167969"/>
       <use xlink:href="#DejaVuSerif-57" x="253.681641"/>
       <use xlink:href="#DejaVuSerif-20" x="356.464844"/>
       <use xlink:href="#DejaVuSerif-2d" x="388.251953"/>
       <use xlink:href="#DejaVuSerif-20" x="422.041016"/>
       <use xlink:href="#DejaVuSerif-32" x="453.828125"/>
       <use xlink:href="#DejaVuSerif-30" x="517.451172"/>
       <use xlink:href="#DejaVuSerif-32" x="581.074219"/>
       <use xlink:href="#DejaVuSerif-20" x="644.697266"/>
       <use xlink:href="#DejaVuSerif-2d" x="676.484375"/>
       <use xlink:href="#DejaVuSerif-20" x="710.273438"/>
       <use xlink:href="#DejaVuSerif-35" x="742.060547"/>
       <use xlink:href="#DejaVuSerif-30" x="805.683594"/>
       <use xlink:href="#DejaVuSerif-30" x="869.306641"/>
       <use xlink:href="#DejaVuSerif-20" x="932.929688"/>
       <use xlink:href="#DejaVuSerif-6b" x="964.716797"/>
       <use xlink:href="#DejaVuSerif-56" x="1025.3125"/>
      </g>
     </g>
    </g>
    <g id="xtick_4">
     <g id="line2d_7">
      <path d="M 738 512.64 
L 738 69.12 
" clip-path="url(#p513475290b)" style="fill: none; stroke: #ffffff; stroke-width: 0.8; stroke-linecap: square"/>
     </g>
     <g id="line2d_8">
      <g>
       <use xlink:href="#m655caf0de1" x="738" y="512.64" style="stroke: #000000; stroke-width: 0.8"/>
      </g>
     </g>
     <g id="text_4">
      <!-- SE-CW - 302 - 345 kV -->
      <g transform="translate(613.08451 599.534103) rotate(-30) scale(0.13 -0.13)">
       <defs>
        <path id="DejaVuSerif-34" d="M 2234 1581 
L 2234 4063 
L 641 1581 
L 2234 1581 
z
M 3609 0 
L 1484 0 
L 1484 331 
L 2234 331 
L 2234 1247 
L 197 1247 
L 197 1588 
L 2241 4750 
L 2859 4750 
L 2859 1581 
L 3750 1581 
L 3750 1247 
L 2859 1247 
L 2859 331 
L 3609 331 
L 3609 0 
z
" transform="scale(0.015625)"/>
       </defs>
       <use xlink:href="#DejaVuSerif-53"/>
       <use xlink:href="#DejaVuSerif-45" x="68.505859"/>
       <use xlink:href="#DejaVuSerif-2d" x="143.378906"/>
       <use xlink:href="#DejaVuSerif-43" x="177.167969"/>
       <use xlink:href="#DejaVuSerif-57" x="253.681641"/>
       <use xlink:href="#DejaVuSerif-20" x="356.464844"/>
       <use xlink:href="#DejaVuSerif-2d" x="388.251953"/>
       <use xlink:href="#DejaVuSerif-20" x="422.041016"/>
       <use xlink:href="#DejaVuSerif-33" x="453.828125"/>
       <use xlink:href="#DejaVuSerif-30" x="517.451172"/>
       <use xlink:href="#DejaVuSerif-32" x="581.074219"/>
       <use xlink:href="#DejaVuSerif-20" x="644.697266"/>
       <use xlink:href="#DejaVuSerif-2d" x="676.484375"/>
       <use xlink:href="#DejaVuSerif-20" x="710.273438"/>
       <use xlink:href="#DejaVuSerif-33" x="742.060547"/>
       <use xlink:href="#DejaVuSerif-34" x="805.683594"/>
       <use xlink:href="#DejaVuSerif-35" x="869.306641"/>
       <use xlink:href="#DejaVuSerif-20" x="932.929688"/>
       <use xlink:href="#DejaVuSerif-6b" x="964.716797"/>
       <use xlink:href="#DejaVuSerif-56" x="1025.3125"/>
      </g>
     </g>
    </g>
    <g id="xtick_5">
     <g id="line2d_9">
      <path d="M 889.424695 512.64 
L 889.424695 69.12 
" clip-path="url(#p513475290b)" style="fill: none; stroke: #ffffff; stroke-width: 0.8; stroke-linecap: square"/>
     </g>
     <g id="line2d_10">
      <g>
       <use xlink:href="#m655caf0de1" x="889.424695" y="512.64" style="stroke: #000000; stroke-width: 0.8"/>
      </g>
     </g>
     <g id="text_5">
      <!-- North - 841 - 500 kV -->
      <g transform="translate(770.856089 595.869728) rotate(-30) scale(0.13 -0.13)">
       <defs>
        <path id="DejaVuSerif-31" d="M 909 0 
L 909 331 
L 1722 331 
L 1722 4213 
L 781 3603 
L 781 4013 
L 1919 4750 
L 2350 4750 
L 2350 331 
L 3163 331 
L 3163 0 
L 909 0 
z
" transform="scale(0.015625)"/>
       </defs>
       <use xlink:href="#DejaVuSerif-4e"/>
       <use xlink:href="#DejaVuSerif-6f" x="87.5"/>
       <use xlink:href="#DejaVuSerif-72" x="147.705078"/>
       <use xlink:href="#DejaVuSerif-74" x="195.507812"/>
       <use xlink:href="#DejaVuSerif-68" x="235.693359"/>
       <use xlink:href="#DejaVuSerif-20" x="300.097656"/>
       <use xlink:href="#DejaVuSerif-2d" x="331.884766"/>
       <use xlink:href="#DejaVuSerif-20" x="365.673828"/>
       <use xlink:href="#DejaVuSerif-38" x="397.460938"/>
       <use xlink:href="#DejaVuSerif-34" x="461.083984"/>
       <use xlink:href="#DejaVuSerif-31" x="524.707031"/>
       <use xlink:href="#DejaVuSerif-20" x="588.330078"/>
       <use xlink:href="#DejaVuSerif-2d" x="620.117188"/>
       <use xlink:href="#DejaVuSerif-20" x="653.90625"/>
       <use xlink:href="#DejaVuSerif-35" x="685.693359"/>
       <use xlink:href="#DejaVuSerif-30" x="749.316406"/>
       <use xlink:href="#DejaVuSerif-30" x="812.939453"/>
       <use xlink:href="#DejaVuSerif-20" x="876.5625"/>
       <use xlink:href="#DejaVuSerif-6b" x="908.349609"/>
       <use xlink:href="#DejaVuSerif-56" x="968.945312"/>
      </g>
     </g>
    </g>
    <g id="xtick_6">
     <g id="line2d_11">
      <path d="M 1040.849389 512.64 
L 1040.849389 69.12 
" clip-path="url(#p513475290b)" style="fill: none; stroke: #ffffff; stroke-width: 0.8; stroke-linecap: square"/>
     </g>
     <g id="line2d_12">
      <g>
       <use xlink:href="#m655caf0de1" x="1040.849389" y="512.64" style="stroke: #000000; stroke-width: 0.8"/>
      </g>
     </g>
     <g id="text_6">
      <!-- North - 862 - 230 kV Centro/Norte -->
      <g transform="translate(842.499682 641.931369) rotate(-30) scale(0.13 -0.13)">
       <defs>
        <path id="DejaVuSerif-6e" d="M 263 0 
L 263 331 
L 781 331 
L 781 2988 
L 231 2988 
L 231 3322 
L 1356 3322 
L 1356 2731 
Q 1516 3069 1770 3241 
Q 2025 3413 2363 3413 
Q 2913 3413 3172 3097 
Q 3431 2781 3431 2113 
L 3431 331 
L 3944 331 
L 3944 0 
L 2356 0 
L 2356 331 
L 2853 331 
L 2853 1931 
Q 2853 2541 2703 2767 
Q 2553 2994 2175 2994 
Q 1775 2994 1565 2701 
Q 1356 2409 1356 1850 
L 1356 331 
L 1856 331 
L 1856 0 
L 263 0 
z
" transform="scale(0.015625)"/>
        <path id="DejaVuSerif-2f" d="M 1656 4666 
L 2156 4666 
L 500 -594 
L 0 -594 
L 1656 4666 
z
" transform="scale(0.015625)"/>
       </defs>
       <use xlink:href="#DejaVuSerif-4e"/>
       <use xlink:href="#DejaVuSerif-6f" x="87.5"/>
       <use xlink:href="#DejaVuSerif-72" x="147.705078"/>
       <use xlink:href="#DejaVuSerif-74" x="195.507812"/>
       <use xlink:href="#DejaVuSerif-68" x="235.693359"/>
       <use xlink:href="#DejaVuSerif-20" x="300.097656"/>
       <use xlink:href="#DejaVuSerif-2d" x="331.884766"/>
       <use xlink:href="#DejaVuSerif-20" x="365.673828"/>
       <use xlink:href="#DejaVuSerif-38" x="397.460938"/>
       <use xlink:href="#DejaVuSerif-36" x="461.083984"/>
       <use xlink:href="#DejaVuSerif-32" x="524.707031"/>
       <use xlink:href="#DejaVuSerif-20" x="588.330078"/>
       <use xlink:href="#DejaVuSerif-2d" x="620.117188"/>
       <use xlink:href="#DejaVuSerif-20" x="653.90625"/>
       <use xlink:href="#DejaVuSerif-32" x="685.693359"/>
       <use xlink:href="#DejaVuSerif-33" x="749.316406"/>
       <use xlink:href="#DejaVuSerif-30" x="812.939453"/>
       <use xlink:href="#DejaVuSerif-20" x="876.5625"/>
       <use xlink:href="#DejaVuSerif-6b" x="908.349609"/>
       <use xlink:href="#DejaVuSerif-56" x="968.945312"/>
       <use xlink:href="#DejaVuSerif-20" x="1041.162109"/>
       <use xlink:href="#DejaVuSerif-43" x="1072.949219"/>
       <use xlink:href="#DejaVuSerif-65" x="1149.462891"/>
       <use xlink:href="#DejaVuSerif-6e" x="1208.642578"/>
       <use xlink:href="#DejaVuSerif-74" x="1273.046875"/>
       <use xlink:href="#DejaVuSerif-72" x="1313.232422"/>
       <use xlink:href="#DejaVuSerif-6f" x="1361.035156"/>
       <use xlink:href="#DejaVuSerif-2f" x="1421.240234"/>
       <use xlink:href="#DejaVuSerif-4e" x="1454.931641"/>
       <use xlink:href="#DejaVuSerif-6f" x="1542.431641"/>
       <use xlink:href="#DejaVuSerif-72" x="1602.636719"/>
       <use xlink:href="#DejaVuSerif-74" x="1650.439453"/>
       <use xlink:href="#DejaVuSerif-65" x="1690.625"/>
      </g>
     </g>
    </g>
    <g id="xtick_7">
     <g id="line2d_13">
      <path d="M 1192.274084 512.64 
L 1192.274084 69.12 
" clip-path="url(#p513475290b)" style="fill: none; stroke: #ffffff; stroke-width: 0.8; stroke-linecap: square"/>
     </g>
     <g id="line2d_14">
      <g>
       <use xlink:href="#m655caf0de1" x="1192.274084" y="512.64" style="stroke: #000000; stroke-width: 0.8"/>
      </g>
     </g>
     <g id="text_7">
      <!-- SE-CW - 511 - 500 kV -->
      <g transform="translate(1067.358595 599.534103) rotate(-30) scale(0.13 -0.13)">
       <use xlink:href="#DejaVuSerif-53"/>
       <use xlink:href="#DejaVuSerif-45" x="68.505859"/>
       <use xlink:href="#DejaVuSerif-2d" x="143.378906"/>
       <use xlink:href="#DejaVuSerif-43" x="177.167969"/>
       <use xlink:href="#DejaVuSerif-57" x="253.681641"/>
       <use xlink:href="#DejaVuSerif-20" x="356.464844"/>
       <use xlink:href="#DejaVuSerif-2d" x="388.251953"/>
       <use xlink:href="#DejaVuSerif-20" x="422.041016"/>
       <use xlink:href="#DejaVuSerif-35" x="453.828125"/>
       <use xlink:href="#DejaVuSerif-31" x="517.451172"/>
       <use xlink:href="#DejaVuSerif-31" x="581.074219"/>
       <use xlink:href="#DejaVuSerif-20" x="644.697266"/>
       <use xlink:href="#DejaVuSerif-2d" x="676.484375"/>
       <use xlink:href="#DejaVuSerif-20" x="710.273438"/>
       <use xlink:href="#DejaVuSerif-35" x="742.060547"/>
       <use xlink:href="#DejaVuSerif-30" x="805.683594"/>
       <use xlink:href="#DejaVuSerif-30" x="869.306641"/>
       <use xlink:href="#DejaVuSerif-20" x="932.929688"/>
       <use xlink:href="#DejaVuSerif-6b" x="964.716797"/>
       <use xlink:href="#DejaVuSerif-56" x="1025.3125"/>
      </g>
     </g>
    </g>
    <g id="text_8">
     <!-- Control Area -->
     <g transform="translate(682.587969 661.190093) scale(0.17 -0.17)">
      <defs>
       <path id="DejaVuSerif-6c" d="M 1313 331 
L 1856 331 
L 1856 0 
L 184 0 
L 184 331 
L 738 331 
L 738 4531 
L 184 4531 
L 184 4863 
L 1313 4863 
L 1313 331 
z
" transform="scale(0.015625)"/>
       <path id="DejaVuSerif-41" d="M 1281 1691 
L 2994 1691 
L 2138 3909 
L 1281 1691 
z
M -38 0 
L -38 331 
L 372 331 
L 2034 4666 
L 2559 4666 
L 4225 331 
L 4684 331 
L 4684 0 
L 2988 0 
L 2988 331 
L 3506 331 
L 3116 1356 
L 1153 1356 
L 763 331 
L 1275 331 
L 1275 0 
L -38 0 
z
" transform="scale(0.015625)"/>
      </defs>
      <use xlink:href="#DejaVuSerif-43"/>
      <use xlink:href="#DejaVuSerif-6f" x="76.513672"/>
      <use xlink:href="#DejaVuSerif-6e" x="136.71875"/>
      <use xlink:href="#DejaVuSerif-74" x="201.123047"/>
      <use xlink:href="#DejaVuSerif-72" x="241.308594"/>
      <use xlink:href="#DejaVuSerif-6f" x="289.111328"/>
      <use xlink:href="#DejaVuSerif-6c" x="349.316406"/>
      <use xlink:href="#DejaVuSerif-20" x="381.298828"/>
      <use xlink:href="#DejaVuSerif-41" x="413.085938"/>
      <use xlink:href="#DejaVuSerif-72" x="485.302734"/>
      <use xlink:href="#DejaVuSerif-65" x="533.105469"/>
      <use xlink:href="#DejaVuSerif-61" x="592.285156"/>
     </g>
    </g>
   </g>
   <g id="matplotlib.axis_2">
    <g id="ytick_1">
     <g id="line2d_15">
      <path d="M 180 503.943529 
L 1296 503.943529 
" clip-path="url(#p513475290b)" style="fill: none; stroke: #ffffff; stroke-width: 0.8; stroke-linecap: square"/>
     </g>
     <g id="line2d_16">
      <defs>
       <path id="mfb68c5e6c6" d="M 0 0 
L -3.5 0 
" style="stroke: #000000; stroke-width: 0.8"/>
      </defs>
      <g>
       <use xlink:href="#mfb68c5e6c6" x="180" y="503.943529" style="stroke: #000000; stroke-width: 0.8"/>
      </g>
     </g>
     <g id="text_9">
      <!-- 0.0 -->
      <g transform="translate(144.374375 510.782123) scale(0.18 -0.18)">
       <defs>
        <path id="DejaVuSerif-2e" d="M 603 325 
Q 603 500 722 622 
Q 841 744 1019 744 
Q 1191 744 1312 622 
Q 1434 500 1434 325 
Q 1434 153 1312 31 
Q 1191 -91 1019 -91 
Q 841 -91 722 29 
Q 603 150 603 325 
z
" transform="scale(0.015625)"/>
       </defs>
       <use xlink:href="#DejaVuSerif-30"/>
       <use xlink:href="#DejaVuSerif-2e" x="63.623047"/>
       <use xlink:href="#DejaVuSerif-30" x="95.410156"/>
      </g>
     </g>
    </g>
    <g id="ytick_2">
     <g id="line2d_17">
      <path d="M 180 416.978824 
L 1296 416.978824 
" clip-path="url(#p513475290b)" style="fill: none; stroke: #ffffff; stroke-width: 0.8; stroke-linecap: square"/>
     </g>
     <g id="line2d_18">
      <g>
       <use xlink:href="#mfb68c5e6c6" x="180" y="416.978824" style="stroke: #000000; stroke-width: 0.8"/>
      </g>
     </g>
     <g id="text_10">
      <!-- 0.5 -->
      <g transform="translate(144.374375 423.817417) scale(0.18 -0.18)">
       <use xlink:href="#DejaVuSerif-30"/>
       <use xlink:href="#DejaVuSerif-2e" x="63.623047"/>
       <use xlink:href="#DejaVuSerif-35" x="95.410156"/>
      </g>
     </g>
    </g>
    <g id="ytick_3">
     <g id="line2d_19">
      <path d="M 180 330.014118 
L 1296 330.014118 
" clip-path="url(#p513475290b)" style="fill: none; stroke: #ffffff; stroke-width: 0.8; stroke-linecap: square"/>
     </g>
     <g id="line2d_20">
      <g>
       <use xlink:href="#mfb68c5e6c6" x="180" y="330.014118" style="stroke: #000000; stroke-width: 0.8"/>
      </g>
     </g>
     <g id="text_11">
      <!-- 1.0 -->
      <g transform="translate(144.374375 336.852711) scale(0.18 -0.18)">
       <use xlink:href="#DejaVuSerif-31"/>
       <use xlink:href="#DejaVuSerif-2e" x="63.623047"/>
       <use xlink:href="#DejaVuSerif-30" x="95.410156"/>
      </g>
     </g>
    </g>
    <g id="ytick_4">
     <g id="line2d_21">
      <path d="M 180 243.049412 
L 1296 243.049412 
" clip-path="url(#p513475290b)" style="fill: none; stroke: #ffffff; stroke-width: 0.8; stroke-linecap: square"/>
     </g>
     <g id="line2d_22">
      <g>
       <use xlink:href="#mfb68c5e6c6" x="180" y="243.049412" style="stroke: #000000; stroke-width: 0.8"/>
      </g>
     </g>
     <g id="text_12">
      <!-- 1.5 -->
      <g transform="translate(144.374375 249.888006) scale(0.18 -0.18)">
       <use xlink:href="#DejaVuSerif-31"/>
       <use xlink:href="#DejaVuSerif-2e" x="63.623047"/>
       <use xlink:href="#DejaVuSerif-35" x="95.410156"/>
      </g>
     </g>
    </g>
    <g id="ytick_5">
     <g id="line2d_23">
      <path d="M 180 156.084706 
L 1296 156.084706 
" clip-path="url(#p513475290b)" style="fill: none; stroke: #ffffff; stroke-width: 0.8; stroke-linecap: square"/>
     </g>
     <g id="line2d_24">
      <g>
       <use xlink:href="#mfb68c5e6c6" x="180" y="156.084706" style="stroke: #000000; stroke-width: 0.8"/>
      </g>
     </g>
     <g id="text_13">
      <!-- 2.0 -->
      <g transform="translate(144.374375 162.9233) scale(0.18 -0.18)">
       <use xlink:href="#DejaVuSerif-32"/>
       <use xlink:href="#DejaVuSerif-2e" x="63.623047"/>
       <use xlink:href="#DejaVuSerif-30" x="95.410156"/>
      </g>
     </g>
    </g>
    <g id="ytick_6">
     <g id="line2d_25">
      <path d="M 180 69.12 
L 1296 69.12 
" clip-path="url(#p513475290b)" style="fill: none; stroke: #ffffff; stroke-width: 0.8; stroke-linecap: square"/>
     </g>
     <g id="line2d_26">
      <g>
       <use xlink:href="#mfb68c5e6c6" x="180" y="69.12" style="stroke: #000000; stroke-width: 0.8"/>
      </g>
     </g>
     <g id="text_14">
      <!-- 2.5 -->
      <g transform="translate(144.374375 75.958594) scale(0.18 -0.18)">
       <use xlink:href="#DejaVuSerif-32"/>
       <use xlink:href="#DejaVuSerif-2e" x="63.623047"/>
       <use xlink:href="#DejaVuSerif-35" x="95.410156"/>
      </g>
     </g>
    </g>
    <g id="text_15">
     <!-- (p.u) -->
     <g transform="translate(136.838906 311.129922) rotate(-90) scale(0.17 -0.17)">
      <defs>
       <path id="DejaVuSerif-28" d="M 2041 -997 
Q 1281 -656 893 83 
Q 506 822 506 1931 
Q 506 3044 893 3783 
Q 1281 4522 2041 4863 
L 2041 4556 
Q 1559 4225 1350 3623 
Q 1141 3022 1141 1931 
Q 1141 844 1350 242 
Q 1559 -359 2041 -691 
L 2041 -997 
z
" transform="scale(0.015625)"/>
       <path id="DejaVuSerif-75" d="M 2266 3322 
L 3341 3322 
L 3341 331 
L 3884 331 
L 3884 0 
L 2766 0 
L 2766 588 
Q 2606 256 2353 82 
Q 2100 -91 1766 -91 
Q 1213 -91 952 223 
Q 691 538 691 1209 
L 691 2988 
L 172 2988 
L 172 3322 
L 1269 3322 
L 1269 1388 
Q 1269 781 1417 556 
Q 1566 331 1947 331 
Q 2347 331 2556 625 
Q 2766 919 2766 1478 
L 2766 2988 
L 2266 2988 
L 2266 3322 
z
" transform="scale(0.015625)"/>
       <path id="DejaVuSerif-29" d="M 453 -997 
L 453 -691 
Q 934 -359 1145 242 
Q 1356 844 1356 1931 
Q 1356 3022 1145 3623 
Q 934 4225 453 4556 
L 453 4863 
Q 1216 4522 1603 3783 
Q 1991 3044 1991 1931 
Q 1991 822 1603 83 
Q 1216 -656 453 -997 
z
" transform="scale(0.015625)"/>
      </defs>
      <use xlink:href="#DejaVuSerif-28"/>
      <use xlink:href="#DejaVuSerif-70" x="39.013672"/>
      <use xlink:href="#DejaVuSerif-2e" x="103.027344"/>
      <use xlink:href="#DejaVuSerif-75" x="134.814453"/>
      <use xlink:href="#DejaVuSerif-29" x="199.21875"/>
     </g>
    </g>
   </g>
   <g id="PolyCollection_1">
    <defs>
     <path id="m6db87c68f3" d="M 283.725916 -231.947573 
L 283.725916 -229.177004 
L 435.150611 -234.870535 
L 586.575305 -243.631667 
L 738 -226.209223 
L 889.424695 -237.080986 
L 1040.849389 -237.77503 
L 1192.274084 -224.241668 
L 1192.274084 -231.660595 
L 1192.274084 -231.660595 
L 1040.849389 -241.778823 
L 889.424695 -241.301429 
L 738 -231.282518 
L 586.575305 -244.233118 
L 435.150611 -237.443985 
L 283.725916 -231.947573 
z
" style="stroke: #800080; stroke-opacity: 0.2; stroke-width: 0.5"/>
    </defs>
    <g clip-path="url(#p513475290b)">
     <use xlink:href="#m6db87c68f3" x="0" y="576" style="fill: #800080; fill-opacity: 0.2; stroke: #800080; stroke-opacity: 0.2; stroke-width: 0.5"/>
    </g>
   </g>
   <g id="PolyCollection_2">
    <defs>
     <path id="m4afa116bc7" d="M 283.725916 -167.74389 
L 283.725916 -159.745882 
L 435.150611 -72.056471 
L 586.575305 -144.094046 
L 738 -72.056471 
L 889.424695 -120.909836 
L 1040.849389 -100.229412 
L 1192.274084 -72.056471 
L 1192.274084 -72.056471 
L 1192.274084 -72.056471 
L 1040.849389 -120.77281 
L 889.424695 -129.661165 
L 738 -72.056471 
L 586.575305 -144.427553 
L 435.150611 -72.056471 
L 283.725916 -167.74389 
z
" style="stroke: #228b22; stroke-opacity: 0.2; stroke-width: 0.5"/>
    </defs>
    <g clip-path="url(#p513475290b)">
     <use xlink:href="#m4afa116bc7" x="0" y="576" style="fill: #228b22; fill-opacity: 0.2; stroke: #228b22; stroke-opacity: 0.2; stroke-width: 0.5"/>
    </g>
   </g>
   <g id="PolyCollection_3">
    <defs>
     <path id="mc69061c35a" d="M 283.725916 -84.916083 
L 283.725916 -78.87185 
L 435.150611 -72.056471 
L 586.575305 -72.056471 
L 738 -76.316282 
L 889.424695 -77.862496 
L 1040.849389 -115.470292 
L 1192.274084 -72.056471 
L 1192.274084 -76.873683 
L 1192.274084 -76.873683 
L 1040.849389 -136.870752 
L 889.424695 -98.02022 
L 738 -85.808234 
L 586.575305 -72.056471 
L 435.150611 -72.056471 
L 283.725916 -84.916083 
z
" style="stroke: #0000ff; stroke-opacity: 0.2; stroke-width: 0.5"/>
    </defs>
    <g clip-path="url(#p513475290b)">
     <use xlink:href="#mc69061c35a" x="0" y="576" style="fill: #0000ff; fill-opacity: 0.2; stroke: #0000ff; stroke-opacity: 0.2; stroke-width: 0.5"/>
    </g>
   </g>
   <g id="PolyCollection_4">
    <defs>
     <path id="m3e6e93698f" d="M 283.725916 -90.519947 
L 283.725916 -82.037688 
L 435.150611 -72.704874 
L 586.575305 -113.376324 
L 738 -72.056471 
L 889.424695 -445.989198 
L 1040.849389 -141.871672 
L 1192.274084 -72.056471 
L 1192.274084 -85.689241 
L 1192.274084 -85.689241 
L 1040.849389 -172.533521 
L 889.424695 -530.689437 
L 738 -74.669663 
L 586.575305 -118.710002 
L 435.150611 -73.839415 
L 283.725916 -90.519947 
z
" style="stroke: #87ceeb; stroke-opacity: 0.2; stroke-width: 0.5"/>
    </defs>
    <g clip-path="url(#p513475290b)">
     <use xlink:href="#m3e6e93698f" x="0" y="576" style="fill: #87ceeb; fill-opacity: 0.2; stroke: #87ceeb; stroke-opacity: 0.2; stroke-width: 0.5"/>
    </g>
   </g>
   <g id="PolyCollection_5">
    <defs>
     <path id="ma31000e043" d="M 283.725916 -124.558559 
L 283.725916 -109.817824 
L 435.150611 -73.733674 
L 586.575305 -236.303853 
L 738 -181.919157 
L 889.424695 -77.38985 
L 1040.849389 -72.056471 
L 1192.274084 -72.056471 
L 1192.274084 -72.056471 
L 1192.274084 -72.056471 
L 1040.849389 -72.056471 
L 889.424695 -92.349403 
L 738 -211.333081 
L 586.575305 -243.936287 
L 435.150611 -76.025936 
L 283.725916 -124.558559 
z
" style="stroke: #008000; stroke-opacity: 0.2; stroke-width: 0.5"/>
    </defs>
    <g clip-path="url(#p513475290b)">
     <use xlink:href="#ma31000e043" x="0" y="576" style="fill: #008000; fill-opacity: 0.2; stroke: #008000; stroke-opacity: 0.2; stroke-width: 0.5"/>
    </g>
   </g>
   <g id="PolyCollection_6">
    <defs>
     <path id="m2e559461d8" d="M 283.725916 -97.463895 
L 283.725916 -85.987548 
L 435.150611 -72.056471 
L 586.575305 -72.056567 
L 738 -91.139427 
L 889.424695 -72.056471 
L 1040.849389 -72.056471 
L 1192.274084 -72.056471 
L 1192.274084 -72.056471 
L 1192.274084 -72.056471 
L 1040.849389 -72.056471 
L 889.424695 -77.173989 
L 738 -103.930794 
L 586.575305 -72.216276 
L 435.150611 -72.056471 
L 283.725916 -97.463895 
z
" style="stroke: #4b0082; stroke-opacity: 0.2; stroke-width: 0.5"/>
    </defs>
    <g clip-path="url(#p513475290b)">
     <use xlink:href="#m2e559461d8" x="0" y="576" style="fill: #4b0082; fill-opacity: 0.2; stroke: #4b0082; stroke-opacity: 0.2; stroke-width: 0.5"/>
    </g>
   </g>
   <g id="PolyCollection_7">
    <defs>
     <path id="m72ef5079b3" d="M 283.725916 -72.056471 
L 283.725916 -72.056471 
L 435.150611 -72.056471 
L 586.575305 -127.441854 
L 738 -72.056471 
L 889.424695 -223.326912 
L 1040.849389 -138.684118 
L 1192.274084 -155.773732 
L 1192.274084 -174.232019 
L 1192.274084 -174.232019 
L 1040.849389 -163.25366 
L 889.424695 -234.19044 
L 738 -72.056471 
L 586.575305 -137.237543 
L 435.150611 -72.056471 
L 283.725916 -72.056471 
z
" style="stroke: #a52a2a; stroke-opacity: 0.2; stroke-width: 0.5"/>
    </defs>
    <g clip-path="url(#p513475290b)">
     <use xlink:href="#m72ef5079b3" x="0" y="576" style="fill: #a52a2a; fill-opacity: 0.2; stroke: #a52a2a; stroke-opacity: 0.2; stroke-width: 0.5"/>
    </g>
   </g>
   <g id="line2d_27">
    <path d="M 283.725916 345.444298 
L 435.150611 339.817735 
L 586.575305 332.061972 
L 738 347.23168 
L 889.424695 336.803192 
L 1040.849389 336.206464 
L 1192.274084 347.892546 
" clip-path="url(#p513475290b)" style="fill: none; stroke: #800080; stroke-width: 2.5; stroke-linecap: square"/>
    <defs>
     <path id="m48b474ec57" d="M 0 -6 
L -6 6 
L 6 6 
z
" style="stroke: #ffffff; stroke-width: 0.75; stroke-linejoin: miter"/>
    </defs>
    <g clip-path="url(#p513475290b)">
     <use xlink:href="#m48b474ec57" x="283.725916" y="345.444298" style="fill: #800080; stroke: #ffffff; stroke-width: 0.75; stroke-linejoin: miter"/>
     <use xlink:href="#m48b474ec57" x="435.150611" y="339.817735" style="fill: #800080; stroke: #ffffff; stroke-width: 0.75; stroke-linejoin: miter"/>
     <use xlink:href="#m48b474ec57" x="586.575305" y="332.061972" style="fill: #800080; stroke: #ffffff; stroke-width: 0.75; stroke-linejoin: miter"/>
     <use xlink:href="#m48b474ec57" x="738" y="347.23168" style="fill: #800080; stroke: #ffffff; stroke-width: 0.75; stroke-linejoin: miter"/>
     <use xlink:href="#m48b474ec57" x="889.424695" y="336.803192" style="fill: #800080; stroke: #ffffff; stroke-width: 0.75; stroke-linejoin: miter"/>
     <use xlink:href="#m48b474ec57" x="1040.849389" y="336.206464" style="fill: #800080; stroke: #ffffff; stroke-width: 0.75; stroke-linejoin: miter"/>
     <use xlink:href="#m48b474ec57" x="1192.274084" y="347.892546" style="fill: #800080; stroke: #ffffff; stroke-width: 0.75; stroke-linejoin: miter"/>
    </g>
   </g>
   <g id="line2d_28">
    <path d="M 283.725916 412.21474 
L 435.150611 503.943529 
L 586.575305 431.772551 
L 738 503.943529 
L 889.424695 450.956984 
L 1040.849389 465.292549 
L 1192.274084 503.943529 
" clip-path="url(#p513475290b)" style="fill: none; stroke-dasharray: 12.5,5,12.5,5; stroke-dashoffset: 0; stroke: #228b22; stroke-width: 2.5"/>
    <defs>
     <path id="me7bb3a96e4" d="M 0 -6 
L -6 6 
L 6 6 
z
" style="stroke: #ffffff; stroke-width: 0.75; stroke-linejoin: miter"/>
    </defs>
    <g clip-path="url(#p513475290b)">
     <use xlink:href="#me7bb3a96e4" x="283.725916" y="412.21474" style="fill: #228b22; stroke: #ffffff; stroke-width: 0.75; stroke-linejoin: miter"/>
     <use xlink:href="#me7bb3a96e4" x="435.150611" y="503.943529" style="fill: #228b22; stroke: #ffffff; stroke-width: 0.75; stroke-linejoin: miter"/>
     <use xlink:href="#me7bb3a96e4" x="586.575305" y="431.772551" style="fill: #228b22; stroke: #ffffff; stroke-width: 0.75; stroke-linejoin: miter"/>
     <use xlink:href="#me7bb3a96e4" x="738" y="503.943529" style="fill: #228b22; stroke: #ffffff; stroke-width: 0.75; stroke-linejoin: miter"/>
     <use xlink:href="#me7bb3a96e4" x="889.424695" y="450.956984" style="fill: #228b22; stroke: #ffffff; stroke-width: 0.75; stroke-linejoin: miter"/>
     <use xlink:href="#me7bb3a96e4" x="1040.849389" y="465.292549" style="fill: #228b22; stroke: #ffffff; stroke-width: 0.75; stroke-linejoin: miter"/>
     <use xlink:href="#me7bb3a96e4" x="1192.274084" y="503.943529" style="fill: #228b22; stroke: #ffffff; stroke-width: 0.75; stroke-linejoin: miter"/>
    </g>
   </g>
   <g id="line2d_29">
    <path d="M 283.725916 494.447807 
L 435.150611 503.943529 
L 586.575305 503.943529 
L 738 495.127155 
L 889.424695 489.164559 
L 1040.849389 449.410829 
L 1192.274084 502.213722 
" clip-path="url(#p513475290b)" style="fill: none; stroke-dasharray: 12.5,5,12.5,5; stroke-dashoffset: 0; stroke: #0000ff; stroke-width: 2.5"/>
    <defs>
     <path id="me02034dccf" d="M 0 6 
C 1.591219 6 3.117479 5.367802 4.242641 4.242641 
C 5.367802 3.117479 6 1.591219 6 0 
C 6 -1.591219 5.367802 -3.117479 4.242641 -4.242641 
C 3.117479 -5.367802 1.591219 -6 0 -6 
C -1.591219 -6 -3.117479 -5.367802 -4.242641 -4.242641 
C -5.367802 -3.117479 -6 -1.591219 -6 0 
C -6 1.591219 -5.367802 3.117479 -4.242641 4.242641 
C -3.117479 5.367802 -1.591219 6 0 6 
z
" style="stroke: #ffffff; stroke-width: 0.75"/>
    </defs>
    <g clip-path="url(#p513475290b)">
     <use xlink:href="#me02034dccf" x="283.725916" y="494.447807" style="fill: #0000ff; stroke: #ffffff; stroke-width: 0.75"/>
     <use xlink:href="#me02034dccf" x="435.150611" y="503.943529" style="fill: #0000ff; stroke: #ffffff; stroke-width: 0.75"/>
     <use xlink:href="#me02034dccf" x="586.575305" y="503.943529" style="fill: #0000ff; stroke: #ffffff; stroke-width: 0.75"/>
     <use xlink:href="#me02034dccf" x="738" y="495.127155" style="fill: #0000ff; stroke: #ffffff; stroke-width: 0.75"/>
     <use xlink:href="#me02034dccf" x="889.424695" y="489.164559" style="fill: #0000ff; stroke: #ffffff; stroke-width: 0.75"/>
     <use xlink:href="#me02034dccf" x="1040.849389" y="449.410829" style="fill: #0000ff; stroke: #ffffff; stroke-width: 0.75"/>
     <use xlink:href="#me02034dccf" x="1192.274084" y="502.213722" style="fill: #0000ff; stroke: #ffffff; stroke-width: 0.75"/>
    </g>
   </g>
   <g id="line2d_30">
    <path d="M 283.725916 489.925243 
L 435.150611 502.754467 
L 586.575305 459.971556 
L 738 502.654004 
L 889.424695 86.38762 
L 1040.849389 419.681794 
L 1192.274084 498.519918 
" clip-path="url(#p513475290b)" style="fill: none; stroke-dasharray: 12.5,5,12.5,5; stroke-dashoffset: 0; stroke: #87ceeb; stroke-width: 2.5"/>
    <defs>
     <path id="m08fa87f47a" d="M 0 6 
C 1.591219 6 3.117479 5.367802 4.242641 4.242641 
C 5.367802 3.117479 6 1.591219 6 0 
C 6 -1.591219 5.367802 -3.117479 4.242641 -4.242641 
C 3.117479 -5.367802 1.591219 -6 0 -6 
C -1.591219 -6 -3.117479 -5.367802 -4.242641 -4.242641 
C -5.367802 -3.117479 -6 -1.591219 -6 0 
C -6 1.591219 -5.367802 3.117479 -4.242641 4.242641 
C -3.117479 5.367802 -1.591219 6 0 6 
z
" style="stroke: #ffffff; stroke-width: 0.75"/>
    </defs>
    <g clip-path="url(#p513475290b)">
     <use xlink:href="#m08fa87f47a" x="283.725916" y="489.925243" style="fill: #87ceeb; stroke: #ffffff; stroke-width: 0.75"/>
     <use xlink:href="#m08fa87f47a" x="435.150611" y="502.754467" style="fill: #87ceeb; stroke: #ffffff; stroke-width: 0.75"/>
     <use xlink:href="#m08fa87f47a" x="586.575305" y="459.971556" style="fill: #87ceeb; stroke: #ffffff; stroke-width: 0.75"/>
     <use xlink:href="#m08fa87f47a" x="738" y="502.654004" style="fill: #87ceeb; stroke: #ffffff; stroke-width: 0.75"/>
     <use xlink:href="#m08fa87f47a" x="889.424695" y="86.38762" style="fill: #87ceeb; stroke: #ffffff; stroke-width: 0.75"/>
     <use xlink:href="#m08fa87f47a" x="1040.849389" y="419.681794" style="fill: #87ceeb; stroke: #ffffff; stroke-width: 0.75"/>
     <use xlink:href="#m08fa87f47a" x="1192.274084" y="498.519918" style="fill: #87ceeb; stroke: #ffffff; stroke-width: 0.75"/>
    </g>
   </g>
   <g id="line2d_31">
    <path d="M 283.725916 458.698643 
L 435.150611 501.204437 
L 586.575305 335.784773 
L 738 379.695801 
L 889.424695 492.149146 
L 1040.849389 503.943529 
L 1192.274084 503.943529 
" clip-path="url(#p513475290b)" style="fill: none; stroke-dasharray: 12.5,5,12.5,5; stroke-dashoffset: 0; stroke: #008000; stroke-width: 2.5"/>
    <defs>
     <path id="m59df697212" d="M 0 6 
C 1.591219 6 3.117479 5.367802 4.242641 4.242641 
C 5.367802 3.117479 6 1.591219 6 0 
C 6 -1.591219 5.367802 -3.117479 4.242641 -4.242641 
C 3.117479 -5.367802 1.591219 -6 0 -6 
C -1.591219 -6 -3.117479 -5.367802 -4.242641 -4.242641 
C -5.367802 -3.117479 -6 -1.591219 -6 0 
C -6 1.591219 -5.367802 3.117479 -4.242641 4.242641 
C -3.117479 5.367802 -1.591219 6 0 6 
z
" style="stroke: #ffffff; stroke-width: 0.75"/>
    </defs>
    <g clip-path="url(#p513475290b)">
     <use xlink:href="#m59df697212" x="283.725916" y="458.698643" style="fill: #008000; stroke: #ffffff; stroke-width: 0.75"/>
     <use xlink:href="#m59df697212" x="435.150611" y="501.204437" style="fill: #008000; stroke: #ffffff; stroke-width: 0.75"/>
     <use xlink:href="#m59df697212" x="586.575305" y="335.784773" style="fill: #008000; stroke: #ffffff; stroke-width: 0.75"/>
     <use xlink:href="#m59df697212" x="738" y="379.695801" style="fill: #008000; stroke: #ffffff; stroke-width: 0.75"/>
     <use xlink:href="#m59df697212" x="889.424695" y="492.149146" style="fill: #008000; stroke: #ffffff; stroke-width: 0.75"/>
     <use xlink:href="#m59df697212" x="1040.849389" y="503.943529" style="fill: #008000; stroke: #ffffff; stroke-width: 0.75"/>
     <use xlink:href="#m59df697212" x="1192.274084" y="503.943529" style="fill: #008000; stroke: #ffffff; stroke-width: 0.75"/>
    </g>
   </g>
   <g id="line2d_32">
    <path d="M 283.725916 484.316464 
L 435.150611 503.943529 
L 586.575305 503.873845 
L 738 478.63121 
L 889.424695 502.013206 
L 1040.849389 503.943529 
L 1192.274084 503.943529 
" clip-path="url(#p513475290b)" style="fill: none; stroke-dasharray: 12.5,5,12.5,5; stroke-dashoffset: 0; stroke: #4b0082; stroke-width: 2.5"/>
    <defs>
     <path id="m0291bb0e68" d="M 0 6 
C 1.591219 6 3.117479 5.367802 4.242641 4.242641 
C 5.367802 3.117479 6 1.591219 6 0 
C 6 -1.591219 5.367802 -3.117479 4.242641 -4.242641 
C 3.117479 -5.367802 1.591219 -6 0 -6 
C -1.591219 -6 -3.117479 -5.367802 -4.242641 -4.242641 
C -5.367802 -3.117479 -6 -1.591219 -6 0 
C -6 1.591219 -5.367802 3.117479 -4.242641 4.242641 
C -3.117479 5.367802 -1.591219 6 0 6 
z
" style="stroke: #ffffff; stroke-width: 0.75"/>
    </defs>
    <g clip-path="url(#p513475290b)">
     <use xlink:href="#m0291bb0e68" x="283.725916" y="484.316464" style="fill: #4b0082; stroke: #ffffff; stroke-width: 0.75"/>
     <use xlink:href="#m0291bb0e68" x="435.150611" y="503.943529" style="fill: #4b0082; stroke: #ffffff; stroke-width: 0.75"/>
     <use xlink:href="#m0291bb0e68" x="586.575305" y="503.873845" style="fill: #4b0082; stroke: #ffffff; stroke-width: 0.75"/>
     <use xlink:href="#m0291bb0e68" x="738" y="478.63121" style="fill: #4b0082; stroke: #ffffff; stroke-width: 0.75"/>
     <use xlink:href="#m0291bb0e68" x="889.424695" y="502.013206" style="fill: #4b0082; stroke: #ffffff; stroke-width: 0.75"/>
     <use xlink:href="#m0291bb0e68" x="1040.849389" y="503.943529" style="fill: #4b0082; stroke: #ffffff; stroke-width: 0.75"/>
     <use xlink:href="#m0291bb0e68" x="1192.274084" y="503.943529" style="fill: #4b0082; stroke: #ffffff; stroke-width: 0.75"/>
    </g>
   </g>
   <g id="line2d_33">
    <path d="M 283.725916 503.943529 
L 435.150611 503.943529 
L 586.575305 443.869242 
L 738 503.943529 
L 889.424695 346.435239 
L 1040.849389 425.232418 
L 1192.274084 410.759353 
" clip-path="url(#p513475290b)" style="fill: none; stroke-dasharray: 12.5,5,12.5,5; stroke-dashoffset: 0; stroke: #a52a2a; stroke-width: 2.5"/>
    <defs>
     <path id="m75317bd391" d="M 0 -6 
L -6 6 
L 6 6 
z
" style="stroke: #ffffff; stroke-width: 0.75; stroke-linejoin: miter"/>
    </defs>
    <g clip-path="url(#p513475290b)">
     <use xlink:href="#m75317bd391" x="283.725916" y="503.943529" style="fill: #a52a2a; stroke: #ffffff; stroke-width: 0.75; stroke-linejoin: miter"/>
     <use xlink:href="#m75317bd391" x="435.150611" y="503.943529" style="fill: #a52a2a; stroke: #ffffff; stroke-width: 0.75; stroke-linejoin: miter"/>
     <use xlink:href="#m75317bd391" x="586.575305" y="443.869242" style="fill: #a52a2a; stroke: #ffffff; stroke-width: 0.75; stroke-linejoin: miter"/>
     <use xlink:href="#m75317bd391" x="738" y="503.943529" style="fill: #a52a2a; stroke: #ffffff; stroke-width: 0.75; stroke-linejoin: miter"/>
     <use xlink:href="#m75317bd391" x="889.424695" y="346.435239" style="fill: #a52a2a; stroke: #ffffff; stroke-width: 0.75; stroke-linejoin: miter"/>
     <use xlink:href="#m75317bd391" x="1040.849389" y="425.232418" style="fill: #a52a2a; stroke: #ffffff; stroke-width: 0.75; stroke-linejoin: miter"/>
     <use xlink:href="#m75317bd391" x="1192.274084" y="410.759353" style="fill: #a52a2a; stroke: #ffffff; stroke-width: 0.75; stroke-linejoin: miter"/>
    </g>
   </g>
   <g id="line2d_34"/>
   <g id="line2d_35"/>
   <g id="line2d_36"/>
   <g id="line2d_37"/>
   <g id="line2d_38"/>
   <g id="line2d_39"/>
   <g id="line2d_40"/>
   <g id="patch_3">
    <path d="M 180 512.64 
L 180 69.12 
" style="fill: none; stroke: #000000; stroke-width: 1.2; stroke-linejoin: miter; stroke-linecap: square"/>
   </g>
   <g id="patch_4">
    <path d="M 1296 512.64 
L 1296 69.12 
" style="fill: none; stroke: #000000; stroke-width: 1.2; stroke-linejoin: miter; stroke-linecap: square"/>
   </g>
   <g id="patch_5">
    <path d="M 180 512.64 
L 1296 512.64 
" style="fill: none; stroke: #000000; stroke-width: 1.2; stroke-linejoin: miter; stroke-linecap: square"/>
   </g>
   <g id="patch_6">
    <path d="M 180 69.12 
L 1296 69.12 
" style="fill: none; stroke: #000000; stroke-width: 1.2; stroke-linejoin: miter; stroke-linecap: square"/>
   </g>
   <g id="legend_1">
    <g id="patch_7">
     <path d="M 1420.2 316.215312 
L 1533.96 316.215312 
Q 1537.56 316.215312 1537.56 312.615312 
L 1537.56 81.72 
Q 1537.56 78.12 1533.96 78.12 
L 1420.2 78.12 
Q 1416.6 78.12 1416.6 81.72 
L 1416.6 312.615312 
Q 1416.6 316.215312 1420.2 316.215312 
z
" style="fill: #e5e5e5; opacity: 0.8; stroke: #cccccc; stroke-width: 0.5; stroke-linejoin: miter"/>
    </g>
    <g id="text_16">
     <!-- INDICES -->
     <g transform="translate(1453.845625 92.918437) scale(0.1 -0.1)">
      <defs>
       <path id="DejaVuSerif-44" d="M 1581 331 
L 2163 331 
Q 3072 331 3558 850 
Q 4044 1369 4044 2338 
Q 4044 3306 3559 3818 
Q 3075 4331 2163 4331 
L 1581 4331 
L 1581 331 
z
M 353 0 
L 353 331 
L 947 331 
L 947 4331 
L 353 4331 
L 353 4666 
L 2209 4666 
Q 3416 4666 4089 4050 
Q 4763 3434 4763 2338 
Q 4763 1238 4088 619 
Q 3413 0 2209 0 
L 353 0 
z
" transform="scale(0.015625)"/>
      </defs>
      <use xlink:href="#DejaVuSerif-49"/>
      <use xlink:href="#DejaVuSerif-4e" x="39.501953"/>
      <use xlink:href="#DejaVuSerif-44" x="127.001953"/>
      <use xlink:href="#DejaVuSerif-49" x="207.177734"/>
      <use xlink:href="#DejaVuSerif-43" x="246.679688"/>
      <use xlink:href="#DejaVuSerif-45" x="323.193359"/>
      <use xlink:href="#DejaVuSerif-53" x="396.191406"/>
     </g>
    </g>
    <g id="line2d_41">
     <defs>
      <path id="m8257996274" d="M 0 -6 
L -6 6 
L 6 6 
z
" style="stroke: #800080; stroke-linejoin: miter"/>
     </defs>
     <g>
      <use xlink:href="#m8257996274" x="1441.8" y="113.898125" style="fill: #800080; stroke: #800080; stroke-linejoin: miter"/>
     </g>
    </g>
    <g id="text_17">
     <!-- $\mathrm{RPI}_{PV}^\mathrm{cap}$ -->
     <g transform="translate(1474.2 120.198125) scale(0.18 -0.18)">
      <defs>
       <path id="DejaVuSerif-52" d="M 3066 2316 
Q 3284 2256 3442 2114 
Q 3600 1972 3725 1716 
L 4403 331 
L 4972 331 
L 4972 0 
L 3872 0 
L 3144 1484 
Q 2934 1916 2759 2042 
Q 2584 2169 2278 2169 
L 1581 2169 
L 1581 331 
L 2241 331 
L 2241 0 
L 353 0 
L 353 331 
L 947 331 
L 947 4331 
L 353 4331 
L 353 4666 
L 2719 4666 
Q 3400 4666 3770 4341 
Q 4141 4016 4141 3419 
Q 4141 2938 3870 2661 
Q 3600 2384 3066 2316 
z
M 1581 2503 
L 2503 2503 
Q 2975 2503 3200 2726 
Q 3425 2950 3425 3419 
Q 3425 3888 3200 4109 
Q 2975 4331 2503 4331 
L 1581 4331 
L 1581 2503 
z
" transform="scale(0.015625)"/>
       <path id="DejaVuSerif-50" d="M 1581 2375 
L 2406 2375 
Q 2872 2375 3115 2626 
Q 3359 2878 3359 3353 
Q 3359 3831 3115 4081 
Q 2872 4331 2406 4331 
L 1581 4331 
L 1581 2375 
z
M 353 0 
L 353 331 
L 947 331 
L 947 4331 
L 353 4331 
L 353 4666 
L 2559 4666 
Q 3259 4666 3668 4311 
Q 4078 3956 4078 3353 
Q 4078 2753 3668 2397 
Q 3259 2041 2559 2041 
L 1581 2041 
L 1581 331 
L 2303 331 
L 2303 0 
L 353 0 
z
" transform="scale(0.015625)"/>
       <path id="DejaVuSerif-63" d="M 3291 997 
Q 3169 466 2822 187 
Q 2475 -91 1925 -91 
Q 1200 -91 759 389 
Q 319 869 319 1663 
Q 319 2459 759 2936 
Q 1200 3413 1925 3413 
Q 2241 3413 2553 3339 
Q 2866 3266 3181 3116 
L 3181 2266 
L 2847 2266 
Q 2781 2703 2561 2903 
Q 2341 3103 1931 3103 
Q 1466 3103 1228 2742 
Q 991 2381 991 1663 
Q 991 944 1227 581 
Q 1463 219 1931 219 
Q 2303 219 2525 412 
Q 2747 606 2828 997 
L 3291 997 
z
" transform="scale(0.015625)"/>
       <path id="DejaVuSerif-Italic-50" d="M 1594 2375 
L 2419 2375 
Q 2884 2375 3176 2626 
Q 3469 2878 3559 3353 
Q 3653 3831 3458 4081 
Q 3263 4331 2797 4331 
L 1972 4331 
L 1594 2375 
z
M -97 0 
L -34 331 
L 559 331 
L 1338 4331 
L 744 4331 
L 809 4666 
L 3016 4666 
Q 3716 4666 4056 4311 
Q 4397 3956 4278 3353 
Q 4163 2753 3684 2397 
Q 3206 2041 2506 2041 
L 1528 2041 
L 1194 331 
L 1916 331 
L 1853 0 
L -97 0 
z
" transform="scale(0.015625)"/>
       <path id="DejaVuSerif-Italic-56" d="M 1506 4331 
L 2191 750 
L 4259 4331 
L 3734 4331 
L 3800 4666 
L 5169 4666 
L 5103 4331 
L 4650 4331 
L 2144 0 
L 1606 0 
L 791 4331 
L 325 4331 
L 391 4666 
L 2091 4666 
L 2025 4331 
L 1506 4331 
z
" transform="scale(0.015625)"/>
      </defs>
      <use xlink:href="#DejaVuSerif-52" transform="translate(0 0.53125)"/>
      <use xlink:href="#DejaVuSerif-50" transform="translate(75.292969 0.53125)"/>
      <use xlink:href="#DejaVuSerif-49" transform="translate(142.578125 0.53125)"/>
      <use xlink:href="#DejaVuSerif-63" transform="translate(182.988438 52.670313) scale(0.7)"/>
      <use xlink:href="#DejaVuSerif-61" transform="translate(222.192539 52.670313) scale(0.7)"/>
      <use xlink:href="#DejaVuSerif-70" transform="translate(263.925937 52.670313) scale(0.7)"/>
      <use xlink:href="#DejaVuSerif-Italic-50" transform="translate(182.988438 -25.421875) scale(0.7)"/>
      <use xlink:href="#DejaVuSerif-Italic-56" transform="translate(230.088047 -25.421875) scale(0.7)"/>
     </g>
    </g>
    <g id="line2d_42">
     <defs>
      <path id="m85465c6237" d="M 0 -6 
L -6 6 
L 6 6 
z
" style="stroke: #228b22; stroke-linejoin: miter"/>
     </defs>
     <g>
      <use xlink:href="#m85465c6237" x="1441.8" y="143.958125" style="fill: #228b22; stroke: #228b22; stroke-linejoin: miter"/>
     </g>
    </g>
    <g id="text_18">
     <!-- $\mathrm{RPI}_{PQ}^\mathrm{cap}$ -->
     <g transform="translate(1474.2 150.258125) scale(0.18 -0.18)">
      <defs>
       <path id="DejaVuSerif-Italic-51" d="M 2322 -91 
Q 1250 -91 741 569 
Q 388 1028 388 1713 
Q 388 2000 450 2328 
Q 559 2894 817 3339 
Q 1075 3784 1491 4134 
Q 1856 4441 2281 4595 
Q 2706 4750 3188 4750 
Q 4203 4750 4697 4084 
Q 5044 3619 5044 2944 
Q 5044 2656 4981 2328 
Q 4800 1403 4209 773 
Q 3619 144 2759 -38 
Q 2888 -247 3109 -347 
Q 3331 -447 3672 -447 
L 4453 -447 
L 4341 -1025 
L 3975 -1025 
Q 3147 -1025 2803 -769 
Q 2466 -513 2322 -91 
z
M 2309 244 
Q 3075 244 3569 770 
Q 4063 1297 4263 2328 
Q 4344 2753 4344 3094 
Q 4344 3578 4175 3888 
Q 3888 4416 3122 4416 
Q 2353 4416 1859 3889 
Q 1366 3363 1166 2328 
Q 1084 1906 1084 1566 
Q 1084 1081 1253 769 
Q 1541 244 2309 244 
z
" transform="scale(0.015625)"/>
      </defs>
      <use xlink:href="#DejaVuSerif-52" transform="translate(0 0.6125)"/>
      <use xlink:href="#DejaVuSerif-50" transform="translate(75.292969 0.6125)"/>
      <use xlink:href="#DejaVuSerif-49" transform="translate(142.578125 0.6125)"/>
      <use xlink:href="#DejaVuSerif-63" transform="translate(182.988438 53.670313) scale(0.7)"/>
      <use xlink:href="#DejaVuSerif-61" transform="translate(222.192539 53.670313) scale(0.7)"/>
      <use xlink:href="#DejaVuSerif-70" transform="translate(263.925937 53.670313) scale(0.7)"/>
      <use xlink:href="#DejaVuSerif-Italic-50" transform="translate(182.988438 -25.340625) scale(0.7)"/>
      <use xlink:href="#DejaVuSerif-Italic-51" transform="translate(230.088047 -25.340625) scale(0.7)"/>
     </g>
    </g>
    <g id="line2d_43">
     <defs>
      <path id="m6139bd4c86" d="M 0 6 
C 1.591219 6 3.117479 5.367802 4.242641 4.242641 
C 5.367802 3.117479 6 1.591219 6 0 
C 6 -1.591219 5.367802 -3.117479 4.242641 -4.242641 
C 3.117479 -5.367802 1.591219 -6 0 -6 
C -1.591219 -6 -3.117479 -5.367802 -4.242641 -4.242641 
C -5.367802 -3.117479 -6 -1.591219 -6 0 
C -6 1.591219 -5.367802 3.117479 -4.242641 4.242641 
C -3.117479 5.367802 -1.591219 6 0 6 
z
" style="stroke: #0000ff"/>
     </defs>
     <g>
      <use xlink:href="#m6139bd4c86" x="1441.8" y="176.178125" style="fill: #0000ff; stroke: #0000ff"/>
     </g>
    </g>
    <g id="text_19">
     <!-- $\mathrm{VPI}_{PV}^\mathrm{l}$ -->
     <g transform="translate(1474.2 182.478125) scale(0.18 -0.18)">
      <use xlink:href="#DejaVuSerif-56" transform="translate(0 0.229687)"/>
      <use xlink:href="#DejaVuSerif-50" transform="translate(72.216797 0.229687)"/>
      <use xlink:href="#DejaVuSerif-49" transform="translate(139.501953 0.229687)"/>
      <use xlink:href="#DejaVuSerif-6c" transform="translate(179.912266 37.810938) scale(0.7)"/>
      <use xlink:href="#DejaVuSerif-Italic-50" transform="translate(179.912266 -25.723437) scale(0.7)"/>
      <use xlink:href="#DejaVuSerif-Italic-56" transform="translate(227.011875 -25.723437) scale(0.7)"/>
     </g>
    </g>
    <g id="line2d_44">
     <defs>
      <path id="m9fc93fd5dc" d="M 0 6 
C 1.591219 6 3.117479 5.367802 4.242641 4.242641 
C 5.367802 3.117479 6 1.591219 6 0 
C 6 -1.591219 5.367802 -3.117479 4.242641 -4.242641 
C 3.117479 -5.367802 1.591219 -6 0 -6 
C -1.591219 -6 -3.117479 -5.367802 -4.242641 -4.242641 
C -5.367802 -3.117479 -6 -1.591219 -6 0 
C -6 1.591219 -5.367802 3.117479 -4.242641 4.242641 
C -3.117479 5.367802 -1.591219 6 0 6 
z
" style="stroke: #87ceeb"/>
     </defs>
     <g>
      <use xlink:href="#m9fc93fd5dc" x="1441.8" y="206.418125" style="fill: #87ceeb; stroke: #87ceeb"/>
     </g>
    </g>
    <g id="text_20">
     <!-- $\mathrm{VPI}_{PQ}^\mathrm{l}$ -->
     <g transform="translate(1474.2 212.718125) scale(0.18 -0.18)">
      <use xlink:href="#DejaVuSerif-56" transform="translate(0 0.310937)"/>
      <use xlink:href="#DejaVuSerif-50" transform="translate(72.216797 0.310937)"/>
      <use xlink:href="#DejaVuSerif-49" transform="translate(139.501953 0.310937)"/>
      <use xlink:href="#DejaVuSerif-6c" transform="translate(179.912266 38.810938) scale(0.7)"/>
      <use xlink:href="#DejaVuSerif-Italic-50" transform="translate(179.912266 -25.642188) scale(0.7)"/>
      <use xlink:href="#DejaVuSerif-Italic-51" transform="translate(227.011875 -25.642188) scale(0.7)"/>
     </g>
    </g>
    <g id="line2d_45">
     <defs>
      <path id="m8140966486" d="M 0 6 
C 1.591219 6 3.117479 5.367802 4.242641 4.242641 
C 5.367802 3.117479 6 1.591219 6 0 
C 6 -1.591219 5.367802 -3.117479 4.242641 -4.242641 
C 3.117479 -5.367802 1.591219 -6 0 -6 
C -1.591219 -6 -3.117479 -5.367802 -4.242641 -4.242641 
C -5.367802 -3.117479 -6 -1.591219 -6 0 
C -6 1.591219 -5.367802 3.117479 -4.242641 4.242641 
C -3.117479 5.367802 -1.591219 6 0 6 
z
" style="stroke: #008000"/>
     </defs>
     <g>
      <use xlink:href="#m8140966486" x="1441.8" y="235.935313" style="fill: #008000; stroke: #008000"/>
     </g>
    </g>
    <g id="text_21">
     <!-- $\mathrm{VPI}_{PV}^\mathrm{u}$ -->
     <g transform="translate(1474.2 242.235313) scale(0.18 -0.18)">
      <use xlink:href="#DejaVuSerif-56" transform="translate(0 0.089063)"/>
      <use xlink:href="#DejaVuSerif-50" transform="translate(72.216797 0.089063)"/>
      <use xlink:href="#DejaVuSerif-49" transform="translate(139.501953 0.089063)"/>
      <use xlink:href="#DejaVuSerif-75" transform="translate(179.912266 38.665625) scale(0.7)"/>
      <use xlink:href="#DejaVuSerif-Italic-50" transform="translate(179.912266 -25.864062) scale(0.7)"/>
      <use xlink:href="#DejaVuSerif-Italic-56" transform="translate(227.011875 -25.864062) scale(0.7)"/>
     </g>
    </g>
    <g id="line2d_46">
     <defs>
      <path id="m5e00b7a859" d="M 0 6 
C 1.591219 6 3.117479 5.367802 4.242641 4.242641 
C 5.367802 3.117479 6 1.591219 6 0 
C 6 -1.591219 5.367802 -3.117479 4.242641 -4.242641 
C 3.117479 -5.367802 1.591219 -6 0 -6 
C -1.591219 -6 -3.117479 -5.367802 -4.242641 -4.242641 
C -5.367802 -3.117479 -6 -1.591219 -6 0 
C -6 1.591219 -5.367802 3.117479 -4.242641 4.242641 
C -3.117479 5.367802 -1.591219 6 0 6 
z
" style="stroke: #4b0082"/>
     </defs>
     <g>
      <use xlink:href="#m5e00b7a859" x="1441.8" y="263.295313" style="fill: #4b0082; stroke: #4b0082"/>
     </g>
    </g>
    <g id="text_22">
     <!-- $\mathrm{VPI}_{PQ}^\mathrm{u}$ -->
     <g transform="translate(1474.2 269.595313) scale(0.18 -0.18)">
      <use xlink:href="#DejaVuSerif-56" transform="translate(0 0.170313)"/>
      <use xlink:href="#DejaVuSerif-50" transform="translate(72.216797 0.170313)"/>
      <use xlink:href="#DejaVuSerif-49" transform="translate(139.501953 0.170313)"/>
      <use xlink:href="#DejaVuSerif-75" transform="translate(179.912266 39.665625) scale(0.7)"/>
      <use xlink:href="#DejaVuSerif-Italic-50" transform="translate(179.912266 -25.782812) scale(0.7)"/>
      <use xlink:href="#DejaVuSerif-Italic-51" transform="translate(227.011875 -25.782812) scale(0.7)"/>
     </g>
    </g>
    <g id="line2d_47">
     <defs>
      <path id="m1f39853c2c" d="M 0 -6 
L -6 6 
L 6 6 
z
" style="stroke: #a52a2a; stroke-linejoin: miter"/>
     </defs>
     <g>
      <use xlink:href="#m1f39853c2c" x="1441.8" y="295.875313" style="fill: #a52a2a; stroke: #a52a2a; stroke-linejoin: miter"/>
     </g>
    </g>
    <g id="text_23">
     <!-- $\mathrm{RPI}_{PQ}^\mathrm{ind}$ -->
     <g transform="translate(1474.2 302.175313) scale(0.18 -0.18)">
      <defs>
       <path id="DejaVuSerif-64" d="M 3359 331 
L 3909 331 
L 3909 0 
L 2784 0 
L 2784 519 
Q 2616 206 2355 57 
Q 2094 -91 1709 -91 
Q 1097 -91 708 395 
Q 319 881 319 1663 
Q 319 2444 706 2928 
Q 1094 3413 1709 3413 
Q 2094 3413 2355 3264 
Q 2616 3116 2784 2803 
L 2784 4531 
L 2241 4531 
L 2241 4863 
L 3359 4863 
L 3359 331 
z
M 2784 1497 
L 2784 1825 
Q 2784 2422 2554 2737 
Q 2325 3053 1888 3053 
Q 1444 3053 1217 2703 
Q 991 2353 991 1663 
Q 991 975 1217 622 
Q 1444 269 1888 269 
Q 2325 269 2554 583 
Q 2784 897 2784 1497 
z
" transform="scale(0.015625)"/>
      </defs>
      <use xlink:href="#DejaVuSerif-52" transform="translate(0 0.315625)"/>
      <use xlink:href="#DejaVuSerif-50" transform="translate(75.292969 0.315625)"/>
      <use xlink:href="#DejaVuSerif-49" transform="translate(142.578125 0.315625)"/>
      <use xlink:href="#DejaVuSerif-69" transform="translate(182.988438 39.810938) scale(0.7)"/>
      <use xlink:href="#DejaVuSerif-6e" transform="translate(205.376133 39.810938) scale(0.7)"/>
      <use xlink:href="#DejaVuSerif-64" transform="translate(250.459141 39.810938) scale(0.7)"/>
      <use xlink:href="#DejaVuSerif-Italic-50" transform="translate(182.988438 -25.6375) scale(0.7)"/>
      <use xlink:href="#DejaVuSerif-Italic-51" transform="translate(230.088047 -25.6375) scale(0.7)"/>
     </g>
    </g>
   </g>
  </g>
  <g id="axes_2">
   <g id="matplotlib.axis_3">
    <g id="ytick_7">
     <g id="line2d_48">
      <defs>
       <path id="mfdfebf5d6b" d="M 0 0 
L 3.5 0 
" style="stroke: #000000; stroke-width: 0.8"/>
      </defs>
      <g>
       <use xlink:href="#mfdfebf5d6b" x="1296" y="512.64" style="stroke: #000000; stroke-width: 0.8"/>
      </g>
     </g>
     <g id="text_24">
      <!-- 0 -->
      <g transform="translate(1303 519.478594) scale(0.18 -0.18)">
       <use xlink:href="#DejaVuSerif-30"/>
      </g>
     </g>
    </g>
    <g id="ytick_8">
     <g id="line2d_49">
      <g>
       <use xlink:href="#mfdfebf5d6b" x="1296" y="453.809916" style="stroke: #000000; stroke-width: 0.8"/>
      </g>
     </g>
     <g id="text_25">
      <!-- 50 -->
      <g transform="translate(1303 460.64851) scale(0.18 -0.18)">
       <use xlink:href="#DejaVuSerif-35"/>
       <use xlink:href="#DejaVuSerif-30" x="63.623047"/>
      </g>
     </g>
    </g>
    <g id="ytick_9">
     <g id="line2d_50">
      <g>
       <use xlink:href="#mfdfebf5d6b" x="1296" y="394.979833" style="stroke: #000000; stroke-width: 0.8"/>
      </g>
     </g>
     <g id="text_26">
      <!-- 100 -->
      <g transform="translate(1303 401.818427) scale(0.18 -0.18)">
       <use xlink:href="#DejaVuSerif-31"/>
       <use xlink:href="#DejaVuSerif-30" x="63.623047"/>
       <use xlink:href="#DejaVuSerif-30" x="127.246094"/>
      </g>
     </g>
    </g>
    <g id="ytick_10">
     <g id="line2d_51">
      <g>
       <use xlink:href="#mfdfebf5d6b" x="1296" y="336.149749" style="stroke: #000000; stroke-width: 0.8"/>
      </g>
     </g>
     <g id="text_27">
      <!-- 150 -->
      <g transform="translate(1303 342.988343) scale(0.18 -0.18)">
       <use xlink:href="#DejaVuSerif-31"/>
       <use xlink:href="#DejaVuSerif-35" x="63.623047"/>
       <use xlink:href="#DejaVuSerif-30" x="127.246094"/>
      </g>
     </g>
    </g>
    <g id="ytick_11">
     <g id="line2d_52">
      <g>
       <use xlink:href="#mfdfebf5d6b" x="1296" y="277.319666" style="stroke: #000000; stroke-width: 0.8"/>
      </g>
     </g>
     <g id="text_28">
      <!-- 200 -->
      <g transform="translate(1303 284.158259) scale(0.18 -0.18)">
       <use xlink:href="#DejaVuSerif-32"/>
       <use xlink:href="#DejaVuSerif-30" x="63.623047"/>
       <use xlink:href="#DejaVuSerif-30" x="127.246094"/>
      </g>
     </g>
    </g>
    <g id="ytick_12">
     <g id="line2d_53">
      <g>
       <use xlink:href="#mfdfebf5d6b" x="1296" y="218.489582" style="stroke: #000000; stroke-width: 0.8"/>
      </g>
     </g>
     <g id="text_29">
      <!-- 250 -->
      <g transform="translate(1303 225.328176) scale(0.18 -0.18)">
       <use xlink:href="#DejaVuSerif-32"/>
       <use xlink:href="#DejaVuSerif-35" x="63.623047"/>
       <use xlink:href="#DejaVuSerif-30" x="127.246094"/>
      </g>
     </g>
    </g>
    <g id="ytick_13">
     <g id="line2d_54">
      <g>
       <use xlink:href="#mfdfebf5d6b" x="1296" y="159.659499" style="stroke: #000000; stroke-width: 0.8"/>
      </g>
     </g>
     <g id="text_30">
      <!-- 300 -->
      <g transform="translate(1303 166.498092) scale(0.18 -0.18)">
       <use xlink:href="#DejaVuSerif-33"/>
       <use xlink:href="#DejaVuSerif-30" x="63.623047"/>
       <use xlink:href="#DejaVuSerif-30" x="127.246094"/>
      </g>
     </g>
    </g>
    <g id="ytick_14">
     <g id="line2d_55">
      <g>
       <use xlink:href="#mfdfebf5d6b" x="1296" y="100.829415" style="stroke: #000000; stroke-width: 0.8"/>
      </g>
     </g>
     <g id="text_31">
      <!-- 350 -->
      <g transform="translate(1303 107.668009) scale(0.18 -0.18)">
       <use xlink:href="#DejaVuSerif-33"/>
       <use xlink:href="#DejaVuSerif-35" x="63.623047"/>
       <use xlink:href="#DejaVuSerif-30" x="127.246094"/>
      </g>
     </g>
    </g>
    <g id="text_32">
     <!-- Count -->
     <g transform="translate(1354.274844 316.866094) rotate(-90) scale(0.17 -0.17)">
      <use xlink:href="#DejaVuSerif-43"/>
      <use xlink:href="#DejaVuSerif-6f" x="76.513672"/>
      <use xlink:href="#DejaVuSerif-75" x="136.71875"/>
      <use xlink:href="#DejaVuSerif-6e" x="201.123047"/>
      <use xlink:href="#DejaVuSerif-74" x="265.527344"/>
     </g>
    </g>
   </g>
   <g id="patch_8">
    <path d="M 230.727273 512.64 
L 336.724559 512.64 
L 336.724559 90.24 
L 230.727273 90.24 
z
" clip-path="url(#p513475290b)" style="fill: #ff0000; opacity: 0.2"/>
   </g>
   <g id="patch_9">
    <path d="M 382.151967 512.64 
L 488.149254 512.64 
L 488.149254 214.959777 
L 382.151967 214.959777 
z
" clip-path="url(#p513475290b)" style="fill: #ff0000; opacity: 0.2"/>
   </g>
   <g id="patch_10">
    <path d="M 533.576662 512.64 
L 639.573948 512.64 
L 639.573948 258.494039 
L 533.576662 258.494039 
z
" clip-path="url(#p513475290b)" style="fill: #ff0000; opacity: 0.2"/>
   </g>
   <g id="patch_11">
    <path d="M 685.001357 512.64 
L 790.998643 512.64 
L 790.998643 417.335265 
L 685.001357 417.335265 
z
" clip-path="url(#p513475290b)" style="fill: #ff0000; opacity: 0.2"/>
   </g>
   <g id="patch_12">
    <path d="M 836.426052 512.64 
L 942.423338 512.64 
L 942.423338 423.218273 
L 836.426052 423.218273 
z
" clip-path="url(#p513475290b)" style="fill: #ff0000; opacity: 0.2"/>
   </g>
   <g id="patch_13">
    <path d="M 987.850746 512.64 
L 1093.848033 512.64 
L 1093.848033 427.92468 
L 987.850746 427.92468 
z
" clip-path="url(#p513475290b)" style="fill: #ff0000; opacity: 0.2"/>
   </g>
   <g id="patch_14">
    <path d="M 1139.275441 512.64 
L 1245.272727 512.64 
L 1245.272727 473.812145 
L 1139.275441 473.812145 
z
" clip-path="url(#p513475290b)" style="fill: #ff0000; opacity: 0.2"/>
   </g>
   <g id="patch_15">
    <path d="M 180 512.64 
L 180 69.12 
" style="fill: none; stroke: #ffffff; stroke-linejoin: miter; stroke-linecap: square"/>
   </g>
   <g id="patch_16">
    <path d="M 1296 512.64 
L 1296 69.12 
" style="fill: none; stroke: #ffffff; stroke-linejoin: miter; stroke-linecap: square"/>
   </g>
   <g id="patch_17">
    <path d="M 180 512.64 
L 1296 512.64 
" style="fill: none; stroke: #ffffff; stroke-linejoin: miter; stroke-linecap: square"/>
   </g>
   <g id="patch_18">
    <path d="M 180 69.12 
L 1296 69.12 
" style="fill: none; stroke: #ffffff; stroke-linejoin: miter; stroke-linecap: square"/>
   </g>
   <g id="text_33">
    <!-- 2.30% -->
    <g transform="translate(255.135447 86.496563) scale(0.18 -0.18)">
     <defs>
      <path id="DejaVuSerif-25" d="M 1434 4459 
Q 1159 4459 1004 4200 
Q 850 3941 850 3475 
Q 850 3016 1008 2753 
Q 1166 2491 1434 2491 
Q 1700 2491 1854 2752 
Q 2009 3013 2009 3475 
Q 2009 3938 1854 4198 
Q 1700 4459 1434 4459 
z
M 4653 2169 
Q 4381 2169 4226 1906 
Q 4072 1644 4072 1178 
Q 4072 719 4228 458 
Q 4384 197 4653 197 
Q 4922 197 5075 458 
Q 5228 719 5228 1178 
Q 5228 1641 5073 1905 
Q 4919 2169 4653 2169 
z
M 4653 2450 
Q 5147 2450 5437 2106 
Q 5728 1763 5728 1178 
Q 5728 594 5436 251 
Q 5144 -91 4653 -91 
Q 4153 -91 3862 251 
Q 3572 594 3572 1178 
Q 3572 1766 3864 2108 
Q 4156 2450 4653 2450 
z
M 4263 4750 
L 4738 4750 
L 1819 -91 
L 1344 -91 
L 4263 4750 
z
M 1428 4750 
Q 1922 4750 2215 4408 
Q 2509 4066 2509 3481 
Q 2509 2891 2217 2550 
Q 1925 2209 1428 2209 
Q 931 2209 642 2551 
Q 353 2894 353 3481 
Q 353 4063 643 4406 
Q 934 4750 1428 4750 
z
" transform="scale(0.015625)"/>
     </defs>
     <use xlink:href="#DejaVuSerif-32"/>
     <use xlink:href="#DejaVuSerif-2e" x="63.623047"/>
     <use xlink:href="#DejaVuSerif-33" x="95.410156"/>
     <use xlink:href="#DejaVuSerif-30" x="159.033203"/>
     <use xlink:href="#DejaVuSerif-25" x="222.65625"/>
    </g>
   </g>
   <g id="text_34">
    <!-- 1.62% -->
    <g transform="translate(406.560142 211.21634) scale(0.18 -0.18)">
     <use xlink:href="#DejaVuSerif-31"/>
     <use xlink:href="#DejaVuSerif-2e" x="63.623047"/>
     <use xlink:href="#DejaVuSerif-36" x="95.410156"/>
     <use xlink:href="#DejaVuSerif-32" x="159.033203"/>
     <use xlink:href="#DejaVuSerif-25" x="222.65625"/>
    </g>
   </g>
   <g id="text_35">
    <!-- 1.38% -->
    <g transform="translate(557.984837 254.750601) scale(0.18 -0.18)">
     <use xlink:href="#DejaVuSerif-31"/>
     <use xlink:href="#DejaVuSerif-2e" x="63.623047"/>
     <use xlink:href="#DejaVuSerif-33" x="95.410156"/>
     <use xlink:href="#DejaVuSerif-38" x="159.033203"/>
     <use xlink:href="#DejaVuSerif-25" x="222.65625"/>
    </g>
   </g>
   <g id="text_36">
    <!-- 0.52% -->
    <g transform="translate(709.409531 413.591827) scale(0.18 -0.18)">
     <use xlink:href="#DejaVuSerif-30"/>
     <use xlink:href="#DejaVuSerif-2e" x="63.623047"/>
     <use xlink:href="#DejaVuSerif-35" x="95.410156"/>
     <use xlink:href="#DejaVuSerif-32" x="159.033203"/>
     <use xlink:href="#DejaVuSerif-25" x="222.65625"/>
    </g>
   </g>
   <g id="text_37">
    <!-- 0.49% -->
    <g transform="translate(860.834226 419.474835) scale(0.18 -0.18)">
     <defs>
      <path id="DejaVuSerif-39" d="M 2994 2091 
Q 2784 1856 2512 1740 
Q 2241 1625 1900 1625 
Q 1206 1625 804 2044 
Q 403 2463 403 3188 
Q 403 3897 839 4323 
Q 1275 4750 2003 4750 
Q 2794 4750 3217 4161 
Q 3641 3572 3641 2478 
Q 3641 1253 3137 581 
Q 2634 -91 1722 -91 
Q 1475 -91 1203 -44 
Q 931 3 647 97 
L 647 872 
L 997 872 
Q 1038 556 1241 387 
Q 1444 219 1784 219 
Q 2391 219 2687 676 
Q 2984 1134 2994 2091 
z
M 1978 4441 
Q 1534 4441 1298 4117 
Q 1063 3794 1063 3188 
Q 1063 2581 1298 2256 
Q 1534 1931 1978 1931 
Q 2422 1931 2658 2245 
Q 2894 2559 2894 3150 
Q 2894 3772 2656 4106 
Q 2419 4441 1978 4441 
z
" transform="scale(0.015625)"/>
     </defs>
     <use xlink:href="#DejaVuSerif-30"/>
     <use xlink:href="#DejaVuSerif-2e" x="63.623047"/>
     <use xlink:href="#DejaVuSerif-34" x="95.410156"/>
     <use xlink:href="#DejaVuSerif-39" x="159.033203"/>
     <use xlink:href="#DejaVuSerif-25" x="222.65625"/>
    </g>
   </g>
   <g id="text_38">
    <!-- 0.46% -->
    <g transform="translate(1012.258921 424.181242) scale(0.18 -0.18)">
     <use xlink:href="#DejaVuSerif-30"/>
     <use xlink:href="#DejaVuSerif-2e" x="63.623047"/>
     <use xlink:href="#DejaVuSerif-34" x="95.410156"/>
     <use xlink:href="#DejaVuSerif-36" x="159.033203"/>
     <use xlink:href="#DejaVuSerif-25" x="222.65625"/>
    </g>
   </g>
   <g id="text_39">
    <!-- 0.21% -->
    <g transform="translate(1163.683615 470.068707) scale(0.18 -0.18)">
     <use xlink:href="#DejaVuSerif-30"/>
     <use xlink:href="#DejaVuSerif-2e" x="63.623047"/>
     <use xlink:href="#DejaVuSerif-32" x="95.410156"/>
     <use xlink:href="#DejaVuSerif-31" x="159.033203"/>
     <use xlink:href="#DejaVuSerif-25" x="222.65625"/>
    </g>
   </g>
  </g>
 </g>
 <defs>
  <clipPath id="p513475290b">
   <rect x="180" y="69.12" width="1116" height="443.52"/>
  </clipPath>
 </defs>
</svg>
