<?xml version="1.0" encoding="utf-8" standalone="no"?>
<!DOCTYPE svg PUBLIC "-//W3C//DTD SVG 1.1//EN"
  "http://www.w3.org/Graphics/SVG/1.1/DTD/svg11.dtd">
<svg xmlns:xlink="http://www.w3.org/1999/xlink" width="720pt" height="432pt" viewBox="0 0 720 432" xmlns="http://www.w3.org/2000/svg" version="1.1">
 <metadata>
  <rdf:RDF xmlns:dc="http://purl.org/dc/elements/1.1/" xmlns:cc="http://creativecommons.org/ns#" xmlns:rdf="http://www.w3.org/1999/02/22-rdf-syntax-ns#">
   <cc:Work>
    <dc:type rdf:resource="http://purl.org/dc/dcmitype/StillImage"/>
    <dc:date>2024-09-27T13:44:27.267669</dc:date>
    <dc:format>image/svg+xml</dc:format>
    <dc:creator>
     <cc:Agent>
      <dc:title>Matplotlib v3.7.2, https://matplotlib.org/</dc:title>
     </cc:Agent>
    </dc:creator>
   </cc:Work>
  </rdf:RDF>
 </metadata>
 <defs>
  <style type="text/css">*{stroke-linejoin: round; stroke-linecap: butt}</style>
 </defs>
 <g id="figure_1">
  <g id="patch_1">
   <path d="M 0 432 
L 720 432 
L 720 0 
L 0 0 
z
" style="fill: #ffffff"/>
  </g>
  <g id="axes_1">
   <g id="patch_2">
    <path d="M 80.109993 327.175464 
L 614.846922 327.175464 
L 614.846922 28.08375 
L 80.109993 28.08375 
z
" style="fill: #e5e5e5"/>
   </g>
   <g id="matplotlib.axis_1">
    <g id="xtick_1">
     <g id="line2d_1">
      <path d="M 104.416217 327.175464 
L 104.416217 28.08375 
" clip-path="url(#pe375c2dfe8)" style="fill: none; stroke: #ffffff; stroke-width: 0.8; stroke-linecap: square"/>
     </g>
     <g id="line2d_2">
      <defs>
       <path id="m0434b8e950" d="M 0 0 
L 0 3.5 
" style="stroke: #000000; stroke-width: 0.8"/>
      </defs>
      <g>
       <use xlink:href="#m0434b8e950" x="104.416217" y="327.175464" style="stroke: #000000; stroke-width: 0.8"/>
      </g>
     </g>
     <g id="text_1">
      <!-- 841 - XINGU- -PA500 -->
      <g transform="translate(13.51 392.640279) rotate(-30) scale(0.1 -0.1)">
       <defs>
        <path id="DejaVuSerif-38" d="M 2981 1275 
Q 2981 1775 2732 2051 
Q 2484 2328 2034 2328 
Q 1584 2328 1336 2051 
Q 1088 1775 1088 1275 
Q 1088 772 1336 495 
Q 1584 219 2034 219 
Q 2484 219 2732 495 
Q 2981 772 2981 1275 
z
M 2853 3541 
Q 2853 3966 2637 4203 
Q 2422 4441 2034 4441 
Q 1650 4441 1433 4203 
Q 1216 3966 1216 3541 
Q 1216 3113 1433 2875 
Q 1650 2638 2034 2638 
Q 2422 2638 2637 2875 
Q 2853 3113 2853 3541 
z
M 2516 2484 
Q 3047 2413 3344 2092 
Q 3641 1772 3641 1275 
Q 3641 619 3225 264 
Q 2809 -91 2034 -91 
Q 1263 -91 845 264 
Q 428 619 428 1275 
Q 428 1772 725 2092 
Q 1022 2413 1556 2484 
Q 1084 2569 832 2842 
Q 581 3116 581 3541 
Q 581 4103 968 4426 
Q 1356 4750 2034 4750 
Q 2713 4750 3100 4426 
Q 3488 4103 3488 3541 
Q 3488 3116 3236 2842 
Q 2984 2569 2516 2484 
z
" transform="scale(0.015625)"/>
        <path id="DejaVuSerif-34" d="M 2234 1581 
L 2234 4063 
L 641 1581 
L 2234 1581 
z
M 3609 0 
L 1484 0 
L 1484 331 
L 2234 331 
L 2234 1247 
L 197 1247 
L 197 1588 
L 2241 4750 
L 2859 4750 
L 2859 1581 
L 3750 1581 
L 3750 1247 
L 2859 1247 
L 2859 331 
L 3609 331 
L 3609 0 
z
" transform="scale(0.015625)"/>
        <path id="DejaVuSerif-31" d="M 909 0 
L 909 331 
L 1722 331 
L 1722 4213 
L 781 3603 
L 781 4013 
L 1919 4750 
L 2350 4750 
L 2350 331 
L 3163 331 
L 3163 0 
L 909 0 
z
" transform="scale(0.015625)"/>
        <path id="DejaVuSerif-20" transform="scale(0.015625)"/>
        <path id="DejaVuSerif-2d" d="M 281 1959 
L 1881 1959 
L 1881 1472 
L 281 1472 
L 281 1959 
z
" transform="scale(0.015625)"/>
        <path id="DejaVuSerif-58" d="M 2119 1997 
L 978 331 
L 1581 331 
L 1581 0 
L 38 0 
L 38 331 
L 575 331 
L 1919 2291 
L 556 4331 
L 56 4331 
L 56 4666 
L 1906 4666 
L 1906 4331 
L 1356 4331 
L 2356 2828 
L 3384 4331 
L 2784 4331 
L 2784 4666 
L 4313 4666 
L 4313 4331 
L 3788 4331 
L 2553 2534 
L 4025 331 
L 4525 331 
L 4525 0 
L 2675 0 
L 2675 331 
L 3231 331 
L 2119 1997 
z
" transform="scale(0.015625)"/>
        <path id="DejaVuSerif-49" d="M 1581 331 
L 2175 331 
L 2175 0 
L 353 0 
L 353 331 
L 947 331 
L 947 4331 
L 353 4331 
L 353 4666 
L 2175 4666 
L 2175 4331 
L 1581 4331 
L 1581 331 
z
" transform="scale(0.015625)"/>
        <path id="DejaVuSerif-4e" d="M 313 0 
L 313 331 
L 941 331 
L 941 4331 
L 313 4331 
L 313 4666 
L 1509 4666 
L 4306 984 
L 4306 4331 
L 3681 4331 
L 3681 4666 
L 5319 4666 
L 5319 4331 
L 4691 4331 
L 4691 -91 
L 4313 -91 
L 1325 3841 
L 1325 331 
L 1953 331 
L 1953 0 
L 313 0 
z
" transform="scale(0.015625)"/>
        <path id="DejaVuSerif-47" d="M 4097 3272 
Q 3988 3856 3641 4136 
Q 3294 4416 2675 4416 
Q 1869 4416 1472 3897 
Q 1075 3378 1075 2328 
Q 1075 1300 1484 772 
Q 1894 244 2688 244 
Q 3041 244 3362 331 
Q 3684 419 3975 594 
L 3975 1797 
L 3097 1797 
L 3097 2131 
L 4609 2131 
L 4609 391 
Q 4194 150 3714 29 
Q 3234 -91 2688 -91 
Q 1631 -91 995 570 
Q 359 1231 359 2328 
Q 359 3434 996 4092 
Q 1634 4750 2713 4750 
Q 3113 4750 3539 4658 
Q 3966 4566 4447 4378 
L 4447 3272 
L 4097 3272 
z
" transform="scale(0.015625)"/>
        <path id="DejaVuSerif-55" d="M 897 4331 
L 300 4331 
L 300 4666 
L 2125 4666 
L 2125 4331 
L 1528 4331 
L 1528 1919 
Q 1528 1025 1820 672 
Q 2113 319 2828 319 
Q 3544 319 3836 672 
Q 4128 1025 4128 1919 
L 4128 4331 
L 3531 4331 
L 3531 4666 
L 5106 4666 
L 5106 4331 
L 4513 4331 
L 4513 1856 
Q 4513 791 4103 350 
Q 3694 -91 2713 -91 
Q 1731 -91 1314 353 
Q 897 797 897 1856 
L 897 4331 
z
" transform="scale(0.015625)"/>
        <path id="DejaVuSerif-50" d="M 1581 2375 
L 2406 2375 
Q 2872 2375 3115 2626 
Q 3359 2878 3359 3353 
Q 3359 3831 3115 4081 
Q 2872 4331 2406 4331 
L 1581 4331 
L 1581 2375 
z
M 353 0 
L 353 331 
L 947 331 
L 947 4331 
L 353 4331 
L 353 4666 
L 2559 4666 
Q 3259 4666 3668 4311 
Q 4078 3956 4078 3353 
Q 4078 2753 3668 2397 
Q 3259 2041 2559 2041 
L 1581 2041 
L 1581 331 
L 2303 331 
L 2303 0 
L 353 0 
z
" transform="scale(0.015625)"/>
        <path id="DejaVuSerif-41" d="M 1281 1691 
L 2994 1691 
L 2138 3909 
L 1281 1691 
z
M -38 0 
L -38 331 
L 372 331 
L 2034 4666 
L 2559 4666 
L 4225 331 
L 4684 331 
L 4684 0 
L 2988 0 
L 2988 331 
L 3506 331 
L 3116 1356 
L 1153 1356 
L 763 331 
L 1275 331 
L 1275 0 
L -38 0 
z
" transform="scale(0.015625)"/>
        <path id="DejaVuSerif-35" d="M 3219 4666 
L 3219 4153 
L 1081 4153 
L 1081 2816 
Q 1244 2928 1461 2984 
Q 1678 3041 1947 3041 
Q 2703 3041 3140 2622 
Q 3578 2203 3578 1478 
Q 3578 738 3136 323 
Q 2694 -91 1894 -91 
Q 1572 -91 1234 -12 
Q 897 66 544 225 
L 544 1131 
L 897 1131 
Q 925 688 1179 453 
Q 1434 219 1894 219 
Q 2388 219 2653 544 
Q 2919 869 2919 1478 
Q 2919 2084 2655 2407 
Q 2391 2731 1894 2731 
Q 1613 2731 1398 2631 
Q 1184 2531 1019 2322 
L 750 2322 
L 750 4666 
L 3219 4666 
z
" transform="scale(0.015625)"/>
        <path id="DejaVuSerif-30" d="M 2034 219 
Q 2513 219 2750 744 
Q 2988 1269 2988 2328 
Q 2988 3391 2750 3916 
Q 2513 4441 2034 4441 
Q 1556 4441 1318 3916 
Q 1081 3391 1081 2328 
Q 1081 1269 1318 744 
Q 1556 219 2034 219 
z
M 2034 -91 
Q 1275 -91 848 546 
Q 422 1184 422 2328 
Q 422 3475 848 4112 
Q 1275 4750 2034 4750 
Q 2797 4750 3222 4112 
Q 3647 3475 3647 2328 
Q 3647 1184 3222 546 
Q 2797 -91 2034 -91 
z
" transform="scale(0.015625)"/>
       </defs>
       <use xlink:href="#DejaVuSerif-38"/>
       <use xlink:href="#DejaVuSerif-34" x="63.623047"/>
       <use xlink:href="#DejaVuSerif-31" x="127.246094"/>
       <use xlink:href="#DejaVuSerif-20" x="190.869141"/>
       <use xlink:href="#DejaVuSerif-2d" x="222.65625"/>
       <use xlink:href="#DejaVuSerif-20" x="256.445312"/>
       <use xlink:href="#DejaVuSerif-58" x="288.232422"/>
       <use xlink:href="#DejaVuSerif-49" x="359.423828"/>
       <use xlink:href="#DejaVuSerif-4e" x="398.925781"/>
       <use xlink:href="#DejaVuSerif-47" x="486.425781"/>
       <use xlink:href="#DejaVuSerif-55" x="566.308594"/>
       <use xlink:href="#DejaVuSerif-2d" x="648.835938"/>
       <use xlink:href="#DejaVuSerif-2d" x="682.625"/>
       <use xlink:href="#DejaVuSerif-50" x="716.414062"/>
       <use xlink:href="#DejaVuSerif-41" x="774.574219"/>
       <use xlink:href="#DejaVuSerif-35" x="846.791016"/>
       <use xlink:href="#DejaVuSerif-30" x="910.414062"/>
       <use xlink:href="#DejaVuSerif-30" x="974.037109"/>
      </g>
     </g>
    </g>
    <g id="xtick_2">
     <g id="line2d_3">
      <path d="M 139.139394 327.175464 
L 139.139394 28.08375 
" clip-path="url(#pe375c2dfe8)" style="fill: none; stroke: #ffffff; stroke-width: 0.8; stroke-linecap: square"/>
     </g>
     <g id="line2d_4">
      <g>
       <use xlink:href="#m0434b8e950" x="139.139394" y="327.175464" style="stroke: #000000; stroke-width: 0.8"/>
      </g>
     </g>
     <g id="text_2">
      <!-- 802 - LECHUG-AM230 -->
      <g transform="translate(37.927475 398.590279) rotate(-30) scale(0.1 -0.1)">
       <defs>
        <path id="DejaVuSerif-32" d="M 819 3553 
L 469 3553 
L 469 4384 
Q 803 4563 1142 4656 
Q 1481 4750 1806 4750 
Q 2534 4750 2956 4397 
Q 3378 4044 3378 3438 
Q 3378 2753 2422 1800 
Q 2347 1728 2309 1691 
L 1131 513 
L 3078 513 
L 3078 1088 
L 3444 1088 
L 3444 0 
L 434 0 
L 434 341 
L 1850 1753 
Q 2319 2222 2519 2614 
Q 2719 3006 2719 3438 
Q 2719 3909 2473 4175 
Q 2228 4441 1797 4441 
Q 1350 4441 1106 4219 
Q 863 3997 819 3553 
z
" transform="scale(0.015625)"/>
        <path id="DejaVuSerif-4c" d="M 353 0 
L 353 331 
L 947 331 
L 947 4331 
L 353 4331 
L 353 4666 
L 2175 4666 
L 2175 4331 
L 1581 4331 
L 1581 384 
L 3713 384 
L 3713 1166 
L 4097 1166 
L 4097 0 
L 353 0 
z
" transform="scale(0.015625)"/>
        <path id="DejaVuSerif-45" d="M 353 0 
L 353 331 
L 947 331 
L 947 4331 
L 353 4331 
L 353 4666 
L 4109 4666 
L 4109 3628 
L 3725 3628 
L 3725 4281 
L 1581 4281 
L 1581 2719 
L 3109 2719 
L 3109 3303 
L 3494 3303 
L 3494 1753 
L 3109 1753 
L 3109 2338 
L 1581 2338 
L 1581 384 
L 3775 384 
L 3775 1038 
L 4159 1038 
L 4159 0 
L 353 0 
z
" transform="scale(0.015625)"/>
        <path id="DejaVuSerif-43" d="M 4513 1234 
Q 4306 581 3820 245 
Q 3334 -91 2591 -91 
Q 2134 -91 1743 65 
Q 1353 222 1050 525 
Q 700 875 529 1320 
Q 359 1766 359 2328 
Q 359 3416 987 4083 
Q 1616 4750 2644 4750 
Q 3025 4750 3456 4650 
Q 3888 4550 4384 4347 
L 4384 3272 
L 4031 3272 
Q 3916 3859 3567 4137 
Q 3219 4416 2591 4416 
Q 1844 4416 1459 3886 
Q 1075 3356 1075 2328 
Q 1075 1303 1459 773 
Q 1844 244 2591 244 
Q 3113 244 3450 492 
Q 3788 741 3938 1234 
L 4513 1234 
z
" transform="scale(0.015625)"/>
        <path id="DejaVuSerif-48" d="M 353 0 
L 353 331 
L 947 331 
L 947 4331 
L 353 4331 
L 353 4666 
L 2175 4666 
L 2175 4331 
L 1581 4331 
L 1581 2719 
L 4000 2719 
L 4000 4331 
L 3406 4331 
L 3406 4666 
L 5228 4666 
L 5228 4331 
L 4634 4331 
L 4634 331 
L 5228 331 
L 5228 0 
L 3406 0 
L 3406 331 
L 4000 331 
L 4000 2338 
L 1581 2338 
L 1581 331 
L 2175 331 
L 2175 0 
L 353 0 
z
" transform="scale(0.015625)"/>
        <path id="DejaVuSerif-4d" d="M 353 0 
L 353 331 
L 947 331 
L 947 4331 
L 319 4331 
L 319 4666 
L 1678 4666 
L 3316 1344 
L 4953 4666 
L 6228 4666 
L 6228 4331 
L 5606 4331 
L 5606 331 
L 6203 331 
L 6203 0 
L 4378 0 
L 4378 331 
L 4972 331 
L 4972 3938 
L 3372 684 
L 2931 684 
L 1331 3938 
L 1331 331 
L 1925 331 
L 1925 0 
L 353 0 
z
" transform="scale(0.015625)"/>
        <path id="DejaVuSerif-33" d="M 622 4469 
Q 988 4606 1323 4678 
Q 1659 4750 1953 4750 
Q 2638 4750 3022 4454 
Q 3406 4159 3406 3634 
Q 3406 3213 3140 2930 
Q 2875 2647 2388 2547 
Q 2963 2466 3280 2130 
Q 3597 1794 3597 1259 
Q 3597 606 3158 257 
Q 2719 -91 1894 -91 
Q 1528 -91 1179 -12 
Q 831 66 488 225 
L 488 1131 
L 838 1131 
Q 869 681 1141 450 
Q 1413 219 1906 219 
Q 2384 219 2661 495 
Q 2938 772 2938 1253 
Q 2938 1803 2653 2086 
Q 2369 2369 1819 2369 
L 1522 2369 
L 1522 2688 
L 1678 2688 
Q 2225 2688 2498 2914 
Q 2772 3141 2772 3597 
Q 2772 4006 2547 4223 
Q 2322 4441 1900 4441 
Q 1478 4441 1245 4241 
Q 1013 4041 972 3647 
L 622 3647 
L 622 4469 
z
" transform="scale(0.015625)"/>
       </defs>
       <use xlink:href="#DejaVuSerif-38"/>
       <use xlink:href="#DejaVuSerif-30" x="63.623047"/>
       <use xlink:href="#DejaVuSerif-32" x="127.246094"/>
       <use xlink:href="#DejaVuSerif-20" x="190.869141"/>
       <use xlink:href="#DejaVuSerif-2d" x="222.65625"/>
       <use xlink:href="#DejaVuSerif-20" x="256.445312"/>
       <use xlink:href="#DejaVuSerif-4c" x="288.232422"/>
       <use xlink:href="#DejaVuSerif-45" x="354.638672"/>
       <use xlink:href="#DejaVuSerif-43" x="427.636719"/>
       <use xlink:href="#DejaVuSerif-48" x="504.150391"/>
       <use xlink:href="#DejaVuSerif-55" x="591.357422"/>
       <use xlink:href="#DejaVuSerif-47" x="675.634766"/>
       <use xlink:href="#DejaVuSerif-2d" x="757.392578"/>
       <use xlink:href="#DejaVuSerif-41" x="791.181641"/>
       <use xlink:href="#DejaVuSerif-4d" x="863.398438"/>
       <use xlink:href="#DejaVuSerif-32" x="965.791016"/>
       <use xlink:href="#DejaVuSerif-33" x="1029.414062"/>
       <use xlink:href="#DejaVuSerif-30" x="1093.037109"/>
      </g>
     </g>
    </g>
    <g id="xtick_3">
     <g id="line2d_5">
      <path d="M 173.862571 327.175464 
L 173.862571 28.08375 
" clip-path="url(#pe375c2dfe8)" style="fill: none; stroke: #ffffff; stroke-width: 0.8; stroke-linecap: square"/>
     </g>
     <g id="line2d_6">
      <g>
       <use xlink:href="#m0434b8e950" x="173.862571" y="327.175464" style="stroke: #000000; stroke-width: 0.8"/>
      </g>
     </g>
     <g id="text_3">
      <!-- 862 - PERITO-MA230 -->
      <g transform="translate(78.001065 395.501216) rotate(-30) scale(0.1 -0.1)">
       <defs>
        <path id="DejaVuSerif-36" d="M 2094 219 
Q 2534 219 2771 542 
Q 3009 866 3009 1472 
Q 3009 2078 2771 2401 
Q 2534 2725 2094 2725 
Q 1647 2725 1412 2412 
Q 1178 2100 1178 1509 
Q 1178 888 1415 553 
Q 1653 219 2094 219 
z
M 1075 2569 
Q 1288 2803 1556 2918 
Q 1825 3034 2163 3034 
Q 2859 3034 3264 2615 
Q 3669 2197 3669 1472 
Q 3669 763 3233 336 
Q 2797 -91 2069 -91 
Q 1278 -91 853 498 
Q 428 1088 428 2181 
Q 428 3406 931 4078 
Q 1434 4750 2350 4750 
Q 2597 4750 2869 4703 
Q 3141 4656 3425 4563 
L 3425 3794 
L 3072 3794 
Q 3034 4109 2831 4275 
Q 2628 4441 2284 4441 
Q 1678 4441 1381 3981 
Q 1084 3522 1075 2569 
z
" transform="scale(0.015625)"/>
        <path id="DejaVuSerif-52" d="M 3066 2316 
Q 3284 2256 3442 2114 
Q 3600 1972 3725 1716 
L 4403 331 
L 4972 331 
L 4972 0 
L 3872 0 
L 3144 1484 
Q 2934 1916 2759 2042 
Q 2584 2169 2278 2169 
L 1581 2169 
L 1581 331 
L 2241 331 
L 2241 0 
L 353 0 
L 353 331 
L 947 331 
L 947 4331 
L 353 4331 
L 353 4666 
L 2719 4666 
Q 3400 4666 3770 4341 
Q 4141 4016 4141 3419 
Q 4141 2938 3870 2661 
Q 3600 2384 3066 2316 
z
M 1581 2503 
L 2503 2503 
Q 2975 2503 3200 2726 
Q 3425 2950 3425 3419 
Q 3425 3888 3200 4109 
Q 2975 4331 2503 4331 
L 1581 4331 
L 1581 2503 
z
" transform="scale(0.015625)"/>
        <path id="DejaVuSerif-54" d="M 1222 0 
L 1222 331 
L 1819 331 
L 1819 4294 
L 447 4294 
L 447 3566 
L 63 3566 
L 63 4666 
L 4206 4666 
L 4206 3566 
L 3822 3566 
L 3822 4294 
L 2450 4294 
L 2450 331 
L 3047 331 
L 3047 0 
L 1222 0 
z
" transform="scale(0.015625)"/>
        <path id="DejaVuSerif-4f" d="M 2625 244 
Q 3391 244 3781 770 
Q 4172 1297 4172 2328 
Q 4172 3363 3781 3889 
Q 3391 4416 2625 4416 
Q 1856 4416 1465 3889 
Q 1075 3363 1075 2328 
Q 1075 1297 1465 770 
Q 1856 244 2625 244 
z
M 2625 -91 
Q 2150 -91 1751 65 
Q 1353 222 1050 525 
Q 700 875 529 1319 
Q 359 1763 359 2328 
Q 359 2894 529 3339 
Q 700 3784 1050 4134 
Q 1356 4441 1750 4595 
Q 2144 4750 2625 4750 
Q 3641 4750 4266 4084 
Q 4891 3419 4891 2328 
Q 4891 1769 4719 1320 
Q 4547 872 4197 525 
Q 3891 219 3497 64 
Q 3103 -91 2625 -91 
z
" transform="scale(0.015625)"/>
       </defs>
       <use xlink:href="#DejaVuSerif-38"/>
       <use xlink:href="#DejaVuSerif-36" x="63.623047"/>
       <use xlink:href="#DejaVuSerif-32" x="127.246094"/>
       <use xlink:href="#DejaVuSerif-20" x="190.869141"/>
       <use xlink:href="#DejaVuSerif-2d" x="222.65625"/>
       <use xlink:href="#DejaVuSerif-20" x="256.445312"/>
       <use xlink:href="#DejaVuSerif-50" x="288.232422"/>
       <use xlink:href="#DejaVuSerif-45" x="355.517578"/>
       <use xlink:href="#DejaVuSerif-52" x="428.515625"/>
       <use xlink:href="#DejaVuSerif-49" x="503.808594"/>
       <use xlink:href="#DejaVuSerif-54" x="543.310547"/>
       <use xlink:href="#DejaVuSerif-4f" x="610.009766"/>
       <use xlink:href="#DejaVuSerif-2d" x="695.617188"/>
       <use xlink:href="#DejaVuSerif-4d" x="729.40625"/>
       <use xlink:href="#DejaVuSerif-41" x="831.798828"/>
       <use xlink:href="#DejaVuSerif-32" x="904.015625"/>
       <use xlink:href="#DejaVuSerif-33" x="967.638672"/>
       <use xlink:href="#DejaVuSerif-30" x="1031.261719"/>
      </g>
     </g>
    </g>
    <g id="xtick_4">
     <g id="line2d_7">
      <path d="M 208.585749 327.175464 
L 208.585749 28.08375 
" clip-path="url(#pe375c2dfe8)" style="fill: none; stroke: #ffffff; stroke-width: 0.8; stroke-linecap: square"/>
     </g>
     <g id="line2d_8">
      <g>
       <use xlink:href="#m0434b8e950" x="208.585749" y="327.175464" style="stroke: #000000; stroke-width: 0.8"/>
      </g>
     </g>
     <g id="text_4">
      <!-- 862 - MIRAND-MA230 -->
      <g transform="translate(108.258799 398.079341) rotate(-30) scale(0.1 -0.1)">
       <defs>
        <path id="DejaVuSerif-44" d="M 1581 331 
L 2163 331 
Q 3072 331 3558 850 
Q 4044 1369 4044 2338 
Q 4044 3306 3559 3818 
Q 3075 4331 2163 4331 
L 1581 4331 
L 1581 331 
z
M 353 0 
L 353 331 
L 947 331 
L 947 4331 
L 353 4331 
L 353 4666 
L 2209 4666 
Q 3416 4666 4089 4050 
Q 4763 3434 4763 2338 
Q 4763 1238 4088 619 
Q 3413 0 2209 0 
L 353 0 
z
" transform="scale(0.015625)"/>
       </defs>
       <use xlink:href="#DejaVuSerif-38"/>
       <use xlink:href="#DejaVuSerif-36" x="63.623047"/>
       <use xlink:href="#DejaVuSerif-32" x="127.246094"/>
       <use xlink:href="#DejaVuSerif-20" x="190.869141"/>
       <use xlink:href="#DejaVuSerif-2d" x="222.65625"/>
       <use xlink:href="#DejaVuSerif-20" x="256.445312"/>
       <use xlink:href="#DejaVuSerif-4d" x="288.232422"/>
       <use xlink:href="#DejaVuSerif-49" x="390.625"/>
       <use xlink:href="#DejaVuSerif-52" x="430.126953"/>
       <use xlink:href="#DejaVuSerif-41" x="505.419922"/>
       <use xlink:href="#DejaVuSerif-4e" x="577.636719"/>
       <use xlink:href="#DejaVuSerif-44" x="665.136719"/>
       <use xlink:href="#DejaVuSerif-2d" x="747.1875"/>
       <use xlink:href="#DejaVuSerif-4d" x="780.976562"/>
       <use xlink:href="#DejaVuSerif-41" x="883.369141"/>
       <use xlink:href="#DejaVuSerif-32" x="955.585938"/>
       <use xlink:href="#DejaVuSerif-33" x="1019.208984"/>
       <use xlink:href="#DejaVuSerif-30" x="1082.832031"/>
      </g>
     </g>
    </g>
    <g id="xtick_5">
     <g id="line2d_9">
      <path d="M 243.308926 327.175464 
L 243.308926 28.08375 
" clip-path="url(#pe375c2dfe8)" style="fill: none; stroke: #ffffff; stroke-width: 0.8; stroke-linecap: square"/>
     </g>
     <g id="line2d_10">
      <g>
       <use xlink:href="#m0434b8e950" x="243.308926" y="327.175464" style="stroke: #000000; stroke-width: 0.8"/>
      </g>
     </g>
     <g id="text_5">
      <!-- 843 - UTINGA-PA230 -->
      <g transform="translate(149.31208 394.424654) rotate(-30) scale(0.1 -0.1)">
       <use xlink:href="#DejaVuSerif-38"/>
       <use xlink:href="#DejaVuSerif-34" x="63.623047"/>
       <use xlink:href="#DejaVuSerif-33" x="127.246094"/>
       <use xlink:href="#DejaVuSerif-20" x="190.869141"/>
       <use xlink:href="#DejaVuSerif-2d" x="222.65625"/>
       <use xlink:href="#DejaVuSerif-20" x="256.445312"/>
       <use xlink:href="#DejaVuSerif-55" x="288.232422"/>
       <use xlink:href="#DejaVuSerif-54" x="372.509766"/>
       <use xlink:href="#DejaVuSerif-49" x="439.208984"/>
       <use xlink:href="#DejaVuSerif-4e" x="478.710938"/>
       <use xlink:href="#DejaVuSerif-47" x="566.210938"/>
       <use xlink:href="#DejaVuSerif-41" x="646.09375"/>
       <use xlink:href="#DejaVuSerif-2d" x="718.310547"/>
       <use xlink:href="#DejaVuSerif-50" x="752.099609"/>
       <use xlink:href="#DejaVuSerif-41" x="810.259766"/>
       <use xlink:href="#DejaVuSerif-32" x="882.476562"/>
       <use xlink:href="#DejaVuSerif-33" x="946.099609"/>
       <use xlink:href="#DejaVuSerif-30" x="1009.722656"/>
      </g>
     </g>
    </g>
    <g id="xtick_6">
     <g id="line2d_11">
      <path d="M 278.032103 327.175464 
L 278.032103 28.08375 
" clip-path="url(#pe375c2dfe8)" style="fill: none; stroke: #ffffff; stroke-width: 0.8; stroke-linecap: square"/>
     </g>
     <g id="line2d_12">
      <g>
       <use xlink:href="#m0434b8e950" x="278.032103" y="327.175464" style="stroke: #000000; stroke-width: 0.8"/>
      </g>
     </g>
     <g id="text_6">
      <!-- 843 - STA.MA-PA230 -->
      <g transform="translate(185.921569 393.335591) rotate(-30) scale(0.1 -0.1)">
       <defs>
        <path id="DejaVuSerif-53" d="M 594 225 
L 594 1288 
L 953 1284 
Q 969 753 1261 498 
Q 1553 244 2150 244 
Q 2706 244 2998 464 
Q 3291 684 3291 1106 
Q 3291 1444 3114 1625 
Q 2938 1806 2369 1978 
L 1753 2163 
Q 1084 2366 811 2669 
Q 538 2972 538 3500 
Q 538 4094 959 4422 
Q 1381 4750 2144 4750 
Q 2469 4750 2856 4679 
Q 3244 4609 3681 4475 
L 3681 3481 
L 3328 3481 
Q 3275 3975 2998 4195 
Q 2722 4416 2156 4416 
Q 1663 4416 1405 4214 
Q 1147 4013 1147 3628 
Q 1147 3294 1340 3103 
Q 1534 2913 2163 2725 
L 2741 2553 
Q 3375 2363 3645 2067 
Q 3916 1772 3916 1275 
Q 3916 597 3481 253 
Q 3047 -91 2188 -91 
Q 1803 -91 1404 -12 
Q 1006 66 594 225 
z
" transform="scale(0.015625)"/>
        <path id="DejaVuSerif-2e" d="M 603 325 
Q 603 500 722 622 
Q 841 744 1019 744 
Q 1191 744 1312 622 
Q 1434 500 1434 325 
Q 1434 153 1312 31 
Q 1191 -91 1019 -91 
Q 841 -91 722 29 
Q 603 150 603 325 
z
" transform="scale(0.015625)"/>
       </defs>
       <use xlink:href="#DejaVuSerif-38"/>
       <use xlink:href="#DejaVuSerif-34" x="63.623047"/>
       <use xlink:href="#DejaVuSerif-33" x="127.246094"/>
       <use xlink:href="#DejaVuSerif-20" x="190.869141"/>
       <use xlink:href="#DejaVuSerif-2d" x="222.65625"/>
       <use xlink:href="#DejaVuSerif-20" x="256.445312"/>
       <use xlink:href="#DejaVuSerif-53" x="288.232422"/>
       <use xlink:href="#DejaVuSerif-54" x="356.738281"/>
       <use xlink:href="#DejaVuSerif-41" x="417.9375"/>
       <use xlink:href="#DejaVuSerif-2e" x="490.154297"/>
       <use xlink:href="#DejaVuSerif-4d" x="521.941406"/>
       <use xlink:href="#DejaVuSerif-41" x="624.333984"/>
       <use xlink:href="#DejaVuSerif-2d" x="696.550781"/>
       <use xlink:href="#DejaVuSerif-50" x="730.339844"/>
       <use xlink:href="#DejaVuSerif-41" x="788.5"/>
       <use xlink:href="#DejaVuSerif-32" x="860.716797"/>
       <use xlink:href="#DejaVuSerif-33" x="924.339844"/>
       <use xlink:href="#DejaVuSerif-30" x="987.962891"/>
      </g>
     </g>
    </g>
    <g id="xtick_7">
     <g id="line2d_13">
      <path d="M 312.75528 327.175464 
L 312.75528 28.08375 
" clip-path="url(#pe375c2dfe8)" style="fill: none; stroke: #ffffff; stroke-width: 0.8; stroke-linecap: square"/>
     </g>
     <g id="line2d_14">
      <g>
       <use xlink:href="#m0434b8e950" x="312.75528" y="327.175464" style="stroke: #000000; stroke-width: 0.8"/>
      </g>
     </g>
     <g id="text_7">
      <!-- 843 - V.COND-PA230 -->
      <g transform="translate(220.104834 393.64731) rotate(-30) scale(0.1 -0.1)">
       <defs>
        <path id="DejaVuSerif-56" d="M 1119 4331 
L 2497 750 
L 3872 4331 
L 3347 4331 
L 3347 4666 
L 4716 4666 
L 4716 4331 
L 4263 4331 
L 2597 0 
L 2059 0 
L 403 4331 
L -63 4331 
L -63 4666 
L 1638 4666 
L 1638 4331 
L 1119 4331 
z
" transform="scale(0.015625)"/>
       </defs>
       <use xlink:href="#DejaVuSerif-38"/>
       <use xlink:href="#DejaVuSerif-34" x="63.623047"/>
       <use xlink:href="#DejaVuSerif-33" x="127.246094"/>
       <use xlink:href="#DejaVuSerif-20" x="190.869141"/>
       <use xlink:href="#DejaVuSerif-2d" x="222.65625"/>
       <use xlink:href="#DejaVuSerif-20" x="256.445312"/>
       <use xlink:href="#DejaVuSerif-56" x="288.232422"/>
       <use xlink:href="#DejaVuSerif-2e" x="342.949219"/>
       <use xlink:href="#DejaVuSerif-43" x="374.736328"/>
       <use xlink:href="#DejaVuSerif-4f" x="451.25"/>
       <use xlink:href="#DejaVuSerif-4e" x="533.232422"/>
       <use xlink:href="#DejaVuSerif-44" x="620.732422"/>
       <use xlink:href="#DejaVuSerif-2d" x="702.783203"/>
       <use xlink:href="#DejaVuSerif-50" x="736.572266"/>
       <use xlink:href="#DejaVuSerif-41" x="794.732422"/>
       <use xlink:href="#DejaVuSerif-32" x="866.949219"/>
       <use xlink:href="#DejaVuSerif-33" x="930.572266"/>
       <use xlink:href="#DejaVuSerif-30" x="994.195312"/>
      </g>
     </g>
    </g>
    <g id="xtick_8">
     <g id="line2d_15">
      <path d="M 347.478457 327.175464 
L 347.478457 28.08375 
" clip-path="url(#pe375c2dfe8)" style="fill: none; stroke: #ffffff; stroke-width: 0.8; stroke-linecap: square"/>
     </g>
     <g id="line2d_16">
      <g>
       <use xlink:href="#m0434b8e950" x="347.478457" y="327.175464" style="stroke: #000000; stroke-width: 0.8"/>
      </g>
     </g>
     <g id="text_8">
      <!-- 862 - BALSAS-MA230 -->
      <g transform="translate(250.095994 396.379341) rotate(-30) scale(0.1 -0.1)">
       <defs>
        <path id="DejaVuSerif-42" d="M 1581 331 
L 2516 331 
Q 3078 331 3337 575 
Q 3597 819 3597 1350 
Q 3597 1878 3339 2120 
Q 3081 2363 2516 2363 
L 1581 2363 
L 1581 331 
z
M 1581 2694 
L 2375 2694 
Q 2888 2694 3123 2891 
Q 3359 3088 3359 3513 
Q 3359 3941 3123 4136 
Q 2888 4331 2375 4331 
L 1581 4331 
L 1581 2694 
z
M 353 0 
L 353 331 
L 947 331 
L 947 4331 
L 353 4331 
L 353 4666 
L 2656 4666 
Q 3363 4666 3720 4377 
Q 4078 4088 4078 3513 
Q 4078 3097 3829 2850 
Q 3581 2603 3103 2547 
Q 3697 2472 4005 2167 
Q 4313 1863 4313 1350 
Q 4313 656 3875 328 
Q 3438 0 2509 0 
L 353 0 
z
" transform="scale(0.015625)"/>
       </defs>
       <use xlink:href="#DejaVuSerif-38"/>
       <use xlink:href="#DejaVuSerif-36" x="63.623047"/>
       <use xlink:href="#DejaVuSerif-32" x="127.246094"/>
       <use xlink:href="#DejaVuSerif-20" x="190.869141"/>
       <use xlink:href="#DejaVuSerif-2d" x="222.65625"/>
       <use xlink:href="#DejaVuSerif-20" x="256.445312"/>
       <use xlink:href="#DejaVuSerif-42" x="288.232422"/>
       <use xlink:href="#DejaVuSerif-41" x="361.71875"/>
       <use xlink:href="#DejaVuSerif-4c" x="433.935547"/>
       <use xlink:href="#DejaVuSerif-53" x="500.341797"/>
       <use xlink:href="#DejaVuSerif-41" x="568.847656"/>
       <use xlink:href="#DejaVuSerif-53" x="641.064453"/>
       <use xlink:href="#DejaVuSerif-2d" x="713.195312"/>
       <use xlink:href="#DejaVuSerif-4d" x="746.984375"/>
       <use xlink:href="#DejaVuSerif-41" x="849.376953"/>
       <use xlink:href="#DejaVuSerif-32" x="921.59375"/>
       <use xlink:href="#DejaVuSerif-33" x="985.216797"/>
       <use xlink:href="#DejaVuSerif-30" x="1048.839844"/>
      </g>
     </g>
    </g>
    <g id="xtick_9">
     <g id="line2d_17">
      <path d="M 382.201635 327.175464 
L 382.201635 28.08375 
" clip-path="url(#pe375c2dfe8)" style="fill: none; stroke: #ffffff; stroke-width: 0.8; stroke-linecap: square"/>
     </g>
     <g id="line2d_18">
      <g>
       <use xlink:href="#m0434b8e950" x="382.201635" y="327.175464" style="stroke: #000000; stroke-width: 0.8"/>
      </g>
     </g>
     <g id="text_9">
      <!-- 862 - C.NETO-MA230 -->
      <g transform="translate(285.465984 396.005904) rotate(-30) scale(0.1 -0.1)">
       <use xlink:href="#DejaVuSerif-38"/>
       <use xlink:href="#DejaVuSerif-36" x="63.623047"/>
       <use xlink:href="#DejaVuSerif-32" x="127.246094"/>
       <use xlink:href="#DejaVuSerif-20" x="190.869141"/>
       <use xlink:href="#DejaVuSerif-2d" x="222.65625"/>
       <use xlink:href="#DejaVuSerif-20" x="256.445312"/>
       <use xlink:href="#DejaVuSerif-43" x="288.232422"/>
       <use xlink:href="#DejaVuSerif-2e" x="361.121094"/>
       <use xlink:href="#DejaVuSerif-4e" x="392.908203"/>
       <use xlink:href="#DejaVuSerif-45" x="480.408203"/>
       <use xlink:href="#DejaVuSerif-54" x="553.40625"/>
       <use xlink:href="#DejaVuSerif-4f" x="620.105469"/>
       <use xlink:href="#DejaVuSerif-2d" x="705.712891"/>
       <use xlink:href="#DejaVuSerif-4d" x="739.501953"/>
       <use xlink:href="#DejaVuSerif-41" x="841.894531"/>
       <use xlink:href="#DejaVuSerif-32" x="914.111328"/>
       <use xlink:href="#DejaVuSerif-33" x="977.734375"/>
       <use xlink:href="#DejaVuSerif-30" x="1041.357422"/>
      </g>
     </g>
    </g>
    <g id="xtick_10">
     <g id="line2d_19">
      <path d="M 416.924812 327.175464 
L 416.924812 28.08375 
" clip-path="url(#pe375c2dfe8)" style="fill: none; stroke: #ffffff; stroke-width: 0.8; stroke-linecap: square"/>
     </g>
     <g id="line2d_20">
      <g>
       <use xlink:href="#m0434b8e950" x="416.924812" y="327.175464" style="stroke: #000000; stroke-width: 0.8"/>
      </g>
     </g>
     <g id="text_10">
      <!-- 866 - HEINKN-MA230 -->
      <g transform="translate(317.424645 397.601998) rotate(-30) scale(0.1 -0.1)">
       <defs>
        <path id="DejaVuSerif-4b" d="M 353 0 
L 353 331 
L 947 331 
L 947 4331 
L 353 4331 
L 353 4666 
L 2175 4666 
L 2175 4331 
L 1581 4331 
L 1581 2566 
L 3591 4331 
L 3084 4331 
L 3084 4666 
L 4634 4666 
L 4634 4331 
L 4109 4331 
L 2106 2572 
L 4347 331 
L 4878 331 
L 4878 0 
L 3794 0 
L 1581 2216 
L 1581 331 
L 2175 331 
L 2175 0 
L 353 0 
z
" transform="scale(0.015625)"/>
       </defs>
       <use xlink:href="#DejaVuSerif-38"/>
       <use xlink:href="#DejaVuSerif-36" x="63.623047"/>
       <use xlink:href="#DejaVuSerif-36" x="127.246094"/>
       <use xlink:href="#DejaVuSerif-20" x="190.869141"/>
       <use xlink:href="#DejaVuSerif-2d" x="222.65625"/>
       <use xlink:href="#DejaVuSerif-20" x="256.445312"/>
       <use xlink:href="#DejaVuSerif-48" x="288.232422"/>
       <use xlink:href="#DejaVuSerif-45" x="375.439453"/>
       <use xlink:href="#DejaVuSerif-49" x="448.4375"/>
       <use xlink:href="#DejaVuSerif-4e" x="487.939453"/>
       <use xlink:href="#DejaVuSerif-4b" x="575.439453"/>
       <use xlink:href="#DejaVuSerif-4e" x="650.146484"/>
       <use xlink:href="#DejaVuSerif-2d" x="737.646484"/>
       <use xlink:href="#DejaVuSerif-4d" x="771.435547"/>
       <use xlink:href="#DejaVuSerif-41" x="873.828125"/>
       <use xlink:href="#DejaVuSerif-32" x="946.044922"/>
       <use xlink:href="#DejaVuSerif-33" x="1009.667969"/>
       <use xlink:href="#DejaVuSerif-30" x="1073.291016"/>
      </g>
     </g>
    </g>
    <g id="xtick_11">
     <g id="line2d_21">
      <path d="M 451.647989 327.175464 
L 451.647989 28.08375 
" clip-path="url(#pe375c2dfe8)" style="fill: none; stroke: #ffffff; stroke-width: 0.8; stroke-linecap: square"/>
     </g>
     <g id="line2d_22">
      <g>
       <use xlink:href="#m0434b8e950" x="451.647989" y="327.175464" style="stroke: #000000; stroke-width: 0.8"/>
      </g>
     </g>
     <g id="text_11">
      <!-- 861 - SLUIS2-MA500 -->
      <g transform="translate(357.698504 394.39731) rotate(-30) scale(0.1 -0.1)">
       <use xlink:href="#DejaVuSerif-38"/>
       <use xlink:href="#DejaVuSerif-36" x="63.623047"/>
       <use xlink:href="#DejaVuSerif-31" x="127.246094"/>
       <use xlink:href="#DejaVuSerif-20" x="190.869141"/>
       <use xlink:href="#DejaVuSerif-2d" x="222.65625"/>
       <use xlink:href="#DejaVuSerif-20" x="256.445312"/>
       <use xlink:href="#DejaVuSerif-53" x="288.232422"/>
       <use xlink:href="#DejaVuSerif-4c" x="356.738281"/>
       <use xlink:href="#DejaVuSerif-55" x="417.644531"/>
       <use xlink:href="#DejaVuSerif-49" x="501.921875"/>
       <use xlink:href="#DejaVuSerif-53" x="541.423828"/>
       <use xlink:href="#DejaVuSerif-32" x="609.929688"/>
       <use xlink:href="#DejaVuSerif-2d" x="673.552734"/>
       <use xlink:href="#DejaVuSerif-4d" x="707.341797"/>
       <use xlink:href="#DejaVuSerif-41" x="809.734375"/>
       <use xlink:href="#DejaVuSerif-35" x="881.951172"/>
       <use xlink:href="#DejaVuSerif-30" x="945.574219"/>
       <use xlink:href="#DejaVuSerif-30" x="1009.197266"/>
      </g>
     </g>
    </g>
    <g id="xtick_12">
     <g id="line2d_23">
      <path d="M 486.371166 327.175464 
L 486.371166 28.08375 
" clip-path="url(#pe375c2dfe8)" style="fill: none; stroke: #ffffff; stroke-width: 0.8; stroke-linecap: square"/>
     </g>
     <g id="line2d_24">
      <g>
       <use xlink:href="#m0434b8e950" x="486.371166" y="327.175464" style="stroke: #000000; stroke-width: 0.8"/>
      </g>
     </g>
     <g id="text_12">
      <!-- 862 - SLUIS2-MA230 -->
      <g transform="translate(392.421681 394.39731) rotate(-30) scale(0.1 -0.1)">
       <use xlink:href="#DejaVuSerif-38"/>
       <use xlink:href="#DejaVuSerif-36" x="63.623047"/>
       <use xlink:href="#DejaVuSerif-32" x="127.246094"/>
       <use xlink:href="#DejaVuSerif-20" x="190.869141"/>
       <use xlink:href="#DejaVuSerif-2d" x="222.65625"/>
       <use xlink:href="#DejaVuSerif-20" x="256.445312"/>
       <use xlink:href="#DejaVuSerif-53" x="288.232422"/>
       <use xlink:href="#DejaVuSerif-4c" x="356.738281"/>
       <use xlink:href="#DejaVuSerif-55" x="417.644531"/>
       <use xlink:href="#DejaVuSerif-49" x="501.921875"/>
       <use xlink:href="#DejaVuSerif-53" x="541.423828"/>
       <use xlink:href="#DejaVuSerif-32" x="609.929688"/>
       <use xlink:href="#DejaVuSerif-2d" x="673.552734"/>
       <use xlink:href="#DejaVuSerif-4d" x="707.341797"/>
       <use xlink:href="#DejaVuSerif-41" x="809.734375"/>
       <use xlink:href="#DejaVuSerif-32" x="881.951172"/>
       <use xlink:href="#DejaVuSerif-33" x="945.574219"/>
       <use xlink:href="#DejaVuSerif-30" x="1009.197266"/>
      </g>
     </g>
    </g>
    <g id="xtick_13">
     <g id="line2d_25">
      <path d="M 521.094343 327.175464 
L 521.094343 28.08375 
" clip-path="url(#pe375c2dfe8)" style="fill: none; stroke: #ffffff; stroke-width: 0.8; stroke-linecap: square"/>
     </g>
     <g id="line2d_26">
      <g>
       <use xlink:href="#m0434b8e950" x="521.094343" y="327.175464" style="stroke: #000000; stroke-width: 0.8"/>
      </g>
     </g>
     <g id="text_13">
      <!-- 862 - GERANO-MA230 -->
      <g transform="translate(419.506244 398.807466) rotate(-30) scale(0.1 -0.1)">
       <use xlink:href="#DejaVuSerif-38"/>
       <use xlink:href="#DejaVuSerif-36" x="63.623047"/>
       <use xlink:href="#DejaVuSerif-32" x="127.246094"/>
       <use xlink:href="#DejaVuSerif-20" x="190.869141"/>
       <use xlink:href="#DejaVuSerif-2d" x="222.65625"/>
       <use xlink:href="#DejaVuSerif-20" x="256.445312"/>
       <use xlink:href="#DejaVuSerif-47" x="288.232422"/>
       <use xlink:href="#DejaVuSerif-45" x="368.115234"/>
       <use xlink:href="#DejaVuSerif-52" x="441.113281"/>
       <use xlink:href="#DejaVuSerif-41" x="516.40625"/>
       <use xlink:href="#DejaVuSerif-4e" x="588.623047"/>
       <use xlink:href="#DejaVuSerif-4f" x="676.123047"/>
       <use xlink:href="#DejaVuSerif-2d" x="761.730469"/>
       <use xlink:href="#DejaVuSerif-4d" x="795.519531"/>
       <use xlink:href="#DejaVuSerif-41" x="897.912109"/>
       <use xlink:href="#DejaVuSerif-32" x="970.128906"/>
       <use xlink:href="#DejaVuSerif-33" x="1033.751953"/>
       <use xlink:href="#DejaVuSerif-30" x="1097.375"/>
      </g>
     </g>
    </g>
    <g id="xtick_14">
     <g id="line2d_27">
      <path d="M 555.817521 327.175464 
L 555.817521 28.08375 
" clip-path="url(#pe375c2dfe8)" style="fill: none; stroke: #ffffff; stroke-width: 0.8; stroke-linecap: square"/>
     </g>
     <g id="line2d_28">
      <g>
       <use xlink:href="#m0434b8e950" x="555.817521" y="327.175464" style="stroke: #000000; stroke-width: 0.8"/>
      </g>
     </g>
     <g id="text_14">
      <!-- 862 - SLUIS1-MA230 -->
      <g transform="translate(461.868036 394.39731) rotate(-30) scale(0.1 -0.1)">
       <use xlink:href="#DejaVuSerif-38"/>
       <use xlink:href="#DejaVuSerif-36" x="63.623047"/>
       <use xlink:href="#DejaVuSerif-32" x="127.246094"/>
       <use xlink:href="#DejaVuSerif-20" x="190.869141"/>
       <use xlink:href="#DejaVuSerif-2d" x="222.65625"/>
       <use xlink:href="#DejaVuSerif-20" x="256.445312"/>
       <use xlink:href="#DejaVuSerif-53" x="288.232422"/>
       <use xlink:href="#DejaVuSerif-4c" x="356.738281"/>
       <use xlink:href="#DejaVuSerif-55" x="417.644531"/>
       <use xlink:href="#DejaVuSerif-49" x="501.921875"/>
       <use xlink:href="#DejaVuSerif-53" x="541.423828"/>
       <use xlink:href="#DejaVuSerif-31" x="609.929688"/>
       <use xlink:href="#DejaVuSerif-2d" x="673.552734"/>
       <use xlink:href="#DejaVuSerif-4d" x="707.341797"/>
       <use xlink:href="#DejaVuSerif-41" x="809.734375"/>
       <use xlink:href="#DejaVuSerif-32" x="881.951172"/>
       <use xlink:href="#DejaVuSerif-33" x="945.574219"/>
       <use xlink:href="#DejaVuSerif-30" x="1009.197266"/>
      </g>
     </g>
    </g>
    <g id="xtick_15">
     <g id="line2d_29">
      <path d="M 590.540698 327.175464 
L 590.540698 28.08375 
" clip-path="url(#pe375c2dfe8)" style="fill: none; stroke: #ffffff; stroke-width: 0.8; stroke-linecap: square"/>
     </g>
     <g id="line2d_30">
      <g>
       <use xlink:href="#m0434b8e950" x="590.540698" y="327.175464" style="stroke: #000000; stroke-width: 0.8"/>
      </g>
     </g>
     <g id="text_15">
      <!-- 861 - P.DUTR-MA500 -->
      <g transform="translate(496.595273 394.394966) rotate(-30) scale(0.1 -0.1)">
       <use xlink:href="#DejaVuSerif-38"/>
       <use xlink:href="#DejaVuSerif-36" x="63.623047"/>
       <use xlink:href="#DejaVuSerif-31" x="127.246094"/>
       <use xlink:href="#DejaVuSerif-20" x="190.869141"/>
       <use xlink:href="#DejaVuSerif-2d" x="222.65625"/>
       <use xlink:href="#DejaVuSerif-20" x="256.445312"/>
       <use xlink:href="#DejaVuSerif-50" x="288.232422"/>
       <use xlink:href="#DejaVuSerif-2e" x="335.267578"/>
       <use xlink:href="#DejaVuSerif-44" x="367.054688"/>
       <use xlink:href="#DejaVuSerif-55" x="447.230469"/>
       <use xlink:href="#DejaVuSerif-54" x="531.507812"/>
       <use xlink:href="#DejaVuSerif-52" x="598.207031"/>
       <use xlink:href="#DejaVuSerif-2d" x="673.5"/>
       <use xlink:href="#DejaVuSerif-4d" x="707.289062"/>
       <use xlink:href="#DejaVuSerif-41" x="809.681641"/>
       <use xlink:href="#DejaVuSerif-35" x="881.898438"/>
       <use xlink:href="#DejaVuSerif-30" x="945.521484"/>
       <use xlink:href="#DejaVuSerif-30" x="1009.144531"/>
      </g>
     </g>
    </g>
    <g id="text_16">
     <!-- Bus -->
     <g transform="translate(331.396192 417.525872) scale(0.17 -0.17)">
      <defs>
       <path id="DejaVuSerif-75" d="M 2266 3322 
L 3341 3322 
L 3341 331 
L 3884 331 
L 3884 0 
L 2766 0 
L 2766 588 
Q 2606 256 2353 82 
Q 2100 -91 1766 -91 
Q 1213 -91 952 223 
Q 691 538 691 1209 
L 691 2988 
L 172 2988 
L 172 3322 
L 1269 3322 
L 1269 1388 
Q 1269 781 1417 556 
Q 1566 331 1947 331 
Q 2347 331 2556 625 
Q 2766 919 2766 1478 
L 2766 2988 
L 2266 2988 
L 2266 3322 
z
" transform="scale(0.015625)"/>
       <path id="DejaVuSerif-73" d="M 359 184 
L 359 959 
L 691 959 
Q 703 588 923 403 
Q 1144 219 1575 219 
Q 1963 219 2166 364 
Q 2369 509 2369 788 
Q 2369 1006 2220 1140 
Q 2072 1275 1594 1428 
L 1178 1569 
Q 750 1706 558 1912 
Q 366 2119 366 2438 
Q 366 2894 700 3153 
Q 1034 3413 1625 3413 
Q 1888 3413 2178 3344 
Q 2469 3275 2778 3144 
L 2778 2419 
L 2447 2419 
Q 2434 2741 2221 2922 
Q 2009 3103 1644 3103 
Q 1281 3103 1095 2975 
Q 909 2847 909 2591 
Q 909 2381 1050 2254 
Q 1191 2128 1613 1997 
L 2069 1856 
Q 2541 1709 2748 1489 
Q 2956 1269 2956 922 
Q 2956 450 2595 179 
Q 2234 -91 1600 -91 
Q 1278 -91 972 -22 
Q 666 47 359 184 
z
" transform="scale(0.015625)"/>
      </defs>
      <use xlink:href="#DejaVuSerif-42"/>
      <use xlink:href="#DejaVuSerif-75" x="73.486328"/>
      <use xlink:href="#DejaVuSerif-73" x="137.890625"/>
     </g>
    </g>
   </g>
   <g id="matplotlib.axis_2">
    <g id="ytick_1">
     <g id="line2d_31">
      <path d="M 80.109993 313.580386 
L 614.846922 313.580386 
" clip-path="url(#pe375c2dfe8)" style="fill: none; stroke: #ffffff; stroke-width: 0.8; stroke-linecap: square"/>
     </g>
     <g id="line2d_32">
      <defs>
       <path id="mccd1687090" d="M 0 0 
L -3.5 0 
" style="stroke: #000000; stroke-width: 0.8"/>
      </defs>
      <g>
       <use xlink:href="#mccd1687090" x="80.109993" y="313.580386" style="stroke: #000000; stroke-width: 0.8"/>
      </g>
     </g>
     <g id="text_17">
      <!-- 0.0 -->
      <g transform="translate(49.255305 319.279214) scale(0.15 -0.15)">
       <use xlink:href="#DejaVuSerif-30"/>
       <use xlink:href="#DejaVuSerif-2e" x="63.623047"/>
       <use xlink:href="#DejaVuSerif-30" x="95.410156"/>
      </g>
     </g>
    </g>
    <g id="ytick_2">
     <g id="line2d_33">
      <path d="M 80.109993 255.952003 
L 614.846922 255.952003 
" clip-path="url(#pe375c2dfe8)" style="fill: none; stroke: #ffffff; stroke-width: 0.8; stroke-linecap: square"/>
     </g>
     <g id="line2d_34">
      <g>
       <use xlink:href="#mccd1687090" x="80.109993" y="255.952003" style="stroke: #000000; stroke-width: 0.8"/>
      </g>
     </g>
     <g id="text_18">
      <!-- 0.2 -->
      <g transform="translate(49.255305 261.650831) scale(0.15 -0.15)">
       <use xlink:href="#DejaVuSerif-30"/>
       <use xlink:href="#DejaVuSerif-2e" x="63.623047"/>
       <use xlink:href="#DejaVuSerif-32" x="95.410156"/>
      </g>
     </g>
    </g>
    <g id="ytick_3">
     <g id="line2d_35">
      <path d="M 80.109993 198.32362 
L 614.846922 198.32362 
" clip-path="url(#pe375c2dfe8)" style="fill: none; stroke: #ffffff; stroke-width: 0.8; stroke-linecap: square"/>
     </g>
     <g id="line2d_36">
      <g>
       <use xlink:href="#mccd1687090" x="80.109993" y="198.32362" style="stroke: #000000; stroke-width: 0.8"/>
      </g>
     </g>
     <g id="text_19">
      <!-- 0.4 -->
      <g transform="translate(49.255305 204.022448) scale(0.15 -0.15)">
       <use xlink:href="#DejaVuSerif-30"/>
       <use xlink:href="#DejaVuSerif-2e" x="63.623047"/>
       <use xlink:href="#DejaVuSerif-34" x="95.410156"/>
      </g>
     </g>
    </g>
    <g id="ytick_4">
     <g id="line2d_37">
      <path d="M 80.109993 140.695237 
L 614.846922 140.695237 
" clip-path="url(#pe375c2dfe8)" style="fill: none; stroke: #ffffff; stroke-width: 0.8; stroke-linecap: square"/>
     </g>
     <g id="line2d_38">
      <g>
       <use xlink:href="#mccd1687090" x="80.109993" y="140.695237" style="stroke: #000000; stroke-width: 0.8"/>
      </g>
     </g>
     <g id="text_20">
      <!-- 0.6 -->
      <g transform="translate(49.255305 146.394065) scale(0.15 -0.15)">
       <use xlink:href="#DejaVuSerif-30"/>
       <use xlink:href="#DejaVuSerif-2e" x="63.623047"/>
       <use xlink:href="#DejaVuSerif-36" x="95.410156"/>
      </g>
     </g>
    </g>
    <g id="ytick_5">
     <g id="line2d_39">
      <path d="M 80.109993 83.066854 
L 614.846922 83.066854 
" clip-path="url(#pe375c2dfe8)" style="fill: none; stroke: #ffffff; stroke-width: 0.8; stroke-linecap: square"/>
     </g>
     <g id="line2d_40">
      <g>
       <use xlink:href="#mccd1687090" x="80.109993" y="83.066854" style="stroke: #000000; stroke-width: 0.8"/>
      </g>
     </g>
     <g id="text_21">
      <!-- 0.8 -->
      <g transform="translate(49.255305 88.765682) scale(0.15 -0.15)">
       <use xlink:href="#DejaVuSerif-30"/>
       <use xlink:href="#DejaVuSerif-2e" x="63.623047"/>
       <use xlink:href="#DejaVuSerif-38" x="95.410156"/>
      </g>
     </g>
    </g>
    <g id="text_22">
     <!-- (p.u) -->
     <g transform="translate(41.719837 197.879529) rotate(-90) scale(0.17 -0.17)">
      <defs>
       <path id="DejaVuSerif-28" d="M 2041 -997 
Q 1281 -656 893 83 
Q 506 822 506 1931 
Q 506 3044 893 3783 
Q 1281 4522 2041 4863 
L 2041 4556 
Q 1559 4225 1350 3623 
Q 1141 3022 1141 1931 
Q 1141 844 1350 242 
Q 1559 -359 2041 -691 
L 2041 -997 
z
" transform="scale(0.015625)"/>
       <path id="DejaVuSerif-70" d="M 1313 1825 
L 1313 1497 
Q 1313 897 1542 583 
Q 1772 269 2209 269 
Q 2650 269 2876 622 
Q 3103 975 3103 1663 
Q 3103 2353 2876 2703 
Q 2650 3053 2209 3053 
Q 1772 3053 1542 2737 
Q 1313 2422 1313 1825 
z
M 738 2988 
L 184 2988 
L 184 3322 
L 1313 3322 
L 1313 2803 
Q 1481 3116 1742 3264 
Q 2003 3413 2388 3413 
Q 3000 3413 3387 2928 
Q 3775 2444 3775 1663 
Q 3775 881 3387 395 
Q 3000 -91 2388 -91 
Q 2003 -91 1742 57 
Q 1481 206 1313 519 
L 1313 -997 
L 1856 -997 
L 1856 -1331 
L 184 -1331 
L 184 -997 
L 738 -997 
L 738 2988 
z
" transform="scale(0.015625)"/>
       <path id="DejaVuSerif-29" d="M 453 -997 
L 453 -691 
Q 934 -359 1145 242 
Q 1356 844 1356 1931 
Q 1356 3022 1145 3623 
Q 934 4225 453 4556 
L 453 4863 
Q 1216 4522 1603 3783 
Q 1991 3044 1991 1931 
Q 1991 822 1603 83 
Q 1216 -656 453 -997 
z
" transform="scale(0.015625)"/>
      </defs>
      <use xlink:href="#DejaVuSerif-28"/>
      <use xlink:href="#DejaVuSerif-70" x="39.013672"/>
      <use xlink:href="#DejaVuSerif-2e" x="103.027344"/>
      <use xlink:href="#DejaVuSerif-75" x="134.814453"/>
      <use xlink:href="#DejaVuSerif-29" x="199.21875"/>
     </g>
    </g>
   </g>
   <g id="PolyCollection_1">
    <defs>
     <path id="m7af7d0b9b1" d="M 104.416217 -119.861145 
L 104.416217 -119.485583 
L 139.139394 -118.570479 
L 173.862571 -118.528267 
L 208.585749 -118.419614 
L 243.308926 -118.420751 
L 278.032103 -124.442691 
L 312.75528 -123.087809 
L 347.478457 -118.42363 
L 382.201635 -118.438715 
L 416.924812 -118.473778 
L 451.647989 -119.086951 
L 486.371166 -119.182906 
L 521.094343 -118.419614 
L 555.817521 -122.058738 
L 590.540698 -118.74668 
L 590.540698 -118.914267 
L 590.540698 -118.914267 
L 555.817521 -122.446699 
L 521.094343 -118.438009 
L 486.371166 -119.456153 
L 451.647989 -119.343121 
L 416.924812 -118.522689 
L 382.201635 -118.463279 
L 347.478457 -118.516505 
L 312.75528 -124.191904 
L 278.032103 -125.426355 
L 243.308926 -118.531641 
L 208.585749 -118.436639 
L 173.862571 -118.61242 
L 139.139394 -118.768966 
L 104.416217 -119.861145 
z
" style="stroke: #0000ff; stroke-opacity: 0.2; stroke-width: 0.5"/>
    </defs>
    <g clip-path="url(#pe375c2dfe8)">
     <use xlink:href="#m7af7d0b9b1" x="0" y="432" style="fill: #0000ff; fill-opacity: 0.2; stroke: #0000ff; stroke-opacity: 0.2; stroke-width: 0.5"/>
    </g>
   </g>
   <g id="PolyCollection_2">
    <defs>
     <path id="m528bbd56d4" d="M 104.416217 -118.419614 
L 104.416217 -118.419614 
L 139.139394 -118.419614 
L 173.862571 -118.419614 
L 208.585749 -359.591457 
L 243.308926 -118.419614 
L 278.032103 -118.419614 
L 312.75528 -118.419614 
L 347.478457 -118.419614 
L 382.201635 -388.182367 
L 416.924812 -118.419614 
L 451.647989 -243.844346 
L 486.371166 -118.419614 
L 521.094343 -118.419614 
L 555.817521 -118.419614 
L 590.540698 -241.856419 
L 590.540698 -243.342614 
L 590.540698 -243.342614 
L 555.817521 -118.419614 
L 521.094343 -118.419614 
L 486.371166 -118.419614 
L 451.647989 -245.356165 
L 416.924812 -118.419614 
L 382.201635 -390.321172 
L 347.478457 -118.419614 
L 312.75528 -118.419614 
L 278.032103 -118.419614 
L 243.308926 -118.419614 
L 208.585749 -361.923819 
L 173.862571 -118.419614 
L 139.139394 -118.419614 
L 104.416217 -118.419614 
z
" style="stroke: #ffa500; stroke-opacity: 0.2; stroke-width: 0.5"/>
    </defs>
    <g clip-path="url(#pe375c2dfe8)">
     <use xlink:href="#m528bbd56d4" x="0" y="432" style="fill: #ffa500; fill-opacity: 0.2; stroke: #ffa500; stroke-opacity: 0.2; stroke-width: 0.5"/>
    </g>
   </g>
   <g id="PolyCollection_3">
    <defs>
     <path id="m2fedf5565b" d="M 104.416217 -204.724131 
L 104.416217 -203.818136 
L 139.139394 -188.955552 
L 173.862571 -121.774142 
L 208.585749 -119.198451 
L 243.308926 -118.562478 
L 278.032103 -118.530218 
L 312.75528 -118.497958 
L 347.478457 -118.419614 
L 382.201635 -118.419614 
L 416.924812 -118.419614 
L 451.647989 -118.419614 
L 486.371166 -118.419614 
L 521.094343 -118.419614 
L 555.817521 -118.419614 
L 590.540698 -118.419614 
L 590.540698 -118.419614 
L 590.540698 -118.419614 
L 555.817521 -118.419614 
L 521.094343 -118.419614 
L 486.371166 -118.419614 
L 451.647989 -118.419614 
L 416.924812 -118.419614 
L 382.201635 -118.419614 
L 347.478457 -118.419614 
L 312.75528 -118.590129 
L 278.032103 -118.686907 
L 243.308926 -118.67769 
L 208.585749 -119.488901 
L 173.862571 -122.862209 
L 139.139394 -190.080083 
L 104.416217 -204.724131 
z
" style="stroke: #800080; stroke-opacity: 0.2; stroke-width: 0.5"/>
    </defs>
    <g clip-path="url(#pe375c2dfe8)">
     <use xlink:href="#m2fedf5565b" x="0" y="432" style="fill: #800080; fill-opacity: 0.2; stroke: #800080; stroke-opacity: 0.2; stroke-width: 0.5"/>
    </g>
   </g>
   <g id="line2d_41">
    <path d="M 104.416217 312.325246 
L 139.139394 313.335969 
L 173.862571 313.43198 
L 208.585749 313.573886 
L 243.308926 313.539753 
L 278.032103 307.051336 
L 312.75528 308.354363 
L 347.478457 313.534147 
L 382.201635 313.549608 
L 416.924812 313.502824 
L 451.647989 312.795343 
L 486.371166 312.68062 
L 521.094343 313.573265 
L 555.817521 309.747148 
L 590.540698 313.174005 
" clip-path="url(#pe375c2dfe8)" style="fill: none; stroke: #0000ff; stroke-width: 1.5; stroke-linecap: square"/>
    <defs>
     <path id="mbd781d494b" d="M 0 3 
C 0.795609 3 1.55874 2.683901 2.12132 2.12132 
C 2.683901 1.55874 3 0.795609 3 0 
C 3 -0.795609 2.683901 -1.55874 2.12132 -2.12132 
C 1.55874 -2.683901 0.795609 -3 0 -3 
C -0.795609 -3 -1.55874 -2.683901 -2.12132 -2.12132 
C -2.683901 -1.55874 -3 -0.795609 -3 0 
C -3 0.795609 -2.683901 1.55874 -2.12132 2.12132 
C -1.55874 2.683901 -0.795609 3 0 3 
z
" style="stroke: #ffffff; stroke-width: 0.75"/>
    </defs>
    <g clip-path="url(#pe375c2dfe8)">
     <use xlink:href="#mbd781d494b" x="104.416217" y="312.325246" style="fill: #0000ff; stroke: #ffffff; stroke-width: 0.75"/>
     <use xlink:href="#mbd781d494b" x="139.139394" y="313.335969" style="fill: #0000ff; stroke: #ffffff; stroke-width: 0.75"/>
     <use xlink:href="#mbd781d494b" x="173.862571" y="313.43198" style="fill: #0000ff; stroke: #ffffff; stroke-width: 0.75"/>
     <use xlink:href="#mbd781d494b" x="208.585749" y="313.573886" style="fill: #0000ff; stroke: #ffffff; stroke-width: 0.75"/>
     <use xlink:href="#mbd781d494b" x="243.308926" y="313.539753" style="fill: #0000ff; stroke: #ffffff; stroke-width: 0.75"/>
     <use xlink:href="#mbd781d494b" x="278.032103" y="307.051336" style="fill: #0000ff; stroke: #ffffff; stroke-width: 0.75"/>
     <use xlink:href="#mbd781d494b" x="312.75528" y="308.354363" style="fill: #0000ff; stroke: #ffffff; stroke-width: 0.75"/>
     <use xlink:href="#mbd781d494b" x="347.478457" y="313.534147" style="fill: #0000ff; stroke: #ffffff; stroke-width: 0.75"/>
     <use xlink:href="#mbd781d494b" x="382.201635" y="313.549608" style="fill: #0000ff; stroke: #ffffff; stroke-width: 0.75"/>
     <use xlink:href="#mbd781d494b" x="416.924812" y="313.502824" style="fill: #0000ff; stroke: #ffffff; stroke-width: 0.75"/>
     <use xlink:href="#mbd781d494b" x="451.647989" y="312.795343" style="fill: #0000ff; stroke: #ffffff; stroke-width: 0.75"/>
     <use xlink:href="#mbd781d494b" x="486.371166" y="312.68062" style="fill: #0000ff; stroke: #ffffff; stroke-width: 0.75"/>
     <use xlink:href="#mbd781d494b" x="521.094343" y="313.573265" style="fill: #0000ff; stroke: #ffffff; stroke-width: 0.75"/>
     <use xlink:href="#mbd781d494b" x="555.817521" y="309.747148" style="fill: #0000ff; stroke: #ffffff; stroke-width: 0.75"/>
     <use xlink:href="#mbd781d494b" x="590.540698" y="313.174005" style="fill: #0000ff; stroke: #ffffff; stroke-width: 0.75"/>
    </g>
   </g>
   <g id="line2d_42">
    <path d="M 104.416217 313.580386 
L 139.139394 313.580386 
L 173.862571 313.580386 
L 208.585749 71.265404 
L 243.308926 313.580386 
L 278.032103 313.580386 
L 312.75528 313.580386 
L 347.478457 313.580386 
L 382.201635 42.729566 
L 416.924812 313.580386 
L 451.647989 187.362761 
L 486.371166 313.580386 
L 521.094343 313.580386 
L 555.817521 313.580386 
L 590.540698 189.422709 
" clip-path="url(#pe375c2dfe8)" style="fill: none; stroke-dasharray: 6,2.25; stroke-dashoffset: 0; stroke: #ffa500; stroke-width: 1.5"/>
    <defs>
     <path id="mc539292af7" d="M 0 -3 
L -3 3 
L 3 3 
z
" style="stroke: #ffffff; stroke-width: 0.75; stroke-linejoin: miter"/>
    </defs>
    <g clip-path="url(#pe375c2dfe8)">
     <use xlink:href="#mc539292af7" x="104.416217" y="313.580386" style="fill: #ffa500; stroke: #ffffff; stroke-width: 0.75; stroke-linejoin: miter"/>
     <use xlink:href="#mc539292af7" x="139.139394" y="313.580386" style="fill: #ffa500; stroke: #ffffff; stroke-width: 0.75; stroke-linejoin: miter"/>
     <use xlink:href="#mc539292af7" x="173.862571" y="313.580386" style="fill: #ffa500; stroke: #ffffff; stroke-width: 0.75; stroke-linejoin: miter"/>
     <use xlink:href="#mc539292af7" x="208.585749" y="71.265404" style="fill: #ffa500; stroke: #ffffff; stroke-width: 0.75; stroke-linejoin: miter"/>
     <use xlink:href="#mc539292af7" x="243.308926" y="313.580386" style="fill: #ffa500; stroke: #ffffff; stroke-width: 0.75; stroke-linejoin: miter"/>
     <use xlink:href="#mc539292af7" x="278.032103" y="313.580386" style="fill: #ffa500; stroke: #ffffff; stroke-width: 0.75; stroke-linejoin: miter"/>
     <use xlink:href="#mc539292af7" x="312.75528" y="313.580386" style="fill: #ffa500; stroke: #ffffff; stroke-width: 0.75; stroke-linejoin: miter"/>
     <use xlink:href="#mc539292af7" x="347.478457" y="313.580386" style="fill: #ffa500; stroke: #ffffff; stroke-width: 0.75; stroke-linejoin: miter"/>
     <use xlink:href="#mc539292af7" x="382.201635" y="42.729566" style="fill: #ffa500; stroke: #ffffff; stroke-width: 0.75; stroke-linejoin: miter"/>
     <use xlink:href="#mc539292af7" x="416.924812" y="313.580386" style="fill: #ffa500; stroke: #ffffff; stroke-width: 0.75; stroke-linejoin: miter"/>
     <use xlink:href="#mc539292af7" x="451.647989" y="187.362761" style="fill: #ffa500; stroke: #ffffff; stroke-width: 0.75; stroke-linejoin: miter"/>
     <use xlink:href="#mc539292af7" x="486.371166" y="313.580386" style="fill: #ffa500; stroke: #ffffff; stroke-width: 0.75; stroke-linejoin: miter"/>
     <use xlink:href="#mc539292af7" x="521.094343" y="313.580386" style="fill: #ffa500; stroke: #ffffff; stroke-width: 0.75; stroke-linejoin: miter"/>
     <use xlink:href="#mc539292af7" x="555.817521" y="313.580386" style="fill: #ffa500; stroke: #ffffff; stroke-width: 0.75; stroke-linejoin: miter"/>
     <use xlink:href="#mc539292af7" x="590.540698" y="189.422709" style="fill: #ffa500; stroke: #ffffff; stroke-width: 0.75; stroke-linejoin: miter"/>
    </g>
   </g>
   <g id="line2d_43">
    <path d="M 104.416217 227.716128 
L 139.139394 242.491602 
L 173.862571 309.672377 
L 208.585749 312.654077 
L 243.308926 313.377612 
L 278.032103 313.396046 
L 312.75528 313.455956 
L 347.478457 313.580386 
L 382.201635 313.580386 
L 416.924812 313.580386 
L 451.647989 313.580386 
L 486.371166 313.580386 
L 521.094343 313.580386 
L 555.817521 313.580386 
L 590.540698 313.580386 
" clip-path="url(#pe375c2dfe8)" style="fill: none; stroke-dasharray: 1.5,1.5; stroke-dashoffset: 0; stroke: #800080; stroke-width: 1.5"/>
    <defs>
     <path id="md3b18770ce" d="M 0 -3 
L -3 3 
L 3 3 
z
" style="stroke: #ffffff; stroke-width: 0.75; stroke-linejoin: miter"/>
    </defs>
    <g clip-path="url(#pe375c2dfe8)">
     <use xlink:href="#md3b18770ce" x="104.416217" y="227.716128" style="fill: #800080; stroke: #ffffff; stroke-width: 0.75; stroke-linejoin: miter"/>
     <use xlink:href="#md3b18770ce" x="139.139394" y="242.491602" style="fill: #800080; stroke: #ffffff; stroke-width: 0.75; stroke-linejoin: miter"/>
     <use xlink:href="#md3b18770ce" x="173.862571" y="309.672377" style="fill: #800080; stroke: #ffffff; stroke-width: 0.75; stroke-linejoin: miter"/>
     <use xlink:href="#md3b18770ce" x="208.585749" y="312.654077" style="fill: #800080; stroke: #ffffff; stroke-width: 0.75; stroke-linejoin: miter"/>
     <use xlink:href="#md3b18770ce" x="243.308926" y="313.377612" style="fill: #800080; stroke: #ffffff; stroke-width: 0.75; stroke-linejoin: miter"/>
     <use xlink:href="#md3b18770ce" x="278.032103" y="313.396046" style="fill: #800080; stroke: #ffffff; stroke-width: 0.75; stroke-linejoin: miter"/>
     <use xlink:href="#md3b18770ce" x="312.75528" y="313.455956" style="fill: #800080; stroke: #ffffff; stroke-width: 0.75; stroke-linejoin: miter"/>
     <use xlink:href="#md3b18770ce" x="347.478457" y="313.580386" style="fill: #800080; stroke: #ffffff; stroke-width: 0.75; stroke-linejoin: miter"/>
     <use xlink:href="#md3b18770ce" x="382.201635" y="313.580386" style="fill: #800080; stroke: #ffffff; stroke-width: 0.75; stroke-linejoin: miter"/>
     <use xlink:href="#md3b18770ce" x="416.924812" y="313.580386" style="fill: #800080; stroke: #ffffff; stroke-width: 0.75; stroke-linejoin: miter"/>
     <use xlink:href="#md3b18770ce" x="451.647989" y="313.580386" style="fill: #800080; stroke: #ffffff; stroke-width: 0.75; stroke-linejoin: miter"/>
     <use xlink:href="#md3b18770ce" x="486.371166" y="313.580386" style="fill: #800080; stroke: #ffffff; stroke-width: 0.75; stroke-linejoin: miter"/>
     <use xlink:href="#md3b18770ce" x="521.094343" y="313.580386" style="fill: #800080; stroke: #ffffff; stroke-width: 0.75; stroke-linejoin: miter"/>
     <use xlink:href="#md3b18770ce" x="555.817521" y="313.580386" style="fill: #800080; stroke: #ffffff; stroke-width: 0.75; stroke-linejoin: miter"/>
     <use xlink:href="#md3b18770ce" x="590.540698" y="313.580386" style="fill: #800080; stroke: #ffffff; stroke-width: 0.75; stroke-linejoin: miter"/>
    </g>
   </g>
   <g id="line2d_44"/>
   <g id="line2d_45"/>
   <g id="line2d_46"/>
   <g id="patch_3">
    <path d="M 80.109993 327.175464 
L 80.109993 28.08375 
" style="fill: none; stroke: #000000; stroke-width: 1.2; stroke-linejoin: miter; stroke-linecap: square"/>
   </g>
   <g id="patch_4">
    <path d="M 614.846922 327.175464 
L 614.846922 28.08375 
" style="fill: none; stroke: #000000; stroke-width: 1.2; stroke-linejoin: miter; stroke-linecap: square"/>
   </g>
   <g id="patch_5">
    <path d="M 80.109993 327.175464 
L 614.846922 327.175464 
" style="fill: none; stroke: #000000; stroke-width: 1.2; stroke-linejoin: miter; stroke-linecap: square"/>
   </g>
   <g id="patch_6">
    <path d="M 80.109993 28.08375 
L 614.846922 28.08375 
" style="fill: none; stroke: #000000; stroke-width: 1.2; stroke-linejoin: miter; stroke-linecap: square"/>
   </g>
   <g id="text_23">
    <!-- Highest average index for (PQ Buses) - North - ReservaINDshunt -->
    <g transform="translate(99.472207 22.08375) scale(0.15 -0.15)">
     <defs>
      <path id="DejaVuSerif-69" d="M 622 4353 
Q 622 4497 726 4603 
Q 831 4709 978 4709 
Q 1122 4709 1226 4603 
Q 1331 4497 1331 4353 
Q 1331 4206 1228 4103 
Q 1125 4000 978 4000 
Q 831 4000 726 4103 
Q 622 4206 622 4353 
z
M 1356 331 
L 1900 331 
L 1900 0 
L 231 0 
L 231 331 
L 781 331 
L 781 2988 
L 231 2988 
L 231 3322 
L 1356 3322 
L 1356 331 
z
" transform="scale(0.015625)"/>
      <path id="DejaVuSerif-67" d="M 3359 2988 
L 3359 72 
Q 3359 -644 2965 -1033 
Q 2572 -1422 1844 -1422 
Q 1516 -1422 1216 -1362 
Q 916 -1303 641 -1184 
L 641 -488 
L 941 -488 
Q 997 -813 1206 -963 
Q 1416 -1113 1806 -1113 
Q 2313 -1113 2548 -827 
Q 2784 -541 2784 72 
L 2784 519 
Q 2616 206 2355 57 
Q 2094 -91 1709 -91 
Q 1097 -91 708 395 
Q 319 881 319 1663 
Q 319 2444 706 2928 
Q 1094 3413 1709 3413 
Q 2094 3413 2355 3264 
Q 2616 3116 2784 2803 
L 2784 3322 
L 3909 3322 
L 3909 2988 
L 3359 2988 
z
M 2784 1825 
Q 2784 2422 2554 2737 
Q 2325 3053 1888 3053 
Q 1444 3053 1217 2703 
Q 991 2353 991 1663 
Q 991 975 1217 622 
Q 1444 269 1888 269 
Q 2325 269 2554 583 
Q 2784 897 2784 1497 
L 2784 1825 
z
" transform="scale(0.015625)"/>
      <path id="DejaVuSerif-68" d="M 263 0 
L 263 331 
L 781 331 
L 781 4531 
L 231 4531 
L 231 4863 
L 1356 4863 
L 1356 2731 
Q 1516 3069 1770 3241 
Q 2025 3413 2363 3413 
Q 2913 3413 3172 3097 
Q 3431 2781 3431 2113 
L 3431 331 
L 3944 331 
L 3944 0 
L 2356 0 
L 2356 331 
L 2853 331 
L 2853 1931 
Q 2853 2541 2704 2764 
Q 2556 2988 2175 2988 
Q 1775 2988 1565 2697 
Q 1356 2406 1356 1850 
L 1356 331 
L 1856 331 
L 1856 0 
L 263 0 
z
" transform="scale(0.015625)"/>
      <path id="DejaVuSerif-65" d="M 3469 1600 
L 991 1600 
L 991 1575 
Q 991 903 1244 561 
Q 1497 219 1991 219 
Q 2369 219 2611 417 
Q 2853 616 2950 1006 
L 3413 1006 
Q 3275 459 2904 184 
Q 2534 -91 1931 -91 
Q 1203 -91 761 389 
Q 319 869 319 1663 
Q 319 2450 753 2931 
Q 1188 3413 1894 3413 
Q 2647 3413 3050 2948 
Q 3453 2484 3469 1600 
z
M 2791 1931 
Q 2772 2513 2545 2808 
Q 2319 3103 1894 3103 
Q 1497 3103 1269 2806 
Q 1041 2509 991 1931 
L 2791 1931 
z
" transform="scale(0.015625)"/>
      <path id="DejaVuSerif-74" d="M 691 2988 
L 184 2988 
L 184 3322 
L 691 3322 
L 691 4353 
L 1269 4353 
L 1269 3322 
L 2350 3322 
L 2350 2988 
L 1269 2988 
L 1269 878 
Q 1269 456 1350 337 
Q 1431 219 1650 219 
Q 1875 219 1978 351 
Q 2081 484 2088 781 
L 2522 781 
Q 2497 328 2275 118 
Q 2053 -91 1600 -91 
Q 1103 -91 897 129 
Q 691 350 691 878 
L 691 2988 
z
" transform="scale(0.015625)"/>
      <path id="DejaVuSerif-61" d="M 2547 1044 
L 2547 1747 
L 1806 1747 
Q 1378 1747 1168 1562 
Q 959 1378 959 997 
Q 959 650 1171 447 
Q 1384 244 1747 244 
Q 2106 244 2326 466 
Q 2547 688 2547 1044 
z
M 3122 2075 
L 3122 331 
L 3634 331 
L 3634 0 
L 2547 0 
L 2547 359 
Q 2356 128 2106 18 
Q 1856 -91 1522 -91 
Q 969 -91 644 203 
Q 319 497 319 997 
Q 319 1513 691 1797 
Q 1063 2081 1741 2081 
L 2547 2081 
L 2547 2309 
Q 2547 2688 2317 2895 
Q 2088 3103 1672 3103 
Q 1328 3103 1125 2947 
Q 922 2791 872 2484 
L 575 2484 
L 575 3156 
Q 875 3284 1158 3348 
Q 1441 3413 1709 3413 
Q 2400 3413 2761 3070 
Q 3122 2728 3122 2075 
z
" transform="scale(0.015625)"/>
      <path id="DejaVuSerif-76" d="M 1581 0 
L 359 2988 
L -19 2988 
L -19 3322 
L 1509 3322 
L 1509 2988 
L 978 2988 
L 1913 703 
L 2847 2988 
L 2350 2988 
L 2350 3322 
L 3597 3322 
L 3597 2988 
L 3225 2988 
L 2003 0 
L 1581 0 
z
" transform="scale(0.015625)"/>
      <path id="DejaVuSerif-72" d="M 3059 3328 
L 3059 2497 
L 2728 2497 
Q 2713 2744 2591 2866 
Q 2469 2988 2234 2988 
Q 1809 2988 1582 2694 
Q 1356 2400 1356 1850 
L 1356 331 
L 2022 331 
L 2022 0 
L 263 0 
L 263 331 
L 781 331 
L 781 2994 
L 231 2994 
L 231 3322 
L 1356 3322 
L 1356 2731 
Q 1525 3078 1790 3245 
Q 2056 3413 2438 3413 
Q 2578 3413 2733 3391 
Q 2888 3369 3059 3328 
z
" transform="scale(0.015625)"/>
      <path id="DejaVuSerif-6e" d="M 263 0 
L 263 331 
L 781 331 
L 781 2988 
L 231 2988 
L 231 3322 
L 1356 3322 
L 1356 2731 
Q 1516 3069 1770 3241 
Q 2025 3413 2363 3413 
Q 2913 3413 3172 3097 
Q 3431 2781 3431 2113 
L 3431 331 
L 3944 331 
L 3944 0 
L 2356 0 
L 2356 331 
L 2853 331 
L 2853 1931 
Q 2853 2541 2703 2767 
Q 2553 2994 2175 2994 
Q 1775 2994 1565 2701 
Q 1356 2409 1356 1850 
L 1356 331 
L 1856 331 
L 1856 0 
L 263 0 
z
" transform="scale(0.015625)"/>
      <path id="DejaVuSerif-64" d="M 3359 331 
L 3909 331 
L 3909 0 
L 2784 0 
L 2784 519 
Q 2616 206 2355 57 
Q 2094 -91 1709 -91 
Q 1097 -91 708 395 
Q 319 881 319 1663 
Q 319 2444 706 2928 
Q 1094 3413 1709 3413 
Q 2094 3413 2355 3264 
Q 2616 3116 2784 2803 
L 2784 4531 
L 2241 4531 
L 2241 4863 
L 3359 4863 
L 3359 331 
z
M 2784 1497 
L 2784 1825 
Q 2784 2422 2554 2737 
Q 2325 3053 1888 3053 
Q 1444 3053 1217 2703 
Q 991 2353 991 1663 
Q 991 975 1217 622 
Q 1444 269 1888 269 
Q 2325 269 2554 583 
Q 2784 897 2784 1497 
z
" transform="scale(0.015625)"/>
      <path id="DejaVuSerif-78" d="M 1863 2028 
L 2559 2988 
L 2113 2988 
L 2113 3322 
L 3391 3322 
L 3391 2988 
L 2950 2988 
L 2059 1759 
L 3097 331 
L 3531 331 
L 3531 0 
L 1997 0 
L 1997 331 
L 2419 331 
L 1697 1325 
L 972 331 
L 1403 331 
L 1403 0 
L 141 0 
L 141 331 
L 581 331 
L 1497 1594 
L 488 2988 
L 78 2988 
L 78 3322 
L 1563 3322 
L 1563 2988 
L 1166 2988 
L 1863 2028 
z
" transform="scale(0.015625)"/>
      <path id="DejaVuSerif-66" d="M 2753 4078 
L 2450 4078 
Q 2447 4313 2317 4434 
Q 2188 4556 1941 4556 
Q 1619 4556 1487 4379 
Q 1356 4203 1356 3750 
L 1356 3322 
L 2284 3322 
L 2284 2988 
L 1356 2988 
L 1356 331 
L 2094 331 
L 2094 0 
L 231 0 
L 231 331 
L 781 331 
L 781 2988 
L 231 2988 
L 231 3322 
L 781 3322 
L 781 3738 
Q 781 4294 1070 4578 
Q 1359 4863 1919 4863 
Q 2128 4863 2337 4825 
Q 2547 4788 2753 4709 
L 2753 4078 
z
" transform="scale(0.015625)"/>
      <path id="DejaVuSerif-6f" d="M 1925 219 
Q 2388 219 2623 584 
Q 2859 950 2859 1663 
Q 2859 2375 2623 2739 
Q 2388 3103 1925 3103 
Q 1463 3103 1227 2739 
Q 991 2375 991 1663 
Q 991 950 1228 584 
Q 1466 219 1925 219 
z
M 1925 -91 
Q 1200 -91 759 389 
Q 319 869 319 1663 
Q 319 2456 758 2934 
Q 1197 3413 1925 3413 
Q 2653 3413 3092 2934 
Q 3531 2456 3531 1663 
Q 3531 869 3092 389 
Q 2653 -91 1925 -91 
z
" transform="scale(0.015625)"/>
      <path id="DejaVuSerif-51" d="M 2700 -91 
Q 1628 -91 993 567 
Q 359 1225 359 2328 
Q 359 2894 529 3339 
Q 700 3784 1050 4134 
Q 1356 4441 1750 4595 
Q 2144 4750 2625 4750 
Q 3641 4750 4266 4084 
Q 4891 3419 4891 2328 
Q 4891 1403 4422 773 
Q 3953 144 3128 -38 
Q 3297 -247 3539 -347 
Q 3781 -447 4122 -447 
L 4219 -447 
L 4219 -1025 
Q 3691 -1000 3314 -767 
Q 2938 -534 2700 -91 
z
M 2625 244 
Q 3391 244 3781 770 
Q 4172 1297 4172 2328 
Q 4172 3363 3781 3889 
Q 3391 4416 2625 4416 
Q 1856 4416 1465 3889 
Q 1075 3363 1075 2328 
Q 1075 1297 1465 770 
Q 1856 244 2625 244 
z
" transform="scale(0.015625)"/>
     </defs>
     <use xlink:href="#DejaVuSerif-48"/>
     <use xlink:href="#DejaVuSerif-69" x="87.207031"/>
     <use xlink:href="#DejaVuSerif-67" x="119.189453"/>
     <use xlink:href="#DejaVuSerif-68" x="183.203125"/>
     <use xlink:href="#DejaVuSerif-65" x="247.607422"/>
     <use xlink:href="#DejaVuSerif-73" x="306.787109"/>
     <use xlink:href="#DejaVuSerif-74" x="358.105469"/>
     <use xlink:href="#DejaVuSerif-20" x="398.291016"/>
     <use xlink:href="#DejaVuSerif-61" x="430.078125"/>
     <use xlink:href="#DejaVuSerif-76" x="489.697266"/>
     <use xlink:href="#DejaVuSerif-65" x="546.191406"/>
     <use xlink:href="#DejaVuSerif-72" x="605.371094"/>
     <use xlink:href="#DejaVuSerif-61" x="653.173828"/>
     <use xlink:href="#DejaVuSerif-67" x="712.792969"/>
     <use xlink:href="#DejaVuSerif-65" x="776.806641"/>
     <use xlink:href="#DejaVuSerif-20" x="835.986328"/>
     <use xlink:href="#DejaVuSerif-69" x="867.773438"/>
     <use xlink:href="#DejaVuSerif-6e" x="899.755859"/>
     <use xlink:href="#DejaVuSerif-64" x="964.160156"/>
     <use xlink:href="#DejaVuSerif-65" x="1028.173828"/>
     <use xlink:href="#DejaVuSerif-78" x="1087.353516"/>
     <use xlink:href="#DejaVuSerif-20" x="1143.75"/>
     <use xlink:href="#DejaVuSerif-66" x="1175.537109"/>
     <use xlink:href="#DejaVuSerif-6f" x="1212.548828"/>
     <use xlink:href="#DejaVuSerif-72" x="1272.753906"/>
     <use xlink:href="#DejaVuSerif-20" x="1320.556641"/>
     <use xlink:href="#DejaVuSerif-28" x="1352.34375"/>
     <use xlink:href="#DejaVuSerif-50" x="1391.357422"/>
     <use xlink:href="#DejaVuSerif-51" x="1458.642578"/>
     <use xlink:href="#DejaVuSerif-20" x="1540.625"/>
     <use xlink:href="#DejaVuSerif-42" x="1572.412109"/>
     <use xlink:href="#DejaVuSerif-75" x="1645.898438"/>
     <use xlink:href="#DejaVuSerif-73" x="1710.302734"/>
     <use xlink:href="#DejaVuSerif-65" x="1761.621094"/>
     <use xlink:href="#DejaVuSerif-73" x="1820.800781"/>
     <use xlink:href="#DejaVuSerif-29" x="1872.119141"/>
     <use xlink:href="#DejaVuSerif-20" x="1911.132812"/>
     <use xlink:href="#DejaVuSerif-2d" x="1942.919922"/>
     <use xlink:href="#DejaVuSerif-20" x="1976.708984"/>
     <use xlink:href="#DejaVuSerif-4e" x="2008.496094"/>
     <use xlink:href="#DejaVuSerif-6f" x="2095.996094"/>
     <use xlink:href="#DejaVuSerif-72" x="2156.201172"/>
     <use xlink:href="#DejaVuSerif-74" x="2204.003906"/>
     <use xlink:href="#DejaVuSerif-68" x="2244.189453"/>
     <use xlink:href="#DejaVuSerif-20" x="2308.59375"/>
     <use xlink:href="#DejaVuSerif-2d" x="2340.380859"/>
     <use xlink:href="#DejaVuSerif-20" x="2374.169922"/>
     <use xlink:href="#DejaVuSerif-52" x="2405.957031"/>
     <use xlink:href="#DejaVuSerif-65" x="2481.25"/>
     <use xlink:href="#DejaVuSerif-73" x="2540.429688"/>
     <use xlink:href="#DejaVuSerif-65" x="2591.748047"/>
     <use xlink:href="#DejaVuSerif-72" x="2650.927734"/>
     <use xlink:href="#DejaVuSerif-76" x="2698.730469"/>
     <use xlink:href="#DejaVuSerif-61" x="2755.224609"/>
     <use xlink:href="#DejaVuSerif-49" x="2814.84375"/>
     <use xlink:href="#DejaVuSerif-4e" x="2854.345703"/>
     <use xlink:href="#DejaVuSerif-44" x="2941.845703"/>
     <use xlink:href="#DejaVuSerif-73" x="3022.021484"/>
     <use xlink:href="#DejaVuSerif-68" x="3073.339844"/>
     <use xlink:href="#DejaVuSerif-75" x="3137.744141"/>
     <use xlink:href="#DejaVuSerif-6e" x="3202.148438"/>
     <use xlink:href="#DejaVuSerif-74" x="3266.552734"/>
    </g>
   </g>
   <g id="legend_1">
    <g id="patch_7">
     <path d="M 623.946922 111.906562 
L 706.106922 111.906562 
Q 708.706922 111.906562 708.706922 109.306562 
L 708.706922 37.18375 
Q 708.706922 34.58375 706.106922 34.58375 
L 623.946922 34.58375 
Q 621.346922 34.58375 621.346922 37.18375 
L 621.346922 109.306562 
Q 621.346922 111.906562 623.946922 111.906562 
z
" style="fill: #e5e5e5; opacity: 0.8; stroke: #cccccc; stroke-width: 0.5; stroke-linejoin: miter"/>
    </g>
    <g id="text_24">
     <!-- Indices -->
     <g transform="translate(646.706609 47.382187) scale(0.1 -0.1)">
      <defs>
       <path id="DejaVuSerif-63" d="M 3291 997 
Q 3169 466 2822 187 
Q 2475 -91 1925 -91 
Q 1200 -91 759 389 
Q 319 869 319 1663 
Q 319 2459 759 2936 
Q 1200 3413 1925 3413 
Q 2241 3413 2553 3339 
Q 2866 3266 3181 3116 
L 3181 2266 
L 2847 2266 
Q 2781 2703 2561 2903 
Q 2341 3103 1931 3103 
Q 1466 3103 1228 2742 
Q 991 2381 991 1663 
Q 991 944 1227 581 
Q 1463 219 1931 219 
Q 2303 219 2525 412 
Q 2747 606 2828 997 
L 3291 997 
z
" transform="scale(0.015625)"/>
      </defs>
      <use xlink:href="#DejaVuSerif-49"/>
      <use xlink:href="#DejaVuSerif-6e" x="39.501953"/>
      <use xlink:href="#DejaVuSerif-64" x="103.90625"/>
      <use xlink:href="#DejaVuSerif-69" x="167.919922"/>
      <use xlink:href="#DejaVuSerif-63" x="199.902344"/>
      <use xlink:href="#DejaVuSerif-65" x="255.908203"/>
      <use xlink:href="#DejaVuSerif-73" x="315.087891"/>
     </g>
    </g>
    <g id="line2d_47">
     <defs>
      <path id="mb07a923964" d="M 0 5 
C 1.326016 5 2.597899 4.473168 3.535534 3.535534 
C 4.473168 2.597899 5 1.326016 5 0 
C 5 -1.326016 4.473168 -2.597899 3.535534 -3.535534 
C 2.597899 -4.473168 1.326016 -5 0 -5 
C -1.326016 -5 -2.597899 -4.473168 -3.535534 -3.535534 
C -4.473168 -2.597899 -5 -1.326016 -5 0 
C -5 1.326016 -4.473168 2.597899 -3.535534 3.535534 
C -2.597899 4.473168 -1.326016 5 0 5 
z
" style="stroke: #0000ff"/>
     </defs>
     <g>
      <use xlink:href="#mb07a923964" x="639.546922" y="61.289844" style="fill: #0000ff; stroke: #0000ff"/>
     </g>
    </g>
    <g id="text_25">
     <!-- $\mathrm{VPI}^\mathrm{l}$ -->
     <g transform="translate(662.946922 65.839844) scale(0.13 -0.13)">
      <defs>
       <path id="DejaVuSerif-6c" d="M 1313 331 
L 1856 331 
L 1856 0 
L 184 0 
L 184 331 
L 738 331 
L 738 4531 
L 184 4531 
L 184 4863 
L 1313 4863 
L 1313 331 
z
" transform="scale(0.015625)"/>
      </defs>
      <use xlink:href="#DejaVuSerif-56" transform="translate(0 0.476562)"/>
      <use xlink:href="#DejaVuSerif-50" transform="translate(72.216797 0.476562)"/>
      <use xlink:href="#DejaVuSerif-49" transform="translate(139.501953 0.476562)"/>
      <use xlink:href="#DejaVuSerif-6c" transform="translate(179.912266 36.810937) scale(0.7)"/>
     </g>
    </g>
    <g id="line2d_48">
     <defs>
      <path id="mefad46b327" d="M 0 -5 
L -5 5 
L 5 5 
z
" style="stroke: #ffa500; stroke-linejoin: miter"/>
     </defs>
     <g>
      <use xlink:href="#mefad46b327" x="639.546922" y="80.371406" style="fill: #ffa500; stroke: #ffa500; stroke-linejoin: miter"/>
     </g>
    </g>
    <g id="text_26">
     <!-- $\mathrm{RPI}^\mathrm{ind}$ -->
     <g transform="translate(662.946922 84.921406) scale(0.13 -0.13)">
      <use xlink:href="#DejaVuSerif-52" transform="translate(0 0.476562)"/>
      <use xlink:href="#DejaVuSerif-50" transform="translate(75.292969 0.476562)"/>
      <use xlink:href="#DejaVuSerif-49" transform="translate(142.578125 0.476562)"/>
      <use xlink:href="#DejaVuSerif-69" transform="translate(182.988438 36.810937) scale(0.7)"/>
      <use xlink:href="#DejaVuSerif-6e" transform="translate(205.376133 36.810937) scale(0.7)"/>
      <use xlink:href="#DejaVuSerif-64" transform="translate(250.459141 36.810937) scale(0.7)"/>
     </g>
    </g>
    <g id="line2d_49">
     <defs>
      <path id="mdb89780efc" d="M 0 -5 
L -5 5 
L 5 5 
z
" style="stroke: #800080; stroke-linejoin: miter"/>
     </defs>
     <g>
      <use xlink:href="#mdb89780efc" x="639.546922" y="99.452969" style="fill: #800080; stroke: #800080; stroke-linejoin: miter"/>
     </g>
    </g>
    <g id="text_27">
     <!-- $\mathrm{RPI}^\mathrm{cap}$ -->
     <g transform="translate(662.946922 104.002969) scale(0.13 -0.13)">
      <use xlink:href="#DejaVuSerif-52" transform="translate(0 0.335938)"/>
      <use xlink:href="#DejaVuSerif-50" transform="translate(75.292969 0.335938)"/>
      <use xlink:href="#DejaVuSerif-49" transform="translate(142.578125 0.335938)"/>
      <use xlink:href="#DejaVuSerif-63" transform="translate(182.988438 36.670312) scale(0.7)"/>
      <use xlink:href="#DejaVuSerif-61" transform="translate(222.192539 36.670312) scale(0.7)"/>
      <use xlink:href="#DejaVuSerif-70" transform="translate(263.925937 36.670312) scale(0.7)"/>
     </g>
    </g>
   </g>
  </g>
 </g>
 <defs>
  <clipPath id="pe375c2dfe8">
   <rect x="80.109993" y="28.08375" width="534.736929" height="299.091714"/>
  </clipPath>
 </defs>
</svg>
