<?xml version="1.0" encoding="utf-8" standalone="no"?>
<!DOCTYPE svg PUBLIC "-//W3C//DTD SVG 1.1//EN"
  "http://www.w3.org/Graphics/SVG/1.1/DTD/svg11.dtd">
<svg xmlns:xlink="http://www.w3.org/1999/xlink" width="720pt" height="432pt" viewBox="0 0 720 432" xmlns="http://www.w3.org/2000/svg" version="1.1">
 <metadata>
  <rdf:RDF xmlns:dc="http://purl.org/dc/elements/1.1/" xmlns:cc="http://creativecommons.org/ns#" xmlns:rdf="http://www.w3.org/1999/02/22-rdf-syntax-ns#">
   <cc:Work>
    <dc:type rdf:resource="http://purl.org/dc/dcmitype/StillImage"/>
    <dc:date>2024-09-27T14:24:04.987124</dc:date>
    <dc:format>image/svg+xml</dc:format>
    <dc:creator>
     <cc:Agent>
      <dc:title>Matplotlib v3.7.2, https://matplotlib.org/</dc:title>
     </cc:Agent>
    </dc:creator>
   </cc:Work>
  </rdf:RDF>
 </metadata>
 <defs>
  <style type="text/css">*{stroke-linejoin: round; stroke-linecap: butt}</style>
 </defs>
 <g id="figure_1">
  <g id="patch_1">
   <path d="M 0 432 
L 720 432 
L 720 0 
L 0 0 
z
" style="fill: #ffffff"/>
  </g>
  <g id="axes_1">
   <g id="patch_2">
    <path d="M 88.995414 324.700464 
L 614.846922 324.700464 
L 614.846922 28.08375 
L 88.995414 28.08375 
z
" style="fill: #e5e5e5"/>
   </g>
   <g id="matplotlib.axis_1">
    <g id="xtick_1">
     <g id="line2d_1">
      <path d="M 112.897755 324.700464 
L 112.897755 28.08375 
" clip-path="url(#p345adb26ea)" style="fill: none; stroke: #ffffff; stroke-width: 0.8; stroke-linecap: square"/>
     </g>
     <g id="line2d_2">
      <defs>
       <path id="m652ef61d89" d="M 0 0 
L 0 3.5 
" style="stroke: #000000; stroke-width: 0.8"/>
      </defs>
      <g>
       <use xlink:href="#m652ef61d89" x="112.897755" y="324.700464" style="stroke: #000000; stroke-width: 0.8"/>
      </g>
     </g>
     <g id="text_1">
      <!-- 844 - MARABASIN001 -->
      <g transform="translate(12.919921 395.402779) rotate(-30) scale(0.1 -0.1)">
       <defs>
        <path id="DejaVuSerif-38" d="M 2981 1275 
Q 2981 1775 2732 2051 
Q 2484 2328 2034 2328 
Q 1584 2328 1336 2051 
Q 1088 1775 1088 1275 
Q 1088 772 1336 495 
Q 1584 219 2034 219 
Q 2484 219 2732 495 
Q 2981 772 2981 1275 
z
M 2853 3541 
Q 2853 3966 2637 4203 
Q 2422 4441 2034 4441 
Q 1650 4441 1433 4203 
Q 1216 3966 1216 3541 
Q 1216 3113 1433 2875 
Q 1650 2638 2034 2638 
Q 2422 2638 2637 2875 
Q 2853 3113 2853 3541 
z
M 2516 2484 
Q 3047 2413 3344 2092 
Q 3641 1772 3641 1275 
Q 3641 619 3225 264 
Q 2809 -91 2034 -91 
Q 1263 -91 845 264 
Q 428 619 428 1275 
Q 428 1772 725 2092 
Q 1022 2413 1556 2484 
Q 1084 2569 832 2842 
Q 581 3116 581 3541 
Q 581 4103 968 4426 
Q 1356 4750 2034 4750 
Q 2713 4750 3100 4426 
Q 3488 4103 3488 3541 
Q 3488 3116 3236 2842 
Q 2984 2569 2516 2484 
z
" transform="scale(0.015625)"/>
        <path id="DejaVuSerif-34" d="M 2234 1581 
L 2234 4063 
L 641 1581 
L 2234 1581 
z
M 3609 0 
L 1484 0 
L 1484 331 
L 2234 331 
L 2234 1247 
L 197 1247 
L 197 1588 
L 2241 4750 
L 2859 4750 
L 2859 1581 
L 3750 1581 
L 3750 1247 
L 2859 1247 
L 2859 331 
L 3609 331 
L 3609 0 
z
" transform="scale(0.015625)"/>
        <path id="DejaVuSerif-20" transform="scale(0.015625)"/>
        <path id="DejaVuSerif-2d" d="M 281 1959 
L 1881 1959 
L 1881 1472 
L 281 1472 
L 281 1959 
z
" transform="scale(0.015625)"/>
        <path id="DejaVuSerif-4d" d="M 353 0 
L 353 331 
L 947 331 
L 947 4331 
L 319 4331 
L 319 4666 
L 1678 4666 
L 3316 1344 
L 4953 4666 
L 6228 4666 
L 6228 4331 
L 5606 4331 
L 5606 331 
L 6203 331 
L 6203 0 
L 4378 0 
L 4378 331 
L 4972 331 
L 4972 3938 
L 3372 684 
L 2931 684 
L 1331 3938 
L 1331 331 
L 1925 331 
L 1925 0 
L 353 0 
z
" transform="scale(0.015625)"/>
        <path id="DejaVuSerif-41" d="M 1281 1691 
L 2994 1691 
L 2138 3909 
L 1281 1691 
z
M -38 0 
L -38 331 
L 372 331 
L 2034 4666 
L 2559 4666 
L 4225 331 
L 4684 331 
L 4684 0 
L 2988 0 
L 2988 331 
L 3506 331 
L 3116 1356 
L 1153 1356 
L 763 331 
L 1275 331 
L 1275 0 
L -38 0 
z
" transform="scale(0.015625)"/>
        <path id="DejaVuSerif-52" d="M 3066 2316 
Q 3284 2256 3442 2114 
Q 3600 1972 3725 1716 
L 4403 331 
L 4972 331 
L 4972 0 
L 3872 0 
L 3144 1484 
Q 2934 1916 2759 2042 
Q 2584 2169 2278 2169 
L 1581 2169 
L 1581 331 
L 2241 331 
L 2241 0 
L 353 0 
L 353 331 
L 947 331 
L 947 4331 
L 353 4331 
L 353 4666 
L 2719 4666 
Q 3400 4666 3770 4341 
Q 4141 4016 4141 3419 
Q 4141 2938 3870 2661 
Q 3600 2384 3066 2316 
z
M 1581 2503 
L 2503 2503 
Q 2975 2503 3200 2726 
Q 3425 2950 3425 3419 
Q 3425 3888 3200 4109 
Q 2975 4331 2503 4331 
L 1581 4331 
L 1581 2503 
z
" transform="scale(0.015625)"/>
        <path id="DejaVuSerif-42" d="M 1581 331 
L 2516 331 
Q 3078 331 3337 575 
Q 3597 819 3597 1350 
Q 3597 1878 3339 2120 
Q 3081 2363 2516 2363 
L 1581 2363 
L 1581 331 
z
M 1581 2694 
L 2375 2694 
Q 2888 2694 3123 2891 
Q 3359 3088 3359 3513 
Q 3359 3941 3123 4136 
Q 2888 4331 2375 4331 
L 1581 4331 
L 1581 2694 
z
M 353 0 
L 353 331 
L 947 331 
L 947 4331 
L 353 4331 
L 353 4666 
L 2656 4666 
Q 3363 4666 3720 4377 
Q 4078 4088 4078 3513 
Q 4078 3097 3829 2850 
Q 3581 2603 3103 2547 
Q 3697 2472 4005 2167 
Q 4313 1863 4313 1350 
Q 4313 656 3875 328 
Q 3438 0 2509 0 
L 353 0 
z
" transform="scale(0.015625)"/>
        <path id="DejaVuSerif-53" d="M 594 225 
L 594 1288 
L 953 1284 
Q 969 753 1261 498 
Q 1553 244 2150 244 
Q 2706 244 2998 464 
Q 3291 684 3291 1106 
Q 3291 1444 3114 1625 
Q 2938 1806 2369 1978 
L 1753 2163 
Q 1084 2366 811 2669 
Q 538 2972 538 3500 
Q 538 4094 959 4422 
Q 1381 4750 2144 4750 
Q 2469 4750 2856 4679 
Q 3244 4609 3681 4475 
L 3681 3481 
L 3328 3481 
Q 3275 3975 2998 4195 
Q 2722 4416 2156 4416 
Q 1663 4416 1405 4214 
Q 1147 4013 1147 3628 
Q 1147 3294 1340 3103 
Q 1534 2913 2163 2725 
L 2741 2553 
Q 3375 2363 3645 2067 
Q 3916 1772 3916 1275 
Q 3916 597 3481 253 
Q 3047 -91 2188 -91 
Q 1803 -91 1404 -12 
Q 1006 66 594 225 
z
" transform="scale(0.015625)"/>
        <path id="DejaVuSerif-49" d="M 1581 331 
L 2175 331 
L 2175 0 
L 353 0 
L 353 331 
L 947 331 
L 947 4331 
L 353 4331 
L 353 4666 
L 2175 4666 
L 2175 4331 
L 1581 4331 
L 1581 331 
z
" transform="scale(0.015625)"/>
        <path id="DejaVuSerif-4e" d="M 313 0 
L 313 331 
L 941 331 
L 941 4331 
L 313 4331 
L 313 4666 
L 1509 4666 
L 4306 984 
L 4306 4331 
L 3681 4331 
L 3681 4666 
L 5319 4666 
L 5319 4331 
L 4691 4331 
L 4691 -91 
L 4313 -91 
L 1325 3841 
L 1325 331 
L 1953 331 
L 1953 0 
L 313 0 
z
" transform="scale(0.015625)"/>
        <path id="DejaVuSerif-30" d="M 2034 219 
Q 2513 219 2750 744 
Q 2988 1269 2988 2328 
Q 2988 3391 2750 3916 
Q 2513 4441 2034 4441 
Q 1556 4441 1318 3916 
Q 1081 3391 1081 2328 
Q 1081 1269 1318 744 
Q 1556 219 2034 219 
z
M 2034 -91 
Q 1275 -91 848 546 
Q 422 1184 422 2328 
Q 422 3475 848 4112 
Q 1275 4750 2034 4750 
Q 2797 4750 3222 4112 
Q 3647 3475 3647 2328 
Q 3647 1184 3222 546 
Q 2797 -91 2034 -91 
z
" transform="scale(0.015625)"/>
        <path id="DejaVuSerif-31" d="M 909 0 
L 909 331 
L 1722 331 
L 1722 4213 
L 781 3603 
L 781 4013 
L 1919 4750 
L 2350 4750 
L 2350 331 
L 3163 331 
L 3163 0 
L 909 0 
z
" transform="scale(0.015625)"/>
       </defs>
       <use xlink:href="#DejaVuSerif-38"/>
       <use xlink:href="#DejaVuSerif-34" x="63.623047"/>
       <use xlink:href="#DejaVuSerif-34" x="127.246094"/>
       <use xlink:href="#DejaVuSerif-20" x="190.869141"/>
       <use xlink:href="#DejaVuSerif-2d" x="222.65625"/>
       <use xlink:href="#DejaVuSerif-20" x="256.445312"/>
       <use xlink:href="#DejaVuSerif-4d" x="288.232422"/>
       <use xlink:href="#DejaVuSerif-41" x="390.625"/>
       <use xlink:href="#DejaVuSerif-52" x="462.841797"/>
       <use xlink:href="#DejaVuSerif-41" x="538.134766"/>
       <use xlink:href="#DejaVuSerif-42" x="610.351562"/>
       <use xlink:href="#DejaVuSerif-41" x="683.837891"/>
       <use xlink:href="#DejaVuSerif-53" x="756.054688"/>
       <use xlink:href="#DejaVuSerif-49" x="824.560547"/>
       <use xlink:href="#DejaVuSerif-4e" x="864.0625"/>
       <use xlink:href="#DejaVuSerif-30" x="951.5625"/>
       <use xlink:href="#DejaVuSerif-30" x="1015.185547"/>
       <use xlink:href="#DejaVuSerif-31" x="1078.808594"/>
      </g>
     </g>
    </g>
    <g id="xtick_2">
     <g id="line2d_3">
      <path d="M 147.043957 324.700464 
L 147.043957 28.08375 
" clip-path="url(#p345adb26ea)" style="fill: none; stroke: #ffffff; stroke-width: 0.8; stroke-linecap: square"/>
     </g>
     <g id="line2d_4">
      <g>
       <use xlink:href="#m652ef61d89" x="147.043957" y="324.700464" style="stroke: #000000; stroke-width: 0.8"/>
      </g>
     </g>
     <g id="text_2">
      <!-- 841 - BMONTEUHE018 -->
      <g transform="translate(41.331411 398.713716) rotate(-30) scale(0.1 -0.1)">
       <defs>
        <path id="DejaVuSerif-4f" d="M 2625 244 
Q 3391 244 3781 770 
Q 4172 1297 4172 2328 
Q 4172 3363 3781 3889 
Q 3391 4416 2625 4416 
Q 1856 4416 1465 3889 
Q 1075 3363 1075 2328 
Q 1075 1297 1465 770 
Q 1856 244 2625 244 
z
M 2625 -91 
Q 2150 -91 1751 65 
Q 1353 222 1050 525 
Q 700 875 529 1319 
Q 359 1763 359 2328 
Q 359 2894 529 3339 
Q 700 3784 1050 4134 
Q 1356 4441 1750 4595 
Q 2144 4750 2625 4750 
Q 3641 4750 4266 4084 
Q 4891 3419 4891 2328 
Q 4891 1769 4719 1320 
Q 4547 872 4197 525 
Q 3891 219 3497 64 
Q 3103 -91 2625 -91 
z
" transform="scale(0.015625)"/>
        <path id="DejaVuSerif-54" d="M 1222 0 
L 1222 331 
L 1819 331 
L 1819 4294 
L 447 4294 
L 447 3566 
L 63 3566 
L 63 4666 
L 4206 4666 
L 4206 3566 
L 3822 3566 
L 3822 4294 
L 2450 4294 
L 2450 331 
L 3047 331 
L 3047 0 
L 1222 0 
z
" transform="scale(0.015625)"/>
        <path id="DejaVuSerif-45" d="M 353 0 
L 353 331 
L 947 331 
L 947 4331 
L 353 4331 
L 353 4666 
L 4109 4666 
L 4109 3628 
L 3725 3628 
L 3725 4281 
L 1581 4281 
L 1581 2719 
L 3109 2719 
L 3109 3303 
L 3494 3303 
L 3494 1753 
L 3109 1753 
L 3109 2338 
L 1581 2338 
L 1581 384 
L 3775 384 
L 3775 1038 
L 4159 1038 
L 4159 0 
L 353 0 
z
" transform="scale(0.015625)"/>
        <path id="DejaVuSerif-55" d="M 897 4331 
L 300 4331 
L 300 4666 
L 2125 4666 
L 2125 4331 
L 1528 4331 
L 1528 1919 
Q 1528 1025 1820 672 
Q 2113 319 2828 319 
Q 3544 319 3836 672 
Q 4128 1025 4128 1919 
L 4128 4331 
L 3531 4331 
L 3531 4666 
L 5106 4666 
L 5106 4331 
L 4513 4331 
L 4513 1856 
Q 4513 791 4103 350 
Q 3694 -91 2713 -91 
Q 1731 -91 1314 353 
Q 897 797 897 1856 
L 897 4331 
z
" transform="scale(0.015625)"/>
        <path id="DejaVuSerif-48" d="M 353 0 
L 353 331 
L 947 331 
L 947 4331 
L 353 4331 
L 353 4666 
L 2175 4666 
L 2175 4331 
L 1581 4331 
L 1581 2719 
L 4000 2719 
L 4000 4331 
L 3406 4331 
L 3406 4666 
L 5228 4666 
L 5228 4331 
L 4634 4331 
L 4634 331 
L 5228 331 
L 5228 0 
L 3406 0 
L 3406 331 
L 4000 331 
L 4000 2338 
L 1581 2338 
L 1581 331 
L 2175 331 
L 2175 0 
L 353 0 
z
" transform="scale(0.015625)"/>
       </defs>
       <use xlink:href="#DejaVuSerif-38"/>
       <use xlink:href="#DejaVuSerif-34" x="63.623047"/>
       <use xlink:href="#DejaVuSerif-31" x="127.246094"/>
       <use xlink:href="#DejaVuSerif-20" x="190.869141"/>
       <use xlink:href="#DejaVuSerif-2d" x="222.65625"/>
       <use xlink:href="#DejaVuSerif-20" x="256.445312"/>
       <use xlink:href="#DejaVuSerif-42" x="288.232422"/>
       <use xlink:href="#DejaVuSerif-4d" x="361.71875"/>
       <use xlink:href="#DejaVuSerif-4f" x="464.111328"/>
       <use xlink:href="#DejaVuSerif-4e" x="546.09375"/>
       <use xlink:href="#DejaVuSerif-54" x="633.59375"/>
       <use xlink:href="#DejaVuSerif-45" x="700.292969"/>
       <use xlink:href="#DejaVuSerif-55" x="773.291016"/>
       <use xlink:href="#DejaVuSerif-48" x="857.568359"/>
       <use xlink:href="#DejaVuSerif-45" x="944.775391"/>
       <use xlink:href="#DejaVuSerif-30" x="1017.773438"/>
       <use xlink:href="#DejaVuSerif-31" x="1081.396484"/>
       <use xlink:href="#DejaVuSerif-38" x="1145.019531"/>
      </g>
     </g>
    </g>
    <g id="xtick_3">
     <g id="line2d_5">
      <path d="M 181.190159 324.700464 
L 181.190159 28.08375 
" clip-path="url(#p345adb26ea)" style="fill: none; stroke: #ffffff; stroke-width: 0.8; stroke-linecap: square"/>
     </g>
     <g id="line2d_6">
      <g>
       <use xlink:href="#m652ef61d89" x="181.190159" y="324.700464" style="stroke: #000000; stroke-width: 0.8"/>
      </g>
     </g>
     <g id="text_3">
      <!-- 582 - LAJEADUHE003 -->
      <g transform="translate(82.488359 394.66606) rotate(-30) scale(0.1 -0.1)">
       <defs>
        <path id="DejaVuSerif-35" d="M 3219 4666 
L 3219 4153 
L 1081 4153 
L 1081 2816 
Q 1244 2928 1461 2984 
Q 1678 3041 1947 3041 
Q 2703 3041 3140 2622 
Q 3578 2203 3578 1478 
Q 3578 738 3136 323 
Q 2694 -91 1894 -91 
Q 1572 -91 1234 -12 
Q 897 66 544 225 
L 544 1131 
L 897 1131 
Q 925 688 1179 453 
Q 1434 219 1894 219 
Q 2388 219 2653 544 
Q 2919 869 2919 1478 
Q 2919 2084 2655 2407 
Q 2391 2731 1894 2731 
Q 1613 2731 1398 2631 
Q 1184 2531 1019 2322 
L 750 2322 
L 750 4666 
L 3219 4666 
z
" transform="scale(0.015625)"/>
        <path id="DejaVuSerif-32" d="M 819 3553 
L 469 3553 
L 469 4384 
Q 803 4563 1142 4656 
Q 1481 4750 1806 4750 
Q 2534 4750 2956 4397 
Q 3378 4044 3378 3438 
Q 3378 2753 2422 1800 
Q 2347 1728 2309 1691 
L 1131 513 
L 3078 513 
L 3078 1088 
L 3444 1088 
L 3444 0 
L 434 0 
L 434 341 
L 1850 1753 
Q 2319 2222 2519 2614 
Q 2719 3006 2719 3438 
Q 2719 3909 2473 4175 
Q 2228 4441 1797 4441 
Q 1350 4441 1106 4219 
Q 863 3997 819 3553 
z
" transform="scale(0.015625)"/>
        <path id="DejaVuSerif-4c" d="M 353 0 
L 353 331 
L 947 331 
L 947 4331 
L 353 4331 
L 353 4666 
L 2175 4666 
L 2175 4331 
L 1581 4331 
L 1581 384 
L 3713 384 
L 3713 1166 
L 4097 1166 
L 4097 0 
L 353 0 
z
" transform="scale(0.015625)"/>
        <path id="DejaVuSerif-4a" d="M -538 -1119 
L -538 -384 
L -181 -384 
Q -172 -694 -34 -845 
Q 103 -997 378 -997 
Q 750 -997 897 -762 
Q 1044 -528 1044 153 
L 1044 4331 
L 319 4331 
L 319 4666 
L 2272 4666 
L 2272 4331 
L 1678 4331 
L 1678 128 
Q 1678 -644 1368 -987 
Q 1059 -1331 372 -1331 
Q 150 -1331 -79 -1278 
Q -309 -1225 -538 -1119 
z
" transform="scale(0.015625)"/>
        <path id="DejaVuSerif-44" d="M 1581 331 
L 2163 331 
Q 3072 331 3558 850 
Q 4044 1369 4044 2338 
Q 4044 3306 3559 3818 
Q 3075 4331 2163 4331 
L 1581 4331 
L 1581 331 
z
M 353 0 
L 353 331 
L 947 331 
L 947 4331 
L 353 4331 
L 353 4666 
L 2209 4666 
Q 3416 4666 4089 4050 
Q 4763 3434 4763 2338 
Q 4763 1238 4088 619 
Q 3413 0 2209 0 
L 353 0 
z
" transform="scale(0.015625)"/>
        <path id="DejaVuSerif-33" d="M 622 4469 
Q 988 4606 1323 4678 
Q 1659 4750 1953 4750 
Q 2638 4750 3022 4454 
Q 3406 4159 3406 3634 
Q 3406 3213 3140 2930 
Q 2875 2647 2388 2547 
Q 2963 2466 3280 2130 
Q 3597 1794 3597 1259 
Q 3597 606 3158 257 
Q 2719 -91 1894 -91 
Q 1528 -91 1179 -12 
Q 831 66 488 225 
L 488 1131 
L 838 1131 
Q 869 681 1141 450 
Q 1413 219 1906 219 
Q 2384 219 2661 495 
Q 2938 772 2938 1253 
Q 2938 1803 2653 2086 
Q 2369 2369 1819 2369 
L 1522 2369 
L 1522 2688 
L 1678 2688 
Q 2225 2688 2498 2914 
Q 2772 3141 2772 3597 
Q 2772 4006 2547 4223 
Q 2322 4441 1900 4441 
Q 1478 4441 1245 4241 
Q 1013 4041 972 3647 
L 622 3647 
L 622 4469 
z
" transform="scale(0.015625)"/>
       </defs>
       <use xlink:href="#DejaVuSerif-35"/>
       <use xlink:href="#DejaVuSerif-38" x="63.623047"/>
       <use xlink:href="#DejaVuSerif-32" x="127.246094"/>
       <use xlink:href="#DejaVuSerif-20" x="190.869141"/>
       <use xlink:href="#DejaVuSerif-2d" x="222.65625"/>
       <use xlink:href="#DejaVuSerif-20" x="256.445312"/>
       <use xlink:href="#DejaVuSerif-4c" x="288.232422"/>
       <use xlink:href="#DejaVuSerif-41" x="354.638672"/>
       <use xlink:href="#DejaVuSerif-4a" x="426.855469"/>
       <use xlink:href="#DejaVuSerif-45" x="466.943359"/>
       <use xlink:href="#DejaVuSerif-41" x="539.941406"/>
       <use xlink:href="#DejaVuSerif-44" x="612.158203"/>
       <use xlink:href="#DejaVuSerif-55" x="692.333984"/>
       <use xlink:href="#DejaVuSerif-48" x="776.611328"/>
       <use xlink:href="#DejaVuSerif-45" x="863.818359"/>
       <use xlink:href="#DejaVuSerif-30" x="936.816406"/>
       <use xlink:href="#DejaVuSerif-30" x="1000.439453"/>
       <use xlink:href="#DejaVuSerif-33" x="1064.0625"/>
      </g>
     </g>
    </g>
    <g id="xtick_4">
     <g id="line2d_7">
      <path d="M 215.33636 324.700464 
L 215.33636 28.08375 
" clip-path="url(#p345adb26ea)" style="fill: none; stroke: #ffffff; stroke-width: 0.8; stroke-linecap: square"/>
     </g>
     <g id="line2d_8">
      <g>
       <use xlink:href="#m652ef61d89" x="215.33636" y="324.700464" style="stroke: #000000; stroke-width: 0.8"/>
      </g>
     </g>
     <g id="text_4">
      <!-- 861 - ESTREIUHE008 -->
      <g transform="translate(117.336854 394.260591) rotate(-30) scale(0.1 -0.1)">
       <defs>
        <path id="DejaVuSerif-36" d="M 2094 219 
Q 2534 219 2771 542 
Q 3009 866 3009 1472 
Q 3009 2078 2771 2401 
Q 2534 2725 2094 2725 
Q 1647 2725 1412 2412 
Q 1178 2100 1178 1509 
Q 1178 888 1415 553 
Q 1653 219 2094 219 
z
M 1075 2569 
Q 1288 2803 1556 2918 
Q 1825 3034 2163 3034 
Q 2859 3034 3264 2615 
Q 3669 2197 3669 1472 
Q 3669 763 3233 336 
Q 2797 -91 2069 -91 
Q 1278 -91 853 498 
Q 428 1088 428 2181 
Q 428 3406 931 4078 
Q 1434 4750 2350 4750 
Q 2597 4750 2869 4703 
Q 3141 4656 3425 4563 
L 3425 3794 
L 3072 3794 
Q 3034 4109 2831 4275 
Q 2628 4441 2284 4441 
Q 1678 4441 1381 3981 
Q 1084 3522 1075 2569 
z
" transform="scale(0.015625)"/>
       </defs>
       <use xlink:href="#DejaVuSerif-38"/>
       <use xlink:href="#DejaVuSerif-36" x="63.623047"/>
       <use xlink:href="#DejaVuSerif-31" x="127.246094"/>
       <use xlink:href="#DejaVuSerif-20" x="190.869141"/>
       <use xlink:href="#DejaVuSerif-2d" x="222.65625"/>
       <use xlink:href="#DejaVuSerif-20" x="256.445312"/>
       <use xlink:href="#DejaVuSerif-45" x="288.232422"/>
       <use xlink:href="#DejaVuSerif-53" x="361.230469"/>
       <use xlink:href="#DejaVuSerif-54" x="429.736328"/>
       <use xlink:href="#DejaVuSerif-52" x="496.435547"/>
       <use xlink:href="#DejaVuSerif-45" x="571.728516"/>
       <use xlink:href="#DejaVuSerif-49" x="644.726562"/>
       <use xlink:href="#DejaVuSerif-55" x="684.228516"/>
       <use xlink:href="#DejaVuSerif-48" x="768.505859"/>
       <use xlink:href="#DejaVuSerif-45" x="855.712891"/>
       <use xlink:href="#DejaVuSerif-30" x="928.710938"/>
       <use xlink:href="#DejaVuSerif-30" x="992.333984"/>
       <use xlink:href="#DejaVuSerif-38" x="1055.957031"/>
      </g>
     </g>
    </g>
    <g id="xtick_5">
     <g id="line2d_9">
      <path d="M 249.482562 324.700464 
L 249.482562 28.08375 
" clip-path="url(#p345adb26ea)" style="fill: none; stroke: #ffffff; stroke-width: 0.8; stroke-linecap: square"/>
     </g>
     <g id="line2d_10">
      <g>
       <use xlink:href="#m652ef61d89" x="249.482562" y="324.700464" style="stroke: #000000; stroke-width: 0.8"/>
      </g>
     </g>
     <g id="text_5">
      <!-- 861 - MAR3-GUTE000 -->
      <g transform="translate(150.554785 394.796529) rotate(-30) scale(0.1 -0.1)">
       <defs>
        <path id="DejaVuSerif-47" d="M 4097 3272 
Q 3988 3856 3641 4136 
Q 3294 4416 2675 4416 
Q 1869 4416 1472 3897 
Q 1075 3378 1075 2328 
Q 1075 1300 1484 772 
Q 1894 244 2688 244 
Q 3041 244 3362 331 
Q 3684 419 3975 594 
L 3975 1797 
L 3097 1797 
L 3097 2131 
L 4609 2131 
L 4609 391 
Q 4194 150 3714 29 
Q 3234 -91 2688 -91 
Q 1631 -91 995 570 
Q 359 1231 359 2328 
Q 359 3434 996 4092 
Q 1634 4750 2713 4750 
Q 3113 4750 3539 4658 
Q 3966 4566 4447 4378 
L 4447 3272 
L 4097 3272 
z
" transform="scale(0.015625)"/>
       </defs>
       <use xlink:href="#DejaVuSerif-38"/>
       <use xlink:href="#DejaVuSerif-36" x="63.623047"/>
       <use xlink:href="#DejaVuSerif-31" x="127.246094"/>
       <use xlink:href="#DejaVuSerif-20" x="190.869141"/>
       <use xlink:href="#DejaVuSerif-2d" x="222.65625"/>
       <use xlink:href="#DejaVuSerif-20" x="256.445312"/>
       <use xlink:href="#DejaVuSerif-4d" x="288.232422"/>
       <use xlink:href="#DejaVuSerif-41" x="390.625"/>
       <use xlink:href="#DejaVuSerif-52" x="462.841797"/>
       <use xlink:href="#DejaVuSerif-33" x="538.134766"/>
       <use xlink:href="#DejaVuSerif-2d" x="601.757812"/>
       <use xlink:href="#DejaVuSerif-47" x="635.546875"/>
       <use xlink:href="#DejaVuSerif-55" x="715.429688"/>
       <use xlink:href="#DejaVuSerif-54" x="799.707031"/>
       <use xlink:href="#DejaVuSerif-45" x="866.40625"/>
       <use xlink:href="#DejaVuSerif-30" x="939.404297"/>
       <use xlink:href="#DejaVuSerif-30" x="1003.027344"/>
       <use xlink:href="#DejaVuSerif-30" x="1066.650391"/>
      </g>
     </g>
    </g>
    <g id="xtick_6">
     <g id="line2d_11">
      <path d="M 283.628764 324.700464 
L 283.628764 28.08375 
" clip-path="url(#p345adb26ea)" style="fill: none; stroke: #ffffff; stroke-width: 0.8; stroke-linecap: square"/>
     </g>
     <g id="line2d_12">
      <g>
       <use xlink:href="#m652ef61d89" x="283.628764" y="324.700464" style="stroke: #000000; stroke-width: 0.8"/>
      </g>
     </g>
     <g id="text_6">
      <!-- 863 - IMPER1SIN001 -->
      <g transform="translate(187.698246 393.06606) rotate(-30) scale(0.1 -0.1)">
       <defs>
        <path id="DejaVuSerif-50" d="M 1581 2375 
L 2406 2375 
Q 2872 2375 3115 2626 
Q 3359 2878 3359 3353 
Q 3359 3831 3115 4081 
Q 2872 4331 2406 4331 
L 1581 4331 
L 1581 2375 
z
M 353 0 
L 353 331 
L 947 331 
L 947 4331 
L 353 4331 
L 353 4666 
L 2559 4666 
Q 3259 4666 3668 4311 
Q 4078 3956 4078 3353 
Q 4078 2753 3668 2397 
Q 3259 2041 2559 2041 
L 1581 2041 
L 1581 331 
L 2303 331 
L 2303 0 
L 353 0 
z
" transform="scale(0.015625)"/>
       </defs>
       <use xlink:href="#DejaVuSerif-38"/>
       <use xlink:href="#DejaVuSerif-36" x="63.623047"/>
       <use xlink:href="#DejaVuSerif-33" x="127.246094"/>
       <use xlink:href="#DejaVuSerif-20" x="190.869141"/>
       <use xlink:href="#DejaVuSerif-2d" x="222.65625"/>
       <use xlink:href="#DejaVuSerif-20" x="256.445312"/>
       <use xlink:href="#DejaVuSerif-49" x="288.232422"/>
       <use xlink:href="#DejaVuSerif-4d" x="327.734375"/>
       <use xlink:href="#DejaVuSerif-50" x="430.126953"/>
       <use xlink:href="#DejaVuSerif-45" x="497.412109"/>
       <use xlink:href="#DejaVuSerif-52" x="570.410156"/>
       <use xlink:href="#DejaVuSerif-31" x="645.703125"/>
       <use xlink:href="#DejaVuSerif-53" x="709.326172"/>
       <use xlink:href="#DejaVuSerif-49" x="777.832031"/>
       <use xlink:href="#DejaVuSerif-4e" x="817.333984"/>
       <use xlink:href="#DejaVuSerif-30" x="904.833984"/>
       <use xlink:href="#DejaVuSerif-30" x="968.457031"/>
       <use xlink:href="#DejaVuSerif-31" x="1032.080078"/>
      </g>
     </g>
    </g>
    <g id="xtick_7">
     <g id="line2d_13">
      <path d="M 317.774966 324.700464 
L 317.774966 28.08375 
" clip-path="url(#p345adb26ea)" style="fill: none; stroke: #ffffff; stroke-width: 0.8; stroke-linecap: square"/>
     </g>
     <g id="line2d_14">
      <g>
       <use xlink:href="#m652ef61d89" x="317.774966" y="324.700464" style="stroke: #000000; stroke-width: 0.8"/>
      </g>
     </g>
     <g id="text_7">
      <!-- 862 - PDUTRASIN001 -->
      <g transform="translate(219.691563 394.309029) rotate(-30) scale(0.1 -0.1)">
       <use xlink:href="#DejaVuSerif-38"/>
       <use xlink:href="#DejaVuSerif-36" x="63.623047"/>
       <use xlink:href="#DejaVuSerif-32" x="127.246094"/>
       <use xlink:href="#DejaVuSerif-20" x="190.869141"/>
       <use xlink:href="#DejaVuSerif-2d" x="222.65625"/>
       <use xlink:href="#DejaVuSerif-20" x="256.445312"/>
       <use xlink:href="#DejaVuSerif-50" x="288.232422"/>
       <use xlink:href="#DejaVuSerif-44" x="355.517578"/>
       <use xlink:href="#DejaVuSerif-55" x="435.693359"/>
       <use xlink:href="#DejaVuSerif-54" x="519.970703"/>
       <use xlink:href="#DejaVuSerif-52" x="586.669922"/>
       <use xlink:href="#DejaVuSerif-41" x="661.962891"/>
       <use xlink:href="#DejaVuSerif-53" x="734.179688"/>
       <use xlink:href="#DejaVuSerif-49" x="802.685547"/>
       <use xlink:href="#DejaVuSerif-4e" x="842.1875"/>
       <use xlink:href="#DejaVuSerif-30" x="929.6875"/>
       <use xlink:href="#DejaVuSerif-30" x="993.310547"/>
       <use xlink:href="#DejaVuSerif-31" x="1056.933594"/>
      </g>
     </g>
    </g>
    <g id="xtick_8">
     <g id="line2d_15">
      <path d="M 351.921168 324.700464 
L 351.921168 28.08375 
" clip-path="url(#p345adb26ea)" style="fill: none; stroke: #ffffff; stroke-width: 0.8; stroke-linecap: square"/>
     </g>
     <g id="line2d_16">
      <g>
       <use xlink:href="#m652ef61d89" x="351.921168" y="324.700464" style="stroke: #000000; stroke-width: 0.8"/>
      </g>
     </g>
     <g id="text_8">
      <!-- 821 - SA.JARUHE001 -->
      <g transform="translate(257.02988 392.46606) rotate(-30) scale(0.1 -0.1)">
       <defs>
        <path id="DejaVuSerif-2e" d="M 603 325 
Q 603 500 722 622 
Q 841 744 1019 744 
Q 1191 744 1312 622 
Q 1434 500 1434 325 
Q 1434 153 1312 31 
Q 1191 -91 1019 -91 
Q 841 -91 722 29 
Q 603 150 603 325 
z
" transform="scale(0.015625)"/>
       </defs>
       <use xlink:href="#DejaVuSerif-38"/>
       <use xlink:href="#DejaVuSerif-32" x="63.623047"/>
       <use xlink:href="#DejaVuSerif-31" x="127.246094"/>
       <use xlink:href="#DejaVuSerif-20" x="190.869141"/>
       <use xlink:href="#DejaVuSerif-2d" x="222.65625"/>
       <use xlink:href="#DejaVuSerif-20" x="256.445312"/>
       <use xlink:href="#DejaVuSerif-53" x="288.232422"/>
       <use xlink:href="#DejaVuSerif-41" x="356.738281"/>
       <use xlink:href="#DejaVuSerif-2e" x="428.955078"/>
       <use xlink:href="#DejaVuSerif-4a" x="460.742188"/>
       <use xlink:href="#DejaVuSerif-41" x="500.830078"/>
       <use xlink:href="#DejaVuSerif-52" x="573.046875"/>
       <use xlink:href="#DejaVuSerif-55" x="648.339844"/>
       <use xlink:href="#DejaVuSerif-48" x="732.617188"/>
       <use xlink:href="#DejaVuSerif-45" x="819.824219"/>
       <use xlink:href="#DejaVuSerif-30" x="892.822266"/>
       <use xlink:href="#DejaVuSerif-30" x="956.445312"/>
       <use xlink:href="#DejaVuSerif-31" x="1020.068359"/>
      </g>
     </g>
    </g>
    <g id="xtick_9">
     <g id="line2d_17">
      <path d="M 386.06737 324.700464 
L 386.06737 28.08375 
" clip-path="url(#p345adb26ea)" style="fill: none; stroke: #ffffff; stroke-width: 0.8; stroke-linecap: square"/>
     </g>
     <g id="line2d_18">
      <g>
       <use xlink:href="#m652ef61d89" x="386.06737" y="324.700464" style="stroke: #000000; stroke-width: 0.8"/>
      </g>
     </g>
     <g id="text_9">
      <!-- 843 - VCONDESIN002 -->
      <g transform="translate(285.781015 395.580904) rotate(-30) scale(0.1 -0.1)">
       <defs>
        <path id="DejaVuSerif-56" d="M 1119 4331 
L 2497 750 
L 3872 4331 
L 3347 4331 
L 3347 4666 
L 4716 4666 
L 4716 4331 
L 4263 4331 
L 2597 0 
L 2059 0 
L 403 4331 
L -63 4331 
L -63 4666 
L 1638 4666 
L 1638 4331 
L 1119 4331 
z
" transform="scale(0.015625)"/>
        <path id="DejaVuSerif-43" d="M 4513 1234 
Q 4306 581 3820 245 
Q 3334 -91 2591 -91 
Q 2134 -91 1743 65 
Q 1353 222 1050 525 
Q 700 875 529 1320 
Q 359 1766 359 2328 
Q 359 3416 987 4083 
Q 1616 4750 2644 4750 
Q 3025 4750 3456 4650 
Q 3888 4550 4384 4347 
L 4384 3272 
L 4031 3272 
Q 3916 3859 3567 4137 
Q 3219 4416 2591 4416 
Q 1844 4416 1459 3886 
Q 1075 3356 1075 2328 
Q 1075 1303 1459 773 
Q 1844 244 2591 244 
Q 3113 244 3450 492 
Q 3788 741 3938 1234 
L 4513 1234 
z
" transform="scale(0.015625)"/>
       </defs>
       <use xlink:href="#DejaVuSerif-38"/>
       <use xlink:href="#DejaVuSerif-34" x="63.623047"/>
       <use xlink:href="#DejaVuSerif-33" x="127.246094"/>
       <use xlink:href="#DejaVuSerif-20" x="190.869141"/>
       <use xlink:href="#DejaVuSerif-2d" x="222.65625"/>
       <use xlink:href="#DejaVuSerif-20" x="256.445312"/>
       <use xlink:href="#DejaVuSerif-56" x="288.232422"/>
       <use xlink:href="#DejaVuSerif-43" x="360.449219"/>
       <use xlink:href="#DejaVuSerif-4f" x="436.962891"/>
       <use xlink:href="#DejaVuSerif-4e" x="518.945312"/>
       <use xlink:href="#DejaVuSerif-44" x="606.445312"/>
       <use xlink:href="#DejaVuSerif-45" x="686.621094"/>
       <use xlink:href="#DejaVuSerif-53" x="759.619141"/>
       <use xlink:href="#DejaVuSerif-49" x="828.125"/>
       <use xlink:href="#DejaVuSerif-4e" x="867.626953"/>
       <use xlink:href="#DejaVuSerif-30" x="955.126953"/>
       <use xlink:href="#DejaVuSerif-30" x="1018.75"/>
       <use xlink:href="#DejaVuSerif-32" x="1082.373047"/>
      </g>
     </g>
    </g>
    <g id="xtick_10">
     <g id="line2d_19">
      <path d="M 420.213571 324.700464 
L 420.213571 28.08375 
" clip-path="url(#p345adb26ea)" style="fill: none; stroke: #ffffff; stroke-width: 0.8; stroke-linecap: square"/>
     </g>
     <g id="line2d_20">
      <g>
       <use xlink:href="#m652ef61d89" x="420.213571" y="324.700464" style="stroke: #000000; stroke-width: 0.8"/>
      </g>
     </g>
     <g id="text_10">
      <!-- 861 - DLT7-8EOL036 -->
      <g transform="translate(326.794527 391.61606) rotate(-30) scale(0.1 -0.1)">
       <defs>
        <path id="DejaVuSerif-37" d="M 3609 4347 
L 1784 0 
L 1319 0 
L 3059 4153 
L 903 4153 
L 903 3578 
L 538 3578 
L 538 4666 
L 3609 4666 
L 3609 4347 
z
" transform="scale(0.015625)"/>
       </defs>
       <use xlink:href="#DejaVuSerif-38"/>
       <use xlink:href="#DejaVuSerif-36" x="63.623047"/>
       <use xlink:href="#DejaVuSerif-31" x="127.246094"/>
       <use xlink:href="#DejaVuSerif-20" x="190.869141"/>
       <use xlink:href="#DejaVuSerif-2d" x="222.65625"/>
       <use xlink:href="#DejaVuSerif-20" x="256.445312"/>
       <use xlink:href="#DejaVuSerif-44" x="288.232422"/>
       <use xlink:href="#DejaVuSerif-4c" x="368.408203"/>
       <use xlink:href="#DejaVuSerif-54" x="426.689453"/>
       <use xlink:href="#DejaVuSerif-37" x="493.388672"/>
       <use xlink:href="#DejaVuSerif-2d" x="557.011719"/>
       <use xlink:href="#DejaVuSerif-38" x="590.800781"/>
       <use xlink:href="#DejaVuSerif-45" x="654.423828"/>
       <use xlink:href="#DejaVuSerif-4f" x="727.421875"/>
       <use xlink:href="#DejaVuSerif-4c" x="809.404297"/>
       <use xlink:href="#DejaVuSerif-30" x="875.810547"/>
       <use xlink:href="#DejaVuSerif-33" x="939.433594"/>
       <use xlink:href="#DejaVuSerif-36" x="1003.056641"/>
      </g>
     </g>
    </g>
    <g id="xtick_11">
     <g id="line2d_21">
      <path d="M 454.359773 324.700464 
L 454.359773 28.08375 
" clip-path="url(#p345adb26ea)" style="fill: none; stroke: #ffffff; stroke-width: 0.8; stroke-linecap: square"/>
     </g>
     <g id="line2d_22">
      <g>
       <use xlink:href="#m652ef61d89" x="454.359773" y="324.700464" style="stroke: #000000; stroke-width: 0.8"/>
      </g>
     </g>
     <g id="text_11">
      <!-- 841 - BMONTESIN000 -->
      <g transform="translate(352.889399 396.264498) rotate(-30) scale(0.1 -0.1)">
       <use xlink:href="#DejaVuSerif-38"/>
       <use xlink:href="#DejaVuSerif-34" x="63.623047"/>
       <use xlink:href="#DejaVuSerif-31" x="127.246094"/>
       <use xlink:href="#DejaVuSerif-20" x="190.869141"/>
       <use xlink:href="#DejaVuSerif-2d" x="222.65625"/>
       <use xlink:href="#DejaVuSerif-20" x="256.445312"/>
       <use xlink:href="#DejaVuSerif-42" x="288.232422"/>
       <use xlink:href="#DejaVuSerif-4d" x="361.71875"/>
       <use xlink:href="#DejaVuSerif-4f" x="464.111328"/>
       <use xlink:href="#DejaVuSerif-4e" x="546.09375"/>
       <use xlink:href="#DejaVuSerif-54" x="633.59375"/>
       <use xlink:href="#DejaVuSerif-45" x="700.292969"/>
       <use xlink:href="#DejaVuSerif-53" x="773.291016"/>
       <use xlink:href="#DejaVuSerif-49" x="841.796875"/>
       <use xlink:href="#DejaVuSerif-4e" x="881.298828"/>
       <use xlink:href="#DejaVuSerif-30" x="968.798828"/>
       <use xlink:href="#DejaVuSerif-30" x="1032.421875"/>
       <use xlink:href="#DejaVuSerif-30" x="1096.044922"/>
      </g>
     </g>
    </g>
    <g id="xtick_12">
     <g id="line2d_23">
      <path d="M 488.505975 324.700464 
L 488.505975 28.08375 
" clip-path="url(#p345adb26ea)" style="fill: none; stroke: #ffffff; stroke-width: 0.8; stroke-linecap: square"/>
     </g>
     <g id="line2d_24">
      <g>
       <use xlink:href="#m652ef61d89" x="488.505975" y="324.700464" style="stroke: #000000; stroke-width: 0.8"/>
      </g>
     </g>
     <g id="text_12">
      <!-- 861 - DELT3BEOL036 -->
      <g transform="translate(390.837994 394.069185) rotate(-30) scale(0.1 -0.1)">
       <use xlink:href="#DejaVuSerif-38"/>
       <use xlink:href="#DejaVuSerif-36" x="63.623047"/>
       <use xlink:href="#DejaVuSerif-31" x="127.246094"/>
       <use xlink:href="#DejaVuSerif-20" x="190.869141"/>
       <use xlink:href="#DejaVuSerif-2d" x="222.65625"/>
       <use xlink:href="#DejaVuSerif-20" x="256.445312"/>
       <use xlink:href="#DejaVuSerif-44" x="288.232422"/>
       <use xlink:href="#DejaVuSerif-45" x="368.408203"/>
       <use xlink:href="#DejaVuSerif-4c" x="441.40625"/>
       <use xlink:href="#DejaVuSerif-54" x="499.6875"/>
       <use xlink:href="#DejaVuSerif-33" x="566.386719"/>
       <use xlink:href="#DejaVuSerif-42" x="630.009766"/>
       <use xlink:href="#DejaVuSerif-45" x="703.496094"/>
       <use xlink:href="#DejaVuSerif-4f" x="776.494141"/>
       <use xlink:href="#DejaVuSerif-4c" x="858.476562"/>
       <use xlink:href="#DejaVuSerif-30" x="924.882812"/>
       <use xlink:href="#DejaVuSerif-33" x="988.505859"/>
       <use xlink:href="#DejaVuSerif-36" x="1052.128906"/>
      </g>
     </g>
    </g>
    <g id="xtick_13">
     <g id="line2d_25">
      <path d="M 522.652177 324.700464 
L 522.652177 28.08375 
" clip-path="url(#p345adb26ea)" style="fill: none; stroke: #ffffff; stroke-width: 0.8; stroke-linecap: square"/>
     </g>
     <g id="line2d_26">
      <g>
       <use xlink:href="#m652ef61d89" x="522.652177" y="324.700464" style="stroke: #000000; stroke-width: 0.8"/>
      </g>
     </g>
     <g id="text_13">
      <!-- 861 - DELT3CEOL036 -->
      <g transform="translate(424.721682 394.220748) rotate(-30) scale(0.1 -0.1)">
       <use xlink:href="#DejaVuSerif-38"/>
       <use xlink:href="#DejaVuSerif-36" x="63.623047"/>
       <use xlink:href="#DejaVuSerif-31" x="127.246094"/>
       <use xlink:href="#DejaVuSerif-20" x="190.869141"/>
       <use xlink:href="#DejaVuSerif-2d" x="222.65625"/>
       <use xlink:href="#DejaVuSerif-20" x="256.445312"/>
       <use xlink:href="#DejaVuSerif-44" x="288.232422"/>
       <use xlink:href="#DejaVuSerif-45" x="368.408203"/>
       <use xlink:href="#DejaVuSerif-4c" x="441.40625"/>
       <use xlink:href="#DejaVuSerif-54" x="499.6875"/>
       <use xlink:href="#DejaVuSerif-33" x="566.386719"/>
       <use xlink:href="#DejaVuSerif-43" x="630.009766"/>
       <use xlink:href="#DejaVuSerif-45" x="706.523438"/>
       <use xlink:href="#DejaVuSerif-4f" x="779.521484"/>
       <use xlink:href="#DejaVuSerif-4c" x="861.503906"/>
       <use xlink:href="#DejaVuSerif-30" x="927.910156"/>
       <use xlink:href="#DejaVuSerif-33" x="991.533203"/>
       <use xlink:href="#DejaVuSerif-36" x="1055.15625"/>
      </g>
     </g>
    </g>
    <g id="xtick_14">
     <g id="line2d_27">
      <path d="M 556.798379 324.700464 
L 556.798379 28.08375 
" clip-path="url(#p345adb26ea)" style="fill: none; stroke: #ffffff; stroke-width: 0.8; stroke-linecap: square"/>
     </g>
     <g id="line2d_28">
      <g>
       <use xlink:href="#m652ef61d89" x="556.798379" y="324.700464" style="stroke: #000000; stroke-width: 0.8"/>
      </g>
     </g>
     <g id="text_14">
      <!-- 861 - DLT5-6EOL030 -->
      <g transform="translate(463.379335 391.61606) rotate(-30) scale(0.1 -0.1)">
       <use xlink:href="#DejaVuSerif-38"/>
       <use xlink:href="#DejaVuSerif-36" x="63.623047"/>
       <use xlink:href="#DejaVuSerif-31" x="127.246094"/>
       <use xlink:href="#DejaVuSerif-20" x="190.869141"/>
       <use xlink:href="#DejaVuSerif-2d" x="222.65625"/>
       <use xlink:href="#DejaVuSerif-20" x="256.445312"/>
       <use xlink:href="#DejaVuSerif-44" x="288.232422"/>
       <use xlink:href="#DejaVuSerif-4c" x="368.408203"/>
       <use xlink:href="#DejaVuSerif-54" x="426.689453"/>
       <use xlink:href="#DejaVuSerif-35" x="493.388672"/>
       <use xlink:href="#DejaVuSerif-2d" x="557.011719"/>
       <use xlink:href="#DejaVuSerif-36" x="590.800781"/>
       <use xlink:href="#DejaVuSerif-45" x="654.423828"/>
       <use xlink:href="#DejaVuSerif-4f" x="727.421875"/>
       <use xlink:href="#DejaVuSerif-4c" x="809.404297"/>
       <use xlink:href="#DejaVuSerif-30" x="875.810547"/>
       <use xlink:href="#DejaVuSerif-33" x="939.433594"/>
       <use xlink:href="#DejaVuSerif-30" x="1003.056641"/>
      </g>
     </g>
    </g>
    <g id="xtick_15">
     <g id="line2d_29">
      <path d="M 590.944581 324.700464 
L 590.944581 28.08375 
" clip-path="url(#p345adb26ea)" style="fill: none; stroke: #ffffff; stroke-width: 0.8; stroke-linecap: square"/>
     </g>
     <g id="line2d_30">
      <g>
       <use xlink:href="#m652ef61d89" x="590.944581" y="324.700464" style="stroke: #000000; stroke-width: 0.8"/>
      </g>
     </g>
     <g id="text_15">
      <!-- 861 - DELT3AEOL024 -->
      <g transform="translate(493.386206 394.005904) rotate(-30) scale(0.1 -0.1)">
       <use xlink:href="#DejaVuSerif-38"/>
       <use xlink:href="#DejaVuSerif-36" x="63.623047"/>
       <use xlink:href="#DejaVuSerif-31" x="127.246094"/>
       <use xlink:href="#DejaVuSerif-20" x="190.869141"/>
       <use xlink:href="#DejaVuSerif-2d" x="222.65625"/>
       <use xlink:href="#DejaVuSerif-20" x="256.445312"/>
       <use xlink:href="#DejaVuSerif-44" x="288.232422"/>
       <use xlink:href="#DejaVuSerif-45" x="368.408203"/>
       <use xlink:href="#DejaVuSerif-4c" x="441.40625"/>
       <use xlink:href="#DejaVuSerif-54" x="499.6875"/>
       <use xlink:href="#DejaVuSerif-33" x="566.386719"/>
       <use xlink:href="#DejaVuSerif-41" x="630.009766"/>
       <use xlink:href="#DejaVuSerif-45" x="702.226562"/>
       <use xlink:href="#DejaVuSerif-4f" x="775.224609"/>
       <use xlink:href="#DejaVuSerif-4c" x="857.207031"/>
       <use xlink:href="#DejaVuSerif-30" x="923.613281"/>
       <use xlink:href="#DejaVuSerif-32" x="987.236328"/>
       <use xlink:href="#DejaVuSerif-34" x="1050.859375"/>
      </g>
     </g>
    </g>
    <g id="text_16">
     <!-- Bus -->
     <g transform="translate(335.838902 417.432122) scale(0.17 -0.17)">
      <defs>
       <path id="DejaVuSerif-75" d="M 2266 3322 
L 3341 3322 
L 3341 331 
L 3884 331 
L 3884 0 
L 2766 0 
L 2766 588 
Q 2606 256 2353 82 
Q 2100 -91 1766 -91 
Q 1213 -91 952 223 
Q 691 538 691 1209 
L 691 2988 
L 172 2988 
L 172 3322 
L 1269 3322 
L 1269 1388 
Q 1269 781 1417 556 
Q 1566 331 1947 331 
Q 2347 331 2556 625 
Q 2766 919 2766 1478 
L 2766 2988 
L 2266 2988 
L 2266 3322 
z
" transform="scale(0.015625)"/>
       <path id="DejaVuSerif-73" d="M 359 184 
L 359 959 
L 691 959 
Q 703 588 923 403 
Q 1144 219 1575 219 
Q 1963 219 2166 364 
Q 2369 509 2369 788 
Q 2369 1006 2220 1140 
Q 2072 1275 1594 1428 
L 1178 1569 
Q 750 1706 558 1912 
Q 366 2119 366 2438 
Q 366 2894 700 3153 
Q 1034 3413 1625 3413 
Q 1888 3413 2178 3344 
Q 2469 3275 2778 3144 
L 2778 2419 
L 2447 2419 
Q 2434 2741 2221 2922 
Q 2009 3103 1644 3103 
Q 1281 3103 1095 2975 
Q 909 2847 909 2591 
Q 909 2381 1050 2254 
Q 1191 2128 1613 1997 
L 2069 1856 
Q 2541 1709 2748 1489 
Q 2956 1269 2956 922 
Q 2956 450 2595 179 
Q 2234 -91 1600 -91 
Q 1278 -91 972 -22 
Q 666 47 359 184 
z
" transform="scale(0.015625)"/>
      </defs>
      <use xlink:href="#DejaVuSerif-42"/>
      <use xlink:href="#DejaVuSerif-75" x="73.486328"/>
      <use xlink:href="#DejaVuSerif-73" x="137.890625"/>
     </g>
    </g>
   </g>
   <g id="matplotlib.axis_2">
    <g id="ytick_1">
     <g id="line2d_31">
      <path d="M 88.995414 311.217886 
L 614.846922 311.217886 
" clip-path="url(#p345adb26ea)" style="fill: none; stroke: #ffffff; stroke-width: 0.8; stroke-linecap: square"/>
     </g>
     <g id="line2d_32">
      <defs>
       <path id="m5490779d40" d="M 0 0 
L -3.5 0 
" style="stroke: #000000; stroke-width: 0.8"/>
      </defs>
      <g>
       <use xlink:href="#m5490779d40" x="88.995414" y="311.217886" style="stroke: #000000; stroke-width: 0.8"/>
      </g>
     </g>
     <g id="text_17">
      <!-- 0.0 -->
      <g transform="translate(58.140726 316.916714) scale(0.15 -0.15)">
       <use xlink:href="#DejaVuSerif-30"/>
       <use xlink:href="#DejaVuSerif-2e" x="63.623047"/>
       <use xlink:href="#DejaVuSerif-30" x="95.410156"/>
      </g>
     </g>
    </g>
    <g id="ytick_2">
     <g id="line2d_33">
      <path d="M 88.995414 254.194259 
L 614.846922 254.194259 
" clip-path="url(#p345adb26ea)" style="fill: none; stroke: #ffffff; stroke-width: 0.8; stroke-linecap: square"/>
     </g>
     <g id="line2d_34">
      <g>
       <use xlink:href="#m5490779d40" x="88.995414" y="254.194259" style="stroke: #000000; stroke-width: 0.8"/>
      </g>
     </g>
     <g id="text_18">
      <!-- 0.2 -->
      <g transform="translate(58.140726 259.893088) scale(0.15 -0.15)">
       <use xlink:href="#DejaVuSerif-30"/>
       <use xlink:href="#DejaVuSerif-2e" x="63.623047"/>
       <use xlink:href="#DejaVuSerif-32" x="95.410156"/>
      </g>
     </g>
    </g>
    <g id="ytick_3">
     <g id="line2d_35">
      <path d="M 88.995414 197.170633 
L 614.846922 197.170633 
" clip-path="url(#p345adb26ea)" style="fill: none; stroke: #ffffff; stroke-width: 0.8; stroke-linecap: square"/>
     </g>
     <g id="line2d_36">
      <g>
       <use xlink:href="#m5490779d40" x="88.995414" y="197.170633" style="stroke: #000000; stroke-width: 0.8"/>
      </g>
     </g>
     <g id="text_19">
      <!-- 0.4 -->
      <g transform="translate(58.140726 202.869461) scale(0.15 -0.15)">
       <use xlink:href="#DejaVuSerif-30"/>
       <use xlink:href="#DejaVuSerif-2e" x="63.623047"/>
       <use xlink:href="#DejaVuSerif-34" x="95.410156"/>
      </g>
     </g>
    </g>
    <g id="ytick_4">
     <g id="line2d_37">
      <path d="M 88.995414 140.147006 
L 614.846922 140.147006 
" clip-path="url(#p345adb26ea)" style="fill: none; stroke: #ffffff; stroke-width: 0.8; stroke-linecap: square"/>
     </g>
     <g id="line2d_38">
      <g>
       <use xlink:href="#m5490779d40" x="88.995414" y="140.147006" style="stroke: #000000; stroke-width: 0.8"/>
      </g>
     </g>
     <g id="text_20">
      <!-- 0.6 -->
      <g transform="translate(58.140726 145.845835) scale(0.15 -0.15)">
       <use xlink:href="#DejaVuSerif-30"/>
       <use xlink:href="#DejaVuSerif-2e" x="63.623047"/>
       <use xlink:href="#DejaVuSerif-36" x="95.410156"/>
      </g>
     </g>
    </g>
    <g id="ytick_5">
     <g id="line2d_39">
      <path d="M 88.995414 83.12338 
L 614.846922 83.12338 
" clip-path="url(#p345adb26ea)" style="fill: none; stroke: #ffffff; stroke-width: 0.8; stroke-linecap: square"/>
     </g>
     <g id="line2d_40">
      <g>
       <use xlink:href="#m5490779d40" x="88.995414" y="83.12338" style="stroke: #000000; stroke-width: 0.8"/>
      </g>
     </g>
     <g id="text_21">
      <!-- 0.8 -->
      <g transform="translate(58.140726 88.822208) scale(0.15 -0.15)">
       <use xlink:href="#DejaVuSerif-30"/>
       <use xlink:href="#DejaVuSerif-2e" x="63.623047"/>
       <use xlink:href="#DejaVuSerif-38" x="95.410156"/>
      </g>
     </g>
    </g>
    <g id="text_22">
     <!-- (p.u) -->
     <g transform="translate(50.605257 196.642029) rotate(-90) scale(0.17 -0.17)">
      <defs>
       <path id="DejaVuSerif-28" d="M 2041 -997 
Q 1281 -656 893 83 
Q 506 822 506 1931 
Q 506 3044 893 3783 
Q 1281 4522 2041 4863 
L 2041 4556 
Q 1559 4225 1350 3623 
Q 1141 3022 1141 1931 
Q 1141 844 1350 242 
Q 1559 -359 2041 -691 
L 2041 -997 
z
" transform="scale(0.015625)"/>
       <path id="DejaVuSerif-70" d="M 1313 1825 
L 1313 1497 
Q 1313 897 1542 583 
Q 1772 269 2209 269 
Q 2650 269 2876 622 
Q 3103 975 3103 1663 
Q 3103 2353 2876 2703 
Q 2650 3053 2209 3053 
Q 1772 3053 1542 2737 
Q 1313 2422 1313 1825 
z
M 738 2988 
L 184 2988 
L 184 3322 
L 1313 3322 
L 1313 2803 
Q 1481 3116 1742 3264 
Q 2003 3413 2388 3413 
Q 3000 3413 3387 2928 
Q 3775 2444 3775 1663 
Q 3775 881 3387 395 
Q 3000 -91 2388 -91 
Q 2003 -91 1742 57 
Q 1481 206 1313 519 
L 1313 -997 
L 1856 -997 
L 1856 -1331 
L 184 -1331 
L 184 -997 
L 738 -997 
L 738 2988 
z
" transform="scale(0.015625)"/>
       <path id="DejaVuSerif-29" d="M 453 -997 
L 453 -691 
Q 934 -359 1145 242 
Q 1356 844 1356 1931 
Q 1356 3022 1145 3623 
Q 934 4225 453 4556 
L 453 4863 
Q 1216 4522 1603 3783 
Q 1991 3044 1991 1931 
Q 1991 822 1603 83 
Q 1216 -656 453 -997 
z
" transform="scale(0.015625)"/>
      </defs>
      <use xlink:href="#DejaVuSerif-28"/>
      <use xlink:href="#DejaVuSerif-70" x="39.013672"/>
      <use xlink:href="#DejaVuSerif-2e" x="103.027344"/>
      <use xlink:href="#DejaVuSerif-75" x="134.814453"/>
      <use xlink:href="#DejaVuSerif-29" x="199.21875"/>
     </g>
    </g>
   </g>
   <g id="PolyCollection_1">
    <defs>
     <path id="m6950e906f5" d="M 112.897755 -382.104206 
L 112.897755 -380.879216 
L 147.043957 -352.948475 
L 181.190159 -331.634353 
L 215.33636 -323.326255 
L 249.482562 -317.538103 
L 283.628764 -308.184558 
L 317.774966 -303.700747 
L 351.921168 -289.848146 
L 386.06737 -286.163744 
L 420.213571 -279.48803 
L 454.359773 -270.12406 
L 488.505975 -263.337079 
L 522.652177 -259.974375 
L 556.798379 -258.451102 
L 590.944581 -256.602358 
L 590.944581 -259.054003 
L 590.944581 -259.054003 
L 556.798379 -260.524928 
L 522.652177 -262.300499 
L 488.505975 -265.689652 
L 454.359773 -271.042841 
L 420.213571 -281.978788 
L 386.06737 -289.101282 
L 351.921168 -293.293297 
L 317.774966 -305.641802 
L 283.628764 -311.502427 
L 249.482562 -319.009903 
L 215.33636 -325.193125 
L 181.190159 -333.534287 
L 147.043957 -353.85576 
L 112.897755 -382.104206 
z
" style="stroke: #ffa500; stroke-opacity: 0.2; stroke-width: 0.5"/>
    </defs>
    <g clip-path="url(#p345adb26ea)">
     <use xlink:href="#m6950e906f5" x="0" y="432" style="fill: #ffa500; fill-opacity: 0.2; stroke: #ffa500; stroke-opacity: 0.2; stroke-width: 0.5"/>
    </g>
   </g>
   <g id="PolyCollection_2">
    <defs>
     <path id="md6a3fd448f" d="M 112.897755 -120.848536 
L 112.897755 -120.790659 
L 147.043957 -120.782114 
L 181.190159 -122.742919 
L 215.33636 -122.360714 
L 249.482562 -123.231181 
L 283.628764 -137.654805 
L 317.774966 -124.388082 
L 351.921168 -120.823961 
L 386.06737 -122.484163 
L 420.213571 -121.413311 
L 454.359773 -120.782114 
L 488.505975 -121.394408 
L 522.652177 -121.321714 
L 556.798379 -121.258013 
L 590.944581 -121.333201 
L 590.944581 -121.516844 
L 590.944581 -121.516844 
L 556.798379 -121.406159 
L 522.652177 -121.488816 
L 488.505975 -121.58389 
L 454.359773 -120.782114 
L 420.213571 -121.610007 
L 386.06737 -122.817629 
L 351.921168 -120.939243 
L 317.774966 -125.248849 
L 283.628764 -139.278628 
L 249.482562 -123.710538 
L 215.33636 -122.869165 
L 181.190159 -123.390722 
L 147.043957 -120.782114 
L 112.897755 -120.848536 
z
" style="stroke: #800080; stroke-opacity: 0.2; stroke-width: 0.5"/>
    </defs>
    <g clip-path="url(#p345adb26ea)">
     <use xlink:href="#md6a3fd448f" x="0" y="432" style="fill: #800080; fill-opacity: 0.2; stroke: #800080; stroke-opacity: 0.2; stroke-width: 0.5"/>
    </g>
   </g>
   <g id="PolyCollection_3">
    <defs>
     <path id="mc2245705b1" d="M 112.897755 -390.433672 
L 112.897755 -389.260018 
L 147.043957 -166.186804 
L 181.190159 -121.51251 
L 215.33636 -145.177774 
L 249.482562 -313.723663 
L 283.628764 -120.782114 
L 317.774966 -204.368417 
L 351.921168 -305.320555 
L 386.06737 -363.764065 
L 420.213571 -223.297593 
L 454.359773 -164.25329 
L 488.505975 -213.133454 
L 522.652177 -204.233178 
L 556.798379 -232.256132 
L 590.944581 -185.659988 
L 590.944581 -188.756367 
L 590.944581 -188.756367 
L 556.798379 -235.765596 
L 522.652177 -207.750881 
L 488.505975 -216.821196 
L 454.359773 -166.599832 
L 420.213571 -226.850202 
L 386.06737 -366.98541 
L 351.921168 -309.686448 
L 317.774966 -206.511384 
L 283.628764 -120.782114 
L 249.482562 -315.918115 
L 215.33636 -147.460435 
L 181.190159 -121.825999 
L 147.043957 -167.48925 
L 112.897755 -390.433672 
z
" style="stroke: #0000ff; stroke-opacity: 0.2; stroke-width: 0.5"/>
    </defs>
    <g clip-path="url(#p345adb26ea)">
     <use xlink:href="#mc2245705b1" x="0" y="432" style="fill: #0000ff; fill-opacity: 0.2; stroke: #0000ff; stroke-opacity: 0.2; stroke-width: 0.5"/>
    </g>
   </g>
   <g id="PolyCollection_4">
    <defs>
     <path id="m21d2177771" d="M 112.897755 -120.78659 
L 112.897755 -120.782114 
L 147.043957 -120.791542 
L 181.190159 -121.733185 
L 215.33636 -125.077054 
L 249.482562 -121.056946 
L 283.628764 -120.825753 
L 317.774966 -120.782114 
L 351.921168 -150.882395 
L 386.06737 -120.837755 
L 420.213571 -145.052581 
L 454.359773 -120.783378 
L 488.505975 -147.158887 
L 522.652177 -152.981051 
L 556.798379 -136.611519 
L 590.944581 -146.357609 
L 590.944581 -148.492717 
L 590.944581 -148.492717 
L 556.798379 -138.193501 
L 522.652177 -155.42163 
L 488.505975 -149.262353 
L 454.359773 -120.835079 
L 420.213571 -147.216643 
L 386.06737 -120.962039 
L 351.921168 -152.611545 
L 317.774966 -120.782114 
L 283.628764 -120.890667 
L 249.482562 -121.182178 
L 215.33636 -126.087263 
L 181.190159 -122.209818 
L 147.043957 -120.819507 
L 112.897755 -120.78659 
z
" style="stroke: #008000; stroke-opacity: 0.2; stroke-width: 0.5"/>
    </defs>
    <g clip-path="url(#p345adb26ea)">
     <use xlink:href="#m21d2177771" x="0" y="432" style="fill: #008000; fill-opacity: 0.2; stroke: #008000; stroke-opacity: 0.2; stroke-width: 0.5"/>
    </g>
   </g>
   <g id="line2d_41">
    <path d="M 112.897755 50.515965 
L 147.043957 78.589516 
L 181.190159 99.380899 
L 215.33636 107.785232 
L 249.482562 113.715884 
L 283.628764 122.116332 
L 317.774966 127.361571 
L 351.921168 140.478242 
L 386.06737 144.380691 
L 420.213571 151.225208 
L 454.359773 161.436605 
L 488.505975 167.565158 
L 522.652177 170.868273 
L 556.798379 172.499626 
L 590.944581 174.161985 
" clip-path="url(#p345adb26ea)" style="fill: none; stroke: #ffa500; stroke-width: 1.5; stroke-linecap: square"/>
    <defs>
     <path id="ma5e3abe797" d="M 0 -3 
L -3 3 
L 3 3 
z
" style="stroke: #ffffff; stroke-width: 0.75; stroke-linejoin: miter"/>
    </defs>
    <g clip-path="url(#p345adb26ea)">
     <use xlink:href="#ma5e3abe797" x="112.897755" y="50.515965" style="fill: #ffa500; stroke: #ffffff; stroke-width: 0.75; stroke-linejoin: miter"/>
     <use xlink:href="#ma5e3abe797" x="147.043957" y="78.589516" style="fill: #ffa500; stroke: #ffffff; stroke-width: 0.75; stroke-linejoin: miter"/>
     <use xlink:href="#ma5e3abe797" x="181.190159" y="99.380899" style="fill: #ffa500; stroke: #ffffff; stroke-width: 0.75; stroke-linejoin: miter"/>
     <use xlink:href="#ma5e3abe797" x="215.33636" y="107.785232" style="fill: #ffa500; stroke: #ffffff; stroke-width: 0.75; stroke-linejoin: miter"/>
     <use xlink:href="#ma5e3abe797" x="249.482562" y="113.715884" style="fill: #ffa500; stroke: #ffffff; stroke-width: 0.75; stroke-linejoin: miter"/>
     <use xlink:href="#ma5e3abe797" x="283.628764" y="122.116332" style="fill: #ffa500; stroke: #ffffff; stroke-width: 0.75; stroke-linejoin: miter"/>
     <use xlink:href="#ma5e3abe797" x="317.774966" y="127.361571" style="fill: #ffa500; stroke: #ffffff; stroke-width: 0.75; stroke-linejoin: miter"/>
     <use xlink:href="#ma5e3abe797" x="351.921168" y="140.478242" style="fill: #ffa500; stroke: #ffffff; stroke-width: 0.75; stroke-linejoin: miter"/>
     <use xlink:href="#ma5e3abe797" x="386.06737" y="144.380691" style="fill: #ffa500; stroke: #ffffff; stroke-width: 0.75; stroke-linejoin: miter"/>
     <use xlink:href="#ma5e3abe797" x="420.213571" y="151.225208" style="fill: #ffa500; stroke: #ffffff; stroke-width: 0.75; stroke-linejoin: miter"/>
     <use xlink:href="#ma5e3abe797" x="454.359773" y="161.436605" style="fill: #ffa500; stroke: #ffffff; stroke-width: 0.75; stroke-linejoin: miter"/>
     <use xlink:href="#ma5e3abe797" x="488.505975" y="167.565158" style="fill: #ffa500; stroke: #ffffff; stroke-width: 0.75; stroke-linejoin: miter"/>
     <use xlink:href="#ma5e3abe797" x="522.652177" y="170.868273" style="fill: #ffa500; stroke: #ffffff; stroke-width: 0.75; stroke-linejoin: miter"/>
     <use xlink:href="#ma5e3abe797" x="556.798379" y="172.499626" style="fill: #ffa500; stroke: #ffffff; stroke-width: 0.75; stroke-linejoin: miter"/>
     <use xlink:href="#ma5e3abe797" x="590.944581" y="174.161985" style="fill: #ffa500; stroke: #ffffff; stroke-width: 0.75; stroke-linejoin: miter"/>
    </g>
   </g>
   <g id="line2d_42">
    <path d="M 112.897755 311.183402 
L 147.043957 311.217886 
L 181.190159 308.953405 
L 215.33636 309.392574 
L 249.482562 308.534332 
L 283.628764 293.551599 
L 317.774966 307.195517 
L 351.921168 311.123356 
L 386.06737 309.348225 
L 420.213571 310.493105 
L 454.359773 311.217886 
L 488.505975 310.512885 
L 522.652177 310.593266 
L 556.798379 310.669137 
L 590.944581 310.577832 
" clip-path="url(#p345adb26ea)" style="fill: none; stroke-dasharray: 6,2.25; stroke-dashoffset: 0; stroke: #800080; stroke-width: 1.5"/>
    <defs>
     <path id="mac81104905" d="M 0 -3 
L -3 3 
L 3 3 
z
" style="stroke: #ffffff; stroke-width: 0.75; stroke-linejoin: miter"/>
    </defs>
    <g clip-path="url(#p345adb26ea)">
     <use xlink:href="#mac81104905" x="112.897755" y="311.183402" style="fill: #800080; stroke: #ffffff; stroke-width: 0.75; stroke-linejoin: miter"/>
     <use xlink:href="#mac81104905" x="147.043957" y="311.217886" style="fill: #800080; stroke: #ffffff; stroke-width: 0.75; stroke-linejoin: miter"/>
     <use xlink:href="#mac81104905" x="181.190159" y="308.953405" style="fill: #800080; stroke: #ffffff; stroke-width: 0.75; stroke-linejoin: miter"/>
     <use xlink:href="#mac81104905" x="215.33636" y="309.392574" style="fill: #800080; stroke: #ffffff; stroke-width: 0.75; stroke-linejoin: miter"/>
     <use xlink:href="#mac81104905" x="249.482562" y="308.534332" style="fill: #800080; stroke: #ffffff; stroke-width: 0.75; stroke-linejoin: miter"/>
     <use xlink:href="#mac81104905" x="283.628764" y="293.551599" style="fill: #800080; stroke: #ffffff; stroke-width: 0.75; stroke-linejoin: miter"/>
     <use xlink:href="#mac81104905" x="317.774966" y="307.195517" style="fill: #800080; stroke: #ffffff; stroke-width: 0.75; stroke-linejoin: miter"/>
     <use xlink:href="#mac81104905" x="351.921168" y="311.123356" style="fill: #800080; stroke: #ffffff; stroke-width: 0.75; stroke-linejoin: miter"/>
     <use xlink:href="#mac81104905" x="386.06737" y="309.348225" style="fill: #800080; stroke: #ffffff; stroke-width: 0.75; stroke-linejoin: miter"/>
     <use xlink:href="#mac81104905" x="420.213571" y="310.493105" style="fill: #800080; stroke: #ffffff; stroke-width: 0.75; stroke-linejoin: miter"/>
     <use xlink:href="#mac81104905" x="454.359773" y="311.217886" style="fill: #800080; stroke: #ffffff; stroke-width: 0.75; stroke-linejoin: miter"/>
     <use xlink:href="#mac81104905" x="488.505975" y="310.512885" style="fill: #800080; stroke: #ffffff; stroke-width: 0.75; stroke-linejoin: miter"/>
     <use xlink:href="#mac81104905" x="522.652177" y="310.593266" style="fill: #800080; stroke: #ffffff; stroke-width: 0.75; stroke-linejoin: miter"/>
     <use xlink:href="#mac81104905" x="556.798379" y="310.669137" style="fill: #800080; stroke: #ffffff; stroke-width: 0.75; stroke-linejoin: miter"/>
     <use xlink:href="#mac81104905" x="590.944581" y="310.577832" style="fill: #800080; stroke: #ffffff; stroke-width: 0.75; stroke-linejoin: miter"/>
    </g>
   </g>
   <g id="line2d_43">
    <path d="M 112.897755 42.142464 
L 147.043957 265.165932 
L 181.190159 310.33896 
L 215.33636 285.688969 
L 249.482562 117.212359 
L 283.628764 311.217886 
L 317.774966 226.56686 
L 351.921168 124.554598 
L 386.06737 66.620384 
L 420.213571 206.822739 
L 454.359773 266.564209 
L 488.505975 217.128012 
L 522.652177 225.942638 
L 556.798379 198.031632 
L 590.944581 244.833207 
" clip-path="url(#p345adb26ea)" style="fill: none; stroke-dasharray: 1.5,1.5; stroke-dashoffset: 0; stroke: #0000ff; stroke-width: 1.5"/>
    <defs>
     <path id="m7dce0f751d" d="M 0 3 
C 0.795609 3 1.55874 2.683901 2.12132 2.12132 
C 2.683901 1.55874 3 0.795609 3 0 
C 3 -0.795609 2.683901 -1.55874 2.12132 -2.12132 
C 1.55874 -2.683901 0.795609 -3 0 -3 
C -0.795609 -3 -1.55874 -2.683901 -2.12132 -2.12132 
C -2.683901 -1.55874 -3 -0.795609 -3 0 
C -3 0.795609 -2.683901 1.55874 -2.12132 2.12132 
C -1.55874 2.683901 -0.795609 3 0 3 
z
" style="stroke: #ffffff; stroke-width: 0.75"/>
    </defs>
    <g clip-path="url(#p345adb26ea)">
     <use xlink:href="#m7dce0f751d" x="112.897755" y="42.142464" style="fill: #0000ff; stroke: #ffffff; stroke-width: 0.75"/>
     <use xlink:href="#m7dce0f751d" x="147.043957" y="265.165932" style="fill: #0000ff; stroke: #ffffff; stroke-width: 0.75"/>
     <use xlink:href="#m7dce0f751d" x="181.190159" y="310.33896" style="fill: #0000ff; stroke: #ffffff; stroke-width: 0.75"/>
     <use xlink:href="#m7dce0f751d" x="215.33636" y="285.688969" style="fill: #0000ff; stroke: #ffffff; stroke-width: 0.75"/>
     <use xlink:href="#m7dce0f751d" x="249.482562" y="117.212359" style="fill: #0000ff; stroke: #ffffff; stroke-width: 0.75"/>
     <use xlink:href="#m7dce0f751d" x="283.628764" y="311.217886" style="fill: #0000ff; stroke: #ffffff; stroke-width: 0.75"/>
     <use xlink:href="#m7dce0f751d" x="317.774966" y="226.56686" style="fill: #0000ff; stroke: #ffffff; stroke-width: 0.75"/>
     <use xlink:href="#m7dce0f751d" x="351.921168" y="124.554598" style="fill: #0000ff; stroke: #ffffff; stroke-width: 0.75"/>
     <use xlink:href="#m7dce0f751d" x="386.06737" y="66.620384" style="fill: #0000ff; stroke: #ffffff; stroke-width: 0.75"/>
     <use xlink:href="#m7dce0f751d" x="420.213571" y="206.822739" style="fill: #0000ff; stroke: #ffffff; stroke-width: 0.75"/>
     <use xlink:href="#m7dce0f751d" x="454.359773" y="266.564209" style="fill: #0000ff; stroke: #ffffff; stroke-width: 0.75"/>
     <use xlink:href="#m7dce0f751d" x="488.505975" y="217.128012" style="fill: #0000ff; stroke: #ffffff; stroke-width: 0.75"/>
     <use xlink:href="#m7dce0f751d" x="522.652177" y="225.942638" style="fill: #0000ff; stroke: #ffffff; stroke-width: 0.75"/>
     <use xlink:href="#m7dce0f751d" x="556.798379" y="198.031632" style="fill: #0000ff; stroke: #ffffff; stroke-width: 0.75"/>
     <use xlink:href="#m7dce0f751d" x="590.944581" y="244.833207" style="fill: #0000ff; stroke: #ffffff; stroke-width: 0.75"/>
    </g>
   </g>
   <g id="line2d_44">
    <path d="M 112.897755 311.216394 
L 147.043957 311.195645 
L 181.190159 310.0383 
L 215.33636 306.449854 
L 249.482562 310.882547 
L 283.628764 311.144885 
L 317.774966 311.217886 
L 351.921168 280.236702 
L 386.06737 311.105228 
L 420.213571 285.798406 
L 454.359773 311.195645 
L 488.505975 283.780109 
L 522.652177 277.817443 
L 556.798379 294.597247 
L 590.944581 284.570374 
" clip-path="url(#p345adb26ea)" style="fill: none; stroke-dasharray: 4.5,1.875,2.25,1.875; stroke-dashoffset: 0; stroke: #008000; stroke-width: 1.5"/>
    <defs>
     <path id="m2767f56761" d="M 0 3 
C 0.795609 3 1.55874 2.683901 2.12132 2.12132 
C 2.683901 1.55874 3 0.795609 3 0 
C 3 -0.795609 2.683901 -1.55874 2.12132 -2.12132 
C 1.55874 -2.683901 0.795609 -3 0 -3 
C -0.795609 -3 -1.55874 -2.683901 -2.12132 -2.12132 
C -2.683901 -1.55874 -3 -0.795609 -3 0 
C -3 0.795609 -2.683901 1.55874 -2.12132 2.12132 
C -1.55874 2.683901 -0.795609 3 0 3 
z
" style="stroke: #ffffff; stroke-width: 0.75"/>
    </defs>
    <g clip-path="url(#p345adb26ea)">
     <use xlink:href="#m2767f56761" x="112.897755" y="311.216394" style="fill: #008000; stroke: #ffffff; stroke-width: 0.75"/>
     <use xlink:href="#m2767f56761" x="147.043957" y="311.195645" style="fill: #008000; stroke: #ffffff; stroke-width: 0.75"/>
     <use xlink:href="#m2767f56761" x="181.190159" y="310.0383" style="fill: #008000; stroke: #ffffff; stroke-width: 0.75"/>
     <use xlink:href="#m2767f56761" x="215.33636" y="306.449854" style="fill: #008000; stroke: #ffffff; stroke-width: 0.75"/>
     <use xlink:href="#m2767f56761" x="249.482562" y="310.882547" style="fill: #008000; stroke: #ffffff; stroke-width: 0.75"/>
     <use xlink:href="#m2767f56761" x="283.628764" y="311.144885" style="fill: #008000; stroke: #ffffff; stroke-width: 0.75"/>
     <use xlink:href="#m2767f56761" x="317.774966" y="311.217886" style="fill: #008000; stroke: #ffffff; stroke-width: 0.75"/>
     <use xlink:href="#m2767f56761" x="351.921168" y="280.236702" style="fill: #008000; stroke: #ffffff; stroke-width: 0.75"/>
     <use xlink:href="#m2767f56761" x="386.06737" y="311.105228" style="fill: #008000; stroke: #ffffff; stroke-width: 0.75"/>
     <use xlink:href="#m2767f56761" x="420.213571" y="285.798406" style="fill: #008000; stroke: #ffffff; stroke-width: 0.75"/>
     <use xlink:href="#m2767f56761" x="454.359773" y="311.195645" style="fill: #008000; stroke: #ffffff; stroke-width: 0.75"/>
     <use xlink:href="#m2767f56761" x="488.505975" y="283.780109" style="fill: #008000; stroke: #ffffff; stroke-width: 0.75"/>
     <use xlink:href="#m2767f56761" x="522.652177" y="277.817443" style="fill: #008000; stroke: #ffffff; stroke-width: 0.75"/>
     <use xlink:href="#m2767f56761" x="556.798379" y="294.597247" style="fill: #008000; stroke: #ffffff; stroke-width: 0.75"/>
     <use xlink:href="#m2767f56761" x="590.944581" y="284.570374" style="fill: #008000; stroke: #ffffff; stroke-width: 0.75"/>
    </g>
   </g>
   <g id="line2d_45"/>
   <g id="line2d_46"/>
   <g id="line2d_47"/>
   <g id="line2d_48"/>
   <g id="patch_3">
    <path d="M 88.995414 324.700464 
L 88.995414 28.08375 
" style="fill: none; stroke: #000000; stroke-width: 1.2; stroke-linejoin: miter; stroke-linecap: square"/>
   </g>
   <g id="patch_4">
    <path d="M 614.846922 324.700464 
L 614.846922 28.08375 
" style="fill: none; stroke: #000000; stroke-width: 1.2; stroke-linejoin: miter; stroke-linecap: square"/>
   </g>
   <g id="patch_5">
    <path d="M 88.995414 324.700464 
L 614.846922 324.700464 
" style="fill: none; stroke: #000000; stroke-width: 1.2; stroke-linejoin: miter; stroke-linecap: square"/>
   </g>
   <g id="patch_6">
    <path d="M 88.995414 28.08375 
L 614.846922 28.08375 
" style="fill: none; stroke: #000000; stroke-width: 1.2; stroke-linejoin: miter; stroke-linecap: square"/>
   </g>
   <g id="text_23">
    <!-- Highest average index for (PV Buses) - North - ReservaIND -->
    <g transform="translate(126.001246 22.08375) scale(0.15 -0.15)">
     <defs>
      <path id="DejaVuSerif-69" d="M 622 4353 
Q 622 4497 726 4603 
Q 831 4709 978 4709 
Q 1122 4709 1226 4603 
Q 1331 4497 1331 4353 
Q 1331 4206 1228 4103 
Q 1125 4000 978 4000 
Q 831 4000 726 4103 
Q 622 4206 622 4353 
z
M 1356 331 
L 1900 331 
L 1900 0 
L 231 0 
L 231 331 
L 781 331 
L 781 2988 
L 231 2988 
L 231 3322 
L 1356 3322 
L 1356 331 
z
" transform="scale(0.015625)"/>
      <path id="DejaVuSerif-67" d="M 3359 2988 
L 3359 72 
Q 3359 -644 2965 -1033 
Q 2572 -1422 1844 -1422 
Q 1516 -1422 1216 -1362 
Q 916 -1303 641 -1184 
L 641 -488 
L 941 -488 
Q 997 -813 1206 -963 
Q 1416 -1113 1806 -1113 
Q 2313 -1113 2548 -827 
Q 2784 -541 2784 72 
L 2784 519 
Q 2616 206 2355 57 
Q 2094 -91 1709 -91 
Q 1097 -91 708 395 
Q 319 881 319 1663 
Q 319 2444 706 2928 
Q 1094 3413 1709 3413 
Q 2094 3413 2355 3264 
Q 2616 3116 2784 2803 
L 2784 3322 
L 3909 3322 
L 3909 2988 
L 3359 2988 
z
M 2784 1825 
Q 2784 2422 2554 2737 
Q 2325 3053 1888 3053 
Q 1444 3053 1217 2703 
Q 991 2353 991 1663 
Q 991 975 1217 622 
Q 1444 269 1888 269 
Q 2325 269 2554 583 
Q 2784 897 2784 1497 
L 2784 1825 
z
" transform="scale(0.015625)"/>
      <path id="DejaVuSerif-68" d="M 263 0 
L 263 331 
L 781 331 
L 781 4531 
L 231 4531 
L 231 4863 
L 1356 4863 
L 1356 2731 
Q 1516 3069 1770 3241 
Q 2025 3413 2363 3413 
Q 2913 3413 3172 3097 
Q 3431 2781 3431 2113 
L 3431 331 
L 3944 331 
L 3944 0 
L 2356 0 
L 2356 331 
L 2853 331 
L 2853 1931 
Q 2853 2541 2704 2764 
Q 2556 2988 2175 2988 
Q 1775 2988 1565 2697 
Q 1356 2406 1356 1850 
L 1356 331 
L 1856 331 
L 1856 0 
L 263 0 
z
" transform="scale(0.015625)"/>
      <path id="DejaVuSerif-65" d="M 3469 1600 
L 991 1600 
L 991 1575 
Q 991 903 1244 561 
Q 1497 219 1991 219 
Q 2369 219 2611 417 
Q 2853 616 2950 1006 
L 3413 1006 
Q 3275 459 2904 184 
Q 2534 -91 1931 -91 
Q 1203 -91 761 389 
Q 319 869 319 1663 
Q 319 2450 753 2931 
Q 1188 3413 1894 3413 
Q 2647 3413 3050 2948 
Q 3453 2484 3469 1600 
z
M 2791 1931 
Q 2772 2513 2545 2808 
Q 2319 3103 1894 3103 
Q 1497 3103 1269 2806 
Q 1041 2509 991 1931 
L 2791 1931 
z
" transform="scale(0.015625)"/>
      <path id="DejaVuSerif-74" d="M 691 2988 
L 184 2988 
L 184 3322 
L 691 3322 
L 691 4353 
L 1269 4353 
L 1269 3322 
L 2350 3322 
L 2350 2988 
L 1269 2988 
L 1269 878 
Q 1269 456 1350 337 
Q 1431 219 1650 219 
Q 1875 219 1978 351 
Q 2081 484 2088 781 
L 2522 781 
Q 2497 328 2275 118 
Q 2053 -91 1600 -91 
Q 1103 -91 897 129 
Q 691 350 691 878 
L 691 2988 
z
" transform="scale(0.015625)"/>
      <path id="DejaVuSerif-61" d="M 2547 1044 
L 2547 1747 
L 1806 1747 
Q 1378 1747 1168 1562 
Q 959 1378 959 997 
Q 959 650 1171 447 
Q 1384 244 1747 244 
Q 2106 244 2326 466 
Q 2547 688 2547 1044 
z
M 3122 2075 
L 3122 331 
L 3634 331 
L 3634 0 
L 2547 0 
L 2547 359 
Q 2356 128 2106 18 
Q 1856 -91 1522 -91 
Q 969 -91 644 203 
Q 319 497 319 997 
Q 319 1513 691 1797 
Q 1063 2081 1741 2081 
L 2547 2081 
L 2547 2309 
Q 2547 2688 2317 2895 
Q 2088 3103 1672 3103 
Q 1328 3103 1125 2947 
Q 922 2791 872 2484 
L 575 2484 
L 575 3156 
Q 875 3284 1158 3348 
Q 1441 3413 1709 3413 
Q 2400 3413 2761 3070 
Q 3122 2728 3122 2075 
z
" transform="scale(0.015625)"/>
      <path id="DejaVuSerif-76" d="M 1581 0 
L 359 2988 
L -19 2988 
L -19 3322 
L 1509 3322 
L 1509 2988 
L 978 2988 
L 1913 703 
L 2847 2988 
L 2350 2988 
L 2350 3322 
L 3597 3322 
L 3597 2988 
L 3225 2988 
L 2003 0 
L 1581 0 
z
" transform="scale(0.015625)"/>
      <path id="DejaVuSerif-72" d="M 3059 3328 
L 3059 2497 
L 2728 2497 
Q 2713 2744 2591 2866 
Q 2469 2988 2234 2988 
Q 1809 2988 1582 2694 
Q 1356 2400 1356 1850 
L 1356 331 
L 2022 331 
L 2022 0 
L 263 0 
L 263 331 
L 781 331 
L 781 2994 
L 231 2994 
L 231 3322 
L 1356 3322 
L 1356 2731 
Q 1525 3078 1790 3245 
Q 2056 3413 2438 3413 
Q 2578 3413 2733 3391 
Q 2888 3369 3059 3328 
z
" transform="scale(0.015625)"/>
      <path id="DejaVuSerif-6e" d="M 263 0 
L 263 331 
L 781 331 
L 781 2988 
L 231 2988 
L 231 3322 
L 1356 3322 
L 1356 2731 
Q 1516 3069 1770 3241 
Q 2025 3413 2363 3413 
Q 2913 3413 3172 3097 
Q 3431 2781 3431 2113 
L 3431 331 
L 3944 331 
L 3944 0 
L 2356 0 
L 2356 331 
L 2853 331 
L 2853 1931 
Q 2853 2541 2703 2767 
Q 2553 2994 2175 2994 
Q 1775 2994 1565 2701 
Q 1356 2409 1356 1850 
L 1356 331 
L 1856 331 
L 1856 0 
L 263 0 
z
" transform="scale(0.015625)"/>
      <path id="DejaVuSerif-64" d="M 3359 331 
L 3909 331 
L 3909 0 
L 2784 0 
L 2784 519 
Q 2616 206 2355 57 
Q 2094 -91 1709 -91 
Q 1097 -91 708 395 
Q 319 881 319 1663 
Q 319 2444 706 2928 
Q 1094 3413 1709 3413 
Q 2094 3413 2355 3264 
Q 2616 3116 2784 2803 
L 2784 4531 
L 2241 4531 
L 2241 4863 
L 3359 4863 
L 3359 331 
z
M 2784 1497 
L 2784 1825 
Q 2784 2422 2554 2737 
Q 2325 3053 1888 3053 
Q 1444 3053 1217 2703 
Q 991 2353 991 1663 
Q 991 975 1217 622 
Q 1444 269 1888 269 
Q 2325 269 2554 583 
Q 2784 897 2784 1497 
z
" transform="scale(0.015625)"/>
      <path id="DejaVuSerif-78" d="M 1863 2028 
L 2559 2988 
L 2113 2988 
L 2113 3322 
L 3391 3322 
L 3391 2988 
L 2950 2988 
L 2059 1759 
L 3097 331 
L 3531 331 
L 3531 0 
L 1997 0 
L 1997 331 
L 2419 331 
L 1697 1325 
L 972 331 
L 1403 331 
L 1403 0 
L 141 0 
L 141 331 
L 581 331 
L 1497 1594 
L 488 2988 
L 78 2988 
L 78 3322 
L 1563 3322 
L 1563 2988 
L 1166 2988 
L 1863 2028 
z
" transform="scale(0.015625)"/>
      <path id="DejaVuSerif-66" d="M 2753 4078 
L 2450 4078 
Q 2447 4313 2317 4434 
Q 2188 4556 1941 4556 
Q 1619 4556 1487 4379 
Q 1356 4203 1356 3750 
L 1356 3322 
L 2284 3322 
L 2284 2988 
L 1356 2988 
L 1356 331 
L 2094 331 
L 2094 0 
L 231 0 
L 231 331 
L 781 331 
L 781 2988 
L 231 2988 
L 231 3322 
L 781 3322 
L 781 3738 
Q 781 4294 1070 4578 
Q 1359 4863 1919 4863 
Q 2128 4863 2337 4825 
Q 2547 4788 2753 4709 
L 2753 4078 
z
" transform="scale(0.015625)"/>
      <path id="DejaVuSerif-6f" d="M 1925 219 
Q 2388 219 2623 584 
Q 2859 950 2859 1663 
Q 2859 2375 2623 2739 
Q 2388 3103 1925 3103 
Q 1463 3103 1227 2739 
Q 991 2375 991 1663 
Q 991 950 1228 584 
Q 1466 219 1925 219 
z
M 1925 -91 
Q 1200 -91 759 389 
Q 319 869 319 1663 
Q 319 2456 758 2934 
Q 1197 3413 1925 3413 
Q 2653 3413 3092 2934 
Q 3531 2456 3531 1663 
Q 3531 869 3092 389 
Q 2653 -91 1925 -91 
z
" transform="scale(0.015625)"/>
     </defs>
     <use xlink:href="#DejaVuSerif-48"/>
     <use xlink:href="#DejaVuSerif-69" x="87.207031"/>
     <use xlink:href="#DejaVuSerif-67" x="119.189453"/>
     <use xlink:href="#DejaVuSerif-68" x="183.203125"/>
     <use xlink:href="#DejaVuSerif-65" x="247.607422"/>
     <use xlink:href="#DejaVuSerif-73" x="306.787109"/>
     <use xlink:href="#DejaVuSerif-74" x="358.105469"/>
     <use xlink:href="#DejaVuSerif-20" x="398.291016"/>
     <use xlink:href="#DejaVuSerif-61" x="430.078125"/>
     <use xlink:href="#DejaVuSerif-76" x="489.697266"/>
     <use xlink:href="#DejaVuSerif-65" x="546.191406"/>
     <use xlink:href="#DejaVuSerif-72" x="605.371094"/>
     <use xlink:href="#DejaVuSerif-61" x="653.173828"/>
     <use xlink:href="#DejaVuSerif-67" x="712.792969"/>
     <use xlink:href="#DejaVuSerif-65" x="776.806641"/>
     <use xlink:href="#DejaVuSerif-20" x="835.986328"/>
     <use xlink:href="#DejaVuSerif-69" x="867.773438"/>
     <use xlink:href="#DejaVuSerif-6e" x="899.755859"/>
     <use xlink:href="#DejaVuSerif-64" x="964.160156"/>
     <use xlink:href="#DejaVuSerif-65" x="1028.173828"/>
     <use xlink:href="#DejaVuSerif-78" x="1087.353516"/>
     <use xlink:href="#DejaVuSerif-20" x="1143.75"/>
     <use xlink:href="#DejaVuSerif-66" x="1175.537109"/>
     <use xlink:href="#DejaVuSerif-6f" x="1212.548828"/>
     <use xlink:href="#DejaVuSerif-72" x="1272.753906"/>
     <use xlink:href="#DejaVuSerif-20" x="1320.556641"/>
     <use xlink:href="#DejaVuSerif-28" x="1352.34375"/>
     <use xlink:href="#DejaVuSerif-50" x="1391.357422"/>
     <use xlink:href="#DejaVuSerif-56" x="1458.642578"/>
     <use xlink:href="#DejaVuSerif-20" x="1530.859375"/>
     <use xlink:href="#DejaVuSerif-42" x="1562.646484"/>
     <use xlink:href="#DejaVuSerif-75" x="1636.132812"/>
     <use xlink:href="#DejaVuSerif-73" x="1700.537109"/>
     <use xlink:href="#DejaVuSerif-65" x="1751.855469"/>
     <use xlink:href="#DejaVuSerif-73" x="1811.035156"/>
     <use xlink:href="#DejaVuSerif-29" x="1862.353516"/>
     <use xlink:href="#DejaVuSerif-20" x="1901.367188"/>
     <use xlink:href="#DejaVuSerif-2d" x="1933.154297"/>
     <use xlink:href="#DejaVuSerif-20" x="1966.943359"/>
     <use xlink:href="#DejaVuSerif-4e" x="1998.730469"/>
     <use xlink:href="#DejaVuSerif-6f" x="2086.230469"/>
     <use xlink:href="#DejaVuSerif-72" x="2146.435547"/>
     <use xlink:href="#DejaVuSerif-74" x="2194.238281"/>
     <use xlink:href="#DejaVuSerif-68" x="2234.423828"/>
     <use xlink:href="#DejaVuSerif-20" x="2298.828125"/>
     <use xlink:href="#DejaVuSerif-2d" x="2330.615234"/>
     <use xlink:href="#DejaVuSerif-20" x="2364.404297"/>
     <use xlink:href="#DejaVuSerif-52" x="2396.191406"/>
     <use xlink:href="#DejaVuSerif-65" x="2471.484375"/>
     <use xlink:href="#DejaVuSerif-73" x="2530.664062"/>
     <use xlink:href="#DejaVuSerif-65" x="2581.982422"/>
     <use xlink:href="#DejaVuSerif-72" x="2641.162109"/>
     <use xlink:href="#DejaVuSerif-76" x="2688.964844"/>
     <use xlink:href="#DejaVuSerif-61" x="2745.458984"/>
     <use xlink:href="#DejaVuSerif-49" x="2805.078125"/>
     <use xlink:href="#DejaVuSerif-4e" x="2844.580078"/>
     <use xlink:href="#DejaVuSerif-44" x="2932.080078"/>
    </g>
   </g>
   <g id="legend_1">
    <g id="patch_7">
     <path d="M 623.946922 130.988125 
L 706.106922 130.988125 
Q 708.706922 130.988125 708.706922 128.388125 
L 708.706922 37.18375 
Q 708.706922 34.58375 706.106922 34.58375 
L 623.946922 34.58375 
Q 621.346922 34.58375 621.346922 37.18375 
L 621.346922 128.388125 
Q 621.346922 130.988125 623.946922 130.988125 
z
" style="fill: #e5e5e5; opacity: 0.8; stroke: #cccccc; stroke-width: 0.5; stroke-linejoin: miter"/>
    </g>
    <g id="text_24">
     <!-- Indices -->
     <g transform="translate(646.706609 47.382187) scale(0.1 -0.1)">
      <defs>
       <path id="DejaVuSerif-63" d="M 3291 997 
Q 3169 466 2822 187 
Q 2475 -91 1925 -91 
Q 1200 -91 759 389 
Q 319 869 319 1663 
Q 319 2459 759 2936 
Q 1200 3413 1925 3413 
Q 2241 3413 2553 3339 
Q 2866 3266 3181 3116 
L 3181 2266 
L 2847 2266 
Q 2781 2703 2561 2903 
Q 2341 3103 1931 3103 
Q 1466 3103 1228 2742 
Q 991 2381 991 1663 
Q 991 944 1227 581 
Q 1463 219 1931 219 
Q 2303 219 2525 412 
Q 2747 606 2828 997 
L 3291 997 
z
" transform="scale(0.015625)"/>
      </defs>
      <use xlink:href="#DejaVuSerif-49"/>
      <use xlink:href="#DejaVuSerif-6e" x="39.501953"/>
      <use xlink:href="#DejaVuSerif-64" x="103.90625"/>
      <use xlink:href="#DejaVuSerif-69" x="167.919922"/>
      <use xlink:href="#DejaVuSerif-63" x="199.902344"/>
      <use xlink:href="#DejaVuSerif-65" x="255.908203"/>
      <use xlink:href="#DejaVuSerif-73" x="315.087891"/>
     </g>
    </g>
    <g id="line2d_49">
     <defs>
      <path id="m8a094c9023" d="M 0 -5 
L -5 5 
L 5 5 
z
" style="stroke: #ffa500; stroke-linejoin: miter"/>
     </defs>
     <g>
      <use xlink:href="#m8a094c9023" x="639.546922" y="61.289844" style="fill: #ffa500; stroke: #ffa500; stroke-linejoin: miter"/>
     </g>
    </g>
    <g id="text_25">
     <!-- $\mathrm{RPI}^\mathrm{ind}$ -->
     <g transform="translate(662.946922 65.839844) scale(0.13 -0.13)">
      <use xlink:href="#DejaVuSerif-52" transform="translate(0 0.476562)"/>
      <use xlink:href="#DejaVuSerif-50" transform="translate(75.292969 0.476562)"/>
      <use xlink:href="#DejaVuSerif-49" transform="translate(142.578125 0.476562)"/>
      <use xlink:href="#DejaVuSerif-69" transform="translate(182.988438 36.810937) scale(0.7)"/>
      <use xlink:href="#DejaVuSerif-6e" transform="translate(205.376133 36.810937) scale(0.7)"/>
      <use xlink:href="#DejaVuSerif-64" transform="translate(250.459141 36.810937) scale(0.7)"/>
     </g>
    </g>
    <g id="line2d_50">
     <defs>
      <path id="mccac78abb0" d="M 0 -5 
L -5 5 
L 5 5 
z
" style="stroke: #800080; stroke-linejoin: miter"/>
     </defs>
     <g>
      <use xlink:href="#mccac78abb0" x="639.546922" y="80.371406" style="fill: #800080; stroke: #800080; stroke-linejoin: miter"/>
     </g>
    </g>
    <g id="text_26">
     <!-- $\mathrm{RPI}^\mathrm{cap}$ -->
     <g transform="translate(662.946922 84.921406) scale(0.13 -0.13)">
      <use xlink:href="#DejaVuSerif-52" transform="translate(0 0.335938)"/>
      <use xlink:href="#DejaVuSerif-50" transform="translate(75.292969 0.335938)"/>
      <use xlink:href="#DejaVuSerif-49" transform="translate(142.578125 0.335938)"/>
      <use xlink:href="#DejaVuSerif-63" transform="translate(182.988438 36.670312) scale(0.7)"/>
      <use xlink:href="#DejaVuSerif-61" transform="translate(222.192539 36.670312) scale(0.7)"/>
      <use xlink:href="#DejaVuSerif-70" transform="translate(263.925937 36.670312) scale(0.7)"/>
     </g>
    </g>
    <g id="line2d_51">
     <defs>
      <path id="madc9ffe294" d="M 0 5 
C 1.326016 5 2.597899 4.473168 3.535534 3.535534 
C 4.473168 2.597899 5 1.326016 5 0 
C 5 -1.326016 4.473168 -2.597899 3.535534 -3.535534 
C 2.597899 -4.473168 1.326016 -5 0 -5 
C -1.326016 -5 -2.597899 -4.473168 -3.535534 -3.535534 
C -4.473168 -2.597899 -5 -1.326016 -5 0 
C -5 1.326016 -4.473168 2.597899 -3.535534 3.535534 
C -2.597899 4.473168 -1.326016 5 0 5 
z
" style="stroke: #0000ff"/>
     </defs>
     <g>
      <use xlink:href="#madc9ffe294" x="639.546922" y="99.452969" style="fill: #0000ff; stroke: #0000ff"/>
     </g>
    </g>
    <g id="text_27">
     <!-- $\mathrm{VPI}^\mathrm{l}$ -->
     <g transform="translate(662.946922 104.002969) scale(0.13 -0.13)">
      <defs>
       <path id="DejaVuSerif-6c" d="M 1313 331 
L 1856 331 
L 1856 0 
L 184 0 
L 184 331 
L 738 331 
L 738 4531 
L 184 4531 
L 184 4863 
L 1313 4863 
L 1313 331 
z
" transform="scale(0.015625)"/>
      </defs>
      <use xlink:href="#DejaVuSerif-56" transform="translate(0 0.476562)"/>
      <use xlink:href="#DejaVuSerif-50" transform="translate(72.216797 0.476562)"/>
      <use xlink:href="#DejaVuSerif-49" transform="translate(139.501953 0.476562)"/>
      <use xlink:href="#DejaVuSerif-6c" transform="translate(179.912266 36.810937) scale(0.7)"/>
     </g>
    </g>
    <g id="line2d_52">
     <defs>
      <path id="maadbc9ff7b" d="M 0 5 
C 1.326016 5 2.597899 4.473168 3.535534 3.535534 
C 4.473168 2.597899 5 1.326016 5 0 
C 5 -1.326016 4.473168 -2.597899 3.535534 -3.535534 
C 2.597899 -4.473168 1.326016 -5 0 -5 
C -1.326016 -5 -2.597899 -4.473168 -3.535534 -3.535534 
C -4.473168 -2.597899 -5 -1.326016 -5 0 
C -5 1.326016 -4.473168 2.597899 -3.535534 3.535534 
C -2.597899 4.473168 -1.326016 5 0 5 
z
" style="stroke: #008000"/>
     </defs>
     <g>
      <use xlink:href="#maadbc9ff7b" x="639.546922" y="118.534531" style="fill: #008000; stroke: #008000"/>
     </g>
    </g>
    <g id="text_28">
     <!-- $\mathrm{VPI}^\mathrm{u}$ -->
     <g transform="translate(662.946922 123.084531) scale(0.13 -0.13)">
      <use xlink:href="#DejaVuSerif-56" transform="translate(0 0.09375)"/>
      <use xlink:href="#DejaVuSerif-50" transform="translate(72.216797 0.09375)"/>
      <use xlink:href="#DejaVuSerif-49" transform="translate(139.501953 0.09375)"/>
      <use xlink:href="#DejaVuSerif-75" transform="translate(179.912266 36.428125) scale(0.7)"/>
     </g>
    </g>
   </g>
  </g>
 </g>
 <defs>
  <clipPath id="p345adb26ea">
   <rect x="88.995414" y="28.08375" width="525.851508" height="296.616714"/>
  </clipPath>
 </defs>
</svg>
