<?xml version="1.0" encoding="utf-8" standalone="no"?>
<!DOCTYPE svg PUBLIC "-//W3C//DTD SVG 1.1//EN"
  "http://www.w3.org/Graphics/SVG/1.1/DTD/svg11.dtd">
<svg xmlns:xlink="http://www.w3.org/1999/xlink" width="720pt" height="432pt" viewBox="0 0 720 432" xmlns="http://www.w3.org/2000/svg" version="1.1">
 <metadata>
  <rdf:RDF xmlns:dc="http://purl.org/dc/elements/1.1/" xmlns:cc="http://creativecommons.org/ns#" xmlns:rdf="http://www.w3.org/1999/02/22-rdf-syntax-ns#">
   <cc:Work>
    <dc:type rdf:resource="http://purl.org/dc/dcmitype/StillImage"/>
    <dc:date>2024-09-27T10:01:48.076908</dc:date>
    <dc:format>image/svg+xml</dc:format>
    <dc:creator>
     <cc:Agent>
      <dc:title>Matplotlib v3.7.2, https://matplotlib.org/</dc:title>
     </cc:Agent>
    </dc:creator>
   </cc:Work>
  </rdf:RDF>
 </metadata>
 <defs>
  <style type="text/css">*{stroke-linejoin: round; stroke-linecap: butt}</style>
 </defs>
 <g id="figure_1">
  <g id="patch_1">
   <path d="M 0 432 
L 720 432 
L 720 0 
L 0 0 
z
" style="fill: #ffffff"/>
  </g>
  <g id="axes_1">
   <g id="patch_2">
    <path d="M 72.4925 341.575464 
L 614.846922 341.575464 
L 614.846922 28.08375 
L 72.4925 28.08375 
z
" style="fill: #e5e5e5"/>
   </g>
   <g id="matplotlib.axis_1">
    <g id="xtick_1">
     <g id="line2d_1">
      <path d="M 97.144974 341.575464 
L 97.144974 28.08375 
" clip-path="url(#p153a4daa86)" style="fill: none; stroke: #ffffff; stroke-width: 0.8; stroke-linecap: square"/>
     </g>
     <g id="line2d_2">
      <defs>
       <path id="mfaa68fcf16" d="M 0 0 
L 0 3.5 
" style="stroke: #000000; stroke-width: 0.8"/>
      </defs>
      <g>
       <use xlink:href="#mfaa68fcf16" x="97.144974" y="341.575464" style="stroke: #000000; stroke-width: 0.8"/>
      </g>
     </g>
     <g id="text_1">
      <!-- CFURTAUTE000 -->
      <g transform="translate(22.318412 397.756685) rotate(-30) scale(0.1 -0.1)">
       <defs>
        <path id="DejaVuSerif-43" d="M 4513 1234 
Q 4306 581 3820 245 
Q 3334 -91 2591 -91 
Q 2134 -91 1743 65 
Q 1353 222 1050 525 
Q 700 875 529 1320 
Q 359 1766 359 2328 
Q 359 3416 987 4083 
Q 1616 4750 2644 4750 
Q 3025 4750 3456 4650 
Q 3888 4550 4384 4347 
L 4384 3272 
L 4031 3272 
Q 3916 3859 3567 4137 
Q 3219 4416 2591 4416 
Q 1844 4416 1459 3886 
Q 1075 3356 1075 2328 
Q 1075 1303 1459 773 
Q 1844 244 2591 244 
Q 3113 244 3450 492 
Q 3788 741 3938 1234 
L 4513 1234 
z
" transform="scale(0.015625)"/>
        <path id="DejaVuSerif-46" d="M 353 0 
L 353 331 
L 947 331 
L 947 4331 
L 353 4331 
L 353 4666 
L 4172 4666 
L 4172 3628 
L 3788 3628 
L 3788 4281 
L 1581 4281 
L 1581 2719 
L 3175 2719 
L 3175 3303 
L 3559 3303 
L 3559 1753 
L 3175 1753 
L 3175 2338 
L 1581 2338 
L 1581 331 
L 2328 331 
L 2328 0 
L 353 0 
z
" transform="scale(0.015625)"/>
        <path id="DejaVuSerif-55" d="M 897 4331 
L 300 4331 
L 300 4666 
L 2125 4666 
L 2125 4331 
L 1528 4331 
L 1528 1919 
Q 1528 1025 1820 672 
Q 2113 319 2828 319 
Q 3544 319 3836 672 
Q 4128 1025 4128 1919 
L 4128 4331 
L 3531 4331 
L 3531 4666 
L 5106 4666 
L 5106 4331 
L 4513 4331 
L 4513 1856 
Q 4513 791 4103 350 
Q 3694 -91 2713 -91 
Q 1731 -91 1314 353 
Q 897 797 897 1856 
L 897 4331 
z
" transform="scale(0.015625)"/>
        <path id="DejaVuSerif-52" d="M 3066 2316 
Q 3284 2256 3442 2114 
Q 3600 1972 3725 1716 
L 4403 331 
L 4972 331 
L 4972 0 
L 3872 0 
L 3144 1484 
Q 2934 1916 2759 2042 
Q 2584 2169 2278 2169 
L 1581 2169 
L 1581 331 
L 2241 331 
L 2241 0 
L 353 0 
L 353 331 
L 947 331 
L 947 4331 
L 353 4331 
L 353 4666 
L 2719 4666 
Q 3400 4666 3770 4341 
Q 4141 4016 4141 3419 
Q 4141 2938 3870 2661 
Q 3600 2384 3066 2316 
z
M 1581 2503 
L 2503 2503 
Q 2975 2503 3200 2726 
Q 3425 2950 3425 3419 
Q 3425 3888 3200 4109 
Q 2975 4331 2503 4331 
L 1581 4331 
L 1581 2503 
z
" transform="scale(0.015625)"/>
        <path id="DejaVuSerif-54" d="M 1222 0 
L 1222 331 
L 1819 331 
L 1819 4294 
L 447 4294 
L 447 3566 
L 63 3566 
L 63 4666 
L 4206 4666 
L 4206 3566 
L 3822 3566 
L 3822 4294 
L 2450 4294 
L 2450 331 
L 3047 331 
L 3047 0 
L 1222 0 
z
" transform="scale(0.015625)"/>
        <path id="DejaVuSerif-41" d="M 1281 1691 
L 2994 1691 
L 2138 3909 
L 1281 1691 
z
M -38 0 
L -38 331 
L 372 331 
L 2034 4666 
L 2559 4666 
L 4225 331 
L 4684 331 
L 4684 0 
L 2988 0 
L 2988 331 
L 3506 331 
L 3116 1356 
L 1153 1356 
L 763 331 
L 1275 331 
L 1275 0 
L -38 0 
z
" transform="scale(0.015625)"/>
        <path id="DejaVuSerif-45" d="M 353 0 
L 353 331 
L 947 331 
L 947 4331 
L 353 4331 
L 353 4666 
L 4109 4666 
L 4109 3628 
L 3725 3628 
L 3725 4281 
L 1581 4281 
L 1581 2719 
L 3109 2719 
L 3109 3303 
L 3494 3303 
L 3494 1753 
L 3109 1753 
L 3109 2338 
L 1581 2338 
L 1581 384 
L 3775 384 
L 3775 1038 
L 4159 1038 
L 4159 0 
L 353 0 
z
" transform="scale(0.015625)"/>
        <path id="DejaVuSerif-30" d="M 2034 219 
Q 2513 219 2750 744 
Q 2988 1269 2988 2328 
Q 2988 3391 2750 3916 
Q 2513 4441 2034 4441 
Q 1556 4441 1318 3916 
Q 1081 3391 1081 2328 
Q 1081 1269 1318 744 
Q 1556 219 2034 219 
z
M 2034 -91 
Q 1275 -91 848 546 
Q 422 1184 422 2328 
Q 422 3475 848 4112 
Q 1275 4750 2034 4750 
Q 2797 4750 3222 4112 
Q 3647 3475 3647 2328 
Q 3647 1184 3222 546 
Q 2797 -91 2034 -91 
z
" transform="scale(0.015625)"/>
       </defs>
       <use xlink:href="#DejaVuSerif-43"/>
       <use xlink:href="#DejaVuSerif-46" x="76.513672"/>
       <use xlink:href="#DejaVuSerif-55" x="145.898438"/>
       <use xlink:href="#DejaVuSerif-52" x="230.175781"/>
       <use xlink:href="#DejaVuSerif-54" x="303.71875"/>
       <use xlink:href="#DejaVuSerif-41" x="364.917969"/>
       <use xlink:href="#DejaVuSerif-55" x="437.134766"/>
       <use xlink:href="#DejaVuSerif-54" x="521.412109"/>
       <use xlink:href="#DejaVuSerif-45" x="588.111328"/>
       <use xlink:href="#DejaVuSerif-30" x="661.109375"/>
       <use xlink:href="#DejaVuSerif-30" x="724.732422"/>
       <use xlink:href="#DejaVuSerif-30" x="788.355469"/>
      </g>
     </g>
    </g>
    <g id="xtick_2">
     <g id="line2d_3">
      <path d="M 132.362793 341.575464 
L 132.362793 28.08375 
" clip-path="url(#p153a4daa86)" style="fill: none; stroke: #ffffff; stroke-width: 0.8; stroke-linecap: square"/>
     </g>
     <g id="line2d_4">
      <g>
       <use xlink:href="#mfaa68fcf16" x="132.362793" y="341.575464" style="stroke: #000000; stroke-width: 0.8"/>
      </g>
     </g>
     <g id="text_2">
      <!-- STEUG1EOL023 -->
      <g transform="translate(57.860992 397.569185) rotate(-30) scale(0.1 -0.1)">
       <defs>
        <path id="DejaVuSerif-53" d="M 594 225 
L 594 1288 
L 953 1284 
Q 969 753 1261 498 
Q 1553 244 2150 244 
Q 2706 244 2998 464 
Q 3291 684 3291 1106 
Q 3291 1444 3114 1625 
Q 2938 1806 2369 1978 
L 1753 2163 
Q 1084 2366 811 2669 
Q 538 2972 538 3500 
Q 538 4094 959 4422 
Q 1381 4750 2144 4750 
Q 2469 4750 2856 4679 
Q 3244 4609 3681 4475 
L 3681 3481 
L 3328 3481 
Q 3275 3975 2998 4195 
Q 2722 4416 2156 4416 
Q 1663 4416 1405 4214 
Q 1147 4013 1147 3628 
Q 1147 3294 1340 3103 
Q 1534 2913 2163 2725 
L 2741 2553 
Q 3375 2363 3645 2067 
Q 3916 1772 3916 1275 
Q 3916 597 3481 253 
Q 3047 -91 2188 -91 
Q 1803 -91 1404 -12 
Q 1006 66 594 225 
z
" transform="scale(0.015625)"/>
        <path id="DejaVuSerif-47" d="M 4097 3272 
Q 3988 3856 3641 4136 
Q 3294 4416 2675 4416 
Q 1869 4416 1472 3897 
Q 1075 3378 1075 2328 
Q 1075 1300 1484 772 
Q 1894 244 2688 244 
Q 3041 244 3362 331 
Q 3684 419 3975 594 
L 3975 1797 
L 3097 1797 
L 3097 2131 
L 4609 2131 
L 4609 391 
Q 4194 150 3714 29 
Q 3234 -91 2688 -91 
Q 1631 -91 995 570 
Q 359 1231 359 2328 
Q 359 3434 996 4092 
Q 1634 4750 2713 4750 
Q 3113 4750 3539 4658 
Q 3966 4566 4447 4378 
L 4447 3272 
L 4097 3272 
z
" transform="scale(0.015625)"/>
        <path id="DejaVuSerif-31" d="M 909 0 
L 909 331 
L 1722 331 
L 1722 4213 
L 781 3603 
L 781 4013 
L 1919 4750 
L 2350 4750 
L 2350 331 
L 3163 331 
L 3163 0 
L 909 0 
z
" transform="scale(0.015625)"/>
        <path id="DejaVuSerif-4f" d="M 2625 244 
Q 3391 244 3781 770 
Q 4172 1297 4172 2328 
Q 4172 3363 3781 3889 
Q 3391 4416 2625 4416 
Q 1856 4416 1465 3889 
Q 1075 3363 1075 2328 
Q 1075 1297 1465 770 
Q 1856 244 2625 244 
z
M 2625 -91 
Q 2150 -91 1751 65 
Q 1353 222 1050 525 
Q 700 875 529 1319 
Q 359 1763 359 2328 
Q 359 2894 529 3339 
Q 700 3784 1050 4134 
Q 1356 4441 1750 4595 
Q 2144 4750 2625 4750 
Q 3641 4750 4266 4084 
Q 4891 3419 4891 2328 
Q 4891 1769 4719 1320 
Q 4547 872 4197 525 
Q 3891 219 3497 64 
Q 3103 -91 2625 -91 
z
" transform="scale(0.015625)"/>
        <path id="DejaVuSerif-4c" d="M 353 0 
L 353 331 
L 947 331 
L 947 4331 
L 353 4331 
L 353 4666 
L 2175 4666 
L 2175 4331 
L 1581 4331 
L 1581 384 
L 3713 384 
L 3713 1166 
L 4097 1166 
L 4097 0 
L 353 0 
z
" transform="scale(0.015625)"/>
        <path id="DejaVuSerif-32" d="M 819 3553 
L 469 3553 
L 469 4384 
Q 803 4563 1142 4656 
Q 1481 4750 1806 4750 
Q 2534 4750 2956 4397 
Q 3378 4044 3378 3438 
Q 3378 2753 2422 1800 
Q 2347 1728 2309 1691 
L 1131 513 
L 3078 513 
L 3078 1088 
L 3444 1088 
L 3444 0 
L 434 0 
L 434 341 
L 1850 1753 
Q 2319 2222 2519 2614 
Q 2719 3006 2719 3438 
Q 2719 3909 2473 4175 
Q 2228 4441 1797 4441 
Q 1350 4441 1106 4219 
Q 863 3997 819 3553 
z
" transform="scale(0.015625)"/>
        <path id="DejaVuSerif-33" d="M 622 4469 
Q 988 4606 1323 4678 
Q 1659 4750 1953 4750 
Q 2638 4750 3022 4454 
Q 3406 4159 3406 3634 
Q 3406 3213 3140 2930 
Q 2875 2647 2388 2547 
Q 2963 2466 3280 2130 
Q 3597 1794 3597 1259 
Q 3597 606 3158 257 
Q 2719 -91 1894 -91 
Q 1528 -91 1179 -12 
Q 831 66 488 225 
L 488 1131 
L 838 1131 
Q 869 681 1141 450 
Q 1413 219 1906 219 
Q 2384 219 2661 495 
Q 2938 772 2938 1253 
Q 2938 1803 2653 2086 
Q 2369 2369 1819 2369 
L 1522 2369 
L 1522 2688 
L 1678 2688 
Q 2225 2688 2498 2914 
Q 2772 3141 2772 3597 
Q 2772 4006 2547 4223 
Q 2322 4441 1900 4441 
Q 1478 4441 1245 4241 
Q 1013 4041 972 3647 
L 622 3647 
L 622 4469 
z
" transform="scale(0.015625)"/>
       </defs>
       <use xlink:href="#DejaVuSerif-53"/>
       <use xlink:href="#DejaVuSerif-54" x="68.505859"/>
       <use xlink:href="#DejaVuSerif-45" x="135.205078"/>
       <use xlink:href="#DejaVuSerif-55" x="208.203125"/>
       <use xlink:href="#DejaVuSerif-47" x="292.480469"/>
       <use xlink:href="#DejaVuSerif-31" x="372.363281"/>
       <use xlink:href="#DejaVuSerif-45" x="435.986328"/>
       <use xlink:href="#DejaVuSerif-4f" x="508.984375"/>
       <use xlink:href="#DejaVuSerif-4c" x="590.966797"/>
       <use xlink:href="#DejaVuSerif-30" x="657.373047"/>
       <use xlink:href="#DejaVuSerif-32" x="720.996094"/>
       <use xlink:href="#DejaVuSerif-33" x="784.619141"/>
      </g>
     </g>
    </g>
    <g id="xtick_3">
     <g id="line2d_5">
      <path d="M 167.580613 341.575464 
L 167.580613 28.08375 
" clip-path="url(#p153a4daa86)" style="fill: none; stroke: #ffffff; stroke-width: 0.8; stroke-linecap: square"/>
     </g>
     <g id="line2d_6">
      <g>
       <use xlink:href="#mfaa68fcf16" x="167.580613" y="341.575464" style="stroke: #000000; stroke-width: 0.8"/>
      </g>
     </g>
     <g id="text_3">
      <!-- CLARG1EOL066 -->
      <g transform="translate(93.256076 397.466841) rotate(-30) scale(0.1 -0.1)">
       <defs>
        <path id="DejaVuSerif-36" d="M 2094 219 
Q 2534 219 2771 542 
Q 3009 866 3009 1472 
Q 3009 2078 2771 2401 
Q 2534 2725 2094 2725 
Q 1647 2725 1412 2412 
Q 1178 2100 1178 1509 
Q 1178 888 1415 553 
Q 1653 219 2094 219 
z
M 1075 2569 
Q 1288 2803 1556 2918 
Q 1825 3034 2163 3034 
Q 2859 3034 3264 2615 
Q 3669 2197 3669 1472 
Q 3669 763 3233 336 
Q 2797 -91 2069 -91 
Q 1278 -91 853 498 
Q 428 1088 428 2181 
Q 428 3406 931 4078 
Q 1434 4750 2350 4750 
Q 2597 4750 2869 4703 
Q 3141 4656 3425 4563 
L 3425 3794 
L 3072 3794 
Q 3034 4109 2831 4275 
Q 2628 4441 2284 4441 
Q 1678 4441 1381 3981 
Q 1084 3522 1075 2569 
z
" transform="scale(0.015625)"/>
       </defs>
       <use xlink:href="#DejaVuSerif-43"/>
       <use xlink:href="#DejaVuSerif-4c" x="76.513672"/>
       <use xlink:href="#DejaVuSerif-41" x="142.919922"/>
       <use xlink:href="#DejaVuSerif-52" x="215.136719"/>
       <use xlink:href="#DejaVuSerif-47" x="290.429688"/>
       <use xlink:href="#DejaVuSerif-31" x="370.3125"/>
       <use xlink:href="#DejaVuSerif-45" x="433.935547"/>
       <use xlink:href="#DejaVuSerif-4f" x="506.933594"/>
       <use xlink:href="#DejaVuSerif-4c" x="588.916016"/>
       <use xlink:href="#DejaVuSerif-30" x="655.322266"/>
       <use xlink:href="#DejaVuSerif-36" x="718.945312"/>
       <use xlink:href="#DejaVuSerif-36" x="782.568359"/>
      </g>
     </g>
    </g>
    <g id="xtick_4">
     <g id="line2d_7">
      <path d="M 202.798433 341.575464 
L 202.798433 28.08375 
" clip-path="url(#p153a4daa86)" style="fill: none; stroke: #ffffff; stroke-width: 0.8; stroke-linecap: square"/>
     </g>
     <g id="line2d_8">
      <g>
       <use xlink:href="#mfaa68fcf16" x="202.798433" y="341.575464" style="stroke: #000000; stroke-width: 0.8"/>
      </g>
     </g>
     <g id="text_4">
      <!-- G.OUR1EOL060 -->
      <g transform="translate(130.268192 396.430904) rotate(-30) scale(0.1 -0.1)">
       <defs>
        <path id="DejaVuSerif-2e" d="M 603 325 
Q 603 500 722 622 
Q 841 744 1019 744 
Q 1191 744 1312 622 
Q 1434 500 1434 325 
Q 1434 153 1312 31 
Q 1191 -91 1019 -91 
Q 841 -91 722 29 
Q 603 150 603 325 
z
" transform="scale(0.015625)"/>
       </defs>
       <use xlink:href="#DejaVuSerif-47"/>
       <use xlink:href="#DejaVuSerif-2e" x="76.257812"/>
       <use xlink:href="#DejaVuSerif-4f" x="108.044922"/>
       <use xlink:href="#DejaVuSerif-55" x="190.027344"/>
       <use xlink:href="#DejaVuSerif-52" x="274.304688"/>
       <use xlink:href="#DejaVuSerif-31" x="349.597656"/>
       <use xlink:href="#DejaVuSerif-45" x="413.220703"/>
       <use xlink:href="#DejaVuSerif-4f" x="486.21875"/>
       <use xlink:href="#DejaVuSerif-4c" x="568.201172"/>
       <use xlink:href="#DejaVuSerif-30" x="634.607422"/>
       <use xlink:href="#DejaVuSerif-36" x="698.230469"/>
       <use xlink:href="#DejaVuSerif-30" x="761.853516"/>
      </g>
     </g>
    </g>
    <g id="xtick_5">
     <g id="line2d_9">
      <path d="M 238.016252 341.575464 
L 238.016252 28.08375 
" clip-path="url(#p153a4daa86)" style="fill: none; stroke: #ffffff; stroke-width: 0.8; stroke-linecap: square"/>
     </g>
     <g id="line2d_10">
      <g>
       <use xlink:href="#mfaa68fcf16" x="238.016252" y="341.575464" style="stroke: #000000; stroke-width: 0.8"/>
      </g>
     </g>
     <g id="text_5">
      <!-- CLARG2EOL055 -->
      <g transform="translate(163.691715 397.466841) rotate(-30) scale(0.1 -0.1)">
       <defs>
        <path id="DejaVuSerif-35" d="M 3219 4666 
L 3219 4153 
L 1081 4153 
L 1081 2816 
Q 1244 2928 1461 2984 
Q 1678 3041 1947 3041 
Q 2703 3041 3140 2622 
Q 3578 2203 3578 1478 
Q 3578 738 3136 323 
Q 2694 -91 1894 -91 
Q 1572 -91 1234 -12 
Q 897 66 544 225 
L 544 1131 
L 897 1131 
Q 925 688 1179 453 
Q 1434 219 1894 219 
Q 2388 219 2653 544 
Q 2919 869 2919 1478 
Q 2919 2084 2655 2407 
Q 2391 2731 1894 2731 
Q 1613 2731 1398 2631 
Q 1184 2531 1019 2322 
L 750 2322 
L 750 4666 
L 3219 4666 
z
" transform="scale(0.015625)"/>
       </defs>
       <use xlink:href="#DejaVuSerif-43"/>
       <use xlink:href="#DejaVuSerif-4c" x="76.513672"/>
       <use xlink:href="#DejaVuSerif-41" x="142.919922"/>
       <use xlink:href="#DejaVuSerif-52" x="215.136719"/>
       <use xlink:href="#DejaVuSerif-47" x="290.429688"/>
       <use xlink:href="#DejaVuSerif-32" x="370.3125"/>
       <use xlink:href="#DejaVuSerif-45" x="433.935547"/>
       <use xlink:href="#DejaVuSerif-4f" x="506.933594"/>
       <use xlink:href="#DejaVuSerif-4c" x="588.916016"/>
       <use xlink:href="#DejaVuSerif-30" x="655.322266"/>
       <use xlink:href="#DejaVuSerif-35" x="718.945312"/>
       <use xlink:href="#DejaVuSerif-35" x="782.568359"/>
      </g>
     </g>
    </g>
    <g id="xtick_6">
     <g id="line2d_11">
      <path d="M 273.234072 341.575464 
L 273.234072 28.08375 
" clip-path="url(#p153a4daa86)" style="fill: none; stroke: #ffffff; stroke-width: 0.8; stroke-linecap: square"/>
     </g>
     <g id="line2d_12">
      <g>
       <use xlink:href="#mfaa68fcf16" x="273.234072" y="341.575464" style="stroke: #000000; stroke-width: 0.8"/>
      </g>
     </g>
     <g id="text_6">
      <!-- UBN-B2EOL047 -->
      <g transform="translate(200.449436 396.577779) rotate(-30) scale(0.1 -0.1)">
       <defs>
        <path id="DejaVuSerif-42" d="M 1581 331 
L 2516 331 
Q 3078 331 3337 575 
Q 3597 819 3597 1350 
Q 3597 1878 3339 2120 
Q 3081 2363 2516 2363 
L 1581 2363 
L 1581 331 
z
M 1581 2694 
L 2375 2694 
Q 2888 2694 3123 2891 
Q 3359 3088 3359 3513 
Q 3359 3941 3123 4136 
Q 2888 4331 2375 4331 
L 1581 4331 
L 1581 2694 
z
M 353 0 
L 353 331 
L 947 331 
L 947 4331 
L 353 4331 
L 353 4666 
L 2656 4666 
Q 3363 4666 3720 4377 
Q 4078 4088 4078 3513 
Q 4078 3097 3829 2850 
Q 3581 2603 3103 2547 
Q 3697 2472 4005 2167 
Q 4313 1863 4313 1350 
Q 4313 656 3875 328 
Q 3438 0 2509 0 
L 353 0 
z
" transform="scale(0.015625)"/>
        <path id="DejaVuSerif-4e" d="M 313 0 
L 313 331 
L 941 331 
L 941 4331 
L 313 4331 
L 313 4666 
L 1509 4666 
L 4306 984 
L 4306 4331 
L 3681 4331 
L 3681 4666 
L 5319 4666 
L 5319 4331 
L 4691 4331 
L 4691 -91 
L 4313 -91 
L 1325 3841 
L 1325 331 
L 1953 331 
L 1953 0 
L 313 0 
z
" transform="scale(0.015625)"/>
        <path id="DejaVuSerif-2d" d="M 281 1959 
L 1881 1959 
L 1881 1472 
L 281 1472 
L 281 1959 
z
" transform="scale(0.015625)"/>
        <path id="DejaVuSerif-34" d="M 2234 1581 
L 2234 4063 
L 641 1581 
L 2234 1581 
z
M 3609 0 
L 1484 0 
L 1484 331 
L 2234 331 
L 2234 1247 
L 197 1247 
L 197 1588 
L 2241 4750 
L 2859 4750 
L 2859 1581 
L 3750 1581 
L 3750 1247 
L 2859 1247 
L 2859 331 
L 3609 331 
L 3609 0 
z
" transform="scale(0.015625)"/>
        <path id="DejaVuSerif-37" d="M 3609 4347 
L 1784 0 
L 1319 0 
L 3059 4153 
L 903 4153 
L 903 3578 
L 538 3578 
L 538 4666 
L 3609 4666 
L 3609 4347 
z
" transform="scale(0.015625)"/>
       </defs>
       <use xlink:href="#DejaVuSerif-55"/>
       <use xlink:href="#DejaVuSerif-42" x="84.277344"/>
       <use xlink:href="#DejaVuSerif-4e" x="157.763672"/>
       <use xlink:href="#DejaVuSerif-2d" x="245.263672"/>
       <use xlink:href="#DejaVuSerif-42" x="279.052734"/>
       <use xlink:href="#DejaVuSerif-32" x="352.539062"/>
       <use xlink:href="#DejaVuSerif-45" x="416.162109"/>
       <use xlink:href="#DejaVuSerif-4f" x="489.160156"/>
       <use xlink:href="#DejaVuSerif-4c" x="571.142578"/>
       <use xlink:href="#DejaVuSerif-30" x="637.548828"/>
       <use xlink:href="#DejaVuSerif-34" x="701.171875"/>
       <use xlink:href="#DejaVuSerif-37" x="764.794922"/>
      </g>
     </g>
    </g>
    <g id="xtick_7">
     <g id="line2d_13">
      <path d="M 308.451891 341.575464 
L 308.451891 28.08375 
" clip-path="url(#p153a4daa86)" style="fill: none; stroke: #ffffff; stroke-width: 0.8; stroke-linecap: square"/>
     </g>
     <g id="line2d_14">
      <g>
       <use xlink:href="#mfaa68fcf16" x="308.451891" y="341.575464" style="stroke: #000000; stroke-width: 0.8"/>
      </g>
     </g>
     <g id="text_7">
      <!-- UBN-B1EOL047 -->
      <g transform="translate(235.667256 396.577779) rotate(-30) scale(0.1 -0.1)">
       <use xlink:href="#DejaVuSerif-55"/>
       <use xlink:href="#DejaVuSerif-42" x="84.277344"/>
       <use xlink:href="#DejaVuSerif-4e" x="157.763672"/>
       <use xlink:href="#DejaVuSerif-2d" x="245.263672"/>
       <use xlink:href="#DejaVuSerif-42" x="279.052734"/>
       <use xlink:href="#DejaVuSerif-31" x="352.539062"/>
       <use xlink:href="#DejaVuSerif-45" x="416.162109"/>
       <use xlink:href="#DejaVuSerif-4f" x="489.160156"/>
       <use xlink:href="#DejaVuSerif-4c" x="571.142578"/>
       <use xlink:href="#DejaVuSerif-30" x="637.548828"/>
       <use xlink:href="#DejaVuSerif-34" x="701.171875"/>
       <use xlink:href="#DejaVuSerif-37" x="764.794922"/>
      </g>
     </g>
    </g>
    <g id="xtick_8">
     <g id="line2d_15">
      <path d="M 343.669711 341.575464 
L 343.669711 28.08375 
" clip-path="url(#p153a4daa86)" style="fill: none; stroke: #ffffff; stroke-width: 0.8; stroke-linecap: square"/>
     </g>
     <g id="line2d_16">
      <g>
       <use xlink:href="#mfaa68fcf16" x="343.669711" y="341.575464" style="stroke: #000000; stroke-width: 0.8"/>
      </g>
     </g>
     <g id="text_8">
      <!-- UBN-B3EOL050 -->
      <g transform="translate(270.885075 396.577779) rotate(-30) scale(0.1 -0.1)">
       <use xlink:href="#DejaVuSerif-55"/>
       <use xlink:href="#DejaVuSerif-42" x="84.277344"/>
       <use xlink:href="#DejaVuSerif-4e" x="157.763672"/>
       <use xlink:href="#DejaVuSerif-2d" x="245.263672"/>
       <use xlink:href="#DejaVuSerif-42" x="279.052734"/>
       <use xlink:href="#DejaVuSerif-33" x="352.539062"/>
       <use xlink:href="#DejaVuSerif-45" x="416.162109"/>
       <use xlink:href="#DejaVuSerif-4f" x="489.160156"/>
       <use xlink:href="#DejaVuSerif-4c" x="571.142578"/>
       <use xlink:href="#DejaVuSerif-30" x="637.548828"/>
       <use xlink:href="#DejaVuSerif-35" x="701.171875"/>
       <use xlink:href="#DejaVuSerif-30" x="764.794922"/>
      </g>
     </g>
    </g>
    <g id="xtick_9">
     <g id="line2d_17">
      <path d="M 378.887531 341.575464 
L 378.887531 28.08375 
" clip-path="url(#p153a4daa86)" style="fill: none; stroke: #ffffff; stroke-width: 0.8; stroke-linecap: square"/>
     </g>
     <g id="line2d_18">
      <g>
       <use xlink:href="#mfaa68fcf16" x="378.887531" y="341.575464" style="stroke: #000000; stroke-width: 0.8"/>
      </g>
     </g>
     <g id="text_9">
      <!-- MSULD1-EOL27 -->
      <g transform="translate(304.424971 397.546529) rotate(-30) scale(0.1 -0.1)">
       <defs>
        <path id="DejaVuSerif-4d" d="M 353 0 
L 353 331 
L 947 331 
L 947 4331 
L 319 4331 
L 319 4666 
L 1678 4666 
L 3316 1344 
L 4953 4666 
L 6228 4666 
L 6228 4331 
L 5606 4331 
L 5606 331 
L 6203 331 
L 6203 0 
L 4378 0 
L 4378 331 
L 4972 331 
L 4972 3938 
L 3372 684 
L 2931 684 
L 1331 3938 
L 1331 331 
L 1925 331 
L 1925 0 
L 353 0 
z
" transform="scale(0.015625)"/>
        <path id="DejaVuSerif-44" d="M 1581 331 
L 2163 331 
Q 3072 331 3558 850 
Q 4044 1369 4044 2338 
Q 4044 3306 3559 3818 
Q 3075 4331 2163 4331 
L 1581 4331 
L 1581 331 
z
M 353 0 
L 353 331 
L 947 331 
L 947 4331 
L 353 4331 
L 353 4666 
L 2209 4666 
Q 3416 4666 4089 4050 
Q 4763 3434 4763 2338 
Q 4763 1238 4088 619 
Q 3413 0 2209 0 
L 353 0 
z
" transform="scale(0.015625)"/>
       </defs>
       <use xlink:href="#DejaVuSerif-4d"/>
       <use xlink:href="#DejaVuSerif-53" x="102.392578"/>
       <use xlink:href="#DejaVuSerif-55" x="170.898438"/>
       <use xlink:href="#DejaVuSerif-4c" x="255.175781"/>
       <use xlink:href="#DejaVuSerif-44" x="321.582031"/>
       <use xlink:href="#DejaVuSerif-31" x="401.757812"/>
       <use xlink:href="#DejaVuSerif-2d" x="465.380859"/>
       <use xlink:href="#DejaVuSerif-45" x="499.169922"/>
       <use xlink:href="#DejaVuSerif-4f" x="572.167969"/>
       <use xlink:href="#DejaVuSerif-4c" x="654.150391"/>
       <use xlink:href="#DejaVuSerif-32" x="720.556641"/>
       <use xlink:href="#DejaVuSerif-37" x="784.179688"/>
      </g>
     </g>
    </g>
    <g id="xtick_10">
     <g id="line2d_19">
      <path d="M 414.10535 341.575464 
L 414.10535 28.08375 
" clip-path="url(#p153a4daa86)" style="fill: none; stroke: #ffffff; stroke-width: 0.8; stroke-linecap: square"/>
     </g>
     <g id="line2d_20">
      <g>
       <use xlink:href="#mfaa68fcf16" x="414.10535" y="341.575464" style="stroke: #000000; stroke-width: 0.8"/>
      </g>
     </g>
     <g id="text_10">
      <!-- MSULD3-EOL22 -->
      <g transform="translate(339.64279 397.546529) rotate(-30) scale(0.1 -0.1)">
       <use xlink:href="#DejaVuSerif-4d"/>
       <use xlink:href="#DejaVuSerif-53" x="102.392578"/>
       <use xlink:href="#DejaVuSerif-55" x="170.898438"/>
       <use xlink:href="#DejaVuSerif-4c" x="255.175781"/>
       <use xlink:href="#DejaVuSerif-44" x="321.582031"/>
       <use xlink:href="#DejaVuSerif-33" x="401.757812"/>
       <use xlink:href="#DejaVuSerif-2d" x="465.380859"/>
       <use xlink:href="#DejaVuSerif-45" x="499.169922"/>
       <use xlink:href="#DejaVuSerif-4f" x="572.167969"/>
       <use xlink:href="#DejaVuSerif-4c" x="654.150391"/>
       <use xlink:href="#DejaVuSerif-32" x="720.556641"/>
       <use xlink:href="#DejaVuSerif-32" x="784.179688"/>
      </g>
     </g>
    </g>
    <g id="xtick_11">
     <g id="line2d_21">
      <path d="M 449.32317 341.575464 
L 449.32317 28.08375 
" clip-path="url(#p153a4daa86)" style="fill: none; stroke: #ffffff; stroke-width: 0.8; stroke-linecap: square"/>
     </g>
     <g id="line2d_22">
      <g>
       <use xlink:href="#mfaa68fcf16" x="449.32317" y="341.575464" style="stroke: #000000; stroke-width: 0.8"/>
      </g>
     </g>
     <g id="text_11">
      <!-- MSULD2-EOL27 -->
      <g transform="translate(374.86061 397.546529) rotate(-30) scale(0.1 -0.1)">
       <use xlink:href="#DejaVuSerif-4d"/>
       <use xlink:href="#DejaVuSerif-53" x="102.392578"/>
       <use xlink:href="#DejaVuSerif-55" x="170.898438"/>
       <use xlink:href="#DejaVuSerif-4c" x="255.175781"/>
       <use xlink:href="#DejaVuSerif-44" x="321.582031"/>
       <use xlink:href="#DejaVuSerif-32" x="401.757812"/>
       <use xlink:href="#DejaVuSerif-2d" x="465.380859"/>
       <use xlink:href="#DejaVuSerif-45" x="499.169922"/>
       <use xlink:href="#DejaVuSerif-4f" x="572.167969"/>
       <use xlink:href="#DejaVuSerif-4c" x="654.150391"/>
       <use xlink:href="#DejaVuSerif-32" x="720.556641"/>
       <use xlink:href="#DejaVuSerif-37" x="784.179688"/>
      </g>
     </g>
    </g>
    <g id="xtick_12">
     <g id="line2d_23">
      <path d="M 484.540989 341.575464 
L 484.540989 28.08375 
" clip-path="url(#p153a4daa86)" style="fill: none; stroke: #ffffff; stroke-width: 0.8; stroke-linecap: square"/>
     </g>
     <g id="line2d_24">
      <g>
       <use xlink:href="#mfaa68fcf16" x="484.540989" y="341.575464" style="stroke: #000000; stroke-width: 0.8"/>
      </g>
     </g>
     <g id="text_12">
      <!-- MSULD4-EOL08 -->
      <g transform="translate(410.078429 397.546529) rotate(-30) scale(0.1 -0.1)">
       <defs>
        <path id="DejaVuSerif-38" d="M 2981 1275 
Q 2981 1775 2732 2051 
Q 2484 2328 2034 2328 
Q 1584 2328 1336 2051 
Q 1088 1775 1088 1275 
Q 1088 772 1336 495 
Q 1584 219 2034 219 
Q 2484 219 2732 495 
Q 2981 772 2981 1275 
z
M 2853 3541 
Q 2853 3966 2637 4203 
Q 2422 4441 2034 4441 
Q 1650 4441 1433 4203 
Q 1216 3966 1216 3541 
Q 1216 3113 1433 2875 
Q 1650 2638 2034 2638 
Q 2422 2638 2637 2875 
Q 2853 3113 2853 3541 
z
M 2516 2484 
Q 3047 2413 3344 2092 
Q 3641 1772 3641 1275 
Q 3641 619 3225 264 
Q 2809 -91 2034 -91 
Q 1263 -91 845 264 
Q 428 619 428 1275 
Q 428 1772 725 2092 
Q 1022 2413 1556 2484 
Q 1084 2569 832 2842 
Q 581 3116 581 3541 
Q 581 4103 968 4426 
Q 1356 4750 2034 4750 
Q 2713 4750 3100 4426 
Q 3488 4103 3488 3541 
Q 3488 3116 3236 2842 
Q 2984 2569 2516 2484 
z
" transform="scale(0.015625)"/>
       </defs>
       <use xlink:href="#DejaVuSerif-4d"/>
       <use xlink:href="#DejaVuSerif-53" x="102.392578"/>
       <use xlink:href="#DejaVuSerif-55" x="170.898438"/>
       <use xlink:href="#DejaVuSerif-4c" x="255.175781"/>
       <use xlink:href="#DejaVuSerif-44" x="321.582031"/>
       <use xlink:href="#DejaVuSerif-34" x="401.757812"/>
       <use xlink:href="#DejaVuSerif-2d" x="465.380859"/>
       <use xlink:href="#DejaVuSerif-45" x="499.169922"/>
       <use xlink:href="#DejaVuSerif-4f" x="572.167969"/>
       <use xlink:href="#DejaVuSerif-4c" x="654.150391"/>
       <use xlink:href="#DejaVuSerif-30" x="720.556641"/>
       <use xlink:href="#DejaVuSerif-38" x="784.179688"/>
      </g>
     </g>
    </g>
    <g id="xtick_13">
     <g id="line2d_25">
      <path d="M 519.758809 341.575464 
L 519.758809 28.08375 
" clip-path="url(#p153a4daa86)" style="fill: none; stroke: #ffffff; stroke-width: 0.8; stroke-linecap: square"/>
     </g>
     <g id="line2d_26">
      <g>
       <use xlink:href="#mfaa68fcf16" x="519.758809" y="341.575464" style="stroke: #000000; stroke-width: 0.8"/>
      </g>
     </g>
     <g id="text_13">
      <!-- CRLANDEOL045 -->
      <g transform="translate(443.342279 398.674654) rotate(-30) scale(0.1 -0.1)">
       <use xlink:href="#DejaVuSerif-43"/>
       <use xlink:href="#DejaVuSerif-52" x="76.513672"/>
       <use xlink:href="#DejaVuSerif-4c" x="151.806641"/>
       <use xlink:href="#DejaVuSerif-41" x="218.212891"/>
       <use xlink:href="#DejaVuSerif-4e" x="290.429688"/>
       <use xlink:href="#DejaVuSerif-44" x="377.929688"/>
       <use xlink:href="#DejaVuSerif-45" x="458.105469"/>
       <use xlink:href="#DejaVuSerif-4f" x="531.103516"/>
       <use xlink:href="#DejaVuSerif-4c" x="613.085938"/>
       <use xlink:href="#DejaVuSerif-30" x="679.492188"/>
       <use xlink:href="#DejaVuSerif-34" x="743.115234"/>
       <use xlink:href="#DejaVuSerif-35" x="806.738281"/>
      </g>
     </g>
    </g>
    <g id="xtick_14">
     <g id="line2d_27">
      <path d="M 554.976629 341.575464 
L 554.976629 28.08375 
" clip-path="url(#p153a4daa86)" style="fill: none; stroke: #ffffff; stroke-width: 0.8; stroke-linecap: square"/>
     </g>
     <g id="line2d_28">
      <g>
       <use xlink:href="#mfaa68fcf16" x="554.976629" y="341.575464" style="stroke: #000000; stroke-width: 0.8"/>
      </g>
     </g>
     <g id="text_14">
      <!-- CLARG3EOL043 -->
      <g transform="translate(480.652091 397.466841) rotate(-30) scale(0.1 -0.1)">
       <use xlink:href="#DejaVuSerif-43"/>
       <use xlink:href="#DejaVuSerif-4c" x="76.513672"/>
       <use xlink:href="#DejaVuSerif-41" x="142.919922"/>
       <use xlink:href="#DejaVuSerif-52" x="215.136719"/>
       <use xlink:href="#DejaVuSerif-47" x="290.429688"/>
       <use xlink:href="#DejaVuSerif-33" x="370.3125"/>
       <use xlink:href="#DejaVuSerif-45" x="433.935547"/>
       <use xlink:href="#DejaVuSerif-4f" x="506.933594"/>
       <use xlink:href="#DejaVuSerif-4c" x="588.916016"/>
       <use xlink:href="#DejaVuSerif-30" x="655.322266"/>
       <use xlink:href="#DejaVuSerif-34" x="718.945312"/>
       <use xlink:href="#DejaVuSerif-33" x="782.568359"/>
      </g>
     </g>
    </g>
    <g id="xtick_15">
     <g id="line2d_29">
      <path d="M 590.194448 341.575464 
L 590.194448 28.08375 
" clip-path="url(#p153a4daa86)" style="fill: none; stroke: #ffffff; stroke-width: 0.8; stroke-linecap: square"/>
     </g>
     <g id="line2d_30">
      <g>
       <use xlink:href="#mfaa68fcf16" x="590.194448" y="341.575464" style="stroke: #000000; stroke-width: 0.8"/>
      </g>
     </g>
     <g id="text_15">
      <!-- VSANG2EOL038 -->
      <g transform="translate(515.003886 397.966841) rotate(-30) scale(0.1 -0.1)">
       <defs>
        <path id="DejaVuSerif-56" d="M 1119 4331 
L 2497 750 
L 3872 4331 
L 3347 4331 
L 3347 4666 
L 4716 4666 
L 4716 4331 
L 4263 4331 
L 2597 0 
L 2059 0 
L 403 4331 
L -63 4331 
L -63 4666 
L 1638 4666 
L 1638 4331 
L 1119 4331 
z
" transform="scale(0.015625)"/>
       </defs>
       <use xlink:href="#DejaVuSerif-56"/>
       <use xlink:href="#DejaVuSerif-53" x="72.216797"/>
       <use xlink:href="#DejaVuSerif-41" x="140.722656"/>
       <use xlink:href="#DejaVuSerif-4e" x="212.939453"/>
       <use xlink:href="#DejaVuSerif-47" x="300.439453"/>
       <use xlink:href="#DejaVuSerif-32" x="380.322266"/>
       <use xlink:href="#DejaVuSerif-45" x="443.945312"/>
       <use xlink:href="#DejaVuSerif-4f" x="516.943359"/>
       <use xlink:href="#DejaVuSerif-4c" x="598.925781"/>
       <use xlink:href="#DejaVuSerif-30" x="665.332031"/>
       <use xlink:href="#DejaVuSerif-33" x="728.955078"/>
       <use xlink:href="#DejaVuSerif-38" x="792.578125"/>
      </g>
     </g>
    </g>
    <g id="text_16">
     <!-- Bus -->
     <g transform="translate(327.587445 417.39306) scale(0.17 -0.17)">
      <defs>
       <path id="DejaVuSerif-75" d="M 2266 3322 
L 3341 3322 
L 3341 331 
L 3884 331 
L 3884 0 
L 2766 0 
L 2766 588 
Q 2606 256 2353 82 
Q 2100 -91 1766 -91 
Q 1213 -91 952 223 
Q 691 538 691 1209 
L 691 2988 
L 172 2988 
L 172 3322 
L 1269 3322 
L 1269 1388 
Q 1269 781 1417 556 
Q 1566 331 1947 331 
Q 2347 331 2556 625 
Q 2766 919 2766 1478 
L 2766 2988 
L 2266 2988 
L 2266 3322 
z
" transform="scale(0.015625)"/>
       <path id="DejaVuSerif-73" d="M 359 184 
L 359 959 
L 691 959 
Q 703 588 923 403 
Q 1144 219 1575 219 
Q 1963 219 2166 364 
Q 2369 509 2369 788 
Q 2369 1006 2220 1140 
Q 2072 1275 1594 1428 
L 1178 1569 
Q 750 1706 558 1912 
Q 366 2119 366 2438 
Q 366 2894 700 3153 
Q 1034 3413 1625 3413 
Q 1888 3413 2178 3344 
Q 2469 3275 2778 3144 
L 2778 2419 
L 2447 2419 
Q 2434 2741 2221 2922 
Q 2009 3103 1644 3103 
Q 1281 3103 1095 2975 
Q 909 2847 909 2591 
Q 909 2381 1050 2254 
Q 1191 2128 1613 1997 
L 2069 1856 
Q 2541 1709 2748 1489 
Q 2956 1269 2956 922 
Q 2956 450 2595 179 
Q 2234 -91 1600 -91 
Q 1278 -91 972 -22 
Q 666 47 359 184 
z
" transform="scale(0.015625)"/>
      </defs>
      <use xlink:href="#DejaVuSerif-42"/>
      <use xlink:href="#DejaVuSerif-75" x="73.486328"/>
      <use xlink:href="#DejaVuSerif-73" x="137.890625"/>
     </g>
    </g>
   </g>
   <g id="matplotlib.axis_2">
    <g id="ytick_1">
     <g id="line2d_31">
      <path d="M 72.4925 327.721162 
L 614.846922 327.721162 
" clip-path="url(#p153a4daa86)" style="fill: none; stroke: #ffffff; stroke-width: 0.8; stroke-linecap: square"/>
     </g>
     <g id="line2d_32">
      <defs>
       <path id="m588b2d9723" d="M 0 0 
L -3.5 0 
" style="stroke: #000000; stroke-width: 0.8"/>
      </defs>
      <g>
       <use xlink:href="#m588b2d9723" x="72.4925" y="327.721162" style="stroke: #000000; stroke-width: 0.8"/>
      </g>
     </g>
     <g id="text_17">
      <!-- 0.00 -->
      <g transform="translate(32.094063 333.41999) scale(0.15 -0.15)">
       <use xlink:href="#DejaVuSerif-30"/>
       <use xlink:href="#DejaVuSerif-2e" x="63.623047"/>
       <use xlink:href="#DejaVuSerif-30" x="95.410156"/>
       <use xlink:href="#DejaVuSerif-30" x="159.033203"/>
      </g>
     </g>
    </g>
    <g id="ytick_2">
     <g id="line2d_33">
      <path d="M 72.4925 289.479518 
L 614.846922 289.479518 
" clip-path="url(#p153a4daa86)" style="fill: none; stroke: #ffffff; stroke-width: 0.8; stroke-linecap: square"/>
     </g>
     <g id="line2d_34">
      <g>
       <use xlink:href="#m588b2d9723" x="72.4925" y="289.479518" style="stroke: #000000; stroke-width: 0.8"/>
      </g>
     </g>
     <g id="text_18">
      <!-- 0.05 -->
      <g transform="translate(32.094063 295.178346) scale(0.15 -0.15)">
       <use xlink:href="#DejaVuSerif-30"/>
       <use xlink:href="#DejaVuSerif-2e" x="63.623047"/>
       <use xlink:href="#DejaVuSerif-30" x="95.410156"/>
       <use xlink:href="#DejaVuSerif-35" x="159.033203"/>
      </g>
     </g>
    </g>
    <g id="ytick_3">
     <g id="line2d_35">
      <path d="M 72.4925 251.237873 
L 614.846922 251.237873 
" clip-path="url(#p153a4daa86)" style="fill: none; stroke: #ffffff; stroke-width: 0.8; stroke-linecap: square"/>
     </g>
     <g id="line2d_36">
      <g>
       <use xlink:href="#m588b2d9723" x="72.4925" y="251.237873" style="stroke: #000000; stroke-width: 0.8"/>
      </g>
     </g>
     <g id="text_19">
      <!-- 0.10 -->
      <g transform="translate(32.094063 256.936701) scale(0.15 -0.15)">
       <use xlink:href="#DejaVuSerif-30"/>
       <use xlink:href="#DejaVuSerif-2e" x="63.623047"/>
       <use xlink:href="#DejaVuSerif-31" x="95.410156"/>
       <use xlink:href="#DejaVuSerif-30" x="159.033203"/>
      </g>
     </g>
    </g>
    <g id="ytick_4">
     <g id="line2d_37">
      <path d="M 72.4925 212.996228 
L 614.846922 212.996228 
" clip-path="url(#p153a4daa86)" style="fill: none; stroke: #ffffff; stroke-width: 0.8; stroke-linecap: square"/>
     </g>
     <g id="line2d_38">
      <g>
       <use xlink:href="#m588b2d9723" x="72.4925" y="212.996228" style="stroke: #000000; stroke-width: 0.8"/>
      </g>
     </g>
     <g id="text_20">
      <!-- 0.15 -->
      <g transform="translate(32.094063 218.695057) scale(0.15 -0.15)">
       <use xlink:href="#DejaVuSerif-30"/>
       <use xlink:href="#DejaVuSerif-2e" x="63.623047"/>
       <use xlink:href="#DejaVuSerif-31" x="95.410156"/>
       <use xlink:href="#DejaVuSerif-35" x="159.033203"/>
      </g>
     </g>
    </g>
    <g id="ytick_5">
     <g id="line2d_39">
      <path d="M 72.4925 174.754584 
L 614.846922 174.754584 
" clip-path="url(#p153a4daa86)" style="fill: none; stroke: #ffffff; stroke-width: 0.8; stroke-linecap: square"/>
     </g>
     <g id="line2d_40">
      <g>
       <use xlink:href="#m588b2d9723" x="72.4925" y="174.754584" style="stroke: #000000; stroke-width: 0.8"/>
      </g>
     </g>
     <g id="text_21">
      <!-- 0.20 -->
      <g transform="translate(32.094063 180.453412) scale(0.15 -0.15)">
       <use xlink:href="#DejaVuSerif-30"/>
       <use xlink:href="#DejaVuSerif-2e" x="63.623047"/>
       <use xlink:href="#DejaVuSerif-32" x="95.410156"/>
       <use xlink:href="#DejaVuSerif-30" x="159.033203"/>
      </g>
     </g>
    </g>
    <g id="ytick_6">
     <g id="line2d_41">
      <path d="M 72.4925 136.512939 
L 614.846922 136.512939 
" clip-path="url(#p153a4daa86)" style="fill: none; stroke: #ffffff; stroke-width: 0.8; stroke-linecap: square"/>
     </g>
     <g id="line2d_42">
      <g>
       <use xlink:href="#m588b2d9723" x="72.4925" y="136.512939" style="stroke: #000000; stroke-width: 0.8"/>
      </g>
     </g>
     <g id="text_22">
      <!-- 0.25 -->
      <g transform="translate(32.094063 142.211767) scale(0.15 -0.15)">
       <use xlink:href="#DejaVuSerif-30"/>
       <use xlink:href="#DejaVuSerif-2e" x="63.623047"/>
       <use xlink:href="#DejaVuSerif-32" x="95.410156"/>
       <use xlink:href="#DejaVuSerif-35" x="159.033203"/>
      </g>
     </g>
    </g>
    <g id="ytick_7">
     <g id="line2d_43">
      <path d="M 72.4925 98.271295 
L 614.846922 98.271295 
" clip-path="url(#p153a4daa86)" style="fill: none; stroke: #ffffff; stroke-width: 0.8; stroke-linecap: square"/>
     </g>
     <g id="line2d_44">
      <g>
       <use xlink:href="#m588b2d9723" x="72.4925" y="98.271295" style="stroke: #000000; stroke-width: 0.8"/>
      </g>
     </g>
     <g id="text_23">
      <!-- 0.30 -->
      <g transform="translate(32.094063 103.970123) scale(0.15 -0.15)">
       <use xlink:href="#DejaVuSerif-30"/>
       <use xlink:href="#DejaVuSerif-2e" x="63.623047"/>
       <use xlink:href="#DejaVuSerif-33" x="95.410156"/>
       <use xlink:href="#DejaVuSerif-30" x="159.033203"/>
      </g>
     </g>
    </g>
    <g id="ytick_8">
     <g id="line2d_45">
      <path d="M 72.4925 60.02965 
L 614.846922 60.02965 
" clip-path="url(#p153a4daa86)" style="fill: none; stroke: #ffffff; stroke-width: 0.8; stroke-linecap: square"/>
     </g>
     <g id="line2d_46">
      <g>
       <use xlink:href="#m588b2d9723" x="72.4925" y="60.02965" style="stroke: #000000; stroke-width: 0.8"/>
      </g>
     </g>
     <g id="text_24">
      <!-- 0.35 -->
      <g transform="translate(32.094063 65.728478) scale(0.15 -0.15)">
       <use xlink:href="#DejaVuSerif-30"/>
       <use xlink:href="#DejaVuSerif-2e" x="63.623047"/>
       <use xlink:href="#DejaVuSerif-33" x="95.410156"/>
       <use xlink:href="#DejaVuSerif-35" x="159.033203"/>
      </g>
     </g>
    </g>
    <g id="text_25">
     <!-- (p.u) -->
     <g transform="translate(24.558594 205.079529) rotate(-90) scale(0.17 -0.17)">
      <defs>
       <path id="DejaVuSerif-28" d="M 2041 -997 
Q 1281 -656 893 83 
Q 506 822 506 1931 
Q 506 3044 893 3783 
Q 1281 4522 2041 4863 
L 2041 4556 
Q 1559 4225 1350 3623 
Q 1141 3022 1141 1931 
Q 1141 844 1350 242 
Q 1559 -359 2041 -691 
L 2041 -997 
z
" transform="scale(0.015625)"/>
       <path id="DejaVuSerif-70" d="M 1313 1825 
L 1313 1497 
Q 1313 897 1542 583 
Q 1772 269 2209 269 
Q 2650 269 2876 622 
Q 3103 975 3103 1663 
Q 3103 2353 2876 2703 
Q 2650 3053 2209 3053 
Q 1772 3053 1542 2737 
Q 1313 2422 1313 1825 
z
M 738 2988 
L 184 2988 
L 184 3322 
L 1313 3322 
L 1313 2803 
Q 1481 3116 1742 3264 
Q 2003 3413 2388 3413 
Q 3000 3413 3387 2928 
Q 3775 2444 3775 1663 
Q 3775 881 3387 395 
Q 3000 -91 2388 -91 
Q 2003 -91 1742 57 
Q 1481 206 1313 519 
L 1313 -997 
L 1856 -997 
L 1856 -1331 
L 184 -1331 
L 184 -997 
L 738 -997 
L 738 2988 
z
" transform="scale(0.015625)"/>
       <path id="DejaVuSerif-29" d="M 453 -997 
L 453 -691 
Q 934 -359 1145 242 
Q 1356 844 1356 1931 
Q 1356 3022 1145 3623 
Q 934 4225 453 4556 
L 453 4863 
Q 1216 4522 1603 3783 
Q 1991 3044 1991 1931 
Q 1991 822 1603 83 
Q 1216 -656 453 -997 
z
" transform="scale(0.015625)"/>
      </defs>
      <use xlink:href="#DejaVuSerif-28"/>
      <use xlink:href="#DejaVuSerif-70" x="39.013672"/>
      <use xlink:href="#DejaVuSerif-2e" x="103.027344"/>
      <use xlink:href="#DejaVuSerif-75" x="134.814453"/>
      <use xlink:href="#DejaVuSerif-29" x="199.21875"/>
     </g>
    </g>
   </g>
   <g id="PolyCollection_1">
    <defs>
     <path id="m4916ec7115" d="M 97.144974 -354.863474 
L 97.144974 -346.384425 
L 132.362793 -303.254573 
L 167.580613 -292.838475 
L 202.798433 -291.6919 
L 238.016252 -287.440498 
L 273.234072 -278.324081 
L 308.451891 -277.772736 
L 343.669711 -274.581477 
L 378.887531 -267.861554 
L 414.10535 -267.335686 
L 449.32317 -266.2723 
L 484.540989 -259.759853 
L 519.758809 -259.25687 
L 554.976629 -258.019161 
L 590.194448 -255.248411 
L 590.194448 -263.53063 
L 590.194448 -263.53063 
L 554.976629 -266.243031 
L 519.758809 -267.791671 
L 484.540989 -268.424025 
L 449.32317 -274.887801 
L 414.10535 -275.900303 
L 378.887531 -276.310787 
L 343.669711 -282.968138 
L 308.451891 -286.103437 
L 273.234072 -287.033926 
L 238.016252 -296.308444 
L 202.798433 -299.641126 
L 167.580613 -301.466067 
L 132.362793 -312.764326 
L 97.144974 -354.863474 
z
" style="stroke: #008000; stroke-opacity: 0.2; stroke-width: 0.5"/>
    </defs>
    <g clip-path="url(#p153a4daa86)">
     <use xlink:href="#m4916ec7115" x="0" y="432" style="fill: #008000; fill-opacity: 0.2; stroke: #008000; stroke-opacity: 0.2; stroke-width: 0.5"/>
    </g>
   </g>
   <g id="PolyCollection_2">
    <defs>
     <path id="m9c6b34b83b" d="M 97.144974 -109.973318 
L 97.144974 -109.067425 
L 132.362793 -119.497187 
L 167.580613 -158.463718 
L 202.798433 -127.116761 
L 238.016252 -157.574196 
L 273.234072 -154.107214 
L 308.451891 -155.19018 
L 343.669711 -152.082385 
L 378.887531 -149.711473 
L 414.10535 -151.265661 
L 449.32317 -149.925566 
L 484.540989 -148.581689 
L 519.758809 -163.267326 
L 554.976629 -160.918576 
L 590.194448 -384.270656 
L 590.194448 -389.666627 
L 590.194448 -389.666627 
L 554.976629 -163.386156 
L 519.758809 -165.936652 
L 484.540989 -150.887661 
L 449.32317 -152.398703 
L 414.10535 -153.749799 
L 378.887531 -152.117987 
L 343.669711 -154.220511 
L 308.451891 -157.648203 
L 273.234072 -156.546434 
L 238.016252 -159.989057 
L 202.798433 -128.566604 
L 167.580613 -160.83188 
L 132.362793 -120.646814 
L 97.144974 -109.973318 
z
" style="stroke: #ffa500; stroke-opacity: 0.2; stroke-width: 0.5"/>
    </defs>
    <g clip-path="url(#p153a4daa86)">
     <use xlink:href="#m9c6b34b83b" x="0" y="432" style="fill: #ffa500; fill-opacity: 0.2; stroke: #ffa500; stroke-opacity: 0.2; stroke-width: 0.5"/>
    </g>
   </g>
   <g id="PolyCollection_3">
    <defs>
     <path id="mf3288b7b75" d="M 97.144974 -119.400344 
L 97.144974 -118.395684 
L 132.362793 -371.308631 
L 167.580613 -134.599616 
L 202.798433 -226.097439 
L 238.016252 -133.379353 
L 273.234072 -139.461292 
L 308.451891 -137.928433 
L 343.669711 -145.054493 
L 378.887531 -164.098839 
L 414.10535 -159.024205 
L 449.32317 -164.34933 
L 484.540989 -151.090595 
L 519.758809 -247.248234 
L 554.976629 -136.928102 
L 590.194448 -104.674159 
L 590.194448 -104.888759 
L 590.194448 -104.888759 
L 554.976629 -138.264071 
L 519.758809 -253.05332 
L 484.540989 -153.111491 
L 449.32317 -166.557033 
L 414.10535 -161.14564 
L 378.887531 -166.309547 
L 343.669711 -146.61963 
L 308.451891 -139.267758 
L 273.234072 -140.92128 
L 238.016252 -134.733328 
L 202.798433 -229.420848 
L 167.580613 -135.959606 
L 132.362793 -379.344863 
L 97.144974 -119.400344 
z
" style="stroke: #800080; stroke-opacity: 0.2; stroke-width: 0.5"/>
    </defs>
    <g clip-path="url(#p153a4daa86)">
     <use xlink:href="#mf3288b7b75" x="0" y="432" style="fill: #800080; fill-opacity: 0.2; stroke: #800080; stroke-opacity: 0.2; stroke-width: 0.5"/>
    </g>
   </g>
   <g id="line2d_47">
    <path d="M 97.144974 81.459188 
L 132.362793 123.747666 
L 167.580613 135.09574 
L 202.798433 136.46291 
L 238.016252 139.927671 
L 273.234072 149.240154 
L 308.451891 150.270153 
L 343.669711 153.320855 
L 378.887531 160.16751 
L 414.10535 160.447487 
L 449.32317 161.45652 
L 484.540989 167.827623 
L 519.758809 168.14198 
L 554.976629 169.873051 
L 590.194448 172.614406 
" clip-path="url(#p153a4daa86)" style="fill: none; stroke: #008000; stroke-width: 1.5; stroke-linecap: square"/>
    <defs>
     <path id="m66b471e9db" d="M 0 3 
C 0.795609 3 1.55874 2.683901 2.12132 2.12132 
C 2.683901 1.55874 3 0.795609 3 0 
C 3 -0.795609 2.683901 -1.55874 2.12132 -2.12132 
C 1.55874 -2.683901 0.795609 -3 0 -3 
C -0.795609 -3 -1.55874 -2.683901 -2.12132 -2.12132 
C -2.683901 -1.55874 -3 -0.795609 -3 0 
C -3 0.795609 -2.683901 1.55874 -2.12132 2.12132 
C -1.55874 2.683901 -0.795609 3 0 3 
z
" style="stroke: #ffffff; stroke-width: 0.75"/>
    </defs>
    <g clip-path="url(#p153a4daa86)">
     <use xlink:href="#m66b471e9db" x="97.144974" y="81.459188" style="fill: #008000; stroke: #ffffff; stroke-width: 0.75"/>
     <use xlink:href="#m66b471e9db" x="132.362793" y="123.747666" style="fill: #008000; stroke: #ffffff; stroke-width: 0.75"/>
     <use xlink:href="#m66b471e9db" x="167.580613" y="135.09574" style="fill: #008000; stroke: #ffffff; stroke-width: 0.75"/>
     <use xlink:href="#m66b471e9db" x="202.798433" y="136.46291" style="fill: #008000; stroke: #ffffff; stroke-width: 0.75"/>
     <use xlink:href="#m66b471e9db" x="238.016252" y="139.927671" style="fill: #008000; stroke: #ffffff; stroke-width: 0.75"/>
     <use xlink:href="#m66b471e9db" x="273.234072" y="149.240154" style="fill: #008000; stroke: #ffffff; stroke-width: 0.75"/>
     <use xlink:href="#m66b471e9db" x="308.451891" y="150.270153" style="fill: #008000; stroke: #ffffff; stroke-width: 0.75"/>
     <use xlink:href="#m66b471e9db" x="343.669711" y="153.320855" style="fill: #008000; stroke: #ffffff; stroke-width: 0.75"/>
     <use xlink:href="#m66b471e9db" x="378.887531" y="160.16751" style="fill: #008000; stroke: #ffffff; stroke-width: 0.75"/>
     <use xlink:href="#m66b471e9db" x="414.10535" y="160.447487" style="fill: #008000; stroke: #ffffff; stroke-width: 0.75"/>
     <use xlink:href="#m66b471e9db" x="449.32317" y="161.45652" style="fill: #008000; stroke: #ffffff; stroke-width: 0.75"/>
     <use xlink:href="#m66b471e9db" x="484.540989" y="167.827623" style="fill: #008000; stroke: #ffffff; stroke-width: 0.75"/>
     <use xlink:href="#m66b471e9db" x="519.758809" y="168.14198" style="fill: #008000; stroke: #ffffff; stroke-width: 0.75"/>
     <use xlink:href="#m66b471e9db" x="554.976629" y="169.873051" style="fill: #008000; stroke: #ffffff; stroke-width: 0.75"/>
     <use xlink:href="#m66b471e9db" x="590.194448" y="172.614406" style="fill: #008000; stroke: #ffffff; stroke-width: 0.75"/>
    </g>
   </g>
   <g id="line2d_48">
    <path d="M 97.144974 322.472332 
L 132.362793 311.928633 
L 167.580613 272.296442 
L 202.798433 304.168796 
L 238.016252 273.222745 
L 273.234072 276.726097 
L 308.451891 275.562421 
L 343.669711 278.841133 
L 378.887531 281.108793 
L 414.10535 279.524095 
L 449.32317 280.858939 
L 484.540989 282.246971 
L 519.758809 267.459117 
L 554.976629 269.831812 
L 590.194448 44.937551 
" clip-path="url(#p153a4daa86)" style="fill: none; stroke-dasharray: 6,2.25; stroke-dashoffset: 0; stroke: #ffa500; stroke-width: 1.5"/>
    <defs>
     <path id="m408072e68d" d="M 0 -3 
L -3 3 
L 3 3 
z
" style="stroke: #ffffff; stroke-width: 0.75; stroke-linejoin: miter"/>
    </defs>
    <g clip-path="url(#p153a4daa86)">
     <use xlink:href="#m408072e68d" x="97.144974" y="322.472332" style="fill: #ffa500; stroke: #ffffff; stroke-width: 0.75; stroke-linejoin: miter"/>
     <use xlink:href="#m408072e68d" x="132.362793" y="311.928633" style="fill: #ffa500; stroke: #ffffff; stroke-width: 0.75; stroke-linejoin: miter"/>
     <use xlink:href="#m408072e68d" x="167.580613" y="272.296442" style="fill: #ffa500; stroke: #ffffff; stroke-width: 0.75; stroke-linejoin: miter"/>
     <use xlink:href="#m408072e68d" x="202.798433" y="304.168796" style="fill: #ffa500; stroke: #ffffff; stroke-width: 0.75; stroke-linejoin: miter"/>
     <use xlink:href="#m408072e68d" x="238.016252" y="273.222745" style="fill: #ffa500; stroke: #ffffff; stroke-width: 0.75; stroke-linejoin: miter"/>
     <use xlink:href="#m408072e68d" x="273.234072" y="276.726097" style="fill: #ffa500; stroke: #ffffff; stroke-width: 0.75; stroke-linejoin: miter"/>
     <use xlink:href="#m408072e68d" x="308.451891" y="275.562421" style="fill: #ffa500; stroke: #ffffff; stroke-width: 0.75; stroke-linejoin: miter"/>
     <use xlink:href="#m408072e68d" x="343.669711" y="278.841133" style="fill: #ffa500; stroke: #ffffff; stroke-width: 0.75; stroke-linejoin: miter"/>
     <use xlink:href="#m408072e68d" x="378.887531" y="281.108793" style="fill: #ffa500; stroke: #ffffff; stroke-width: 0.75; stroke-linejoin: miter"/>
     <use xlink:href="#m408072e68d" x="414.10535" y="279.524095" style="fill: #ffa500; stroke: #ffffff; stroke-width: 0.75; stroke-linejoin: miter"/>
     <use xlink:href="#m408072e68d" x="449.32317" y="280.858939" style="fill: #ffa500; stroke: #ffffff; stroke-width: 0.75; stroke-linejoin: miter"/>
     <use xlink:href="#m408072e68d" x="484.540989" y="282.246971" style="fill: #ffa500; stroke: #ffffff; stroke-width: 0.75; stroke-linejoin: miter"/>
     <use xlink:href="#m408072e68d" x="519.758809" y="267.459117" style="fill: #ffa500; stroke: #ffffff; stroke-width: 0.75; stroke-linejoin: miter"/>
     <use xlink:href="#m408072e68d" x="554.976629" y="269.831812" style="fill: #ffa500; stroke: #ffffff; stroke-width: 0.75; stroke-linejoin: miter"/>
     <use xlink:href="#m408072e68d" x="590.194448" y="44.937551" style="fill: #ffa500; stroke: #ffffff; stroke-width: 0.75; stroke-linejoin: miter"/>
    </g>
   </g>
   <g id="line2d_49">
    <path d="M 97.144974 313.108925 
L 132.362793 56.780032 
L 167.580613 296.68755 
L 202.798433 204.279184 
L 238.016252 297.956925 
L 273.234072 291.88022 
L 308.451891 293.390206 
L 343.669711 286.150163 
L 378.887531 266.791201 
L 414.10535 271.907439 
L 449.32317 266.504184 
L 484.540989 279.88008 
L 519.758809 181.797706 
L 554.976629 294.404443 
L 590.194448 327.226171 
" clip-path="url(#p153a4daa86)" style="fill: none; stroke-dasharray: 1.5,1.5; stroke-dashoffset: 0; stroke: #800080; stroke-width: 1.5"/>
    <defs>
     <path id="m181016224b" d="M 0 -3 
L -3 3 
L 3 3 
z
" style="stroke: #ffffff; stroke-width: 0.75; stroke-linejoin: miter"/>
    </defs>
    <g clip-path="url(#p153a4daa86)">
     <use xlink:href="#m181016224b" x="97.144974" y="313.108925" style="fill: #800080; stroke: #ffffff; stroke-width: 0.75; stroke-linejoin: miter"/>
     <use xlink:href="#m181016224b" x="132.362793" y="56.780032" style="fill: #800080; stroke: #ffffff; stroke-width: 0.75; stroke-linejoin: miter"/>
     <use xlink:href="#m181016224b" x="167.580613" y="296.68755" style="fill: #800080; stroke: #ffffff; stroke-width: 0.75; stroke-linejoin: miter"/>
     <use xlink:href="#m181016224b" x="202.798433" y="204.279184" style="fill: #800080; stroke: #ffffff; stroke-width: 0.75; stroke-linejoin: miter"/>
     <use xlink:href="#m181016224b" x="238.016252" y="297.956925" style="fill: #800080; stroke: #ffffff; stroke-width: 0.75; stroke-linejoin: miter"/>
     <use xlink:href="#m181016224b" x="273.234072" y="291.88022" style="fill: #800080; stroke: #ffffff; stroke-width: 0.75; stroke-linejoin: miter"/>
     <use xlink:href="#m181016224b" x="308.451891" y="293.390206" style="fill: #800080; stroke: #ffffff; stroke-width: 0.75; stroke-linejoin: miter"/>
     <use xlink:href="#m181016224b" x="343.669711" y="286.150163" style="fill: #800080; stroke: #ffffff; stroke-width: 0.75; stroke-linejoin: miter"/>
     <use xlink:href="#m181016224b" x="378.887531" y="266.791201" style="fill: #800080; stroke: #ffffff; stroke-width: 0.75; stroke-linejoin: miter"/>
     <use xlink:href="#m181016224b" x="414.10535" y="271.907439" style="fill: #800080; stroke: #ffffff; stroke-width: 0.75; stroke-linejoin: miter"/>
     <use xlink:href="#m181016224b" x="449.32317" y="266.504184" style="fill: #800080; stroke: #ffffff; stroke-width: 0.75; stroke-linejoin: miter"/>
     <use xlink:href="#m181016224b" x="484.540989" y="279.88008" style="fill: #800080; stroke: #ffffff; stroke-width: 0.75; stroke-linejoin: miter"/>
     <use xlink:href="#m181016224b" x="519.758809" y="181.797706" style="fill: #800080; stroke: #ffffff; stroke-width: 0.75; stroke-linejoin: miter"/>
     <use xlink:href="#m181016224b" x="554.976629" y="294.404443" style="fill: #800080; stroke: #ffffff; stroke-width: 0.75; stroke-linejoin: miter"/>
     <use xlink:href="#m181016224b" x="590.194448" y="327.226171" style="fill: #800080; stroke: #ffffff; stroke-width: 0.75; stroke-linejoin: miter"/>
    </g>
   </g>
   <g id="line2d_50"/>
   <g id="line2d_51"/>
   <g id="line2d_52"/>
   <g id="patch_3">
    <path d="M 72.4925 341.575464 
L 72.4925 28.08375 
" style="fill: none; stroke: #000000; stroke-width: 1.2; stroke-linejoin: miter; stroke-linecap: square"/>
   </g>
   <g id="patch_4">
    <path d="M 614.846922 341.575464 
L 614.846922 28.08375 
" style="fill: none; stroke: #000000; stroke-width: 1.2; stroke-linejoin: miter; stroke-linecap: square"/>
   </g>
   <g id="patch_5">
    <path d="M 72.4925 341.575464 
L 614.846922 341.575464 
" style="fill: none; stroke: #000000; stroke-width: 1.2; stroke-linejoin: miter; stroke-linecap: square"/>
   </g>
   <g id="patch_6">
    <path d="M 72.4925 28.08375 
L 614.846922 28.08375 
" style="fill: none; stroke: #000000; stroke-width: 1.2; stroke-linejoin: miter; stroke-linecap: square"/>
   </g>
   <g id="text_26">
    <!-- Highest average index for (PV Buses) - Northeast - IndiceSup -->
    <g transform="translate(109.781039 22.08375) scale(0.15 -0.15)">
     <defs>
      <path id="DejaVuSerif-48" d="M 353 0 
L 353 331 
L 947 331 
L 947 4331 
L 353 4331 
L 353 4666 
L 2175 4666 
L 2175 4331 
L 1581 4331 
L 1581 2719 
L 4000 2719 
L 4000 4331 
L 3406 4331 
L 3406 4666 
L 5228 4666 
L 5228 4331 
L 4634 4331 
L 4634 331 
L 5228 331 
L 5228 0 
L 3406 0 
L 3406 331 
L 4000 331 
L 4000 2338 
L 1581 2338 
L 1581 331 
L 2175 331 
L 2175 0 
L 353 0 
z
" transform="scale(0.015625)"/>
      <path id="DejaVuSerif-69" d="M 622 4353 
Q 622 4497 726 4603 
Q 831 4709 978 4709 
Q 1122 4709 1226 4603 
Q 1331 4497 1331 4353 
Q 1331 4206 1228 4103 
Q 1125 4000 978 4000 
Q 831 4000 726 4103 
Q 622 4206 622 4353 
z
M 1356 331 
L 1900 331 
L 1900 0 
L 231 0 
L 231 331 
L 781 331 
L 781 2988 
L 231 2988 
L 231 3322 
L 1356 3322 
L 1356 331 
z
" transform="scale(0.015625)"/>
      <path id="DejaVuSerif-67" d="M 3359 2988 
L 3359 72 
Q 3359 -644 2965 -1033 
Q 2572 -1422 1844 -1422 
Q 1516 -1422 1216 -1362 
Q 916 -1303 641 -1184 
L 641 -488 
L 941 -488 
Q 997 -813 1206 -963 
Q 1416 -1113 1806 -1113 
Q 2313 -1113 2548 -827 
Q 2784 -541 2784 72 
L 2784 519 
Q 2616 206 2355 57 
Q 2094 -91 1709 -91 
Q 1097 -91 708 395 
Q 319 881 319 1663 
Q 319 2444 706 2928 
Q 1094 3413 1709 3413 
Q 2094 3413 2355 3264 
Q 2616 3116 2784 2803 
L 2784 3322 
L 3909 3322 
L 3909 2988 
L 3359 2988 
z
M 2784 1825 
Q 2784 2422 2554 2737 
Q 2325 3053 1888 3053 
Q 1444 3053 1217 2703 
Q 991 2353 991 1663 
Q 991 975 1217 622 
Q 1444 269 1888 269 
Q 2325 269 2554 583 
Q 2784 897 2784 1497 
L 2784 1825 
z
" transform="scale(0.015625)"/>
      <path id="DejaVuSerif-68" d="M 263 0 
L 263 331 
L 781 331 
L 781 4531 
L 231 4531 
L 231 4863 
L 1356 4863 
L 1356 2731 
Q 1516 3069 1770 3241 
Q 2025 3413 2363 3413 
Q 2913 3413 3172 3097 
Q 3431 2781 3431 2113 
L 3431 331 
L 3944 331 
L 3944 0 
L 2356 0 
L 2356 331 
L 2853 331 
L 2853 1931 
Q 2853 2541 2704 2764 
Q 2556 2988 2175 2988 
Q 1775 2988 1565 2697 
Q 1356 2406 1356 1850 
L 1356 331 
L 1856 331 
L 1856 0 
L 263 0 
z
" transform="scale(0.015625)"/>
      <path id="DejaVuSerif-65" d="M 3469 1600 
L 991 1600 
L 991 1575 
Q 991 903 1244 561 
Q 1497 219 1991 219 
Q 2369 219 2611 417 
Q 2853 616 2950 1006 
L 3413 1006 
Q 3275 459 2904 184 
Q 2534 -91 1931 -91 
Q 1203 -91 761 389 
Q 319 869 319 1663 
Q 319 2450 753 2931 
Q 1188 3413 1894 3413 
Q 2647 3413 3050 2948 
Q 3453 2484 3469 1600 
z
M 2791 1931 
Q 2772 2513 2545 2808 
Q 2319 3103 1894 3103 
Q 1497 3103 1269 2806 
Q 1041 2509 991 1931 
L 2791 1931 
z
" transform="scale(0.015625)"/>
      <path id="DejaVuSerif-74" d="M 691 2988 
L 184 2988 
L 184 3322 
L 691 3322 
L 691 4353 
L 1269 4353 
L 1269 3322 
L 2350 3322 
L 2350 2988 
L 1269 2988 
L 1269 878 
Q 1269 456 1350 337 
Q 1431 219 1650 219 
Q 1875 219 1978 351 
Q 2081 484 2088 781 
L 2522 781 
Q 2497 328 2275 118 
Q 2053 -91 1600 -91 
Q 1103 -91 897 129 
Q 691 350 691 878 
L 691 2988 
z
" transform="scale(0.015625)"/>
      <path id="DejaVuSerif-20" transform="scale(0.015625)"/>
      <path id="DejaVuSerif-61" d="M 2547 1044 
L 2547 1747 
L 1806 1747 
Q 1378 1747 1168 1562 
Q 959 1378 959 997 
Q 959 650 1171 447 
Q 1384 244 1747 244 
Q 2106 244 2326 466 
Q 2547 688 2547 1044 
z
M 3122 2075 
L 3122 331 
L 3634 331 
L 3634 0 
L 2547 0 
L 2547 359 
Q 2356 128 2106 18 
Q 1856 -91 1522 -91 
Q 969 -91 644 203 
Q 319 497 319 997 
Q 319 1513 691 1797 
Q 1063 2081 1741 2081 
L 2547 2081 
L 2547 2309 
Q 2547 2688 2317 2895 
Q 2088 3103 1672 3103 
Q 1328 3103 1125 2947 
Q 922 2791 872 2484 
L 575 2484 
L 575 3156 
Q 875 3284 1158 3348 
Q 1441 3413 1709 3413 
Q 2400 3413 2761 3070 
Q 3122 2728 3122 2075 
z
" transform="scale(0.015625)"/>
      <path id="DejaVuSerif-76" d="M 1581 0 
L 359 2988 
L -19 2988 
L -19 3322 
L 1509 3322 
L 1509 2988 
L 978 2988 
L 1913 703 
L 2847 2988 
L 2350 2988 
L 2350 3322 
L 3597 3322 
L 3597 2988 
L 3225 2988 
L 2003 0 
L 1581 0 
z
" transform="scale(0.015625)"/>
      <path id="DejaVuSerif-72" d="M 3059 3328 
L 3059 2497 
L 2728 2497 
Q 2713 2744 2591 2866 
Q 2469 2988 2234 2988 
Q 1809 2988 1582 2694 
Q 1356 2400 1356 1850 
L 1356 331 
L 2022 331 
L 2022 0 
L 263 0 
L 263 331 
L 781 331 
L 781 2994 
L 231 2994 
L 231 3322 
L 1356 3322 
L 1356 2731 
Q 1525 3078 1790 3245 
Q 2056 3413 2438 3413 
Q 2578 3413 2733 3391 
Q 2888 3369 3059 3328 
z
" transform="scale(0.015625)"/>
      <path id="DejaVuSerif-6e" d="M 263 0 
L 263 331 
L 781 331 
L 781 2988 
L 231 2988 
L 231 3322 
L 1356 3322 
L 1356 2731 
Q 1516 3069 1770 3241 
Q 2025 3413 2363 3413 
Q 2913 3413 3172 3097 
Q 3431 2781 3431 2113 
L 3431 331 
L 3944 331 
L 3944 0 
L 2356 0 
L 2356 331 
L 2853 331 
L 2853 1931 
Q 2853 2541 2703 2767 
Q 2553 2994 2175 2994 
Q 1775 2994 1565 2701 
Q 1356 2409 1356 1850 
L 1356 331 
L 1856 331 
L 1856 0 
L 263 0 
z
" transform="scale(0.015625)"/>
      <path id="DejaVuSerif-64" d="M 3359 331 
L 3909 331 
L 3909 0 
L 2784 0 
L 2784 519 
Q 2616 206 2355 57 
Q 2094 -91 1709 -91 
Q 1097 -91 708 395 
Q 319 881 319 1663 
Q 319 2444 706 2928 
Q 1094 3413 1709 3413 
Q 2094 3413 2355 3264 
Q 2616 3116 2784 2803 
L 2784 4531 
L 2241 4531 
L 2241 4863 
L 3359 4863 
L 3359 331 
z
M 2784 1497 
L 2784 1825 
Q 2784 2422 2554 2737 
Q 2325 3053 1888 3053 
Q 1444 3053 1217 2703 
Q 991 2353 991 1663 
Q 991 975 1217 622 
Q 1444 269 1888 269 
Q 2325 269 2554 583 
Q 2784 897 2784 1497 
z
" transform="scale(0.015625)"/>
      <path id="DejaVuSerif-78" d="M 1863 2028 
L 2559 2988 
L 2113 2988 
L 2113 3322 
L 3391 3322 
L 3391 2988 
L 2950 2988 
L 2059 1759 
L 3097 331 
L 3531 331 
L 3531 0 
L 1997 0 
L 1997 331 
L 2419 331 
L 1697 1325 
L 972 331 
L 1403 331 
L 1403 0 
L 141 0 
L 141 331 
L 581 331 
L 1497 1594 
L 488 2988 
L 78 2988 
L 78 3322 
L 1563 3322 
L 1563 2988 
L 1166 2988 
L 1863 2028 
z
" transform="scale(0.015625)"/>
      <path id="DejaVuSerif-66" d="M 2753 4078 
L 2450 4078 
Q 2447 4313 2317 4434 
Q 2188 4556 1941 4556 
Q 1619 4556 1487 4379 
Q 1356 4203 1356 3750 
L 1356 3322 
L 2284 3322 
L 2284 2988 
L 1356 2988 
L 1356 331 
L 2094 331 
L 2094 0 
L 231 0 
L 231 331 
L 781 331 
L 781 2988 
L 231 2988 
L 231 3322 
L 781 3322 
L 781 3738 
Q 781 4294 1070 4578 
Q 1359 4863 1919 4863 
Q 2128 4863 2337 4825 
Q 2547 4788 2753 4709 
L 2753 4078 
z
" transform="scale(0.015625)"/>
      <path id="DejaVuSerif-6f" d="M 1925 219 
Q 2388 219 2623 584 
Q 2859 950 2859 1663 
Q 2859 2375 2623 2739 
Q 2388 3103 1925 3103 
Q 1463 3103 1227 2739 
Q 991 2375 991 1663 
Q 991 950 1228 584 
Q 1466 219 1925 219 
z
M 1925 -91 
Q 1200 -91 759 389 
Q 319 869 319 1663 
Q 319 2456 758 2934 
Q 1197 3413 1925 3413 
Q 2653 3413 3092 2934 
Q 3531 2456 3531 1663 
Q 3531 869 3092 389 
Q 2653 -91 1925 -91 
z
" transform="scale(0.015625)"/>
      <path id="DejaVuSerif-50" d="M 1581 2375 
L 2406 2375 
Q 2872 2375 3115 2626 
Q 3359 2878 3359 3353 
Q 3359 3831 3115 4081 
Q 2872 4331 2406 4331 
L 1581 4331 
L 1581 2375 
z
M 353 0 
L 353 331 
L 947 331 
L 947 4331 
L 353 4331 
L 353 4666 
L 2559 4666 
Q 3259 4666 3668 4311 
Q 4078 3956 4078 3353 
Q 4078 2753 3668 2397 
Q 3259 2041 2559 2041 
L 1581 2041 
L 1581 331 
L 2303 331 
L 2303 0 
L 353 0 
z
" transform="scale(0.015625)"/>
      <path id="DejaVuSerif-49" d="M 1581 331 
L 2175 331 
L 2175 0 
L 353 0 
L 353 331 
L 947 331 
L 947 4331 
L 353 4331 
L 353 4666 
L 2175 4666 
L 2175 4331 
L 1581 4331 
L 1581 331 
z
" transform="scale(0.015625)"/>
      <path id="DejaVuSerif-63" d="M 3291 997 
Q 3169 466 2822 187 
Q 2475 -91 1925 -91 
Q 1200 -91 759 389 
Q 319 869 319 1663 
Q 319 2459 759 2936 
Q 1200 3413 1925 3413 
Q 2241 3413 2553 3339 
Q 2866 3266 3181 3116 
L 3181 2266 
L 2847 2266 
Q 2781 2703 2561 2903 
Q 2341 3103 1931 3103 
Q 1466 3103 1228 2742 
Q 991 2381 991 1663 
Q 991 944 1227 581 
Q 1463 219 1931 219 
Q 2303 219 2525 412 
Q 2747 606 2828 997 
L 3291 997 
z
" transform="scale(0.015625)"/>
     </defs>
     <use xlink:href="#DejaVuSerif-48"/>
     <use xlink:href="#DejaVuSerif-69" x="87.207031"/>
     <use xlink:href="#DejaVuSerif-67" x="119.189453"/>
     <use xlink:href="#DejaVuSerif-68" x="183.203125"/>
     <use xlink:href="#DejaVuSerif-65" x="247.607422"/>
     <use xlink:href="#DejaVuSerif-73" x="306.787109"/>
     <use xlink:href="#DejaVuSerif-74" x="358.105469"/>
     <use xlink:href="#DejaVuSerif-20" x="398.291016"/>
     <use xlink:href="#DejaVuSerif-61" x="430.078125"/>
     <use xlink:href="#DejaVuSerif-76" x="489.697266"/>
     <use xlink:href="#DejaVuSerif-65" x="546.191406"/>
     <use xlink:href="#DejaVuSerif-72" x="605.371094"/>
     <use xlink:href="#DejaVuSerif-61" x="653.173828"/>
     <use xlink:href="#DejaVuSerif-67" x="712.792969"/>
     <use xlink:href="#DejaVuSerif-65" x="776.806641"/>
     <use xlink:href="#DejaVuSerif-20" x="835.986328"/>
     <use xlink:href="#DejaVuSerif-69" x="867.773438"/>
     <use xlink:href="#DejaVuSerif-6e" x="899.755859"/>
     <use xlink:href="#DejaVuSerif-64" x="964.160156"/>
     <use xlink:href="#DejaVuSerif-65" x="1028.173828"/>
     <use xlink:href="#DejaVuSerif-78" x="1087.353516"/>
     <use xlink:href="#DejaVuSerif-20" x="1143.75"/>
     <use xlink:href="#DejaVuSerif-66" x="1175.537109"/>
     <use xlink:href="#DejaVuSerif-6f" x="1212.548828"/>
     <use xlink:href="#DejaVuSerif-72" x="1272.753906"/>
     <use xlink:href="#DejaVuSerif-20" x="1320.556641"/>
     <use xlink:href="#DejaVuSerif-28" x="1352.34375"/>
     <use xlink:href="#DejaVuSerif-50" x="1391.357422"/>
     <use xlink:href="#DejaVuSerif-56" x="1458.642578"/>
     <use xlink:href="#DejaVuSerif-20" x="1530.859375"/>
     <use xlink:href="#DejaVuSerif-42" x="1562.646484"/>
     <use xlink:href="#DejaVuSerif-75" x="1636.132812"/>
     <use xlink:href="#DejaVuSerif-73" x="1700.537109"/>
     <use xlink:href="#DejaVuSerif-65" x="1751.855469"/>
     <use xlink:href="#DejaVuSerif-73" x="1811.035156"/>
     <use xlink:href="#DejaVuSerif-29" x="1862.353516"/>
     <use xlink:href="#DejaVuSerif-20" x="1901.367188"/>
     <use xlink:href="#DejaVuSerif-2d" x="1933.154297"/>
     <use xlink:href="#DejaVuSerif-20" x="1966.943359"/>
     <use xlink:href="#DejaVuSerif-4e" x="1998.730469"/>
     <use xlink:href="#DejaVuSerif-6f" x="2086.230469"/>
     <use xlink:href="#DejaVuSerif-72" x="2146.435547"/>
     <use xlink:href="#DejaVuSerif-74" x="2194.238281"/>
     <use xlink:href="#DejaVuSerif-68" x="2234.423828"/>
     <use xlink:href="#DejaVuSerif-65" x="2298.828125"/>
     <use xlink:href="#DejaVuSerif-61" x="2358.007812"/>
     <use xlink:href="#DejaVuSerif-73" x="2417.626953"/>
     <use xlink:href="#DejaVuSerif-74" x="2468.945312"/>
     <use xlink:href="#DejaVuSerif-20" x="2509.130859"/>
     <use xlink:href="#DejaVuSerif-2d" x="2540.917969"/>
     <use xlink:href="#DejaVuSerif-20" x="2574.707031"/>
     <use xlink:href="#DejaVuSerif-49" x="2606.494141"/>
     <use xlink:href="#DejaVuSerif-6e" x="2645.996094"/>
     <use xlink:href="#DejaVuSerif-64" x="2710.400391"/>
     <use xlink:href="#DejaVuSerif-69" x="2774.414062"/>
     <use xlink:href="#DejaVuSerif-63" x="2806.396484"/>
     <use xlink:href="#DejaVuSerif-65" x="2862.402344"/>
     <use xlink:href="#DejaVuSerif-53" x="2921.582031"/>
     <use xlink:href="#DejaVuSerif-75" x="2990.087891"/>
     <use xlink:href="#DejaVuSerif-70" x="3054.492188"/>
    </g>
   </g>
   <g id="legend_1">
    <g id="patch_7">
     <path d="M 623.946922 111.906562 
L 706.106922 111.906562 
Q 708.706922 111.906562 708.706922 109.306562 
L 708.706922 37.18375 
Q 708.706922 34.58375 706.106922 34.58375 
L 623.946922 34.58375 
Q 621.346922 34.58375 621.346922 37.18375 
L 621.346922 109.306562 
Q 621.346922 111.906562 623.946922 111.906562 
z
" style="fill: #e5e5e5; opacity: 0.8; stroke: #cccccc; stroke-width: 0.5; stroke-linejoin: miter"/>
    </g>
    <g id="text_27">
     <!-- Indices -->
     <g transform="translate(646.706609 47.382187) scale(0.1 -0.1)">
      <use xlink:href="#DejaVuSerif-49"/>
      <use xlink:href="#DejaVuSerif-6e" x="39.501953"/>
      <use xlink:href="#DejaVuSerif-64" x="103.90625"/>
      <use xlink:href="#DejaVuSerif-69" x="167.919922"/>
      <use xlink:href="#DejaVuSerif-63" x="199.902344"/>
      <use xlink:href="#DejaVuSerif-65" x="255.908203"/>
      <use xlink:href="#DejaVuSerif-73" x="315.087891"/>
     </g>
    </g>
    <g id="line2d_53">
     <defs>
      <path id="m31d531867d" d="M 0 5 
C 1.326016 5 2.597899 4.473168 3.535534 3.535534 
C 4.473168 2.597899 5 1.326016 5 0 
C 5 -1.326016 4.473168 -2.597899 3.535534 -3.535534 
C 2.597899 -4.473168 1.326016 -5 0 -5 
C -1.326016 -5 -2.597899 -4.473168 -3.535534 -3.535534 
C -4.473168 -2.597899 -5 -1.326016 -5 0 
C -5 1.326016 -4.473168 2.597899 -3.535534 3.535534 
C -2.597899 4.473168 -1.326016 5 0 5 
z
" style="stroke: #008000"/>
     </defs>
     <g>
      <use xlink:href="#m31d531867d" x="639.546922" y="61.289844" style="fill: #008000; stroke: #008000"/>
     </g>
    </g>
    <g id="text_28">
     <!-- $\mathrm{VPI}^\mathrm{u}$ -->
     <g transform="translate(662.946922 65.839844) scale(0.13 -0.13)">
      <use xlink:href="#DejaVuSerif-56" transform="translate(0 0.09375)"/>
      <use xlink:href="#DejaVuSerif-50" transform="translate(72.216797 0.09375)"/>
      <use xlink:href="#DejaVuSerif-49" transform="translate(139.501953 0.09375)"/>
      <use xlink:href="#DejaVuSerif-75" transform="translate(179.912266 36.428125) scale(0.7)"/>
     </g>
    </g>
    <g id="line2d_54">
     <defs>
      <path id="m4cd6a198d3" d="M 0 -5 
L -5 5 
L 5 5 
z
" style="stroke: #ffa500; stroke-linejoin: miter"/>
     </defs>
     <g>
      <use xlink:href="#m4cd6a198d3" x="639.546922" y="80.371406" style="fill: #ffa500; stroke: #ffa500; stroke-linejoin: miter"/>
     </g>
    </g>
    <g id="text_29">
     <!-- $\mathrm{RPI}^\mathrm{ind}$ -->
     <g transform="translate(662.946922 84.921406) scale(0.13 -0.13)">
      <use xlink:href="#DejaVuSerif-52" transform="translate(0 0.476562)"/>
      <use xlink:href="#DejaVuSerif-50" transform="translate(75.292969 0.476562)"/>
      <use xlink:href="#DejaVuSerif-49" transform="translate(142.578125 0.476562)"/>
      <use xlink:href="#DejaVuSerif-69" transform="translate(182.988438 36.810937) scale(0.7)"/>
      <use xlink:href="#DejaVuSerif-6e" transform="translate(205.376133 36.810937) scale(0.7)"/>
      <use xlink:href="#DejaVuSerif-64" transform="translate(250.459141 36.810937) scale(0.7)"/>
     </g>
    </g>
    <g id="line2d_55">
     <defs>
      <path id="mf3a9b8b69d" d="M 0 -5 
L -5 5 
L 5 5 
z
" style="stroke: #800080; stroke-linejoin: miter"/>
     </defs>
     <g>
      <use xlink:href="#mf3a9b8b69d" x="639.546922" y="99.452969" style="fill: #800080; stroke: #800080; stroke-linejoin: miter"/>
     </g>
    </g>
    <g id="text_30">
     <!-- $\mathrm{RPI}^\mathrm{cap}$ -->
     <g transform="translate(662.946922 104.002969) scale(0.13 -0.13)">
      <use xlink:href="#DejaVuSerif-52" transform="translate(0 0.335938)"/>
      <use xlink:href="#DejaVuSerif-50" transform="translate(75.292969 0.335938)"/>
      <use xlink:href="#DejaVuSerif-49" transform="translate(142.578125 0.335938)"/>
      <use xlink:href="#DejaVuSerif-63" transform="translate(182.988438 36.670312) scale(0.7)"/>
      <use xlink:href="#DejaVuSerif-61" transform="translate(222.192539 36.670312) scale(0.7)"/>
      <use xlink:href="#DejaVuSerif-70" transform="translate(263.925937 36.670312) scale(0.7)"/>
     </g>
    </g>
   </g>
  </g>
 </g>
 <defs>
  <clipPath id="p153a4daa86">
   <rect x="72.4925" y="28.08375" width="542.354422" height="313.491714"/>
  </clipPath>
 </defs>
</svg>
