<?xml version="1.0" encoding="utf-8" standalone="no"?>
<!DOCTYPE svg PUBLIC "-//W3C//DTD SVG 1.1//EN"
  "http://www.w3.org/Graphics/SVG/1.1/DTD/svg11.dtd">
<svg xmlns:xlink="http://www.w3.org/1999/xlink" width="1008pt" height="648pt" viewBox="0 0 1008 648" xmlns="http://www.w3.org/2000/svg" version="1.1">
 <metadata>
  <rdf:RDF xmlns:dc="http://purl.org/dc/elements/1.1/" xmlns:cc="http://creativecommons.org/ns#" xmlns:rdf="http://www.w3.org/1999/02/22-rdf-syntax-ns#">
   <cc:Work>
    <dc:type rdf:resource="http://purl.org/dc/dcmitype/StillImage"/>
    <dc:date>2024-10-12T11:09:07.082498</dc:date>
    <dc:format>image/svg+xml</dc:format>
    <dc:creator>
     <cc:Agent>
      <dc:title>Matplotlib v3.7.2, https://matplotlib.org/</dc:title>
     </cc:Agent>
    </dc:creator>
   </cc:Work>
  </rdf:RDF>
 </metadata>
 <defs>
  <style type="text/css">*{stroke-linejoin: round; stroke-linecap: butt}</style>
 </defs>
 <g id="figure_1">
  <g id="patch_1">
   <path d="M 0 648 
L 1008 648 
L 1008 0 
L 0 0 
z
" style="fill: #ffffff"/>
  </g>
  <g id="axes_1">
   <g id="patch_2">
    <path d="M 135.91104 508.422772 
L 997.2 508.422772 
L 997.2 101.592 
L 135.91104 101.592 
z
" style="fill: #e5e5e5"/>
   </g>
   <g id="matplotlib.axis_1">
    <g id="xtick_1">
     <g id="line2d_1">
      <path d="M 175.060538 508.422772 
L 175.060538 101.592 
" clip-path="url(#p4fbd11d04e)" style="fill: none; stroke: #ffffff; stroke-width: 0.8; stroke-linecap: square"/>
     </g>
     <g id="line2d_2">
      <defs>
       <path id="m4ac87703a8" d="M 0 0 
L 0 3.5 
" style="stroke: #000000; stroke-width: 0.8"/>
      </defs>
      <g>
       <use xlink:href="#m4ac87703a8" x="175.060538" y="508.422772" style="stroke: #000000; stroke-width: 0.8"/>
      </g>
     </g>
     <g id="text_1">
      <!-- 352 - FURNASUHE006 -->
      <g transform="translate(20.112789 613.852026) rotate(-30) scale(0.15 -0.15)">
       <defs>
        <path id="DejaVuSerif-33" d="M 622 4469 
Q 988 4606 1323 4678 
Q 1659 4750 1953 4750 
Q 2638 4750 3022 4454 
Q 3406 4159 3406 3634 
Q 3406 3213 3140 2930 
Q 2875 2647 2388 2547 
Q 2963 2466 3280 2130 
Q 3597 1794 3597 1259 
Q 3597 606 3158 257 
Q 2719 -91 1894 -91 
Q 1528 -91 1179 -12 
Q 831 66 488 225 
L 488 1131 
L 838 1131 
Q 869 681 1141 450 
Q 1413 219 1906 219 
Q 2384 219 2661 495 
Q 2938 772 2938 1253 
Q 2938 1803 2653 2086 
Q 2369 2369 1819 2369 
L 1522 2369 
L 1522 2688 
L 1678 2688 
Q 2225 2688 2498 2914 
Q 2772 3141 2772 3597 
Q 2772 4006 2547 4223 
Q 2322 4441 1900 4441 
Q 1478 4441 1245 4241 
Q 1013 4041 972 3647 
L 622 3647 
L 622 4469 
z
" transform="scale(0.015625)"/>
        <path id="DejaVuSerif-35" d="M 3219 4666 
L 3219 4153 
L 1081 4153 
L 1081 2816 
Q 1244 2928 1461 2984 
Q 1678 3041 1947 3041 
Q 2703 3041 3140 2622 
Q 3578 2203 3578 1478 
Q 3578 738 3136 323 
Q 2694 -91 1894 -91 
Q 1572 -91 1234 -12 
Q 897 66 544 225 
L 544 1131 
L 897 1131 
Q 925 688 1179 453 
Q 1434 219 1894 219 
Q 2388 219 2653 544 
Q 2919 869 2919 1478 
Q 2919 2084 2655 2407 
Q 2391 2731 1894 2731 
Q 1613 2731 1398 2631 
Q 1184 2531 1019 2322 
L 750 2322 
L 750 4666 
L 3219 4666 
z
" transform="scale(0.015625)"/>
        <path id="DejaVuSerif-32" d="M 819 3553 
L 469 3553 
L 469 4384 
Q 803 4563 1142 4656 
Q 1481 4750 1806 4750 
Q 2534 4750 2956 4397 
Q 3378 4044 3378 3438 
Q 3378 2753 2422 1800 
Q 2347 1728 2309 1691 
L 1131 513 
L 3078 513 
L 3078 1088 
L 3444 1088 
L 3444 0 
L 434 0 
L 434 341 
L 1850 1753 
Q 2319 2222 2519 2614 
Q 2719 3006 2719 3438 
Q 2719 3909 2473 4175 
Q 2228 4441 1797 4441 
Q 1350 4441 1106 4219 
Q 863 3997 819 3553 
z
" transform="scale(0.015625)"/>
        <path id="DejaVuSerif-20" transform="scale(0.015625)"/>
        <path id="DejaVuSerif-2d" d="M 281 1959 
L 1881 1959 
L 1881 1472 
L 281 1472 
L 281 1959 
z
" transform="scale(0.015625)"/>
        <path id="DejaVuSerif-46" d="M 353 0 
L 353 331 
L 947 331 
L 947 4331 
L 353 4331 
L 353 4666 
L 4172 4666 
L 4172 3628 
L 3788 3628 
L 3788 4281 
L 1581 4281 
L 1581 2719 
L 3175 2719 
L 3175 3303 
L 3559 3303 
L 3559 1753 
L 3175 1753 
L 3175 2338 
L 1581 2338 
L 1581 331 
L 2328 331 
L 2328 0 
L 353 0 
z
" transform="scale(0.015625)"/>
        <path id="DejaVuSerif-55" d="M 897 4331 
L 300 4331 
L 300 4666 
L 2125 4666 
L 2125 4331 
L 1528 4331 
L 1528 1919 
Q 1528 1025 1820 672 
Q 2113 319 2828 319 
Q 3544 319 3836 672 
Q 4128 1025 4128 1919 
L 4128 4331 
L 3531 4331 
L 3531 4666 
L 5106 4666 
L 5106 4331 
L 4513 4331 
L 4513 1856 
Q 4513 791 4103 350 
Q 3694 -91 2713 -91 
Q 1731 -91 1314 353 
Q 897 797 897 1856 
L 897 4331 
z
" transform="scale(0.015625)"/>
        <path id="DejaVuSerif-52" d="M 3066 2316 
Q 3284 2256 3442 2114 
Q 3600 1972 3725 1716 
L 4403 331 
L 4972 331 
L 4972 0 
L 3872 0 
L 3144 1484 
Q 2934 1916 2759 2042 
Q 2584 2169 2278 2169 
L 1581 2169 
L 1581 331 
L 2241 331 
L 2241 0 
L 353 0 
L 353 331 
L 947 331 
L 947 4331 
L 353 4331 
L 353 4666 
L 2719 4666 
Q 3400 4666 3770 4341 
Q 4141 4016 4141 3419 
Q 4141 2938 3870 2661 
Q 3600 2384 3066 2316 
z
M 1581 2503 
L 2503 2503 
Q 2975 2503 3200 2726 
Q 3425 2950 3425 3419 
Q 3425 3888 3200 4109 
Q 2975 4331 2503 4331 
L 1581 4331 
L 1581 2503 
z
" transform="scale(0.015625)"/>
        <path id="DejaVuSerif-4e" d="M 313 0 
L 313 331 
L 941 331 
L 941 4331 
L 313 4331 
L 313 4666 
L 1509 4666 
L 4306 984 
L 4306 4331 
L 3681 4331 
L 3681 4666 
L 5319 4666 
L 5319 4331 
L 4691 4331 
L 4691 -91 
L 4313 -91 
L 1325 3841 
L 1325 331 
L 1953 331 
L 1953 0 
L 313 0 
z
" transform="scale(0.015625)"/>
        <path id="DejaVuSerif-41" d="M 1281 1691 
L 2994 1691 
L 2138 3909 
L 1281 1691 
z
M -38 0 
L -38 331 
L 372 331 
L 2034 4666 
L 2559 4666 
L 4225 331 
L 4684 331 
L 4684 0 
L 2988 0 
L 2988 331 
L 3506 331 
L 3116 1356 
L 1153 1356 
L 763 331 
L 1275 331 
L 1275 0 
L -38 0 
z
" transform="scale(0.015625)"/>
        <path id="DejaVuSerif-53" d="M 594 225 
L 594 1288 
L 953 1284 
Q 969 753 1261 498 
Q 1553 244 2150 244 
Q 2706 244 2998 464 
Q 3291 684 3291 1106 
Q 3291 1444 3114 1625 
Q 2938 1806 2369 1978 
L 1753 2163 
Q 1084 2366 811 2669 
Q 538 2972 538 3500 
Q 538 4094 959 4422 
Q 1381 4750 2144 4750 
Q 2469 4750 2856 4679 
Q 3244 4609 3681 4475 
L 3681 3481 
L 3328 3481 
Q 3275 3975 2998 4195 
Q 2722 4416 2156 4416 
Q 1663 4416 1405 4214 
Q 1147 4013 1147 3628 
Q 1147 3294 1340 3103 
Q 1534 2913 2163 2725 
L 2741 2553 
Q 3375 2363 3645 2067 
Q 3916 1772 3916 1275 
Q 3916 597 3481 253 
Q 3047 -91 2188 -91 
Q 1803 -91 1404 -12 
Q 1006 66 594 225 
z
" transform="scale(0.015625)"/>
        <path id="DejaVuSerif-48" d="M 353 0 
L 353 331 
L 947 331 
L 947 4331 
L 353 4331 
L 353 4666 
L 2175 4666 
L 2175 4331 
L 1581 4331 
L 1581 2719 
L 4000 2719 
L 4000 4331 
L 3406 4331 
L 3406 4666 
L 5228 4666 
L 5228 4331 
L 4634 4331 
L 4634 331 
L 5228 331 
L 5228 0 
L 3406 0 
L 3406 331 
L 4000 331 
L 4000 2338 
L 1581 2338 
L 1581 331 
L 2175 331 
L 2175 0 
L 353 0 
z
" transform="scale(0.015625)"/>
        <path id="DejaVuSerif-45" d="M 353 0 
L 353 331 
L 947 331 
L 947 4331 
L 353 4331 
L 353 4666 
L 4109 4666 
L 4109 3628 
L 3725 3628 
L 3725 4281 
L 1581 4281 
L 1581 2719 
L 3109 2719 
L 3109 3303 
L 3494 3303 
L 3494 1753 
L 3109 1753 
L 3109 2338 
L 1581 2338 
L 1581 384 
L 3775 384 
L 3775 1038 
L 4159 1038 
L 4159 0 
L 353 0 
z
" transform="scale(0.015625)"/>
        <path id="DejaVuSerif-30" d="M 2034 219 
Q 2513 219 2750 744 
Q 2988 1269 2988 2328 
Q 2988 3391 2750 3916 
Q 2513 4441 2034 4441 
Q 1556 4441 1318 3916 
Q 1081 3391 1081 2328 
Q 1081 1269 1318 744 
Q 1556 219 2034 219 
z
M 2034 -91 
Q 1275 -91 848 546 
Q 422 1184 422 2328 
Q 422 3475 848 4112 
Q 1275 4750 2034 4750 
Q 2797 4750 3222 4112 
Q 3647 3475 3647 2328 
Q 3647 1184 3222 546 
Q 2797 -91 2034 -91 
z
" transform="scale(0.015625)"/>
        <path id="DejaVuSerif-36" d="M 2094 219 
Q 2534 219 2771 542 
Q 3009 866 3009 1472 
Q 3009 2078 2771 2401 
Q 2534 2725 2094 2725 
Q 1647 2725 1412 2412 
Q 1178 2100 1178 1509 
Q 1178 888 1415 553 
Q 1653 219 2094 219 
z
M 1075 2569 
Q 1288 2803 1556 2918 
Q 1825 3034 2163 3034 
Q 2859 3034 3264 2615 
Q 3669 2197 3669 1472 
Q 3669 763 3233 336 
Q 2797 -91 2069 -91 
Q 1278 -91 853 498 
Q 428 1088 428 2181 
Q 428 3406 931 4078 
Q 1434 4750 2350 4750 
Q 2597 4750 2869 4703 
Q 3141 4656 3425 4563 
L 3425 3794 
L 3072 3794 
Q 3034 4109 2831 4275 
Q 2628 4441 2284 4441 
Q 1678 4441 1381 3981 
Q 1084 3522 1075 2569 
z
" transform="scale(0.015625)"/>
       </defs>
       <use xlink:href="#DejaVuSerif-33"/>
       <use xlink:href="#DejaVuSerif-35" x="63.623047"/>
       <use xlink:href="#DejaVuSerif-32" x="127.246094"/>
       <use xlink:href="#DejaVuSerif-20" x="190.869141"/>
       <use xlink:href="#DejaVuSerif-2d" x="222.65625"/>
       <use xlink:href="#DejaVuSerif-20" x="256.445312"/>
       <use xlink:href="#DejaVuSerif-46" x="288.232422"/>
       <use xlink:href="#DejaVuSerif-55" x="357.617188"/>
       <use xlink:href="#DejaVuSerif-52" x="441.894531"/>
       <use xlink:href="#DejaVuSerif-4e" x="517.1875"/>
       <use xlink:href="#DejaVuSerif-41" x="604.6875"/>
       <use xlink:href="#DejaVuSerif-53" x="676.904297"/>
       <use xlink:href="#DejaVuSerif-55" x="745.410156"/>
       <use xlink:href="#DejaVuSerif-48" x="829.6875"/>
       <use xlink:href="#DejaVuSerif-45" x="916.894531"/>
       <use xlink:href="#DejaVuSerif-30" x="989.892578"/>
       <use xlink:href="#DejaVuSerif-30" x="1053.515625"/>
       <use xlink:href="#DejaVuSerif-36" x="1117.138672"/>
      </g>
     </g>
    </g>
    <g id="xtick_2">
     <g id="line2d_3">
      <path d="M 240.309702 508.422772 
L 240.309702 101.592 
" clip-path="url(#p4fbd11d04e)" style="fill: none; stroke: #ffffff; stroke-width: 0.8; stroke-linecap: square"/>
     </g>
     <g id="line2d_4">
      <g>
       <use xlink:href="#m4ac87703a8" x="240.309702" y="508.422772" style="stroke: #000000; stroke-width: 0.8"/>
      </g>
     </g>
     <g id="text_2">
      <!-- 352 - JAGUARUHE003 -->
      <g transform="translate(90.079085 611.128589) rotate(-30) scale(0.15 -0.15)">
       <defs>
        <path id="DejaVuSerif-4a" d="M -538 -1119 
L -538 -384 
L -181 -384 
Q -172 -694 -34 -845 
Q 103 -997 378 -997 
Q 750 -997 897 -762 
Q 1044 -528 1044 153 
L 1044 4331 
L 319 4331 
L 319 4666 
L 2272 4666 
L 2272 4331 
L 1678 4331 
L 1678 128 
Q 1678 -644 1368 -987 
Q 1059 -1331 372 -1331 
Q 150 -1331 -79 -1278 
Q -309 -1225 -538 -1119 
z
" transform="scale(0.015625)"/>
        <path id="DejaVuSerif-47" d="M 4097 3272 
Q 3988 3856 3641 4136 
Q 3294 4416 2675 4416 
Q 1869 4416 1472 3897 
Q 1075 3378 1075 2328 
Q 1075 1300 1484 772 
Q 1894 244 2688 244 
Q 3041 244 3362 331 
Q 3684 419 3975 594 
L 3975 1797 
L 3097 1797 
L 3097 2131 
L 4609 2131 
L 4609 391 
Q 4194 150 3714 29 
Q 3234 -91 2688 -91 
Q 1631 -91 995 570 
Q 359 1231 359 2328 
Q 359 3434 996 4092 
Q 1634 4750 2713 4750 
Q 3113 4750 3539 4658 
Q 3966 4566 4447 4378 
L 4447 3272 
L 4097 3272 
z
" transform="scale(0.015625)"/>
       </defs>
       <use xlink:href="#DejaVuSerif-33"/>
       <use xlink:href="#DejaVuSerif-35" x="63.623047"/>
       <use xlink:href="#DejaVuSerif-32" x="127.246094"/>
       <use xlink:href="#DejaVuSerif-20" x="190.869141"/>
       <use xlink:href="#DejaVuSerif-2d" x="222.65625"/>
       <use xlink:href="#DejaVuSerif-20" x="256.445312"/>
       <use xlink:href="#DejaVuSerif-4a" x="288.232422"/>
       <use xlink:href="#DejaVuSerif-41" x="328.320312"/>
       <use xlink:href="#DejaVuSerif-47" x="400.537109"/>
       <use xlink:href="#DejaVuSerif-55" x="480.419922"/>
       <use xlink:href="#DejaVuSerif-41" x="561.572266"/>
       <use xlink:href="#DejaVuSerif-52" x="633.789062"/>
       <use xlink:href="#DejaVuSerif-55" x="709.082031"/>
       <use xlink:href="#DejaVuSerif-48" x="793.359375"/>
       <use xlink:href="#DejaVuSerif-45" x="880.566406"/>
       <use xlink:href="#DejaVuSerif-30" x="953.564453"/>
       <use xlink:href="#DejaVuSerif-30" x="1017.1875"/>
       <use xlink:href="#DejaVuSerif-33" x="1080.810547"/>
      </g>
     </g>
    </g>
    <g id="xtick_3">
     <g id="line2d_5">
      <path d="M 305.558865 508.422772 
L 305.558865 101.592 
" clip-path="url(#p4fbd11d04e)" style="fill: none; stroke: #ffffff; stroke-width: 0.8; stroke-linecap: square"/>
     </g>
     <g id="line2d_6">
      <g>
       <use xlink:href="#m4ac87703a8" x="305.558865" y="508.422772" style="stroke: #000000; stroke-width: 0.8"/>
      </g>
     </g>
     <g id="text_3">
      <!-- 352 - BARRE-SIN001 -->
      <g transform="translate(163.757788 606.261792) rotate(-30) scale(0.15 -0.15)">
       <defs>
        <path id="DejaVuSerif-42" d="M 1581 331 
L 2516 331 
Q 3078 331 3337 575 
Q 3597 819 3597 1350 
Q 3597 1878 3339 2120 
Q 3081 2363 2516 2363 
L 1581 2363 
L 1581 331 
z
M 1581 2694 
L 2375 2694 
Q 2888 2694 3123 2891 
Q 3359 3088 3359 3513 
Q 3359 3941 3123 4136 
Q 2888 4331 2375 4331 
L 1581 4331 
L 1581 2694 
z
M 353 0 
L 353 331 
L 947 331 
L 947 4331 
L 353 4331 
L 353 4666 
L 2656 4666 
Q 3363 4666 3720 4377 
Q 4078 4088 4078 3513 
Q 4078 3097 3829 2850 
Q 3581 2603 3103 2547 
Q 3697 2472 4005 2167 
Q 4313 1863 4313 1350 
Q 4313 656 3875 328 
Q 3438 0 2509 0 
L 353 0 
z
" transform="scale(0.015625)"/>
        <path id="DejaVuSerif-49" d="M 1581 331 
L 2175 331 
L 2175 0 
L 353 0 
L 353 331 
L 947 331 
L 947 4331 
L 353 4331 
L 353 4666 
L 2175 4666 
L 2175 4331 
L 1581 4331 
L 1581 331 
z
" transform="scale(0.015625)"/>
        <path id="DejaVuSerif-31" d="M 909 0 
L 909 331 
L 1722 331 
L 1722 4213 
L 781 3603 
L 781 4013 
L 1919 4750 
L 2350 4750 
L 2350 331 
L 3163 331 
L 3163 0 
L 909 0 
z
" transform="scale(0.015625)"/>
       </defs>
       <use xlink:href="#DejaVuSerif-33"/>
       <use xlink:href="#DejaVuSerif-35" x="63.623047"/>
       <use xlink:href="#DejaVuSerif-32" x="127.246094"/>
       <use xlink:href="#DejaVuSerif-20" x="190.869141"/>
       <use xlink:href="#DejaVuSerif-2d" x="222.65625"/>
       <use xlink:href="#DejaVuSerif-20" x="256.445312"/>
       <use xlink:href="#DejaVuSerif-42" x="288.232422"/>
       <use xlink:href="#DejaVuSerif-41" x="361.71875"/>
       <use xlink:href="#DejaVuSerif-52" x="433.935547"/>
       <use xlink:href="#DejaVuSerif-52" x="509.228516"/>
       <use xlink:href="#DejaVuSerif-45" x="584.521484"/>
       <use xlink:href="#DejaVuSerif-2d" x="659.394531"/>
       <use xlink:href="#DejaVuSerif-53" x="693.183594"/>
       <use xlink:href="#DejaVuSerif-49" x="761.689453"/>
       <use xlink:href="#DejaVuSerif-4e" x="801.191406"/>
       <use xlink:href="#DejaVuSerif-30" x="888.691406"/>
       <use xlink:href="#DejaVuSerif-30" x="952.314453"/>
       <use xlink:href="#DejaVuSerif-31" x="1015.9375"/>
      </g>
     </g>
    </g>
    <g id="xtick_4">
     <g id="line2d_7">
      <path d="M 370.808029 508.422772 
L 370.808029 101.592 
" clip-path="url(#p4fbd11d04e)" style="fill: none; stroke: #ffffff; stroke-width: 0.8; stroke-linecap: square"/>
     </g>
     <g id="line2d_8">
      <g>
       <use xlink:href="#m4ac87703a8" x="370.808029" y="508.422772" style="stroke: #000000; stroke-width: 0.8"/>
      </g>
     </g>
     <g id="text_4">
      <!-- 352 - M.MORAUHE005 -->
      <g transform="translate(214.707383 614.517651) rotate(-30) scale(0.15 -0.15)">
       <defs>
        <path id="DejaVuSerif-4d" d="M 353 0 
L 353 331 
L 947 331 
L 947 4331 
L 319 4331 
L 319 4666 
L 1678 4666 
L 3316 1344 
L 4953 4666 
L 6228 4666 
L 6228 4331 
L 5606 4331 
L 5606 331 
L 6203 331 
L 6203 0 
L 4378 0 
L 4378 331 
L 4972 331 
L 4972 3938 
L 3372 684 
L 2931 684 
L 1331 3938 
L 1331 331 
L 1925 331 
L 1925 0 
L 353 0 
z
" transform="scale(0.015625)"/>
        <path id="DejaVuSerif-2e" d="M 603 325 
Q 603 500 722 622 
Q 841 744 1019 744 
Q 1191 744 1312 622 
Q 1434 500 1434 325 
Q 1434 153 1312 31 
Q 1191 -91 1019 -91 
Q 841 -91 722 29 
Q 603 150 603 325 
z
" transform="scale(0.015625)"/>
        <path id="DejaVuSerif-4f" d="M 2625 244 
Q 3391 244 3781 770 
Q 4172 1297 4172 2328 
Q 4172 3363 3781 3889 
Q 3391 4416 2625 4416 
Q 1856 4416 1465 3889 
Q 1075 3363 1075 2328 
Q 1075 1297 1465 770 
Q 1856 244 2625 244 
z
M 2625 -91 
Q 2150 -91 1751 65 
Q 1353 222 1050 525 
Q 700 875 529 1319 
Q 359 1763 359 2328 
Q 359 2894 529 3339 
Q 700 3784 1050 4134 
Q 1356 4441 1750 4595 
Q 2144 4750 2625 4750 
Q 3641 4750 4266 4084 
Q 4891 3419 4891 2328 
Q 4891 1769 4719 1320 
Q 4547 872 4197 525 
Q 3891 219 3497 64 
Q 3103 -91 2625 -91 
z
" transform="scale(0.015625)"/>
       </defs>
       <use xlink:href="#DejaVuSerif-33"/>
       <use xlink:href="#DejaVuSerif-35" x="63.623047"/>
       <use xlink:href="#DejaVuSerif-32" x="127.246094"/>
       <use xlink:href="#DejaVuSerif-20" x="190.869141"/>
       <use xlink:href="#DejaVuSerif-2d" x="222.65625"/>
       <use xlink:href="#DejaVuSerif-20" x="256.445312"/>
       <use xlink:href="#DejaVuSerif-4d" x="288.232422"/>
       <use xlink:href="#DejaVuSerif-2e" x="390.625"/>
       <use xlink:href="#DejaVuSerif-4d" x="422.412109"/>
       <use xlink:href="#DejaVuSerif-4f" x="524.804688"/>
       <use xlink:href="#DejaVuSerif-52" x="606.787109"/>
       <use xlink:href="#DejaVuSerif-41" x="682.080078"/>
       <use xlink:href="#DejaVuSerif-55" x="754.296875"/>
       <use xlink:href="#DejaVuSerif-48" x="838.574219"/>
       <use xlink:href="#DejaVuSerif-45" x="925.78125"/>
       <use xlink:href="#DejaVuSerif-30" x="998.779297"/>
       <use xlink:href="#DejaVuSerif-30" x="1062.402344"/>
       <use xlink:href="#DejaVuSerif-35" x="1126.025391"/>
      </g>
     </g>
    </g>
    <g id="xtick_5">
     <g id="line2d_9">
      <path d="M 436.057193 508.422772 
L 436.057193 101.592 
" clip-path="url(#p4fbd11d04e)" style="fill: none; stroke: #ffffff; stroke-width: 0.8; stroke-linecap: square"/>
     </g>
     <g id="line2d_10">
      <g>
       <use xlink:href="#m4ac87703a8" x="436.057193" y="508.422772" style="stroke: #000000; stroke-width: 0.8"/>
      </g>
     </g>
     <g id="text_5">
      <!-- 352 - V.GRD-UHE003 -->
      <g transform="translate(294.05517 606.377807) rotate(-30) scale(0.15 -0.15)">
       <defs>
        <path id="DejaVuSerif-56" d="M 1119 4331 
L 2497 750 
L 3872 4331 
L 3347 4331 
L 3347 4666 
L 4716 4666 
L 4716 4331 
L 4263 4331 
L 2597 0 
L 2059 0 
L 403 4331 
L -63 4331 
L -63 4666 
L 1638 4666 
L 1638 4331 
L 1119 4331 
z
" transform="scale(0.015625)"/>
        <path id="DejaVuSerif-44" d="M 1581 331 
L 2163 331 
Q 3072 331 3558 850 
Q 4044 1369 4044 2338 
Q 4044 3306 3559 3818 
Q 3075 4331 2163 4331 
L 1581 4331 
L 1581 331 
z
M 353 0 
L 353 331 
L 947 331 
L 947 4331 
L 353 4331 
L 353 4666 
L 2209 4666 
Q 3416 4666 4089 4050 
Q 4763 3434 4763 2338 
Q 4763 1238 4088 619 
Q 3413 0 2209 0 
L 353 0 
z
" transform="scale(0.015625)"/>
       </defs>
       <use xlink:href="#DejaVuSerif-33"/>
       <use xlink:href="#DejaVuSerif-35" x="63.623047"/>
       <use xlink:href="#DejaVuSerif-32" x="127.246094"/>
       <use xlink:href="#DejaVuSerif-20" x="190.869141"/>
       <use xlink:href="#DejaVuSerif-2d" x="222.65625"/>
       <use xlink:href="#DejaVuSerif-20" x="256.445312"/>
       <use xlink:href="#DejaVuSerif-56" x="288.232422"/>
       <use xlink:href="#DejaVuSerif-2e" x="342.949219"/>
       <use xlink:href="#DejaVuSerif-47" x="374.736328"/>
       <use xlink:href="#DejaVuSerif-52" x="454.619141"/>
       <use xlink:href="#DejaVuSerif-44" x="529.912109"/>
       <use xlink:href="#DejaVuSerif-2d" x="611.962891"/>
       <use xlink:href="#DejaVuSerif-55" x="645.751953"/>
       <use xlink:href="#DejaVuSerif-48" x="730.029297"/>
       <use xlink:href="#DejaVuSerif-45" x="817.236328"/>
       <use xlink:href="#DejaVuSerif-30" x="890.234375"/>
       <use xlink:href="#DejaVuSerif-30" x="953.857422"/>
       <use xlink:href="#DejaVuSerif-33" x="1017.480469"/>
      </g>
     </g>
    </g>
    <g id="xtick_6">
     <g id="line2d_11">
      <path d="M 501.306356 508.422772 
L 501.306356 101.592 
" clip-path="url(#p4fbd11d04e)" style="fill: none; stroke: #ffffff; stroke-width: 0.8; stroke-linecap: square"/>
     </g>
     <g id="line2d_12">
      <g>
       <use xlink:href="#m4ac87703a8" x="501.306356" y="508.422772" style="stroke: #000000; stroke-width: 0.8"/>
      </g>
     </g>
     <g id="text_6">
      <!-- 352 - T.MAR-UHE005 -->
      <g transform="translate(358.017474 607.120776) rotate(-30) scale(0.15 -0.15)">
       <defs>
        <path id="DejaVuSerif-54" d="M 1222 0 
L 1222 331 
L 1819 331 
L 1819 4294 
L 447 4294 
L 447 3566 
L 63 3566 
L 63 4666 
L 4206 4666 
L 4206 3566 
L 3822 3566 
L 3822 4294 
L 2450 4294 
L 2450 331 
L 3047 331 
L 3047 0 
L 1222 0 
z
" transform="scale(0.015625)"/>
       </defs>
       <use xlink:href="#DejaVuSerif-33"/>
       <use xlink:href="#DejaVuSerif-35" x="63.623047"/>
       <use xlink:href="#DejaVuSerif-32" x="127.246094"/>
       <use xlink:href="#DejaVuSerif-20" x="190.869141"/>
       <use xlink:href="#DejaVuSerif-2d" x="222.65625"/>
       <use xlink:href="#DejaVuSerif-20" x="256.445312"/>
       <use xlink:href="#DejaVuSerif-54" x="288.232422"/>
       <use xlink:href="#DejaVuSerif-2e" x="340.181641"/>
       <use xlink:href="#DejaVuSerif-4d" x="371.96875"/>
       <use xlink:href="#DejaVuSerif-41" x="474.361328"/>
       <use xlink:href="#DejaVuSerif-52" x="546.578125"/>
       <use xlink:href="#DejaVuSerif-2d" x="621.871094"/>
       <use xlink:href="#DejaVuSerif-55" x="655.660156"/>
       <use xlink:href="#DejaVuSerif-48" x="739.9375"/>
       <use xlink:href="#DejaVuSerif-45" x="827.144531"/>
       <use xlink:href="#DejaVuSerif-30" x="900.142578"/>
       <use xlink:href="#DejaVuSerif-30" x="963.765625"/>
       <use xlink:href="#DejaVuSerif-35" x="1027.388672"/>
      </g>
     </g>
    </g>
    <g id="xtick_7">
     <g id="line2d_13">
      <path d="M 566.55552 508.422772 
L 566.55552 101.592 
" clip-path="url(#p4fbd11d04e)" style="fill: none; stroke: #ffffff; stroke-width: 0.8; stroke-linecap: square"/>
     </g>
     <g id="line2d_14">
      <g>
       <use xlink:href="#m4ac87703a8" x="566.55552" y="508.422772" style="stroke: #000000; stroke-width: 0.8"/>
      </g>
     </g>
     <g id="text_7">
      <!-- 352 - FURNASSIN001 -->
      <g transform="translate(418.198359 610.046948) rotate(-30) scale(0.15 -0.15)">
       <use xlink:href="#DejaVuSerif-33"/>
       <use xlink:href="#DejaVuSerif-35" x="63.623047"/>
       <use xlink:href="#DejaVuSerif-32" x="127.246094"/>
       <use xlink:href="#DejaVuSerif-20" x="190.869141"/>
       <use xlink:href="#DejaVuSerif-2d" x="222.65625"/>
       <use xlink:href="#DejaVuSerif-20" x="256.445312"/>
       <use xlink:href="#DejaVuSerif-46" x="288.232422"/>
       <use xlink:href="#DejaVuSerif-55" x="357.617188"/>
       <use xlink:href="#DejaVuSerif-52" x="441.894531"/>
       <use xlink:href="#DejaVuSerif-4e" x="517.1875"/>
       <use xlink:href="#DejaVuSerif-41" x="604.6875"/>
       <use xlink:href="#DejaVuSerif-53" x="676.904297"/>
       <use xlink:href="#DejaVuSerif-53" x="743.660156"/>
       <use xlink:href="#DejaVuSerif-49" x="812.166016"/>
       <use xlink:href="#DejaVuSerif-4e" x="851.667969"/>
       <use xlink:href="#DejaVuSerif-30" x="939.167969"/>
       <use xlink:href="#DejaVuSerif-30" x="1002.791016"/>
       <use xlink:href="#DejaVuSerif-31" x="1066.414062"/>
      </g>
     </g>
    </g>
    <g id="xtick_8">
     <g id="line2d_15">
      <path d="M 631.804684 508.422772 
L 631.804684 101.592 
" clip-path="url(#p4fbd11d04e)" style="fill: none; stroke: #ffffff; stroke-width: 0.8; stroke-linecap: square"/>
     </g>
     <g id="line2d_16">
      <g>
       <use xlink:href="#m4ac87703a8" x="631.804684" y="508.422772" style="stroke: #000000; stroke-width: 0.8"/>
      </g>
     </g>
     <g id="text_8">
      <!-- 352 - IRAPE-UHE003 -->
      <g transform="translate(489.096309 606.78562) rotate(-30) scale(0.15 -0.15)">
       <defs>
        <path id="DejaVuSerif-50" d="M 1581 2375 
L 2406 2375 
Q 2872 2375 3115 2626 
Q 3359 2878 3359 3353 
Q 3359 3831 3115 4081 
Q 2872 4331 2406 4331 
L 1581 4331 
L 1581 2375 
z
M 353 0 
L 353 331 
L 947 331 
L 947 4331 
L 353 4331 
L 353 4666 
L 2559 4666 
Q 3259 4666 3668 4311 
Q 4078 3956 4078 3353 
Q 4078 2753 3668 2397 
Q 3259 2041 2559 2041 
L 1581 2041 
L 1581 331 
L 2303 331 
L 2303 0 
L 353 0 
z
" transform="scale(0.015625)"/>
       </defs>
       <use xlink:href="#DejaVuSerif-33"/>
       <use xlink:href="#DejaVuSerif-35" x="63.623047"/>
       <use xlink:href="#DejaVuSerif-32" x="127.246094"/>
       <use xlink:href="#DejaVuSerif-20" x="190.869141"/>
       <use xlink:href="#DejaVuSerif-2d" x="222.65625"/>
       <use xlink:href="#DejaVuSerif-20" x="256.445312"/>
       <use xlink:href="#DejaVuSerif-49" x="288.232422"/>
       <use xlink:href="#DejaVuSerif-52" x="327.734375"/>
       <use xlink:href="#DejaVuSerif-41" x="403.027344"/>
       <use xlink:href="#DejaVuSerif-50" x="475.244141"/>
       <use xlink:href="#DejaVuSerif-45" x="542.529297"/>
       <use xlink:href="#DejaVuSerif-2d" x="617.402344"/>
       <use xlink:href="#DejaVuSerif-55" x="651.191406"/>
       <use xlink:href="#DejaVuSerif-48" x="735.46875"/>
       <use xlink:href="#DejaVuSerif-45" x="822.675781"/>
       <use xlink:href="#DejaVuSerif-30" x="895.673828"/>
       <use xlink:href="#DejaVuSerif-30" x="959.296875"/>
       <use xlink:href="#DejaVuSerif-33" x="1022.919922"/>
      </g>
     </g>
    </g>
    <g id="xtick_9">
     <g id="line2d_17">
      <path d="M 697.053847 508.422772 
L 697.053847 101.592 
" clip-path="url(#p4fbd11d04e)" style="fill: none; stroke: #ffffff; stroke-width: 0.8; stroke-linecap: square"/>
     </g>
     <g id="line2d_18">
      <g>
       <use xlink:href="#m4ac87703a8" x="697.053847" y="508.422772" style="stroke: #000000; stroke-width: 0.8"/>
      </g>
     </g>
     <g id="text_9">
      <!-- 352 - VGRANDSIN000 -->
      <g transform="translate(547.156108 610.936401) rotate(-30) scale(0.15 -0.15)">
       <use xlink:href="#DejaVuSerif-33"/>
       <use xlink:href="#DejaVuSerif-35" x="63.623047"/>
       <use xlink:href="#DejaVuSerif-32" x="127.246094"/>
       <use xlink:href="#DejaVuSerif-20" x="190.869141"/>
       <use xlink:href="#DejaVuSerif-2d" x="222.65625"/>
       <use xlink:href="#DejaVuSerif-20" x="256.445312"/>
       <use xlink:href="#DejaVuSerif-56" x="288.232422"/>
       <use xlink:href="#DejaVuSerif-47" x="360.449219"/>
       <use xlink:href="#DejaVuSerif-52" x="440.332031"/>
       <use xlink:href="#DejaVuSerif-41" x="515.625"/>
       <use xlink:href="#DejaVuSerif-4e" x="587.841797"/>
       <use xlink:href="#DejaVuSerif-44" x="675.341797"/>
       <use xlink:href="#DejaVuSerif-53" x="755.517578"/>
       <use xlink:href="#DejaVuSerif-49" x="824.023438"/>
       <use xlink:href="#DejaVuSerif-4e" x="863.525391"/>
       <use xlink:href="#DejaVuSerif-30" x="951.025391"/>
       <use xlink:href="#DejaVuSerif-30" x="1014.648438"/>
       <use xlink:href="#DejaVuSerif-30" x="1078.271484"/>
      </g>
     </g>
    </g>
    <g id="xtick_10">
     <g id="line2d_19">
      <path d="M 762.303011 508.422772 
L 762.303011 101.592 
" clip-path="url(#p4fbd11d04e)" style="fill: none; stroke: #ffffff; stroke-width: 0.8; stroke-linecap: square"/>
     </g>
     <g id="line2d_20">
      <g>
       <use xlink:href="#m4ac87703a8" x="762.303011" y="508.422772" style="stroke: #000000; stroke-width: 0.8"/>
      </g>
     </g>
     <g id="text_10">
      <!-- 352 - IRAPE-SIN000 -->
      <g transform="translate(625.957893 603.111792) rotate(-30) scale(0.15 -0.15)">
       <use xlink:href="#DejaVuSerif-33"/>
       <use xlink:href="#DejaVuSerif-35" x="63.623047"/>
       <use xlink:href="#DejaVuSerif-32" x="127.246094"/>
       <use xlink:href="#DejaVuSerif-20" x="190.869141"/>
       <use xlink:href="#DejaVuSerif-2d" x="222.65625"/>
       <use xlink:href="#DejaVuSerif-20" x="256.445312"/>
       <use xlink:href="#DejaVuSerif-49" x="288.232422"/>
       <use xlink:href="#DejaVuSerif-52" x="327.734375"/>
       <use xlink:href="#DejaVuSerif-41" x="403.027344"/>
       <use xlink:href="#DejaVuSerif-50" x="475.244141"/>
       <use xlink:href="#DejaVuSerif-45" x="542.529297"/>
       <use xlink:href="#DejaVuSerif-2d" x="617.402344"/>
       <use xlink:href="#DejaVuSerif-53" x="651.191406"/>
       <use xlink:href="#DejaVuSerif-49" x="719.697266"/>
       <use xlink:href="#DejaVuSerif-4e" x="759.199219"/>
       <use xlink:href="#DejaVuSerif-30" x="846.699219"/>
       <use xlink:href="#DejaVuSerif-30" x="910.322266"/>
       <use xlink:href="#DejaVuSerif-30" x="973.945312"/>
      </g>
     </g>
    </g>
    <g id="xtick_11">
     <g id="line2d_21">
      <path d="M 827.552175 508.422772 
L 827.552175 101.592 
" clip-path="url(#p4fbd11d04e)" style="fill: none; stroke: #ffffff; stroke-width: 0.8; stroke-linecap: square"/>
     </g>
     <g id="line2d_22">
      <g>
       <use xlink:href="#m4ac87703a8" x="827.552175" y="508.422772" style="stroke: #000000; stroke-width: 0.8"/>
      </g>
     </g>
     <g id="text_11">
      <!-- 352 - L.SV1-UFV034 -->
      <g transform="translate(690.719917 603.393042) rotate(-30) scale(0.15 -0.15)">
       <defs>
        <path id="DejaVuSerif-4c" d="M 353 0 
L 353 331 
L 947 331 
L 947 4331 
L 353 4331 
L 353 4666 
L 2175 4666 
L 2175 4331 
L 1581 4331 
L 1581 384 
L 3713 384 
L 3713 1166 
L 4097 1166 
L 4097 0 
L 353 0 
z
" transform="scale(0.015625)"/>
        <path id="DejaVuSerif-34" d="M 2234 1581 
L 2234 4063 
L 641 1581 
L 2234 1581 
z
M 3609 0 
L 1484 0 
L 1484 331 
L 2234 331 
L 2234 1247 
L 197 1247 
L 197 1588 
L 2241 4750 
L 2859 4750 
L 2859 1581 
L 3750 1581 
L 3750 1247 
L 2859 1247 
L 2859 331 
L 3609 331 
L 3609 0 
z
" transform="scale(0.015625)"/>
       </defs>
       <use xlink:href="#DejaVuSerif-33"/>
       <use xlink:href="#DejaVuSerif-35" x="63.623047"/>
       <use xlink:href="#DejaVuSerif-32" x="127.246094"/>
       <use xlink:href="#DejaVuSerif-20" x="190.869141"/>
       <use xlink:href="#DejaVuSerif-2d" x="222.65625"/>
       <use xlink:href="#DejaVuSerif-20" x="256.445312"/>
       <use xlink:href="#DejaVuSerif-4c" x="288.232422"/>
       <use xlink:href="#DejaVuSerif-2e" x="354.638672"/>
       <use xlink:href="#DejaVuSerif-53" x="386.425781"/>
       <use xlink:href="#DejaVuSerif-56" x="454.931641"/>
       <use xlink:href="#DejaVuSerif-31" x="527.148438"/>
       <use xlink:href="#DejaVuSerif-2d" x="590.771484"/>
       <use xlink:href="#DejaVuSerif-55" x="624.560547"/>
       <use xlink:href="#DejaVuSerif-46" x="708.837891"/>
       <use xlink:href="#DejaVuSerif-56" x="778.222656"/>
       <use xlink:href="#DejaVuSerif-30" x="850.439453"/>
       <use xlink:href="#DejaVuSerif-33" x="914.0625"/>
       <use xlink:href="#DejaVuSerif-34" x="977.685547"/>
      </g>
     </g>
    </g>
    <g id="xtick_12">
     <g id="line2d_23">
      <path d="M 892.801338 508.422772 
L 892.801338 101.592 
" clip-path="url(#p4fbd11d04e)" style="fill: none; stroke: #ffffff; stroke-width: 0.8; stroke-linecap: square"/>
     </g>
     <g id="line2d_24">
      <g>
       <use xlink:href="#m4ac87703a8" x="892.801338" y="508.422772" style="stroke: #000000; stroke-width: 0.8"/>
      </g>
     </g>
     <g id="text_12">
      <!-- 352 - L.SV2-UFV034 -->
      <g transform="translate(755.969081 603.393042) rotate(-30) scale(0.15 -0.15)">
       <use xlink:href="#DejaVuSerif-33"/>
       <use xlink:href="#DejaVuSerif-35" x="63.623047"/>
       <use xlink:href="#DejaVuSerif-32" x="127.246094"/>
       <use xlink:href="#DejaVuSerif-20" x="190.869141"/>
       <use xlink:href="#DejaVuSerif-2d" x="222.65625"/>
       <use xlink:href="#DejaVuSerif-20" x="256.445312"/>
       <use xlink:href="#DejaVuSerif-4c" x="288.232422"/>
       <use xlink:href="#DejaVuSerif-2e" x="354.638672"/>
       <use xlink:href="#DejaVuSerif-53" x="386.425781"/>
       <use xlink:href="#DejaVuSerif-56" x="454.931641"/>
       <use xlink:href="#DejaVuSerif-32" x="527.148438"/>
       <use xlink:href="#DejaVuSerif-2d" x="590.771484"/>
       <use xlink:href="#DejaVuSerif-55" x="624.560547"/>
       <use xlink:href="#DejaVuSerif-46" x="708.837891"/>
       <use xlink:href="#DejaVuSerif-56" x="778.222656"/>
       <use xlink:href="#DejaVuSerif-30" x="850.439453"/>
       <use xlink:href="#DejaVuSerif-33" x="914.0625"/>
       <use xlink:href="#DejaVuSerif-34" x="977.685547"/>
      </g>
     </g>
    </g>
    <g id="xtick_13">
     <g id="line2d_25">
      <path d="M 958.050502 508.422772 
L 958.050502 101.592 
" clip-path="url(#p4fbd11d04e)" style="fill: none; stroke: #ffffff; stroke-width: 0.8; stroke-linecap: square"/>
     </g>
     <g id="line2d_26">
      <g>
       <use xlink:href="#m4ac87703a8" x="958.050502" y="508.422772" style="stroke: #000000; stroke-width: 0.8"/>
      </g>
     </g>
     <g id="text_13">
      <!-- 352 - HV1A5-UFV034 -->
      <g transform="translate(813.896947 607.619995) rotate(-30) scale(0.15 -0.15)">
       <use xlink:href="#DejaVuSerif-33"/>
       <use xlink:href="#DejaVuSerif-35" x="63.623047"/>
       <use xlink:href="#DejaVuSerif-32" x="127.246094"/>
       <use xlink:href="#DejaVuSerif-20" x="190.869141"/>
       <use xlink:href="#DejaVuSerif-2d" x="222.65625"/>
       <use xlink:href="#DejaVuSerif-20" x="256.445312"/>
       <use xlink:href="#DejaVuSerif-48" x="288.232422"/>
       <use xlink:href="#DejaVuSerif-56" x="375.439453"/>
       <use xlink:href="#DejaVuSerif-31" x="447.65625"/>
       <use xlink:href="#DejaVuSerif-41" x="511.279297"/>
       <use xlink:href="#DejaVuSerif-35" x="583.496094"/>
       <use xlink:href="#DejaVuSerif-2d" x="647.119141"/>
       <use xlink:href="#DejaVuSerif-55" x="680.908203"/>
       <use xlink:href="#DejaVuSerif-46" x="765.185547"/>
       <use xlink:href="#DejaVuSerif-56" x="834.570312"/>
       <use xlink:href="#DejaVuSerif-30" x="906.787109"/>
       <use xlink:href="#DejaVuSerif-33" x="970.410156"/>
       <use xlink:href="#DejaVuSerif-34" x="1034.033203"/>
      </g>
     </g>
    </g>
    <g id="text_14">
     <!-- Bus -->
     <g transform="translate(550.473254 634.136588) scale(0.17 -0.17)">
      <defs>
       <path id="DejaVuSerif-75" d="M 2266 3322 
L 3341 3322 
L 3341 331 
L 3884 331 
L 3884 0 
L 2766 0 
L 2766 588 
Q 2606 256 2353 82 
Q 2100 -91 1766 -91 
Q 1213 -91 952 223 
Q 691 538 691 1209 
L 691 2988 
L 172 2988 
L 172 3322 
L 1269 3322 
L 1269 1388 
Q 1269 781 1417 556 
Q 1566 331 1947 331 
Q 2347 331 2556 625 
Q 2766 919 2766 1478 
L 2766 2988 
L 2266 2988 
L 2266 3322 
z
" transform="scale(0.015625)"/>
       <path id="DejaVuSerif-73" d="M 359 184 
L 359 959 
L 691 959 
Q 703 588 923 403 
Q 1144 219 1575 219 
Q 1963 219 2166 364 
Q 2369 509 2369 788 
Q 2369 1006 2220 1140 
Q 2072 1275 1594 1428 
L 1178 1569 
Q 750 1706 558 1912 
Q 366 2119 366 2438 
Q 366 2894 700 3153 
Q 1034 3413 1625 3413 
Q 1888 3413 2178 3344 
Q 2469 3275 2778 3144 
L 2778 2419 
L 2447 2419 
Q 2434 2741 2221 2922 
Q 2009 3103 1644 3103 
Q 1281 3103 1095 2975 
Q 909 2847 909 2591 
Q 909 2381 1050 2254 
Q 1191 2128 1613 1997 
L 2069 1856 
Q 2541 1709 2748 1489 
Q 2956 1269 2956 922 
Q 2956 450 2595 179 
Q 2234 -91 1600 -91 
Q 1278 -91 972 -22 
Q 666 47 359 184 
z
" transform="scale(0.015625)"/>
      </defs>
      <use xlink:href="#DejaVuSerif-42"/>
      <use xlink:href="#DejaVuSerif-75" x="73.486328"/>
      <use xlink:href="#DejaVuSerif-73" x="137.890625"/>
     </g>
    </g>
   </g>
   <g id="matplotlib.axis_2">
    <g id="ytick_1">
     <g id="line2d_27">
      <path d="M 135.91104 489.930465 
L 997.2 489.930465 
" clip-path="url(#p4fbd11d04e)" style="fill: none; stroke: #ffffff; stroke-width: 0.8; stroke-linecap: square"/>
     </g>
     <g id="line2d_28">
      <defs>
       <path id="mf48f09d27f" d="M 0 0 
L -3.5 0 
" style="stroke: #000000; stroke-width: 0.8"/>
      </defs>
      <g>
       <use xlink:href="#mf48f09d27f" x="135.91104" y="489.930465" style="stroke: #000000; stroke-width: 0.8"/>
      </g>
     </g>
     <g id="text_15">
      <!-- 0.0 -->
      <g transform="translate(105.056353 495.629293) scale(0.15 -0.15)">
       <use xlink:href="#DejaVuSerif-30"/>
       <use xlink:href="#DejaVuSerif-2e" x="63.623047"/>
       <use xlink:href="#DejaVuSerif-30" x="95.410156"/>
      </g>
     </g>
    </g>
    <g id="ytick_2">
     <g id="line2d_29">
      <path d="M 135.91104 417.60561 
L 997.2 417.60561 
" clip-path="url(#p4fbd11d04e)" style="fill: none; stroke: #ffffff; stroke-width: 0.8; stroke-linecap: square"/>
     </g>
     <g id="line2d_30">
      <g>
       <use xlink:href="#mf48f09d27f" x="135.91104" y="417.60561" style="stroke: #000000; stroke-width: 0.8"/>
      </g>
     </g>
     <g id="text_16">
      <!-- 0.2 -->
      <g transform="translate(105.056353 423.304438) scale(0.15 -0.15)">
       <use xlink:href="#DejaVuSerif-30"/>
       <use xlink:href="#DejaVuSerif-2e" x="63.623047"/>
       <use xlink:href="#DejaVuSerif-32" x="95.410156"/>
      </g>
     </g>
    </g>
    <g id="ytick_3">
     <g id="line2d_31">
      <path d="M 135.91104 345.280754 
L 997.2 345.280754 
" clip-path="url(#p4fbd11d04e)" style="fill: none; stroke: #ffffff; stroke-width: 0.8; stroke-linecap: square"/>
     </g>
     <g id="line2d_32">
      <g>
       <use xlink:href="#mf48f09d27f" x="135.91104" y="345.280754" style="stroke: #000000; stroke-width: 0.8"/>
      </g>
     </g>
     <g id="text_17">
      <!-- 0.4 -->
      <g transform="translate(105.056353 350.979583) scale(0.15 -0.15)">
       <use xlink:href="#DejaVuSerif-30"/>
       <use xlink:href="#DejaVuSerif-2e" x="63.623047"/>
       <use xlink:href="#DejaVuSerif-34" x="95.410156"/>
      </g>
     </g>
    </g>
    <g id="ytick_4">
     <g id="line2d_33">
      <path d="M 135.91104 272.955899 
L 997.2 272.955899 
" clip-path="url(#p4fbd11d04e)" style="fill: none; stroke: #ffffff; stroke-width: 0.8; stroke-linecap: square"/>
     </g>
     <g id="line2d_34">
      <g>
       <use xlink:href="#mf48f09d27f" x="135.91104" y="272.955899" style="stroke: #000000; stroke-width: 0.8"/>
      </g>
     </g>
     <g id="text_18">
      <!-- 0.6 -->
      <g transform="translate(105.056353 278.654727) scale(0.15 -0.15)">
       <use xlink:href="#DejaVuSerif-30"/>
       <use xlink:href="#DejaVuSerif-2e" x="63.623047"/>
       <use xlink:href="#DejaVuSerif-36" x="95.410156"/>
      </g>
     </g>
    </g>
    <g id="ytick_5">
     <g id="line2d_35">
      <path d="M 135.91104 200.631044 
L 997.2 200.631044 
" clip-path="url(#p4fbd11d04e)" style="fill: none; stroke: #ffffff; stroke-width: 0.8; stroke-linecap: square"/>
     </g>
     <g id="line2d_36">
      <g>
       <use xlink:href="#mf48f09d27f" x="135.91104" y="200.631044" style="stroke: #000000; stroke-width: 0.8"/>
      </g>
     </g>
     <g id="text_19">
      <!-- 0.8 -->
      <g transform="translate(105.056353 206.329872) scale(0.15 -0.15)">
       <defs>
        <path id="DejaVuSerif-38" d="M 2981 1275 
Q 2981 1775 2732 2051 
Q 2484 2328 2034 2328 
Q 1584 2328 1336 2051 
Q 1088 1775 1088 1275 
Q 1088 772 1336 495 
Q 1584 219 2034 219 
Q 2484 219 2732 495 
Q 2981 772 2981 1275 
z
M 2853 3541 
Q 2853 3966 2637 4203 
Q 2422 4441 2034 4441 
Q 1650 4441 1433 4203 
Q 1216 3966 1216 3541 
Q 1216 3113 1433 2875 
Q 1650 2638 2034 2638 
Q 2422 2638 2637 2875 
Q 2853 3113 2853 3541 
z
M 2516 2484 
Q 3047 2413 3344 2092 
Q 3641 1772 3641 1275 
Q 3641 619 3225 264 
Q 2809 -91 2034 -91 
Q 1263 -91 845 264 
Q 428 619 428 1275 
Q 428 1772 725 2092 
Q 1022 2413 1556 2484 
Q 1084 2569 832 2842 
Q 581 3116 581 3541 
Q 581 4103 968 4426 
Q 1356 4750 2034 4750 
Q 2713 4750 3100 4426 
Q 3488 4103 3488 3541 
Q 3488 3116 3236 2842 
Q 2984 2569 2516 2484 
z
" transform="scale(0.015625)"/>
       </defs>
       <use xlink:href="#DejaVuSerif-30"/>
       <use xlink:href="#DejaVuSerif-2e" x="63.623047"/>
       <use xlink:href="#DejaVuSerif-38" x="95.410156"/>
      </g>
     </g>
    </g>
    <g id="ytick_6">
     <g id="line2d_37">
      <path d="M 135.91104 128.306189 
L 997.2 128.306189 
" clip-path="url(#p4fbd11d04e)" style="fill: none; stroke: #ffffff; stroke-width: 0.8; stroke-linecap: square"/>
     </g>
     <g id="line2d_38">
      <g>
       <use xlink:href="#mf48f09d27f" x="135.91104" y="128.306189" style="stroke: #000000; stroke-width: 0.8"/>
      </g>
     </g>
     <g id="text_20">
      <!-- 1.0 -->
      <g transform="translate(105.056353 134.005017) scale(0.15 -0.15)">
       <use xlink:href="#DejaVuSerif-31"/>
       <use xlink:href="#DejaVuSerif-2e" x="63.623047"/>
       <use xlink:href="#DejaVuSerif-30" x="95.410156"/>
      </g>
     </g>
    </g>
    <g id="text_21">
     <!-- Average Index (p.u) -->
     <g transform="translate(97.279165 389.992777) rotate(-90) scale(0.17 -0.17)">
      <defs>
       <path id="DejaVuSerif-76" d="M 1581 0 
L 359 2988 
L -19 2988 
L -19 3322 
L 1509 3322 
L 1509 2988 
L 978 2988 
L 1913 703 
L 2847 2988 
L 2350 2988 
L 2350 3322 
L 3597 3322 
L 3597 2988 
L 3225 2988 
L 2003 0 
L 1581 0 
z
" transform="scale(0.015625)"/>
       <path id="DejaVuSerif-65" d="M 3469 1600 
L 991 1600 
L 991 1575 
Q 991 903 1244 561 
Q 1497 219 1991 219 
Q 2369 219 2611 417 
Q 2853 616 2950 1006 
L 3413 1006 
Q 3275 459 2904 184 
Q 2534 -91 1931 -91 
Q 1203 -91 761 389 
Q 319 869 319 1663 
Q 319 2450 753 2931 
Q 1188 3413 1894 3413 
Q 2647 3413 3050 2948 
Q 3453 2484 3469 1600 
z
M 2791 1931 
Q 2772 2513 2545 2808 
Q 2319 3103 1894 3103 
Q 1497 3103 1269 2806 
Q 1041 2509 991 1931 
L 2791 1931 
z
" transform="scale(0.015625)"/>
       <path id="DejaVuSerif-72" d="M 3059 3328 
L 3059 2497 
L 2728 2497 
Q 2713 2744 2591 2866 
Q 2469 2988 2234 2988 
Q 1809 2988 1582 2694 
Q 1356 2400 1356 1850 
L 1356 331 
L 2022 331 
L 2022 0 
L 263 0 
L 263 331 
L 781 331 
L 781 2994 
L 231 2994 
L 231 3322 
L 1356 3322 
L 1356 2731 
Q 1525 3078 1790 3245 
Q 2056 3413 2438 3413 
Q 2578 3413 2733 3391 
Q 2888 3369 3059 3328 
z
" transform="scale(0.015625)"/>
       <path id="DejaVuSerif-61" d="M 2547 1044 
L 2547 1747 
L 1806 1747 
Q 1378 1747 1168 1562 
Q 959 1378 959 997 
Q 959 650 1171 447 
Q 1384 244 1747 244 
Q 2106 244 2326 466 
Q 2547 688 2547 1044 
z
M 3122 2075 
L 3122 331 
L 3634 331 
L 3634 0 
L 2547 0 
L 2547 359 
Q 2356 128 2106 18 
Q 1856 -91 1522 -91 
Q 969 -91 644 203 
Q 319 497 319 997 
Q 319 1513 691 1797 
Q 1063 2081 1741 2081 
L 2547 2081 
L 2547 2309 
Q 2547 2688 2317 2895 
Q 2088 3103 1672 3103 
Q 1328 3103 1125 2947 
Q 922 2791 872 2484 
L 575 2484 
L 575 3156 
Q 875 3284 1158 3348 
Q 1441 3413 1709 3413 
Q 2400 3413 2761 3070 
Q 3122 2728 3122 2075 
z
" transform="scale(0.015625)"/>
       <path id="DejaVuSerif-67" d="M 3359 2988 
L 3359 72 
Q 3359 -644 2965 -1033 
Q 2572 -1422 1844 -1422 
Q 1516 -1422 1216 -1362 
Q 916 -1303 641 -1184 
L 641 -488 
L 941 -488 
Q 997 -813 1206 -963 
Q 1416 -1113 1806 -1113 
Q 2313 -1113 2548 -827 
Q 2784 -541 2784 72 
L 2784 519 
Q 2616 206 2355 57 
Q 2094 -91 1709 -91 
Q 1097 -91 708 395 
Q 319 881 319 1663 
Q 319 2444 706 2928 
Q 1094 3413 1709 3413 
Q 2094 3413 2355 3264 
Q 2616 3116 2784 2803 
L 2784 3322 
L 3909 3322 
L 3909 2988 
L 3359 2988 
z
M 2784 1825 
Q 2784 2422 2554 2737 
Q 2325 3053 1888 3053 
Q 1444 3053 1217 2703 
Q 991 2353 991 1663 
Q 991 975 1217 622 
Q 1444 269 1888 269 
Q 2325 269 2554 583 
Q 2784 897 2784 1497 
L 2784 1825 
z
" transform="scale(0.015625)"/>
       <path id="DejaVuSerif-6e" d="M 263 0 
L 263 331 
L 781 331 
L 781 2988 
L 231 2988 
L 231 3322 
L 1356 3322 
L 1356 2731 
Q 1516 3069 1770 3241 
Q 2025 3413 2363 3413 
Q 2913 3413 3172 3097 
Q 3431 2781 3431 2113 
L 3431 331 
L 3944 331 
L 3944 0 
L 2356 0 
L 2356 331 
L 2853 331 
L 2853 1931 
Q 2853 2541 2703 2767 
Q 2553 2994 2175 2994 
Q 1775 2994 1565 2701 
Q 1356 2409 1356 1850 
L 1356 331 
L 1856 331 
L 1856 0 
L 263 0 
z
" transform="scale(0.015625)"/>
       <path id="DejaVuSerif-64" d="M 3359 331 
L 3909 331 
L 3909 0 
L 2784 0 
L 2784 519 
Q 2616 206 2355 57 
Q 2094 -91 1709 -91 
Q 1097 -91 708 395 
Q 319 881 319 1663 
Q 319 2444 706 2928 
Q 1094 3413 1709 3413 
Q 2094 3413 2355 3264 
Q 2616 3116 2784 2803 
L 2784 4531 
L 2241 4531 
L 2241 4863 
L 3359 4863 
L 3359 331 
z
M 2784 1497 
L 2784 1825 
Q 2784 2422 2554 2737 
Q 2325 3053 1888 3053 
Q 1444 3053 1217 2703 
Q 991 2353 991 1663 
Q 991 975 1217 622 
Q 1444 269 1888 269 
Q 2325 269 2554 583 
Q 2784 897 2784 1497 
z
" transform="scale(0.015625)"/>
       <path id="DejaVuSerif-78" d="M 1863 2028 
L 2559 2988 
L 2113 2988 
L 2113 3322 
L 3391 3322 
L 3391 2988 
L 2950 2988 
L 2059 1759 
L 3097 331 
L 3531 331 
L 3531 0 
L 1997 0 
L 1997 331 
L 2419 331 
L 1697 1325 
L 972 331 
L 1403 331 
L 1403 0 
L 141 0 
L 141 331 
L 581 331 
L 1497 1594 
L 488 2988 
L 78 2988 
L 78 3322 
L 1563 3322 
L 1563 2988 
L 1166 2988 
L 1863 2028 
z
" transform="scale(0.015625)"/>
       <path id="DejaVuSerif-28" d="M 2041 -997 
Q 1281 -656 893 83 
Q 506 822 506 1931 
Q 506 3044 893 3783 
Q 1281 4522 2041 4863 
L 2041 4556 
Q 1559 4225 1350 3623 
Q 1141 3022 1141 1931 
Q 1141 844 1350 242 
Q 1559 -359 2041 -691 
L 2041 -997 
z
" transform="scale(0.015625)"/>
       <path id="DejaVuSerif-70" d="M 1313 1825 
L 1313 1497 
Q 1313 897 1542 583 
Q 1772 269 2209 269 
Q 2650 269 2876 622 
Q 3103 975 3103 1663 
Q 3103 2353 2876 2703 
Q 2650 3053 2209 3053 
Q 1772 3053 1542 2737 
Q 1313 2422 1313 1825 
z
M 738 2988 
L 184 2988 
L 184 3322 
L 1313 3322 
L 1313 2803 
Q 1481 3116 1742 3264 
Q 2003 3413 2388 3413 
Q 3000 3413 3387 2928 
Q 3775 2444 3775 1663 
Q 3775 881 3387 395 
Q 3000 -91 2388 -91 
Q 2003 -91 1742 57 
Q 1481 206 1313 519 
L 1313 -997 
L 1856 -997 
L 1856 -1331 
L 184 -1331 
L 184 -997 
L 738 -997 
L 738 2988 
z
" transform="scale(0.015625)"/>
       <path id="DejaVuSerif-29" d="M 453 -997 
L 453 -691 
Q 934 -359 1145 242 
Q 1356 844 1356 1931 
Q 1356 3022 1145 3623 
Q 934 4225 453 4556 
L 453 4863 
Q 1216 4522 1603 3783 
Q 1991 3044 1991 1931 
Q 1991 822 1603 83 
Q 1216 -656 453 -997 
z
" transform="scale(0.015625)"/>
      </defs>
      <use xlink:href="#DejaVuSerif-41"/>
      <use xlink:href="#DejaVuSerif-76" x="68.216797"/>
      <use xlink:href="#DejaVuSerif-65" x="124.710938"/>
      <use xlink:href="#DejaVuSerif-72" x="183.890625"/>
      <use xlink:href="#DejaVuSerif-61" x="231.693359"/>
      <use xlink:href="#DejaVuSerif-67" x="291.3125"/>
      <use xlink:href="#DejaVuSerif-65" x="355.326172"/>
      <use xlink:href="#DejaVuSerif-20" x="414.505859"/>
      <use xlink:href="#DejaVuSerif-49" x="446.292969"/>
      <use xlink:href="#DejaVuSerif-6e" x="485.794922"/>
      <use xlink:href="#DejaVuSerif-64" x="550.199219"/>
      <use xlink:href="#DejaVuSerif-65" x="614.212891"/>
      <use xlink:href="#DejaVuSerif-78" x="673.392578"/>
      <use xlink:href="#DejaVuSerif-20" x="729.789062"/>
      <use xlink:href="#DejaVuSerif-28" x="761.576172"/>
      <use xlink:href="#DejaVuSerif-70" x="800.589844"/>
      <use xlink:href="#DejaVuSerif-2e" x="864.603516"/>
      <use xlink:href="#DejaVuSerif-75" x="896.390625"/>
      <use xlink:href="#DejaVuSerif-29" x="960.794922"/>
     </g>
    </g>
   </g>
   <g id="PolyCollection_1">
    <defs>
     <path id="m3eb5edcc13" d="M 175.060538 -519.693811 
L 175.060538 -444.526593 
L 240.309702 -366.988919 
L 305.558865 -408.893933 
L 370.808029 -158.069535 
L 436.057193 -325.693231 
L 501.306356 -158.069535 
L 566.55552 -281.110388 
L 631.804684 -158.069535 
L 697.053847 -158.069535 
L 762.303011 -158.069535 
L 827.552175 -158.069535 
L 892.801338 -158.069535 
L 958.050502 -158.069535 
L 958.050502 -158.069535 
L 958.050502 -158.069535 
L 892.801338 -158.069535 
L 827.552175 -158.069535 
L 762.303011 -420.570794 
L 697.053847 -371.268736 
L 631.804684 -516.762842 
L 566.55552 -497.877014 
L 501.306356 -519.693811 
L 436.057193 -519.693811 
L 370.808029 -519.693811 
L 305.558865 -519.693811 
L 240.309702 -519.693811 
L 175.060538 -519.693811 
z
" style="stroke: #ffa500; stroke-opacity: 0.2; stroke-width: 0.5"/>
    </defs>
    <g clip-path="url(#p4fbd11d04e)">
     <use xlink:href="#m3eb5edcc13" x="0" y="648" style="fill: #ffa500; fill-opacity: 0.2; stroke: #ffa500; stroke-opacity: 0.2; stroke-width: 0.5"/>
    </g>
   </g>
   <g id="PolyCollection_2">
    <defs>
     <path id="m7127a558a8" d="M 175.060538 -158.069535 
L 175.060538 -158.069535 
L 240.309702 -158.069535 
L 305.558865 -158.069535 
L 370.808029 -158.069535 
L 436.057193 -158.069535 
L 501.306356 -158.069535 
L 566.55552 -158.069535 
L 631.804684 -158.069535 
L 697.053847 -158.069535 
L 762.303011 -158.069535 
L 827.552175 -158.069535 
L 892.801338 -158.069535 
L 958.050502 -158.069535 
L 958.050502 -158.069535 
L 958.050502 -158.069535 
L 892.801338 -158.069535 
L 827.552175 -158.069535 
L 762.303011 -158.069535 
L 697.053847 -158.069535 
L 631.804684 -158.069535 
L 566.55552 -158.069535 
L 501.306356 -158.069535 
L 436.057193 -158.069535 
L 370.808029 -158.069535 
L 305.558865 -158.069535 
L 240.309702 -158.069535 
L 175.060538 -158.069535 
z
" style="stroke: #800080; stroke-opacity: 0.2; stroke-width: 0.5"/>
    </defs>
    <g clip-path="url(#p4fbd11d04e)">
     <use xlink:href="#m7127a558a8" x="0" y="648" style="fill: #800080; fill-opacity: 0.2; stroke: #800080; stroke-opacity: 0.2; stroke-width: 0.5"/>
    </g>
   </g>
   <g id="PolyCollection_3">
    <defs>
     <path id="mab375dee1c" d="M 175.060538 -158.069535 
L 175.060538 -158.069535 
L 240.309702 -158.069535 
L 305.558865 -171.521235 
L 370.808029 -158.069535 
L 436.057193 -158.069535 
L 501.306356 -158.069535 
L 566.55552 -158.069535 
L 631.804684 -158.069535 
L 697.053847 -158.069535 
L 762.303011 -158.069535 
L 827.552175 -158.069535 
L 892.801338 -158.069535 
L 958.050502 -158.069535 
L 958.050502 -347.696984 
L 958.050502 -347.696984 
L 892.801338 -442.150352 
L 827.552175 -453.068152 
L 762.303011 -488.034325 
L 697.053847 -158.069535 
L 631.804684 -527.915692 
L 566.55552 -519.936103 
L 501.306356 -213.84321 
L 436.057193 -158.069535 
L 370.808029 -158.069535 
L 305.558865 -349.906876 
L 240.309702 -301.314698 
L 175.060538 -158.069535 
z
" style="stroke: #0000ff; stroke-opacity: 0.2; stroke-width: 0.5"/>
    </defs>
    <g clip-path="url(#p4fbd11d04e)">
     <use xlink:href="#mab375dee1c" x="0" y="648" style="fill: #0000ff; fill-opacity: 0.2; stroke: #0000ff; stroke-opacity: 0.2; stroke-width: 0.5"/>
    </g>
   </g>
   <g id="PolyCollection_4">
    <defs>
     <path id="mf2e5d10242" d="M 175.060538 -158.069535 
L 175.060538 -158.069535 
L 240.309702 -158.069535 
L 305.558865 -158.069535 
L 370.808029 -158.069535 
L 436.057193 -158.069535 
L 501.306356 -158.069535 
L 566.55552 -158.069535 
L 631.804684 -158.069535 
L 697.053847 -158.069535 
L 762.303011 -158.069535 
L 827.552175 -158.069535 
L 892.801338 -158.069535 
L 958.050502 -158.069535 
L 958.050502 -158.069535 
L 958.050502 -158.069535 
L 892.801338 -158.069535 
L 827.552175 -158.069535 
L 762.303011 -158.069535 
L 697.053847 -158.069535 
L 631.804684 -158.069535 
L 566.55552 -158.069535 
L 501.306356 -158.069535 
L 436.057193 -158.069535 
L 370.808029 -328.857089 
L 305.558865 -158.069535 
L 240.309702 -158.069535 
L 175.060538 -158.069535 
z
" style="stroke: #008000; stroke-opacity: 0.2; stroke-width: 0.5"/>
    </defs>
    <g clip-path="url(#p4fbd11d04e)">
     <use xlink:href="#mf2e5d10242" x="0" y="648" style="fill: #008000; fill-opacity: 0.2; stroke: #008000; stroke-opacity: 0.2; stroke-width: 0.5"/>
    </g>
   </g>
   <g id="line2d_39">
    <path d="M 175.060538 143.964138 
L 240.309702 146.766041 
L 305.558865 150.768887 
L 370.808029 169.487994 
L 436.057193 187.372879 
L 501.306356 191.336536 
L 566.55552 253.377211 
L 631.804684 299.158876 
L 697.053847 399.00302 
L 762.303011 432.729788 
L 827.552175 489.930465 
L 892.801338 489.930465 
L 958.050502 489.930465 
" clip-path="url(#p4fbd11d04e)" style="fill: none; stroke: #ffa500; stroke-width: 1.5; stroke-linecap: square"/>
    <defs>
     <path id="mac66de0848" d="M 0 -6 
L -6 6 
L 6 6 
z
" style="stroke: #ffa500; stroke-width: 2; stroke-linejoin: miter"/>
    </defs>
    <g clip-path="url(#p4fbd11d04e)">
     <use xlink:href="#mac66de0848" x="175.060538" y="143.964138" style="fill-opacity: 0; stroke: #ffa500; stroke-width: 2; stroke-linejoin: miter"/>
     <use xlink:href="#mac66de0848" x="240.309702" y="146.766041" style="fill-opacity: 0; stroke: #ffa500; stroke-width: 2; stroke-linejoin: miter"/>
     <use xlink:href="#mac66de0848" x="305.558865" y="150.768887" style="fill-opacity: 0; stroke: #ffa500; stroke-width: 2; stroke-linejoin: miter"/>
     <use xlink:href="#mac66de0848" x="370.808029" y="169.487994" style="fill-opacity: 0; stroke: #ffa500; stroke-width: 2; stroke-linejoin: miter"/>
     <use xlink:href="#mac66de0848" x="436.057193" y="187.372879" style="fill-opacity: 0; stroke: #ffa500; stroke-width: 2; stroke-linejoin: miter"/>
     <use xlink:href="#mac66de0848" x="501.306356" y="191.336536" style="fill-opacity: 0; stroke: #ffa500; stroke-width: 2; stroke-linejoin: miter"/>
     <use xlink:href="#mac66de0848" x="566.55552" y="253.377211" style="fill-opacity: 0; stroke: #ffa500; stroke-width: 2; stroke-linejoin: miter"/>
     <use xlink:href="#mac66de0848" x="631.804684" y="299.158876" style="fill-opacity: 0; stroke: #ffa500; stroke-width: 2; stroke-linejoin: miter"/>
     <use xlink:href="#mac66de0848" x="697.053847" y="399.00302" style="fill-opacity: 0; stroke: #ffa500; stroke-width: 2; stroke-linejoin: miter"/>
     <use xlink:href="#mac66de0848" x="762.303011" y="432.729788" style="fill-opacity: 0; stroke: #ffa500; stroke-width: 2; stroke-linejoin: miter"/>
     <use xlink:href="#mac66de0848" x="827.552175" y="489.930465" style="fill-opacity: 0; stroke: #ffa500; stroke-width: 2; stroke-linejoin: miter"/>
     <use xlink:href="#mac66de0848" x="892.801338" y="489.930465" style="fill-opacity: 0; stroke: #ffa500; stroke-width: 2; stroke-linejoin: miter"/>
     <use xlink:href="#mac66de0848" x="958.050502" y="489.930465" style="fill-opacity: 0; stroke: #ffa500; stroke-width: 2; stroke-linejoin: miter"/>
    </g>
   </g>
   <g id="line2d_40">
    <path d="M 175.060538 489.930465 
L 240.309702 489.930465 
L 305.558865 489.930465 
L 370.808029 489.930465 
L 436.057193 489.907461 
L 501.306356 489.930465 
L 566.55552 489.930465 
L 631.804684 489.930465 
L 697.053847 489.930465 
L 762.303011 489.930465 
L 827.552175 489.930465 
L 892.801338 489.930465 
L 958.050502 489.930465 
" clip-path="url(#p4fbd11d04e)" style="fill: none; stroke-dasharray: 6,2.25; stroke-dashoffset: 0; stroke: #800080; stroke-width: 1.5"/>
    <defs>
     <path id="m7f077bb065" d="M 0 -6 
L -6 6 
L 6 6 
z
" style="stroke: #800080; stroke-width: 2; stroke-linejoin: miter"/>
    </defs>
    <g clip-path="url(#p4fbd11d04e)">
     <use xlink:href="#m7f077bb065" x="175.060538" y="489.930465" style="fill-opacity: 0; stroke: #800080; stroke-width: 2; stroke-linejoin: miter"/>
     <use xlink:href="#m7f077bb065" x="240.309702" y="489.930465" style="fill-opacity: 0; stroke: #800080; stroke-width: 2; stroke-linejoin: miter"/>
     <use xlink:href="#m7f077bb065" x="305.558865" y="489.930465" style="fill-opacity: 0; stroke: #800080; stroke-width: 2; stroke-linejoin: miter"/>
     <use xlink:href="#m7f077bb065" x="370.808029" y="489.930465" style="fill-opacity: 0; stroke: #800080; stroke-width: 2; stroke-linejoin: miter"/>
     <use xlink:href="#m7f077bb065" x="436.057193" y="489.907461" style="fill-opacity: 0; stroke: #800080; stroke-width: 2; stroke-linejoin: miter"/>
     <use xlink:href="#m7f077bb065" x="501.306356" y="489.930465" style="fill-opacity: 0; stroke: #800080; stroke-width: 2; stroke-linejoin: miter"/>
     <use xlink:href="#m7f077bb065" x="566.55552" y="489.930465" style="fill-opacity: 0; stroke: #800080; stroke-width: 2; stroke-linejoin: miter"/>
     <use xlink:href="#m7f077bb065" x="631.804684" y="489.930465" style="fill-opacity: 0; stroke: #800080; stroke-width: 2; stroke-linejoin: miter"/>
     <use xlink:href="#m7f077bb065" x="697.053847" y="489.930465" style="fill-opacity: 0; stroke: #800080; stroke-width: 2; stroke-linejoin: miter"/>
     <use xlink:href="#m7f077bb065" x="762.303011" y="489.930465" style="fill-opacity: 0; stroke: #800080; stroke-width: 2; stroke-linejoin: miter"/>
     <use xlink:href="#m7f077bb065" x="827.552175" y="489.930465" style="fill-opacity: 0; stroke: #800080; stroke-width: 2; stroke-linejoin: miter"/>
     <use xlink:href="#m7f077bb065" x="892.801338" y="489.930465" style="fill-opacity: 0; stroke: #800080; stroke-width: 2; stroke-linejoin: miter"/>
     <use xlink:href="#m7f077bb065" x="958.050502" y="489.930465" style="fill-opacity: 0; stroke: #800080; stroke-width: 2; stroke-linejoin: miter"/>
    </g>
   </g>
   <g id="line2d_41">
    <path d="M 175.060538 489.930465 
L 240.309702 419.22178 
L 305.558865 408.419372 
L 370.808029 489.930465 
L 436.057193 489.930465 
L 501.306356 476.924844 
L 566.55552 304.194069 
L 631.804684 287.20893 
L 697.053847 489.930465 
L 762.303011 423.614868 
L 827.552175 391.816605 
L 892.801338 379.146113 
L 958.050502 439.856099 
" clip-path="url(#p4fbd11d04e)" style="fill: none; stroke-dasharray: 1.5,1.5; stroke-dashoffset: 0; stroke: #0000ff; stroke-width: 1.5"/>
    <defs>
     <path id="m4740e4e095" d="M 0 6 
C 1.591219 6 3.117479 5.367802 4.242641 4.242641 
C 5.367802 3.117479 6 1.591219 6 0 
C 6 -1.591219 5.367802 -3.117479 4.242641 -4.242641 
C 3.117479 -5.367802 1.591219 -6 0 -6 
C -1.591219 -6 -3.117479 -5.367802 -4.242641 -4.242641 
C -5.367802 -3.117479 -6 -1.591219 -6 0 
C -6 1.591219 -5.367802 3.117479 -4.242641 4.242641 
C -3.117479 5.367802 -1.591219 6 0 6 
z
" style="stroke: #0000ff; stroke-width: 2"/>
    </defs>
    <g clip-path="url(#p4fbd11d04e)">
     <use xlink:href="#m4740e4e095" x="175.060538" y="489.930465" style="fill-opacity: 0; stroke: #0000ff; stroke-width: 2"/>
     <use xlink:href="#m4740e4e095" x="240.309702" y="419.22178" style="fill-opacity: 0; stroke: #0000ff; stroke-width: 2"/>
     <use xlink:href="#m4740e4e095" x="305.558865" y="408.419372" style="fill-opacity: 0; stroke: #0000ff; stroke-width: 2"/>
     <use xlink:href="#m4740e4e095" x="370.808029" y="489.930465" style="fill-opacity: 0; stroke: #0000ff; stroke-width: 2"/>
     <use xlink:href="#m4740e4e095" x="436.057193" y="489.930465" style="fill-opacity: 0; stroke: #0000ff; stroke-width: 2"/>
     <use xlink:href="#m4740e4e095" x="501.306356" y="476.924844" style="fill-opacity: 0; stroke: #0000ff; stroke-width: 2"/>
     <use xlink:href="#m4740e4e095" x="566.55552" y="304.194069" style="fill-opacity: 0; stroke: #0000ff; stroke-width: 2"/>
     <use xlink:href="#m4740e4e095" x="631.804684" y="287.20893" style="fill-opacity: 0; stroke: #0000ff; stroke-width: 2"/>
     <use xlink:href="#m4740e4e095" x="697.053847" y="489.930465" style="fill-opacity: 0; stroke: #0000ff; stroke-width: 2"/>
     <use xlink:href="#m4740e4e095" x="762.303011" y="423.614868" style="fill-opacity: 0; stroke: #0000ff; stroke-width: 2"/>
     <use xlink:href="#m4740e4e095" x="827.552175" y="391.816605" style="fill-opacity: 0; stroke: #0000ff; stroke-width: 2"/>
     <use xlink:href="#m4740e4e095" x="892.801338" y="379.146113" style="fill-opacity: 0; stroke: #0000ff; stroke-width: 2"/>
     <use xlink:href="#m4740e4e095" x="958.050502" y="439.856099" style="fill-opacity: 0; stroke: #0000ff; stroke-width: 2"/>
    </g>
   </g>
   <g id="line2d_42">
    <path d="M 175.060538 489.930465 
L 240.309702 489.930465 
L 305.558865 489.930465 
L 370.808029 477.211543 
L 436.057193 489.930465 
L 501.306356 489.930465 
L 566.55552 489.930465 
L 631.804684 489.930465 
L 697.053847 489.930465 
L 762.303011 489.930465 
L 827.552175 489.930465 
L 892.801338 489.930465 
L 958.050502 488.634461 
" clip-path="url(#p4fbd11d04e)" style="fill: none; stroke-dasharray: 4.5,1.875,2.25,1.875; stroke-dashoffset: 0; stroke: #008000; stroke-width: 1.5"/>
    <defs>
     <path id="mf873f5ccda" d="M 0 6 
C 1.591219 6 3.117479 5.367802 4.242641 4.242641 
C 5.367802 3.117479 6 1.591219 6 0 
C 6 -1.591219 5.367802 -3.117479 4.242641 -4.242641 
C 3.117479 -5.367802 1.591219 -6 0 -6 
C -1.591219 -6 -3.117479 -5.367802 -4.242641 -4.242641 
C -5.367802 -3.117479 -6 -1.591219 -6 0 
C -6 1.591219 -5.367802 3.117479 -4.242641 4.242641 
C -3.117479 5.367802 -1.591219 6 0 6 
z
" style="stroke: #008000; stroke-width: 2"/>
    </defs>
    <g clip-path="url(#p4fbd11d04e)">
     <use xlink:href="#mf873f5ccda" x="175.060538" y="489.930465" style="fill-opacity: 0; stroke: #008000; stroke-width: 2"/>
     <use xlink:href="#mf873f5ccda" x="240.309702" y="489.930465" style="fill-opacity: 0; stroke: #008000; stroke-width: 2"/>
     <use xlink:href="#mf873f5ccda" x="305.558865" y="489.930465" style="fill-opacity: 0; stroke: #008000; stroke-width: 2"/>
     <use xlink:href="#mf873f5ccda" x="370.808029" y="477.211543" style="fill-opacity: 0; stroke: #008000; stroke-width: 2"/>
     <use xlink:href="#mf873f5ccda" x="436.057193" y="489.930465" style="fill-opacity: 0; stroke: #008000; stroke-width: 2"/>
     <use xlink:href="#mf873f5ccda" x="501.306356" y="489.930465" style="fill-opacity: 0; stroke: #008000; stroke-width: 2"/>
     <use xlink:href="#mf873f5ccda" x="566.55552" y="489.930465" style="fill-opacity: 0; stroke: #008000; stroke-width: 2"/>
     <use xlink:href="#mf873f5ccda" x="631.804684" y="489.930465" style="fill-opacity: 0; stroke: #008000; stroke-width: 2"/>
     <use xlink:href="#mf873f5ccda" x="697.053847" y="489.930465" style="fill-opacity: 0; stroke: #008000; stroke-width: 2"/>
     <use xlink:href="#mf873f5ccda" x="762.303011" y="489.930465" style="fill-opacity: 0; stroke: #008000; stroke-width: 2"/>
     <use xlink:href="#mf873f5ccda" x="827.552175" y="489.930465" style="fill-opacity: 0; stroke: #008000; stroke-width: 2"/>
     <use xlink:href="#mf873f5ccda" x="892.801338" y="489.930465" style="fill-opacity: 0; stroke: #008000; stroke-width: 2"/>
     <use xlink:href="#mf873f5ccda" x="958.050502" y="488.634461" style="fill-opacity: 0; stroke: #008000; stroke-width: 2"/>
    </g>
   </g>
   <g id="line2d_43"/>
   <g id="line2d_44"/>
   <g id="line2d_45"/>
   <g id="line2d_46"/>
   <g id="patch_3">
    <path d="M 135.91104 508.422772 
L 135.91104 101.592 
" style="fill: none; stroke: #000000; stroke-width: 1.2; stroke-linejoin: miter; stroke-linecap: square"/>
   </g>
   <g id="patch_4">
    <path d="M 997.2 508.422772 
L 997.2 101.592 
" style="fill: none; stroke: #000000; stroke-width: 1.2; stroke-linejoin: miter; stroke-linecap: square"/>
   </g>
   <g id="patch_5">
    <path d="M 135.91104 508.422772 
L 997.2 508.422772 
" style="fill: none; stroke: #000000; stroke-width: 1.2; stroke-linejoin: miter; stroke-linecap: square"/>
   </g>
   <g id="patch_6">
    <path d="M 135.91104 101.592 
L 997.2 101.592 
" style="fill: none; stroke: #000000; stroke-width: 1.2; stroke-linejoin: miter; stroke-linecap: square"/>
   </g>
   <g id="legend_1">
    <g id="text_22">
     <!-- Index -->
     <g transform="translate(541.04052 50.103033) scale(0.18 -0.18)">
      <use xlink:href="#DejaVuSerif-49"/>
      <use xlink:href="#DejaVuSerif-6e" x="39.501953"/>
      <use xlink:href="#DejaVuSerif-64" x="103.90625"/>
      <use xlink:href="#DejaVuSerif-65" x="167.919922"/>
      <use xlink:href="#DejaVuSerif-78" x="227.099609"/>
     </g>
    </g>
    <g id="line2d_47">
     <g>
      <use xlink:href="#mac66de0848" x="324.27552" y="73.106471" style="fill-opacity: 0; stroke: #ffa500; stroke-width: 2; stroke-linejoin: miter"/>
     </g>
    </g>
    <g id="text_23">
     <!-- $\mathrm{RPI}_{PV}^\mathrm{ind}$ -->
     <g transform="translate(356.67552 79.406471) scale(0.18 -0.18)">
      <defs>
       <path id="DejaVuSerif-69" d="M 622 4353 
Q 622 4497 726 4603 
Q 831 4709 978 4709 
Q 1122 4709 1226 4603 
Q 1331 4497 1331 4353 
Q 1331 4206 1228 4103 
Q 1125 4000 978 4000 
Q 831 4000 726 4103 
Q 622 4206 622 4353 
z
M 1356 331 
L 1900 331 
L 1900 0 
L 231 0 
L 231 331 
L 781 331 
L 781 2988 
L 231 2988 
L 231 3322 
L 1356 3322 
L 1356 331 
z
" transform="scale(0.015625)"/>
       <path id="DejaVuSerif-Italic-50" d="M 1594 2375 
L 2419 2375 
Q 2884 2375 3176 2626 
Q 3469 2878 3559 3353 
Q 3653 3831 3458 4081 
Q 3263 4331 2797 4331 
L 1972 4331 
L 1594 2375 
z
M -97 0 
L -34 331 
L 559 331 
L 1338 4331 
L 744 4331 
L 809 4666 
L 3016 4666 
Q 3716 4666 4056 4311 
Q 4397 3956 4278 3353 
Q 4163 2753 3684 2397 
Q 3206 2041 2506 2041 
L 1528 2041 
L 1194 331 
L 1916 331 
L 1853 0 
L -97 0 
z
" transform="scale(0.015625)"/>
       <path id="DejaVuSerif-Italic-56" d="M 1506 4331 
L 2191 750 
L 4259 4331 
L 3734 4331 
L 3800 4666 
L 5169 4666 
L 5103 4331 
L 4650 4331 
L 2144 0 
L 1606 0 
L 791 4331 
L 325 4331 
L 391 4666 
L 2091 4666 
L 2025 4331 
L 1506 4331 
z
" transform="scale(0.015625)"/>
      </defs>
      <use xlink:href="#DejaVuSerif-52" transform="translate(0 0.234375)"/>
      <use xlink:href="#DejaVuSerif-50" transform="translate(75.292969 0.234375)"/>
      <use xlink:href="#DejaVuSerif-49" transform="translate(142.578125 0.234375)"/>
      <use xlink:href="#DejaVuSerif-69" transform="translate(182.988438 38.810938) scale(0.7)"/>
      <use xlink:href="#DejaVuSerif-6e" transform="translate(205.376133 38.810938) scale(0.7)"/>
      <use xlink:href="#DejaVuSerif-64" transform="translate(250.459141 38.810938) scale(0.7)"/>
      <use xlink:href="#DejaVuSerif-Italic-50" transform="translate(182.988438 -25.71875) scale(0.7)"/>
      <use xlink:href="#DejaVuSerif-Italic-56" transform="translate(230.088047 -25.71875) scale(0.7)"/>
     </g>
    </g>
    <g id="line2d_48">
     <g>
      <use xlink:href="#m7f077bb065" x="464.31552" y="73.106471" style="fill-opacity: 0; stroke: #800080; stroke-width: 2; stroke-linejoin: miter"/>
     </g>
    </g>
    <g id="text_24">
     <!-- $\mathrm{RPI}_{PV}^\mathrm{cap}$ -->
     <g transform="translate(496.71552 79.406471) scale(0.18 -0.18)">
      <defs>
       <path id="DejaVuSerif-63" d="M 3291 997 
Q 3169 466 2822 187 
Q 2475 -91 1925 -91 
Q 1200 -91 759 389 
Q 319 869 319 1663 
Q 319 2459 759 2936 
Q 1200 3413 1925 3413 
Q 2241 3413 2553 3339 
Q 2866 3266 3181 3116 
L 3181 2266 
L 2847 2266 
Q 2781 2703 2561 2903 
Q 2341 3103 1931 3103 
Q 1466 3103 1228 2742 
Q 991 2381 991 1663 
Q 991 944 1227 581 
Q 1463 219 1931 219 
Q 2303 219 2525 412 
Q 2747 606 2828 997 
L 3291 997 
z
" transform="scale(0.015625)"/>
      </defs>
      <use xlink:href="#DejaVuSerif-52" transform="translate(0 0.53125)"/>
      <use xlink:href="#DejaVuSerif-50" transform="translate(75.292969 0.53125)"/>
      <use xlink:href="#DejaVuSerif-49" transform="translate(142.578125 0.53125)"/>
      <use xlink:href="#DejaVuSerif-63" transform="translate(182.988438 52.670313) scale(0.7)"/>
      <use xlink:href="#DejaVuSerif-61" transform="translate(222.192539 52.670313) scale(0.7)"/>
      <use xlink:href="#DejaVuSerif-70" transform="translate(263.925937 52.670313) scale(0.7)"/>
      <use xlink:href="#DejaVuSerif-Italic-50" transform="translate(182.988438 -25.421875) scale(0.7)"/>
      <use xlink:href="#DejaVuSerif-Italic-56" transform="translate(230.088047 -25.421875) scale(0.7)"/>
     </g>
    </g>
    <g id="line2d_49">
     <g>
      <use xlink:href="#m4740e4e095" x="606.87552" y="73.106471" style="fill-opacity: 0; stroke: #0000ff; stroke-width: 2"/>
     </g>
    </g>
    <g id="text_25">
     <!-- $\mathrm{VPI}_{PV}^\mathrm{l}$ -->
     <g transform="translate(639.27552 79.406471) scale(0.18 -0.18)">
      <defs>
       <path id="DejaVuSerif-6c" d="M 1313 331 
L 1856 331 
L 1856 0 
L 184 0 
L 184 331 
L 738 331 
L 738 4531 
L 184 4531 
L 184 4863 
L 1313 4863 
L 1313 331 
z
" transform="scale(0.015625)"/>
      </defs>
      <use xlink:href="#DejaVuSerif-56" transform="translate(0 0.229687)"/>
      <use xlink:href="#DejaVuSerif-50" transform="translate(72.216797 0.229687)"/>
      <use xlink:href="#DejaVuSerif-49" transform="translate(139.501953 0.229687)"/>
      <use xlink:href="#DejaVuSerif-6c" transform="translate(179.912266 37.810938) scale(0.7)"/>
      <use xlink:href="#DejaVuSerif-Italic-50" transform="translate(179.912266 -25.723437) scale(0.7)"/>
      <use xlink:href="#DejaVuSerif-Italic-56" transform="translate(227.011875 -25.723437) scale(0.7)"/>
     </g>
    </g>
    <g id="line2d_50">
     <g>
      <use xlink:href="#mf873f5ccda" x="743.85552" y="73.106471" style="fill-opacity: 0; stroke: #008000; stroke-width: 2"/>
     </g>
    </g>
    <g id="text_26">
     <!-- $\mathrm{VPI}_{PV}^\mathrm{u}$ -->
     <g transform="translate(776.25552 79.406471) scale(0.18 -0.18)">
      <use xlink:href="#DejaVuSerif-56" transform="translate(0 0.089063)"/>
      <use xlink:href="#DejaVuSerif-50" transform="translate(72.216797 0.089063)"/>
      <use xlink:href="#DejaVuSerif-49" transform="translate(139.501953 0.089063)"/>
      <use xlink:href="#DejaVuSerif-75" transform="translate(179.912266 38.665625) scale(0.7)"/>
      <use xlink:href="#DejaVuSerif-Italic-50" transform="translate(179.912266 -25.864062) scale(0.7)"/>
      <use xlink:href="#DejaVuSerif-Italic-56" transform="translate(227.011875 -25.864062) scale(0.7)"/>
     </g>
    </g>
   </g>
  </g>
 </g>
 <defs>
  <clipPath id="p4fbd11d04e">
   <rect x="135.91104" y="101.592" width="861.28896" height="406.830772"/>
  </clipPath>
 </defs>
</svg>
