<?xml version="1.0" encoding="utf-8" standalone="no"?>
<!DOCTYPE svg PUBLIC "-//W3C//DTD SVG 1.1//EN"
  "http://www.w3.org/Graphics/SVG/1.1/DTD/svg11.dtd">
<svg xmlns:xlink="http://www.w3.org/1999/xlink" width="720pt" height="432pt" viewBox="0 0 720 432" xmlns="http://www.w3.org/2000/svg" version="1.1">
 <metadata>
  <rdf:RDF xmlns:dc="http://purl.org/dc/elements/1.1/" xmlns:cc="http://creativecommons.org/ns#" xmlns:rdf="http://www.w3.org/1999/02/22-rdf-syntax-ns#">
   <cc:Work>
    <dc:type rdf:resource="http://purl.org/dc/dcmitype/StillImage"/>
    <dc:date>2024-09-27T00:27:52.683519</dc:date>
    <dc:format>image/svg+xml</dc:format>
    <dc:creator>
     <cc:Agent>
      <dc:title>Matplotlib v3.7.2, https://matplotlib.org/</dc:title>
     </cc:Agent>
    </dc:creator>
   </cc:Work>
  </rdf:RDF>
 </metadata>
 <defs>
  <style type="text/css">*{stroke-linejoin: round; stroke-linecap: butt}</style>
 </defs>
 <g id="figure_1">
  <g id="patch_1">
   <path d="M 0 432 
L 720 432 
L 720 0 
L 0 0 
z
" style="fill: #ffffff"/>
  </g>
  <g id="axes_1">
   <g id="patch_2">
    <path d="M 62.8625 341.530464 
L 614.846922 341.530464 
L 614.846922 28.08375 
L 62.8625 28.08375 
z
" style="fill: #e5e5e5"/>
   </g>
   <g id="matplotlib.axis_1">
    <g id="xtick_1">
     <g id="line2d_1">
      <path d="M 87.952701 341.530464 
L 87.952701 28.08375 
" clip-path="url(#p9d79decbaf)" style="fill: none; stroke: #ffffff; stroke-width: 0.8; stroke-linecap: square"/>
     </g>
     <g id="line2d_2">
      <defs>
       <path id="m624f480689" d="M 0 0 
L 0 3.5 
" style="stroke: #000000; stroke-width: 0.8"/>
      </defs>
      <g>
       <use xlink:href="#m624f480689" x="87.952701" y="341.530464" style="stroke: #000000; stroke-width: 0.8"/>
      </g>
     </g>
     <g id="text_1">
      <!-- RIBPRE-SP440 -->
      <g transform="translate(20.559073 393.420279) rotate(-30) scale(0.1 -0.1)">
       <defs>
        <path id="DejaVuSerif-52" d="M 3066 2316 
Q 3284 2256 3442 2114 
Q 3600 1972 3725 1716 
L 4403 331 
L 4972 331 
L 4972 0 
L 3872 0 
L 3144 1484 
Q 2934 1916 2759 2042 
Q 2584 2169 2278 2169 
L 1581 2169 
L 1581 331 
L 2241 331 
L 2241 0 
L 353 0 
L 353 331 
L 947 331 
L 947 4331 
L 353 4331 
L 353 4666 
L 2719 4666 
Q 3400 4666 3770 4341 
Q 4141 4016 4141 3419 
Q 4141 2938 3870 2661 
Q 3600 2384 3066 2316 
z
M 1581 2503 
L 2503 2503 
Q 2975 2503 3200 2726 
Q 3425 2950 3425 3419 
Q 3425 3888 3200 4109 
Q 2975 4331 2503 4331 
L 1581 4331 
L 1581 2503 
z
" transform="scale(0.015625)"/>
        <path id="DejaVuSerif-49" d="M 1581 331 
L 2175 331 
L 2175 0 
L 353 0 
L 353 331 
L 947 331 
L 947 4331 
L 353 4331 
L 353 4666 
L 2175 4666 
L 2175 4331 
L 1581 4331 
L 1581 331 
z
" transform="scale(0.015625)"/>
        <path id="DejaVuSerif-42" d="M 1581 331 
L 2516 331 
Q 3078 331 3337 575 
Q 3597 819 3597 1350 
Q 3597 1878 3339 2120 
Q 3081 2363 2516 2363 
L 1581 2363 
L 1581 331 
z
M 1581 2694 
L 2375 2694 
Q 2888 2694 3123 2891 
Q 3359 3088 3359 3513 
Q 3359 3941 3123 4136 
Q 2888 4331 2375 4331 
L 1581 4331 
L 1581 2694 
z
M 353 0 
L 353 331 
L 947 331 
L 947 4331 
L 353 4331 
L 353 4666 
L 2656 4666 
Q 3363 4666 3720 4377 
Q 4078 4088 4078 3513 
Q 4078 3097 3829 2850 
Q 3581 2603 3103 2547 
Q 3697 2472 4005 2167 
Q 4313 1863 4313 1350 
Q 4313 656 3875 328 
Q 3438 0 2509 0 
L 353 0 
z
" transform="scale(0.015625)"/>
        <path id="DejaVuSerif-50" d="M 1581 2375 
L 2406 2375 
Q 2872 2375 3115 2626 
Q 3359 2878 3359 3353 
Q 3359 3831 3115 4081 
Q 2872 4331 2406 4331 
L 1581 4331 
L 1581 2375 
z
M 353 0 
L 353 331 
L 947 331 
L 947 4331 
L 353 4331 
L 353 4666 
L 2559 4666 
Q 3259 4666 3668 4311 
Q 4078 3956 4078 3353 
Q 4078 2753 3668 2397 
Q 3259 2041 2559 2041 
L 1581 2041 
L 1581 331 
L 2303 331 
L 2303 0 
L 353 0 
z
" transform="scale(0.015625)"/>
        <path id="DejaVuSerif-45" d="M 353 0 
L 353 331 
L 947 331 
L 947 4331 
L 353 4331 
L 353 4666 
L 4109 4666 
L 4109 3628 
L 3725 3628 
L 3725 4281 
L 1581 4281 
L 1581 2719 
L 3109 2719 
L 3109 3303 
L 3494 3303 
L 3494 1753 
L 3109 1753 
L 3109 2338 
L 1581 2338 
L 1581 384 
L 3775 384 
L 3775 1038 
L 4159 1038 
L 4159 0 
L 353 0 
z
" transform="scale(0.015625)"/>
        <path id="DejaVuSerif-2d" d="M 281 1959 
L 1881 1959 
L 1881 1472 
L 281 1472 
L 281 1959 
z
" transform="scale(0.015625)"/>
        <path id="DejaVuSerif-53" d="M 594 225 
L 594 1288 
L 953 1284 
Q 969 753 1261 498 
Q 1553 244 2150 244 
Q 2706 244 2998 464 
Q 3291 684 3291 1106 
Q 3291 1444 3114 1625 
Q 2938 1806 2369 1978 
L 1753 2163 
Q 1084 2366 811 2669 
Q 538 2972 538 3500 
Q 538 4094 959 4422 
Q 1381 4750 2144 4750 
Q 2469 4750 2856 4679 
Q 3244 4609 3681 4475 
L 3681 3481 
L 3328 3481 
Q 3275 3975 2998 4195 
Q 2722 4416 2156 4416 
Q 1663 4416 1405 4214 
Q 1147 4013 1147 3628 
Q 1147 3294 1340 3103 
Q 1534 2913 2163 2725 
L 2741 2553 
Q 3375 2363 3645 2067 
Q 3916 1772 3916 1275 
Q 3916 597 3481 253 
Q 3047 -91 2188 -91 
Q 1803 -91 1404 -12 
Q 1006 66 594 225 
z
" transform="scale(0.015625)"/>
        <path id="DejaVuSerif-34" d="M 2234 1581 
L 2234 4063 
L 641 1581 
L 2234 1581 
z
M 3609 0 
L 1484 0 
L 1484 331 
L 2234 331 
L 2234 1247 
L 197 1247 
L 197 1588 
L 2241 4750 
L 2859 4750 
L 2859 1581 
L 3750 1581 
L 3750 1247 
L 2859 1247 
L 2859 331 
L 3609 331 
L 3609 0 
z
" transform="scale(0.015625)"/>
        <path id="DejaVuSerif-30" d="M 2034 219 
Q 2513 219 2750 744 
Q 2988 1269 2988 2328 
Q 2988 3391 2750 3916 
Q 2513 4441 2034 4441 
Q 1556 4441 1318 3916 
Q 1081 3391 1081 2328 
Q 1081 1269 1318 744 
Q 1556 219 2034 219 
z
M 2034 -91 
Q 1275 -91 848 546 
Q 422 1184 422 2328 
Q 422 3475 848 4112 
Q 1275 4750 2034 4750 
Q 2797 4750 3222 4112 
Q 3647 3475 3647 2328 
Q 3647 1184 3222 546 
Q 2797 -91 2034 -91 
z
" transform="scale(0.015625)"/>
       </defs>
       <use xlink:href="#DejaVuSerif-52"/>
       <use xlink:href="#DejaVuSerif-49" x="75.292969"/>
       <use xlink:href="#DejaVuSerif-42" x="114.794922"/>
       <use xlink:href="#DejaVuSerif-50" x="188.28125"/>
       <use xlink:href="#DejaVuSerif-52" x="255.566406"/>
       <use xlink:href="#DejaVuSerif-45" x="330.859375"/>
       <use xlink:href="#DejaVuSerif-2d" x="405.732422"/>
       <use xlink:href="#DejaVuSerif-53" x="439.521484"/>
       <use xlink:href="#DejaVuSerif-50" x="508.027344"/>
       <use xlink:href="#DejaVuSerif-34" x="575.3125"/>
       <use xlink:href="#DejaVuSerif-34" x="638.935547"/>
       <use xlink:href="#DejaVuSerif-30" x="702.558594"/>
      </g>
     </g>
    </g>
    <g id="xtick_2">
     <g id="line2d_3">
      <path d="M 123.795845 341.530464 
L 123.795845 28.08375 
" clip-path="url(#p9d79decbaf)" style="fill: none; stroke: #ffffff; stroke-width: 0.8; stroke-linecap: square"/>
     </g>
     <g id="line2d_4">
      <g>
       <use xlink:href="#m624f480689" x="123.795845" y="341.530464" style="stroke: #000000; stroke-width: 0.8"/>
      </g>
     </g>
     <g id="text_2">
      <!-- JUSCEL-MG345 -->
      <g transform="translate(52.109979 395.898404) rotate(-30) scale(0.1 -0.1)">
       <defs>
        <path id="DejaVuSerif-4a" d="M -538 -1119 
L -538 -384 
L -181 -384 
Q -172 -694 -34 -845 
Q 103 -997 378 -997 
Q 750 -997 897 -762 
Q 1044 -528 1044 153 
L 1044 4331 
L 319 4331 
L 319 4666 
L 2272 4666 
L 2272 4331 
L 1678 4331 
L 1678 128 
Q 1678 -644 1368 -987 
Q 1059 -1331 372 -1331 
Q 150 -1331 -79 -1278 
Q -309 -1225 -538 -1119 
z
" transform="scale(0.015625)"/>
        <path id="DejaVuSerif-55" d="M 897 4331 
L 300 4331 
L 300 4666 
L 2125 4666 
L 2125 4331 
L 1528 4331 
L 1528 1919 
Q 1528 1025 1820 672 
Q 2113 319 2828 319 
Q 3544 319 3836 672 
Q 4128 1025 4128 1919 
L 4128 4331 
L 3531 4331 
L 3531 4666 
L 5106 4666 
L 5106 4331 
L 4513 4331 
L 4513 1856 
Q 4513 791 4103 350 
Q 3694 -91 2713 -91 
Q 1731 -91 1314 353 
Q 897 797 897 1856 
L 897 4331 
z
" transform="scale(0.015625)"/>
        <path id="DejaVuSerif-43" d="M 4513 1234 
Q 4306 581 3820 245 
Q 3334 -91 2591 -91 
Q 2134 -91 1743 65 
Q 1353 222 1050 525 
Q 700 875 529 1320 
Q 359 1766 359 2328 
Q 359 3416 987 4083 
Q 1616 4750 2644 4750 
Q 3025 4750 3456 4650 
Q 3888 4550 4384 4347 
L 4384 3272 
L 4031 3272 
Q 3916 3859 3567 4137 
Q 3219 4416 2591 4416 
Q 1844 4416 1459 3886 
Q 1075 3356 1075 2328 
Q 1075 1303 1459 773 
Q 1844 244 2591 244 
Q 3113 244 3450 492 
Q 3788 741 3938 1234 
L 4513 1234 
z
" transform="scale(0.015625)"/>
        <path id="DejaVuSerif-4c" d="M 353 0 
L 353 331 
L 947 331 
L 947 4331 
L 353 4331 
L 353 4666 
L 2175 4666 
L 2175 4331 
L 1581 4331 
L 1581 384 
L 3713 384 
L 3713 1166 
L 4097 1166 
L 4097 0 
L 353 0 
z
" transform="scale(0.015625)"/>
        <path id="DejaVuSerif-4d" d="M 353 0 
L 353 331 
L 947 331 
L 947 4331 
L 319 4331 
L 319 4666 
L 1678 4666 
L 3316 1344 
L 4953 4666 
L 6228 4666 
L 6228 4331 
L 5606 4331 
L 5606 331 
L 6203 331 
L 6203 0 
L 4378 0 
L 4378 331 
L 4972 331 
L 4972 3938 
L 3372 684 
L 2931 684 
L 1331 3938 
L 1331 331 
L 1925 331 
L 1925 0 
L 353 0 
z
" transform="scale(0.015625)"/>
        <path id="DejaVuSerif-47" d="M 4097 3272 
Q 3988 3856 3641 4136 
Q 3294 4416 2675 4416 
Q 1869 4416 1472 3897 
Q 1075 3378 1075 2328 
Q 1075 1300 1484 772 
Q 1894 244 2688 244 
Q 3041 244 3362 331 
Q 3684 419 3975 594 
L 3975 1797 
L 3097 1797 
L 3097 2131 
L 4609 2131 
L 4609 391 
Q 4194 150 3714 29 
Q 3234 -91 2688 -91 
Q 1631 -91 995 570 
Q 359 1231 359 2328 
Q 359 3434 996 4092 
Q 1634 4750 2713 4750 
Q 3113 4750 3539 4658 
Q 3966 4566 4447 4378 
L 4447 3272 
L 4097 3272 
z
" transform="scale(0.015625)"/>
        <path id="DejaVuSerif-33" d="M 622 4469 
Q 988 4606 1323 4678 
Q 1659 4750 1953 4750 
Q 2638 4750 3022 4454 
Q 3406 4159 3406 3634 
Q 3406 3213 3140 2930 
Q 2875 2647 2388 2547 
Q 2963 2466 3280 2130 
Q 3597 1794 3597 1259 
Q 3597 606 3158 257 
Q 2719 -91 1894 -91 
Q 1528 -91 1179 -12 
Q 831 66 488 225 
L 488 1131 
L 838 1131 
Q 869 681 1141 450 
Q 1413 219 1906 219 
Q 2384 219 2661 495 
Q 2938 772 2938 1253 
Q 2938 1803 2653 2086 
Q 2369 2369 1819 2369 
L 1522 2369 
L 1522 2688 
L 1678 2688 
Q 2225 2688 2498 2914 
Q 2772 3141 2772 3597 
Q 2772 4006 2547 4223 
Q 2322 4441 1900 4441 
Q 1478 4441 1245 4241 
Q 1013 4041 972 3647 
L 622 3647 
L 622 4469 
z
" transform="scale(0.015625)"/>
        <path id="DejaVuSerif-35" d="M 3219 4666 
L 3219 4153 
L 1081 4153 
L 1081 2816 
Q 1244 2928 1461 2984 
Q 1678 3041 1947 3041 
Q 2703 3041 3140 2622 
Q 3578 2203 3578 1478 
Q 3578 738 3136 323 
Q 2694 -91 1894 -91 
Q 1572 -91 1234 -12 
Q 897 66 544 225 
L 544 1131 
L 897 1131 
Q 925 688 1179 453 
Q 1434 219 1894 219 
Q 2388 219 2653 544 
Q 2919 869 2919 1478 
Q 2919 2084 2655 2407 
Q 2391 2731 1894 2731 
Q 1613 2731 1398 2631 
Q 1184 2531 1019 2322 
L 750 2322 
L 750 4666 
L 3219 4666 
z
" transform="scale(0.015625)"/>
       </defs>
       <use xlink:href="#DejaVuSerif-4a"/>
       <use xlink:href="#DejaVuSerif-55" x="40.087891"/>
       <use xlink:href="#DejaVuSerif-53" x="124.365234"/>
       <use xlink:href="#DejaVuSerif-43" x="192.871094"/>
       <use xlink:href="#DejaVuSerif-45" x="269.384766"/>
       <use xlink:href="#DejaVuSerif-4c" x="342.382812"/>
       <use xlink:href="#DejaVuSerif-2d" x="408.789062"/>
       <use xlink:href="#DejaVuSerif-4d" x="442.578125"/>
       <use xlink:href="#DejaVuSerif-47" x="544.970703"/>
       <use xlink:href="#DejaVuSerif-33" x="624.853516"/>
       <use xlink:href="#DejaVuSerif-34" x="688.476562"/>
       <use xlink:href="#DejaVuSerif-35" x="752.099609"/>
      </g>
     </g>
    </g>
    <g id="xtick_3">
     <g id="line2d_5">
      <path d="M 159.63899 341.530464 
L 159.63899 28.08375 
" clip-path="url(#p9d79decbaf)" style="fill: none; stroke: #ffffff; stroke-width: 0.8; stroke-linecap: square"/>
     </g>
     <g id="line2d_6">
      <g>
       <use xlink:href="#m624f480689" x="159.63899" y="341.530464" style="stroke: #000000; stroke-width: 0.8"/>
      </g>
     </g>
     <g id="text_3">
      <!-- AVERME-SP440 -->
      <g transform="translate(87.112808 396.38356) rotate(-30) scale(0.1 -0.1)">
       <defs>
        <path id="DejaVuSerif-41" d="M 1281 1691 
L 2994 1691 
L 2138 3909 
L 1281 1691 
z
M -38 0 
L -38 331 
L 372 331 
L 2034 4666 
L 2559 4666 
L 4225 331 
L 4684 331 
L 4684 0 
L 2988 0 
L 2988 331 
L 3506 331 
L 3116 1356 
L 1153 1356 
L 763 331 
L 1275 331 
L 1275 0 
L -38 0 
z
" transform="scale(0.015625)"/>
        <path id="DejaVuSerif-56" d="M 1119 4331 
L 2497 750 
L 3872 4331 
L 3347 4331 
L 3347 4666 
L 4716 4666 
L 4716 4331 
L 4263 4331 
L 2597 0 
L 2059 0 
L 403 4331 
L -63 4331 
L -63 4666 
L 1638 4666 
L 1638 4331 
L 1119 4331 
z
" transform="scale(0.015625)"/>
       </defs>
       <use xlink:href="#DejaVuSerif-41"/>
       <use xlink:href="#DejaVuSerif-56" x="67.216797"/>
       <use xlink:href="#DejaVuSerif-45" x="139.433594"/>
       <use xlink:href="#DejaVuSerif-52" x="212.431641"/>
       <use xlink:href="#DejaVuSerif-4d" x="287.724609"/>
       <use xlink:href="#DejaVuSerif-45" x="390.117188"/>
       <use xlink:href="#DejaVuSerif-2d" x="464.990234"/>
       <use xlink:href="#DejaVuSerif-53" x="498.779297"/>
       <use xlink:href="#DejaVuSerif-50" x="567.285156"/>
       <use xlink:href="#DejaVuSerif-34" x="634.570312"/>
       <use xlink:href="#DejaVuSerif-34" x="698.193359"/>
       <use xlink:href="#DejaVuSerif-30" x="761.816406"/>
      </g>
     </g>
    </g>
    <g id="xtick_4">
     <g id="line2d_7">
      <path d="M 195.482134 341.530464 
L 195.482134 28.08375 
" clip-path="url(#p9d79decbaf)" style="fill: none; stroke: #ffffff; stroke-width: 0.8; stroke-linecap: square"/>
     </g>
     <g id="line2d_8">
      <g>
       <use xlink:href="#m624f480689" x="195.482134" y="341.530464" style="stroke: #000000; stroke-width: 0.8"/>
      </g>
     </g>
     <g id="text_4">
      <!-- ESTREI-MG345 -->
      <g transform="translate(124.90451 395.25856) rotate(-30) scale(0.1 -0.1)">
       <defs>
        <path id="DejaVuSerif-54" d="M 1222 0 
L 1222 331 
L 1819 331 
L 1819 4294 
L 447 4294 
L 447 3566 
L 63 3566 
L 63 4666 
L 4206 4666 
L 4206 3566 
L 3822 3566 
L 3822 4294 
L 2450 4294 
L 2450 331 
L 3047 331 
L 3047 0 
L 1222 0 
z
" transform="scale(0.015625)"/>
       </defs>
       <use xlink:href="#DejaVuSerif-45"/>
       <use xlink:href="#DejaVuSerif-53" x="72.998047"/>
       <use xlink:href="#DejaVuSerif-54" x="141.503906"/>
       <use xlink:href="#DejaVuSerif-52" x="208.203125"/>
       <use xlink:href="#DejaVuSerif-45" x="283.496094"/>
       <use xlink:href="#DejaVuSerif-49" x="356.494141"/>
       <use xlink:href="#DejaVuSerif-2d" x="395.996094"/>
       <use xlink:href="#DejaVuSerif-4d" x="429.785156"/>
       <use xlink:href="#DejaVuSerif-47" x="532.177734"/>
       <use xlink:href="#DejaVuSerif-33" x="612.060547"/>
       <use xlink:href="#DejaVuSerif-34" x="675.683594"/>
       <use xlink:href="#DejaVuSerif-35" x="739.306641"/>
      </g>
     </g>
    </g>
    <g id="xtick_5">
     <g id="line2d_9">
      <path d="M 231.325278 341.530464 
L 231.325278 28.08375 
" clip-path="url(#p9d79decbaf)" style="fill: none; stroke: #ffffff; stroke-width: 0.8; stroke-linecap: square"/>
     </g>
     <g id="line2d_10">
      <g>
       <use xlink:href="#m624f480689" x="231.325278" y="341.530464" style="stroke: #000000; stroke-width: 0.8"/>
      </g>
     </g>
     <g id="text_5">
      <!-- F.DIAS-SP440 -->
      <g transform="translate(168.796278 390.611685) rotate(-30) scale(0.1 -0.1)">
       <defs>
        <path id="DejaVuSerif-46" d="M 353 0 
L 353 331 
L 947 331 
L 947 4331 
L 353 4331 
L 353 4666 
L 4172 4666 
L 4172 3628 
L 3788 3628 
L 3788 4281 
L 1581 4281 
L 1581 2719 
L 3175 2719 
L 3175 3303 
L 3559 3303 
L 3559 1753 
L 3175 1753 
L 3175 2338 
L 1581 2338 
L 1581 331 
L 2328 331 
L 2328 0 
L 353 0 
z
" transform="scale(0.015625)"/>
        <path id="DejaVuSerif-2e" d="M 603 325 
Q 603 500 722 622 
Q 841 744 1019 744 
Q 1191 744 1312 622 
Q 1434 500 1434 325 
Q 1434 153 1312 31 
Q 1191 -91 1019 -91 
Q 841 -91 722 29 
Q 603 150 603 325 
z
" transform="scale(0.015625)"/>
        <path id="DejaVuSerif-44" d="M 1581 331 
L 2163 331 
Q 3072 331 3558 850 
Q 4044 1369 4044 2338 
Q 4044 3306 3559 3818 
Q 3075 4331 2163 4331 
L 1581 4331 
L 1581 331 
z
M 353 0 
L 353 331 
L 947 331 
L 947 4331 
L 353 4331 
L 353 4666 
L 2209 4666 
Q 3416 4666 4089 4050 
Q 4763 3434 4763 2338 
Q 4763 1238 4088 619 
Q 3413 0 2209 0 
L 353 0 
z
" transform="scale(0.015625)"/>
       </defs>
       <use xlink:href="#DejaVuSerif-46"/>
       <use xlink:href="#DejaVuSerif-2e" x="53.759766"/>
       <use xlink:href="#DejaVuSerif-44" x="85.546875"/>
       <use xlink:href="#DejaVuSerif-49" x="165.722656"/>
       <use xlink:href="#DejaVuSerif-41" x="205.224609"/>
       <use xlink:href="#DejaVuSerif-53" x="277.441406"/>
       <use xlink:href="#DejaVuSerif-2d" x="349.572266"/>
       <use xlink:href="#DejaVuSerif-53" x="383.361328"/>
       <use xlink:href="#DejaVuSerif-50" x="451.867188"/>
       <use xlink:href="#DejaVuSerif-34" x="519.152344"/>
       <use xlink:href="#DejaVuSerif-34" x="582.775391"/>
       <use xlink:href="#DejaVuSerif-30" x="646.398438"/>
      </g>
     </g>
    </g>
    <g id="xtick_6">
     <g id="line2d_11">
      <path d="M 267.168422 341.530464 
L 267.168422 28.08375 
" clip-path="url(#p9d79decbaf)" style="fill: none; stroke: #ffffff; stroke-width: 0.8; stroke-linecap: square"/>
     </g>
     <g id="line2d_12">
      <g>
       <use xlink:href="#m624f480689" x="267.168422" y="341.530464" style="stroke: #000000; stroke-width: 0.8"/>
      </g>
     </g>
     <g id="text_6">
      <!-- JATAI- -GO230 -->
      <g transform="translate(205.500035 390.11481) rotate(-30) scale(0.1 -0.1)">
       <defs>
        <path id="DejaVuSerif-4f" d="M 2625 244 
Q 3391 244 3781 770 
Q 4172 1297 4172 2328 
Q 4172 3363 3781 3889 
Q 3391 4416 2625 4416 
Q 1856 4416 1465 3889 
Q 1075 3363 1075 2328 
Q 1075 1297 1465 770 
Q 1856 244 2625 244 
z
M 2625 -91 
Q 2150 -91 1751 65 
Q 1353 222 1050 525 
Q 700 875 529 1319 
Q 359 1763 359 2328 
Q 359 2894 529 3339 
Q 700 3784 1050 4134 
Q 1356 4441 1750 4595 
Q 2144 4750 2625 4750 
Q 3641 4750 4266 4084 
Q 4891 3419 4891 2328 
Q 4891 1769 4719 1320 
Q 4547 872 4197 525 
Q 3891 219 3497 64 
Q 3103 -91 2625 -91 
z
" transform="scale(0.015625)"/>
        <path id="DejaVuSerif-32" d="M 819 3553 
L 469 3553 
L 469 4384 
Q 803 4563 1142 4656 
Q 1481 4750 1806 4750 
Q 2534 4750 2956 4397 
Q 3378 4044 3378 3438 
Q 3378 2753 2422 1800 
Q 2347 1728 2309 1691 
L 1131 513 
L 3078 513 
L 3078 1088 
L 3444 1088 
L 3444 0 
L 434 0 
L 434 341 
L 1850 1753 
Q 2319 2222 2519 2614 
Q 2719 3006 2719 3438 
Q 2719 3909 2473 4175 
Q 2228 4441 1797 4441 
Q 1350 4441 1106 4219 
Q 863 3997 819 3553 
z
" transform="scale(0.015625)"/>
       </defs>
       <use xlink:href="#DejaVuSerif-4a"/>
       <use xlink:href="#DejaVuSerif-41" x="40.087891"/>
       <use xlink:href="#DejaVuSerif-54" x="106.804688"/>
       <use xlink:href="#DejaVuSerif-41" x="168.003906"/>
       <use xlink:href="#DejaVuSerif-49" x="240.220703"/>
       <use xlink:href="#DejaVuSerif-2d" x="279.722656"/>
       <use xlink:href="#DejaVuSerif-2d" x="313.511719"/>
       <use xlink:href="#DejaVuSerif-47" x="347.300781"/>
       <use xlink:href="#DejaVuSerif-4f" x="427.183594"/>
       <use xlink:href="#DejaVuSerif-32" x="509.166016"/>
       <use xlink:href="#DejaVuSerif-33" x="572.789062"/>
       <use xlink:href="#DejaVuSerif-30" x="636.412109"/>
      </g>
     </g>
    </g>
    <g id="xtick_7">
     <g id="line2d_13">
      <path d="M 303.011567 341.530464 
L 303.011567 28.08375 
" clip-path="url(#p9d79decbaf)" style="fill: none; stroke: #ffffff; stroke-width: 0.8; stroke-linecap: square"/>
     </g>
     <g id="line2d_14">
      <g>
       <use xlink:href="#m624f480689" x="303.011567" y="341.530464" style="stroke: #000000; stroke-width: 0.8"/>
      </g>
     </g>
     <g id="text_7">
      <!-- M.MORA-MG345 -->
      <g transform="translate(226.366352 398.761685) rotate(-30) scale(0.1 -0.1)">
       <use xlink:href="#DejaVuSerif-4d"/>
       <use xlink:href="#DejaVuSerif-2e" x="102.392578"/>
       <use xlink:href="#DejaVuSerif-4d" x="134.179688"/>
       <use xlink:href="#DejaVuSerif-4f" x="236.572266"/>
       <use xlink:href="#DejaVuSerif-52" x="318.554688"/>
       <use xlink:href="#DejaVuSerif-41" x="393.847656"/>
       <use xlink:href="#DejaVuSerif-2d" x="466.064453"/>
       <use xlink:href="#DejaVuSerif-4d" x="499.853516"/>
       <use xlink:href="#DejaVuSerif-47" x="602.246094"/>
       <use xlink:href="#DejaVuSerif-33" x="682.128906"/>
       <use xlink:href="#DejaVuSerif-34" x="745.751953"/>
       <use xlink:href="#DejaVuSerif-35" x="809.375"/>
      </g>
     </g>
    </g>
    <g id="xtick_8">
     <g id="line2d_15">
      <path d="M 338.854711 341.530464 
L 338.854711 28.08375 
" clip-path="url(#p9d79decbaf)" style="fill: none; stroke: #ffffff; stroke-width: 0.8; stroke-linecap: square"/>
     </g>
     <g id="line2d_16">
      <g>
       <use xlink:href="#m624f480689" x="338.854711" y="341.530464" style="stroke: #000000; stroke-width: 0.8"/>
      </g>
     </g>
     <g id="text_8">
      <!-- SSALVA-GO230 -->
      <g transform="translate(269.724973 394.422623) rotate(-30) scale(0.1 -0.1)">
       <use xlink:href="#DejaVuSerif-53"/>
       <use xlink:href="#DejaVuSerif-53" x="66.755859"/>
       <use xlink:href="#DejaVuSerif-41" x="135.261719"/>
       <use xlink:href="#DejaVuSerif-4c" x="207.478516"/>
       <use xlink:href="#DejaVuSerif-56" x="262.009766"/>
       <use xlink:href="#DejaVuSerif-41" x="327.476562"/>
       <use xlink:href="#DejaVuSerif-2d" x="399.693359"/>
       <use xlink:href="#DejaVuSerif-47" x="433.482422"/>
       <use xlink:href="#DejaVuSerif-4f" x="513.365234"/>
       <use xlink:href="#DejaVuSerif-32" x="595.347656"/>
       <use xlink:href="#DejaVuSerif-33" x="658.970703"/>
       <use xlink:href="#DejaVuSerif-30" x="722.59375"/>
      </g>
     </g>
    </g>
    <g id="xtick_9">
     <g id="line2d_17">
      <path d="M 374.697855 341.530464 
L 374.697855 28.08375 
" clip-path="url(#p9d79decbaf)" style="fill: none; stroke: #ffffff; stroke-width: 0.8; stroke-linecap: square"/>
     </g>
     <g id="line2d_18">
      <g>
       <use xlink:href="#m624f480689" x="374.697855" y="341.530464" style="stroke: #000000; stroke-width: 0.8"/>
      </g>
     </g>
     <g id="text_9">
      <!-- RVERDN-GO230 -->
      <g transform="translate(300.35708 397.431216) rotate(-30) scale(0.1 -0.1)">
       <defs>
        <path id="DejaVuSerif-4e" d="M 313 0 
L 313 331 
L 941 331 
L 941 4331 
L 313 4331 
L 313 4666 
L 1509 4666 
L 4306 984 
L 4306 4331 
L 3681 4331 
L 3681 4666 
L 5319 4666 
L 5319 4331 
L 4691 4331 
L 4691 -91 
L 4313 -91 
L 1325 3841 
L 1325 331 
L 1953 331 
L 1953 0 
L 313 0 
z
" transform="scale(0.015625)"/>
       </defs>
       <use xlink:href="#DejaVuSerif-52"/>
       <use xlink:href="#DejaVuSerif-56" x="71.667969"/>
       <use xlink:href="#DejaVuSerif-45" x="143.884766"/>
       <use xlink:href="#DejaVuSerif-52" x="216.882812"/>
       <use xlink:href="#DejaVuSerif-44" x="292.175781"/>
       <use xlink:href="#DejaVuSerif-4e" x="372.351562"/>
       <use xlink:href="#DejaVuSerif-2d" x="459.851562"/>
       <use xlink:href="#DejaVuSerif-47" x="493.640625"/>
       <use xlink:href="#DejaVuSerif-4f" x="573.523438"/>
       <use xlink:href="#DejaVuSerif-32" x="655.505859"/>
       <use xlink:href="#DejaVuSerif-33" x="719.128906"/>
       <use xlink:href="#DejaVuSerif-30" x="782.751953"/>
      </g>
     </g>
    </g>
    <g id="xtick_10">
     <g id="line2d_19">
      <path d="M 410.540999 341.530464 
L 410.540999 28.08375 
" clip-path="url(#p9d79decbaf)" style="fill: none; stroke: #ffffff; stroke-width: 0.8; stroke-linecap: square"/>
     </g>
     <g id="line2d_20">
      <g>
       <use xlink:href="#m624f480689" x="410.540999" y="341.530464" style="stroke: #000000; stroke-width: 0.8"/>
      </g>
     </g>
     <g id="text_10">
      <!-- ISOLT2-MS440 -->
      <g transform="translate(342.457258 393.818716) rotate(-30) scale(0.1 -0.1)">
       <use xlink:href="#DejaVuSerif-49"/>
       <use xlink:href="#DejaVuSerif-53" x="39.501953"/>
       <use xlink:href="#DejaVuSerif-4f" x="108.007812"/>
       <use xlink:href="#DejaVuSerif-4c" x="189.990234"/>
       <use xlink:href="#DejaVuSerif-54" x="248.271484"/>
       <use xlink:href="#DejaVuSerif-32" x="314.970703"/>
       <use xlink:href="#DejaVuSerif-2d" x="378.59375"/>
       <use xlink:href="#DejaVuSerif-4d" x="412.382812"/>
       <use xlink:href="#DejaVuSerif-53" x="514.775391"/>
       <use xlink:href="#DejaVuSerif-34" x="583.28125"/>
       <use xlink:href="#DejaVuSerif-34" x="646.904297"/>
       <use xlink:href="#DejaVuSerif-30" x="710.527344"/>
      </g>
     </g>
    </g>
    <g id="xtick_11">
     <g id="line2d_21">
      <path d="M 446.384144 341.530464 
L 446.384144 28.08375 
" clip-path="url(#p9d79decbaf)" style="fill: none; stroke: #ffffff; stroke-width: 0.8; stroke-linecap: square"/>
     </g>
     <g id="line2d_22">
      <g>
       <use xlink:href="#m624f480689" x="446.384144" y="341.530464" style="stroke: #000000; stroke-width: 0.8"/>
      </g>
     </g>
     <g id="text_11">
      <!-- ISOLTE-SP440 -->
      <g transform="translate(380.366685 392.625748) rotate(-30) scale(0.1 -0.1)">
       <use xlink:href="#DejaVuSerif-49"/>
       <use xlink:href="#DejaVuSerif-53" x="39.501953"/>
       <use xlink:href="#DejaVuSerif-4f" x="108.007812"/>
       <use xlink:href="#DejaVuSerif-4c" x="189.990234"/>
       <use xlink:href="#DejaVuSerif-54" x="248.271484"/>
       <use xlink:href="#DejaVuSerif-45" x="314.970703"/>
       <use xlink:href="#DejaVuSerif-2d" x="389.84375"/>
       <use xlink:href="#DejaVuSerif-53" x="423.632812"/>
       <use xlink:href="#DejaVuSerif-50" x="492.138672"/>
       <use xlink:href="#DejaVuSerif-34" x="559.423828"/>
       <use xlink:href="#DejaVuSerif-34" x="623.046875"/>
       <use xlink:href="#DejaVuSerif-30" x="686.669922"/>
      </g>
     </g>
    </g>
    <g id="xtick_12">
     <g id="line2d_23">
      <path d="M 482.227288 341.530464 
L 482.227288 28.08375 
" clip-path="url(#p9d79decbaf)" style="fill: none; stroke: #ffffff; stroke-width: 0.8; stroke-linecap: square"/>
     </g>
     <g id="line2d_24">
      <g>
       <use xlink:href="#m624f480689" x="482.227288" y="341.530464" style="stroke: #000000; stroke-width: 0.8"/>
      </g>
     </g>
     <g id="text_12">
      <!-- RIBEIR-MT230 -->
      <g transform="translate(414.51702 393.603091) rotate(-30) scale(0.1 -0.1)">
       <use xlink:href="#DejaVuSerif-52"/>
       <use xlink:href="#DejaVuSerif-49" x="75.292969"/>
       <use xlink:href="#DejaVuSerif-42" x="114.794922"/>
       <use xlink:href="#DejaVuSerif-45" x="188.28125"/>
       <use xlink:href="#DejaVuSerif-49" x="261.279297"/>
       <use xlink:href="#DejaVuSerif-52" x="300.78125"/>
       <use xlink:href="#DejaVuSerif-2d" x="376.074219"/>
       <use xlink:href="#DejaVuSerif-4d" x="409.863281"/>
       <use xlink:href="#DejaVuSerif-54" x="512.255859"/>
       <use xlink:href="#DejaVuSerif-32" x="578.955078"/>
       <use xlink:href="#DejaVuSerif-33" x="642.578125"/>
       <use xlink:href="#DejaVuSerif-30" x="706.201172"/>
      </g>
     </g>
    </g>
    <g id="xtick_13">
     <g id="line2d_25">
      <path d="M 518.070432 341.530464 
L 518.070432 28.08375 
" clip-path="url(#p9d79decbaf)" style="fill: none; stroke: #ffffff; stroke-width: 0.8; stroke-linecap: square"/>
     </g>
     <g id="line2d_26">
      <g>
       <use xlink:href="#m624f480689" x="518.070432" y="341.530464" style="stroke: #000000; stroke-width: 0.8"/>
      </g>
     </g>
     <g id="text_13">
      <!-- BAGUAC-SP440 -->
      <g transform="translate(446.368328 395.907779) rotate(-30) scale(0.1 -0.1)">
       <use xlink:href="#DejaVuSerif-42"/>
       <use xlink:href="#DejaVuSerif-41" x="73.486328"/>
       <use xlink:href="#DejaVuSerif-47" x="145.703125"/>
       <use xlink:href="#DejaVuSerif-55" x="225.585938"/>
       <use xlink:href="#DejaVuSerif-41" x="306.738281"/>
       <use xlink:href="#DejaVuSerif-43" x="378.955078"/>
       <use xlink:href="#DejaVuSerif-2d" x="455.46875"/>
       <use xlink:href="#DejaVuSerif-53" x="489.257812"/>
       <use xlink:href="#DejaVuSerif-50" x="557.763672"/>
       <use xlink:href="#DejaVuSerif-34" x="625.048828"/>
       <use xlink:href="#DejaVuSerif-34" x="688.671875"/>
       <use xlink:href="#DejaVuSerif-30" x="752.294922"/>
      </g>
     </g>
    </g>
    <g id="xtick_14">
     <g id="line2d_27">
      <path d="M 553.913577 341.530464 
L 553.913577 28.08375 
" clip-path="url(#p9d79decbaf)" style="fill: none; stroke: #ffffff; stroke-width: 0.8; stroke-linecap: square"/>
     </g>
     <g id="line2d_28">
      <g>
       <use xlink:href="#m624f480689" x="553.913577" y="341.530464" style="stroke: #000000; stroke-width: 0.8"/>
      </g>
     </g>
     <g id="text_14">
      <!-- B.PEIX-MT230 -->
      <g transform="translate(488.235762 392.429654) rotate(-30) scale(0.1 -0.1)">
       <defs>
        <path id="DejaVuSerif-58" d="M 2119 1997 
L 978 331 
L 1581 331 
L 1581 0 
L 38 0 
L 38 331 
L 575 331 
L 1919 2291 
L 556 4331 
L 56 4331 
L 56 4666 
L 1906 4666 
L 1906 4331 
L 1356 4331 
L 2356 2828 
L 3384 4331 
L 2784 4331 
L 2784 4666 
L 4313 4666 
L 4313 4331 
L 3788 4331 
L 2553 2534 
L 4025 331 
L 4525 331 
L 4525 0 
L 2675 0 
L 2675 331 
L 3231 331 
L 2119 1997 
z
" transform="scale(0.015625)"/>
       </defs>
       <use xlink:href="#DejaVuSerif-42"/>
       <use xlink:href="#DejaVuSerif-2e" x="73.486328"/>
       <use xlink:href="#DejaVuSerif-50" x="105.273438"/>
       <use xlink:href="#DejaVuSerif-45" x="172.558594"/>
       <use xlink:href="#DejaVuSerif-49" x="245.556641"/>
       <use xlink:href="#DejaVuSerif-58" x="285.058594"/>
       <use xlink:href="#DejaVuSerif-2d" x="352.625"/>
       <use xlink:href="#DejaVuSerif-4d" x="386.414062"/>
       <use xlink:href="#DejaVuSerif-54" x="488.806641"/>
       <use xlink:href="#DejaVuSerif-32" x="555.505859"/>
       <use xlink:href="#DejaVuSerif-33" x="619.128906"/>
       <use xlink:href="#DejaVuSerif-30" x="682.751953"/>
      </g>
     </g>
    </g>
    <g id="xtick_15">
     <g id="line2d_29">
      <path d="M 589.756721 341.530464 
L 589.756721 28.08375 
" clip-path="url(#p9d79decbaf)" style="fill: none; stroke: #ffffff; stroke-width: 0.8; stroke-linecap: square"/>
     </g>
     <g id="line2d_30">
      <g>
       <use xlink:href="#m624f480689" x="589.756721" y="341.530464" style="stroke: #000000; stroke-width: 0.8"/>
      </g>
     </g>
     <g id="text_15">
      <!-- JNEIV2-ES345 -->
      <g transform="translate(524.44832 392.216373) rotate(-30) scale(0.1 -0.1)">
       <use xlink:href="#DejaVuSerif-4a"/>
       <use xlink:href="#DejaVuSerif-4e" x="40.087891"/>
       <use xlink:href="#DejaVuSerif-45" x="127.587891"/>
       <use xlink:href="#DejaVuSerif-49" x="200.585938"/>
       <use xlink:href="#DejaVuSerif-56" x="240.087891"/>
       <use xlink:href="#DejaVuSerif-32" x="312.304688"/>
       <use xlink:href="#DejaVuSerif-2d" x="375.927734"/>
       <use xlink:href="#DejaVuSerif-45" x="409.716797"/>
       <use xlink:href="#DejaVuSerif-53" x="482.714844"/>
       <use xlink:href="#DejaVuSerif-33" x="551.220703"/>
       <use xlink:href="#DejaVuSerif-34" x="614.84375"/>
       <use xlink:href="#DejaVuSerif-35" x="678.466797"/>
      </g>
     </g>
    </g>
    <g id="text_16">
     <!-- Bus -->
     <g transform="translate(322.772445 417.480091) scale(0.17 -0.17)">
      <defs>
       <path id="DejaVuSerif-75" d="M 2266 3322 
L 3341 3322 
L 3341 331 
L 3884 331 
L 3884 0 
L 2766 0 
L 2766 588 
Q 2606 256 2353 82 
Q 2100 -91 1766 -91 
Q 1213 -91 952 223 
Q 691 538 691 1209 
L 691 2988 
L 172 2988 
L 172 3322 
L 1269 3322 
L 1269 1388 
Q 1269 781 1417 556 
Q 1566 331 1947 331 
Q 2347 331 2556 625 
Q 2766 919 2766 1478 
L 2766 2988 
L 2266 2988 
L 2266 3322 
z
" transform="scale(0.015625)"/>
       <path id="DejaVuSerif-73" d="M 359 184 
L 359 959 
L 691 959 
Q 703 588 923 403 
Q 1144 219 1575 219 
Q 1963 219 2166 364 
Q 2369 509 2369 788 
Q 2369 1006 2220 1140 
Q 2072 1275 1594 1428 
L 1178 1569 
Q 750 1706 558 1912 
Q 366 2119 366 2438 
Q 366 2894 700 3153 
Q 1034 3413 1625 3413 
Q 1888 3413 2178 3344 
Q 2469 3275 2778 3144 
L 2778 2419 
L 2447 2419 
Q 2434 2741 2221 2922 
Q 2009 3103 1644 3103 
Q 1281 3103 1095 2975 
Q 909 2847 909 2591 
Q 909 2381 1050 2254 
Q 1191 2128 1613 1997 
L 2069 1856 
Q 2541 1709 2748 1489 
Q 2956 1269 2956 922 
Q 2956 450 2595 179 
Q 2234 -91 1600 -91 
Q 1278 -91 972 -22 
Q 666 47 359 184 
z
" transform="scale(0.015625)"/>
      </defs>
      <use xlink:href="#DejaVuSerif-42"/>
      <use xlink:href="#DejaVuSerif-75" x="73.486328"/>
      <use xlink:href="#DejaVuSerif-73" x="137.890625"/>
     </g>
    </g>
   </g>
   <g id="matplotlib.axis_2">
    <g id="ytick_1">
     <g id="line2d_31">
      <path d="M 62.8625 327.282886 
L 614.846922 327.282886 
" clip-path="url(#p9d79decbaf)" style="fill: none; stroke: #ffffff; stroke-width: 0.8; stroke-linecap: square"/>
     </g>
     <g id="line2d_32">
      <defs>
       <path id="m624c2f7209" d="M 0 0 
L -3.5 0 
" style="stroke: #000000; stroke-width: 0.8"/>
      </defs>
      <g>
       <use xlink:href="#m624c2f7209" x="62.8625" y="327.282886" style="stroke: #000000; stroke-width: 0.8"/>
      </g>
     </g>
     <g id="text_17">
      <!-- 0.0 -->
      <g transform="translate(32.007812 332.981714) scale(0.15 -0.15)">
       <use xlink:href="#DejaVuSerif-30"/>
       <use xlink:href="#DejaVuSerif-2e" x="63.623047"/>
       <use xlink:href="#DejaVuSerif-30" x="95.410156"/>
      </g>
     </g>
    </g>
    <g id="ytick_2">
     <g id="line2d_33">
      <path d="M 62.8625 270.292574 
L 614.846922 270.292574 
" clip-path="url(#p9d79decbaf)" style="fill: none; stroke: #ffffff; stroke-width: 0.8; stroke-linecap: square"/>
     </g>
     <g id="line2d_34">
      <g>
       <use xlink:href="#m624c2f7209" x="62.8625" y="270.292574" style="stroke: #000000; stroke-width: 0.8"/>
      </g>
     </g>
     <g id="text_18">
      <!-- 0.2 -->
      <g transform="translate(32.007812 275.991403) scale(0.15 -0.15)">
       <use xlink:href="#DejaVuSerif-30"/>
       <use xlink:href="#DejaVuSerif-2e" x="63.623047"/>
       <use xlink:href="#DejaVuSerif-32" x="95.410156"/>
      </g>
     </g>
    </g>
    <g id="ytick_3">
     <g id="line2d_35">
      <path d="M 62.8625 213.302263 
L 614.846922 213.302263 
" clip-path="url(#p9d79decbaf)" style="fill: none; stroke: #ffffff; stroke-width: 0.8; stroke-linecap: square"/>
     </g>
     <g id="line2d_36">
      <g>
       <use xlink:href="#m624c2f7209" x="62.8625" y="213.302263" style="stroke: #000000; stroke-width: 0.8"/>
      </g>
     </g>
     <g id="text_19">
      <!-- 0.4 -->
      <g transform="translate(32.007812 219.001091) scale(0.15 -0.15)">
       <use xlink:href="#DejaVuSerif-30"/>
       <use xlink:href="#DejaVuSerif-2e" x="63.623047"/>
       <use xlink:href="#DejaVuSerif-34" x="95.410156"/>
      </g>
     </g>
    </g>
    <g id="ytick_4">
     <g id="line2d_37">
      <path d="M 62.8625 156.311951 
L 614.846922 156.311951 
" clip-path="url(#p9d79decbaf)" style="fill: none; stroke: #ffffff; stroke-width: 0.8; stroke-linecap: square"/>
     </g>
     <g id="line2d_38">
      <g>
       <use xlink:href="#m624c2f7209" x="62.8625" y="156.311951" style="stroke: #000000; stroke-width: 0.8"/>
      </g>
     </g>
     <g id="text_20">
      <!-- 0.6 -->
      <g transform="translate(32.007812 162.010779) scale(0.15 -0.15)">
       <defs>
        <path id="DejaVuSerif-36" d="M 2094 219 
Q 2534 219 2771 542 
Q 3009 866 3009 1472 
Q 3009 2078 2771 2401 
Q 2534 2725 2094 2725 
Q 1647 2725 1412 2412 
Q 1178 2100 1178 1509 
Q 1178 888 1415 553 
Q 1653 219 2094 219 
z
M 1075 2569 
Q 1288 2803 1556 2918 
Q 1825 3034 2163 3034 
Q 2859 3034 3264 2615 
Q 3669 2197 3669 1472 
Q 3669 763 3233 336 
Q 2797 -91 2069 -91 
Q 1278 -91 853 498 
Q 428 1088 428 2181 
Q 428 3406 931 4078 
Q 1434 4750 2350 4750 
Q 2597 4750 2869 4703 
Q 3141 4656 3425 4563 
L 3425 3794 
L 3072 3794 
Q 3034 4109 2831 4275 
Q 2628 4441 2284 4441 
Q 1678 4441 1381 3981 
Q 1084 3522 1075 2569 
z
" transform="scale(0.015625)"/>
       </defs>
       <use xlink:href="#DejaVuSerif-30"/>
       <use xlink:href="#DejaVuSerif-2e" x="63.623047"/>
       <use xlink:href="#DejaVuSerif-36" x="95.410156"/>
      </g>
     </g>
    </g>
    <g id="ytick_5">
     <g id="line2d_39">
      <path d="M 62.8625 99.32164 
L 614.846922 99.32164 
" clip-path="url(#p9d79decbaf)" style="fill: none; stroke: #ffffff; stroke-width: 0.8; stroke-linecap: square"/>
     </g>
     <g id="line2d_40">
      <g>
       <use xlink:href="#m624c2f7209" x="62.8625" y="99.32164" style="stroke: #000000; stroke-width: 0.8"/>
      </g>
     </g>
     <g id="text_21">
      <!-- 0.8 -->
      <g transform="translate(32.007812 105.020468) scale(0.15 -0.15)">
       <defs>
        <path id="DejaVuSerif-38" d="M 2981 1275 
Q 2981 1775 2732 2051 
Q 2484 2328 2034 2328 
Q 1584 2328 1336 2051 
Q 1088 1775 1088 1275 
Q 1088 772 1336 495 
Q 1584 219 2034 219 
Q 2484 219 2732 495 
Q 2981 772 2981 1275 
z
M 2853 3541 
Q 2853 3966 2637 4203 
Q 2422 4441 2034 4441 
Q 1650 4441 1433 4203 
Q 1216 3966 1216 3541 
Q 1216 3113 1433 2875 
Q 1650 2638 2034 2638 
Q 2422 2638 2637 2875 
Q 2853 3113 2853 3541 
z
M 2516 2484 
Q 3047 2413 3344 2092 
Q 3641 1772 3641 1275 
Q 3641 619 3225 264 
Q 2809 -91 2034 -91 
Q 1263 -91 845 264 
Q 428 619 428 1275 
Q 428 1772 725 2092 
Q 1022 2413 1556 2484 
Q 1084 2569 832 2842 
Q 581 3116 581 3541 
Q 581 4103 968 4426 
Q 1356 4750 2034 4750 
Q 2713 4750 3100 4426 
Q 3488 4103 3488 3541 
Q 3488 3116 3236 2842 
Q 2984 2569 2516 2484 
z
" transform="scale(0.015625)"/>
       </defs>
       <use xlink:href="#DejaVuSerif-30"/>
       <use xlink:href="#DejaVuSerif-2e" x="63.623047"/>
       <use xlink:href="#DejaVuSerif-38" x="95.410156"/>
      </g>
     </g>
    </g>
    <g id="ytick_6">
     <g id="line2d_41">
      <path d="M 62.8625 42.331328 
L 614.846922 42.331328 
" clip-path="url(#p9d79decbaf)" style="fill: none; stroke: #ffffff; stroke-width: 0.8; stroke-linecap: square"/>
     </g>
     <g id="line2d_42">
      <g>
       <use xlink:href="#m624c2f7209" x="62.8625" y="42.331328" style="stroke: #000000; stroke-width: 0.8"/>
      </g>
     </g>
     <g id="text_22">
      <!-- 1.0 -->
      <g transform="translate(32.007812 48.030156) scale(0.15 -0.15)">
       <defs>
        <path id="DejaVuSerif-31" d="M 909 0 
L 909 331 
L 1722 331 
L 1722 4213 
L 781 3603 
L 781 4013 
L 1919 4750 
L 2350 4750 
L 2350 331 
L 3163 331 
L 3163 0 
L 909 0 
z
" transform="scale(0.015625)"/>
       </defs>
       <use xlink:href="#DejaVuSerif-31"/>
       <use xlink:href="#DejaVuSerif-2e" x="63.623047"/>
       <use xlink:href="#DejaVuSerif-30" x="95.410156"/>
      </g>
     </g>
    </g>
    <g id="text_23">
     <!-- (p.u) -->
     <g transform="translate(24.472344 205.057029) rotate(-90) scale(0.17 -0.17)">
      <defs>
       <path id="DejaVuSerif-28" d="M 2041 -997 
Q 1281 -656 893 83 
Q 506 822 506 1931 
Q 506 3044 893 3783 
Q 1281 4522 2041 4863 
L 2041 4556 
Q 1559 4225 1350 3623 
Q 1141 3022 1141 1931 
Q 1141 844 1350 242 
Q 1559 -359 2041 -691 
L 2041 -997 
z
" transform="scale(0.015625)"/>
       <path id="DejaVuSerif-70" d="M 1313 1825 
L 1313 1497 
Q 1313 897 1542 583 
Q 1772 269 2209 269 
Q 2650 269 2876 622 
Q 3103 975 3103 1663 
Q 3103 2353 2876 2703 
Q 2650 3053 2209 3053 
Q 1772 3053 1542 2737 
Q 1313 2422 1313 1825 
z
M 738 2988 
L 184 2988 
L 184 3322 
L 1313 3322 
L 1313 2803 
Q 1481 3116 1742 3264 
Q 2003 3413 2388 3413 
Q 3000 3413 3387 2928 
Q 3775 2444 3775 1663 
Q 3775 881 3387 395 
Q 3000 -91 2388 -91 
Q 2003 -91 1742 57 
Q 1481 206 1313 519 
L 1313 -997 
L 1856 -997 
L 1856 -1331 
L 184 -1331 
L 184 -997 
L 738 -997 
L 738 2988 
z
" transform="scale(0.015625)"/>
       <path id="DejaVuSerif-29" d="M 453 -997 
L 453 -691 
Q 934 -359 1145 242 
Q 1356 844 1356 1931 
Q 1356 3022 1145 3623 
Q 934 4225 453 4556 
L 453 4863 
Q 1216 4522 1603 3783 
Q 1991 3044 1991 1931 
Q 1991 822 1603 83 
Q 1216 -656 453 -997 
z
" transform="scale(0.015625)"/>
      </defs>
      <use xlink:href="#DejaVuSerif-28"/>
      <use xlink:href="#DejaVuSerif-70" x="39.013672"/>
      <use xlink:href="#DejaVuSerif-2e" x="103.027344"/>
      <use xlink:href="#DejaVuSerif-75" x="134.814453"/>
      <use xlink:href="#DejaVuSerif-29" x="199.21875"/>
     </g>
    </g>
   </g>
   <g id="PolyCollection_1">
    <defs>
     <path id="mc9c5b3d104" d="M 87.952701 -320.276044 
L 87.952701 -317.966938 
L 123.795845 -220.992062 
L 159.63899 -208.214606 
L 195.482134 -192.369244 
L 231.325278 -155.207429 
L 267.168422 -152.421754 
L 303.011567 -151.696131 
L 338.854711 -141.743834 
L 374.697855 -137.875531 
L 410.540999 -137.356917 
L 446.384144 -135.049874 
L 482.227288 -131.953511 
L 518.070432 -131.266034 
L 553.913577 -129.076361 
L 589.756721 -125.61401 
L 589.756721 -127.010176 
L 589.756721 -127.010176 
L 553.913577 -130.398023 
L 518.070432 -132.242646 
L 482.227288 -133.361933 
L 446.384144 -136.023328 
L 410.540999 -138.374287 
L 374.697855 -140.372909 
L 338.854711 -144.140815 
L 303.011567 -153.041905 
L 267.168422 -154.51474 
L 231.325278 -156.745113 
L 195.482134 -193.911677 
L 159.63899 -210.263227 
L 123.795845 -224.885957 
L 87.952701 -320.276044 
z
" style="stroke: #008000; stroke-opacity: 0.2; stroke-width: 0.5"/>
    </defs>
    <g clip-path="url(#p9d79decbaf)">
     <use xlink:href="#mc9c5b3d104" x="0" y="432" style="fill: #008000; fill-opacity: 0.2; stroke: #008000; stroke-opacity: 0.2; stroke-width: 0.5"/>
    </g>
   </g>
   <g id="PolyCollection_2">
    <defs>
     <path id="m7c239a7359" d="M 87.952701 -104.717114 
L 87.952701 -104.717114 
L 123.795845 -104.717114 
L 159.63899 -104.717114 
L 195.482134 -104.717114 
L 231.325278 -104.717114 
L 267.168422 -104.717114 
L 303.011567 -104.717114 
L 338.854711 -104.717114 
L 374.697855 -104.717114 
L 410.540999 -104.717114 
L 446.384144 -104.717114 
L 482.227288 -104.717114 
L 518.070432 -193.642563 
L 553.913577 -389.668672 
L 589.756721 -104.717114 
L 589.756721 -104.717114 
L 589.756721 -104.717114 
L 553.913577 -389.668672 
L 518.070432 -197.781206 
L 482.227288 -104.717114 
L 446.384144 -104.717114 
L 410.540999 -104.717114 
L 374.697855 -104.717114 
L 338.854711 -104.717114 
L 303.011567 -104.717114 
L 267.168422 -104.717114 
L 231.325278 -104.717114 
L 195.482134 -104.717114 
L 159.63899 -104.717114 
L 123.795845 -104.717114 
L 87.952701 -104.717114 
z
" style="stroke: #ffa500; stroke-opacity: 0.2; stroke-width: 0.5"/>
    </defs>
    <g clip-path="url(#p9d79decbaf)">
     <use xlink:href="#m7c239a7359" x="0" y="432" style="fill: #ffa500; fill-opacity: 0.2; stroke: #ffa500; stroke-opacity: 0.2; stroke-width: 0.5"/>
    </g>
   </g>
   <g id="PolyCollection_3">
    <defs>
     <path id="m1ab5946354" d="M 87.952701 -104.717114 
L 87.952701 -104.717114 
L 123.795845 -104.717114 
L 159.63899 -104.717114 
L 195.482134 -104.717114 
L 231.325278 -104.717114 
L 267.168422 -104.717114 
L 303.011567 -104.717114 
L 338.854711 -104.717114 
L 374.697855 -104.717114 
L 410.540999 -104.717114 
L 446.384144 -104.717114 
L 482.227288 -104.717114 
L 518.070432 -104.717114 
L 553.913577 -104.717114 
L 589.756721 -104.717114 
L 589.756721 -104.717114 
L 589.756721 -104.717114 
L 553.913577 -104.717114 
L 518.070432 -104.717114 
L 482.227288 -104.717114 
L 446.384144 -104.717114 
L 410.540999 -104.717114 
L 374.697855 -104.717114 
L 338.854711 -104.717114 
L 303.011567 -104.717114 
L 267.168422 -104.717114 
L 231.325278 -104.717114 
L 195.482134 -104.717114 
L 159.63899 -104.717114 
L 123.795845 -104.717114 
L 87.952701 -104.717114 
z
" style="stroke: #800080; stroke-opacity: 0.2; stroke-width: 0.5"/>
    </defs>
    <g clip-path="url(#p9d79decbaf)">
     <use xlink:href="#m1ab5946354" x="0" y="432" style="fill: #800080; fill-opacity: 0.2; stroke: #800080; stroke-opacity: 0.2; stroke-width: 0.5"/>
    </g>
   </g>
   <g id="line2d_43">
    <path d="M 87.952701 112.918418 
L 123.795845 209.069463 
L 159.63899 222.71723 
L 195.482134 238.807174 
L 231.325278 276.017056 
L 267.168422 278.520573 
L 303.011567 279.669186 
L 338.854711 289.064508 
L 374.697855 292.847533 
L 410.540999 294.121305 
L 446.384144 296.465345 
L 482.227288 299.357259 
L 518.070432 300.266928 
L 553.913577 302.295745 
L 589.756721 305.702464 
" clip-path="url(#p9d79decbaf)" style="fill: none; stroke: #008000; stroke-width: 1.5; stroke-linecap: square"/>
    <defs>
     <path id="m37efad3af6" d="M 0 3 
C 0.795609 3 1.55874 2.683901 2.12132 2.12132 
C 2.683901 1.55874 3 0.795609 3 0 
C 3 -0.795609 2.683901 -1.55874 2.12132 -2.12132 
C 1.55874 -2.683901 0.795609 -3 0 -3 
C -0.795609 -3 -1.55874 -2.683901 -2.12132 -2.12132 
C -2.683901 -1.55874 -3 -0.795609 -3 0 
C -3 0.795609 -2.683901 1.55874 -2.12132 2.12132 
C -1.55874 2.683901 -0.795609 3 0 3 
z
" style="stroke: #ffffff; stroke-width: 0.75"/>
    </defs>
    <g clip-path="url(#p9d79decbaf)">
     <use xlink:href="#m37efad3af6" x="87.952701" y="112.918418" style="fill: #008000; stroke: #ffffff; stroke-width: 0.75"/>
     <use xlink:href="#m37efad3af6" x="123.795845" y="209.069463" style="fill: #008000; stroke: #ffffff; stroke-width: 0.75"/>
     <use xlink:href="#m37efad3af6" x="159.63899" y="222.71723" style="fill: #008000; stroke: #ffffff; stroke-width: 0.75"/>
     <use xlink:href="#m37efad3af6" x="195.482134" y="238.807174" style="fill: #008000; stroke: #ffffff; stroke-width: 0.75"/>
     <use xlink:href="#m37efad3af6" x="231.325278" y="276.017056" style="fill: #008000; stroke: #ffffff; stroke-width: 0.75"/>
     <use xlink:href="#m37efad3af6" x="267.168422" y="278.520573" style="fill: #008000; stroke: #ffffff; stroke-width: 0.75"/>
     <use xlink:href="#m37efad3af6" x="303.011567" y="279.669186" style="fill: #008000; stroke: #ffffff; stroke-width: 0.75"/>
     <use xlink:href="#m37efad3af6" x="338.854711" y="289.064508" style="fill: #008000; stroke: #ffffff; stroke-width: 0.75"/>
     <use xlink:href="#m37efad3af6" x="374.697855" y="292.847533" style="fill: #008000; stroke: #ffffff; stroke-width: 0.75"/>
     <use xlink:href="#m37efad3af6" x="410.540999" y="294.121305" style="fill: #008000; stroke: #ffffff; stroke-width: 0.75"/>
     <use xlink:href="#m37efad3af6" x="446.384144" y="296.465345" style="fill: #008000; stroke: #ffffff; stroke-width: 0.75"/>
     <use xlink:href="#m37efad3af6" x="482.227288" y="299.357259" style="fill: #008000; stroke: #ffffff; stroke-width: 0.75"/>
     <use xlink:href="#m37efad3af6" x="518.070432" y="300.266928" style="fill: #008000; stroke: #ffffff; stroke-width: 0.75"/>
     <use xlink:href="#m37efad3af6" x="553.913577" y="302.295745" style="fill: #008000; stroke: #ffffff; stroke-width: 0.75"/>
     <use xlink:href="#m37efad3af6" x="589.756721" y="305.702464" style="fill: #008000; stroke: #ffffff; stroke-width: 0.75"/>
    </g>
   </g>
   <g id="line2d_44">
    <path d="M 87.952701 327.282886 
L 123.795845 327.282886 
L 159.63899 327.282886 
L 195.482134 327.282886 
L 231.325278 327.282886 
L 267.168422 327.282886 
L 303.011567 327.282886 
L 338.854711 327.282886 
L 374.697855 327.282886 
L 410.540999 327.282886 
L 446.384144 327.282886 
L 482.227288 327.282886 
L 518.070432 236.352148 
L 553.913577 42.331328 
L 589.756721 327.282886 
" clip-path="url(#p9d79decbaf)" style="fill: none; stroke-dasharray: 6,2.25; stroke-dashoffset: 0; stroke: #ffa500; stroke-width: 1.5"/>
    <defs>
     <path id="m17c35b1de2" d="M 0 -3 
L -3 3 
L 3 3 
z
" style="stroke: #ffffff; stroke-width: 0.75; stroke-linejoin: miter"/>
    </defs>
    <g clip-path="url(#p9d79decbaf)">
     <use xlink:href="#m17c35b1de2" x="87.952701" y="327.282886" style="fill: #ffa500; stroke: #ffffff; stroke-width: 0.75; stroke-linejoin: miter"/>
     <use xlink:href="#m17c35b1de2" x="123.795845" y="327.282886" style="fill: #ffa500; stroke: #ffffff; stroke-width: 0.75; stroke-linejoin: miter"/>
     <use xlink:href="#m17c35b1de2" x="159.63899" y="327.282886" style="fill: #ffa500; stroke: #ffffff; stroke-width: 0.75; stroke-linejoin: miter"/>
     <use xlink:href="#m17c35b1de2" x="195.482134" y="327.282886" style="fill: #ffa500; stroke: #ffffff; stroke-width: 0.75; stroke-linejoin: miter"/>
     <use xlink:href="#m17c35b1de2" x="231.325278" y="327.282886" style="fill: #ffa500; stroke: #ffffff; stroke-width: 0.75; stroke-linejoin: miter"/>
     <use xlink:href="#m17c35b1de2" x="267.168422" y="327.282886" style="fill: #ffa500; stroke: #ffffff; stroke-width: 0.75; stroke-linejoin: miter"/>
     <use xlink:href="#m17c35b1de2" x="303.011567" y="327.282886" style="fill: #ffa500; stroke: #ffffff; stroke-width: 0.75; stroke-linejoin: miter"/>
     <use xlink:href="#m17c35b1de2" x="338.854711" y="327.282886" style="fill: #ffa500; stroke: #ffffff; stroke-width: 0.75; stroke-linejoin: miter"/>
     <use xlink:href="#m17c35b1de2" x="374.697855" y="327.282886" style="fill: #ffa500; stroke: #ffffff; stroke-width: 0.75; stroke-linejoin: miter"/>
     <use xlink:href="#m17c35b1de2" x="410.540999" y="327.282886" style="fill: #ffa500; stroke: #ffffff; stroke-width: 0.75; stroke-linejoin: miter"/>
     <use xlink:href="#m17c35b1de2" x="446.384144" y="327.282886" style="fill: #ffa500; stroke: #ffffff; stroke-width: 0.75; stroke-linejoin: miter"/>
     <use xlink:href="#m17c35b1de2" x="482.227288" y="327.282886" style="fill: #ffa500; stroke: #ffffff; stroke-width: 0.75; stroke-linejoin: miter"/>
     <use xlink:href="#m17c35b1de2" x="518.070432" y="236.352148" style="fill: #ffa500; stroke: #ffffff; stroke-width: 0.75; stroke-linejoin: miter"/>
     <use xlink:href="#m17c35b1de2" x="553.913577" y="42.331328" style="fill: #ffa500; stroke: #ffffff; stroke-width: 0.75; stroke-linejoin: miter"/>
     <use xlink:href="#m17c35b1de2" x="589.756721" y="327.282886" style="fill: #ffa500; stroke: #ffffff; stroke-width: 0.75; stroke-linejoin: miter"/>
    </g>
   </g>
   <g id="line2d_45">
    <path d="M 87.952701 327.282886 
L 123.795845 327.282886 
L 159.63899 327.282886 
L 195.482134 327.282886 
L 231.325278 327.282886 
L 267.168422 327.282886 
L 303.011567 327.282886 
L 338.854711 327.282886 
L 374.697855 327.282886 
L 410.540999 327.282886 
L 446.384144 327.282886 
L 482.227288 327.282886 
L 518.070432 327.282886 
L 553.913577 327.282886 
L 589.756721 327.282886 
" clip-path="url(#p9d79decbaf)" style="fill: none; stroke-dasharray: 1.5,1.5; stroke-dashoffset: 0; stroke: #800080; stroke-width: 1.5"/>
    <defs>
     <path id="m79f0bb8372" d="M 0 -3 
L -3 3 
L 3 3 
z
" style="stroke: #ffffff; stroke-width: 0.75; stroke-linejoin: miter"/>
    </defs>
    <g clip-path="url(#p9d79decbaf)">
     <use xlink:href="#m79f0bb8372" x="87.952701" y="327.282886" style="fill: #800080; stroke: #ffffff; stroke-width: 0.75; stroke-linejoin: miter"/>
     <use xlink:href="#m79f0bb8372" x="123.795845" y="327.282886" style="fill: #800080; stroke: #ffffff; stroke-width: 0.75; stroke-linejoin: miter"/>
     <use xlink:href="#m79f0bb8372" x="159.63899" y="327.282886" style="fill: #800080; stroke: #ffffff; stroke-width: 0.75; stroke-linejoin: miter"/>
     <use xlink:href="#m79f0bb8372" x="195.482134" y="327.282886" style="fill: #800080; stroke: #ffffff; stroke-width: 0.75; stroke-linejoin: miter"/>
     <use xlink:href="#m79f0bb8372" x="231.325278" y="327.282886" style="fill: #800080; stroke: #ffffff; stroke-width: 0.75; stroke-linejoin: miter"/>
     <use xlink:href="#m79f0bb8372" x="267.168422" y="327.282886" style="fill: #800080; stroke: #ffffff; stroke-width: 0.75; stroke-linejoin: miter"/>
     <use xlink:href="#m79f0bb8372" x="303.011567" y="327.282886" style="fill: #800080; stroke: #ffffff; stroke-width: 0.75; stroke-linejoin: miter"/>
     <use xlink:href="#m79f0bb8372" x="338.854711" y="327.282886" style="fill: #800080; stroke: #ffffff; stroke-width: 0.75; stroke-linejoin: miter"/>
     <use xlink:href="#m79f0bb8372" x="374.697855" y="327.282886" style="fill: #800080; stroke: #ffffff; stroke-width: 0.75; stroke-linejoin: miter"/>
     <use xlink:href="#m79f0bb8372" x="410.540999" y="327.282886" style="fill: #800080; stroke: #ffffff; stroke-width: 0.75; stroke-linejoin: miter"/>
     <use xlink:href="#m79f0bb8372" x="446.384144" y="327.282886" style="fill: #800080; stroke: #ffffff; stroke-width: 0.75; stroke-linejoin: miter"/>
     <use xlink:href="#m79f0bb8372" x="482.227288" y="327.282886" style="fill: #800080; stroke: #ffffff; stroke-width: 0.75; stroke-linejoin: miter"/>
     <use xlink:href="#m79f0bb8372" x="518.070432" y="327.282886" style="fill: #800080; stroke: #ffffff; stroke-width: 0.75; stroke-linejoin: miter"/>
     <use xlink:href="#m79f0bb8372" x="553.913577" y="327.282886" style="fill: #800080; stroke: #ffffff; stroke-width: 0.75; stroke-linejoin: miter"/>
     <use xlink:href="#m79f0bb8372" x="589.756721" y="327.282886" style="fill: #800080; stroke: #ffffff; stroke-width: 0.75; stroke-linejoin: miter"/>
    </g>
   </g>
   <g id="line2d_46"/>
   <g id="line2d_47"/>
   <g id="line2d_48"/>
   <g id="patch_3">
    <path d="M 62.8625 341.530464 
L 62.8625 28.08375 
" style="fill: none; stroke: #000000; stroke-width: 1.2; stroke-linejoin: miter; stroke-linecap: square"/>
   </g>
   <g id="patch_4">
    <path d="M 614.846922 341.530464 
L 614.846922 28.08375 
" style="fill: none; stroke: #000000; stroke-width: 1.2; stroke-linejoin: miter; stroke-linecap: square"/>
   </g>
   <g id="patch_5">
    <path d="M 62.8625 341.530464 
L 614.846922 341.530464 
" style="fill: none; stroke: #000000; stroke-width: 1.2; stroke-linejoin: miter; stroke-linecap: square"/>
   </g>
   <g id="patch_6">
    <path d="M 62.8625 28.08375 
L 614.846922 28.08375 
" style="fill: none; stroke: #000000; stroke-width: 1.2; stroke-linejoin: miter; stroke-linecap: square"/>
   </g>
   <g id="text_24">
    <!-- Highest average index for (PQ Buses) - SE-CW - IndiceSup -->
    <g transform="translate(115.77893 22.08375) scale(0.15 -0.15)">
     <defs>
      <path id="DejaVuSerif-48" d="M 353 0 
L 353 331 
L 947 331 
L 947 4331 
L 353 4331 
L 353 4666 
L 2175 4666 
L 2175 4331 
L 1581 4331 
L 1581 2719 
L 4000 2719 
L 4000 4331 
L 3406 4331 
L 3406 4666 
L 5228 4666 
L 5228 4331 
L 4634 4331 
L 4634 331 
L 5228 331 
L 5228 0 
L 3406 0 
L 3406 331 
L 4000 331 
L 4000 2338 
L 1581 2338 
L 1581 331 
L 2175 331 
L 2175 0 
L 353 0 
z
" transform="scale(0.015625)"/>
      <path id="DejaVuSerif-69" d="M 622 4353 
Q 622 4497 726 4603 
Q 831 4709 978 4709 
Q 1122 4709 1226 4603 
Q 1331 4497 1331 4353 
Q 1331 4206 1228 4103 
Q 1125 4000 978 4000 
Q 831 4000 726 4103 
Q 622 4206 622 4353 
z
M 1356 331 
L 1900 331 
L 1900 0 
L 231 0 
L 231 331 
L 781 331 
L 781 2988 
L 231 2988 
L 231 3322 
L 1356 3322 
L 1356 331 
z
" transform="scale(0.015625)"/>
      <path id="DejaVuSerif-67" d="M 3359 2988 
L 3359 72 
Q 3359 -644 2965 -1033 
Q 2572 -1422 1844 -1422 
Q 1516 -1422 1216 -1362 
Q 916 -1303 641 -1184 
L 641 -488 
L 941 -488 
Q 997 -813 1206 -963 
Q 1416 -1113 1806 -1113 
Q 2313 -1113 2548 -827 
Q 2784 -541 2784 72 
L 2784 519 
Q 2616 206 2355 57 
Q 2094 -91 1709 -91 
Q 1097 -91 708 395 
Q 319 881 319 1663 
Q 319 2444 706 2928 
Q 1094 3413 1709 3413 
Q 2094 3413 2355 3264 
Q 2616 3116 2784 2803 
L 2784 3322 
L 3909 3322 
L 3909 2988 
L 3359 2988 
z
M 2784 1825 
Q 2784 2422 2554 2737 
Q 2325 3053 1888 3053 
Q 1444 3053 1217 2703 
Q 991 2353 991 1663 
Q 991 975 1217 622 
Q 1444 269 1888 269 
Q 2325 269 2554 583 
Q 2784 897 2784 1497 
L 2784 1825 
z
" transform="scale(0.015625)"/>
      <path id="DejaVuSerif-68" d="M 263 0 
L 263 331 
L 781 331 
L 781 4531 
L 231 4531 
L 231 4863 
L 1356 4863 
L 1356 2731 
Q 1516 3069 1770 3241 
Q 2025 3413 2363 3413 
Q 2913 3413 3172 3097 
Q 3431 2781 3431 2113 
L 3431 331 
L 3944 331 
L 3944 0 
L 2356 0 
L 2356 331 
L 2853 331 
L 2853 1931 
Q 2853 2541 2704 2764 
Q 2556 2988 2175 2988 
Q 1775 2988 1565 2697 
Q 1356 2406 1356 1850 
L 1356 331 
L 1856 331 
L 1856 0 
L 263 0 
z
" transform="scale(0.015625)"/>
      <path id="DejaVuSerif-65" d="M 3469 1600 
L 991 1600 
L 991 1575 
Q 991 903 1244 561 
Q 1497 219 1991 219 
Q 2369 219 2611 417 
Q 2853 616 2950 1006 
L 3413 1006 
Q 3275 459 2904 184 
Q 2534 -91 1931 -91 
Q 1203 -91 761 389 
Q 319 869 319 1663 
Q 319 2450 753 2931 
Q 1188 3413 1894 3413 
Q 2647 3413 3050 2948 
Q 3453 2484 3469 1600 
z
M 2791 1931 
Q 2772 2513 2545 2808 
Q 2319 3103 1894 3103 
Q 1497 3103 1269 2806 
Q 1041 2509 991 1931 
L 2791 1931 
z
" transform="scale(0.015625)"/>
      <path id="DejaVuSerif-74" d="M 691 2988 
L 184 2988 
L 184 3322 
L 691 3322 
L 691 4353 
L 1269 4353 
L 1269 3322 
L 2350 3322 
L 2350 2988 
L 1269 2988 
L 1269 878 
Q 1269 456 1350 337 
Q 1431 219 1650 219 
Q 1875 219 1978 351 
Q 2081 484 2088 781 
L 2522 781 
Q 2497 328 2275 118 
Q 2053 -91 1600 -91 
Q 1103 -91 897 129 
Q 691 350 691 878 
L 691 2988 
z
" transform="scale(0.015625)"/>
      <path id="DejaVuSerif-20" transform="scale(0.015625)"/>
      <path id="DejaVuSerif-61" d="M 2547 1044 
L 2547 1747 
L 1806 1747 
Q 1378 1747 1168 1562 
Q 959 1378 959 997 
Q 959 650 1171 447 
Q 1384 244 1747 244 
Q 2106 244 2326 466 
Q 2547 688 2547 1044 
z
M 3122 2075 
L 3122 331 
L 3634 331 
L 3634 0 
L 2547 0 
L 2547 359 
Q 2356 128 2106 18 
Q 1856 -91 1522 -91 
Q 969 -91 644 203 
Q 319 497 319 997 
Q 319 1513 691 1797 
Q 1063 2081 1741 2081 
L 2547 2081 
L 2547 2309 
Q 2547 2688 2317 2895 
Q 2088 3103 1672 3103 
Q 1328 3103 1125 2947 
Q 922 2791 872 2484 
L 575 2484 
L 575 3156 
Q 875 3284 1158 3348 
Q 1441 3413 1709 3413 
Q 2400 3413 2761 3070 
Q 3122 2728 3122 2075 
z
" transform="scale(0.015625)"/>
      <path id="DejaVuSerif-76" d="M 1581 0 
L 359 2988 
L -19 2988 
L -19 3322 
L 1509 3322 
L 1509 2988 
L 978 2988 
L 1913 703 
L 2847 2988 
L 2350 2988 
L 2350 3322 
L 3597 3322 
L 3597 2988 
L 3225 2988 
L 2003 0 
L 1581 0 
z
" transform="scale(0.015625)"/>
      <path id="DejaVuSerif-72" d="M 3059 3328 
L 3059 2497 
L 2728 2497 
Q 2713 2744 2591 2866 
Q 2469 2988 2234 2988 
Q 1809 2988 1582 2694 
Q 1356 2400 1356 1850 
L 1356 331 
L 2022 331 
L 2022 0 
L 263 0 
L 263 331 
L 781 331 
L 781 2994 
L 231 2994 
L 231 3322 
L 1356 3322 
L 1356 2731 
Q 1525 3078 1790 3245 
Q 2056 3413 2438 3413 
Q 2578 3413 2733 3391 
Q 2888 3369 3059 3328 
z
" transform="scale(0.015625)"/>
      <path id="DejaVuSerif-6e" d="M 263 0 
L 263 331 
L 781 331 
L 781 2988 
L 231 2988 
L 231 3322 
L 1356 3322 
L 1356 2731 
Q 1516 3069 1770 3241 
Q 2025 3413 2363 3413 
Q 2913 3413 3172 3097 
Q 3431 2781 3431 2113 
L 3431 331 
L 3944 331 
L 3944 0 
L 2356 0 
L 2356 331 
L 2853 331 
L 2853 1931 
Q 2853 2541 2703 2767 
Q 2553 2994 2175 2994 
Q 1775 2994 1565 2701 
Q 1356 2409 1356 1850 
L 1356 331 
L 1856 331 
L 1856 0 
L 263 0 
z
" transform="scale(0.015625)"/>
      <path id="DejaVuSerif-64" d="M 3359 331 
L 3909 331 
L 3909 0 
L 2784 0 
L 2784 519 
Q 2616 206 2355 57 
Q 2094 -91 1709 -91 
Q 1097 -91 708 395 
Q 319 881 319 1663 
Q 319 2444 706 2928 
Q 1094 3413 1709 3413 
Q 2094 3413 2355 3264 
Q 2616 3116 2784 2803 
L 2784 4531 
L 2241 4531 
L 2241 4863 
L 3359 4863 
L 3359 331 
z
M 2784 1497 
L 2784 1825 
Q 2784 2422 2554 2737 
Q 2325 3053 1888 3053 
Q 1444 3053 1217 2703 
Q 991 2353 991 1663 
Q 991 975 1217 622 
Q 1444 269 1888 269 
Q 2325 269 2554 583 
Q 2784 897 2784 1497 
z
" transform="scale(0.015625)"/>
      <path id="DejaVuSerif-78" d="M 1863 2028 
L 2559 2988 
L 2113 2988 
L 2113 3322 
L 3391 3322 
L 3391 2988 
L 2950 2988 
L 2059 1759 
L 3097 331 
L 3531 331 
L 3531 0 
L 1997 0 
L 1997 331 
L 2419 331 
L 1697 1325 
L 972 331 
L 1403 331 
L 1403 0 
L 141 0 
L 141 331 
L 581 331 
L 1497 1594 
L 488 2988 
L 78 2988 
L 78 3322 
L 1563 3322 
L 1563 2988 
L 1166 2988 
L 1863 2028 
z
" transform="scale(0.015625)"/>
      <path id="DejaVuSerif-66" d="M 2753 4078 
L 2450 4078 
Q 2447 4313 2317 4434 
Q 2188 4556 1941 4556 
Q 1619 4556 1487 4379 
Q 1356 4203 1356 3750 
L 1356 3322 
L 2284 3322 
L 2284 2988 
L 1356 2988 
L 1356 331 
L 2094 331 
L 2094 0 
L 231 0 
L 231 331 
L 781 331 
L 781 2988 
L 231 2988 
L 231 3322 
L 781 3322 
L 781 3738 
Q 781 4294 1070 4578 
Q 1359 4863 1919 4863 
Q 2128 4863 2337 4825 
Q 2547 4788 2753 4709 
L 2753 4078 
z
" transform="scale(0.015625)"/>
      <path id="DejaVuSerif-6f" d="M 1925 219 
Q 2388 219 2623 584 
Q 2859 950 2859 1663 
Q 2859 2375 2623 2739 
Q 2388 3103 1925 3103 
Q 1463 3103 1227 2739 
Q 991 2375 991 1663 
Q 991 950 1228 584 
Q 1466 219 1925 219 
z
M 1925 -91 
Q 1200 -91 759 389 
Q 319 869 319 1663 
Q 319 2456 758 2934 
Q 1197 3413 1925 3413 
Q 2653 3413 3092 2934 
Q 3531 2456 3531 1663 
Q 3531 869 3092 389 
Q 2653 -91 1925 -91 
z
" transform="scale(0.015625)"/>
      <path id="DejaVuSerif-51" d="M 2700 -91 
Q 1628 -91 993 567 
Q 359 1225 359 2328 
Q 359 2894 529 3339 
Q 700 3784 1050 4134 
Q 1356 4441 1750 4595 
Q 2144 4750 2625 4750 
Q 3641 4750 4266 4084 
Q 4891 3419 4891 2328 
Q 4891 1403 4422 773 
Q 3953 144 3128 -38 
Q 3297 -247 3539 -347 
Q 3781 -447 4122 -447 
L 4219 -447 
L 4219 -1025 
Q 3691 -1000 3314 -767 
Q 2938 -534 2700 -91 
z
M 2625 244 
Q 3391 244 3781 770 
Q 4172 1297 4172 2328 
Q 4172 3363 3781 3889 
Q 3391 4416 2625 4416 
Q 1856 4416 1465 3889 
Q 1075 3363 1075 2328 
Q 1075 1297 1465 770 
Q 1856 244 2625 244 
z
" transform="scale(0.015625)"/>
      <path id="DejaVuSerif-57" d="M 4878 0 
L 4366 0 
L 3297 3794 
L 2228 0 
L 1716 0 
L 494 4331 
L 31 4331 
L 31 4666 
L 1734 4666 
L 1734 4331 
L 1153 4331 
L 2125 884 
L 3188 4666 
L 3694 4666 
L 4775 844 
L 5753 4331 
L 5216 4331 
L 5216 4666 
L 6559 4666 
L 6559 4331 
L 6100 4331 
L 4878 0 
z
" transform="scale(0.015625)"/>
      <path id="DejaVuSerif-63" d="M 3291 997 
Q 3169 466 2822 187 
Q 2475 -91 1925 -91 
Q 1200 -91 759 389 
Q 319 869 319 1663 
Q 319 2459 759 2936 
Q 1200 3413 1925 3413 
Q 2241 3413 2553 3339 
Q 2866 3266 3181 3116 
L 3181 2266 
L 2847 2266 
Q 2781 2703 2561 2903 
Q 2341 3103 1931 3103 
Q 1466 3103 1228 2742 
Q 991 2381 991 1663 
Q 991 944 1227 581 
Q 1463 219 1931 219 
Q 2303 219 2525 412 
Q 2747 606 2828 997 
L 3291 997 
z
" transform="scale(0.015625)"/>
     </defs>
     <use xlink:href="#DejaVuSerif-48"/>
     <use xlink:href="#DejaVuSerif-69" x="87.207031"/>
     <use xlink:href="#DejaVuSerif-67" x="119.189453"/>
     <use xlink:href="#DejaVuSerif-68" x="183.203125"/>
     <use xlink:href="#DejaVuSerif-65" x="247.607422"/>
     <use xlink:href="#DejaVuSerif-73" x="306.787109"/>
     <use xlink:href="#DejaVuSerif-74" x="358.105469"/>
     <use xlink:href="#DejaVuSerif-20" x="398.291016"/>
     <use xlink:href="#DejaVuSerif-61" x="430.078125"/>
     <use xlink:href="#DejaVuSerif-76" x="489.697266"/>
     <use xlink:href="#DejaVuSerif-65" x="546.191406"/>
     <use xlink:href="#DejaVuSerif-72" x="605.371094"/>
     <use xlink:href="#DejaVuSerif-61" x="653.173828"/>
     <use xlink:href="#DejaVuSerif-67" x="712.792969"/>
     <use xlink:href="#DejaVuSerif-65" x="776.806641"/>
     <use xlink:href="#DejaVuSerif-20" x="835.986328"/>
     <use xlink:href="#DejaVuSerif-69" x="867.773438"/>
     <use xlink:href="#DejaVuSerif-6e" x="899.755859"/>
     <use xlink:href="#DejaVuSerif-64" x="964.160156"/>
     <use xlink:href="#DejaVuSerif-65" x="1028.173828"/>
     <use xlink:href="#DejaVuSerif-78" x="1087.353516"/>
     <use xlink:href="#DejaVuSerif-20" x="1143.75"/>
     <use xlink:href="#DejaVuSerif-66" x="1175.537109"/>
     <use xlink:href="#DejaVuSerif-6f" x="1212.548828"/>
     <use xlink:href="#DejaVuSerif-72" x="1272.753906"/>
     <use xlink:href="#DejaVuSerif-20" x="1320.556641"/>
     <use xlink:href="#DejaVuSerif-28" x="1352.34375"/>
     <use xlink:href="#DejaVuSerif-50" x="1391.357422"/>
     <use xlink:href="#DejaVuSerif-51" x="1458.642578"/>
     <use xlink:href="#DejaVuSerif-20" x="1540.625"/>
     <use xlink:href="#DejaVuSerif-42" x="1572.412109"/>
     <use xlink:href="#DejaVuSerif-75" x="1645.898438"/>
     <use xlink:href="#DejaVuSerif-73" x="1710.302734"/>
     <use xlink:href="#DejaVuSerif-65" x="1761.621094"/>
     <use xlink:href="#DejaVuSerif-73" x="1820.800781"/>
     <use xlink:href="#DejaVuSerif-29" x="1872.119141"/>
     <use xlink:href="#DejaVuSerif-20" x="1911.132812"/>
     <use xlink:href="#DejaVuSerif-2d" x="1942.919922"/>
     <use xlink:href="#DejaVuSerif-20" x="1976.708984"/>
     <use xlink:href="#DejaVuSerif-53" x="2008.496094"/>
     <use xlink:href="#DejaVuSerif-45" x="2077.001953"/>
     <use xlink:href="#DejaVuSerif-2d" x="2151.875"/>
     <use xlink:href="#DejaVuSerif-43" x="2185.664062"/>
     <use xlink:href="#DejaVuSerif-57" x="2262.177734"/>
     <use xlink:href="#DejaVuSerif-20" x="2364.960938"/>
     <use xlink:href="#DejaVuSerif-2d" x="2396.748047"/>
     <use xlink:href="#DejaVuSerif-20" x="2430.537109"/>
     <use xlink:href="#DejaVuSerif-49" x="2462.324219"/>
     <use xlink:href="#DejaVuSerif-6e" x="2501.826172"/>
     <use xlink:href="#DejaVuSerif-64" x="2566.230469"/>
     <use xlink:href="#DejaVuSerif-69" x="2630.244141"/>
     <use xlink:href="#DejaVuSerif-63" x="2662.226562"/>
     <use xlink:href="#DejaVuSerif-65" x="2718.232422"/>
     <use xlink:href="#DejaVuSerif-53" x="2777.412109"/>
     <use xlink:href="#DejaVuSerif-75" x="2845.917969"/>
     <use xlink:href="#DejaVuSerif-70" x="2910.322266"/>
    </g>
   </g>
   <g id="legend_1">
    <g id="patch_7">
     <path d="M 623.946922 111.906562 
L 706.106922 111.906562 
Q 708.706922 111.906562 708.706922 109.306562 
L 708.706922 37.18375 
Q 708.706922 34.58375 706.106922 34.58375 
L 623.946922 34.58375 
Q 621.346922 34.58375 621.346922 37.18375 
L 621.346922 109.306562 
Q 621.346922 111.906562 623.946922 111.906562 
z
" style="fill: #e5e5e5; opacity: 0.8; stroke: #cccccc; stroke-width: 0.5; stroke-linejoin: miter"/>
    </g>
    <g id="text_25">
     <!-- Indices -->
     <g transform="translate(646.706609 47.382187) scale(0.1 -0.1)">
      <use xlink:href="#DejaVuSerif-49"/>
      <use xlink:href="#DejaVuSerif-6e" x="39.501953"/>
      <use xlink:href="#DejaVuSerif-64" x="103.90625"/>
      <use xlink:href="#DejaVuSerif-69" x="167.919922"/>
      <use xlink:href="#DejaVuSerif-63" x="199.902344"/>
      <use xlink:href="#DejaVuSerif-65" x="255.908203"/>
      <use xlink:href="#DejaVuSerif-73" x="315.087891"/>
     </g>
    </g>
    <g id="line2d_49">
     <defs>
      <path id="mf747ab9c29" d="M 0 5 
C 1.326016 5 2.597899 4.473168 3.535534 3.535534 
C 4.473168 2.597899 5 1.326016 5 0 
C 5 -1.326016 4.473168 -2.597899 3.535534 -3.535534 
C 2.597899 -4.473168 1.326016 -5 0 -5 
C -1.326016 -5 -2.597899 -4.473168 -3.535534 -3.535534 
C -4.473168 -2.597899 -5 -1.326016 -5 0 
C -5 1.326016 -4.473168 2.597899 -3.535534 3.535534 
C -2.597899 4.473168 -1.326016 5 0 5 
z
" style="stroke: #008000"/>
     </defs>
     <g>
      <use xlink:href="#mf747ab9c29" x="639.546922" y="61.289844" style="fill: #008000; stroke: #008000"/>
     </g>
    </g>
    <g id="text_26">
     <!-- $\mathrm{VPI}^\mathrm{u}$ -->
     <g transform="translate(662.946922 65.839844) scale(0.13 -0.13)">
      <use xlink:href="#DejaVuSerif-56" transform="translate(0 0.09375)"/>
      <use xlink:href="#DejaVuSerif-50" transform="translate(72.216797 0.09375)"/>
      <use xlink:href="#DejaVuSerif-49" transform="translate(139.501953 0.09375)"/>
      <use xlink:href="#DejaVuSerif-75" transform="translate(179.912266 36.428125) scale(0.7)"/>
     </g>
    </g>
    <g id="line2d_50">
     <defs>
      <path id="me8204b4203" d="M 0 -5 
L -5 5 
L 5 5 
z
" style="stroke: #ffa500; stroke-linejoin: miter"/>
     </defs>
     <g>
      <use xlink:href="#me8204b4203" x="639.546922" y="80.371406" style="fill: #ffa500; stroke: #ffa500; stroke-linejoin: miter"/>
     </g>
    </g>
    <g id="text_27">
     <!-- $\mathrm{RPI}^\mathrm{ind}$ -->
     <g transform="translate(662.946922 84.921406) scale(0.13 -0.13)">
      <use xlink:href="#DejaVuSerif-52" transform="translate(0 0.476562)"/>
      <use xlink:href="#DejaVuSerif-50" transform="translate(75.292969 0.476562)"/>
      <use xlink:href="#DejaVuSerif-49" transform="translate(142.578125 0.476562)"/>
      <use xlink:href="#DejaVuSerif-69" transform="translate(182.988438 36.810937) scale(0.7)"/>
      <use xlink:href="#DejaVuSerif-6e" transform="translate(205.376133 36.810937) scale(0.7)"/>
      <use xlink:href="#DejaVuSerif-64" transform="translate(250.459141 36.810937) scale(0.7)"/>
     </g>
    </g>
    <g id="line2d_51">
     <defs>
      <path id="m4f6f2ff713" d="M 0 -5 
L -5 5 
L 5 5 
z
" style="stroke: #800080; stroke-linejoin: miter"/>
     </defs>
     <g>
      <use xlink:href="#m4f6f2ff713" x="639.546922" y="99.452969" style="fill: #800080; stroke: #800080; stroke-linejoin: miter"/>
     </g>
    </g>
    <g id="text_28">
     <!-- $\mathrm{RPI}^\mathrm{cap}$ -->
     <g transform="translate(662.946922 104.002969) scale(0.13 -0.13)">
      <use xlink:href="#DejaVuSerif-52" transform="translate(0 0.335938)"/>
      <use xlink:href="#DejaVuSerif-50" transform="translate(75.292969 0.335938)"/>
      <use xlink:href="#DejaVuSerif-49" transform="translate(142.578125 0.335938)"/>
      <use xlink:href="#DejaVuSerif-63" transform="translate(182.988438 36.670312) scale(0.7)"/>
      <use xlink:href="#DejaVuSerif-61" transform="translate(222.192539 36.670312) scale(0.7)"/>
      <use xlink:href="#DejaVuSerif-70" transform="translate(263.925937 36.670312) scale(0.7)"/>
     </g>
    </g>
   </g>
  </g>
 </g>
 <defs>
  <clipPath id="p9d79decbaf">
   <rect x="62.8625" y="28.08375" width="551.984422" height="313.446714"/>
  </clipPath>
 </defs>
</svg>
