<?xml version="1.0" encoding="utf-8" standalone="no"?>
<!DOCTYPE svg PUBLIC "-//W3C//DTD SVG 1.1//EN"
  "http://www.w3.org/Graphics/SVG/1.1/DTD/svg11.dtd">
<svg xmlns:xlink="http://www.w3.org/1999/xlink" width="720pt" height="432pt" viewBox="0 0 720 432" xmlns="http://www.w3.org/2000/svg" version="1.1">
 <metadata>
  <rdf:RDF xmlns:dc="http://purl.org/dc/elements/1.1/" xmlns:cc="http://creativecommons.org/ns#" xmlns:rdf="http://www.w3.org/1999/02/22-rdf-syntax-ns#">
   <cc:Work>
    <dc:type rdf:resource="http://purl.org/dc/dcmitype/StillImage"/>
    <dc:date>2024-09-26T13:30:02.651884</dc:date>
    <dc:format>image/svg+xml</dc:format>
    <dc:creator>
     <cc:Agent>
      <dc:title>Matplotlib v3.7.2, https://matplotlib.org/</dc:title>
     </cc:Agent>
    </dc:creator>
   </cc:Work>
  </rdf:RDF>
 </metadata>
 <defs>
  <style type="text/css">*{stroke-linejoin: round; stroke-linecap: butt}</style>
 </defs>
 <g id="figure_1">
  <g id="patch_1">
   <path d="M 0 432 
L 720 432 
L 720 0 
L 0 0 
z
" style="fill: #ffffff"/>
  </g>
  <g id="axes_1">
   <g id="patch_2">
    <path d="M 62.8625 325.105464 
L 616.445969 325.105464 
L 616.445969 28.08375 
L 62.8625 28.08375 
z
" style="fill: #e5e5e5"/>
   </g>
   <g id="matplotlib.axis_1">
    <g id="xtick_1">
     <g id="line2d_1">
      <path d="M 88.025385 325.105464 
L 88.025385 28.08375 
" clip-path="url(#p46cc06bd33)" style="fill: none; stroke: #ffffff; stroke-width: 0.8; stroke-linecap: square"/>
     </g>
     <g id="line2d_2">
      <defs>
       <path id="m9ca968c84f" d="M 0 0 
L 0 3.5 
" style="stroke: #000000; stroke-width: 0.8"/>
      </defs>
      <g>
       <use xlink:href="#m9ca968c84f" x="88.025385" y="325.105464" style="stroke: #000000; stroke-width: 0.8"/>
      </g>
     </g>
     <g id="text_1">
      <!-- 203 - 440 kV -->
      <g transform="translate(31.239215 370.87106) rotate(-30) scale(0.1 -0.1)">
       <defs>
        <path id="DejaVuSerif-32" d="M 819 3553 
L 469 3553 
L 469 4384 
Q 803 4563 1142 4656 
Q 1481 4750 1806 4750 
Q 2534 4750 2956 4397 
Q 3378 4044 3378 3438 
Q 3378 2753 2422 1800 
Q 2347 1728 2309 1691 
L 1131 513 
L 3078 513 
L 3078 1088 
L 3444 1088 
L 3444 0 
L 434 0 
L 434 341 
L 1850 1753 
Q 2319 2222 2519 2614 
Q 2719 3006 2719 3438 
Q 2719 3909 2473 4175 
Q 2228 4441 1797 4441 
Q 1350 4441 1106 4219 
Q 863 3997 819 3553 
z
" transform="scale(0.015625)"/>
        <path id="DejaVuSerif-30" d="M 2034 219 
Q 2513 219 2750 744 
Q 2988 1269 2988 2328 
Q 2988 3391 2750 3916 
Q 2513 4441 2034 4441 
Q 1556 4441 1318 3916 
Q 1081 3391 1081 2328 
Q 1081 1269 1318 744 
Q 1556 219 2034 219 
z
M 2034 -91 
Q 1275 -91 848 546 
Q 422 1184 422 2328 
Q 422 3475 848 4112 
Q 1275 4750 2034 4750 
Q 2797 4750 3222 4112 
Q 3647 3475 3647 2328 
Q 3647 1184 3222 546 
Q 2797 -91 2034 -91 
z
" transform="scale(0.015625)"/>
        <path id="DejaVuSerif-33" d="M 622 4469 
Q 988 4606 1323 4678 
Q 1659 4750 1953 4750 
Q 2638 4750 3022 4454 
Q 3406 4159 3406 3634 
Q 3406 3213 3140 2930 
Q 2875 2647 2388 2547 
Q 2963 2466 3280 2130 
Q 3597 1794 3597 1259 
Q 3597 606 3158 257 
Q 2719 -91 1894 -91 
Q 1528 -91 1179 -12 
Q 831 66 488 225 
L 488 1131 
L 838 1131 
Q 869 681 1141 450 
Q 1413 219 1906 219 
Q 2384 219 2661 495 
Q 2938 772 2938 1253 
Q 2938 1803 2653 2086 
Q 2369 2369 1819 2369 
L 1522 2369 
L 1522 2688 
L 1678 2688 
Q 2225 2688 2498 2914 
Q 2772 3141 2772 3597 
Q 2772 4006 2547 4223 
Q 2322 4441 1900 4441 
Q 1478 4441 1245 4241 
Q 1013 4041 972 3647 
L 622 3647 
L 622 4469 
z
" transform="scale(0.015625)"/>
        <path id="DejaVuSerif-20" transform="scale(0.015625)"/>
        <path id="DejaVuSerif-2d" d="M 281 1959 
L 1881 1959 
L 1881 1472 
L 281 1472 
L 281 1959 
z
" transform="scale(0.015625)"/>
        <path id="DejaVuSerif-34" d="M 2234 1581 
L 2234 4063 
L 641 1581 
L 2234 1581 
z
M 3609 0 
L 1484 0 
L 1484 331 
L 2234 331 
L 2234 1247 
L 197 1247 
L 197 1588 
L 2241 4750 
L 2859 4750 
L 2859 1581 
L 3750 1581 
L 3750 1247 
L 2859 1247 
L 2859 331 
L 3609 331 
L 3609 0 
z
" transform="scale(0.015625)"/>
        <path id="DejaVuSerif-6b" d="M 1831 0 
L 219 0 
L 219 331 
L 738 331 
L 738 4531 
L 184 4531 
L 184 4863 
L 1313 4863 
L 1313 1697 
L 2713 2988 
L 2234 2988 
L 2234 3322 
L 3738 3322 
L 3738 2988 
L 3169 2988 
L 2181 2075 
L 3444 331 
L 3922 331 
L 3922 0 
L 2284 0 
L 2284 331 
L 2759 331 
L 1766 1697 
L 1313 1275 
L 1313 331 
L 1831 331 
L 1831 0 
z
" transform="scale(0.015625)"/>
        <path id="DejaVuSerif-56" d="M 1119 4331 
L 2497 750 
L 3872 4331 
L 3347 4331 
L 3347 4666 
L 4716 4666 
L 4716 4331 
L 4263 4331 
L 2597 0 
L 2059 0 
L 403 4331 
L -63 4331 
L -63 4666 
L 1638 4666 
L 1638 4331 
L 1119 4331 
z
" transform="scale(0.015625)"/>
       </defs>
       <use xlink:href="#DejaVuSerif-32"/>
       <use xlink:href="#DejaVuSerif-30" x="63.623047"/>
       <use xlink:href="#DejaVuSerif-33" x="127.246094"/>
       <use xlink:href="#DejaVuSerif-20" x="190.869141"/>
       <use xlink:href="#DejaVuSerif-2d" x="222.65625"/>
       <use xlink:href="#DejaVuSerif-20" x="256.445312"/>
       <use xlink:href="#DejaVuSerif-34" x="288.232422"/>
       <use xlink:href="#DejaVuSerif-34" x="351.855469"/>
       <use xlink:href="#DejaVuSerif-30" x="415.478516"/>
       <use xlink:href="#DejaVuSerif-20" x="479.101562"/>
       <use xlink:href="#DejaVuSerif-6b" x="510.888672"/>
       <use xlink:href="#DejaVuSerif-56" x="571.484375"/>
      </g>
     </g>
    </g>
    <g id="xtick_2">
     <g id="line2d_3">
      <path d="M 114.512632 325.105464 
L 114.512632 28.08375 
" clip-path="url(#p46cc06bd33)" style="fill: none; stroke: #ffffff; stroke-width: 0.8; stroke-linecap: square"/>
     </g>
     <g id="line2d_4">
      <g>
       <use xlink:href="#m9ca968c84f" x="114.512632" y="325.105464" style="stroke: #000000; stroke-width: 0.8"/>
      </g>
     </g>
     <g id="text_2">
      <!-- 352 - 345 kV -->
      <g transform="translate(57.726463 370.87106) rotate(-30) scale(0.1 -0.1)">
       <defs>
        <path id="DejaVuSerif-35" d="M 3219 4666 
L 3219 4153 
L 1081 4153 
L 1081 2816 
Q 1244 2928 1461 2984 
Q 1678 3041 1947 3041 
Q 2703 3041 3140 2622 
Q 3578 2203 3578 1478 
Q 3578 738 3136 323 
Q 2694 -91 1894 -91 
Q 1572 -91 1234 -12 
Q 897 66 544 225 
L 544 1131 
L 897 1131 
Q 925 688 1179 453 
Q 1434 219 1894 219 
Q 2388 219 2653 544 
Q 2919 869 2919 1478 
Q 2919 2084 2655 2407 
Q 2391 2731 1894 2731 
Q 1613 2731 1398 2631 
Q 1184 2531 1019 2322 
L 750 2322 
L 750 4666 
L 3219 4666 
z
" transform="scale(0.015625)"/>
       </defs>
       <use xlink:href="#DejaVuSerif-33"/>
       <use xlink:href="#DejaVuSerif-35" x="63.623047"/>
       <use xlink:href="#DejaVuSerif-32" x="127.246094"/>
       <use xlink:href="#DejaVuSerif-20" x="190.869141"/>
       <use xlink:href="#DejaVuSerif-2d" x="222.65625"/>
       <use xlink:href="#DejaVuSerif-20" x="256.445312"/>
       <use xlink:href="#DejaVuSerif-33" x="288.232422"/>
       <use xlink:href="#DejaVuSerif-34" x="351.855469"/>
       <use xlink:href="#DejaVuSerif-35" x="415.478516"/>
       <use xlink:href="#DejaVuSerif-20" x="479.101562"/>
       <use xlink:href="#DejaVuSerif-6b" x="510.888672"/>
       <use xlink:href="#DejaVuSerif-56" x="571.484375"/>
      </g>
     </g>
    </g>
    <g id="xtick_3">
     <g id="line2d_5">
      <path d="M 140.99988 325.105464 
L 140.99988 28.08375 
" clip-path="url(#p46cc06bd33)" style="fill: none; stroke: #ffffff; stroke-width: 0.8; stroke-linecap: square"/>
     </g>
     <g id="line2d_6">
      <g>
       <use xlink:href="#m9ca968c84f" x="140.99988" y="325.105464" style="stroke: #000000; stroke-width: 0.8"/>
      </g>
     </g>
     <g id="text_3">
      <!-- 513 - 230 kV -->
      <g transform="translate(84.21371 370.87106) rotate(-30) scale(0.1 -0.1)">
       <defs>
        <path id="DejaVuSerif-31" d="M 909 0 
L 909 331 
L 1722 331 
L 1722 4213 
L 781 3603 
L 781 4013 
L 1919 4750 
L 2350 4750 
L 2350 331 
L 3163 331 
L 3163 0 
L 909 0 
z
" transform="scale(0.015625)"/>
       </defs>
       <use xlink:href="#DejaVuSerif-35"/>
       <use xlink:href="#DejaVuSerif-31" x="63.623047"/>
       <use xlink:href="#DejaVuSerif-33" x="127.246094"/>
       <use xlink:href="#DejaVuSerif-20" x="190.869141"/>
       <use xlink:href="#DejaVuSerif-2d" x="222.65625"/>
       <use xlink:href="#DejaVuSerif-20" x="256.445312"/>
       <use xlink:href="#DejaVuSerif-32" x="288.232422"/>
       <use xlink:href="#DejaVuSerif-33" x="351.855469"/>
       <use xlink:href="#DejaVuSerif-30" x="415.478516"/>
       <use xlink:href="#DejaVuSerif-20" x="479.101562"/>
       <use xlink:href="#DejaVuSerif-6b" x="510.888672"/>
       <use xlink:href="#DejaVuSerif-56" x="571.484375"/>
      </g>
     </g>
    </g>
    <g id="xtick_4">
     <g id="line2d_7">
      <path d="M 167.487127 325.105464 
L 167.487127 28.08375 
" clip-path="url(#p46cc06bd33)" style="fill: none; stroke: #ffffff; stroke-width: 0.8; stroke-linecap: square"/>
     </g>
     <g id="line2d_8">
      <g>
       <use xlink:href="#m9ca968c84f" x="167.487127" y="325.105464" style="stroke: #000000; stroke-width: 0.8"/>
      </g>
     </g>
     <g id="text_4">
      <!-- 472 - 230 kV -->
      <g transform="translate(110.700957 370.87106) rotate(-30) scale(0.1 -0.1)">
       <defs>
        <path id="DejaVuSerif-37" d="M 3609 4347 
L 1784 0 
L 1319 0 
L 3059 4153 
L 903 4153 
L 903 3578 
L 538 3578 
L 538 4666 
L 3609 4666 
L 3609 4347 
z
" transform="scale(0.015625)"/>
       </defs>
       <use xlink:href="#DejaVuSerif-34"/>
       <use xlink:href="#DejaVuSerif-37" x="63.623047"/>
       <use xlink:href="#DejaVuSerif-32" x="127.246094"/>
       <use xlink:href="#DejaVuSerif-20" x="190.869141"/>
       <use xlink:href="#DejaVuSerif-2d" x="222.65625"/>
       <use xlink:href="#DejaVuSerif-20" x="256.445312"/>
       <use xlink:href="#DejaVuSerif-32" x="288.232422"/>
       <use xlink:href="#DejaVuSerif-33" x="351.855469"/>
       <use xlink:href="#DejaVuSerif-30" x="415.478516"/>
       <use xlink:href="#DejaVuSerif-20" x="479.101562"/>
       <use xlink:href="#DejaVuSerif-6b" x="510.888672"/>
       <use xlink:href="#DejaVuSerif-56" x="571.484375"/>
      </g>
     </g>
    </g>
    <g id="xtick_5">
     <g id="line2d_9">
      <path d="M 193.974374 325.105464 
L 193.974374 28.08375 
" clip-path="url(#p46cc06bd33)" style="fill: none; stroke: #ffffff; stroke-width: 0.8; stroke-linecap: square"/>
     </g>
     <g id="line2d_10">
      <g>
       <use xlink:href="#m9ca968c84f" x="193.974374" y="325.105464" style="stroke: #000000; stroke-width: 0.8"/>
      </g>
     </g>
     <g id="text_5">
      <!-- 401 - 440 kV -->
      <g transform="translate(137.188205 370.87106) rotate(-30) scale(0.1 -0.1)">
       <use xlink:href="#DejaVuSerif-34"/>
       <use xlink:href="#DejaVuSerif-30" x="63.623047"/>
       <use xlink:href="#DejaVuSerif-31" x="127.246094"/>
       <use xlink:href="#DejaVuSerif-20" x="190.869141"/>
       <use xlink:href="#DejaVuSerif-2d" x="222.65625"/>
       <use xlink:href="#DejaVuSerif-20" x="256.445312"/>
       <use xlink:href="#DejaVuSerif-34" x="288.232422"/>
       <use xlink:href="#DejaVuSerif-34" x="351.855469"/>
       <use xlink:href="#DejaVuSerif-30" x="415.478516"/>
       <use xlink:href="#DejaVuSerif-20" x="479.101562"/>
       <use xlink:href="#DejaVuSerif-6b" x="510.888672"/>
       <use xlink:href="#DejaVuSerif-56" x="571.484375"/>
      </g>
     </g>
    </g>
    <g id="xtick_6">
     <g id="line2d_11">
      <path d="M 220.461621 325.105464 
L 220.461621 28.08375 
" clip-path="url(#p46cc06bd33)" style="fill: none; stroke: #ffffff; stroke-width: 0.8; stroke-linecap: square"/>
     </g>
     <g id="line2d_12">
      <g>
       <use xlink:href="#m9ca968c84f" x="220.461621" y="325.105464" style="stroke: #000000; stroke-width: 0.8"/>
      </g>
     </g>
     <g id="text_6">
      <!-- 302 - 345 kV -->
      <g transform="translate(163.675452 370.87106) rotate(-30) scale(0.1 -0.1)">
       <use xlink:href="#DejaVuSerif-33"/>
       <use xlink:href="#DejaVuSerif-30" x="63.623047"/>
       <use xlink:href="#DejaVuSerif-32" x="127.246094"/>
       <use xlink:href="#DejaVuSerif-20" x="190.869141"/>
       <use xlink:href="#DejaVuSerif-2d" x="222.65625"/>
       <use xlink:href="#DejaVuSerif-20" x="256.445312"/>
       <use xlink:href="#DejaVuSerif-33" x="288.232422"/>
       <use xlink:href="#DejaVuSerif-34" x="351.855469"/>
       <use xlink:href="#DejaVuSerif-35" x="415.478516"/>
       <use xlink:href="#DejaVuSerif-20" x="479.101562"/>
       <use xlink:href="#DejaVuSerif-6b" x="510.888672"/>
       <use xlink:href="#DejaVuSerif-56" x="571.484375"/>
      </g>
     </g>
    </g>
    <g id="xtick_7">
     <g id="line2d_13">
      <path d="M 246.948869 325.105464 
L 246.948869 28.08375 
" clip-path="url(#p46cc06bd33)" style="fill: none; stroke: #ffffff; stroke-width: 0.8; stroke-linecap: square"/>
     </g>
     <g id="line2d_14">
      <g>
       <use xlink:href="#m9ca968c84f" x="246.948869" y="325.105464" style="stroke: #000000; stroke-width: 0.8"/>
      </g>
     </g>
     <g id="text_7">
      <!-- 353 - 230 kV -->
      <g transform="translate(190.162699 370.87106) rotate(-30) scale(0.1 -0.1)">
       <use xlink:href="#DejaVuSerif-33"/>
       <use xlink:href="#DejaVuSerif-35" x="63.623047"/>
       <use xlink:href="#DejaVuSerif-33" x="127.246094"/>
       <use xlink:href="#DejaVuSerif-20" x="190.869141"/>
       <use xlink:href="#DejaVuSerif-2d" x="222.65625"/>
       <use xlink:href="#DejaVuSerif-20" x="256.445312"/>
       <use xlink:href="#DejaVuSerif-32" x="288.232422"/>
       <use xlink:href="#DejaVuSerif-33" x="351.855469"/>
       <use xlink:href="#DejaVuSerif-30" x="415.478516"/>
       <use xlink:href="#DejaVuSerif-20" x="479.101562"/>
       <use xlink:href="#DejaVuSerif-6b" x="510.888672"/>
       <use xlink:href="#DejaVuSerif-56" x="571.484375"/>
      </g>
     </g>
    </g>
    <g id="xtick_8">
     <g id="line2d_15">
      <path d="M 273.436116 325.105464 
L 273.436116 28.08375 
" clip-path="url(#p46cc06bd33)" style="fill: none; stroke: #ffffff; stroke-width: 0.8; stroke-linecap: square"/>
     </g>
     <g id="line2d_16">
      <g>
       <use xlink:href="#m9ca968c84f" x="273.436116" y="325.105464" style="stroke: #000000; stroke-width: 0.8"/>
      </g>
     </g>
     <g id="text_8">
      <!-- 562 - 345 kV -->
      <g transform="translate(216.649946 370.87106) rotate(-30) scale(0.1 -0.1)">
       <defs>
        <path id="DejaVuSerif-36" d="M 2094 219 
Q 2534 219 2771 542 
Q 3009 866 3009 1472 
Q 3009 2078 2771 2401 
Q 2534 2725 2094 2725 
Q 1647 2725 1412 2412 
Q 1178 2100 1178 1509 
Q 1178 888 1415 553 
Q 1653 219 2094 219 
z
M 1075 2569 
Q 1288 2803 1556 2918 
Q 1825 3034 2163 3034 
Q 2859 3034 3264 2615 
Q 3669 2197 3669 1472 
Q 3669 763 3233 336 
Q 2797 -91 2069 -91 
Q 1278 -91 853 498 
Q 428 1088 428 2181 
Q 428 3406 931 4078 
Q 1434 4750 2350 4750 
Q 2597 4750 2869 4703 
Q 3141 4656 3425 4563 
L 3425 3794 
L 3072 3794 
Q 3034 4109 2831 4275 
Q 2628 4441 2284 4441 
Q 1678 4441 1381 3981 
Q 1084 3522 1075 2569 
z
" transform="scale(0.015625)"/>
       </defs>
       <use xlink:href="#DejaVuSerif-35"/>
       <use xlink:href="#DejaVuSerif-36" x="63.623047"/>
       <use xlink:href="#DejaVuSerif-32" x="127.246094"/>
       <use xlink:href="#DejaVuSerif-20" x="190.869141"/>
       <use xlink:href="#DejaVuSerif-2d" x="222.65625"/>
       <use xlink:href="#DejaVuSerif-20" x="256.445312"/>
       <use xlink:href="#DejaVuSerif-33" x="288.232422"/>
       <use xlink:href="#DejaVuSerif-34" x="351.855469"/>
       <use xlink:href="#DejaVuSerif-35" x="415.478516"/>
       <use xlink:href="#DejaVuSerif-20" x="479.101562"/>
       <use xlink:href="#DejaVuSerif-6b" x="510.888672"/>
       <use xlink:href="#DejaVuSerif-56" x="571.484375"/>
      </g>
     </g>
    </g>
    <g id="xtick_9">
     <g id="line2d_17">
      <path d="M 299.923363 325.105464 
L 299.923363 28.08375 
" clip-path="url(#p46cc06bd33)" style="fill: none; stroke: #ffffff; stroke-width: 0.8; stroke-linecap: square"/>
     </g>
     <g id="line2d_18">
      <g>
       <use xlink:href="#m9ca968c84f" x="299.923363" y="325.105464" style="stroke: #000000; stroke-width: 0.8"/>
      </g>
     </g>
     <g id="text_9">
      <!-- 402 - 230 kV -->
      <g transform="translate(243.137194 370.87106) rotate(-30) scale(0.1 -0.1)">
       <use xlink:href="#DejaVuSerif-34"/>
       <use xlink:href="#DejaVuSerif-30" x="63.623047"/>
       <use xlink:href="#DejaVuSerif-32" x="127.246094"/>
       <use xlink:href="#DejaVuSerif-20" x="190.869141"/>
       <use xlink:href="#DejaVuSerif-2d" x="222.65625"/>
       <use xlink:href="#DejaVuSerif-20" x="256.445312"/>
       <use xlink:href="#DejaVuSerif-32" x="288.232422"/>
       <use xlink:href="#DejaVuSerif-33" x="351.855469"/>
       <use xlink:href="#DejaVuSerif-30" x="415.478516"/>
       <use xlink:href="#DejaVuSerif-20" x="479.101562"/>
       <use xlink:href="#DejaVuSerif-6b" x="510.888672"/>
       <use xlink:href="#DejaVuSerif-56" x="571.484375"/>
      </g>
     </g>
    </g>
    <g id="xtick_10">
     <g id="line2d_19">
      <path d="M 326.410611 325.105464 
L 326.410611 28.08375 
" clip-path="url(#p46cc06bd33)" style="fill: none; stroke: #ffffff; stroke-width: 0.8; stroke-linecap: square"/>
     </g>
     <g id="line2d_20">
      <g>
       <use xlink:href="#m9ca968c84f" x="326.410611" y="325.105464" style="stroke: #000000; stroke-width: 0.8"/>
      </g>
     </g>
     <g id="text_10">
      <!-- 205 - 230 kV -->
      <g transform="translate(269.624441 370.87106) rotate(-30) scale(0.1 -0.1)">
       <use xlink:href="#DejaVuSerif-32"/>
       <use xlink:href="#DejaVuSerif-30" x="63.623047"/>
       <use xlink:href="#DejaVuSerif-35" x="127.246094"/>
       <use xlink:href="#DejaVuSerif-20" x="190.869141"/>
       <use xlink:href="#DejaVuSerif-2d" x="222.65625"/>
       <use xlink:href="#DejaVuSerif-20" x="256.445312"/>
       <use xlink:href="#DejaVuSerif-32" x="288.232422"/>
       <use xlink:href="#DejaVuSerif-33" x="351.855469"/>
       <use xlink:href="#DejaVuSerif-30" x="415.478516"/>
       <use xlink:href="#DejaVuSerif-20" x="479.101562"/>
       <use xlink:href="#DejaVuSerif-6b" x="510.888672"/>
       <use xlink:href="#DejaVuSerif-56" x="571.484375"/>
      </g>
     </g>
    </g>
    <g id="xtick_11">
     <g id="line2d_21">
      <path d="M 352.897858 325.105464 
L 352.897858 28.08375 
" clip-path="url(#p46cc06bd33)" style="fill: none; stroke: #ffffff; stroke-width: 0.8; stroke-linecap: square"/>
     </g>
     <g id="line2d_22">
      <g>
       <use xlink:href="#m9ca968c84f" x="352.897858" y="325.105464" style="stroke: #000000; stroke-width: 0.8"/>
      </g>
     </g>
     <g id="text_11">
      <!-- 204 - 345 kV -->
      <g transform="translate(296.111688 370.87106) rotate(-30) scale(0.1 -0.1)">
       <use xlink:href="#DejaVuSerif-32"/>
       <use xlink:href="#DejaVuSerif-30" x="63.623047"/>
       <use xlink:href="#DejaVuSerif-34" x="127.246094"/>
       <use xlink:href="#DejaVuSerif-20" x="190.869141"/>
       <use xlink:href="#DejaVuSerif-2d" x="222.65625"/>
       <use xlink:href="#DejaVuSerif-20" x="256.445312"/>
       <use xlink:href="#DejaVuSerif-33" x="288.232422"/>
       <use xlink:href="#DejaVuSerif-34" x="351.855469"/>
       <use xlink:href="#DejaVuSerif-35" x="415.478516"/>
       <use xlink:href="#DejaVuSerif-20" x="479.101562"/>
       <use xlink:href="#DejaVuSerif-6b" x="510.888672"/>
       <use xlink:href="#DejaVuSerif-56" x="571.484375"/>
      </g>
     </g>
    </g>
    <g id="xtick_12">
     <g id="line2d_23">
      <path d="M 379.385105 325.105464 
L 379.385105 28.08375 
" clip-path="url(#p46cc06bd33)" style="fill: none; stroke: #ffffff; stroke-width: 0.8; stroke-linecap: square"/>
     </g>
     <g id="line2d_24">
      <g>
       <use xlink:href="#m9ca968c84f" x="379.385105" y="325.105464" style="stroke: #000000; stroke-width: 0.8"/>
      </g>
     </g>
     <g id="text_12">
      <!-- 362 - Consumidores RB -->
      <g transform="translate(274.857932 398.434341) rotate(-30) scale(0.1 -0.1)">
       <defs>
        <path id="DejaVuSerif-43" d="M 4513 1234 
Q 4306 581 3820 245 
Q 3334 -91 2591 -91 
Q 2134 -91 1743 65 
Q 1353 222 1050 525 
Q 700 875 529 1320 
Q 359 1766 359 2328 
Q 359 3416 987 4083 
Q 1616 4750 2644 4750 
Q 3025 4750 3456 4650 
Q 3888 4550 4384 4347 
L 4384 3272 
L 4031 3272 
Q 3916 3859 3567 4137 
Q 3219 4416 2591 4416 
Q 1844 4416 1459 3886 
Q 1075 3356 1075 2328 
Q 1075 1303 1459 773 
Q 1844 244 2591 244 
Q 3113 244 3450 492 
Q 3788 741 3938 1234 
L 4513 1234 
z
" transform="scale(0.015625)"/>
        <path id="DejaVuSerif-6f" d="M 1925 219 
Q 2388 219 2623 584 
Q 2859 950 2859 1663 
Q 2859 2375 2623 2739 
Q 2388 3103 1925 3103 
Q 1463 3103 1227 2739 
Q 991 2375 991 1663 
Q 991 950 1228 584 
Q 1466 219 1925 219 
z
M 1925 -91 
Q 1200 -91 759 389 
Q 319 869 319 1663 
Q 319 2456 758 2934 
Q 1197 3413 1925 3413 
Q 2653 3413 3092 2934 
Q 3531 2456 3531 1663 
Q 3531 869 3092 389 
Q 2653 -91 1925 -91 
z
" transform="scale(0.015625)"/>
        <path id="DejaVuSerif-6e" d="M 263 0 
L 263 331 
L 781 331 
L 781 2988 
L 231 2988 
L 231 3322 
L 1356 3322 
L 1356 2731 
Q 1516 3069 1770 3241 
Q 2025 3413 2363 3413 
Q 2913 3413 3172 3097 
Q 3431 2781 3431 2113 
L 3431 331 
L 3944 331 
L 3944 0 
L 2356 0 
L 2356 331 
L 2853 331 
L 2853 1931 
Q 2853 2541 2703 2767 
Q 2553 2994 2175 2994 
Q 1775 2994 1565 2701 
Q 1356 2409 1356 1850 
L 1356 331 
L 1856 331 
L 1856 0 
L 263 0 
z
" transform="scale(0.015625)"/>
        <path id="DejaVuSerif-73" d="M 359 184 
L 359 959 
L 691 959 
Q 703 588 923 403 
Q 1144 219 1575 219 
Q 1963 219 2166 364 
Q 2369 509 2369 788 
Q 2369 1006 2220 1140 
Q 2072 1275 1594 1428 
L 1178 1569 
Q 750 1706 558 1912 
Q 366 2119 366 2438 
Q 366 2894 700 3153 
Q 1034 3413 1625 3413 
Q 1888 3413 2178 3344 
Q 2469 3275 2778 3144 
L 2778 2419 
L 2447 2419 
Q 2434 2741 2221 2922 
Q 2009 3103 1644 3103 
Q 1281 3103 1095 2975 
Q 909 2847 909 2591 
Q 909 2381 1050 2254 
Q 1191 2128 1613 1997 
L 2069 1856 
Q 2541 1709 2748 1489 
Q 2956 1269 2956 922 
Q 2956 450 2595 179 
Q 2234 -91 1600 -91 
Q 1278 -91 972 -22 
Q 666 47 359 184 
z
" transform="scale(0.015625)"/>
        <path id="DejaVuSerif-75" d="M 2266 3322 
L 3341 3322 
L 3341 331 
L 3884 331 
L 3884 0 
L 2766 0 
L 2766 588 
Q 2606 256 2353 82 
Q 2100 -91 1766 -91 
Q 1213 -91 952 223 
Q 691 538 691 1209 
L 691 2988 
L 172 2988 
L 172 3322 
L 1269 3322 
L 1269 1388 
Q 1269 781 1417 556 
Q 1566 331 1947 331 
Q 2347 331 2556 625 
Q 2766 919 2766 1478 
L 2766 2988 
L 2266 2988 
L 2266 3322 
z
" transform="scale(0.015625)"/>
        <path id="DejaVuSerif-6d" d="M 3316 2675 
Q 3481 3041 3739 3227 
Q 3997 3413 4341 3413 
Q 4863 3413 5119 3089 
Q 5375 2766 5375 2113 
L 5375 331 
L 5894 331 
L 5894 0 
L 4300 0 
L 4300 331 
L 4800 331 
L 4800 2047 
Q 4800 2556 4650 2772 
Q 4500 2988 4153 2988 
Q 3769 2988 3567 2697 
Q 3366 2406 3366 1850 
L 3366 331 
L 3866 331 
L 3866 0 
L 2291 0 
L 2291 331 
L 2791 331 
L 2791 2069 
Q 2791 2566 2641 2777 
Q 2491 2988 2144 2988 
Q 1759 2988 1557 2697 
Q 1356 2406 1356 1850 
L 1356 331 
L 1856 331 
L 1856 0 
L 263 0 
L 263 331 
L 781 331 
L 781 2994 
L 231 2994 
L 231 3322 
L 1356 3322 
L 1356 2731 
Q 1516 3063 1762 3238 
Q 2009 3413 2322 3413 
Q 2709 3413 2968 3220 
Q 3228 3028 3316 2675 
z
" transform="scale(0.015625)"/>
        <path id="DejaVuSerif-69" d="M 622 4353 
Q 622 4497 726 4603 
Q 831 4709 978 4709 
Q 1122 4709 1226 4603 
Q 1331 4497 1331 4353 
Q 1331 4206 1228 4103 
Q 1125 4000 978 4000 
Q 831 4000 726 4103 
Q 622 4206 622 4353 
z
M 1356 331 
L 1900 331 
L 1900 0 
L 231 0 
L 231 331 
L 781 331 
L 781 2988 
L 231 2988 
L 231 3322 
L 1356 3322 
L 1356 331 
z
" transform="scale(0.015625)"/>
        <path id="DejaVuSerif-64" d="M 3359 331 
L 3909 331 
L 3909 0 
L 2784 0 
L 2784 519 
Q 2616 206 2355 57 
Q 2094 -91 1709 -91 
Q 1097 -91 708 395 
Q 319 881 319 1663 
Q 319 2444 706 2928 
Q 1094 3413 1709 3413 
Q 2094 3413 2355 3264 
Q 2616 3116 2784 2803 
L 2784 4531 
L 2241 4531 
L 2241 4863 
L 3359 4863 
L 3359 331 
z
M 2784 1497 
L 2784 1825 
Q 2784 2422 2554 2737 
Q 2325 3053 1888 3053 
Q 1444 3053 1217 2703 
Q 991 2353 991 1663 
Q 991 975 1217 622 
Q 1444 269 1888 269 
Q 2325 269 2554 583 
Q 2784 897 2784 1497 
z
" transform="scale(0.015625)"/>
        <path id="DejaVuSerif-72" d="M 3059 3328 
L 3059 2497 
L 2728 2497 
Q 2713 2744 2591 2866 
Q 2469 2988 2234 2988 
Q 1809 2988 1582 2694 
Q 1356 2400 1356 1850 
L 1356 331 
L 2022 331 
L 2022 0 
L 263 0 
L 263 331 
L 781 331 
L 781 2994 
L 231 2994 
L 231 3322 
L 1356 3322 
L 1356 2731 
Q 1525 3078 1790 3245 
Q 2056 3413 2438 3413 
Q 2578 3413 2733 3391 
Q 2888 3369 3059 3328 
z
" transform="scale(0.015625)"/>
        <path id="DejaVuSerif-65" d="M 3469 1600 
L 991 1600 
L 991 1575 
Q 991 903 1244 561 
Q 1497 219 1991 219 
Q 2369 219 2611 417 
Q 2853 616 2950 1006 
L 3413 1006 
Q 3275 459 2904 184 
Q 2534 -91 1931 -91 
Q 1203 -91 761 389 
Q 319 869 319 1663 
Q 319 2450 753 2931 
Q 1188 3413 1894 3413 
Q 2647 3413 3050 2948 
Q 3453 2484 3469 1600 
z
M 2791 1931 
Q 2772 2513 2545 2808 
Q 2319 3103 1894 3103 
Q 1497 3103 1269 2806 
Q 1041 2509 991 1931 
L 2791 1931 
z
" transform="scale(0.015625)"/>
        <path id="DejaVuSerif-52" d="M 3066 2316 
Q 3284 2256 3442 2114 
Q 3600 1972 3725 1716 
L 4403 331 
L 4972 331 
L 4972 0 
L 3872 0 
L 3144 1484 
Q 2934 1916 2759 2042 
Q 2584 2169 2278 2169 
L 1581 2169 
L 1581 331 
L 2241 331 
L 2241 0 
L 353 0 
L 353 331 
L 947 331 
L 947 4331 
L 353 4331 
L 353 4666 
L 2719 4666 
Q 3400 4666 3770 4341 
Q 4141 4016 4141 3419 
Q 4141 2938 3870 2661 
Q 3600 2384 3066 2316 
z
M 1581 2503 
L 2503 2503 
Q 2975 2503 3200 2726 
Q 3425 2950 3425 3419 
Q 3425 3888 3200 4109 
Q 2975 4331 2503 4331 
L 1581 4331 
L 1581 2503 
z
" transform="scale(0.015625)"/>
        <path id="DejaVuSerif-42" d="M 1581 331 
L 2516 331 
Q 3078 331 3337 575 
Q 3597 819 3597 1350 
Q 3597 1878 3339 2120 
Q 3081 2363 2516 2363 
L 1581 2363 
L 1581 331 
z
M 1581 2694 
L 2375 2694 
Q 2888 2694 3123 2891 
Q 3359 3088 3359 3513 
Q 3359 3941 3123 4136 
Q 2888 4331 2375 4331 
L 1581 4331 
L 1581 2694 
z
M 353 0 
L 353 331 
L 947 331 
L 947 4331 
L 353 4331 
L 353 4666 
L 2656 4666 
Q 3363 4666 3720 4377 
Q 4078 4088 4078 3513 
Q 4078 3097 3829 2850 
Q 3581 2603 3103 2547 
Q 3697 2472 4005 2167 
Q 4313 1863 4313 1350 
Q 4313 656 3875 328 
Q 3438 0 2509 0 
L 353 0 
z
" transform="scale(0.015625)"/>
       </defs>
       <use xlink:href="#DejaVuSerif-33"/>
       <use xlink:href="#DejaVuSerif-36" x="63.623047"/>
       <use xlink:href="#DejaVuSerif-32" x="127.246094"/>
       <use xlink:href="#DejaVuSerif-20" x="190.869141"/>
       <use xlink:href="#DejaVuSerif-2d" x="222.65625"/>
       <use xlink:href="#DejaVuSerif-20" x="256.445312"/>
       <use xlink:href="#DejaVuSerif-43" x="288.232422"/>
       <use xlink:href="#DejaVuSerif-6f" x="364.746094"/>
       <use xlink:href="#DejaVuSerif-6e" x="424.951172"/>
       <use xlink:href="#DejaVuSerif-73" x="489.355469"/>
       <use xlink:href="#DejaVuSerif-75" x="540.673828"/>
       <use xlink:href="#DejaVuSerif-6d" x="605.078125"/>
       <use xlink:href="#DejaVuSerif-69" x="699.902344"/>
       <use xlink:href="#DejaVuSerif-64" x="731.884766"/>
       <use xlink:href="#DejaVuSerif-6f" x="795.898438"/>
       <use xlink:href="#DejaVuSerif-72" x="856.103516"/>
       <use xlink:href="#DejaVuSerif-65" x="903.90625"/>
       <use xlink:href="#DejaVuSerif-73" x="963.085938"/>
       <use xlink:href="#DejaVuSerif-20" x="1014.404297"/>
       <use xlink:href="#DejaVuSerif-52" x="1046.191406"/>
       <use xlink:href="#DejaVuSerif-42" x="1121.484375"/>
      </g>
     </g>
    </g>
    <g id="xtick_13">
     <g id="line2d_25">
      <path d="M 405.872353 325.105464 
L 405.872353 28.08375 
" clip-path="url(#p46cc06bd33)" style="fill: none; stroke: #ffffff; stroke-width: 0.8; stroke-linecap: square"/>
     </g>
     <g id="line2d_26">
      <g>
       <use xlink:href="#m9ca968c84f" x="405.872353" y="325.105464" style="stroke: #000000; stroke-width: 0.8"/>
      </g>
     </g>
     <g id="text_13">
      <!-- 563 - 230 kV -->
      <g transform="translate(349.086183 370.87106) rotate(-30) scale(0.1 -0.1)">
       <use xlink:href="#DejaVuSerif-35"/>
       <use xlink:href="#DejaVuSerif-36" x="63.623047"/>
       <use xlink:href="#DejaVuSerif-33" x="127.246094"/>
       <use xlink:href="#DejaVuSerif-20" x="190.869141"/>
       <use xlink:href="#DejaVuSerif-2d" x="222.65625"/>
       <use xlink:href="#DejaVuSerif-20" x="256.445312"/>
       <use xlink:href="#DejaVuSerif-32" x="288.232422"/>
       <use xlink:href="#DejaVuSerif-33" x="351.855469"/>
       <use xlink:href="#DejaVuSerif-30" x="415.478516"/>
       <use xlink:href="#DejaVuSerif-20" x="479.101562"/>
       <use xlink:href="#DejaVuSerif-6b" x="510.888672"/>
       <use xlink:href="#DejaVuSerif-56" x="571.484375"/>
      </g>
     </g>
    </g>
    <g id="xtick_14">
     <g id="line2d_27">
      <path d="M 432.3596 325.105464 
L 432.3596 28.08375 
" clip-path="url(#p46cc06bd33)" style="fill: none; stroke: #ffffff; stroke-width: 0.8; stroke-linecap: square"/>
     </g>
     <g id="line2d_28">
      <g>
       <use xlink:href="#m9ca968c84f" x="432.3596" y="325.105464" style="stroke: #000000; stroke-width: 0.8"/>
      </g>
     </g>
     <g id="text_14">
      <!-- 216 - Consumidores RB -->
      <g transform="translate(327.832427 398.434341) rotate(-30) scale(0.1 -0.1)">
       <use xlink:href="#DejaVuSerif-32"/>
       <use xlink:href="#DejaVuSerif-31" x="63.623047"/>
       <use xlink:href="#DejaVuSerif-36" x="127.246094"/>
       <use xlink:href="#DejaVuSerif-20" x="190.869141"/>
       <use xlink:href="#DejaVuSerif-2d" x="222.65625"/>
       <use xlink:href="#DejaVuSerif-20" x="256.445312"/>
       <use xlink:href="#DejaVuSerif-43" x="288.232422"/>
       <use xlink:href="#DejaVuSerif-6f" x="364.746094"/>
       <use xlink:href="#DejaVuSerif-6e" x="424.951172"/>
       <use xlink:href="#DejaVuSerif-73" x="489.355469"/>
       <use xlink:href="#DejaVuSerif-75" x="540.673828"/>
       <use xlink:href="#DejaVuSerif-6d" x="605.078125"/>
       <use xlink:href="#DejaVuSerif-69" x="699.902344"/>
       <use xlink:href="#DejaVuSerif-64" x="731.884766"/>
       <use xlink:href="#DejaVuSerif-6f" x="795.898438"/>
       <use xlink:href="#DejaVuSerif-72" x="856.103516"/>
       <use xlink:href="#DejaVuSerif-65" x="903.90625"/>
       <use xlink:href="#DejaVuSerif-73" x="963.085938"/>
       <use xlink:href="#DejaVuSerif-20" x="1014.404297"/>
       <use xlink:href="#DejaVuSerif-52" x="1046.191406"/>
       <use xlink:href="#DejaVuSerif-42" x="1121.484375"/>
      </g>
     </g>
    </g>
    <g id="xtick_15">
     <g id="line2d_29">
      <path d="M 458.846847 325.105464 
L 458.846847 28.08375 
" clip-path="url(#p46cc06bd33)" style="fill: none; stroke: #ffffff; stroke-width: 0.8; stroke-linecap: square"/>
     </g>
     <g id="line2d_30">
      <g>
       <use xlink:href="#m9ca968c84f" x="458.846847" y="325.105464" style="stroke: #000000; stroke-width: 0.8"/>
      </g>
     </g>
     <g id="text_15">
      <!-- 201 - 765 kV SP+PR -->
      <g transform="translate(367.944689 390.567935) rotate(-30) scale(0.1 -0.1)">
       <defs>
        <path id="DejaVuSerif-53" d="M 594 225 
L 594 1288 
L 953 1284 
Q 969 753 1261 498 
Q 1553 244 2150 244 
Q 2706 244 2998 464 
Q 3291 684 3291 1106 
Q 3291 1444 3114 1625 
Q 2938 1806 2369 1978 
L 1753 2163 
Q 1084 2366 811 2669 
Q 538 2972 538 3500 
Q 538 4094 959 4422 
Q 1381 4750 2144 4750 
Q 2469 4750 2856 4679 
Q 3244 4609 3681 4475 
L 3681 3481 
L 3328 3481 
Q 3275 3975 2998 4195 
Q 2722 4416 2156 4416 
Q 1663 4416 1405 4214 
Q 1147 4013 1147 3628 
Q 1147 3294 1340 3103 
Q 1534 2913 2163 2725 
L 2741 2553 
Q 3375 2363 3645 2067 
Q 3916 1772 3916 1275 
Q 3916 597 3481 253 
Q 3047 -91 2188 -91 
Q 1803 -91 1404 -12 
Q 1006 66 594 225 
z
" transform="scale(0.015625)"/>
        <path id="DejaVuSerif-50" d="M 1581 2375 
L 2406 2375 
Q 2872 2375 3115 2626 
Q 3359 2878 3359 3353 
Q 3359 3831 3115 4081 
Q 2872 4331 2406 4331 
L 1581 4331 
L 1581 2375 
z
M 353 0 
L 353 331 
L 947 331 
L 947 4331 
L 353 4331 
L 353 4666 
L 2559 4666 
Q 3259 4666 3668 4311 
Q 4078 3956 4078 3353 
Q 4078 2753 3668 2397 
Q 3259 2041 2559 2041 
L 1581 2041 
L 1581 331 
L 2303 331 
L 2303 0 
L 353 0 
z
" transform="scale(0.015625)"/>
        <path id="DejaVuSerif-2b" d="M 2931 4013 
L 2931 2259 
L 4684 2259 
L 4684 1753 
L 2931 1753 
L 2931 0 
L 2431 0 
L 2431 1753 
L 678 1753 
L 678 2259 
L 2431 2259 
L 2431 4013 
L 2931 4013 
z
" transform="scale(0.015625)"/>
       </defs>
       <use xlink:href="#DejaVuSerif-32"/>
       <use xlink:href="#DejaVuSerif-30" x="63.623047"/>
       <use xlink:href="#DejaVuSerif-31" x="127.246094"/>
       <use xlink:href="#DejaVuSerif-20" x="190.869141"/>
       <use xlink:href="#DejaVuSerif-2d" x="222.65625"/>
       <use xlink:href="#DejaVuSerif-20" x="256.445312"/>
       <use xlink:href="#DejaVuSerif-37" x="288.232422"/>
       <use xlink:href="#DejaVuSerif-36" x="351.855469"/>
       <use xlink:href="#DejaVuSerif-35" x="415.478516"/>
       <use xlink:href="#DejaVuSerif-20" x="479.101562"/>
       <use xlink:href="#DejaVuSerif-6b" x="510.888672"/>
       <use xlink:href="#DejaVuSerif-56" x="571.484375"/>
       <use xlink:href="#DejaVuSerif-20" x="643.701172"/>
       <use xlink:href="#DejaVuSerif-53" x="675.488281"/>
       <use xlink:href="#DejaVuSerif-50" x="743.994141"/>
       <use xlink:href="#DejaVuSerif-2b" x="811.279297"/>
       <use xlink:href="#DejaVuSerif-50" x="895.068359"/>
       <use xlink:href="#DejaVuSerif-52" x="962.353516"/>
      </g>
     </g>
    </g>
    <g id="xtick_16">
     <g id="line2d_31">
      <path d="M 485.334095 325.105464 
L 485.334095 28.08375 
" clip-path="url(#p46cc06bd33)" style="fill: none; stroke: #ffffff; stroke-width: 0.8; stroke-linecap: square"/>
     </g>
     <g id="line2d_32">
      <g>
       <use xlink:href="#m9ca968c84f" x="485.334095" y="325.105464" style="stroke: #000000; stroke-width: 0.8"/>
      </g>
     </g>
     <g id="text_16">
      <!-- 252 - 345 kV -->
      <g transform="translate(428.547925 370.87106) rotate(-30) scale(0.1 -0.1)">
       <use xlink:href="#DejaVuSerif-32"/>
       <use xlink:href="#DejaVuSerif-35" x="63.623047"/>
       <use xlink:href="#DejaVuSerif-32" x="127.246094"/>
       <use xlink:href="#DejaVuSerif-20" x="190.869141"/>
       <use xlink:href="#DejaVuSerif-2d" x="222.65625"/>
       <use xlink:href="#DejaVuSerif-20" x="256.445312"/>
       <use xlink:href="#DejaVuSerif-33" x="288.232422"/>
       <use xlink:href="#DejaVuSerif-34" x="351.855469"/>
       <use xlink:href="#DejaVuSerif-35" x="415.478516"/>
       <use xlink:href="#DejaVuSerif-20" x="479.101562"/>
       <use xlink:href="#DejaVuSerif-6b" x="510.888672"/>
       <use xlink:href="#DejaVuSerif-56" x="571.484375"/>
      </g>
     </g>
    </g>
    <g id="xtick_17">
     <g id="line2d_33">
      <path d="M 511.821342 325.105464 
L 511.821342 28.08375 
" clip-path="url(#p46cc06bd33)" style="fill: none; stroke: #ffffff; stroke-width: 0.8; stroke-linecap: square"/>
     </g>
     <g id="line2d_34">
      <g>
       <use xlink:href="#m9ca968c84f" x="511.821342" y="325.105464" style="stroke: #000000; stroke-width: 0.8"/>
      </g>
     </g>
     <g id="text_17">
      <!-- 351 - 500 kV -->
      <g transform="translate(455.035172 370.87106) rotate(-30) scale(0.1 -0.1)">
       <use xlink:href="#DejaVuSerif-33"/>
       <use xlink:href="#DejaVuSerif-35" x="63.623047"/>
       <use xlink:href="#DejaVuSerif-31" x="127.246094"/>
       <use xlink:href="#DejaVuSerif-20" x="190.869141"/>
       <use xlink:href="#DejaVuSerif-2d" x="222.65625"/>
       <use xlink:href="#DejaVuSerif-20" x="256.445312"/>
       <use xlink:href="#DejaVuSerif-35" x="288.232422"/>
       <use xlink:href="#DejaVuSerif-30" x="351.855469"/>
       <use xlink:href="#DejaVuSerif-30" x="415.478516"/>
       <use xlink:href="#DejaVuSerif-20" x="479.101562"/>
       <use xlink:href="#DejaVuSerif-6b" x="510.888672"/>
       <use xlink:href="#DejaVuSerif-56" x="571.484375"/>
      </g>
     </g>
    </g>
    <g id="xtick_18">
     <g id="line2d_35">
      <path d="M 538.308589 325.105464 
L 538.308589 28.08375 
" clip-path="url(#p46cc06bd33)" style="fill: none; stroke: #ffffff; stroke-width: 0.8; stroke-linecap: square"/>
     </g>
     <g id="line2d_36">
      <g>
       <use xlink:href="#m9ca968c84f" x="538.308589" y="325.105464" style="stroke: #000000; stroke-width: 0.8"/>
      </g>
     </g>
     <g id="text_18">
      <!-- 202 - 500 kV -->
      <g transform="translate(481.52242 370.87106) rotate(-30) scale(0.1 -0.1)">
       <use xlink:href="#DejaVuSerif-32"/>
       <use xlink:href="#DejaVuSerif-30" x="63.623047"/>
       <use xlink:href="#DejaVuSerif-32" x="127.246094"/>
       <use xlink:href="#DejaVuSerif-20" x="190.869141"/>
       <use xlink:href="#DejaVuSerif-2d" x="222.65625"/>
       <use xlink:href="#DejaVuSerif-20" x="256.445312"/>
       <use xlink:href="#DejaVuSerif-35" x="288.232422"/>
       <use xlink:href="#DejaVuSerif-30" x="351.855469"/>
       <use xlink:href="#DejaVuSerif-30" x="415.478516"/>
       <use xlink:href="#DejaVuSerif-20" x="479.101562"/>
       <use xlink:href="#DejaVuSerif-6b" x="510.888672"/>
       <use xlink:href="#DejaVuSerif-56" x="571.484375"/>
      </g>
     </g>
    </g>
    <g id="xtick_19">
     <g id="line2d_37">
      <path d="M 564.795836 325.105464 
L 564.795836 28.08375 
" clip-path="url(#p46cc06bd33)" style="fill: none; stroke: #ffffff; stroke-width: 0.8; stroke-linecap: square"/>
     </g>
     <g id="line2d_38">
      <g>
       <use xlink:href="#m9ca968c84f" x="564.795836" y="325.105464" style="stroke: #000000; stroke-width: 0.8"/>
      </g>
     </g>
     <g id="text_19">
      <!-- 303 - 230 kV -->
      <g transform="translate(508.009667 370.87106) rotate(-30) scale(0.1 -0.1)">
       <use xlink:href="#DejaVuSerif-33"/>
       <use xlink:href="#DejaVuSerif-30" x="63.623047"/>
       <use xlink:href="#DejaVuSerif-33" x="127.246094"/>
       <use xlink:href="#DejaVuSerif-20" x="190.869141"/>
       <use xlink:href="#DejaVuSerif-2d" x="222.65625"/>
       <use xlink:href="#DejaVuSerif-20" x="256.445312"/>
       <use xlink:href="#DejaVuSerif-32" x="288.232422"/>
       <use xlink:href="#DejaVuSerif-33" x="351.855469"/>
       <use xlink:href="#DejaVuSerif-30" x="415.478516"/>
       <use xlink:href="#DejaVuSerif-20" x="479.101562"/>
       <use xlink:href="#DejaVuSerif-6b" x="510.888672"/>
       <use xlink:href="#DejaVuSerif-56" x="571.484375"/>
      </g>
     </g>
    </g>
    <g id="xtick_20">
     <g id="line2d_39">
      <path d="M 591.283084 325.105464 
L 591.283084 28.08375 
" clip-path="url(#p46cc06bd33)" style="fill: none; stroke: #ffffff; stroke-width: 0.8; stroke-linecap: square"/>
     </g>
     <g id="line2d_40">
      <g>
       <use xlink:href="#m9ca968c84f" x="591.283084" y="325.105464" style="stroke: #000000; stroke-width: 0.8"/>
      </g>
     </g>
     <g id="text_20">
      <!-- 519 - Consumidores RB -->
      <g transform="translate(486.755911 398.434341) rotate(-30) scale(0.1 -0.1)">
       <defs>
        <path id="DejaVuSerif-39" d="M 2994 2091 
Q 2784 1856 2512 1740 
Q 2241 1625 1900 1625 
Q 1206 1625 804 2044 
Q 403 2463 403 3188 
Q 403 3897 839 4323 
Q 1275 4750 2003 4750 
Q 2794 4750 3217 4161 
Q 3641 3572 3641 2478 
Q 3641 1253 3137 581 
Q 2634 -91 1722 -91 
Q 1475 -91 1203 -44 
Q 931 3 647 97 
L 647 872 
L 997 872 
Q 1038 556 1241 387 
Q 1444 219 1784 219 
Q 2391 219 2687 676 
Q 2984 1134 2994 2091 
z
M 1978 4441 
Q 1534 4441 1298 4117 
Q 1063 3794 1063 3188 
Q 1063 2581 1298 2256 
Q 1534 1931 1978 1931 
Q 2422 1931 2658 2245 
Q 2894 2559 2894 3150 
Q 2894 3772 2656 4106 
Q 2419 4441 1978 4441 
z
" transform="scale(0.015625)"/>
       </defs>
       <use xlink:href="#DejaVuSerif-35"/>
       <use xlink:href="#DejaVuSerif-31" x="63.623047"/>
       <use xlink:href="#DejaVuSerif-39" x="127.246094"/>
       <use xlink:href="#DejaVuSerif-20" x="190.869141"/>
       <use xlink:href="#DejaVuSerif-2d" x="222.65625"/>
       <use xlink:href="#DejaVuSerif-20" x="256.445312"/>
       <use xlink:href="#DejaVuSerif-43" x="288.232422"/>
       <use xlink:href="#DejaVuSerif-6f" x="364.746094"/>
       <use xlink:href="#DejaVuSerif-6e" x="424.951172"/>
       <use xlink:href="#DejaVuSerif-73" x="489.355469"/>
       <use xlink:href="#DejaVuSerif-75" x="540.673828"/>
       <use xlink:href="#DejaVuSerif-6d" x="605.078125"/>
       <use xlink:href="#DejaVuSerif-69" x="699.902344"/>
       <use xlink:href="#DejaVuSerif-64" x="731.884766"/>
       <use xlink:href="#DejaVuSerif-6f" x="795.898438"/>
       <use xlink:href="#DejaVuSerif-72" x="856.103516"/>
       <use xlink:href="#DejaVuSerif-65" x="903.90625"/>
       <use xlink:href="#DejaVuSerif-73" x="963.085938"/>
       <use xlink:href="#DejaVuSerif-20" x="1014.404297"/>
       <use xlink:href="#DejaVuSerif-52" x="1046.191406"/>
       <use xlink:href="#DejaVuSerif-42" x="1121.484375"/>
      </g>
     </g>
    </g>
    <g id="text_21">
     <!-- Area de Controle -->
     <g transform="translate(266.037594 417.152747) scale(0.17 -0.17)">
      <defs>
       <path id="DejaVuSerif-41" d="M 1281 1691 
L 2994 1691 
L 2138 3909 
L 1281 1691 
z
M -38 0 
L -38 331 
L 372 331 
L 2034 4666 
L 2559 4666 
L 4225 331 
L 4684 331 
L 4684 0 
L 2988 0 
L 2988 331 
L 3506 331 
L 3116 1356 
L 1153 1356 
L 763 331 
L 1275 331 
L 1275 0 
L -38 0 
z
" transform="scale(0.015625)"/>
       <path id="DejaVuSerif-61" d="M 2547 1044 
L 2547 1747 
L 1806 1747 
Q 1378 1747 1168 1562 
Q 959 1378 959 997 
Q 959 650 1171 447 
Q 1384 244 1747 244 
Q 2106 244 2326 466 
Q 2547 688 2547 1044 
z
M 3122 2075 
L 3122 331 
L 3634 331 
L 3634 0 
L 2547 0 
L 2547 359 
Q 2356 128 2106 18 
Q 1856 -91 1522 -91 
Q 969 -91 644 203 
Q 319 497 319 997 
Q 319 1513 691 1797 
Q 1063 2081 1741 2081 
L 2547 2081 
L 2547 2309 
Q 2547 2688 2317 2895 
Q 2088 3103 1672 3103 
Q 1328 3103 1125 2947 
Q 922 2791 872 2484 
L 575 2484 
L 575 3156 
Q 875 3284 1158 3348 
Q 1441 3413 1709 3413 
Q 2400 3413 2761 3070 
Q 3122 2728 3122 2075 
z
" transform="scale(0.015625)"/>
       <path id="DejaVuSerif-74" d="M 691 2988 
L 184 2988 
L 184 3322 
L 691 3322 
L 691 4353 
L 1269 4353 
L 1269 3322 
L 2350 3322 
L 2350 2988 
L 1269 2988 
L 1269 878 
Q 1269 456 1350 337 
Q 1431 219 1650 219 
Q 1875 219 1978 351 
Q 2081 484 2088 781 
L 2522 781 
Q 2497 328 2275 118 
Q 2053 -91 1600 -91 
Q 1103 -91 897 129 
Q 691 350 691 878 
L 691 2988 
z
" transform="scale(0.015625)"/>
       <path id="DejaVuSerif-6c" d="M 1313 331 
L 1856 331 
L 1856 0 
L 184 0 
L 184 331 
L 738 331 
L 738 4531 
L 184 4531 
L 184 4863 
L 1313 4863 
L 1313 331 
z
" transform="scale(0.015625)"/>
      </defs>
      <use xlink:href="#DejaVuSerif-41"/>
      <use xlink:href="#DejaVuSerif-72" x="72.216797"/>
      <use xlink:href="#DejaVuSerif-65" x="120.019531"/>
      <use xlink:href="#DejaVuSerif-61" x="179.199219"/>
      <use xlink:href="#DejaVuSerif-20" x="238.818359"/>
      <use xlink:href="#DejaVuSerif-64" x="270.605469"/>
      <use xlink:href="#DejaVuSerif-65" x="334.619141"/>
      <use xlink:href="#DejaVuSerif-20" x="393.798828"/>
      <use xlink:href="#DejaVuSerif-43" x="425.585938"/>
      <use xlink:href="#DejaVuSerif-6f" x="502.099609"/>
      <use xlink:href="#DejaVuSerif-6e" x="562.304688"/>
      <use xlink:href="#DejaVuSerif-74" x="626.708984"/>
      <use xlink:href="#DejaVuSerif-72" x="666.894531"/>
      <use xlink:href="#DejaVuSerif-6f" x="714.697266"/>
      <use xlink:href="#DejaVuSerif-6c" x="774.902344"/>
      <use xlink:href="#DejaVuSerif-65" x="806.884766"/>
     </g>
    </g>
   </g>
   <g id="matplotlib.axis_2">
    <g id="ytick_1">
     <g id="line2d_41">
      <path d="M 62.8625 311.604477 
L 616.445969 311.604477 
" clip-path="url(#p46cc06bd33)" style="fill: none; stroke: #ffffff; stroke-width: 0.8; stroke-linecap: square"/>
     </g>
     <g id="line2d_42">
      <defs>
       <path id="mf79859b652" d="M 0 0 
L -3.5 0 
" style="stroke: #000000; stroke-width: 0.8"/>
      </defs>
      <g>
       <use xlink:href="#mf79859b652" x="62.8625" y="311.604477" style="stroke: #000000; stroke-width: 0.8"/>
      </g>
     </g>
     <g id="text_22">
      <!-- 0.0 -->
      <g transform="translate(32.007812 317.303305) scale(0.15 -0.15)">
       <defs>
        <path id="DejaVuSerif-2e" d="M 603 325 
Q 603 500 722 622 
Q 841 744 1019 744 
Q 1191 744 1312 622 
Q 1434 500 1434 325 
Q 1434 153 1312 31 
Q 1191 -91 1019 -91 
Q 841 -91 722 29 
Q 603 150 603 325 
z
" transform="scale(0.015625)"/>
       </defs>
       <use xlink:href="#DejaVuSerif-30"/>
       <use xlink:href="#DejaVuSerif-2e" x="63.623047"/>
       <use xlink:href="#DejaVuSerif-30" x="95.410156"/>
      </g>
     </g>
    </g>
    <g id="ytick_2">
     <g id="line2d_43">
      <path d="M 62.8625 278.397376 
L 616.445969 278.397376 
" clip-path="url(#p46cc06bd33)" style="fill: none; stroke: #ffffff; stroke-width: 0.8; stroke-linecap: square"/>
     </g>
     <g id="line2d_44">
      <g>
       <use xlink:href="#mf79859b652" x="62.8625" y="278.397376" style="stroke: #000000; stroke-width: 0.8"/>
      </g>
     </g>
     <g id="text_23">
      <!-- 0.2 -->
      <g transform="translate(32.007812 284.096204) scale(0.15 -0.15)">
       <use xlink:href="#DejaVuSerif-30"/>
       <use xlink:href="#DejaVuSerif-2e" x="63.623047"/>
       <use xlink:href="#DejaVuSerif-32" x="95.410156"/>
      </g>
     </g>
    </g>
    <g id="ytick_3">
     <g id="line2d_45">
      <path d="M 62.8625 245.190274 
L 616.445969 245.190274 
" clip-path="url(#p46cc06bd33)" style="fill: none; stroke: #ffffff; stroke-width: 0.8; stroke-linecap: square"/>
     </g>
     <g id="line2d_46">
      <g>
       <use xlink:href="#mf79859b652" x="62.8625" y="245.190274" style="stroke: #000000; stroke-width: 0.8"/>
      </g>
     </g>
     <g id="text_24">
      <!-- 0.4 -->
      <g transform="translate(32.007812 250.889102) scale(0.15 -0.15)">
       <use xlink:href="#DejaVuSerif-30"/>
       <use xlink:href="#DejaVuSerif-2e" x="63.623047"/>
       <use xlink:href="#DejaVuSerif-34" x="95.410156"/>
      </g>
     </g>
    </g>
    <g id="ytick_4">
     <g id="line2d_47">
      <path d="M 62.8625 211.983173 
L 616.445969 211.983173 
" clip-path="url(#p46cc06bd33)" style="fill: none; stroke: #ffffff; stroke-width: 0.8; stroke-linecap: square"/>
     </g>
     <g id="line2d_48">
      <g>
       <use xlink:href="#mf79859b652" x="62.8625" y="211.983173" style="stroke: #000000; stroke-width: 0.8"/>
      </g>
     </g>
     <g id="text_25">
      <!-- 0.6 -->
      <g transform="translate(32.007812 217.682001) scale(0.15 -0.15)">
       <use xlink:href="#DejaVuSerif-30"/>
       <use xlink:href="#DejaVuSerif-2e" x="63.623047"/>
       <use xlink:href="#DejaVuSerif-36" x="95.410156"/>
      </g>
     </g>
    </g>
    <g id="ytick_5">
     <g id="line2d_49">
      <path d="M 62.8625 178.776072 
L 616.445969 178.776072 
" clip-path="url(#p46cc06bd33)" style="fill: none; stroke: #ffffff; stroke-width: 0.8; stroke-linecap: square"/>
     </g>
     <g id="line2d_50">
      <g>
       <use xlink:href="#mf79859b652" x="62.8625" y="178.776072" style="stroke: #000000; stroke-width: 0.8"/>
      </g>
     </g>
     <g id="text_26">
      <!-- 0.8 -->
      <g transform="translate(32.007812 184.4749) scale(0.15 -0.15)">
       <defs>
        <path id="DejaVuSerif-38" d="M 2981 1275 
Q 2981 1775 2732 2051 
Q 2484 2328 2034 2328 
Q 1584 2328 1336 2051 
Q 1088 1775 1088 1275 
Q 1088 772 1336 495 
Q 1584 219 2034 219 
Q 2484 219 2732 495 
Q 2981 772 2981 1275 
z
M 2853 3541 
Q 2853 3966 2637 4203 
Q 2422 4441 2034 4441 
Q 1650 4441 1433 4203 
Q 1216 3966 1216 3541 
Q 1216 3113 1433 2875 
Q 1650 2638 2034 2638 
Q 2422 2638 2637 2875 
Q 2853 3113 2853 3541 
z
M 2516 2484 
Q 3047 2413 3344 2092 
Q 3641 1772 3641 1275 
Q 3641 619 3225 264 
Q 2809 -91 2034 -91 
Q 1263 -91 845 264 
Q 428 619 428 1275 
Q 428 1772 725 2092 
Q 1022 2413 1556 2484 
Q 1084 2569 832 2842 
Q 581 3116 581 3541 
Q 581 4103 968 4426 
Q 1356 4750 2034 4750 
Q 2713 4750 3100 4426 
Q 3488 4103 3488 3541 
Q 3488 3116 3236 2842 
Q 2984 2569 2516 2484 
z
" transform="scale(0.015625)"/>
       </defs>
       <use xlink:href="#DejaVuSerif-30"/>
       <use xlink:href="#DejaVuSerif-2e" x="63.623047"/>
       <use xlink:href="#DejaVuSerif-38" x="95.410156"/>
      </g>
     </g>
    </g>
    <g id="ytick_6">
     <g id="line2d_51">
      <path d="M 62.8625 145.56897 
L 616.445969 145.56897 
" clip-path="url(#p46cc06bd33)" style="fill: none; stroke: #ffffff; stroke-width: 0.8; stroke-linecap: square"/>
     </g>
     <g id="line2d_52">
      <g>
       <use xlink:href="#mf79859b652" x="62.8625" y="145.56897" style="stroke: #000000; stroke-width: 0.8"/>
      </g>
     </g>
     <g id="text_27">
      <!-- 1.0 -->
      <g transform="translate(32.007812 151.267798) scale(0.15 -0.15)">
       <use xlink:href="#DejaVuSerif-31"/>
       <use xlink:href="#DejaVuSerif-2e" x="63.623047"/>
       <use xlink:href="#DejaVuSerif-30" x="95.410156"/>
      </g>
     </g>
    </g>
    <g id="ytick_7">
     <g id="line2d_53">
      <path d="M 62.8625 112.361869 
L 616.445969 112.361869 
" clip-path="url(#p46cc06bd33)" style="fill: none; stroke: #ffffff; stroke-width: 0.8; stroke-linecap: square"/>
     </g>
     <g id="line2d_54">
      <g>
       <use xlink:href="#mf79859b652" x="62.8625" y="112.361869" style="stroke: #000000; stroke-width: 0.8"/>
      </g>
     </g>
     <g id="text_28">
      <!-- 1.2 -->
      <g transform="translate(32.007812 118.060697) scale(0.15 -0.15)">
       <use xlink:href="#DejaVuSerif-31"/>
       <use xlink:href="#DejaVuSerif-2e" x="63.623047"/>
       <use xlink:href="#DejaVuSerif-32" x="95.410156"/>
      </g>
     </g>
    </g>
    <g id="ytick_8">
     <g id="line2d_55">
      <path d="M 62.8625 79.154767 
L 616.445969 79.154767 
" clip-path="url(#p46cc06bd33)" style="fill: none; stroke: #ffffff; stroke-width: 0.8; stroke-linecap: square"/>
     </g>
     <g id="line2d_56">
      <g>
       <use xlink:href="#mf79859b652" x="62.8625" y="79.154767" style="stroke: #000000; stroke-width: 0.8"/>
      </g>
     </g>
     <g id="text_29">
      <!-- 1.4 -->
      <g transform="translate(32.007812 84.853596) scale(0.15 -0.15)">
       <use xlink:href="#DejaVuSerif-31"/>
       <use xlink:href="#DejaVuSerif-2e" x="63.623047"/>
       <use xlink:href="#DejaVuSerif-34" x="95.410156"/>
      </g>
     </g>
    </g>
    <g id="ytick_9">
     <g id="line2d_57">
      <path d="M 62.8625 45.947666 
L 616.445969 45.947666 
" clip-path="url(#p46cc06bd33)" style="fill: none; stroke: #ffffff; stroke-width: 0.8; stroke-linecap: square"/>
     </g>
     <g id="line2d_58">
      <g>
       <use xlink:href="#mf79859b652" x="62.8625" y="45.947666" style="stroke: #000000; stroke-width: 0.8"/>
      </g>
     </g>
     <g id="text_30">
      <!-- 1.6 -->
      <g transform="translate(32.007812 51.646494) scale(0.15 -0.15)">
       <use xlink:href="#DejaVuSerif-31"/>
       <use xlink:href="#DejaVuSerif-2e" x="63.623047"/>
       <use xlink:href="#DejaVuSerif-36" x="95.410156"/>
      </g>
     </g>
    </g>
    <g id="text_31">
     <!-- (p.u) -->
     <g transform="translate(24.472344 196.844529) rotate(-90) scale(0.17 -0.17)">
      <defs>
       <path id="DejaVuSerif-28" d="M 2041 -997 
Q 1281 -656 893 83 
Q 506 822 506 1931 
Q 506 3044 893 3783 
Q 1281 4522 2041 4863 
L 2041 4556 
Q 1559 4225 1350 3623 
Q 1141 3022 1141 1931 
Q 1141 844 1350 242 
Q 1559 -359 2041 -691 
L 2041 -997 
z
" transform="scale(0.015625)"/>
       <path id="DejaVuSerif-70" d="M 1313 1825 
L 1313 1497 
Q 1313 897 1542 583 
Q 1772 269 2209 269 
Q 2650 269 2876 622 
Q 3103 975 3103 1663 
Q 3103 2353 2876 2703 
Q 2650 3053 2209 3053 
Q 1772 3053 1542 2737 
Q 1313 2422 1313 1825 
z
M 738 2988 
L 184 2988 
L 184 3322 
L 1313 3322 
L 1313 2803 
Q 1481 3116 1742 3264 
Q 2003 3413 2388 3413 
Q 3000 3413 3387 2928 
Q 3775 2444 3775 1663 
Q 3775 881 3387 395 
Q 3000 -91 2388 -91 
Q 2003 -91 1742 57 
Q 1481 206 1313 519 
L 1313 -997 
L 1856 -997 
L 1856 -1331 
L 184 -1331 
L 184 -997 
L 738 -997 
L 738 2988 
z
" transform="scale(0.015625)"/>
       <path id="DejaVuSerif-29" d="M 453 -997 
L 453 -691 
Q 934 -359 1145 242 
Q 1356 844 1356 1931 
Q 1356 3022 1145 3623 
Q 934 4225 453 4556 
L 453 4863 
Q 1216 4522 1603 3783 
Q 1991 3044 1991 1931 
Q 1991 822 1603 83 
Q 1216 -656 453 -997 
z
" transform="scale(0.015625)"/>
      </defs>
      <use xlink:href="#DejaVuSerif-28"/>
      <use xlink:href="#DejaVuSerif-70" x="39.013672"/>
      <use xlink:href="#DejaVuSerif-2e" x="103.027344"/>
      <use xlink:href="#DejaVuSerif-75" x="134.814453"/>
      <use xlink:href="#DejaVuSerif-29" x="199.21875"/>
     </g>
    </g>
   </g>
   <g id="PolyCollection_1">
    <defs>
     <path id="m813ff8189a" d="M 88.025385 -263.450209 
L 88.025385 -259.377551 
L 114.512632 -215.434933 
L 140.99988 -162.551569 
L 167.487127 -156.999343 
L 193.974374 -136.484174 
L 220.461621 -126.743548 
L 246.948869 -125.075553 
L 273.436116 -122.457729 
L 299.923363 -122.186526 
L 326.410611 -122.226357 
L 352.897858 -121.945226 
L 379.385105 -121.496198 
L 405.872353 -121.097209 
L 432.3596 -121.02009 
L 458.846847 -120.79006 
L 485.334095 -120.498512 
L 511.821342 -120.503102 
L 538.308589 -120.461066 
L 564.795836 -120.425663 
L 591.283084 -120.454787 
L 591.283084 -120.541373 
L 591.283084 -120.541373 
L 564.795836 -120.625079 
L 538.308589 -120.591364 
L 511.821342 -120.584899 
L 485.334095 -120.772903 
L 458.846847 -121.20573 
L 432.3596 -121.671158 
L 405.872353 -121.726243 
L 379.385105 -122.129194 
L 352.897858 -122.408205 
L 326.410611 -122.499813 
L 299.923363 -123.018312 
L 273.436116 -123.664484 
L 246.948869 -127.204085 
L 220.461621 -128.865527 
L 193.974374 -138.51992 
L 167.487127 -161.199807 
L 140.99988 -168.557766 
L 114.512632 -221.24042 
L 88.025385 -263.450209 
z
" style="stroke: #008000; stroke-opacity: 0.2; stroke-width: 0.5"/>
    </defs>
    <g clip-path="url(#p46cc06bd33)">
     <use xlink:href="#m813ff8189a" x="0" y="432" style="fill: #008000; fill-opacity: 0.2; stroke: #008000; stroke-opacity: 0.2; stroke-width: 0.5"/>
    </g>
   </g>
   <g id="PolyCollection_2">
    <defs>
     <path id="m814b227dc5" d="M 88.025385 -229.762181 
L 88.025385 -218.035533 
L 114.512632 -303.612008 
L 140.99988 -290.639227 
L 167.487127 -388.73687 
L 193.974374 -124.114718 
L 220.461621 -120.395523 
L 246.948869 -217.426673 
L 273.436116 -120.395523 
L 299.923363 -321.853245 
L 326.410611 -120.395523 
L 352.897858 -151.743027 
L 379.385105 -120.395523 
L 405.872353 -120.395523 
L 432.3596 -120.395523 
L 458.846847 -201.416139 
L 485.334095 -181.363761 
L 511.821342 -314.613577 
L 538.308589 -264.775283 
L 564.795836 -164.889718 
L 591.283084 -120.395523 
L 591.283084 -120.395523 
L 591.283084 -120.395523 
L 564.795836 -173.663034 
L 538.308589 -272.893793 
L 511.821342 -322.238082 
L 485.334095 -190.396093 
L 458.846847 -208.603928 
L 432.3596 -120.395523 
L 405.872353 -120.395523 
L 379.385105 -120.395523 
L 352.897858 -159.181417 
L 326.410611 -120.395523 
L 299.923363 -325.544409 
L 273.436116 -120.395523 
L 246.948869 -221.677182 
L 220.461621 -120.395523 
L 193.974374 -127.169772 
L 167.487127 -390.415263 
L 140.99988 -294.61073 
L 114.512632 -305.614498 
L 88.025385 -229.762181 
z
" style="stroke: #ffa500; stroke-opacity: 0.2; stroke-width: 0.5"/>
    </defs>
    <g clip-path="url(#p46cc06bd33)">
     <use xlink:href="#m814b227dc5" x="0" y="432" style="fill: #ffa500; fill-opacity: 0.2; stroke: #ffa500; stroke-opacity: 0.2; stroke-width: 0.5"/>
    </g>
   </g>
   <g id="line2d_59">
    <path d="M 88.025385 170.543818 
L 114.512632 213.587251 
L 140.99988 266.524381 
L 167.487127 272.90611 
L 193.974374 294.543623 
L 220.461621 304.22549 
L 246.948869 305.901106 
L 273.436116 308.972484 
L 299.923363 309.405995 
L 326.410611 309.638878 
L 352.897858 309.831351 
L 379.385105 310.195618 
L 405.872353 310.604321 
L 432.3596 310.674071 
L 458.846847 311.013307 
L 485.334095 311.374539 
L 511.821342 311.457927 
L 538.308589 311.480495 
L 564.795836 311.489146 
L 591.283084 311.502595 
" clip-path="url(#p46cc06bd33)" style="fill: none; stroke: #008000; stroke-width: 1.5; stroke-linecap: square"/>
    <defs>
     <path id="m4ff3739aec" d="M 0 3 
C 0.795609 3 1.55874 2.683901 2.12132 2.12132 
C 2.683901 1.55874 3 0.795609 3 0 
C 3 -0.795609 2.683901 -1.55874 2.12132 -2.12132 
C 1.55874 -2.683901 0.795609 -3 0 -3 
C -0.795609 -3 -1.55874 -2.683901 -2.12132 -2.12132 
C -2.683901 -1.55874 -3 -0.795609 -3 0 
C -3 0.795609 -2.683901 1.55874 -2.12132 2.12132 
C -1.55874 2.683901 -0.795609 3 0 3 
z
" style="stroke: #ffffff; stroke-width: 0.75"/>
    </defs>
    <g clip-path="url(#p46cc06bd33)">
     <use xlink:href="#m4ff3739aec" x="88.025385" y="170.543818" style="fill: #008000; stroke: #ffffff; stroke-width: 0.75"/>
     <use xlink:href="#m4ff3739aec" x="114.512632" y="213.587251" style="fill: #008000; stroke: #ffffff; stroke-width: 0.75"/>
     <use xlink:href="#m4ff3739aec" x="140.99988" y="266.524381" style="fill: #008000; stroke: #ffffff; stroke-width: 0.75"/>
     <use xlink:href="#m4ff3739aec" x="167.487127" y="272.90611" style="fill: #008000; stroke: #ffffff; stroke-width: 0.75"/>
     <use xlink:href="#m4ff3739aec" x="193.974374" y="294.543623" style="fill: #008000; stroke: #ffffff; stroke-width: 0.75"/>
     <use xlink:href="#m4ff3739aec" x="220.461621" y="304.22549" style="fill: #008000; stroke: #ffffff; stroke-width: 0.75"/>
     <use xlink:href="#m4ff3739aec" x="246.948869" y="305.901106" style="fill: #008000; stroke: #ffffff; stroke-width: 0.75"/>
     <use xlink:href="#m4ff3739aec" x="273.436116" y="308.972484" style="fill: #008000; stroke: #ffffff; stroke-width: 0.75"/>
     <use xlink:href="#m4ff3739aec" x="299.923363" y="309.405995" style="fill: #008000; stroke: #ffffff; stroke-width: 0.75"/>
     <use xlink:href="#m4ff3739aec" x="326.410611" y="309.638878" style="fill: #008000; stroke: #ffffff; stroke-width: 0.75"/>
     <use xlink:href="#m4ff3739aec" x="352.897858" y="309.831351" style="fill: #008000; stroke: #ffffff; stroke-width: 0.75"/>
     <use xlink:href="#m4ff3739aec" x="379.385105" y="310.195618" style="fill: #008000; stroke: #ffffff; stroke-width: 0.75"/>
     <use xlink:href="#m4ff3739aec" x="405.872353" y="310.604321" style="fill: #008000; stroke: #ffffff; stroke-width: 0.75"/>
     <use xlink:href="#m4ff3739aec" x="432.3596" y="310.674071" style="fill: #008000; stroke: #ffffff; stroke-width: 0.75"/>
     <use xlink:href="#m4ff3739aec" x="458.846847" y="311.013307" style="fill: #008000; stroke: #ffffff; stroke-width: 0.75"/>
     <use xlink:href="#m4ff3739aec" x="485.334095" y="311.374539" style="fill: #008000; stroke: #ffffff; stroke-width: 0.75"/>
     <use xlink:href="#m4ff3739aec" x="511.821342" y="311.457927" style="fill: #008000; stroke: #ffffff; stroke-width: 0.75"/>
     <use xlink:href="#m4ff3739aec" x="538.308589" y="311.480495" style="fill: #008000; stroke: #ffffff; stroke-width: 0.75"/>
     <use xlink:href="#m4ff3739aec" x="564.795836" y="311.489146" style="fill: #008000; stroke: #ffffff; stroke-width: 0.75"/>
     <use xlink:href="#m4ff3739aec" x="591.283084" y="311.502595" style="fill: #008000; stroke: #ffffff; stroke-width: 0.75"/>
    </g>
   </g>
   <g id="line2d_60">
    <path d="M 88.025385 208.106743 
L 114.512632 127.387884 
L 140.99988 139.350022 
L 167.487127 42.43779 
L 193.974374 306.556998 
L 220.461621 311.604477 
L 246.948869 212.381658 
L 273.436116 311.604477 
L 299.923363 108.414779 
L 326.410611 311.604477 
L 352.897858 276.670606 
L 379.385105 311.604477 
L 405.872353 311.604477 
L 432.3596 311.604477 
L 458.846847 226.955114 
L 485.334095 245.854416 
L 511.821342 113.69359 
L 538.308589 163.130892 
L 564.795836 262.723624 
L 591.283084 311.604477 
" clip-path="url(#p46cc06bd33)" style="fill: none; stroke-dasharray: 6,2.25; stroke-dashoffset: 0; stroke: #ffa500; stroke-width: 1.5"/>
    <defs>
     <path id="m044a36e4cc" d="M 0 -3 
L -3 3 
L 3 3 
z
" style="stroke: #ffffff; stroke-width: 0.75; stroke-linejoin: miter"/>
    </defs>
    <g clip-path="url(#p46cc06bd33)">
     <use xlink:href="#m044a36e4cc" x="88.025385" y="208.106743" style="fill: #ffa500; stroke: #ffffff; stroke-width: 0.75; stroke-linejoin: miter"/>
     <use xlink:href="#m044a36e4cc" x="114.512632" y="127.387884" style="fill: #ffa500; stroke: #ffffff; stroke-width: 0.75; stroke-linejoin: miter"/>
     <use xlink:href="#m044a36e4cc" x="140.99988" y="139.350022" style="fill: #ffa500; stroke: #ffffff; stroke-width: 0.75; stroke-linejoin: miter"/>
     <use xlink:href="#m044a36e4cc" x="167.487127" y="42.43779" style="fill: #ffa500; stroke: #ffffff; stroke-width: 0.75; stroke-linejoin: miter"/>
     <use xlink:href="#m044a36e4cc" x="193.974374" y="306.556998" style="fill: #ffa500; stroke: #ffffff; stroke-width: 0.75; stroke-linejoin: miter"/>
     <use xlink:href="#m044a36e4cc" x="220.461621" y="311.604477" style="fill: #ffa500; stroke: #ffffff; stroke-width: 0.75; stroke-linejoin: miter"/>
     <use xlink:href="#m044a36e4cc" x="246.948869" y="212.381658" style="fill: #ffa500; stroke: #ffffff; stroke-width: 0.75; stroke-linejoin: miter"/>
     <use xlink:href="#m044a36e4cc" x="273.436116" y="311.604477" style="fill: #ffa500; stroke: #ffffff; stroke-width: 0.75; stroke-linejoin: miter"/>
     <use xlink:href="#m044a36e4cc" x="299.923363" y="108.414779" style="fill: #ffa500; stroke: #ffffff; stroke-width: 0.75; stroke-linejoin: miter"/>
     <use xlink:href="#m044a36e4cc" x="326.410611" y="311.604477" style="fill: #ffa500; stroke: #ffffff; stroke-width: 0.75; stroke-linejoin: miter"/>
     <use xlink:href="#m044a36e4cc" x="352.897858" y="276.670606" style="fill: #ffa500; stroke: #ffffff; stroke-width: 0.75; stroke-linejoin: miter"/>
     <use xlink:href="#m044a36e4cc" x="379.385105" y="311.604477" style="fill: #ffa500; stroke: #ffffff; stroke-width: 0.75; stroke-linejoin: miter"/>
     <use xlink:href="#m044a36e4cc" x="405.872353" y="311.604477" style="fill: #ffa500; stroke: #ffffff; stroke-width: 0.75; stroke-linejoin: miter"/>
     <use xlink:href="#m044a36e4cc" x="432.3596" y="311.604477" style="fill: #ffa500; stroke: #ffffff; stroke-width: 0.75; stroke-linejoin: miter"/>
     <use xlink:href="#m044a36e4cc" x="458.846847" y="226.955114" style="fill: #ffa500; stroke: #ffffff; stroke-width: 0.75; stroke-linejoin: miter"/>
     <use xlink:href="#m044a36e4cc" x="485.334095" y="245.854416" style="fill: #ffa500; stroke: #ffffff; stroke-width: 0.75; stroke-linejoin: miter"/>
     <use xlink:href="#m044a36e4cc" x="511.821342" y="113.69359" style="fill: #ffa500; stroke: #ffffff; stroke-width: 0.75; stroke-linejoin: miter"/>
     <use xlink:href="#m044a36e4cc" x="538.308589" y="163.130892" style="fill: #ffa500; stroke: #ffffff; stroke-width: 0.75; stroke-linejoin: miter"/>
     <use xlink:href="#m044a36e4cc" x="564.795836" y="262.723624" style="fill: #ffa500; stroke: #ffffff; stroke-width: 0.75; stroke-linejoin: miter"/>
     <use xlink:href="#m044a36e4cc" x="591.283084" y="311.604477" style="fill: #ffa500; stroke: #ffffff; stroke-width: 0.75; stroke-linejoin: miter"/>
    </g>
   </g>
   <g id="line2d_61"/>
   <g id="line2d_62"/>
   <g id="patch_3">
    <path d="M 62.8625 325.105464 
L 62.8625 28.08375 
" style="fill: none; stroke: #000000; stroke-width: 1.2; stroke-linejoin: miter; stroke-linecap: square"/>
   </g>
   <g id="patch_4">
    <path d="M 616.445969 325.105464 
L 616.445969 28.08375 
" style="fill: none; stroke: #000000; stroke-width: 1.2; stroke-linejoin: miter; stroke-linecap: square"/>
   </g>
   <g id="patch_5">
    <path d="M 62.8625 325.105464 
L 616.445969 325.105464 
" style="fill: none; stroke: #000000; stroke-width: 1.2; stroke-linejoin: miter; stroke-linecap: square"/>
   </g>
   <g id="patch_6">
    <path d="M 62.8625 28.08375 
L 616.445969 28.08375 
" style="fill: none; stroke: #000000; stroke-width: 1.2; stroke-linejoin: miter; stroke-linecap: square"/>
   </g>
   <g id="text_32">
    <!-- Highest average index for each control area (PV Buses) - SE-CW - IndiceSup_s1 -->
    <g transform="translate(35.822203 22.08375) scale(0.15 -0.15)">
     <defs>
      <path id="DejaVuSerif-48" d="M 353 0 
L 353 331 
L 947 331 
L 947 4331 
L 353 4331 
L 353 4666 
L 2175 4666 
L 2175 4331 
L 1581 4331 
L 1581 2719 
L 4000 2719 
L 4000 4331 
L 3406 4331 
L 3406 4666 
L 5228 4666 
L 5228 4331 
L 4634 4331 
L 4634 331 
L 5228 331 
L 5228 0 
L 3406 0 
L 3406 331 
L 4000 331 
L 4000 2338 
L 1581 2338 
L 1581 331 
L 2175 331 
L 2175 0 
L 353 0 
z
" transform="scale(0.015625)"/>
      <path id="DejaVuSerif-67" d="M 3359 2988 
L 3359 72 
Q 3359 -644 2965 -1033 
Q 2572 -1422 1844 -1422 
Q 1516 -1422 1216 -1362 
Q 916 -1303 641 -1184 
L 641 -488 
L 941 -488 
Q 997 -813 1206 -963 
Q 1416 -1113 1806 -1113 
Q 2313 -1113 2548 -827 
Q 2784 -541 2784 72 
L 2784 519 
Q 2616 206 2355 57 
Q 2094 -91 1709 -91 
Q 1097 -91 708 395 
Q 319 881 319 1663 
Q 319 2444 706 2928 
Q 1094 3413 1709 3413 
Q 2094 3413 2355 3264 
Q 2616 3116 2784 2803 
L 2784 3322 
L 3909 3322 
L 3909 2988 
L 3359 2988 
z
M 2784 1825 
Q 2784 2422 2554 2737 
Q 2325 3053 1888 3053 
Q 1444 3053 1217 2703 
Q 991 2353 991 1663 
Q 991 975 1217 622 
Q 1444 269 1888 269 
Q 2325 269 2554 583 
Q 2784 897 2784 1497 
L 2784 1825 
z
" transform="scale(0.015625)"/>
      <path id="DejaVuSerif-68" d="M 263 0 
L 263 331 
L 781 331 
L 781 4531 
L 231 4531 
L 231 4863 
L 1356 4863 
L 1356 2731 
Q 1516 3069 1770 3241 
Q 2025 3413 2363 3413 
Q 2913 3413 3172 3097 
Q 3431 2781 3431 2113 
L 3431 331 
L 3944 331 
L 3944 0 
L 2356 0 
L 2356 331 
L 2853 331 
L 2853 1931 
Q 2853 2541 2704 2764 
Q 2556 2988 2175 2988 
Q 1775 2988 1565 2697 
Q 1356 2406 1356 1850 
L 1356 331 
L 1856 331 
L 1856 0 
L 263 0 
z
" transform="scale(0.015625)"/>
      <path id="DejaVuSerif-76" d="M 1581 0 
L 359 2988 
L -19 2988 
L -19 3322 
L 1509 3322 
L 1509 2988 
L 978 2988 
L 1913 703 
L 2847 2988 
L 2350 2988 
L 2350 3322 
L 3597 3322 
L 3597 2988 
L 3225 2988 
L 2003 0 
L 1581 0 
z
" transform="scale(0.015625)"/>
      <path id="DejaVuSerif-78" d="M 1863 2028 
L 2559 2988 
L 2113 2988 
L 2113 3322 
L 3391 3322 
L 3391 2988 
L 2950 2988 
L 2059 1759 
L 3097 331 
L 3531 331 
L 3531 0 
L 1997 0 
L 1997 331 
L 2419 331 
L 1697 1325 
L 972 331 
L 1403 331 
L 1403 0 
L 141 0 
L 141 331 
L 581 331 
L 1497 1594 
L 488 2988 
L 78 2988 
L 78 3322 
L 1563 3322 
L 1563 2988 
L 1166 2988 
L 1863 2028 
z
" transform="scale(0.015625)"/>
      <path id="DejaVuSerif-66" d="M 2753 4078 
L 2450 4078 
Q 2447 4313 2317 4434 
Q 2188 4556 1941 4556 
Q 1619 4556 1487 4379 
Q 1356 4203 1356 3750 
L 1356 3322 
L 2284 3322 
L 2284 2988 
L 1356 2988 
L 1356 331 
L 2094 331 
L 2094 0 
L 231 0 
L 231 331 
L 781 331 
L 781 2988 
L 231 2988 
L 231 3322 
L 781 3322 
L 781 3738 
Q 781 4294 1070 4578 
Q 1359 4863 1919 4863 
Q 2128 4863 2337 4825 
Q 2547 4788 2753 4709 
L 2753 4078 
z
" transform="scale(0.015625)"/>
      <path id="DejaVuSerif-63" d="M 3291 997 
Q 3169 466 2822 187 
Q 2475 -91 1925 -91 
Q 1200 -91 759 389 
Q 319 869 319 1663 
Q 319 2459 759 2936 
Q 1200 3413 1925 3413 
Q 2241 3413 2553 3339 
Q 2866 3266 3181 3116 
L 3181 2266 
L 2847 2266 
Q 2781 2703 2561 2903 
Q 2341 3103 1931 3103 
Q 1466 3103 1228 2742 
Q 991 2381 991 1663 
Q 991 944 1227 581 
Q 1463 219 1931 219 
Q 2303 219 2525 412 
Q 2747 606 2828 997 
L 3291 997 
z
" transform="scale(0.015625)"/>
      <path id="DejaVuSerif-45" d="M 353 0 
L 353 331 
L 947 331 
L 947 4331 
L 353 4331 
L 353 4666 
L 4109 4666 
L 4109 3628 
L 3725 3628 
L 3725 4281 
L 1581 4281 
L 1581 2719 
L 3109 2719 
L 3109 3303 
L 3494 3303 
L 3494 1753 
L 3109 1753 
L 3109 2338 
L 1581 2338 
L 1581 384 
L 3775 384 
L 3775 1038 
L 4159 1038 
L 4159 0 
L 353 0 
z
" transform="scale(0.015625)"/>
      <path id="DejaVuSerif-57" d="M 4878 0 
L 4366 0 
L 3297 3794 
L 2228 0 
L 1716 0 
L 494 4331 
L 31 4331 
L 31 4666 
L 1734 4666 
L 1734 4331 
L 1153 4331 
L 2125 884 
L 3188 4666 
L 3694 4666 
L 4775 844 
L 5753 4331 
L 5216 4331 
L 5216 4666 
L 6559 4666 
L 6559 4331 
L 6100 4331 
L 4878 0 
z
" transform="scale(0.015625)"/>
      <path id="DejaVuSerif-49" d="M 1581 331 
L 2175 331 
L 2175 0 
L 353 0 
L 353 331 
L 947 331 
L 947 4331 
L 353 4331 
L 353 4666 
L 2175 4666 
L 2175 4331 
L 1581 4331 
L 1581 331 
z
" transform="scale(0.015625)"/>
      <path id="DejaVuSerif-5f" d="M 3200 -1259 
L 3200 -1509 
L 0 -1509 
L 0 -1259 
L 3200 -1259 
z
" transform="scale(0.015625)"/>
     </defs>
     <use xlink:href="#DejaVuSerif-48"/>
     <use xlink:href="#DejaVuSerif-69" x="87.207031"/>
     <use xlink:href="#DejaVuSerif-67" x="119.189453"/>
     <use xlink:href="#DejaVuSerif-68" x="183.203125"/>
     <use xlink:href="#DejaVuSerif-65" x="247.607422"/>
     <use xlink:href="#DejaVuSerif-73" x="306.787109"/>
     <use xlink:href="#DejaVuSerif-74" x="358.105469"/>
     <use xlink:href="#DejaVuSerif-20" x="398.291016"/>
     <use xlink:href="#DejaVuSerif-61" x="430.078125"/>
     <use xlink:href="#DejaVuSerif-76" x="489.697266"/>
     <use xlink:href="#DejaVuSerif-65" x="546.191406"/>
     <use xlink:href="#DejaVuSerif-72" x="605.371094"/>
     <use xlink:href="#DejaVuSerif-61" x="653.173828"/>
     <use xlink:href="#DejaVuSerif-67" x="712.792969"/>
     <use xlink:href="#DejaVuSerif-65" x="776.806641"/>
     <use xlink:href="#DejaVuSerif-20" x="835.986328"/>
     <use xlink:href="#DejaVuSerif-69" x="867.773438"/>
     <use xlink:href="#DejaVuSerif-6e" x="899.755859"/>
     <use xlink:href="#DejaVuSerif-64" x="964.160156"/>
     <use xlink:href="#DejaVuSerif-65" x="1028.173828"/>
     <use xlink:href="#DejaVuSerif-78" x="1087.353516"/>
     <use xlink:href="#DejaVuSerif-20" x="1143.75"/>
     <use xlink:href="#DejaVuSerif-66" x="1175.537109"/>
     <use xlink:href="#DejaVuSerif-6f" x="1212.548828"/>
     <use xlink:href="#DejaVuSerif-72" x="1272.753906"/>
     <use xlink:href="#DejaVuSerif-20" x="1320.556641"/>
     <use xlink:href="#DejaVuSerif-65" x="1352.34375"/>
     <use xlink:href="#DejaVuSerif-61" x="1411.523438"/>
     <use xlink:href="#DejaVuSerif-63" x="1471.142578"/>
     <use xlink:href="#DejaVuSerif-68" x="1527.148438"/>
     <use xlink:href="#DejaVuSerif-20" x="1591.552734"/>
     <use xlink:href="#DejaVuSerif-63" x="1623.339844"/>
     <use xlink:href="#DejaVuSerif-6f" x="1679.345703"/>
     <use xlink:href="#DejaVuSerif-6e" x="1739.550781"/>
     <use xlink:href="#DejaVuSerif-74" x="1803.955078"/>
     <use xlink:href="#DejaVuSerif-72" x="1844.140625"/>
     <use xlink:href="#DejaVuSerif-6f" x="1891.943359"/>
     <use xlink:href="#DejaVuSerif-6c" x="1952.148438"/>
     <use xlink:href="#DejaVuSerif-20" x="1984.130859"/>
     <use xlink:href="#DejaVuSerif-61" x="2015.917969"/>
     <use xlink:href="#DejaVuSerif-72" x="2075.537109"/>
     <use xlink:href="#DejaVuSerif-65" x="2123.339844"/>
     <use xlink:href="#DejaVuSerif-61" x="2182.519531"/>
     <use xlink:href="#DejaVuSerif-20" x="2242.138672"/>
     <use xlink:href="#DejaVuSerif-28" x="2273.925781"/>
     <use xlink:href="#DejaVuSerif-50" x="2312.939453"/>
     <use xlink:href="#DejaVuSerif-56" x="2380.224609"/>
     <use xlink:href="#DejaVuSerif-20" x="2452.441406"/>
     <use xlink:href="#DejaVuSerif-42" x="2484.228516"/>
     <use xlink:href="#DejaVuSerif-75" x="2557.714844"/>
     <use xlink:href="#DejaVuSerif-73" x="2622.119141"/>
     <use xlink:href="#DejaVuSerif-65" x="2673.4375"/>
     <use xlink:href="#DejaVuSerif-73" x="2732.617188"/>
     <use xlink:href="#DejaVuSerif-29" x="2783.935547"/>
     <use xlink:href="#DejaVuSerif-20" x="2822.949219"/>
     <use xlink:href="#DejaVuSerif-2d" x="2854.736328"/>
     <use xlink:href="#DejaVuSerif-20" x="2888.525391"/>
     <use xlink:href="#DejaVuSerif-53" x="2920.3125"/>
     <use xlink:href="#DejaVuSerif-45" x="2988.818359"/>
     <use xlink:href="#DejaVuSerif-2d" x="3063.691406"/>
     <use xlink:href="#DejaVuSerif-43" x="3097.480469"/>
     <use xlink:href="#DejaVuSerif-57" x="3173.994141"/>
     <use xlink:href="#DejaVuSerif-20" x="3276.777344"/>
     <use xlink:href="#DejaVuSerif-2d" x="3308.564453"/>
     <use xlink:href="#DejaVuSerif-20" x="3342.353516"/>
     <use xlink:href="#DejaVuSerif-49" x="3374.140625"/>
     <use xlink:href="#DejaVuSerif-6e" x="3413.642578"/>
     <use xlink:href="#DejaVuSerif-64" x="3478.046875"/>
     <use xlink:href="#DejaVuSerif-69" x="3542.060547"/>
     <use xlink:href="#DejaVuSerif-63" x="3574.042969"/>
     <use xlink:href="#DejaVuSerif-65" x="3630.048828"/>
     <use xlink:href="#DejaVuSerif-53" x="3689.228516"/>
     <use xlink:href="#DejaVuSerif-75" x="3757.734375"/>
     <use xlink:href="#DejaVuSerif-70" x="3822.138672"/>
     <use xlink:href="#DejaVuSerif-5f" x="3886.152344"/>
     <use xlink:href="#DejaVuSerif-73" x="3936.152344"/>
     <use xlink:href="#DejaVuSerif-31" x="3987.470703"/>
    </g>
   </g>
   <g id="legend_1">
    <g id="patch_7">
     <path d="M 625.545969 92.825 
L 705.885969 92.825 
Q 708.485969 92.825 708.485969 90.225 
L 708.485969 37.18375 
Q 708.485969 34.58375 705.885969 34.58375 
L 625.545969 34.58375 
Q 622.945969 34.58375 622.945969 37.18375 
L 622.945969 90.225 
Q 622.945969 92.825 625.545969 92.825 
z
" style="fill: #e5e5e5; opacity: 0.8; stroke: #cccccc; stroke-width: 0.5; stroke-linejoin: miter"/>
    </g>
    <g id="text_33">
     <!-- Indices -->
     <g transform="translate(647.395656 47.382188) scale(0.1 -0.1)">
      <use xlink:href="#DejaVuSerif-49"/>
      <use xlink:href="#DejaVuSerif-6e" x="39.501953"/>
      <use xlink:href="#DejaVuSerif-64" x="103.90625"/>
      <use xlink:href="#DejaVuSerif-69" x="167.919922"/>
      <use xlink:href="#DejaVuSerif-63" x="199.902344"/>
      <use xlink:href="#DejaVuSerif-65" x="255.908203"/>
      <use xlink:href="#DejaVuSerif-73" x="315.087891"/>
     </g>
    </g>
    <g id="line2d_63">
     <defs>
      <path id="m54350e09a8" d="M 0 5 
C 1.326016 5 2.597899 4.473168 3.535534 3.535534 
C 4.473168 2.597899 5 1.326016 5 0 
C 5 -1.326016 4.473168 -2.597899 3.535534 -3.535534 
C 2.597899 -4.473168 1.326016 -5 0 -5 
C -1.326016 -5 -2.597899 -4.473168 -3.535534 -3.535534 
C -4.473168 -2.597899 -5 -1.326016 -5 0 
C -5 1.326016 -4.473168 2.597899 -3.535534 3.535534 
C -2.597899 4.473168 -1.326016 5 0 5 
z
" style="stroke: #008000"/>
     </defs>
     <g>
      <use xlink:href="#m54350e09a8" x="641.145969" y="61.289844" style="fill: #008000; stroke: #008000"/>
     </g>
    </g>
    <g id="text_34">
     <!-- $\mathrm{VPI}^\mathrm{u}$ -->
     <g transform="translate(664.545969 65.839844) scale(0.13 -0.13)">
      <use xlink:href="#DejaVuSerif-56" transform="translate(0 0.09375)"/>
      <use xlink:href="#DejaVuSerif-50" transform="translate(72.216797 0.09375)"/>
      <use xlink:href="#DejaVuSerif-49" transform="translate(139.501953 0.09375)"/>
      <use xlink:href="#DejaVuSerif-75" transform="translate(179.912266 36.428125) scale(0.7)"/>
     </g>
    </g>
    <g id="line2d_64">
     <defs>
      <path id="m59ededa65d" d="M 0 -5 
L -5 5 
L 5 5 
z
" style="stroke: #ffa500; stroke-linejoin: miter"/>
     </defs>
     <g>
      <use xlink:href="#m59ededa65d" x="641.145969" y="80.371406" style="fill: #ffa500; stroke: #ffa500; stroke-linejoin: miter"/>
     </g>
    </g>
    <g id="text_35">
     <!-- $\mathrm{RPI}^\mathrm{ind}$ -->
     <g transform="translate(664.545969 84.921406) scale(0.13 -0.13)">
      <use xlink:href="#DejaVuSerif-52" transform="translate(0 0.476562)"/>
      <use xlink:href="#DejaVuSerif-50" transform="translate(75.292969 0.476562)"/>
      <use xlink:href="#DejaVuSerif-49" transform="translate(142.578125 0.476562)"/>
      <use xlink:href="#DejaVuSerif-69" transform="translate(182.988438 36.810937) scale(0.7)"/>
      <use xlink:href="#DejaVuSerif-6e" transform="translate(205.376133 36.810937) scale(0.7)"/>
      <use xlink:href="#DejaVuSerif-64" transform="translate(250.459141 36.810937) scale(0.7)"/>
     </g>
    </g>
   </g>
  </g>
 </g>
 <defs>
  <clipPath id="p46cc06bd33">
   <rect x="62.8625" y="28.08375" width="553.583469" height="297.021714"/>
  </clipPath>
 </defs>
</svg>
