<?xml version="1.0" encoding="utf-8" standalone="no"?>
<!DOCTYPE svg PUBLIC "-//W3C//DTD SVG 1.1//EN"
  "http://www.w3.org/Graphics/SVG/1.1/DTD/svg11.dtd">
<svg xmlns:xlink="http://www.w3.org/1999/xlink" width="720pt" height="432pt" viewBox="0 0 720 432" xmlns="http://www.w3.org/2000/svg" version="1.1">
 <metadata>
  <rdf:RDF xmlns:dc="http://purl.org/dc/elements/1.1/" xmlns:cc="http://creativecommons.org/ns#" xmlns:rdf="http://www.w3.org/1999/02/22-rdf-syntax-ns#">
   <cc:Work>
    <dc:type rdf:resource="http://purl.org/dc/dcmitype/StillImage"/>
    <dc:date>2024-09-25T20:58:16.566410</dc:date>
    <dc:format>image/svg+xml</dc:format>
    <dc:creator>
     <cc:Agent>
      <dc:title>Matplotlib v3.7.2, https://matplotlib.org/</dc:title>
     </cc:Agent>
    </dc:creator>
   </cc:Work>
  </rdf:RDF>
 </metadata>
 <defs>
  <style type="text/css">*{stroke-linejoin: round; stroke-linecap: butt}</style>
 </defs>
 <g id="figure_1">
  <g id="patch_1">
   <path d="M 0 432 
L 720 432 
L 720 0 
L 0 0 
z
" style="fill: #ffffff"/>
  </g>
  <g id="axes_1">
   <g id="patch_2">
    <path d="M 62.8625 325.227419 
L 614.846922 325.227419 
L 614.846922 28.08375 
L 62.8625 28.08375 
z
" style="fill: #e5e5e5"/>
   </g>
   <g id="matplotlib.axis_1">
    <g id="xtick_1">
     <g id="line2d_1">
      <path d="M 87.952701 325.227419 
L 87.952701 28.08375 
" clip-path="url(#p190e878433)" style="fill: none; stroke: #ffffff; stroke-width: 0.8; stroke-linecap: square"/>
     </g>
     <g id="line2d_2">
      <defs>
       <path id="m0c50eb0055" d="M 0 0 
L 0 3.5 
" style="stroke: #000000; stroke-width: 0.8"/>
      </defs>
      <g>
       <use xlink:href="#m0c50eb0055" x="87.952701" y="325.227419" style="stroke: #000000; stroke-width: 0.8"/>
      </g>
     </g>
     <g id="text_1">
      <!-- JIPAR-SIN001 -->
      <g transform="translate(36.600176 387.48229) rotate(-45) scale(0.1 -0.1)">
       <defs>
        <path id="DejaVuSerif-4a" d="M -538 -1119 
L -538 -384 
L -181 -384 
Q -172 -694 -34 -845 
Q 103 -997 378 -997 
Q 750 -997 897 -762 
Q 1044 -528 1044 153 
L 1044 4331 
L 319 4331 
L 319 4666 
L 2272 4666 
L 2272 4331 
L 1678 4331 
L 1678 128 
Q 1678 -644 1368 -987 
Q 1059 -1331 372 -1331 
Q 150 -1331 -79 -1278 
Q -309 -1225 -538 -1119 
z
" transform="scale(0.015625)"/>
        <path id="DejaVuSerif-49" d="M 1581 331 
L 2175 331 
L 2175 0 
L 353 0 
L 353 331 
L 947 331 
L 947 4331 
L 353 4331 
L 353 4666 
L 2175 4666 
L 2175 4331 
L 1581 4331 
L 1581 331 
z
" transform="scale(0.015625)"/>
        <path id="DejaVuSerif-50" d="M 1581 2375 
L 2406 2375 
Q 2872 2375 3115 2626 
Q 3359 2878 3359 3353 
Q 3359 3831 3115 4081 
Q 2872 4331 2406 4331 
L 1581 4331 
L 1581 2375 
z
M 353 0 
L 353 331 
L 947 331 
L 947 4331 
L 353 4331 
L 353 4666 
L 2559 4666 
Q 3259 4666 3668 4311 
Q 4078 3956 4078 3353 
Q 4078 2753 3668 2397 
Q 3259 2041 2559 2041 
L 1581 2041 
L 1581 331 
L 2303 331 
L 2303 0 
L 353 0 
z
" transform="scale(0.015625)"/>
        <path id="DejaVuSerif-41" d="M 1281 1691 
L 2994 1691 
L 2138 3909 
L 1281 1691 
z
M -38 0 
L -38 331 
L 372 331 
L 2034 4666 
L 2559 4666 
L 4225 331 
L 4684 331 
L 4684 0 
L 2988 0 
L 2988 331 
L 3506 331 
L 3116 1356 
L 1153 1356 
L 763 331 
L 1275 331 
L 1275 0 
L -38 0 
z
" transform="scale(0.015625)"/>
        <path id="DejaVuSerif-52" d="M 3066 2316 
Q 3284 2256 3442 2114 
Q 3600 1972 3725 1716 
L 4403 331 
L 4972 331 
L 4972 0 
L 3872 0 
L 3144 1484 
Q 2934 1916 2759 2042 
Q 2584 2169 2278 2169 
L 1581 2169 
L 1581 331 
L 2241 331 
L 2241 0 
L 353 0 
L 353 331 
L 947 331 
L 947 4331 
L 353 4331 
L 353 4666 
L 2719 4666 
Q 3400 4666 3770 4341 
Q 4141 4016 4141 3419 
Q 4141 2938 3870 2661 
Q 3600 2384 3066 2316 
z
M 1581 2503 
L 2503 2503 
Q 2975 2503 3200 2726 
Q 3425 2950 3425 3419 
Q 3425 3888 3200 4109 
Q 2975 4331 2503 4331 
L 1581 4331 
L 1581 2503 
z
" transform="scale(0.015625)"/>
        <path id="DejaVuSerif-2d" d="M 281 1959 
L 1881 1959 
L 1881 1472 
L 281 1472 
L 281 1959 
z
" transform="scale(0.015625)"/>
        <path id="DejaVuSerif-53" d="M 594 225 
L 594 1288 
L 953 1284 
Q 969 753 1261 498 
Q 1553 244 2150 244 
Q 2706 244 2998 464 
Q 3291 684 3291 1106 
Q 3291 1444 3114 1625 
Q 2938 1806 2369 1978 
L 1753 2163 
Q 1084 2366 811 2669 
Q 538 2972 538 3500 
Q 538 4094 959 4422 
Q 1381 4750 2144 4750 
Q 2469 4750 2856 4679 
Q 3244 4609 3681 4475 
L 3681 3481 
L 3328 3481 
Q 3275 3975 2998 4195 
Q 2722 4416 2156 4416 
Q 1663 4416 1405 4214 
Q 1147 4013 1147 3628 
Q 1147 3294 1340 3103 
Q 1534 2913 2163 2725 
L 2741 2553 
Q 3375 2363 3645 2067 
Q 3916 1772 3916 1275 
Q 3916 597 3481 253 
Q 3047 -91 2188 -91 
Q 1803 -91 1404 -12 
Q 1006 66 594 225 
z
" transform="scale(0.015625)"/>
        <path id="DejaVuSerif-4e" d="M 313 0 
L 313 331 
L 941 331 
L 941 4331 
L 313 4331 
L 313 4666 
L 1509 4666 
L 4306 984 
L 4306 4331 
L 3681 4331 
L 3681 4666 
L 5319 4666 
L 5319 4331 
L 4691 4331 
L 4691 -91 
L 4313 -91 
L 1325 3841 
L 1325 331 
L 1953 331 
L 1953 0 
L 313 0 
z
" transform="scale(0.015625)"/>
        <path id="DejaVuSerif-30" d="M 2034 219 
Q 2513 219 2750 744 
Q 2988 1269 2988 2328 
Q 2988 3391 2750 3916 
Q 2513 4441 2034 4441 
Q 1556 4441 1318 3916 
Q 1081 3391 1081 2328 
Q 1081 1269 1318 744 
Q 1556 219 2034 219 
z
M 2034 -91 
Q 1275 -91 848 546 
Q 422 1184 422 2328 
Q 422 3475 848 4112 
Q 1275 4750 2034 4750 
Q 2797 4750 3222 4112 
Q 3647 3475 3647 2328 
Q 3647 1184 3222 546 
Q 2797 -91 2034 -91 
z
" transform="scale(0.015625)"/>
        <path id="DejaVuSerif-31" d="M 909 0 
L 909 331 
L 1722 331 
L 1722 4213 
L 781 3603 
L 781 4013 
L 1919 4750 
L 2350 4750 
L 2350 331 
L 3163 331 
L 3163 0 
L 909 0 
z
" transform="scale(0.015625)"/>
       </defs>
       <use xlink:href="#DejaVuSerif-4a"/>
       <use xlink:href="#DejaVuSerif-49" x="40.087891"/>
       <use xlink:href="#DejaVuSerif-50" x="79.589844"/>
       <use xlink:href="#DejaVuSerif-41" x="137.75"/>
       <use xlink:href="#DejaVuSerif-52" x="209.966797"/>
       <use xlink:href="#DejaVuSerif-2d" x="285.259766"/>
       <use xlink:href="#DejaVuSerif-53" x="319.048828"/>
       <use xlink:href="#DejaVuSerif-49" x="387.554688"/>
       <use xlink:href="#DejaVuSerif-4e" x="427.056641"/>
       <use xlink:href="#DejaVuSerif-30" x="514.556641"/>
       <use xlink:href="#DejaVuSerif-30" x="578.179688"/>
       <use xlink:href="#DejaVuSerif-31" x="641.802734"/>
      </g>
     </g>
    </g>
    <g id="xtick_2">
     <g id="line2d_3">
      <path d="M 138.133103 325.227419 
L 138.133103 28.08375 
" clip-path="url(#p190e878433)" style="fill: none; stroke: #ffffff; stroke-width: 0.8; stroke-linecap: square"/>
     </g>
     <g id="line2d_4">
      <g>
       <use xlink:href="#m0c50eb0055" x="138.133103" y="325.227419" style="stroke: #000000; stroke-width: 0.8"/>
      </g>
     </g>
     <g id="text_2">
      <!-- ARIQU-SIN001 -->
      <g transform="translate(82.094891 392.167977) rotate(-45) scale(0.1 -0.1)">
       <defs>
        <path id="DejaVuSerif-51" d="M 2700 -91 
Q 1628 -91 993 567 
Q 359 1225 359 2328 
Q 359 2894 529 3339 
Q 700 3784 1050 4134 
Q 1356 4441 1750 4595 
Q 2144 4750 2625 4750 
Q 3641 4750 4266 4084 
Q 4891 3419 4891 2328 
Q 4891 1403 4422 773 
Q 3953 144 3128 -38 
Q 3297 -247 3539 -347 
Q 3781 -447 4122 -447 
L 4219 -447 
L 4219 -1025 
Q 3691 -1000 3314 -767 
Q 2938 -534 2700 -91 
z
M 2625 244 
Q 3391 244 3781 770 
Q 4172 1297 4172 2328 
Q 4172 3363 3781 3889 
Q 3391 4416 2625 4416 
Q 1856 4416 1465 3889 
Q 1075 3363 1075 2328 
Q 1075 1297 1465 770 
Q 1856 244 2625 244 
z
" transform="scale(0.015625)"/>
        <path id="DejaVuSerif-55" d="M 897 4331 
L 300 4331 
L 300 4666 
L 2125 4666 
L 2125 4331 
L 1528 4331 
L 1528 1919 
Q 1528 1025 1820 672 
Q 2113 319 2828 319 
Q 3544 319 3836 672 
Q 4128 1025 4128 1919 
L 4128 4331 
L 3531 4331 
L 3531 4666 
L 5106 4666 
L 5106 4331 
L 4513 4331 
L 4513 1856 
Q 4513 791 4103 350 
Q 3694 -91 2713 -91 
Q 1731 -91 1314 353 
Q 897 797 897 1856 
L 897 4331 
z
" transform="scale(0.015625)"/>
       </defs>
       <use xlink:href="#DejaVuSerif-41"/>
       <use xlink:href="#DejaVuSerif-52" x="72.216797"/>
       <use xlink:href="#DejaVuSerif-49" x="147.509766"/>
       <use xlink:href="#DejaVuSerif-51" x="187.011719"/>
       <use xlink:href="#DejaVuSerif-55" x="268.994141"/>
       <use xlink:href="#DejaVuSerif-2d" x="351.521484"/>
       <use xlink:href="#DejaVuSerif-53" x="385.310547"/>
       <use xlink:href="#DejaVuSerif-49" x="453.816406"/>
       <use xlink:href="#DejaVuSerif-4e" x="493.318359"/>
       <use xlink:href="#DejaVuSerif-30" x="580.818359"/>
       <use xlink:href="#DejaVuSerif-30" x="644.441406"/>
       <use xlink:href="#DejaVuSerif-31" x="708.064453"/>
      </g>
     </g>
    </g>
    <g id="xtick_3">
     <g id="line2d_5">
      <path d="M 188.313505 325.227419 
L 188.313505 28.08375 
" clip-path="url(#p190e878433)" style="fill: none; stroke: #ffffff; stroke-width: 0.8; stroke-linecap: square"/>
     </g>
     <g id="line2d_6">
      <g>
       <use xlink:href="#m0c50eb0055" x="188.313505" y="325.227419" style="stroke: #000000; stroke-width: 0.8"/>
      </g>
     </g>
     <g id="text_3">
      <!-- ROND2-UHE003 -->
      <g transform="translate(126.191965 398.251305) rotate(-45) scale(0.1 -0.1)">
       <defs>
        <path id="DejaVuSerif-4f" d="M 2625 244 
Q 3391 244 3781 770 
Q 4172 1297 4172 2328 
Q 4172 3363 3781 3889 
Q 3391 4416 2625 4416 
Q 1856 4416 1465 3889 
Q 1075 3363 1075 2328 
Q 1075 1297 1465 770 
Q 1856 244 2625 244 
z
M 2625 -91 
Q 2150 -91 1751 65 
Q 1353 222 1050 525 
Q 700 875 529 1319 
Q 359 1763 359 2328 
Q 359 2894 529 3339 
Q 700 3784 1050 4134 
Q 1356 4441 1750 4595 
Q 2144 4750 2625 4750 
Q 3641 4750 4266 4084 
Q 4891 3419 4891 2328 
Q 4891 1769 4719 1320 
Q 4547 872 4197 525 
Q 3891 219 3497 64 
Q 3103 -91 2625 -91 
z
" transform="scale(0.015625)"/>
        <path id="DejaVuSerif-44" d="M 1581 331 
L 2163 331 
Q 3072 331 3558 850 
Q 4044 1369 4044 2338 
Q 4044 3306 3559 3818 
Q 3075 4331 2163 4331 
L 1581 4331 
L 1581 331 
z
M 353 0 
L 353 331 
L 947 331 
L 947 4331 
L 353 4331 
L 353 4666 
L 2209 4666 
Q 3416 4666 4089 4050 
Q 4763 3434 4763 2338 
Q 4763 1238 4088 619 
Q 3413 0 2209 0 
L 353 0 
z
" transform="scale(0.015625)"/>
        <path id="DejaVuSerif-32" d="M 819 3553 
L 469 3553 
L 469 4384 
Q 803 4563 1142 4656 
Q 1481 4750 1806 4750 
Q 2534 4750 2956 4397 
Q 3378 4044 3378 3438 
Q 3378 2753 2422 1800 
Q 2347 1728 2309 1691 
L 1131 513 
L 3078 513 
L 3078 1088 
L 3444 1088 
L 3444 0 
L 434 0 
L 434 341 
L 1850 1753 
Q 2319 2222 2519 2614 
Q 2719 3006 2719 3438 
Q 2719 3909 2473 4175 
Q 2228 4441 1797 4441 
Q 1350 4441 1106 4219 
Q 863 3997 819 3553 
z
" transform="scale(0.015625)"/>
        <path id="DejaVuSerif-48" d="M 353 0 
L 353 331 
L 947 331 
L 947 4331 
L 353 4331 
L 353 4666 
L 2175 4666 
L 2175 4331 
L 1581 4331 
L 1581 2719 
L 4000 2719 
L 4000 4331 
L 3406 4331 
L 3406 4666 
L 5228 4666 
L 5228 4331 
L 4634 4331 
L 4634 331 
L 5228 331 
L 5228 0 
L 3406 0 
L 3406 331 
L 4000 331 
L 4000 2338 
L 1581 2338 
L 1581 331 
L 2175 331 
L 2175 0 
L 353 0 
z
" transform="scale(0.015625)"/>
        <path id="DejaVuSerif-45" d="M 353 0 
L 353 331 
L 947 331 
L 947 4331 
L 353 4331 
L 353 4666 
L 4109 4666 
L 4109 3628 
L 3725 3628 
L 3725 4281 
L 1581 4281 
L 1581 2719 
L 3109 2719 
L 3109 3303 
L 3494 3303 
L 3494 1753 
L 3109 1753 
L 3109 2338 
L 1581 2338 
L 1581 384 
L 3775 384 
L 3775 1038 
L 4159 1038 
L 4159 0 
L 353 0 
z
" transform="scale(0.015625)"/>
        <path id="DejaVuSerif-33" d="M 622 4469 
Q 988 4606 1323 4678 
Q 1659 4750 1953 4750 
Q 2638 4750 3022 4454 
Q 3406 4159 3406 3634 
Q 3406 3213 3140 2930 
Q 2875 2647 2388 2547 
Q 2963 2466 3280 2130 
Q 3597 1794 3597 1259 
Q 3597 606 3158 257 
Q 2719 -91 1894 -91 
Q 1528 -91 1179 -12 
Q 831 66 488 225 
L 488 1131 
L 838 1131 
Q 869 681 1141 450 
Q 1413 219 1906 219 
Q 2384 219 2661 495 
Q 2938 772 2938 1253 
Q 2938 1803 2653 2086 
Q 2369 2369 1819 2369 
L 1522 2369 
L 1522 2688 
L 1678 2688 
Q 2225 2688 2498 2914 
Q 2772 3141 2772 3597 
Q 2772 4006 2547 4223 
Q 2322 4441 1900 4441 
Q 1478 4441 1245 4241 
Q 1013 4041 972 3647 
L 622 3647 
L 622 4469 
z
" transform="scale(0.015625)"/>
       </defs>
       <use xlink:href="#DejaVuSerif-52"/>
       <use xlink:href="#DejaVuSerif-4f" x="75.292969"/>
       <use xlink:href="#DejaVuSerif-4e" x="157.275391"/>
       <use xlink:href="#DejaVuSerif-44" x="244.775391"/>
       <use xlink:href="#DejaVuSerif-32" x="324.951172"/>
       <use xlink:href="#DejaVuSerif-2d" x="388.574219"/>
       <use xlink:href="#DejaVuSerif-55" x="422.363281"/>
       <use xlink:href="#DejaVuSerif-48" x="506.640625"/>
       <use xlink:href="#DejaVuSerif-45" x="593.847656"/>
       <use xlink:href="#DejaVuSerif-30" x="666.845703"/>
       <use xlink:href="#DejaVuSerif-30" x="730.46875"/>
       <use xlink:href="#DejaVuSerif-33" x="794.091797"/>
      </g>
     </g>
    </g>
    <g id="xtick_4">
     <g id="line2d_7">
      <path d="M 238.493907 325.227419 
L 238.493907 28.08375 
" clip-path="url(#p190e878433)" style="fill: none; stroke: #ffffff; stroke-width: 0.8; stroke-linecap: square"/>
     </g>
     <g id="line2d_8">
      <g>
       <use xlink:href="#m0c50eb0055" x="238.493907" y="325.227419" style="stroke: #000000; stroke-width: 0.8"/>
      </g>
     </g>
     <g id="text_4">
      <!-- ROND2-UTE000 -->
      <g transform="translate(177.821935 396.801736) rotate(-45) scale(0.1 -0.1)">
       <defs>
        <path id="DejaVuSerif-54" d="M 1222 0 
L 1222 331 
L 1819 331 
L 1819 4294 
L 447 4294 
L 447 3566 
L 63 3566 
L 63 4666 
L 4206 4666 
L 4206 3566 
L 3822 3566 
L 3822 4294 
L 2450 4294 
L 2450 331 
L 3047 331 
L 3047 0 
L 1222 0 
z
" transform="scale(0.015625)"/>
       </defs>
       <use xlink:href="#DejaVuSerif-52"/>
       <use xlink:href="#DejaVuSerif-4f" x="75.292969"/>
       <use xlink:href="#DejaVuSerif-4e" x="157.275391"/>
       <use xlink:href="#DejaVuSerif-44" x="244.775391"/>
       <use xlink:href="#DejaVuSerif-32" x="324.951172"/>
       <use xlink:href="#DejaVuSerif-2d" x="388.574219"/>
       <use xlink:href="#DejaVuSerif-55" x="422.363281"/>
       <use xlink:href="#DejaVuSerif-54" x="506.640625"/>
       <use xlink:href="#DejaVuSerif-45" x="573.339844"/>
       <use xlink:href="#DejaVuSerif-30" x="646.337891"/>
       <use xlink:href="#DejaVuSerif-30" x="709.960938"/>
       <use xlink:href="#DejaVuSerif-30" x="773.583984"/>
      </g>
     </g>
    </g>
    <g id="xtick_5">
     <g id="line2d_9">
      <path d="M 288.674309 325.227419 
L 288.674309 28.08375 
" clip-path="url(#p190e878433)" style="fill: none; stroke: #ffffff; stroke-width: 0.8; stroke-linecap: square"/>
     </g>
     <g id="line2d_10">
      <g>
       <use xlink:href="#m0c50eb0055" x="288.674309" y="325.227419" style="stroke: #000000; stroke-width: 0.8"/>
      </g>
     </g>
     <g id="text_5">
      <!-- SA-AD1UHE003 -->
      <g transform="translate(228.804462 395.999612) rotate(-45) scale(0.1 -0.1)">
       <use xlink:href="#DejaVuSerif-53"/>
       <use xlink:href="#DejaVuSerif-41" x="68.505859"/>
       <use xlink:href="#DejaVuSerif-2d" x="140.722656"/>
       <use xlink:href="#DejaVuSerif-41" x="174.511719"/>
       <use xlink:href="#DejaVuSerif-44" x="246.728516"/>
       <use xlink:href="#DejaVuSerif-31" x="326.904297"/>
       <use xlink:href="#DejaVuSerif-55" x="390.527344"/>
       <use xlink:href="#DejaVuSerif-48" x="474.804688"/>
       <use xlink:href="#DejaVuSerif-45" x="562.011719"/>
       <use xlink:href="#DejaVuSerif-30" x="635.009766"/>
       <use xlink:href="#DejaVuSerif-30" x="698.632812"/>
       <use xlink:href="#DejaVuSerif-33" x="762.255859"/>
      </g>
     </g>
    </g>
    <g id="xtick_6">
     <g id="line2d_11">
      <path d="M 338.854711 325.227419 
L 338.854711 28.08375 
" clip-path="url(#p190e878433)" style="fill: none; stroke: #ffffff; stroke-width: 0.8; stroke-linecap: square"/>
     </g>
     <g id="line2d_12">
      <g>
       <use xlink:href="#m0c50eb0055" x="338.854711" y="325.227419" style="stroke: #000000; stroke-width: 0.8"/>
      </g>
     </g>
     <g id="text_6">
      <!-- SA-AD2UHE003 -->
      <g transform="translate(278.984864 395.999612) rotate(-45) scale(0.1 -0.1)">
       <use xlink:href="#DejaVuSerif-53"/>
       <use xlink:href="#DejaVuSerif-41" x="68.505859"/>
       <use xlink:href="#DejaVuSerif-2d" x="140.722656"/>
       <use xlink:href="#DejaVuSerif-41" x="174.511719"/>
       <use xlink:href="#DejaVuSerif-44" x="246.728516"/>
       <use xlink:href="#DejaVuSerif-32" x="326.904297"/>
       <use xlink:href="#DejaVuSerif-55" x="390.527344"/>
       <use xlink:href="#DejaVuSerif-48" x="474.804688"/>
       <use xlink:href="#DejaVuSerif-45" x="562.011719"/>
       <use xlink:href="#DejaVuSerif-30" x="635.009766"/>
       <use xlink:href="#DejaVuSerif-30" x="698.632812"/>
       <use xlink:href="#DejaVuSerif-33" x="762.255859"/>
      </g>
     </g>
    </g>
    <g id="xtick_7">
     <g id="line2d_13">
      <path d="M 389.035113 325.227419 
L 389.035113 28.08375 
" clip-path="url(#p190e878433)" style="fill: none; stroke: #ffffff; stroke-width: 0.8; stroke-linecap: square"/>
     </g>
     <g id="line2d_14">
      <g>
       <use xlink:href="#m0c50eb0055" x="389.035113" y="325.227419" style="stroke: #000000; stroke-width: 0.8"/>
      </g>
     </g>
     <g id="text_7">
      <!-- PBUEN2PCH138 -->
      <g transform="translate(325.972237 399.192641) rotate(-45) scale(0.1 -0.1)">
       <defs>
        <path id="DejaVuSerif-42" d="M 1581 331 
L 2516 331 
Q 3078 331 3337 575 
Q 3597 819 3597 1350 
Q 3597 1878 3339 2120 
Q 3081 2363 2516 2363 
L 1581 2363 
L 1581 331 
z
M 1581 2694 
L 2375 2694 
Q 2888 2694 3123 2891 
Q 3359 3088 3359 3513 
Q 3359 3941 3123 4136 
Q 2888 4331 2375 4331 
L 1581 4331 
L 1581 2694 
z
M 353 0 
L 353 331 
L 947 331 
L 947 4331 
L 353 4331 
L 353 4666 
L 2656 4666 
Q 3363 4666 3720 4377 
Q 4078 4088 4078 3513 
Q 4078 3097 3829 2850 
Q 3581 2603 3103 2547 
Q 3697 2472 4005 2167 
Q 4313 1863 4313 1350 
Q 4313 656 3875 328 
Q 3438 0 2509 0 
L 353 0 
z
" transform="scale(0.015625)"/>
        <path id="DejaVuSerif-43" d="M 4513 1234 
Q 4306 581 3820 245 
Q 3334 -91 2591 -91 
Q 2134 -91 1743 65 
Q 1353 222 1050 525 
Q 700 875 529 1320 
Q 359 1766 359 2328 
Q 359 3416 987 4083 
Q 1616 4750 2644 4750 
Q 3025 4750 3456 4650 
Q 3888 4550 4384 4347 
L 4384 3272 
L 4031 3272 
Q 3916 3859 3567 4137 
Q 3219 4416 2591 4416 
Q 1844 4416 1459 3886 
Q 1075 3356 1075 2328 
Q 1075 1303 1459 773 
Q 1844 244 2591 244 
Q 3113 244 3450 492 
Q 3788 741 3938 1234 
L 4513 1234 
z
" transform="scale(0.015625)"/>
        <path id="DejaVuSerif-38" d="M 2981 1275 
Q 2981 1775 2732 2051 
Q 2484 2328 2034 2328 
Q 1584 2328 1336 2051 
Q 1088 1775 1088 1275 
Q 1088 772 1336 495 
Q 1584 219 2034 219 
Q 2484 219 2732 495 
Q 2981 772 2981 1275 
z
M 2853 3541 
Q 2853 3966 2637 4203 
Q 2422 4441 2034 4441 
Q 1650 4441 1433 4203 
Q 1216 3966 1216 3541 
Q 1216 3113 1433 2875 
Q 1650 2638 2034 2638 
Q 2422 2638 2637 2875 
Q 2853 3113 2853 3541 
z
M 2516 2484 
Q 3047 2413 3344 2092 
Q 3641 1772 3641 1275 
Q 3641 619 3225 264 
Q 2809 -91 2034 -91 
Q 1263 -91 845 264 
Q 428 619 428 1275 
Q 428 1772 725 2092 
Q 1022 2413 1556 2484 
Q 1084 2569 832 2842 
Q 581 3116 581 3541 
Q 581 4103 968 4426 
Q 1356 4750 2034 4750 
Q 2713 4750 3100 4426 
Q 3488 4103 3488 3541 
Q 3488 3116 3236 2842 
Q 2984 2569 2516 2484 
z
" transform="scale(0.015625)"/>
       </defs>
       <use xlink:href="#DejaVuSerif-50"/>
       <use xlink:href="#DejaVuSerif-42" x="67.285156"/>
       <use xlink:href="#DejaVuSerif-55" x="140.771484"/>
       <use xlink:href="#DejaVuSerif-45" x="225.048828"/>
       <use xlink:href="#DejaVuSerif-4e" x="298.046875"/>
       <use xlink:href="#DejaVuSerif-32" x="385.546875"/>
       <use xlink:href="#DejaVuSerif-50" x="449.169922"/>
       <use xlink:href="#DejaVuSerif-43" x="516.455078"/>
       <use xlink:href="#DejaVuSerif-48" x="592.96875"/>
       <use xlink:href="#DejaVuSerif-31" x="680.175781"/>
       <use xlink:href="#DejaVuSerif-33" x="743.798828"/>
       <use xlink:href="#DejaVuSerif-38" x="807.421875"/>
      </g>
     </g>
    </g>
    <g id="xtick_8">
     <g id="line2d_15">
      <path d="M 439.215515 325.227419 
L 439.215515 28.08375 
" clip-path="url(#p190e878433)" style="fill: none; stroke: #ffffff; stroke-width: 0.8; stroke-linecap: square"/>
     </g>
     <g id="line2d_16">
      <g>
       <use xlink:href="#m0c50eb0055" x="439.215515" y="325.227419" style="stroke: #000000; stroke-width: 0.8"/>
      </g>
     </g>
     <g id="text_8">
      <!-- SAMU1-UHE005 -->
      <g transform="translate(376.921617 398.423662) rotate(-45) scale(0.1 -0.1)">
       <defs>
        <path id="DejaVuSerif-4d" d="M 353 0 
L 353 331 
L 947 331 
L 947 4331 
L 319 4331 
L 319 4666 
L 1678 4666 
L 3316 1344 
L 4953 4666 
L 6228 4666 
L 6228 4331 
L 5606 4331 
L 5606 331 
L 6203 331 
L 6203 0 
L 4378 0 
L 4378 331 
L 4972 331 
L 4972 3938 
L 3372 684 
L 2931 684 
L 1331 3938 
L 1331 331 
L 1925 331 
L 1925 0 
L 353 0 
z
" transform="scale(0.015625)"/>
        <path id="DejaVuSerif-35" d="M 3219 4666 
L 3219 4153 
L 1081 4153 
L 1081 2816 
Q 1244 2928 1461 2984 
Q 1678 3041 1947 3041 
Q 2703 3041 3140 2622 
Q 3578 2203 3578 1478 
Q 3578 738 3136 323 
Q 2694 -91 1894 -91 
Q 1572 -91 1234 -12 
Q 897 66 544 225 
L 544 1131 
L 897 1131 
Q 925 688 1179 453 
Q 1434 219 1894 219 
Q 2388 219 2653 544 
Q 2919 869 2919 1478 
Q 2919 2084 2655 2407 
Q 2391 2731 1894 2731 
Q 1613 2731 1398 2631 
Q 1184 2531 1019 2322 
L 750 2322 
L 750 4666 
L 3219 4666 
z
" transform="scale(0.015625)"/>
       </defs>
       <use xlink:href="#DejaVuSerif-53"/>
       <use xlink:href="#DejaVuSerif-41" x="68.505859"/>
       <use xlink:href="#DejaVuSerif-4d" x="140.722656"/>
       <use xlink:href="#DejaVuSerif-55" x="243.115234"/>
       <use xlink:href="#DejaVuSerif-31" x="327.392578"/>
       <use xlink:href="#DejaVuSerif-2d" x="391.015625"/>
       <use xlink:href="#DejaVuSerif-55" x="424.804688"/>
       <use xlink:href="#DejaVuSerif-48" x="509.082031"/>
       <use xlink:href="#DejaVuSerif-45" x="596.289062"/>
       <use xlink:href="#DejaVuSerif-30" x="669.287109"/>
       <use xlink:href="#DejaVuSerif-30" x="732.910156"/>
       <use xlink:href="#DejaVuSerif-35" x="796.533203"/>
      </g>
     </g>
    </g>
    <g id="xtick_9">
     <g id="line2d_17">
      <path d="M 489.395917 325.227419 
L 489.395917 28.08375 
" clip-path="url(#p190e878433)" style="fill: none; stroke: #ffffff; stroke-width: 0.8; stroke-linecap: square"/>
     </g>
     <g id="line2d_18">
      <g>
       <use xlink:href="#m0c50eb0055" x="489.395917" y="325.227419" style="stroke: #000000; stroke-width: 0.8"/>
      </g>
     </g>
     <g id="text_9">
      <!-- T.NOR1UTE000 -->
      <g transform="translate(430.861839 394.663843) rotate(-45) scale(0.1 -0.1)">
       <defs>
        <path id="DejaVuSerif-2e" d="M 603 325 
Q 603 500 722 622 
Q 841 744 1019 744 
Q 1191 744 1312 622 
Q 1434 500 1434 325 
Q 1434 153 1312 31 
Q 1191 -91 1019 -91 
Q 841 -91 722 29 
Q 603 150 603 325 
z
" transform="scale(0.015625)"/>
       </defs>
       <use xlink:href="#DejaVuSerif-54"/>
       <use xlink:href="#DejaVuSerif-2e" x="51.949219"/>
       <use xlink:href="#DejaVuSerif-4e" x="83.736328"/>
       <use xlink:href="#DejaVuSerif-4f" x="171.236328"/>
       <use xlink:href="#DejaVuSerif-52" x="253.21875"/>
       <use xlink:href="#DejaVuSerif-31" x="328.511719"/>
       <use xlink:href="#DejaVuSerif-55" x="392.134766"/>
       <use xlink:href="#DejaVuSerif-54" x="476.412109"/>
       <use xlink:href="#DejaVuSerif-45" x="543.111328"/>
       <use xlink:href="#DejaVuSerif-30" x="616.109375"/>
       <use xlink:href="#DejaVuSerif-30" x="679.732422"/>
       <use xlink:href="#DejaVuSerif-30" x="743.355469"/>
      </g>
     </g>
    </g>
    <g id="xtick_10">
     <g id="line2d_19">
      <path d="M 539.576319 325.227419 
L 539.576319 28.08375 
" clip-path="url(#p190e878433)" style="fill: none; stroke: #ffffff; stroke-width: 0.8; stroke-linecap: square"/>
     </g>
     <g id="line2d_20">
      <g>
       <use xlink:href="#m0c50eb0055" x="539.576319" y="325.227419" style="stroke: #000000; stroke-width: 0.8"/>
      </g>
     </g>
     <g id="text_10">
      <!-- T.N2-GUTE000 -->
      <g transform="translate(484.124784 391.581299) rotate(-45) scale(0.1 -0.1)">
       <defs>
        <path id="DejaVuSerif-47" d="M 4097 3272 
Q 3988 3856 3641 4136 
Q 3294 4416 2675 4416 
Q 1869 4416 1472 3897 
Q 1075 3378 1075 2328 
Q 1075 1300 1484 772 
Q 1894 244 2688 244 
Q 3041 244 3362 331 
Q 3684 419 3975 594 
L 3975 1797 
L 3097 1797 
L 3097 2131 
L 4609 2131 
L 4609 391 
Q 4194 150 3714 29 
Q 3234 -91 2688 -91 
Q 1631 -91 995 570 
Q 359 1231 359 2328 
Q 359 3434 996 4092 
Q 1634 4750 2713 4750 
Q 3113 4750 3539 4658 
Q 3966 4566 4447 4378 
L 4447 3272 
L 4097 3272 
z
" transform="scale(0.015625)"/>
       </defs>
       <use xlink:href="#DejaVuSerif-54"/>
       <use xlink:href="#DejaVuSerif-2e" x="51.949219"/>
       <use xlink:href="#DejaVuSerif-4e" x="83.736328"/>
       <use xlink:href="#DejaVuSerif-32" x="171.236328"/>
       <use xlink:href="#DejaVuSerif-2d" x="234.859375"/>
       <use xlink:href="#DejaVuSerif-47" x="268.648438"/>
       <use xlink:href="#DejaVuSerif-55" x="348.53125"/>
       <use xlink:href="#DejaVuSerif-54" x="432.808594"/>
       <use xlink:href="#DejaVuSerif-45" x="499.507812"/>
       <use xlink:href="#DejaVuSerif-30" x="572.505859"/>
       <use xlink:href="#DejaVuSerif-30" x="636.128906"/>
       <use xlink:href="#DejaVuSerif-30" x="699.751953"/>
      </g>
     </g>
    </g>
    <g id="xtick_11">
     <g id="line2d_21">
      <path d="M 589.756721 325.227419 
L 589.756721 28.08375 
" clip-path="url(#p190e878433)" style="fill: none; stroke: #ffffff; stroke-width: 0.8; stroke-linecap: square"/>
     </g>
     <g id="line2d_22">
      <g>
       <use xlink:href="#m0c50eb0055" x="589.756721" y="325.227419" style="stroke: #000000; stroke-width: 0.8"/>
      </g>
     </g>
     <g id="text_11">
      <!-- T.N2-VUTE000 -->
      <g transform="translate(535.360322 390.526163) rotate(-45) scale(0.1 -0.1)">
       <defs>
        <path id="DejaVuSerif-56" d="M 1119 4331 
L 2497 750 
L 3872 4331 
L 3347 4331 
L 3347 4666 
L 4716 4666 
L 4716 4331 
L 4263 4331 
L 2597 0 
L 2059 0 
L 403 4331 
L -63 4331 
L -63 4666 
L 1638 4666 
L 1638 4331 
L 1119 4331 
z
" transform="scale(0.015625)"/>
       </defs>
       <use xlink:href="#DejaVuSerif-54"/>
       <use xlink:href="#DejaVuSerif-2e" x="51.949219"/>
       <use xlink:href="#DejaVuSerif-4e" x="83.736328"/>
       <use xlink:href="#DejaVuSerif-32" x="171.236328"/>
       <use xlink:href="#DejaVuSerif-2d" x="234.859375"/>
       <use xlink:href="#DejaVuSerif-56" x="261.398438"/>
       <use xlink:href="#DejaVuSerif-55" x="333.615234"/>
       <use xlink:href="#DejaVuSerif-54" x="417.892578"/>
       <use xlink:href="#DejaVuSerif-45" x="484.591797"/>
       <use xlink:href="#DejaVuSerif-30" x="557.589844"/>
       <use xlink:href="#DejaVuSerif-30" x="621.212891"/>
       <use xlink:href="#DejaVuSerif-30" x="684.835938"/>
      </g>
     </g>
    </g>
    <g id="text_12">
     <!-- Barra -->
     <g transform="translate(314.34682 417.580546) scale(0.17 -0.17)">
      <defs>
       <path id="DejaVuSerif-61" d="M 2547 1044 
L 2547 1747 
L 1806 1747 
Q 1378 1747 1168 1562 
Q 959 1378 959 997 
Q 959 650 1171 447 
Q 1384 244 1747 244 
Q 2106 244 2326 466 
Q 2547 688 2547 1044 
z
M 3122 2075 
L 3122 331 
L 3634 331 
L 3634 0 
L 2547 0 
L 2547 359 
Q 2356 128 2106 18 
Q 1856 -91 1522 -91 
Q 969 -91 644 203 
Q 319 497 319 997 
Q 319 1513 691 1797 
Q 1063 2081 1741 2081 
L 2547 2081 
L 2547 2309 
Q 2547 2688 2317 2895 
Q 2088 3103 1672 3103 
Q 1328 3103 1125 2947 
Q 922 2791 872 2484 
L 575 2484 
L 575 3156 
Q 875 3284 1158 3348 
Q 1441 3413 1709 3413 
Q 2400 3413 2761 3070 
Q 3122 2728 3122 2075 
z
" transform="scale(0.015625)"/>
       <path id="DejaVuSerif-72" d="M 3059 3328 
L 3059 2497 
L 2728 2497 
Q 2713 2744 2591 2866 
Q 2469 2988 2234 2988 
Q 1809 2988 1582 2694 
Q 1356 2400 1356 1850 
L 1356 331 
L 2022 331 
L 2022 0 
L 263 0 
L 263 331 
L 781 331 
L 781 2994 
L 231 2994 
L 231 3322 
L 1356 3322 
L 1356 2731 
Q 1525 3078 1790 3245 
Q 2056 3413 2438 3413 
Q 2578 3413 2733 3391 
Q 2888 3369 3059 3328 
z
" transform="scale(0.015625)"/>
      </defs>
      <use xlink:href="#DejaVuSerif-42"/>
      <use xlink:href="#DejaVuSerif-61" x="73.486328"/>
      <use xlink:href="#DejaVuSerif-72" x="133.105469"/>
      <use xlink:href="#DejaVuSerif-72" x="180.908203"/>
      <use xlink:href="#DejaVuSerif-61" x="228.710938"/>
     </g>
    </g>
   </g>
   <g id="matplotlib.axis_2">
    <g id="ytick_1">
     <g id="line2d_23">
      <path d="M 62.8625 311.720889 
L 614.846922 311.720889 
" clip-path="url(#p190e878433)" style="fill: none; stroke: #ffffff; stroke-width: 0.8; stroke-linecap: square"/>
     </g>
     <g id="line2d_24">
      <defs>
       <path id="m9d72373b73" d="M 0 0 
L -3.5 0 
" style="stroke: #000000; stroke-width: 0.8"/>
      </defs>
      <g>
       <use xlink:href="#m9d72373b73" x="62.8625" y="311.720889" style="stroke: #000000; stroke-width: 0.8"/>
      </g>
     </g>
     <g id="text_13">
      <!-- 0.0 -->
      <g transform="translate(32.007812 317.419717) scale(0.15 -0.15)">
       <use xlink:href="#DejaVuSerif-30"/>
       <use xlink:href="#DejaVuSerif-2e" x="63.623047"/>
       <use xlink:href="#DejaVuSerif-30" x="95.410156"/>
      </g>
     </g>
    </g>
    <g id="ytick_2">
     <g id="line2d_25">
      <path d="M 62.8625 272.094732 
L 614.846922 272.094732 
" clip-path="url(#p190e878433)" style="fill: none; stroke: #ffffff; stroke-width: 0.8; stroke-linecap: square"/>
     </g>
     <g id="line2d_26">
      <g>
       <use xlink:href="#m9d72373b73" x="62.8625" y="272.094732" style="stroke: #000000; stroke-width: 0.8"/>
      </g>
     </g>
     <g id="text_14">
      <!-- 0.1 -->
      <g transform="translate(32.007812 277.79356) scale(0.15 -0.15)">
       <use xlink:href="#DejaVuSerif-30"/>
       <use xlink:href="#DejaVuSerif-2e" x="63.623047"/>
       <use xlink:href="#DejaVuSerif-31" x="95.410156"/>
      </g>
     </g>
    </g>
    <g id="ytick_3">
     <g id="line2d_27">
      <path d="M 62.8625 232.468576 
L 614.846922 232.468576 
" clip-path="url(#p190e878433)" style="fill: none; stroke: #ffffff; stroke-width: 0.8; stroke-linecap: square"/>
     </g>
     <g id="line2d_28">
      <g>
       <use xlink:href="#m9d72373b73" x="62.8625" y="232.468576" style="stroke: #000000; stroke-width: 0.8"/>
      </g>
     </g>
     <g id="text_15">
      <!-- 0.2 -->
      <g transform="translate(32.007812 238.167404) scale(0.15 -0.15)">
       <use xlink:href="#DejaVuSerif-30"/>
       <use xlink:href="#DejaVuSerif-2e" x="63.623047"/>
       <use xlink:href="#DejaVuSerif-32" x="95.410156"/>
      </g>
     </g>
    </g>
    <g id="ytick_4">
     <g id="line2d_29">
      <path d="M 62.8625 192.842419 
L 614.846922 192.842419 
" clip-path="url(#p190e878433)" style="fill: none; stroke: #ffffff; stroke-width: 0.8; stroke-linecap: square"/>
     </g>
     <g id="line2d_30">
      <g>
       <use xlink:href="#m9d72373b73" x="62.8625" y="192.842419" style="stroke: #000000; stroke-width: 0.8"/>
      </g>
     </g>
     <g id="text_16">
      <!-- 0.3 -->
      <g transform="translate(32.007812 198.541247) scale(0.15 -0.15)">
       <use xlink:href="#DejaVuSerif-30"/>
       <use xlink:href="#DejaVuSerif-2e" x="63.623047"/>
       <use xlink:href="#DejaVuSerif-33" x="95.410156"/>
      </g>
     </g>
    </g>
    <g id="ytick_5">
     <g id="line2d_31">
      <path d="M 62.8625 153.216263 
L 614.846922 153.216263 
" clip-path="url(#p190e878433)" style="fill: none; stroke: #ffffff; stroke-width: 0.8; stroke-linecap: square"/>
     </g>
     <g id="line2d_32">
      <g>
       <use xlink:href="#m9d72373b73" x="62.8625" y="153.216263" style="stroke: #000000; stroke-width: 0.8"/>
      </g>
     </g>
     <g id="text_17">
      <!-- 0.4 -->
      <g transform="translate(32.007812 158.915091) scale(0.15 -0.15)">
       <defs>
        <path id="DejaVuSerif-34" d="M 2234 1581 
L 2234 4063 
L 641 1581 
L 2234 1581 
z
M 3609 0 
L 1484 0 
L 1484 331 
L 2234 331 
L 2234 1247 
L 197 1247 
L 197 1588 
L 2241 4750 
L 2859 4750 
L 2859 1581 
L 3750 1581 
L 3750 1247 
L 2859 1247 
L 2859 331 
L 3609 331 
L 3609 0 
z
" transform="scale(0.015625)"/>
       </defs>
       <use xlink:href="#DejaVuSerif-30"/>
       <use xlink:href="#DejaVuSerif-2e" x="63.623047"/>
       <use xlink:href="#DejaVuSerif-34" x="95.410156"/>
      </g>
     </g>
    </g>
    <g id="ytick_6">
     <g id="line2d_33">
      <path d="M 62.8625 113.590106 
L 614.846922 113.590106 
" clip-path="url(#p190e878433)" style="fill: none; stroke: #ffffff; stroke-width: 0.8; stroke-linecap: square"/>
     </g>
     <g id="line2d_34">
      <g>
       <use xlink:href="#m9d72373b73" x="62.8625" y="113.590106" style="stroke: #000000; stroke-width: 0.8"/>
      </g>
     </g>
     <g id="text_18">
      <!-- 0.5 -->
      <g transform="translate(32.007812 119.288934) scale(0.15 -0.15)">
       <use xlink:href="#DejaVuSerif-30"/>
       <use xlink:href="#DejaVuSerif-2e" x="63.623047"/>
       <use xlink:href="#DejaVuSerif-35" x="95.410156"/>
      </g>
     </g>
    </g>
    <g id="ytick_7">
     <g id="line2d_35">
      <path d="M 62.8625 73.96395 
L 614.846922 73.96395 
" clip-path="url(#p190e878433)" style="fill: none; stroke: #ffffff; stroke-width: 0.8; stroke-linecap: square"/>
     </g>
     <g id="line2d_36">
      <g>
       <use xlink:href="#m9d72373b73" x="62.8625" y="73.96395" style="stroke: #000000; stroke-width: 0.8"/>
      </g>
     </g>
     <g id="text_19">
      <!-- 0.6 -->
      <g transform="translate(32.007812 79.662778) scale(0.15 -0.15)">
       <defs>
        <path id="DejaVuSerif-36" d="M 2094 219 
Q 2534 219 2771 542 
Q 3009 866 3009 1472 
Q 3009 2078 2771 2401 
Q 2534 2725 2094 2725 
Q 1647 2725 1412 2412 
Q 1178 2100 1178 1509 
Q 1178 888 1415 553 
Q 1653 219 2094 219 
z
M 1075 2569 
Q 1288 2803 1556 2918 
Q 1825 3034 2163 3034 
Q 2859 3034 3264 2615 
Q 3669 2197 3669 1472 
Q 3669 763 3233 336 
Q 2797 -91 2069 -91 
Q 1278 -91 853 498 
Q 428 1088 428 2181 
Q 428 3406 931 4078 
Q 1434 4750 2350 4750 
Q 2597 4750 2869 4703 
Q 3141 4656 3425 4563 
L 3425 3794 
L 3072 3794 
Q 3034 4109 2831 4275 
Q 2628 4441 2284 4441 
Q 1678 4441 1381 3981 
Q 1084 3522 1075 2569 
z
" transform="scale(0.015625)"/>
       </defs>
       <use xlink:href="#DejaVuSerif-30"/>
       <use xlink:href="#DejaVuSerif-2e" x="63.623047"/>
       <use xlink:href="#DejaVuSerif-36" x="95.410156"/>
      </g>
     </g>
    </g>
    <g id="ytick_8">
     <g id="line2d_37">
      <path d="M 62.8625 34.337793 
L 614.846922 34.337793 
" clip-path="url(#p190e878433)" style="fill: none; stroke: #ffffff; stroke-width: 0.8; stroke-linecap: square"/>
     </g>
     <g id="line2d_38">
      <g>
       <use xlink:href="#m9d72373b73" x="62.8625" y="34.337793" style="stroke: #000000; stroke-width: 0.8"/>
      </g>
     </g>
     <g id="text_20">
      <!-- 0.7 -->
      <g transform="translate(32.007812 40.036621) scale(0.15 -0.15)">
       <defs>
        <path id="DejaVuSerif-37" d="M 3609 4347 
L 1784 0 
L 1319 0 
L 3059 4153 
L 903 4153 
L 903 3578 
L 538 3578 
L 538 4666 
L 3609 4666 
L 3609 4347 
z
" transform="scale(0.015625)"/>
       </defs>
       <use xlink:href="#DejaVuSerif-30"/>
       <use xlink:href="#DejaVuSerif-2e" x="63.623047"/>
       <use xlink:href="#DejaVuSerif-37" x="95.410156"/>
      </g>
     </g>
    </g>
    <g id="text_21">
     <!-- Indice (p.u) -->
     <g transform="translate(24.472344 226.389881) rotate(-90) scale(0.17 -0.17)">
      <defs>
       <path id="DejaVuSerif-6e" d="M 263 0 
L 263 331 
L 781 331 
L 781 2988 
L 231 2988 
L 231 3322 
L 1356 3322 
L 1356 2731 
Q 1516 3069 1770 3241 
Q 2025 3413 2363 3413 
Q 2913 3413 3172 3097 
Q 3431 2781 3431 2113 
L 3431 331 
L 3944 331 
L 3944 0 
L 2356 0 
L 2356 331 
L 2853 331 
L 2853 1931 
Q 2853 2541 2703 2767 
Q 2553 2994 2175 2994 
Q 1775 2994 1565 2701 
Q 1356 2409 1356 1850 
L 1356 331 
L 1856 331 
L 1856 0 
L 263 0 
z
" transform="scale(0.015625)"/>
       <path id="DejaVuSerif-64" d="M 3359 331 
L 3909 331 
L 3909 0 
L 2784 0 
L 2784 519 
Q 2616 206 2355 57 
Q 2094 -91 1709 -91 
Q 1097 -91 708 395 
Q 319 881 319 1663 
Q 319 2444 706 2928 
Q 1094 3413 1709 3413 
Q 2094 3413 2355 3264 
Q 2616 3116 2784 2803 
L 2784 4531 
L 2241 4531 
L 2241 4863 
L 3359 4863 
L 3359 331 
z
M 2784 1497 
L 2784 1825 
Q 2784 2422 2554 2737 
Q 2325 3053 1888 3053 
Q 1444 3053 1217 2703 
Q 991 2353 991 1663 
Q 991 975 1217 622 
Q 1444 269 1888 269 
Q 2325 269 2554 583 
Q 2784 897 2784 1497 
z
" transform="scale(0.015625)"/>
       <path id="DejaVuSerif-69" d="M 622 4353 
Q 622 4497 726 4603 
Q 831 4709 978 4709 
Q 1122 4709 1226 4603 
Q 1331 4497 1331 4353 
Q 1331 4206 1228 4103 
Q 1125 4000 978 4000 
Q 831 4000 726 4103 
Q 622 4206 622 4353 
z
M 1356 331 
L 1900 331 
L 1900 0 
L 231 0 
L 231 331 
L 781 331 
L 781 2988 
L 231 2988 
L 231 3322 
L 1356 3322 
L 1356 331 
z
" transform="scale(0.015625)"/>
       <path id="DejaVuSerif-63" d="M 3291 997 
Q 3169 466 2822 187 
Q 2475 -91 1925 -91 
Q 1200 -91 759 389 
Q 319 869 319 1663 
Q 319 2459 759 2936 
Q 1200 3413 1925 3413 
Q 2241 3413 2553 3339 
Q 2866 3266 3181 3116 
L 3181 2266 
L 2847 2266 
Q 2781 2703 2561 2903 
Q 2341 3103 1931 3103 
Q 1466 3103 1228 2742 
Q 991 2381 991 1663 
Q 991 944 1227 581 
Q 1463 219 1931 219 
Q 2303 219 2525 412 
Q 2747 606 2828 997 
L 3291 997 
z
" transform="scale(0.015625)"/>
       <path id="DejaVuSerif-65" d="M 3469 1600 
L 991 1600 
L 991 1575 
Q 991 903 1244 561 
Q 1497 219 1991 219 
Q 2369 219 2611 417 
Q 2853 616 2950 1006 
L 3413 1006 
Q 3275 459 2904 184 
Q 2534 -91 1931 -91 
Q 1203 -91 761 389 
Q 319 869 319 1663 
Q 319 2450 753 2931 
Q 1188 3413 1894 3413 
Q 2647 3413 3050 2948 
Q 3453 2484 3469 1600 
z
M 2791 1931 
Q 2772 2513 2545 2808 
Q 2319 3103 1894 3103 
Q 1497 3103 1269 2806 
Q 1041 2509 991 1931 
L 2791 1931 
z
" transform="scale(0.015625)"/>
       <path id="DejaVuSerif-20" transform="scale(0.015625)"/>
       <path id="DejaVuSerif-28" d="M 2041 -997 
Q 1281 -656 893 83 
Q 506 822 506 1931 
Q 506 3044 893 3783 
Q 1281 4522 2041 4863 
L 2041 4556 
Q 1559 4225 1350 3623 
Q 1141 3022 1141 1931 
Q 1141 844 1350 242 
Q 1559 -359 2041 -691 
L 2041 -997 
z
" transform="scale(0.015625)"/>
       <path id="DejaVuSerif-70" d="M 1313 1825 
L 1313 1497 
Q 1313 897 1542 583 
Q 1772 269 2209 269 
Q 2650 269 2876 622 
Q 3103 975 3103 1663 
Q 3103 2353 2876 2703 
Q 2650 3053 2209 3053 
Q 1772 3053 1542 2737 
Q 1313 2422 1313 1825 
z
M 738 2988 
L 184 2988 
L 184 3322 
L 1313 3322 
L 1313 2803 
Q 1481 3116 1742 3264 
Q 2003 3413 2388 3413 
Q 3000 3413 3387 2928 
Q 3775 2444 3775 1663 
Q 3775 881 3387 395 
Q 3000 -91 2388 -91 
Q 2003 -91 1742 57 
Q 1481 206 1313 519 
L 1313 -997 
L 1856 -997 
L 1856 -1331 
L 184 -1331 
L 184 -997 
L 738 -997 
L 738 2988 
z
" transform="scale(0.015625)"/>
       <path id="DejaVuSerif-75" d="M 2266 3322 
L 3341 3322 
L 3341 331 
L 3884 331 
L 3884 0 
L 2766 0 
L 2766 588 
Q 2606 256 2353 82 
Q 2100 -91 1766 -91 
Q 1213 -91 952 223 
Q 691 538 691 1209 
L 691 2988 
L 172 2988 
L 172 3322 
L 1269 3322 
L 1269 1388 
Q 1269 781 1417 556 
Q 1566 331 1947 331 
Q 2347 331 2556 625 
Q 2766 919 2766 1478 
L 2766 2988 
L 2266 2988 
L 2266 3322 
z
" transform="scale(0.015625)"/>
       <path id="DejaVuSerif-29" d="M 453 -997 
L 453 -691 
Q 934 -359 1145 242 
Q 1356 844 1356 1931 
Q 1356 3022 1145 3623 
Q 934 4225 453 4556 
L 453 4863 
Q 1216 4522 1603 3783 
Q 1991 3044 1991 1931 
Q 1991 822 1603 83 
Q 1216 -656 453 -997 
z
" transform="scale(0.015625)"/>
      </defs>
      <use xlink:href="#DejaVuSerif-49"/>
      <use xlink:href="#DejaVuSerif-6e" x="39.501953"/>
      <use xlink:href="#DejaVuSerif-64" x="103.90625"/>
      <use xlink:href="#DejaVuSerif-69" x="167.919922"/>
      <use xlink:href="#DejaVuSerif-63" x="199.902344"/>
      <use xlink:href="#DejaVuSerif-65" x="255.908203"/>
      <use xlink:href="#DejaVuSerif-20" x="315.087891"/>
      <use xlink:href="#DejaVuSerif-28" x="346.875"/>
      <use xlink:href="#DejaVuSerif-70" x="385.888672"/>
      <use xlink:href="#DejaVuSerif-2e" x="449.902344"/>
      <use xlink:href="#DejaVuSerif-75" x="481.689453"/>
      <use xlink:href="#DejaVuSerif-29" x="546.09375"/>
     </g>
    </g>
   </g>
   <g id="PathCollection_1">
    <path d="M 87.952701 267.824193 
C 89.278716 267.824193 90.5506 267.297361 91.488235 266.359727 
C 92.425869 265.422092 92.952701 264.150208 92.952701 262.824193 
C 92.952701 261.498177 92.425869 260.226293 91.488235 259.288659 
C 90.5506 258.351024 89.278716 257.824193 87.952701 257.824193 
C 86.626685 257.824193 85.354802 258.351024 84.417167 259.288659 
C 83.479533 260.226293 82.952701 261.498177 82.952701 262.824193 
C 82.952701 264.150208 83.479533 265.422092 84.417167 266.359727 
C 85.354802 267.297361 86.626685 267.824193 87.952701 267.824193 
z
" clip-path="url(#p190e878433)" style="fill: #008000; stroke: #ffffff; stroke-width: 0.8"/>
    <path d="M 138.133103 275.937648 
C 139.459118 275.937648 140.731002 275.410817 141.668637 274.473182 
C 142.606271 273.535548 143.133103 272.263664 143.133103 270.937648 
C 143.133103 269.611633 142.606271 268.339749 141.668637 267.402114 
C 140.731002 266.46448 139.459118 265.937648 138.133103 265.937648 
C 136.807087 265.937648 135.535204 266.46448 134.597569 267.402114 
C 133.659935 268.339749 133.133103 269.611633 133.133103 270.937648 
C 133.133103 272.263664 133.659935 273.535548 134.597569 274.473182 
C 135.535204 275.410817 136.807087 275.937648 138.133103 275.937648 
z
" clip-path="url(#p190e878433)" style="fill: #008000; stroke: #ffffff; stroke-width: 0.8"/>
    <path d="M 188.313505 291.269008 
C 189.63952 291.269008 190.911404 290.742177 191.849039 289.804542 
C 192.786673 288.866908 193.313505 287.595024 193.313505 286.269008 
C 193.313505 284.942993 192.786673 283.671109 191.849039 282.733474 
C 190.911404 281.79584 189.63952 281.269008 188.313505 281.269008 
C 186.987489 281.269008 185.715606 281.79584 184.777971 282.733474 
C 183.840337 283.671109 183.313505 284.942993 183.313505 286.269008 
C 183.313505 287.595024 183.840337 288.866908 184.777971 289.804542 
C 185.715606 290.742177 186.987489 291.269008 188.313505 291.269008 
z
" clip-path="url(#p190e878433)" style="fill: #008000; stroke: #ffffff; stroke-width: 0.8"/>
    <path d="M 238.493907 292.466979 
C 239.819922 292.466979 241.091806 291.940147 242.029441 291.002513 
C 242.967075 290.064878 243.493907 288.792994 243.493907 287.466979 
C 243.493907 286.140963 242.967075 284.86908 242.029441 283.931445 
C 241.091806 282.993811 239.819922 282.466979 238.493907 282.466979 
C 237.167891 282.466979 235.896008 282.993811 234.958373 283.931445 
C 234.020739 284.86908 233.493907 286.140963 233.493907 287.466979 
C 233.493907 288.792994 234.020739 290.064878 234.958373 291.002513 
C 235.896008 291.940147 237.167891 292.466979 238.493907 292.466979 
z
" clip-path="url(#p190e878433)" style="fill: #008000; stroke: #ffffff; stroke-width: 0.8"/>
    <path d="M 288.674309 310.549475 
C 290.000324 310.549475 291.272208 310.022643 292.209843 309.085009 
C 293.147477 308.147374 293.674309 306.87549 293.674309 305.549475 
C 293.674309 304.223459 293.147477 302.951576 292.209843 302.013941 
C 291.272208 301.076306 290.000324 300.549475 288.674309 300.549475 
C 287.348293 300.549475 286.07641 301.076306 285.138775 302.013941 
C 284.20114 302.951576 283.674309 304.223459 283.674309 305.549475 
C 283.674309 306.87549 284.20114 308.147374 285.138775 309.085009 
C 286.07641 310.022643 287.348293 310.549475 288.674309 310.549475 
z
" clip-path="url(#p190e878433)" style="fill: #008000; stroke: #ffffff; stroke-width: 0.8"/>
    <path d="M 338.854711 310.549475 
C 340.180726 310.549475 341.45261 310.022643 342.390245 309.085009 
C 343.327879 308.147374 343.854711 306.87549 343.854711 305.549475 
C 343.854711 304.223459 343.327879 302.951576 342.390245 302.013941 
C 341.45261 301.076306 340.180726 300.549475 338.854711 300.549475 
C 337.528695 300.549475 336.256812 301.076306 335.319177 302.013941 
C 334.381542 302.951576 333.854711 304.223459 333.854711 305.549475 
C 333.854711 306.87549 334.381542 308.147374 335.319177 309.085009 
C 336.256812 310.022643 337.528695 310.549475 338.854711 310.549475 
z
" clip-path="url(#p190e878433)" style="fill: #008000; stroke: #ffffff; stroke-width: 0.8"/>
    <path d="M 389.035113 316.720889 
C 390.361128 316.720889 391.633012 316.194057 392.570647 315.256422 
C 393.508281 314.318788 394.035113 313.046904 394.035113 311.720889 
C 394.035113 310.394873 393.508281 309.122989 392.570647 308.185355 
C 391.633012 307.24772 390.361128 306.720889 389.035113 306.720889 
C 387.709097 306.720889 386.437214 307.24772 385.499579 308.185355 
C 384.561944 309.122989 384.035113 310.394873 384.035113 311.720889 
C 384.035113 313.046904 384.561944 314.318788 385.499579 315.256422 
C 386.437214 316.194057 387.709097 316.720889 389.035113 316.720889 
z
" clip-path="url(#p190e878433)" style="fill: #008000; stroke: #ffffff; stroke-width: 0.8"/>
    <path d="M 439.215515 316.720889 
C 440.54153 316.720889 441.813414 316.194057 442.751049 315.256422 
C 443.688683 314.318788 444.215515 313.046904 444.215515 311.720889 
C 444.215515 310.394873 443.688683 309.122989 442.751049 308.185355 
C 441.813414 307.24772 440.54153 306.720889 439.215515 306.720889 
C 437.889499 306.720889 436.617616 307.24772 435.679981 308.185355 
C 434.742346 309.122989 434.215515 310.394873 434.215515 311.720889 
C 434.215515 313.046904 434.742346 314.318788 435.679981 315.256422 
C 436.617616 316.194057 437.889499 316.720889 439.215515 316.720889 
z
" clip-path="url(#p190e878433)" style="fill: #008000; stroke: #ffffff; stroke-width: 0.8"/>
    <path d="M 489.395917 316.720889 
C 490.721932 316.720889 491.993816 316.194057 492.931451 315.256422 
C 493.869085 314.318788 494.395917 313.046904 494.395917 311.720889 
C 494.395917 310.394873 493.869085 309.122989 492.931451 308.185355 
C 491.993816 307.24772 490.721932 306.720889 489.395917 306.720889 
C 488.069901 306.720889 486.798018 307.24772 485.860383 308.185355 
C 484.922748 309.122989 484.395917 310.394873 484.395917 311.720889 
C 484.395917 313.046904 484.922748 314.318788 485.860383 315.256422 
C 486.798018 316.194057 488.069901 316.720889 489.395917 316.720889 
z
" clip-path="url(#p190e878433)" style="fill: #008000; stroke: #ffffff; stroke-width: 0.8"/>
    <path d="M 539.576319 316.720889 
C 540.902334 316.720889 542.174218 316.194057 543.111853 315.256422 
C 544.049487 314.318788 544.576319 313.046904 544.576319 311.720889 
C 544.576319 310.394873 544.049487 309.122989 543.111853 308.185355 
C 542.174218 307.24772 540.902334 306.720889 539.576319 306.720889 
C 538.250303 306.720889 536.97842 307.24772 536.040785 308.185355 
C 535.10315 309.122989 534.576319 310.394873 534.576319 311.720889 
C 534.576319 313.046904 535.10315 314.318788 536.040785 315.256422 
C 536.97842 316.194057 538.250303 316.720889 539.576319 316.720889 
z
" clip-path="url(#p190e878433)" style="fill: #008000; stroke: #ffffff; stroke-width: 0.8"/>
    <path d="M 589.756721 316.720889 
C 591.082736 316.720889 592.35462 316.194057 593.292255 315.256422 
C 594.229889 314.318788 594.756721 313.046904 594.756721 311.720889 
C 594.756721 310.394873 594.229889 309.122989 593.292255 308.185355 
C 592.35462 307.24772 591.082736 306.720889 589.756721 306.720889 
C 588.430705 306.720889 587.158822 307.24772 586.221187 308.185355 
C 585.283552 309.122989 584.756721 310.394873 584.756721 311.720889 
C 584.756721 313.046904 585.283552 314.318788 586.221187 315.256422 
C 587.158822 316.194057 588.430705 316.720889 589.756721 316.720889 
z
" clip-path="url(#p190e878433)" style="fill: #008000; stroke: #ffffff; stroke-width: 0.8"/>
    <path d="M 87.952701 41.243652 
L 82.952701 51.243652 
L 92.952701 51.243652 
z
" clip-path="url(#p190e878433)" style="fill: #ffa500; stroke: #ffffff; stroke-width: 0.8"/>
    <path d="M 138.133103 36.59028 
L 133.133103 46.59028 
L 143.133103 46.59028 
z
" clip-path="url(#p190e878433)" style="fill: #ffa500; stroke: #ffffff; stroke-width: 0.8"/>
    <path d="M 188.313505 183.642046 
L 183.313505 193.642046 
L 193.313505 193.642046 
z
" clip-path="url(#p190e878433)" style="fill: #ffa500; stroke: #ffffff; stroke-width: 0.8"/>
    <path d="M 238.493907 306.720889 
L 233.493907 316.720889 
L 243.493907 316.720889 
z
" clip-path="url(#p190e878433)" style="fill: #ffa500; stroke: #ffffff; stroke-width: 0.8"/>
    <path d="M 288.674309 249.960922 
L 283.674309 259.960922 
L 293.674309 259.960922 
z
" clip-path="url(#p190e878433)" style="fill: #ffa500; stroke: #ffffff; stroke-width: 0.8"/>
    <path d="M 338.854711 250.121228 
L 333.854711 260.121228 
L 343.854711 260.121228 
z
" clip-path="url(#p190e878433)" style="fill: #ffa500; stroke: #ffffff; stroke-width: 0.8"/>
    <path d="M 389.035113 306.720889 
L 384.035113 316.720889 
L 394.035113 316.720889 
z
" clip-path="url(#p190e878433)" style="fill: #ffa500; stroke: #ffffff; stroke-width: 0.8"/>
    <path d="M 439.215515 229.85335 
L 434.215515 239.85335 
L 444.215515 239.85335 
z
" clip-path="url(#p190e878433)" style="fill: #ffa500; stroke: #ffffff; stroke-width: 0.8"/>
    <path d="M 489.395917 306.720889 
L 484.395917 316.720889 
L 494.395917 316.720889 
z
" clip-path="url(#p190e878433)" style="fill: #ffa500; stroke: #ffffff; stroke-width: 0.8"/>
    <path d="M 539.576319 306.720889 
L 534.576319 316.720889 
L 544.576319 316.720889 
z
" clip-path="url(#p190e878433)" style="fill: #ffa500; stroke: #ffffff; stroke-width: 0.8"/>
    <path d="M 589.756721 306.720889 
L 584.756721 316.720889 
L 594.756721 316.720889 
z
" clip-path="url(#p190e878433)" style="fill: #ffa500; stroke: #ffffff; stroke-width: 0.8"/>
    <path d="M 87.952701 278.262103 
L 82.952701 288.262103 
L 92.952701 288.262103 
z
" clip-path="url(#p190e878433)" style="fill: #800080; stroke: #ffffff; stroke-width: 0.8"/>
    <path d="M 138.133103 278.491755 
L 133.133103 288.491755 
L 143.133103 288.491755 
z
" clip-path="url(#p190e878433)" style="fill: #800080; stroke: #ffffff; stroke-width: 0.8"/>
    <path d="M 188.313505 293.19396 
L 183.313505 303.19396 
L 193.313505 303.19396 
z
" clip-path="url(#p190e878433)" style="fill: #800080; stroke: #ffffff; stroke-width: 0.8"/>
    <path d="M 238.493907 306.720889 
L 233.493907 316.720889 
L 243.493907 316.720889 
z
" clip-path="url(#p190e878433)" style="fill: #800080; stroke: #ffffff; stroke-width: 0.8"/>
    <path d="M 288.674309 303.004135 
L 283.674309 313.004135 
L 293.674309 313.004135 
z
" clip-path="url(#p190e878433)" style="fill: #800080; stroke: #ffffff; stroke-width: 0.8"/>
    <path d="M 338.854711 303.004135 
L 333.854711 313.004135 
L 343.854711 313.004135 
z
" clip-path="url(#p190e878433)" style="fill: #800080; stroke: #ffffff; stroke-width: 0.8"/>
    <path d="M 389.035113 306.720889 
L 384.035113 316.720889 
L 394.035113 316.720889 
z
" clip-path="url(#p190e878433)" style="fill: #800080; stroke: #ffffff; stroke-width: 0.8"/>
    <path d="M 439.215515 287.451769 
L 434.215515 297.451769 
L 444.215515 297.451769 
z
" clip-path="url(#p190e878433)" style="fill: #800080; stroke: #ffffff; stroke-width: 0.8"/>
    <path d="M 489.395917 306.720889 
L 484.395917 316.720889 
L 494.395917 316.720889 
z
" clip-path="url(#p190e878433)" style="fill: #800080; stroke: #ffffff; stroke-width: 0.8"/>
    <path d="M 539.576319 306.720889 
L 534.576319 316.720889 
L 544.576319 316.720889 
z
" clip-path="url(#p190e878433)" style="fill: #800080; stroke: #ffffff; stroke-width: 0.8"/>
    <path d="M 589.756721 306.720889 
L 584.756721 316.720889 
L 594.756721 316.720889 
z
" clip-path="url(#p190e878433)" style="fill: #800080; stroke: #ffffff; stroke-width: 0.8"/>
   </g>
   <g id="line2d_39"/>
   <g id="line2d_40"/>
   <g id="line2d_41"/>
   <g id="line2d_42">
    <path d="M 87.952701 283.262103 
L 138.133103 283.491755 
L 188.313505 298.19396 
L 238.493907 311.720889 
L 288.674309 308.004135 
L 338.854711 308.004135 
L 389.035113 311.720889 
L 439.215515 292.451769 
L 489.395917 311.720889 
L 539.576319 311.720889 
L 589.756721 311.720889 
" clip-path="url(#p190e878433)" style="fill: none; stroke-dasharray: 5.55,2.4; stroke-dashoffset: 0; stroke: #800080; stroke-width: 1.5"/>
   </g>
   <g id="line2d_43">
    <path d="M 87.952701 46.243652 
L 138.133103 41.59028 
L 188.313505 188.642046 
L 238.493907 311.720889 
L 288.674309 254.960922 
L 338.854711 255.121228 
L 389.035113 311.720889 
L 439.215515 234.85335 
L 489.395917 311.720889 
L 539.576319 311.720889 
L 589.756721 311.720889 
" clip-path="url(#p190e878433)" style="fill: none; stroke-dasharray: 5.55,2.4; stroke-dashoffset: 0; stroke: #ffa500; stroke-width: 1.5"/>
   </g>
   <g id="line2d_44">
    <path d="M 87.952701 262.824193 
L 138.133103 270.937648 
L 188.313505 286.269008 
L 238.493907 287.466979 
L 288.674309 305.549475 
L 338.854711 305.549475 
L 389.035113 311.720889 
L 439.215515 311.720889 
L 489.395917 311.720889 
L 539.576319 311.720889 
L 589.756721 311.720889 
" clip-path="url(#p190e878433)" style="fill: none; stroke: #008000; stroke-width: 1.5; stroke-linecap: square"/>
   </g>
   <g id="patch_3">
    <path d="M 62.8625 325.227419 
L 62.8625 28.08375 
" style="fill: none; stroke: #000000; stroke-width: 1.2; stroke-linejoin: miter; stroke-linecap: square"/>
   </g>
   <g id="patch_4">
    <path d="M 614.846922 325.227419 
L 614.846922 28.08375 
" style="fill: none; stroke: #000000; stroke-width: 1.2; stroke-linejoin: miter; stroke-linecap: square"/>
   </g>
   <g id="patch_5">
    <path d="M 62.8625 325.227419 
L 614.846922 325.227419 
" style="fill: none; stroke: #000000; stroke-width: 1.2; stroke-linejoin: miter; stroke-linecap: square"/>
   </g>
   <g id="patch_6">
    <path d="M 62.8625 28.08375 
L 614.846922 28.08375 
" style="fill: none; stroke: #000000; stroke-width: 1.2; stroke-linejoin: miter; stroke-linecap: square"/>
   </g>
   <g id="text_22">
    <!-- Highest average index for (PV Buses) - AC-RO -->
    <g transform="translate(163.463695 22.08375) scale(0.15 -0.15)">
     <defs>
      <path id="DejaVuSerif-67" d="M 3359 2988 
L 3359 72 
Q 3359 -644 2965 -1033 
Q 2572 -1422 1844 -1422 
Q 1516 -1422 1216 -1362 
Q 916 -1303 641 -1184 
L 641 -488 
L 941 -488 
Q 997 -813 1206 -963 
Q 1416 -1113 1806 -1113 
Q 2313 -1113 2548 -827 
Q 2784 -541 2784 72 
L 2784 519 
Q 2616 206 2355 57 
Q 2094 -91 1709 -91 
Q 1097 -91 708 395 
Q 319 881 319 1663 
Q 319 2444 706 2928 
Q 1094 3413 1709 3413 
Q 2094 3413 2355 3264 
Q 2616 3116 2784 2803 
L 2784 3322 
L 3909 3322 
L 3909 2988 
L 3359 2988 
z
M 2784 1825 
Q 2784 2422 2554 2737 
Q 2325 3053 1888 3053 
Q 1444 3053 1217 2703 
Q 991 2353 991 1663 
Q 991 975 1217 622 
Q 1444 269 1888 269 
Q 2325 269 2554 583 
Q 2784 897 2784 1497 
L 2784 1825 
z
" transform="scale(0.015625)"/>
      <path id="DejaVuSerif-68" d="M 263 0 
L 263 331 
L 781 331 
L 781 4531 
L 231 4531 
L 231 4863 
L 1356 4863 
L 1356 2731 
Q 1516 3069 1770 3241 
Q 2025 3413 2363 3413 
Q 2913 3413 3172 3097 
Q 3431 2781 3431 2113 
L 3431 331 
L 3944 331 
L 3944 0 
L 2356 0 
L 2356 331 
L 2853 331 
L 2853 1931 
Q 2853 2541 2704 2764 
Q 2556 2988 2175 2988 
Q 1775 2988 1565 2697 
Q 1356 2406 1356 1850 
L 1356 331 
L 1856 331 
L 1856 0 
L 263 0 
z
" transform="scale(0.015625)"/>
      <path id="DejaVuSerif-73" d="M 359 184 
L 359 959 
L 691 959 
Q 703 588 923 403 
Q 1144 219 1575 219 
Q 1963 219 2166 364 
Q 2369 509 2369 788 
Q 2369 1006 2220 1140 
Q 2072 1275 1594 1428 
L 1178 1569 
Q 750 1706 558 1912 
Q 366 2119 366 2438 
Q 366 2894 700 3153 
Q 1034 3413 1625 3413 
Q 1888 3413 2178 3344 
Q 2469 3275 2778 3144 
L 2778 2419 
L 2447 2419 
Q 2434 2741 2221 2922 
Q 2009 3103 1644 3103 
Q 1281 3103 1095 2975 
Q 909 2847 909 2591 
Q 909 2381 1050 2254 
Q 1191 2128 1613 1997 
L 2069 1856 
Q 2541 1709 2748 1489 
Q 2956 1269 2956 922 
Q 2956 450 2595 179 
Q 2234 -91 1600 -91 
Q 1278 -91 972 -22 
Q 666 47 359 184 
z
" transform="scale(0.015625)"/>
      <path id="DejaVuSerif-74" d="M 691 2988 
L 184 2988 
L 184 3322 
L 691 3322 
L 691 4353 
L 1269 4353 
L 1269 3322 
L 2350 3322 
L 2350 2988 
L 1269 2988 
L 1269 878 
Q 1269 456 1350 337 
Q 1431 219 1650 219 
Q 1875 219 1978 351 
Q 2081 484 2088 781 
L 2522 781 
Q 2497 328 2275 118 
Q 2053 -91 1600 -91 
Q 1103 -91 897 129 
Q 691 350 691 878 
L 691 2988 
z
" transform="scale(0.015625)"/>
      <path id="DejaVuSerif-76" d="M 1581 0 
L 359 2988 
L -19 2988 
L -19 3322 
L 1509 3322 
L 1509 2988 
L 978 2988 
L 1913 703 
L 2847 2988 
L 2350 2988 
L 2350 3322 
L 3597 3322 
L 3597 2988 
L 3225 2988 
L 2003 0 
L 1581 0 
z
" transform="scale(0.015625)"/>
      <path id="DejaVuSerif-78" d="M 1863 2028 
L 2559 2988 
L 2113 2988 
L 2113 3322 
L 3391 3322 
L 3391 2988 
L 2950 2988 
L 2059 1759 
L 3097 331 
L 3531 331 
L 3531 0 
L 1997 0 
L 1997 331 
L 2419 331 
L 1697 1325 
L 972 331 
L 1403 331 
L 1403 0 
L 141 0 
L 141 331 
L 581 331 
L 1497 1594 
L 488 2988 
L 78 2988 
L 78 3322 
L 1563 3322 
L 1563 2988 
L 1166 2988 
L 1863 2028 
z
" transform="scale(0.015625)"/>
      <path id="DejaVuSerif-66" d="M 2753 4078 
L 2450 4078 
Q 2447 4313 2317 4434 
Q 2188 4556 1941 4556 
Q 1619 4556 1487 4379 
Q 1356 4203 1356 3750 
L 1356 3322 
L 2284 3322 
L 2284 2988 
L 1356 2988 
L 1356 331 
L 2094 331 
L 2094 0 
L 231 0 
L 231 331 
L 781 331 
L 781 2988 
L 231 2988 
L 231 3322 
L 781 3322 
L 781 3738 
Q 781 4294 1070 4578 
Q 1359 4863 1919 4863 
Q 2128 4863 2337 4825 
Q 2547 4788 2753 4709 
L 2753 4078 
z
" transform="scale(0.015625)"/>
      <path id="DejaVuSerif-6f" d="M 1925 219 
Q 2388 219 2623 584 
Q 2859 950 2859 1663 
Q 2859 2375 2623 2739 
Q 2388 3103 1925 3103 
Q 1463 3103 1227 2739 
Q 991 2375 991 1663 
Q 991 950 1228 584 
Q 1466 219 1925 219 
z
M 1925 -91 
Q 1200 -91 759 389 
Q 319 869 319 1663 
Q 319 2456 758 2934 
Q 1197 3413 1925 3413 
Q 2653 3413 3092 2934 
Q 3531 2456 3531 1663 
Q 3531 869 3092 389 
Q 2653 -91 1925 -91 
z
" transform="scale(0.015625)"/>
     </defs>
     <use xlink:href="#DejaVuSerif-48"/>
     <use xlink:href="#DejaVuSerif-69" x="87.207031"/>
     <use xlink:href="#DejaVuSerif-67" x="119.189453"/>
     <use xlink:href="#DejaVuSerif-68" x="183.203125"/>
     <use xlink:href="#DejaVuSerif-65" x="247.607422"/>
     <use xlink:href="#DejaVuSerif-73" x="306.787109"/>
     <use xlink:href="#DejaVuSerif-74" x="358.105469"/>
     <use xlink:href="#DejaVuSerif-20" x="398.291016"/>
     <use xlink:href="#DejaVuSerif-61" x="430.078125"/>
     <use xlink:href="#DejaVuSerif-76" x="489.697266"/>
     <use xlink:href="#DejaVuSerif-65" x="546.191406"/>
     <use xlink:href="#DejaVuSerif-72" x="605.371094"/>
     <use xlink:href="#DejaVuSerif-61" x="653.173828"/>
     <use xlink:href="#DejaVuSerif-67" x="712.792969"/>
     <use xlink:href="#DejaVuSerif-65" x="776.806641"/>
     <use xlink:href="#DejaVuSerif-20" x="835.986328"/>
     <use xlink:href="#DejaVuSerif-69" x="867.773438"/>
     <use xlink:href="#DejaVuSerif-6e" x="899.755859"/>
     <use xlink:href="#DejaVuSerif-64" x="964.160156"/>
     <use xlink:href="#DejaVuSerif-65" x="1028.173828"/>
     <use xlink:href="#DejaVuSerif-78" x="1087.353516"/>
     <use xlink:href="#DejaVuSerif-20" x="1143.75"/>
     <use xlink:href="#DejaVuSerif-66" x="1175.537109"/>
     <use xlink:href="#DejaVuSerif-6f" x="1212.548828"/>
     <use xlink:href="#DejaVuSerif-72" x="1272.753906"/>
     <use xlink:href="#DejaVuSerif-20" x="1320.556641"/>
     <use xlink:href="#DejaVuSerif-28" x="1352.34375"/>
     <use xlink:href="#DejaVuSerif-50" x="1391.357422"/>
     <use xlink:href="#DejaVuSerif-56" x="1458.642578"/>
     <use xlink:href="#DejaVuSerif-20" x="1530.859375"/>
     <use xlink:href="#DejaVuSerif-42" x="1562.646484"/>
     <use xlink:href="#DejaVuSerif-75" x="1636.132812"/>
     <use xlink:href="#DejaVuSerif-73" x="1700.537109"/>
     <use xlink:href="#DejaVuSerif-65" x="1751.855469"/>
     <use xlink:href="#DejaVuSerif-73" x="1811.035156"/>
     <use xlink:href="#DejaVuSerif-29" x="1862.353516"/>
     <use xlink:href="#DejaVuSerif-20" x="1901.367188"/>
     <use xlink:href="#DejaVuSerif-2d" x="1933.154297"/>
     <use xlink:href="#DejaVuSerif-20" x="1966.943359"/>
     <use xlink:href="#DejaVuSerif-41" x="1998.730469"/>
     <use xlink:href="#DejaVuSerif-43" x="2070.947266"/>
     <use xlink:href="#DejaVuSerif-2d" x="2147.460938"/>
     <use xlink:href="#DejaVuSerif-52" x="2181.25"/>
     <use xlink:href="#DejaVuSerif-4f" x="2256.542969"/>
    </g>
   </g>
   <g id="legend_1">
    <g id="patch_7">
     <path d="M 623.946922 111.906562 
L 706.106922 111.906562 
Q 708.706922 111.906562 708.706922 109.306562 
L 708.706922 37.18375 
Q 708.706922 34.58375 706.106922 34.58375 
L 623.946922 34.58375 
Q 621.346922 34.58375 621.346922 37.18375 
L 621.346922 109.306562 
Q 621.346922 111.906562 623.946922 111.906562 
z
" style="fill: #e5e5e5; opacity: 0.8; stroke: #cccccc; stroke-width: 0.5; stroke-linejoin: miter"/>
    </g>
    <g id="text_23">
     <!-- Indices -->
     <g transform="translate(646.706609 47.382187) scale(0.1 -0.1)">
      <use xlink:href="#DejaVuSerif-49"/>
      <use xlink:href="#DejaVuSerif-6e" x="39.501953"/>
      <use xlink:href="#DejaVuSerif-64" x="103.90625"/>
      <use xlink:href="#DejaVuSerif-69" x="167.919922"/>
      <use xlink:href="#DejaVuSerif-63" x="199.902344"/>
      <use xlink:href="#DejaVuSerif-65" x="255.908203"/>
      <use xlink:href="#DejaVuSerif-73" x="315.087891"/>
     </g>
    </g>
    <g id="line2d_45">
     <defs>
      <path id="m90075a7562" d="M 0 5 
C 1.326016 5 2.597899 4.473168 3.535534 3.535534 
C 4.473168 2.597899 5 1.326016 5 0 
C 5 -1.326016 4.473168 -2.597899 3.535534 -3.535534 
C 2.597899 -4.473168 1.326016 -5 0 -5 
C -1.326016 -5 -2.597899 -4.473168 -3.535534 -3.535534 
C -4.473168 -2.597899 -5 -1.326016 -5 0 
C -5 1.326016 -4.473168 2.597899 -3.535534 3.535534 
C -2.597899 4.473168 -1.326016 5 0 5 
z
" style="stroke: #008000"/>
     </defs>
     <g>
      <use xlink:href="#m90075a7562" x="639.546922" y="61.289844" style="fill: #008000; stroke: #008000"/>
     </g>
    </g>
    <g id="text_24">
     <!-- $\mathrm{VPI}^\mathrm{u}$ -->
     <g transform="translate(662.946922 65.839844) scale(0.13 -0.13)">
      <use xlink:href="#DejaVuSerif-56" transform="translate(0 0.09375)"/>
      <use xlink:href="#DejaVuSerif-50" transform="translate(72.216797 0.09375)"/>
      <use xlink:href="#DejaVuSerif-49" transform="translate(139.501953 0.09375)"/>
      <use xlink:href="#DejaVuSerif-75" transform="translate(179.912266 36.428125) scale(0.7)"/>
     </g>
    </g>
    <g id="line2d_46">
     <defs>
      <path id="ma84048e475" d="M 0 -5 
L -5 5 
L 5 5 
z
" style="stroke: #ffa500; stroke-linejoin: miter"/>
     </defs>
     <g>
      <use xlink:href="#ma84048e475" x="639.546922" y="80.371406" style="fill: #ffa500; stroke: #ffa500; stroke-linejoin: miter"/>
     </g>
    </g>
    <g id="text_25">
     <!-- $\mathrm{RPI}^\mathrm{ind}$ -->
     <g transform="translate(662.946922 84.921406) scale(0.13 -0.13)">
      <use xlink:href="#DejaVuSerif-52" transform="translate(0 0.476562)"/>
      <use xlink:href="#DejaVuSerif-50" transform="translate(75.292969 0.476562)"/>
      <use xlink:href="#DejaVuSerif-49" transform="translate(142.578125 0.476562)"/>
      <use xlink:href="#DejaVuSerif-69" transform="translate(182.988438 36.810937) scale(0.7)"/>
      <use xlink:href="#DejaVuSerif-6e" transform="translate(205.376133 36.810937) scale(0.7)"/>
      <use xlink:href="#DejaVuSerif-64" transform="translate(250.459141 36.810937) scale(0.7)"/>
     </g>
    </g>
    <g id="line2d_47">
     <defs>
      <path id="mab751b6d4a" d="M 0 -5 
L -5 5 
L 5 5 
z
" style="stroke: #800080; stroke-linejoin: miter"/>
     </defs>
     <g>
      <use xlink:href="#mab751b6d4a" x="639.546922" y="99.452969" style="fill: #800080; stroke: #800080; stroke-linejoin: miter"/>
     </g>
    </g>
    <g id="text_26">
     <!-- $\mathrm{RPI}^\mathrm{cap}$ -->
     <g transform="translate(662.946922 104.002969) scale(0.13 -0.13)">
      <use xlink:href="#DejaVuSerif-52" transform="translate(0 0.335938)"/>
      <use xlink:href="#DejaVuSerif-50" transform="translate(75.292969 0.335938)"/>
      <use xlink:href="#DejaVuSerif-49" transform="translate(142.578125 0.335938)"/>
      <use xlink:href="#DejaVuSerif-63" transform="translate(182.988438 36.670312) scale(0.7)"/>
      <use xlink:href="#DejaVuSerif-61" transform="translate(222.192539 36.670312) scale(0.7)"/>
      <use xlink:href="#DejaVuSerif-70" transform="translate(263.925937 36.670312) scale(0.7)"/>
     </g>
    </g>
   </g>
  </g>
 </g>
 <defs>
  <clipPath id="p190e878433">
   <rect x="62.8625" y="28.08375" width="551.984422" height="297.143669"/>
  </clipPath>
 </defs>
</svg>
