<?xml version="1.0" encoding="utf-8" standalone="no"?>
<!DOCTYPE svg PUBLIC "-//W3C//DTD SVG 1.1//EN"
  "http://www.w3.org/Graphics/SVG/1.1/DTD/svg11.dtd">
<svg xmlns:xlink="http://www.w3.org/1999/xlink" width="1440pt" height="576pt" viewBox="0 0 1440 576" xmlns="http://www.w3.org/2000/svg" version="1.1">
 <metadata>
  <rdf:RDF xmlns:dc="http://purl.org/dc/elements/1.1/" xmlns:cc="http://creativecommons.org/ns#" xmlns:rdf="http://www.w3.org/1999/02/22-rdf-syntax-ns#">
   <cc:Work>
    <dc:type rdf:resource="http://purl.org/dc/dcmitype/StillImage"/>
    <dc:date>2024-10-04T14:22:04.965249</dc:date>
    <dc:format>image/svg+xml</dc:format>
    <dc:creator>
     <cc:Agent>
      <dc:title>Matplotlib v3.7.2, https://matplotlib.org/</dc:title>
     </cc:Agent>
    </dc:creator>
   </cc:Work>
  </rdf:RDF>
 </metadata>
 <defs>
  <style type="text/css">*{stroke-linejoin: round; stroke-linecap: butt}</style>
 </defs>
 <g id="figure_1">
  <g id="patch_1">
   <path d="M 0 576 
L 1440 576 
L 1440 0 
L 0 0 
z
" style="fill: #f0f0f0"/>
  </g>
  <g id="axes_1">
   <g id="patch_2">
    <path d="M 115.2 535.68 
L 1368 535.68 
L 1368 69.12 
L 115.2 69.12 
z
" style="fill: #e5e5e5"/>
   </g>
   <g id="matplotlib.axis_1">
    <g id="xtick_1">
     <g id="line2d_1">
      <path d="M 213.240112 535.68 
L 213.240112 69.12 
" clip-path="url(#p330c4f62f0)" style="fill: none; stroke: #ffffff; stroke-linecap: round"/>
     </g>
     <g id="line2d_2"/>
     <g id="text_1">
      <!-- North - 802 - 230 kV -->
      <g transform="translate(94.671507 618.909728) rotate(-30) scale(0.13 -0.13)">
       <defs>
        <path id="DejaVuSerif-4e" d="M 313 0 
L 313 331 
L 941 331 
L 941 4331 
L 313 4331 
L 313 4666 
L 1509 4666 
L 4306 984 
L 4306 4331 
L 3681 4331 
L 3681 4666 
L 5319 4666 
L 5319 4331 
L 4691 4331 
L 4691 -91 
L 4313 -91 
L 1325 3841 
L 1325 331 
L 1953 331 
L 1953 0 
L 313 0 
z
" transform="scale(0.015625)"/>
        <path id="DejaVuSerif-6f" d="M 1925 219 
Q 2388 219 2623 584 
Q 2859 950 2859 1663 
Q 2859 2375 2623 2739 
Q 2388 3103 1925 3103 
Q 1463 3103 1227 2739 
Q 991 2375 991 1663 
Q 991 950 1228 584 
Q 1466 219 1925 219 
z
M 1925 -91 
Q 1200 -91 759 389 
Q 319 869 319 1663 
Q 319 2456 758 2934 
Q 1197 3413 1925 3413 
Q 2653 3413 3092 2934 
Q 3531 2456 3531 1663 
Q 3531 869 3092 389 
Q 2653 -91 1925 -91 
z
" transform="scale(0.015625)"/>
        <path id="DejaVuSerif-72" d="M 3059 3328 
L 3059 2497 
L 2728 2497 
Q 2713 2744 2591 2866 
Q 2469 2988 2234 2988 
Q 1809 2988 1582 2694 
Q 1356 2400 1356 1850 
L 1356 331 
L 2022 331 
L 2022 0 
L 263 0 
L 263 331 
L 781 331 
L 781 2994 
L 231 2994 
L 231 3322 
L 1356 3322 
L 1356 2731 
Q 1525 3078 1790 3245 
Q 2056 3413 2438 3413 
Q 2578 3413 2733 3391 
Q 2888 3369 3059 3328 
z
" transform="scale(0.015625)"/>
        <path id="DejaVuSerif-74" d="M 691 2988 
L 184 2988 
L 184 3322 
L 691 3322 
L 691 4353 
L 1269 4353 
L 1269 3322 
L 2350 3322 
L 2350 2988 
L 1269 2988 
L 1269 878 
Q 1269 456 1350 337 
Q 1431 219 1650 219 
Q 1875 219 1978 351 
Q 2081 484 2088 781 
L 2522 781 
Q 2497 328 2275 118 
Q 2053 -91 1600 -91 
Q 1103 -91 897 129 
Q 691 350 691 878 
L 691 2988 
z
" transform="scale(0.015625)"/>
        <path id="DejaVuSerif-68" d="M 263 0 
L 263 331 
L 781 331 
L 781 4531 
L 231 4531 
L 231 4863 
L 1356 4863 
L 1356 2731 
Q 1516 3069 1770 3241 
Q 2025 3413 2363 3413 
Q 2913 3413 3172 3097 
Q 3431 2781 3431 2113 
L 3431 331 
L 3944 331 
L 3944 0 
L 2356 0 
L 2356 331 
L 2853 331 
L 2853 1931 
Q 2853 2541 2704 2764 
Q 2556 2988 2175 2988 
Q 1775 2988 1565 2697 
Q 1356 2406 1356 1850 
L 1356 331 
L 1856 331 
L 1856 0 
L 263 0 
z
" transform="scale(0.015625)"/>
        <path id="DejaVuSerif-20" transform="scale(0.015625)"/>
        <path id="DejaVuSerif-2d" d="M 281 1959 
L 1881 1959 
L 1881 1472 
L 281 1472 
L 281 1959 
z
" transform="scale(0.015625)"/>
        <path id="DejaVuSerif-38" d="M 2981 1275 
Q 2981 1775 2732 2051 
Q 2484 2328 2034 2328 
Q 1584 2328 1336 2051 
Q 1088 1775 1088 1275 
Q 1088 772 1336 495 
Q 1584 219 2034 219 
Q 2484 219 2732 495 
Q 2981 772 2981 1275 
z
M 2853 3541 
Q 2853 3966 2637 4203 
Q 2422 4441 2034 4441 
Q 1650 4441 1433 4203 
Q 1216 3966 1216 3541 
Q 1216 3113 1433 2875 
Q 1650 2638 2034 2638 
Q 2422 2638 2637 2875 
Q 2853 3113 2853 3541 
z
M 2516 2484 
Q 3047 2413 3344 2092 
Q 3641 1772 3641 1275 
Q 3641 619 3225 264 
Q 2809 -91 2034 -91 
Q 1263 -91 845 264 
Q 428 619 428 1275 
Q 428 1772 725 2092 
Q 1022 2413 1556 2484 
Q 1084 2569 832 2842 
Q 581 3116 581 3541 
Q 581 4103 968 4426 
Q 1356 4750 2034 4750 
Q 2713 4750 3100 4426 
Q 3488 4103 3488 3541 
Q 3488 3116 3236 2842 
Q 2984 2569 2516 2484 
z
" transform="scale(0.015625)"/>
        <path id="DejaVuSerif-30" d="M 2034 219 
Q 2513 219 2750 744 
Q 2988 1269 2988 2328 
Q 2988 3391 2750 3916 
Q 2513 4441 2034 4441 
Q 1556 4441 1318 3916 
Q 1081 3391 1081 2328 
Q 1081 1269 1318 744 
Q 1556 219 2034 219 
z
M 2034 -91 
Q 1275 -91 848 546 
Q 422 1184 422 2328 
Q 422 3475 848 4112 
Q 1275 4750 2034 4750 
Q 2797 4750 3222 4112 
Q 3647 3475 3647 2328 
Q 3647 1184 3222 546 
Q 2797 -91 2034 -91 
z
" transform="scale(0.015625)"/>
        <path id="DejaVuSerif-32" d="M 819 3553 
L 469 3553 
L 469 4384 
Q 803 4563 1142 4656 
Q 1481 4750 1806 4750 
Q 2534 4750 2956 4397 
Q 3378 4044 3378 3438 
Q 3378 2753 2422 1800 
Q 2347 1728 2309 1691 
L 1131 513 
L 3078 513 
L 3078 1088 
L 3444 1088 
L 3444 0 
L 434 0 
L 434 341 
L 1850 1753 
Q 2319 2222 2519 2614 
Q 2719 3006 2719 3438 
Q 2719 3909 2473 4175 
Q 2228 4441 1797 4441 
Q 1350 4441 1106 4219 
Q 863 3997 819 3553 
z
" transform="scale(0.015625)"/>
        <path id="DejaVuSerif-33" d="M 622 4469 
Q 988 4606 1323 4678 
Q 1659 4750 1953 4750 
Q 2638 4750 3022 4454 
Q 3406 4159 3406 3634 
Q 3406 3213 3140 2930 
Q 2875 2647 2388 2547 
Q 2963 2466 3280 2130 
Q 3597 1794 3597 1259 
Q 3597 606 3158 257 
Q 2719 -91 1894 -91 
Q 1528 -91 1179 -12 
Q 831 66 488 225 
L 488 1131 
L 838 1131 
Q 869 681 1141 450 
Q 1413 219 1906 219 
Q 2384 219 2661 495 
Q 2938 772 2938 1253 
Q 2938 1803 2653 2086 
Q 2369 2369 1819 2369 
L 1522 2369 
L 1522 2688 
L 1678 2688 
Q 2225 2688 2498 2914 
Q 2772 3141 2772 3597 
Q 2772 4006 2547 4223 
Q 2322 4441 1900 4441 
Q 1478 4441 1245 4241 
Q 1013 4041 972 3647 
L 622 3647 
L 622 4469 
z
" transform="scale(0.015625)"/>
        <path id="DejaVuSerif-6b" d="M 1831 0 
L 219 0 
L 219 331 
L 738 331 
L 738 4531 
L 184 4531 
L 184 4863 
L 1313 4863 
L 1313 1697 
L 2713 2988 
L 2234 2988 
L 2234 3322 
L 3738 3322 
L 3738 2988 
L 3169 2988 
L 2181 2075 
L 3444 331 
L 3922 331 
L 3922 0 
L 2284 0 
L 2284 331 
L 2759 331 
L 1766 1697 
L 1313 1275 
L 1313 331 
L 1831 331 
L 1831 0 
z
" transform="scale(0.015625)"/>
        <path id="DejaVuSerif-56" d="M 1119 4331 
L 2497 750 
L 3872 4331 
L 3347 4331 
L 3347 4666 
L 4716 4666 
L 4716 4331 
L 4263 4331 
L 2597 0 
L 2059 0 
L 403 4331 
L -63 4331 
L -63 4666 
L 1638 4666 
L 1638 4331 
L 1119 4331 
z
" transform="scale(0.015625)"/>
       </defs>
       <use xlink:href="#DejaVuSerif-4e"/>
       <use xlink:href="#DejaVuSerif-6f" x="87.5"/>
       <use xlink:href="#DejaVuSerif-72" x="147.705078"/>
       <use xlink:href="#DejaVuSerif-74" x="195.507812"/>
       <use xlink:href="#DejaVuSerif-68" x="235.693359"/>
       <use xlink:href="#DejaVuSerif-20" x="300.097656"/>
       <use xlink:href="#DejaVuSerif-2d" x="331.884766"/>
       <use xlink:href="#DejaVuSerif-20" x="365.673828"/>
       <use xlink:href="#DejaVuSerif-38" x="397.460938"/>
       <use xlink:href="#DejaVuSerif-30" x="461.083984"/>
       <use xlink:href="#DejaVuSerif-32" x="524.707031"/>
       <use xlink:href="#DejaVuSerif-20" x="588.330078"/>
       <use xlink:href="#DejaVuSerif-2d" x="620.117188"/>
       <use xlink:href="#DejaVuSerif-20" x="653.90625"/>
       <use xlink:href="#DejaVuSerif-32" x="685.693359"/>
       <use xlink:href="#DejaVuSerif-33" x="749.316406"/>
       <use xlink:href="#DejaVuSerif-30" x="812.939453"/>
       <use xlink:href="#DejaVuSerif-20" x="876.5625"/>
       <use xlink:href="#DejaVuSerif-6b" x="908.349609"/>
       <use xlink:href="#DejaVuSerif-56" x="968.945312"/>
      </g>
     </g>
    </g>
    <g id="xtick_2">
     <g id="line2d_3">
      <path d="M 330.653421 535.68 
L 330.653421 69.12 
" clip-path="url(#p330c4f62f0)" style="fill: none; stroke: #ffffff; stroke-linecap: round"/>
     </g>
     <g id="line2d_4"/>
     <g id="text_2">
      <!-- North - 863 - 230 kV Imperatriz -->
      <g transform="translate(147.980938 655.920119) rotate(-30) scale(0.13 -0.13)">
       <defs>
        <path id="DejaVuSerif-36" d="M 2094 219 
Q 2534 219 2771 542 
Q 3009 866 3009 1472 
Q 3009 2078 2771 2401 
Q 2534 2725 2094 2725 
Q 1647 2725 1412 2412 
Q 1178 2100 1178 1509 
Q 1178 888 1415 553 
Q 1653 219 2094 219 
z
M 1075 2569 
Q 1288 2803 1556 2918 
Q 1825 3034 2163 3034 
Q 2859 3034 3264 2615 
Q 3669 2197 3669 1472 
Q 3669 763 3233 336 
Q 2797 -91 2069 -91 
Q 1278 -91 853 498 
Q 428 1088 428 2181 
Q 428 3406 931 4078 
Q 1434 4750 2350 4750 
Q 2597 4750 2869 4703 
Q 3141 4656 3425 4563 
L 3425 3794 
L 3072 3794 
Q 3034 4109 2831 4275 
Q 2628 4441 2284 4441 
Q 1678 4441 1381 3981 
Q 1084 3522 1075 2569 
z
" transform="scale(0.015625)"/>
        <path id="DejaVuSerif-49" d="M 1581 331 
L 2175 331 
L 2175 0 
L 353 0 
L 353 331 
L 947 331 
L 947 4331 
L 353 4331 
L 353 4666 
L 2175 4666 
L 2175 4331 
L 1581 4331 
L 1581 331 
z
" transform="scale(0.015625)"/>
        <path id="DejaVuSerif-6d" d="M 3316 2675 
Q 3481 3041 3739 3227 
Q 3997 3413 4341 3413 
Q 4863 3413 5119 3089 
Q 5375 2766 5375 2113 
L 5375 331 
L 5894 331 
L 5894 0 
L 4300 0 
L 4300 331 
L 4800 331 
L 4800 2047 
Q 4800 2556 4650 2772 
Q 4500 2988 4153 2988 
Q 3769 2988 3567 2697 
Q 3366 2406 3366 1850 
L 3366 331 
L 3866 331 
L 3866 0 
L 2291 0 
L 2291 331 
L 2791 331 
L 2791 2069 
Q 2791 2566 2641 2777 
Q 2491 2988 2144 2988 
Q 1759 2988 1557 2697 
Q 1356 2406 1356 1850 
L 1356 331 
L 1856 331 
L 1856 0 
L 263 0 
L 263 331 
L 781 331 
L 781 2994 
L 231 2994 
L 231 3322 
L 1356 3322 
L 1356 2731 
Q 1516 3063 1762 3238 
Q 2009 3413 2322 3413 
Q 2709 3413 2968 3220 
Q 3228 3028 3316 2675 
z
" transform="scale(0.015625)"/>
        <path id="DejaVuSerif-70" d="M 1313 1825 
L 1313 1497 
Q 1313 897 1542 583 
Q 1772 269 2209 269 
Q 2650 269 2876 622 
Q 3103 975 3103 1663 
Q 3103 2353 2876 2703 
Q 2650 3053 2209 3053 
Q 1772 3053 1542 2737 
Q 1313 2422 1313 1825 
z
M 738 2988 
L 184 2988 
L 184 3322 
L 1313 3322 
L 1313 2803 
Q 1481 3116 1742 3264 
Q 2003 3413 2388 3413 
Q 3000 3413 3387 2928 
Q 3775 2444 3775 1663 
Q 3775 881 3387 395 
Q 3000 -91 2388 -91 
Q 2003 -91 1742 57 
Q 1481 206 1313 519 
L 1313 -997 
L 1856 -997 
L 1856 -1331 
L 184 -1331 
L 184 -997 
L 738 -997 
L 738 2988 
z
" transform="scale(0.015625)"/>
        <path id="DejaVuSerif-65" d="M 3469 1600 
L 991 1600 
L 991 1575 
Q 991 903 1244 561 
Q 1497 219 1991 219 
Q 2369 219 2611 417 
Q 2853 616 2950 1006 
L 3413 1006 
Q 3275 459 2904 184 
Q 2534 -91 1931 -91 
Q 1203 -91 761 389 
Q 319 869 319 1663 
Q 319 2450 753 2931 
Q 1188 3413 1894 3413 
Q 2647 3413 3050 2948 
Q 3453 2484 3469 1600 
z
M 2791 1931 
Q 2772 2513 2545 2808 
Q 2319 3103 1894 3103 
Q 1497 3103 1269 2806 
Q 1041 2509 991 1931 
L 2791 1931 
z
" transform="scale(0.015625)"/>
        <path id="DejaVuSerif-61" d="M 2547 1044 
L 2547 1747 
L 1806 1747 
Q 1378 1747 1168 1562 
Q 959 1378 959 997 
Q 959 650 1171 447 
Q 1384 244 1747 244 
Q 2106 244 2326 466 
Q 2547 688 2547 1044 
z
M 3122 2075 
L 3122 331 
L 3634 331 
L 3634 0 
L 2547 0 
L 2547 359 
Q 2356 128 2106 18 
Q 1856 -91 1522 -91 
Q 969 -91 644 203 
Q 319 497 319 997 
Q 319 1513 691 1797 
Q 1063 2081 1741 2081 
L 2547 2081 
L 2547 2309 
Q 2547 2688 2317 2895 
Q 2088 3103 1672 3103 
Q 1328 3103 1125 2947 
Q 922 2791 872 2484 
L 575 2484 
L 575 3156 
Q 875 3284 1158 3348 
Q 1441 3413 1709 3413 
Q 2400 3413 2761 3070 
Q 3122 2728 3122 2075 
z
" transform="scale(0.015625)"/>
        <path id="DejaVuSerif-69" d="M 622 4353 
Q 622 4497 726 4603 
Q 831 4709 978 4709 
Q 1122 4709 1226 4603 
Q 1331 4497 1331 4353 
Q 1331 4206 1228 4103 
Q 1125 4000 978 4000 
Q 831 4000 726 4103 
Q 622 4206 622 4353 
z
M 1356 331 
L 1900 331 
L 1900 0 
L 231 0 
L 231 331 
L 781 331 
L 781 2988 
L 231 2988 
L 231 3322 
L 1356 3322 
L 1356 331 
z
" transform="scale(0.015625)"/>
        <path id="DejaVuSerif-7a" d="M 256 0 
L 256 269 
L 2338 2988 
L 691 2988 
L 691 2413 
L 359 2413 
L 359 3322 
L 3078 3322 
L 3078 3053 
L 997 331 
L 2803 331 
L 2803 934 
L 3138 934 
L 3138 0 
L 256 0 
z
" transform="scale(0.015625)"/>
       </defs>
       <use xlink:href="#DejaVuSerif-4e"/>
       <use xlink:href="#DejaVuSerif-6f" x="87.5"/>
       <use xlink:href="#DejaVuSerif-72" x="147.705078"/>
       <use xlink:href="#DejaVuSerif-74" x="195.507812"/>
       <use xlink:href="#DejaVuSerif-68" x="235.693359"/>
       <use xlink:href="#DejaVuSerif-20" x="300.097656"/>
       <use xlink:href="#DejaVuSerif-2d" x="331.884766"/>
       <use xlink:href="#DejaVuSerif-20" x="365.673828"/>
       <use xlink:href="#DejaVuSerif-38" x="397.460938"/>
       <use xlink:href="#DejaVuSerif-36" x="461.083984"/>
       <use xlink:href="#DejaVuSerif-33" x="524.707031"/>
       <use xlink:href="#DejaVuSerif-20" x="588.330078"/>
       <use xlink:href="#DejaVuSerif-2d" x="620.117188"/>
       <use xlink:href="#DejaVuSerif-20" x="653.90625"/>
       <use xlink:href="#DejaVuSerif-32" x="685.693359"/>
       <use xlink:href="#DejaVuSerif-33" x="749.316406"/>
       <use xlink:href="#DejaVuSerif-30" x="812.939453"/>
       <use xlink:href="#DejaVuSerif-20" x="876.5625"/>
       <use xlink:href="#DejaVuSerif-6b" x="908.349609"/>
       <use xlink:href="#DejaVuSerif-56" x="968.945312"/>
       <use xlink:href="#DejaVuSerif-20" x="1041.162109"/>
       <use xlink:href="#DejaVuSerif-49" x="1072.949219"/>
       <use xlink:href="#DejaVuSerif-6d" x="1112.451172"/>
       <use xlink:href="#DejaVuSerif-70" x="1207.275391"/>
       <use xlink:href="#DejaVuSerif-65" x="1271.289062"/>
       <use xlink:href="#DejaVuSerif-72" x="1330.46875"/>
       <use xlink:href="#DejaVuSerif-61" x="1378.271484"/>
       <use xlink:href="#DejaVuSerif-74" x="1437.890625"/>
       <use xlink:href="#DejaVuSerif-72" x="1478.076172"/>
       <use xlink:href="#DejaVuSerif-69" x="1525.878906"/>
       <use xlink:href="#DejaVuSerif-7a" x="1557.861328"/>
      </g>
     </g>
    </g>
    <g id="xtick_3">
     <g id="line2d_5">
      <path d="M 448.066729 535.68 
L 448.066729 69.12 
" clip-path="url(#p330c4f62f0)" style="fill: none; stroke: #ffffff; stroke-linecap: round"/>
     </g>
     <g id="line2d_6"/>
     <g id="text_3">
      <!-- SE-CW - 202 - 500 kV -->
      <g transform="translate(323.15124 622.574103) rotate(-30) scale(0.13 -0.13)">
       <defs>
        <path id="DejaVuSerif-53" d="M 594 225 
L 594 1288 
L 953 1284 
Q 969 753 1261 498 
Q 1553 244 2150 244 
Q 2706 244 2998 464 
Q 3291 684 3291 1106 
Q 3291 1444 3114 1625 
Q 2938 1806 2369 1978 
L 1753 2163 
Q 1084 2366 811 2669 
Q 538 2972 538 3500 
Q 538 4094 959 4422 
Q 1381 4750 2144 4750 
Q 2469 4750 2856 4679 
Q 3244 4609 3681 4475 
L 3681 3481 
L 3328 3481 
Q 3275 3975 2998 4195 
Q 2722 4416 2156 4416 
Q 1663 4416 1405 4214 
Q 1147 4013 1147 3628 
Q 1147 3294 1340 3103 
Q 1534 2913 2163 2725 
L 2741 2553 
Q 3375 2363 3645 2067 
Q 3916 1772 3916 1275 
Q 3916 597 3481 253 
Q 3047 -91 2188 -91 
Q 1803 -91 1404 -12 
Q 1006 66 594 225 
z
" transform="scale(0.015625)"/>
        <path id="DejaVuSerif-45" d="M 353 0 
L 353 331 
L 947 331 
L 947 4331 
L 353 4331 
L 353 4666 
L 4109 4666 
L 4109 3628 
L 3725 3628 
L 3725 4281 
L 1581 4281 
L 1581 2719 
L 3109 2719 
L 3109 3303 
L 3494 3303 
L 3494 1753 
L 3109 1753 
L 3109 2338 
L 1581 2338 
L 1581 384 
L 3775 384 
L 3775 1038 
L 4159 1038 
L 4159 0 
L 353 0 
z
" transform="scale(0.015625)"/>
        <path id="DejaVuSerif-43" d="M 4513 1234 
Q 4306 581 3820 245 
Q 3334 -91 2591 -91 
Q 2134 -91 1743 65 
Q 1353 222 1050 525 
Q 700 875 529 1320 
Q 359 1766 359 2328 
Q 359 3416 987 4083 
Q 1616 4750 2644 4750 
Q 3025 4750 3456 4650 
Q 3888 4550 4384 4347 
L 4384 3272 
L 4031 3272 
Q 3916 3859 3567 4137 
Q 3219 4416 2591 4416 
Q 1844 4416 1459 3886 
Q 1075 3356 1075 2328 
Q 1075 1303 1459 773 
Q 1844 244 2591 244 
Q 3113 244 3450 492 
Q 3788 741 3938 1234 
L 4513 1234 
z
" transform="scale(0.015625)"/>
        <path id="DejaVuSerif-57" d="M 4878 0 
L 4366 0 
L 3297 3794 
L 2228 0 
L 1716 0 
L 494 4331 
L 31 4331 
L 31 4666 
L 1734 4666 
L 1734 4331 
L 1153 4331 
L 2125 884 
L 3188 4666 
L 3694 4666 
L 4775 844 
L 5753 4331 
L 5216 4331 
L 5216 4666 
L 6559 4666 
L 6559 4331 
L 6100 4331 
L 4878 0 
z
" transform="scale(0.015625)"/>
        <path id="DejaVuSerif-35" d="M 3219 4666 
L 3219 4153 
L 1081 4153 
L 1081 2816 
Q 1244 2928 1461 2984 
Q 1678 3041 1947 3041 
Q 2703 3041 3140 2622 
Q 3578 2203 3578 1478 
Q 3578 738 3136 323 
Q 2694 -91 1894 -91 
Q 1572 -91 1234 -12 
Q 897 66 544 225 
L 544 1131 
L 897 1131 
Q 925 688 1179 453 
Q 1434 219 1894 219 
Q 2388 219 2653 544 
Q 2919 869 2919 1478 
Q 2919 2084 2655 2407 
Q 2391 2731 1894 2731 
Q 1613 2731 1398 2631 
Q 1184 2531 1019 2322 
L 750 2322 
L 750 4666 
L 3219 4666 
z
" transform="scale(0.015625)"/>
       </defs>
       <use xlink:href="#DejaVuSerif-53"/>
       <use xlink:href="#DejaVuSerif-45" x="68.505859"/>
       <use xlink:href="#DejaVuSerif-2d" x="143.378906"/>
       <use xlink:href="#DejaVuSerif-43" x="177.167969"/>
       <use xlink:href="#DejaVuSerif-57" x="253.681641"/>
       <use xlink:href="#DejaVuSerif-20" x="356.464844"/>
       <use xlink:href="#DejaVuSerif-2d" x="388.251953"/>
       <use xlink:href="#DejaVuSerif-20" x="422.041016"/>
       <use xlink:href="#DejaVuSerif-32" x="453.828125"/>
       <use xlink:href="#DejaVuSerif-30" x="517.451172"/>
       <use xlink:href="#DejaVuSerif-32" x="581.074219"/>
       <use xlink:href="#DejaVuSerif-20" x="644.697266"/>
       <use xlink:href="#DejaVuSerif-2d" x="676.484375"/>
       <use xlink:href="#DejaVuSerif-20" x="710.273438"/>
       <use xlink:href="#DejaVuSerif-35" x="742.060547"/>
       <use xlink:href="#DejaVuSerif-30" x="805.683594"/>
       <use xlink:href="#DejaVuSerif-30" x="869.306641"/>
       <use xlink:href="#DejaVuSerif-20" x="932.929688"/>
       <use xlink:href="#DejaVuSerif-6b" x="964.716797"/>
       <use xlink:href="#DejaVuSerif-56" x="1025.3125"/>
      </g>
     </g>
    </g>
    <g id="xtick_4">
     <g id="line2d_7">
      <path d="M 565.480037 535.68 
L 565.480037 69.12 
" clip-path="url(#p330c4f62f0)" style="fill: none; stroke: #ffffff; stroke-linecap: round"/>
     </g>
     <g id="line2d_8"/>
     <g id="text_4">
      <!-- SE-CW - 302 - 345 kV -->
      <g transform="translate(440.564548 622.574103) rotate(-30) scale(0.13 -0.13)">
       <defs>
        <path id="DejaVuSerif-34" d="M 2234 1581 
L 2234 4063 
L 641 1581 
L 2234 1581 
z
M 3609 0 
L 1484 0 
L 1484 331 
L 2234 331 
L 2234 1247 
L 197 1247 
L 197 1588 
L 2241 4750 
L 2859 4750 
L 2859 1581 
L 3750 1581 
L 3750 1247 
L 2859 1247 
L 2859 331 
L 3609 331 
L 3609 0 
z
" transform="scale(0.015625)"/>
       </defs>
       <use xlink:href="#DejaVuSerif-53"/>
       <use xlink:href="#DejaVuSerif-45" x="68.505859"/>
       <use xlink:href="#DejaVuSerif-2d" x="143.378906"/>
       <use xlink:href="#DejaVuSerif-43" x="177.167969"/>
       <use xlink:href="#DejaVuSerif-57" x="253.681641"/>
       <use xlink:href="#DejaVuSerif-20" x="356.464844"/>
       <use xlink:href="#DejaVuSerif-2d" x="388.251953"/>
       <use xlink:href="#DejaVuSerif-20" x="422.041016"/>
       <use xlink:href="#DejaVuSerif-33" x="453.828125"/>
       <use xlink:href="#DejaVuSerif-30" x="517.451172"/>
       <use xlink:href="#DejaVuSerif-32" x="581.074219"/>
       <use xlink:href="#DejaVuSerif-20" x="644.697266"/>
       <use xlink:href="#DejaVuSerif-2d" x="676.484375"/>
       <use xlink:href="#DejaVuSerif-20" x="710.273438"/>
       <use xlink:href="#DejaVuSerif-33" x="742.060547"/>
       <use xlink:href="#DejaVuSerif-34" x="805.683594"/>
       <use xlink:href="#DejaVuSerif-35" x="869.306641"/>
       <use xlink:href="#DejaVuSerif-20" x="932.929688"/>
       <use xlink:href="#DejaVuSerif-6b" x="964.716797"/>
       <use xlink:href="#DejaVuSerif-56" x="1025.3125"/>
      </g>
     </g>
    </g>
    <g id="xtick_5">
     <g id="line2d_9">
      <path d="M 682.893346 535.68 
L 682.893346 69.12 
" clip-path="url(#p330c4f62f0)" style="fill: none; stroke: #ffffff; stroke-linecap: round"/>
     </g>
     <g id="line2d_10"/>
     <g id="text_5">
      <!-- North - 841 - 500 kV -->
      <g transform="translate(564.32474 618.909728) rotate(-30) scale(0.13 -0.13)">
       <defs>
        <path id="DejaVuSerif-31" d="M 909 0 
L 909 331 
L 1722 331 
L 1722 4213 
L 781 3603 
L 781 4013 
L 1919 4750 
L 2350 4750 
L 2350 331 
L 3163 331 
L 3163 0 
L 909 0 
z
" transform="scale(0.015625)"/>
       </defs>
       <use xlink:href="#DejaVuSerif-4e"/>
       <use xlink:href="#DejaVuSerif-6f" x="87.5"/>
       <use xlink:href="#DejaVuSerif-72" x="147.705078"/>
       <use xlink:href="#DejaVuSerif-74" x="195.507812"/>
       <use xlink:href="#DejaVuSerif-68" x="235.693359"/>
       <use xlink:href="#DejaVuSerif-20" x="300.097656"/>
       <use xlink:href="#DejaVuSerif-2d" x="331.884766"/>
       <use xlink:href="#DejaVuSerif-20" x="365.673828"/>
       <use xlink:href="#DejaVuSerif-38" x="397.460938"/>
       <use xlink:href="#DejaVuSerif-34" x="461.083984"/>
       <use xlink:href="#DejaVuSerif-31" x="524.707031"/>
       <use xlink:href="#DejaVuSerif-20" x="588.330078"/>
       <use xlink:href="#DejaVuSerif-2d" x="620.117188"/>
       <use xlink:href="#DejaVuSerif-20" x="653.90625"/>
       <use xlink:href="#DejaVuSerif-35" x="685.693359"/>
       <use xlink:href="#DejaVuSerif-30" x="749.316406"/>
       <use xlink:href="#DejaVuSerif-30" x="812.939453"/>
       <use xlink:href="#DejaVuSerif-20" x="876.5625"/>
       <use xlink:href="#DejaVuSerif-6b" x="908.349609"/>
       <use xlink:href="#DejaVuSerif-56" x="968.945312"/>
      </g>
     </g>
    </g>
    <g id="xtick_6">
     <g id="line2d_11">
      <path d="M 800.306654 535.68 
L 800.306654 69.12 
" clip-path="url(#p330c4f62f0)" style="fill: none; stroke: #ffffff; stroke-linecap: round"/>
     </g>
     <g id="line2d_12"/>
     <g id="text_6">
      <!-- North - 862 - 230 kV Centro/Norte -->
      <g transform="translate(601.956946 664.971369) rotate(-30) scale(0.13 -0.13)">
       <defs>
        <path id="DejaVuSerif-6e" d="M 263 0 
L 263 331 
L 781 331 
L 781 2988 
L 231 2988 
L 231 3322 
L 1356 3322 
L 1356 2731 
Q 1516 3069 1770 3241 
Q 2025 3413 2363 3413 
Q 2913 3413 3172 3097 
Q 3431 2781 3431 2113 
L 3431 331 
L 3944 331 
L 3944 0 
L 2356 0 
L 2356 331 
L 2853 331 
L 2853 1931 
Q 2853 2541 2703 2767 
Q 2553 2994 2175 2994 
Q 1775 2994 1565 2701 
Q 1356 2409 1356 1850 
L 1356 331 
L 1856 331 
L 1856 0 
L 263 0 
z
" transform="scale(0.015625)"/>
        <path id="DejaVuSerif-2f" d="M 1656 4666 
L 2156 4666 
L 500 -594 
L 0 -594 
L 1656 4666 
z
" transform="scale(0.015625)"/>
       </defs>
       <use xlink:href="#DejaVuSerif-4e"/>
       <use xlink:href="#DejaVuSerif-6f" x="87.5"/>
       <use xlink:href="#DejaVuSerif-72" x="147.705078"/>
       <use xlink:href="#DejaVuSerif-74" x="195.507812"/>
       <use xlink:href="#DejaVuSerif-68" x="235.693359"/>
       <use xlink:href="#DejaVuSerif-20" x="300.097656"/>
       <use xlink:href="#DejaVuSerif-2d" x="331.884766"/>
       <use xlink:href="#DejaVuSerif-20" x="365.673828"/>
       <use xlink:href="#DejaVuSerif-38" x="397.460938"/>
       <use xlink:href="#DejaVuSerif-36" x="461.083984"/>
       <use xlink:href="#DejaVuSerif-32" x="524.707031"/>
       <use xlink:href="#DejaVuSerif-20" x="588.330078"/>
       <use xlink:href="#DejaVuSerif-2d" x="620.117188"/>
       <use xlink:href="#DejaVuSerif-20" x="653.90625"/>
       <use xlink:href="#DejaVuSerif-32" x="685.693359"/>
       <use xlink:href="#DejaVuSerif-33" x="749.316406"/>
       <use xlink:href="#DejaVuSerif-30" x="812.939453"/>
       <use xlink:href="#DejaVuSerif-20" x="876.5625"/>
       <use xlink:href="#DejaVuSerif-6b" x="908.349609"/>
       <use xlink:href="#DejaVuSerif-56" x="968.945312"/>
       <use xlink:href="#DejaVuSerif-20" x="1041.162109"/>
       <use xlink:href="#DejaVuSerif-43" x="1072.949219"/>
       <use xlink:href="#DejaVuSerif-65" x="1149.462891"/>
       <use xlink:href="#DejaVuSerif-6e" x="1208.642578"/>
       <use xlink:href="#DejaVuSerif-74" x="1273.046875"/>
       <use xlink:href="#DejaVuSerif-72" x="1313.232422"/>
       <use xlink:href="#DejaVuSerif-6f" x="1361.035156"/>
       <use xlink:href="#DejaVuSerif-2f" x="1421.240234"/>
       <use xlink:href="#DejaVuSerif-4e" x="1454.931641"/>
       <use xlink:href="#DejaVuSerif-6f" x="1542.431641"/>
       <use xlink:href="#DejaVuSerif-72" x="1602.636719"/>
       <use xlink:href="#DejaVuSerif-74" x="1650.439453"/>
       <use xlink:href="#DejaVuSerif-65" x="1690.625"/>
      </g>
     </g>
    </g>
    <g id="xtick_7">
     <g id="line2d_13">
      <path d="M 917.719963 535.68 
L 917.719963 69.12 
" clip-path="url(#p330c4f62f0)" style="fill: none; stroke: #ffffff; stroke-linecap: round"/>
     </g>
     <g id="line2d_14"/>
     <g id="text_7">
      <!-- SE-CW - 511 - 500 kV -->
      <g transform="translate(792.804473 622.574103) rotate(-30) scale(0.13 -0.13)">
       <use xlink:href="#DejaVuSerif-53"/>
       <use xlink:href="#DejaVuSerif-45" x="68.505859"/>
       <use xlink:href="#DejaVuSerif-2d" x="143.378906"/>
       <use xlink:href="#DejaVuSerif-43" x="177.167969"/>
       <use xlink:href="#DejaVuSerif-57" x="253.681641"/>
       <use xlink:href="#DejaVuSerif-20" x="356.464844"/>
       <use xlink:href="#DejaVuSerif-2d" x="388.251953"/>
       <use xlink:href="#DejaVuSerif-20" x="422.041016"/>
       <use xlink:href="#DejaVuSerif-35" x="453.828125"/>
       <use xlink:href="#DejaVuSerif-31" x="517.451172"/>
       <use xlink:href="#DejaVuSerif-31" x="581.074219"/>
       <use xlink:href="#DejaVuSerif-20" x="644.697266"/>
       <use xlink:href="#DejaVuSerif-2d" x="676.484375"/>
       <use xlink:href="#DejaVuSerif-20" x="710.273438"/>
       <use xlink:href="#DejaVuSerif-35" x="742.060547"/>
       <use xlink:href="#DejaVuSerif-30" x="805.683594"/>
       <use xlink:href="#DejaVuSerif-30" x="869.306641"/>
       <use xlink:href="#DejaVuSerif-20" x="932.929688"/>
       <use xlink:href="#DejaVuSerif-6b" x="964.716797"/>
       <use xlink:href="#DejaVuSerif-56" x="1025.3125"/>
      </g>
     </g>
    </g>
    <g id="xtick_8">
     <g id="line2d_15">
      <path d="M 1035.133271 535.68 
L 1035.133271 69.12 
" clip-path="url(#p330c4f62f0)" style="fill: none; stroke: #ffffff; stroke-linecap: round"/>
     </g>
     <g id="line2d_16"/>
     <g id="text_8">
      <!-- North - 843 - 230 kV Norte -->
      <g transform="translate(879.788626 640.142384) rotate(-30) scale(0.13 -0.13)">
       <use xlink:href="#DejaVuSerif-4e"/>
       <use xlink:href="#DejaVuSerif-6f" x="87.5"/>
       <use xlink:href="#DejaVuSerif-72" x="147.705078"/>
       <use xlink:href="#DejaVuSerif-74" x="195.507812"/>
       <use xlink:href="#DejaVuSerif-68" x="235.693359"/>
       <use xlink:href="#DejaVuSerif-20" x="300.097656"/>
       <use xlink:href="#DejaVuSerif-2d" x="331.884766"/>
       <use xlink:href="#DejaVuSerif-20" x="365.673828"/>
       <use xlink:href="#DejaVuSerif-38" x="397.460938"/>
       <use xlink:href="#DejaVuSerif-34" x="461.083984"/>
       <use xlink:href="#DejaVuSerif-33" x="524.707031"/>
       <use xlink:href="#DejaVuSerif-20" x="588.330078"/>
       <use xlink:href="#DejaVuSerif-2d" x="620.117188"/>
       <use xlink:href="#DejaVuSerif-20" x="653.90625"/>
       <use xlink:href="#DejaVuSerif-32" x="685.693359"/>
       <use xlink:href="#DejaVuSerif-33" x="749.316406"/>
       <use xlink:href="#DejaVuSerif-30" x="812.939453"/>
       <use xlink:href="#DejaVuSerif-20" x="876.5625"/>
       <use xlink:href="#DejaVuSerif-6b" x="908.349609"/>
       <use xlink:href="#DejaVuSerif-56" x="968.945312"/>
       <use xlink:href="#DejaVuSerif-20" x="1041.162109"/>
       <use xlink:href="#DejaVuSerif-4e" x="1072.949219"/>
       <use xlink:href="#DejaVuSerif-6f" x="1160.449219"/>
       <use xlink:href="#DejaVuSerif-72" x="1220.654297"/>
       <use xlink:href="#DejaVuSerif-74" x="1268.457031"/>
       <use xlink:href="#DejaVuSerif-65" x="1308.642578"/>
      </g>
     </g>
    </g>
    <g id="xtick_9">
     <g id="line2d_17">
      <path d="M 1152.546579 535.68 
L 1152.546579 69.12 
" clip-path="url(#p330c4f62f0)" style="fill: none; stroke: #ffffff; stroke-linecap: round"/>
     </g>
     <g id="line2d_18"/>
     <g id="text_9">
      <!-- SE-CW - 404 - Autoprodutores 230 kV -->
      <g transform="translate(934.420911 676.389025) rotate(-30) scale(0.13 -0.13)">
       <defs>
        <path id="DejaVuSerif-41" d="M 1281 1691 
L 2994 1691 
L 2138 3909 
L 1281 1691 
z
M -38 0 
L -38 331 
L 372 331 
L 2034 4666 
L 2559 4666 
L 4225 331 
L 4684 331 
L 4684 0 
L 2988 0 
L 2988 331 
L 3506 331 
L 3116 1356 
L 1153 1356 
L 763 331 
L 1275 331 
L 1275 0 
L -38 0 
z
" transform="scale(0.015625)"/>
        <path id="DejaVuSerif-75" d="M 2266 3322 
L 3341 3322 
L 3341 331 
L 3884 331 
L 3884 0 
L 2766 0 
L 2766 588 
Q 2606 256 2353 82 
Q 2100 -91 1766 -91 
Q 1213 -91 952 223 
Q 691 538 691 1209 
L 691 2988 
L 172 2988 
L 172 3322 
L 1269 3322 
L 1269 1388 
Q 1269 781 1417 556 
Q 1566 331 1947 331 
Q 2347 331 2556 625 
Q 2766 919 2766 1478 
L 2766 2988 
L 2266 2988 
L 2266 3322 
z
" transform="scale(0.015625)"/>
        <path id="DejaVuSerif-64" d="M 3359 331 
L 3909 331 
L 3909 0 
L 2784 0 
L 2784 519 
Q 2616 206 2355 57 
Q 2094 -91 1709 -91 
Q 1097 -91 708 395 
Q 319 881 319 1663 
Q 319 2444 706 2928 
Q 1094 3413 1709 3413 
Q 2094 3413 2355 3264 
Q 2616 3116 2784 2803 
L 2784 4531 
L 2241 4531 
L 2241 4863 
L 3359 4863 
L 3359 331 
z
M 2784 1497 
L 2784 1825 
Q 2784 2422 2554 2737 
Q 2325 3053 1888 3053 
Q 1444 3053 1217 2703 
Q 991 2353 991 1663 
Q 991 975 1217 622 
Q 1444 269 1888 269 
Q 2325 269 2554 583 
Q 2784 897 2784 1497 
z
" transform="scale(0.015625)"/>
        <path id="DejaVuSerif-73" d="M 359 184 
L 359 959 
L 691 959 
Q 703 588 923 403 
Q 1144 219 1575 219 
Q 1963 219 2166 364 
Q 2369 509 2369 788 
Q 2369 1006 2220 1140 
Q 2072 1275 1594 1428 
L 1178 1569 
Q 750 1706 558 1912 
Q 366 2119 366 2438 
Q 366 2894 700 3153 
Q 1034 3413 1625 3413 
Q 1888 3413 2178 3344 
Q 2469 3275 2778 3144 
L 2778 2419 
L 2447 2419 
Q 2434 2741 2221 2922 
Q 2009 3103 1644 3103 
Q 1281 3103 1095 2975 
Q 909 2847 909 2591 
Q 909 2381 1050 2254 
Q 1191 2128 1613 1997 
L 2069 1856 
Q 2541 1709 2748 1489 
Q 2956 1269 2956 922 
Q 2956 450 2595 179 
Q 2234 -91 1600 -91 
Q 1278 -91 972 -22 
Q 666 47 359 184 
z
" transform="scale(0.015625)"/>
       </defs>
       <use xlink:href="#DejaVuSerif-53"/>
       <use xlink:href="#DejaVuSerif-45" x="68.505859"/>
       <use xlink:href="#DejaVuSerif-2d" x="143.378906"/>
       <use xlink:href="#DejaVuSerif-43" x="177.167969"/>
       <use xlink:href="#DejaVuSerif-57" x="253.681641"/>
       <use xlink:href="#DejaVuSerif-20" x="356.464844"/>
       <use xlink:href="#DejaVuSerif-2d" x="388.251953"/>
       <use xlink:href="#DejaVuSerif-20" x="422.041016"/>
       <use xlink:href="#DejaVuSerif-34" x="453.828125"/>
       <use xlink:href="#DejaVuSerif-30" x="517.451172"/>
       <use xlink:href="#DejaVuSerif-34" x="581.074219"/>
       <use xlink:href="#DejaVuSerif-20" x="644.697266"/>
       <use xlink:href="#DejaVuSerif-2d" x="676.484375"/>
       <use xlink:href="#DejaVuSerif-20" x="710.273438"/>
       <use xlink:href="#DejaVuSerif-41" x="742.060547"/>
       <use xlink:href="#DejaVuSerif-75" x="814.277344"/>
       <use xlink:href="#DejaVuSerif-74" x="878.681641"/>
       <use xlink:href="#DejaVuSerif-6f" x="918.867188"/>
       <use xlink:href="#DejaVuSerif-70" x="979.072266"/>
       <use xlink:href="#DejaVuSerif-72" x="1043.085938"/>
       <use xlink:href="#DejaVuSerif-6f" x="1090.888672"/>
       <use xlink:href="#DejaVuSerif-64" x="1151.09375"/>
       <use xlink:href="#DejaVuSerif-75" x="1215.107422"/>
       <use xlink:href="#DejaVuSerif-74" x="1279.511719"/>
       <use xlink:href="#DejaVuSerif-6f" x="1319.697266"/>
       <use xlink:href="#DejaVuSerif-72" x="1379.902344"/>
       <use xlink:href="#DejaVuSerif-65" x="1427.705078"/>
       <use xlink:href="#DejaVuSerif-73" x="1486.884766"/>
       <use xlink:href="#DejaVuSerif-20" x="1538.203125"/>
       <use xlink:href="#DejaVuSerif-32" x="1569.990234"/>
       <use xlink:href="#DejaVuSerif-33" x="1633.613281"/>
       <use xlink:href="#DejaVuSerif-30" x="1697.236328"/>
       <use xlink:href="#DejaVuSerif-20" x="1760.859375"/>
       <use xlink:href="#DejaVuSerif-6b" x="1792.646484"/>
       <use xlink:href="#DejaVuSerif-56" x="1853.242188"/>
      </g>
     </g>
    </g>
    <g id="xtick_10">
     <g id="line2d_19">
      <path d="M 1269.959888 535.68 
L 1269.959888 69.12 
" clip-path="url(#p330c4f62f0)" style="fill: none; stroke: #ffffff; stroke-linecap: round"/>
     </g>
     <g id="line2d_20"/>
     <g id="text_10">
      <!-- North - 821 - 230 kV -->
      <g transform="translate(1151.391282 618.909728) rotate(-30) scale(0.13 -0.13)">
       <use xlink:href="#DejaVuSerif-4e"/>
       <use xlink:href="#DejaVuSerif-6f" x="87.5"/>
       <use xlink:href="#DejaVuSerif-72" x="147.705078"/>
       <use xlink:href="#DejaVuSerif-74" x="195.507812"/>
       <use xlink:href="#DejaVuSerif-68" x="235.693359"/>
       <use xlink:href="#DejaVuSerif-20" x="300.097656"/>
       <use xlink:href="#DejaVuSerif-2d" x="331.884766"/>
       <use xlink:href="#DejaVuSerif-20" x="365.673828"/>
       <use xlink:href="#DejaVuSerif-38" x="397.460938"/>
       <use xlink:href="#DejaVuSerif-32" x="461.083984"/>
       <use xlink:href="#DejaVuSerif-31" x="524.707031"/>
       <use xlink:href="#DejaVuSerif-20" x="588.330078"/>
       <use xlink:href="#DejaVuSerif-2d" x="620.117188"/>
       <use xlink:href="#DejaVuSerif-20" x="653.90625"/>
       <use xlink:href="#DejaVuSerif-32" x="685.693359"/>
       <use xlink:href="#DejaVuSerif-33" x="749.316406"/>
       <use xlink:href="#DejaVuSerif-30" x="812.939453"/>
       <use xlink:href="#DejaVuSerif-20" x="876.5625"/>
       <use xlink:href="#DejaVuSerif-6b" x="908.349609"/>
       <use xlink:href="#DejaVuSerif-56" x="968.945312"/>
      </g>
     </g>
    </g>
    <g id="text_11">
     <!-- Control Area -->
     <g transform="translate(686.187969 695.64775) scale(0.17 -0.17)">
      <defs>
       <path id="DejaVuSerif-6c" d="M 1313 331 
L 1856 331 
L 1856 0 
L 184 0 
L 184 331 
L 738 331 
L 738 4531 
L 184 4531 
L 184 4863 
L 1313 4863 
L 1313 331 
z
" transform="scale(0.015625)"/>
      </defs>
      <use xlink:href="#DejaVuSerif-43"/>
      <use xlink:href="#DejaVuSerif-6f" x="76.513672"/>
      <use xlink:href="#DejaVuSerif-6e" x="136.71875"/>
      <use xlink:href="#DejaVuSerif-74" x="201.123047"/>
      <use xlink:href="#DejaVuSerif-72" x="241.308594"/>
      <use xlink:href="#DejaVuSerif-6f" x="289.111328"/>
      <use xlink:href="#DejaVuSerif-6c" x="349.316406"/>
      <use xlink:href="#DejaVuSerif-20" x="381.298828"/>
      <use xlink:href="#DejaVuSerif-41" x="413.085938"/>
      <use xlink:href="#DejaVuSerif-72" x="485.302734"/>
      <use xlink:href="#DejaVuSerif-65" x="533.105469"/>
      <use xlink:href="#DejaVuSerif-61" x="592.285156"/>
     </g>
    </g>
   </g>
   <g id="matplotlib.axis_2">
    <g id="ytick_1">
     <g id="line2d_21">
      <path d="M 115.2 514.472727 
L 1368 514.472727 
" clip-path="url(#p330c4f62f0)" style="fill: none; stroke: #ffffff; stroke-linecap: round"/>
     </g>
     <g id="line2d_22"/>
     <g id="text_12">
      <!-- 0.0 -->
      <g transform="translate(79.574375 521.311321) scale(0.18 -0.18)">
       <defs>
        <path id="DejaVuSerif-2e" d="M 603 325 
Q 603 500 722 622 
Q 841 744 1019 744 
Q 1191 744 1312 622 
Q 1434 500 1434 325 
Q 1434 153 1312 31 
Q 1191 -91 1019 -91 
Q 841 -91 722 29 
Q 603 150 603 325 
z
" transform="scale(0.015625)"/>
       </defs>
       <use xlink:href="#DejaVuSerif-30"/>
       <use xlink:href="#DejaVuSerif-2e" x="63.623047"/>
       <use xlink:href="#DejaVuSerif-30" x="95.410156"/>
      </g>
     </g>
    </g>
    <g id="ytick_2">
     <g id="line2d_23">
      <path d="M 115.2 434.226466 
L 1368 434.226466 
" clip-path="url(#p330c4f62f0)" style="fill: none; stroke: #ffffff; stroke-linecap: round"/>
     </g>
     <g id="line2d_24"/>
     <g id="text_13">
      <!-- 0.5 -->
      <g transform="translate(79.574375 441.06506) scale(0.18 -0.18)">
       <use xlink:href="#DejaVuSerif-30"/>
       <use xlink:href="#DejaVuSerif-2e" x="63.623047"/>
       <use xlink:href="#DejaVuSerif-35" x="95.410156"/>
      </g>
     </g>
    </g>
    <g id="ytick_3">
     <g id="line2d_25">
      <path d="M 115.2 353.980206 
L 1368 353.980206 
" clip-path="url(#p330c4f62f0)" style="fill: none; stroke: #ffffff; stroke-linecap: round"/>
     </g>
     <g id="line2d_26"/>
     <g id="text_14">
      <!-- 1.0 -->
      <g transform="translate(79.574375 360.818799) scale(0.18 -0.18)">
       <use xlink:href="#DejaVuSerif-31"/>
       <use xlink:href="#DejaVuSerif-2e" x="63.623047"/>
       <use xlink:href="#DejaVuSerif-30" x="95.410156"/>
      </g>
     </g>
    </g>
    <g id="ytick_4">
     <g id="line2d_27">
      <path d="M 115.2 273.733945 
L 1368 273.733945 
" clip-path="url(#p330c4f62f0)" style="fill: none; stroke: #ffffff; stroke-linecap: round"/>
     </g>
     <g id="line2d_28"/>
     <g id="text_15">
      <!-- 1.5 -->
      <g transform="translate(79.574375 280.572538) scale(0.18 -0.18)">
       <use xlink:href="#DejaVuSerif-31"/>
       <use xlink:href="#DejaVuSerif-2e" x="63.623047"/>
       <use xlink:href="#DejaVuSerif-35" x="95.410156"/>
      </g>
     </g>
    </g>
    <g id="ytick_5">
     <g id="line2d_29">
      <path d="M 115.2 193.487684 
L 1368 193.487684 
" clip-path="url(#p330c4f62f0)" style="fill: none; stroke: #ffffff; stroke-linecap: round"/>
     </g>
     <g id="line2d_30"/>
     <g id="text_16">
      <!-- 2.0 -->
      <g transform="translate(79.574375 200.326278) scale(0.18 -0.18)">
       <use xlink:href="#DejaVuSerif-32"/>
       <use xlink:href="#DejaVuSerif-2e" x="63.623047"/>
       <use xlink:href="#DejaVuSerif-30" x="95.410156"/>
      </g>
     </g>
    </g>
    <g id="ytick_6">
     <g id="line2d_31">
      <path d="M 115.2 113.241423 
L 1368 113.241423 
" clip-path="url(#p330c4f62f0)" style="fill: none; stroke: #ffffff; stroke-linecap: round"/>
     </g>
     <g id="line2d_32"/>
     <g id="text_17">
      <!-- 2.5 -->
      <g transform="translate(79.574375 120.080017) scale(0.18 -0.18)">
       <use xlink:href="#DejaVuSerif-32"/>
       <use xlink:href="#DejaVuSerif-2e" x="63.623047"/>
       <use xlink:href="#DejaVuSerif-35" x="95.410156"/>
      </g>
     </g>
    </g>
    <g id="text_18">
     <!-- (p.u) -->
     <g transform="translate(72.038906 322.649922) rotate(-90) scale(0.17 -0.17)">
      <defs>
       <path id="DejaVuSerif-28" d="M 2041 -997 
Q 1281 -656 893 83 
Q 506 822 506 1931 
Q 506 3044 893 3783 
Q 1281 4522 2041 4863 
L 2041 4556 
Q 1559 4225 1350 3623 
Q 1141 3022 1141 1931 
Q 1141 844 1350 242 
Q 1559 -359 2041 -691 
L 2041 -997 
z
" transform="scale(0.015625)"/>
       <path id="DejaVuSerif-29" d="M 453 -997 
L 453 -691 
Q 934 -359 1145 242 
Q 1356 844 1356 1931 
Q 1356 3022 1145 3623 
Q 934 4225 453 4556 
L 453 4863 
Q 1216 4522 1603 3783 
Q 1991 3044 1991 1931 
Q 1991 822 1603 83 
Q 1216 -656 453 -997 
z
" transform="scale(0.015625)"/>
      </defs>
      <use xlink:href="#DejaVuSerif-28"/>
      <use xlink:href="#DejaVuSerif-70" x="39.013672"/>
      <use xlink:href="#DejaVuSerif-2e" x="103.027344"/>
      <use xlink:href="#DejaVuSerif-75" x="134.814453"/>
      <use xlink:href="#DejaVuSerif-29" x="199.21875"/>
     </g>
    </g>
   </g>
   <g id="PolyCollection_1">
    <defs>
     <path id="m9e4a5db323" d="M 213.240112 -208.981512 
L 213.240112 -206.400973 
L 330.653421 -211.801628 
L 448.066729 -219.823227 
L 565.480037 -203.868516 
L 682.893346 -213.682445 
L 800.306654 -214.530646 
L 917.719963 -202.290952 
L 1035.133271 -221.860372 
L 1035.133271 -222.019794 
L 1035.133271 -222.019794 
L 917.719963 -209.421741 
L 800.306654 -218.368156 
L 682.893346 -217.783246 
L 565.480037 -208.458391 
L 448.066729 -220.454855 
L 330.653421 -214.26856 
L 213.240112 -208.981512 
z
" style="stroke: #800080; stroke-opacity: 0.2; stroke-width: 0.5"/>
    </defs>
    <g clip-path="url(#p330c4f62f0)">
     <use xlink:href="#m9e4a5db323" x="0" y="576" style="fill: #800080; fill-opacity: 0.2; stroke: #800080; stroke-opacity: 0.2; stroke-width: 0.5"/>
    </g>
   </g>
   <g id="PolyCollection_2">
    <defs>
     <path id="m9feb7ee469" d="M 213.240112 -149.860498 
L 213.240112 -142.151341 
L 330.653421 -61.527273 
L 448.066729 -127.999596 
L 565.480037 -61.527273 
L 682.893346 -106.481017 
L 800.306654 -88.652769 
L 917.719963 -61.527273 
L 1035.133271 -61.527273 
L 1035.133271 -61.527273 
L 1035.133271 -61.527273 
L 917.719963 -61.527273 
L 800.306654 -107.48992 
L 682.893346 -114.595392 
L 565.480037 -61.527273 
L 448.066729 -128.310215 
L 330.653421 -61.527273 
L 213.240112 -149.860498 
z
" style="stroke: #228b22; stroke-opacity: 0.2; stroke-width: 0.5"/>
    </defs>
    <g clip-path="url(#p330c4f62f0)">
     <use xlink:href="#m9feb7ee469" x="0" y="576" style="fill: #228b22; fill-opacity: 0.2; stroke: #228b22; stroke-opacity: 0.2; stroke-width: 0.5"/>
    </g>
   </g>
   <g id="PolyCollection_3">
    <defs>
     <path id="m2e2720e0fd" d="M 213.240112 -73.387025 
L 213.240112 -67.742003 
L 330.653421 -61.527273 
L 448.066729 -61.527273 
L 565.480037 -65.67897 
L 682.893346 -67.403666 
L 800.306654 -100.574008 
L 917.719963 -61.527273 
L 1035.133271 -61.527273 
L 1035.133271 -61.527273 
L 1035.133271 -61.527273 
L 917.719963 -66.11124 
L 800.306654 -122.307646 
L 682.893346 -85.419075 
L 565.480037 -74.395035 
L 448.066729 -61.527273 
L 330.653421 -61.527273 
L 213.240112 -73.387025 
z
" style="stroke: #0000ff; stroke-opacity: 0.2; stroke-width: 0.5"/>
    </defs>
    <g clip-path="url(#p330c4f62f0)">
     <use xlink:href="#m2e2720e0fd" x="0" y="576" style="fill: #0000ff; fill-opacity: 0.2; stroke: #0000ff; stroke-opacity: 0.2; stroke-width: 0.5"/>
    </g>
   </g>
   <g id="PolyCollection_4">
    <defs>
     <path id="m5877698f2a" d="M 213.240112 -78.552823 
L 213.240112 -71.195091 
L 330.653421 -62.128763 
L 448.066729 -99.377996 
L 565.480037 -61.792422 
L 682.893346 -409.583424 
L 800.306654 -124.071636 
L 917.719963 -61.527273 
L 1035.133271 -61.527273 
L 1035.133271 -61.527273 
L 1035.133271 -61.527273 
L 917.719963 -74.499957 
L 800.306654 -152.508066 
L 682.893346 -485.672727 
L 565.480037 -63.971848 
L 448.066729 -104.84918 
L 330.653421 -63.258718 
L 213.240112 -78.552823 
z
" style="stroke: #87ceeb; stroke-opacity: 0.2; stroke-width: 0.5"/>
    </defs>
    <g clip-path="url(#p330c4f62f0)">
     <use xlink:href="#m5877698f2a" x="0" y="576" style="fill: #87ceeb; fill-opacity: 0.2; stroke: #87ceeb; stroke-opacity: 0.2; stroke-width: 0.5"/>
    </g>
   </g>
   <g id="line2d_33">
    <path d="M 213.240112 368.298026 
L 330.653421 362.950196 
L 448.066729 355.843861 
L 565.480037 369.867628 
L 682.893346 360.244791 
L 800.306654 359.468575 
L 917.719963 370.254461 
L 1035.133271 354.059917 
L 1152.546579 372.067713 
L 1269.959888 361.680839 
" clip-path="url(#p330c4f62f0)" style="fill: none; stroke: #800080; stroke-width: 2.5; stroke-linecap: round"/>
    <defs>
     <path id="m4017b90197" d="M 0 -6 
L -6 6 
L 6 6 
z
" style="stroke: #ffffff; stroke-width: 0.75; stroke-linejoin: miter"/>
    </defs>
    <g clip-path="url(#p330c4f62f0)">
     <use xlink:href="#m4017b90197" x="213.240112" y="368.298026" style="fill: #800080; stroke: #ffffff; stroke-width: 0.75; stroke-linejoin: miter"/>
     <use xlink:href="#m4017b90197" x="330.653421" y="362.950196" style="fill: #800080; stroke: #ffffff; stroke-width: 0.75; stroke-linejoin: miter"/>
     <use xlink:href="#m4017b90197" x="448.066729" y="355.843861" style="fill: #800080; stroke: #ffffff; stroke-width: 0.75; stroke-linejoin: miter"/>
     <use xlink:href="#m4017b90197" x="565.480037" y="369.867628" style="fill: #800080; stroke: #ffffff; stroke-width: 0.75; stroke-linejoin: miter"/>
     <use xlink:href="#m4017b90197" x="682.893346" y="360.244791" style="fill: #800080; stroke: #ffffff; stroke-width: 0.75; stroke-linejoin: miter"/>
     <use xlink:href="#m4017b90197" x="800.306654" y="359.468575" style="fill: #800080; stroke: #ffffff; stroke-width: 0.75; stroke-linejoin: miter"/>
     <use xlink:href="#m4017b90197" x="917.719963" y="370.254461" style="fill: #800080; stroke: #ffffff; stroke-width: 0.75; stroke-linejoin: miter"/>
     <use xlink:href="#m4017b90197" x="1035.133271" y="354.059917" style="fill: #800080; stroke: #ffffff; stroke-width: 0.75; stroke-linejoin: miter"/>
     <use xlink:href="#m4017b90197" x="1152.546579" y="372.067713" style="fill: #800080; stroke: #ffffff; stroke-width: 0.75; stroke-linejoin: miter"/>
     <use xlink:href="#m4017b90197" x="1269.959888" y="361.680839" style="fill: #800080; stroke: #ffffff; stroke-width: 0.75; stroke-linejoin: miter"/>
    </g>
   </g>
   <g id="line2d_34">
    <path d="M 213.240112 430.070587 
L 330.653421 514.472727 
L 448.066729 447.876156 
L 565.480037 514.472727 
L 682.893346 465.579649 
L 800.306654 478.305398 
L 917.719963 514.472727 
L 1035.133271 514.472727 
L 1152.546579 514.472727 
L 1269.959888 514.472727 
" clip-path="url(#p330c4f62f0)" style="fill: none; stroke-dasharray: 10,3.75; stroke-dashoffset: 0; stroke: #228b22; stroke-width: 2.5"/>
    <defs>
     <path id="m909a76e649" d="M 0 -6 
L -6 6 
L 6 6 
z
" style="stroke: #ffffff; stroke-width: 0.75; stroke-linejoin: miter"/>
    </defs>
    <g clip-path="url(#p330c4f62f0)">
     <use xlink:href="#m909a76e649" x="213.240112" y="430.070587" style="fill: #228b22; stroke: #ffffff; stroke-width: 0.75; stroke-linejoin: miter"/>
     <use xlink:href="#m909a76e649" x="330.653421" y="514.472727" style="fill: #228b22; stroke: #ffffff; stroke-width: 0.75; stroke-linejoin: miter"/>
     <use xlink:href="#m909a76e649" x="448.066729" y="447.876156" style="fill: #228b22; stroke: #ffffff; stroke-width: 0.75; stroke-linejoin: miter"/>
     <use xlink:href="#m909a76e649" x="565.480037" y="514.472727" style="fill: #228b22; stroke: #ffffff; stroke-width: 0.75; stroke-linejoin: miter"/>
     <use xlink:href="#m909a76e649" x="682.893346" y="465.579649" style="fill: #228b22; stroke: #ffffff; stroke-width: 0.75; stroke-linejoin: miter"/>
     <use xlink:href="#m909a76e649" x="800.306654" y="478.305398" style="fill: #228b22; stroke: #ffffff; stroke-width: 0.75; stroke-linejoin: miter"/>
     <use xlink:href="#m909a76e649" x="917.719963" y="514.472727" style="fill: #228b22; stroke: #ffffff; stroke-width: 0.75; stroke-linejoin: miter"/>
     <use xlink:href="#m909a76e649" x="1035.133271" y="514.472727" style="fill: #228b22; stroke: #ffffff; stroke-width: 0.75; stroke-linejoin: miter"/>
     <use xlink:href="#m909a76e649" x="1152.546579" y="514.472727" style="fill: #228b22; stroke: #ffffff; stroke-width: 0.75; stroke-linejoin: miter"/>
     <use xlink:href="#m909a76e649" x="1269.959888" y="514.472727" style="fill: #228b22; stroke: #ffffff; stroke-width: 0.75; stroke-linejoin: miter"/>
    </g>
   </g>
   <g id="line2d_35">
    <path d="M 213.240112 505.696615 
L 330.653421 514.472727 
L 448.066729 514.472727 
L 565.480037 506.33746 
L 682.893346 500.835504 
L 800.306654 464.666623 
L 917.719963 512.826676 
L 1035.133271 514.472727 
L 1152.546579 323.266253 
L 1269.959888 514.472727 
" clip-path="url(#p330c4f62f0)" style="fill: none; stroke-dasharray: 2.5,2.5; stroke-dashoffset: 0; stroke: #0000ff; stroke-width: 2.5"/>
    <defs>
     <path id="mc9e3d1d483" d="M 0 6 
C 1.591219 6 3.117479 5.367802 4.242641 4.242641 
C 5.367802 3.117479 6 1.591219 6 0 
C 6 -1.591219 5.367802 -3.117479 4.242641 -4.242641 
C 3.117479 -5.367802 1.591219 -6 0 -6 
C -1.591219 -6 -3.117479 -5.367802 -4.242641 -4.242641 
C -5.367802 -3.117479 -6 -1.591219 -6 0 
C -6 1.591219 -5.367802 3.117479 -4.242641 4.242641 
C -3.117479 5.367802 -1.591219 6 0 6 
z
" style="stroke: #ffffff; stroke-width: 0.75"/>
    </defs>
    <g clip-path="url(#p330c4f62f0)">
     <use xlink:href="#mc9e3d1d483" x="213.240112" y="505.696615" style="fill: #0000ff; stroke: #ffffff; stroke-width: 0.75"/>
     <use xlink:href="#mc9e3d1d483" x="330.653421" y="514.472727" style="fill: #0000ff; stroke: #ffffff; stroke-width: 0.75"/>
     <use xlink:href="#mc9e3d1d483" x="448.066729" y="514.472727" style="fill: #0000ff; stroke: #ffffff; stroke-width: 0.75"/>
     <use xlink:href="#mc9e3d1d483" x="565.480037" y="506.33746" style="fill: #0000ff; stroke: #ffffff; stroke-width: 0.75"/>
     <use xlink:href="#mc9e3d1d483" x="682.893346" y="500.835504" style="fill: #0000ff; stroke: #ffffff; stroke-width: 0.75"/>
     <use xlink:href="#mc9e3d1d483" x="800.306654" y="464.666623" style="fill: #0000ff; stroke: #ffffff; stroke-width: 0.75"/>
     <use xlink:href="#mc9e3d1d483" x="917.719963" y="512.826676" style="fill: #0000ff; stroke: #ffffff; stroke-width: 0.75"/>
     <use xlink:href="#mc9e3d1d483" x="1035.133271" y="514.472727" style="fill: #0000ff; stroke: #ffffff; stroke-width: 0.75"/>
     <use xlink:href="#mc9e3d1d483" x="1152.546579" y="323.266253" style="fill: #0000ff; stroke: #ffffff; stroke-width: 0.75"/>
     <use xlink:href="#mc9e3d1d483" x="1269.959888" y="514.472727" style="fill: #0000ff; stroke: #ffffff; stroke-width: 0.75"/>
    </g>
   </g>
   <g id="line2d_36">
    <path d="M 213.240112 501.468315 
L 330.653421 513.371172 
L 448.066729 473.821143 
L 565.480037 513.282824 
L 682.893346 129.175035 
L 800.306654 437.268293 
L 917.719963 509.311722 
L 1035.133271 514.472727 
L 1152.546579 514.472727 
L 1269.959888 287.818839 
" clip-path="url(#p330c4f62f0)" style="fill: none; stroke-dasharray: 7.5,3.125,3.75,3.125; stroke-dashoffset: 0; stroke: #87ceeb; stroke-width: 2.5"/>
    <defs>
     <path id="m9440bf984b" d="M 0 6 
C 1.591219 6 3.117479 5.367802 4.242641 4.242641 
C 5.367802 3.117479 6 1.591219 6 0 
C 6 -1.591219 5.367802 -3.117479 4.242641 -4.242641 
C 3.117479 -5.367802 1.591219 -6 0 -6 
C -1.591219 -6 -3.117479 -5.367802 -4.242641 -4.242641 
C -5.367802 -3.117479 -6 -1.591219 -6 0 
C -6 1.591219 -5.367802 3.117479 -4.242641 4.242641 
C -3.117479 5.367802 -1.591219 6 0 6 
z
" style="stroke: #ffffff; stroke-width: 0.75"/>
    </defs>
    <g clip-path="url(#p330c4f62f0)">
     <use xlink:href="#m9440bf984b" x="213.240112" y="501.468315" style="fill: #87ceeb; stroke: #ffffff; stroke-width: 0.75"/>
     <use xlink:href="#m9440bf984b" x="330.653421" y="513.371172" style="fill: #87ceeb; stroke: #ffffff; stroke-width: 0.75"/>
     <use xlink:href="#m9440bf984b" x="448.066729" y="473.821143" style="fill: #87ceeb; stroke: #ffffff; stroke-width: 0.75"/>
     <use xlink:href="#m9440bf984b" x="565.480037" y="513.282824" style="fill: #87ceeb; stroke: #ffffff; stroke-width: 0.75"/>
     <use xlink:href="#m9440bf984b" x="682.893346" y="129.175035" style="fill: #87ceeb; stroke: #ffffff; stroke-width: 0.75"/>
     <use xlink:href="#m9440bf984b" x="800.306654" y="437.268293" style="fill: #87ceeb; stroke: #ffffff; stroke-width: 0.75"/>
     <use xlink:href="#m9440bf984b" x="917.719963" y="509.311722" style="fill: #87ceeb; stroke: #ffffff; stroke-width: 0.75"/>
     <use xlink:href="#m9440bf984b" x="1035.133271" y="514.472727" style="fill: #87ceeb; stroke: #ffffff; stroke-width: 0.75"/>
     <use xlink:href="#m9440bf984b" x="1152.546579" y="514.472727" style="fill: #87ceeb; stroke: #ffffff; stroke-width: 0.75"/>
     <use xlink:href="#m9440bf984b" x="1269.959888" y="287.818839" style="fill: #87ceeb; stroke: #ffffff; stroke-width: 0.75"/>
    </g>
   </g>
   <g id="line2d_37"/>
   <g id="line2d_38"/>
   <g id="line2d_39"/>
   <g id="line2d_40"/>
   <g id="patch_3">
    <path d="M 115.2 535.68 
L 115.2 69.12 
" style="fill: none; stroke: #000000; stroke-width: 1.2; stroke-linejoin: miter; stroke-linecap: square"/>
   </g>
   <g id="patch_4">
    <path d="M 1368 535.68 
L 1368 69.12 
" style="fill: none; stroke: #000000; stroke-width: 1.2; stroke-linejoin: miter; stroke-linecap: square"/>
   </g>
   <g id="patch_5">
    <path d="M 115.2 535.68 
L 1368 535.68 
" style="fill: none; stroke: #000000; stroke-width: 1.2; stroke-linejoin: miter; stroke-linecap: square"/>
   </g>
   <g id="patch_6">
    <path d="M 115.2 69.12 
L 1368 69.12 
" style="fill: none; stroke: #000000; stroke-width: 1.2; stroke-linejoin: miter; stroke-linecap: square"/>
   </g>
   <g id="text_19">
    <!-- Highest average index for each control area (PV Buses) - SE-CW- RPI_cap_PV -->
    <g style="fill: #262626" transform="translate(505.420313 63.12) scale(0.12 -0.12)">
     <defs>
      <path id="DejaVuSerif-48" d="M 353 0 
L 353 331 
L 947 331 
L 947 4331 
L 353 4331 
L 353 4666 
L 2175 4666 
L 2175 4331 
L 1581 4331 
L 1581 2719 
L 4000 2719 
L 4000 4331 
L 3406 4331 
L 3406 4666 
L 5228 4666 
L 5228 4331 
L 4634 4331 
L 4634 331 
L 5228 331 
L 5228 0 
L 3406 0 
L 3406 331 
L 4000 331 
L 4000 2338 
L 1581 2338 
L 1581 331 
L 2175 331 
L 2175 0 
L 353 0 
z
" transform="scale(0.015625)"/>
      <path id="DejaVuSerif-67" d="M 3359 2988 
L 3359 72 
Q 3359 -644 2965 -1033 
Q 2572 -1422 1844 -1422 
Q 1516 -1422 1216 -1362 
Q 916 -1303 641 -1184 
L 641 -488 
L 941 -488 
Q 997 -813 1206 -963 
Q 1416 -1113 1806 -1113 
Q 2313 -1113 2548 -827 
Q 2784 -541 2784 72 
L 2784 519 
Q 2616 206 2355 57 
Q 2094 -91 1709 -91 
Q 1097 -91 708 395 
Q 319 881 319 1663 
Q 319 2444 706 2928 
Q 1094 3413 1709 3413 
Q 2094 3413 2355 3264 
Q 2616 3116 2784 2803 
L 2784 3322 
L 3909 3322 
L 3909 2988 
L 3359 2988 
z
M 2784 1825 
Q 2784 2422 2554 2737 
Q 2325 3053 1888 3053 
Q 1444 3053 1217 2703 
Q 991 2353 991 1663 
Q 991 975 1217 622 
Q 1444 269 1888 269 
Q 2325 269 2554 583 
Q 2784 897 2784 1497 
L 2784 1825 
z
" transform="scale(0.015625)"/>
      <path id="DejaVuSerif-76" d="M 1581 0 
L 359 2988 
L -19 2988 
L -19 3322 
L 1509 3322 
L 1509 2988 
L 978 2988 
L 1913 703 
L 2847 2988 
L 2350 2988 
L 2350 3322 
L 3597 3322 
L 3597 2988 
L 3225 2988 
L 2003 0 
L 1581 0 
z
" transform="scale(0.015625)"/>
      <path id="DejaVuSerif-78" d="M 1863 2028 
L 2559 2988 
L 2113 2988 
L 2113 3322 
L 3391 3322 
L 3391 2988 
L 2950 2988 
L 2059 1759 
L 3097 331 
L 3531 331 
L 3531 0 
L 1997 0 
L 1997 331 
L 2419 331 
L 1697 1325 
L 972 331 
L 1403 331 
L 1403 0 
L 141 0 
L 141 331 
L 581 331 
L 1497 1594 
L 488 2988 
L 78 2988 
L 78 3322 
L 1563 3322 
L 1563 2988 
L 1166 2988 
L 1863 2028 
z
" transform="scale(0.015625)"/>
      <path id="DejaVuSerif-66" d="M 2753 4078 
L 2450 4078 
Q 2447 4313 2317 4434 
Q 2188 4556 1941 4556 
Q 1619 4556 1487 4379 
Q 1356 4203 1356 3750 
L 1356 3322 
L 2284 3322 
L 2284 2988 
L 1356 2988 
L 1356 331 
L 2094 331 
L 2094 0 
L 231 0 
L 231 331 
L 781 331 
L 781 2988 
L 231 2988 
L 231 3322 
L 781 3322 
L 781 3738 
Q 781 4294 1070 4578 
Q 1359 4863 1919 4863 
Q 2128 4863 2337 4825 
Q 2547 4788 2753 4709 
L 2753 4078 
z
" transform="scale(0.015625)"/>
      <path id="DejaVuSerif-63" d="M 3291 997 
Q 3169 466 2822 187 
Q 2475 -91 1925 -91 
Q 1200 -91 759 389 
Q 319 869 319 1663 
Q 319 2459 759 2936 
Q 1200 3413 1925 3413 
Q 2241 3413 2553 3339 
Q 2866 3266 3181 3116 
L 3181 2266 
L 2847 2266 
Q 2781 2703 2561 2903 
Q 2341 3103 1931 3103 
Q 1466 3103 1228 2742 
Q 991 2381 991 1663 
Q 991 944 1227 581 
Q 1463 219 1931 219 
Q 2303 219 2525 412 
Q 2747 606 2828 997 
L 3291 997 
z
" transform="scale(0.015625)"/>
      <path id="DejaVuSerif-50" d="M 1581 2375 
L 2406 2375 
Q 2872 2375 3115 2626 
Q 3359 2878 3359 3353 
Q 3359 3831 3115 4081 
Q 2872 4331 2406 4331 
L 1581 4331 
L 1581 2375 
z
M 353 0 
L 353 331 
L 947 331 
L 947 4331 
L 353 4331 
L 353 4666 
L 2559 4666 
Q 3259 4666 3668 4311 
Q 4078 3956 4078 3353 
Q 4078 2753 3668 2397 
Q 3259 2041 2559 2041 
L 1581 2041 
L 1581 331 
L 2303 331 
L 2303 0 
L 353 0 
z
" transform="scale(0.015625)"/>
      <path id="DejaVuSerif-42" d="M 1581 331 
L 2516 331 
Q 3078 331 3337 575 
Q 3597 819 3597 1350 
Q 3597 1878 3339 2120 
Q 3081 2363 2516 2363 
L 1581 2363 
L 1581 331 
z
M 1581 2694 
L 2375 2694 
Q 2888 2694 3123 2891 
Q 3359 3088 3359 3513 
Q 3359 3941 3123 4136 
Q 2888 4331 2375 4331 
L 1581 4331 
L 1581 2694 
z
M 353 0 
L 353 331 
L 947 331 
L 947 4331 
L 353 4331 
L 353 4666 
L 2656 4666 
Q 3363 4666 3720 4377 
Q 4078 4088 4078 3513 
Q 4078 3097 3829 2850 
Q 3581 2603 3103 2547 
Q 3697 2472 4005 2167 
Q 4313 1863 4313 1350 
Q 4313 656 3875 328 
Q 3438 0 2509 0 
L 353 0 
z
" transform="scale(0.015625)"/>
      <path id="DejaVuSerif-52" d="M 3066 2316 
Q 3284 2256 3442 2114 
Q 3600 1972 3725 1716 
L 4403 331 
L 4972 331 
L 4972 0 
L 3872 0 
L 3144 1484 
Q 2934 1916 2759 2042 
Q 2584 2169 2278 2169 
L 1581 2169 
L 1581 331 
L 2241 331 
L 2241 0 
L 353 0 
L 353 331 
L 947 331 
L 947 4331 
L 353 4331 
L 353 4666 
L 2719 4666 
Q 3400 4666 3770 4341 
Q 4141 4016 4141 3419 
Q 4141 2938 3870 2661 
Q 3600 2384 3066 2316 
z
M 1581 2503 
L 2503 2503 
Q 2975 2503 3200 2726 
Q 3425 2950 3425 3419 
Q 3425 3888 3200 4109 
Q 2975 4331 2503 4331 
L 1581 4331 
L 1581 2503 
z
" transform="scale(0.015625)"/>
      <path id="DejaVuSerif-5f" d="M 3200 -1259 
L 3200 -1509 
L 0 -1509 
L 0 -1259 
L 3200 -1259 
z
" transform="scale(0.015625)"/>
     </defs>
     <use xlink:href="#DejaVuSerif-48"/>
     <use xlink:href="#DejaVuSerif-69" x="87.207031"/>
     <use xlink:href="#DejaVuSerif-67" x="119.189453"/>
     <use xlink:href="#DejaVuSerif-68" x="183.203125"/>
     <use xlink:href="#DejaVuSerif-65" x="247.607422"/>
     <use xlink:href="#DejaVuSerif-73" x="306.787109"/>
     <use xlink:href="#DejaVuSerif-74" x="358.105469"/>
     <use xlink:href="#DejaVuSerif-20" x="398.291016"/>
     <use xlink:href="#DejaVuSerif-61" x="430.078125"/>
     <use xlink:href="#DejaVuSerif-76" x="489.697266"/>
     <use xlink:href="#DejaVuSerif-65" x="546.191406"/>
     <use xlink:href="#DejaVuSerif-72" x="605.371094"/>
     <use xlink:href="#DejaVuSerif-61" x="653.173828"/>
     <use xlink:href="#DejaVuSerif-67" x="712.792969"/>
     <use xlink:href="#DejaVuSerif-65" x="776.806641"/>
     <use xlink:href="#DejaVuSerif-20" x="835.986328"/>
     <use xlink:href="#DejaVuSerif-69" x="867.773438"/>
     <use xlink:href="#DejaVuSerif-6e" x="899.755859"/>
     <use xlink:href="#DejaVuSerif-64" x="964.160156"/>
     <use xlink:href="#DejaVuSerif-65" x="1028.173828"/>
     <use xlink:href="#DejaVuSerif-78" x="1087.353516"/>
     <use xlink:href="#DejaVuSerif-20" x="1143.75"/>
     <use xlink:href="#DejaVuSerif-66" x="1175.537109"/>
     <use xlink:href="#DejaVuSerif-6f" x="1212.548828"/>
     <use xlink:href="#DejaVuSerif-72" x="1272.753906"/>
     <use xlink:href="#DejaVuSerif-20" x="1320.556641"/>
     <use xlink:href="#DejaVuSerif-65" x="1352.34375"/>
     <use xlink:href="#DejaVuSerif-61" x="1411.523438"/>
     <use xlink:href="#DejaVuSerif-63" x="1471.142578"/>
     <use xlink:href="#DejaVuSerif-68" x="1527.148438"/>
     <use xlink:href="#DejaVuSerif-20" x="1591.552734"/>
     <use xlink:href="#DejaVuSerif-63" x="1623.339844"/>
     <use xlink:href="#DejaVuSerif-6f" x="1679.345703"/>
     <use xlink:href="#DejaVuSerif-6e" x="1739.550781"/>
     <use xlink:href="#DejaVuSerif-74" x="1803.955078"/>
     <use xlink:href="#DejaVuSerif-72" x="1844.140625"/>
     <use xlink:href="#DejaVuSerif-6f" x="1891.943359"/>
     <use xlink:href="#DejaVuSerif-6c" x="1952.148438"/>
     <use xlink:href="#DejaVuSerif-20" x="1984.130859"/>
     <use xlink:href="#DejaVuSerif-61" x="2015.917969"/>
     <use xlink:href="#DejaVuSerif-72" x="2075.537109"/>
     <use xlink:href="#DejaVuSerif-65" x="2123.339844"/>
     <use xlink:href="#DejaVuSerif-61" x="2182.519531"/>
     <use xlink:href="#DejaVuSerif-20" x="2242.138672"/>
     <use xlink:href="#DejaVuSerif-28" x="2273.925781"/>
     <use xlink:href="#DejaVuSerif-50" x="2312.939453"/>
     <use xlink:href="#DejaVuSerif-56" x="2380.224609"/>
     <use xlink:href="#DejaVuSerif-20" x="2452.441406"/>
     <use xlink:href="#DejaVuSerif-42" x="2484.228516"/>
     <use xlink:href="#DejaVuSerif-75" x="2557.714844"/>
     <use xlink:href="#DejaVuSerif-73" x="2622.119141"/>
     <use xlink:href="#DejaVuSerif-65" x="2673.4375"/>
     <use xlink:href="#DejaVuSerif-73" x="2732.617188"/>
     <use xlink:href="#DejaVuSerif-29" x="2783.935547"/>
     <use xlink:href="#DejaVuSerif-20" x="2822.949219"/>
     <use xlink:href="#DejaVuSerif-2d" x="2854.736328"/>
     <use xlink:href="#DejaVuSerif-20" x="2888.525391"/>
     <use xlink:href="#DejaVuSerif-53" x="2920.3125"/>
     <use xlink:href="#DejaVuSerif-45" x="2988.818359"/>
     <use xlink:href="#DejaVuSerif-2d" x="3063.691406"/>
     <use xlink:href="#DejaVuSerif-43" x="3097.480469"/>
     <use xlink:href="#DejaVuSerif-57" x="3173.994141"/>
     <use xlink:href="#DejaVuSerif-2d" x="3269.527344"/>
     <use xlink:href="#DejaVuSerif-20" x="3303.316406"/>
     <use xlink:href="#DejaVuSerif-52" x="3335.103516"/>
     <use xlink:href="#DejaVuSerif-50" x="3410.396484"/>
     <use xlink:href="#DejaVuSerif-49" x="3477.681641"/>
     <use xlink:href="#DejaVuSerif-5f" x="3517.183594"/>
     <use xlink:href="#DejaVuSerif-63" x="3567.183594"/>
     <use xlink:href="#DejaVuSerif-61" x="3623.189453"/>
     <use xlink:href="#DejaVuSerif-70" x="3682.808594"/>
     <use xlink:href="#DejaVuSerif-5f" x="3746.822266"/>
     <use xlink:href="#DejaVuSerif-50" x="3796.822266"/>
     <use xlink:href="#DejaVuSerif-56" x="3864.107422"/>
    </g>
   </g>
   <g id="legend_1">
    <g id="text_20">
     <!-- INDICES -->
     <g style="fill: #262626" transform="translate(1527.945625 90.218437) scale(0.1 -0.1)">
      <defs>
       <path id="DejaVuSerif-44" d="M 1581 331 
L 2163 331 
Q 3072 331 3558 850 
Q 4044 1369 4044 2338 
Q 4044 3306 3559 3818 
Q 3075 4331 2163 4331 
L 1581 4331 
L 1581 331 
z
M 353 0 
L 353 331 
L 947 331 
L 947 4331 
L 353 4331 
L 353 4666 
L 2209 4666 
Q 3416 4666 4089 4050 
Q 4763 3434 4763 2338 
Q 4763 1238 4088 619 
Q 3413 0 2209 0 
L 353 0 
z
" transform="scale(0.015625)"/>
      </defs>
      <use xlink:href="#DejaVuSerif-49"/>
      <use xlink:href="#DejaVuSerif-4e" x="39.501953"/>
      <use xlink:href="#DejaVuSerif-44" x="127.001953"/>
      <use xlink:href="#DejaVuSerif-49" x="207.177734"/>
      <use xlink:href="#DejaVuSerif-43" x="246.679688"/>
      <use xlink:href="#DejaVuSerif-45" x="323.193359"/>
      <use xlink:href="#DejaVuSerif-53" x="396.191406"/>
     </g>
    </g>
    <g id="line2d_41">
     <defs>
      <path id="m35c27b8365" d="M 0 -6 
L -6 6 
L 6 6 
z
"/>
     </defs>
     <g>
      <use xlink:href="#m35c27b8365" x="1521.78" y="108.048125" style="fill: #800080"/>
     </g>
    </g>
    <g id="text_21">
     <!-- $\mathrm{RPI}_{PV}^\mathrm{cap}$ -->
     <g style="fill: #262626" transform="translate(1548.78 113.298125) scale(0.15 -0.15)">
      <defs>
       <path id="DejaVuSerif-Italic-50" d="M 1594 2375 
L 2419 2375 
Q 2884 2375 3176 2626 
Q 3469 2878 3559 3353 
Q 3653 3831 3458 4081 
Q 3263 4331 2797 4331 
L 1972 4331 
L 1594 2375 
z
M -97 0 
L -34 331 
L 559 331 
L 1338 4331 
L 744 4331 
L 809 4666 
L 3016 4666 
Q 3716 4666 4056 4311 
Q 4397 3956 4278 3353 
Q 4163 2753 3684 2397 
Q 3206 2041 2506 2041 
L 1528 2041 
L 1194 331 
L 1916 331 
L 1853 0 
L -97 0 
z
" transform="scale(0.015625)"/>
       <path id="DejaVuSerif-Italic-56" d="M 1506 4331 
L 2191 750 
L 4259 4331 
L 3734 4331 
L 3800 4666 
L 5169 4666 
L 5103 4331 
L 4650 4331 
L 2144 0 
L 1606 0 
L 791 4331 
L 325 4331 
L 391 4666 
L 2091 4666 
L 2025 4331 
L 1506 4331 
z
" transform="scale(0.015625)"/>
      </defs>
      <use xlink:href="#DejaVuSerif-52" transform="translate(0 0.53125)"/>
      <use xlink:href="#DejaVuSerif-50" transform="translate(75.292969 0.53125)"/>
      <use xlink:href="#DejaVuSerif-49" transform="translate(142.578125 0.53125)"/>
      <use xlink:href="#DejaVuSerif-63" transform="translate(182.988438 52.670313) scale(0.7)"/>
      <use xlink:href="#DejaVuSerif-61" transform="translate(222.192539 52.670313) scale(0.7)"/>
      <use xlink:href="#DejaVuSerif-70" transform="translate(263.925937 52.670313) scale(0.7)"/>
      <use xlink:href="#DejaVuSerif-Italic-50" transform="translate(182.988438 -25.421875) scale(0.7)"/>
      <use xlink:href="#DejaVuSerif-Italic-56" transform="translate(230.088047 -25.421875) scale(0.7)"/>
     </g>
    </g>
    <g id="line2d_42">
     <defs>
      <path id="m309e09993d" d="M 0 -6 
L -6 6 
L 6 6 
z
"/>
     </defs>
     <g>
      <use xlink:href="#m309e09993d" x="1521.78" y="133.098125" style="fill: #228b22"/>
     </g>
    </g>
    <g id="text_22">
     <!-- $\mathrm{RPI}_{PQ}^\mathrm{cap}$ -->
     <g style="fill: #262626" transform="translate(1548.78 138.348125) scale(0.15 -0.15)">
      <defs>
       <path id="DejaVuSerif-Italic-51" d="M 2322 -91 
Q 1250 -91 741 569 
Q 388 1028 388 1713 
Q 388 2000 450 2328 
Q 559 2894 817 3339 
Q 1075 3784 1491 4134 
Q 1856 4441 2281 4595 
Q 2706 4750 3188 4750 
Q 4203 4750 4697 4084 
Q 5044 3619 5044 2944 
Q 5044 2656 4981 2328 
Q 4800 1403 4209 773 
Q 3619 144 2759 -38 
Q 2888 -247 3109 -347 
Q 3331 -447 3672 -447 
L 4453 -447 
L 4341 -1025 
L 3975 -1025 
Q 3147 -1025 2803 -769 
Q 2466 -513 2322 -91 
z
M 2309 244 
Q 3075 244 3569 770 
Q 4063 1297 4263 2328 
Q 4344 2753 4344 3094 
Q 4344 3578 4175 3888 
Q 3888 4416 3122 4416 
Q 2353 4416 1859 3889 
Q 1366 3363 1166 2328 
Q 1084 1906 1084 1566 
Q 1084 1081 1253 769 
Q 1541 244 2309 244 
z
" transform="scale(0.015625)"/>
      </defs>
      <use xlink:href="#DejaVuSerif-52" transform="translate(0 0.6125)"/>
      <use xlink:href="#DejaVuSerif-50" transform="translate(75.292969 0.6125)"/>
      <use xlink:href="#DejaVuSerif-49" transform="translate(142.578125 0.6125)"/>
      <use xlink:href="#DejaVuSerif-63" transform="translate(182.988438 53.670313) scale(0.7)"/>
      <use xlink:href="#DejaVuSerif-61" transform="translate(222.192539 53.670313) scale(0.7)"/>
      <use xlink:href="#DejaVuSerif-70" transform="translate(263.925937 53.670313) scale(0.7)"/>
      <use xlink:href="#DejaVuSerif-Italic-50" transform="translate(182.988438 -25.340625) scale(0.7)"/>
      <use xlink:href="#DejaVuSerif-Italic-51" transform="translate(230.088047 -25.340625) scale(0.7)"/>
     </g>
    </g>
    <g id="line2d_43">
     <defs>
      <path id="md30fb78341" d="M 0 6 
C 1.591219 6 3.117479 5.367802 4.242641 4.242641 
C 5.367802 3.117479 6 1.591219 6 0 
C 6 -1.591219 5.367802 -3.117479 4.242641 -4.242641 
C 3.117479 -5.367802 1.591219 -6 0 -6 
C -1.591219 -6 -3.117479 -5.367802 -4.242641 -4.242641 
C -5.367802 -3.117479 -6 -1.591219 -6 0 
C -6 1.591219 -5.367802 3.117479 -4.242641 4.242641 
C -3.117479 5.367802 -1.591219 6 0 6 
z
"/>
     </defs>
     <g>
      <use xlink:href="#md30fb78341" x="1521.78" y="159.948125" style="fill: #0000ff"/>
     </g>
    </g>
    <g id="text_23">
     <!-- $\mathrm{VPI}_{PV}^\mathrm{l}$ -->
     <g style="fill: #262626" transform="translate(1548.78 165.198125) scale(0.15 -0.15)">
      <use xlink:href="#DejaVuSerif-56" transform="translate(0 0.229687)"/>
      <use xlink:href="#DejaVuSerif-50" transform="translate(72.216797 0.229687)"/>
      <use xlink:href="#DejaVuSerif-49" transform="translate(139.501953 0.229687)"/>
      <use xlink:href="#DejaVuSerif-6c" transform="translate(179.912266 37.810938) scale(0.7)"/>
      <use xlink:href="#DejaVuSerif-Italic-50" transform="translate(179.912266 -25.723437) scale(0.7)"/>
      <use xlink:href="#DejaVuSerif-Italic-56" transform="translate(227.011875 -25.723437) scale(0.7)"/>
     </g>
    </g>
    <g id="line2d_44">
     <defs>
      <path id="mf8aca89957" d="M 0 6 
C 1.591219 6 3.117479 5.367802 4.242641 4.242641 
C 5.367802 3.117479 6 1.591219 6 0 
C 6 -1.591219 5.367802 -3.117479 4.242641 -4.242641 
C 3.117479 -5.367802 1.591219 -6 0 -6 
C -1.591219 -6 -3.117479 -5.367802 -4.242641 -4.242641 
C -5.367802 -3.117479 -6 -1.591219 -6 0 
C -6 1.591219 -5.367802 3.117479 -4.242641 4.242641 
C -3.117479 5.367802 -1.591219 6 0 6 
z
"/>
     </defs>
     <g>
      <use xlink:href="#mf8aca89957" x="1521.78" y="185.148125" style="fill: #87ceeb"/>
     </g>
    </g>
    <g id="text_24">
     <!-- $\mathrm{VPI}_{PQ}^\mathrm{l}$ -->
     <g style="fill: #262626" transform="translate(1548.78 190.398125) scale(0.15 -0.15)">
      <use xlink:href="#DejaVuSerif-56" transform="translate(0 0.310937)"/>
      <use xlink:href="#DejaVuSerif-50" transform="translate(72.216797 0.310937)"/>
      <use xlink:href="#DejaVuSerif-49" transform="translate(139.501953 0.310937)"/>
      <use xlink:href="#DejaVuSerif-6c" transform="translate(179.912266 38.810938) scale(0.7)"/>
      <use xlink:href="#DejaVuSerif-Italic-50" transform="translate(179.912266 -25.642188) scale(0.7)"/>
      <use xlink:href="#DejaVuSerif-Italic-51" transform="translate(227.011875 -25.642188) scale(0.7)"/>
     </g>
    </g>
   </g>
  </g>
  <g id="axes_2">
   <g id="matplotlib.axis_3">
    <g id="ytick_7">
     <g id="line2d_45"/>
     <g id="text_25">
      <!-- 0 -->
      <g transform="translate(1375 542.518594) scale(0.18 -0.18)">
       <use xlink:href="#DejaVuSerif-30"/>
      </g>
     </g>
    </g>
    <g id="ytick_8">
     <g id="line2d_46"/>
     <g id="text_26">
      <!-- 50 -->
      <g transform="translate(1375 479.758303) scale(0.18 -0.18)">
       <use xlink:href="#DejaVuSerif-35"/>
       <use xlink:href="#DejaVuSerif-30" x="63.623047"/>
      </g>
     </g>
    </g>
    <g id="ytick_9">
     <g id="line2d_47"/>
     <g id="text_27">
      <!-- 100 -->
      <g transform="translate(1375 416.998013) scale(0.18 -0.18)">
       <use xlink:href="#DejaVuSerif-31"/>
       <use xlink:href="#DejaVuSerif-30" x="63.623047"/>
       <use xlink:href="#DejaVuSerif-30" x="127.246094"/>
      </g>
     </g>
    </g>
    <g id="ytick_10">
     <g id="line2d_48"/>
     <g id="text_28">
      <!-- 150 -->
      <g transform="translate(1375 354.237722) scale(0.18 -0.18)">
       <use xlink:href="#DejaVuSerif-31"/>
       <use xlink:href="#DejaVuSerif-35" x="63.623047"/>
       <use xlink:href="#DejaVuSerif-30" x="127.246094"/>
      </g>
     </g>
    </g>
    <g id="ytick_11">
     <g id="line2d_49"/>
     <g id="text_29">
      <!-- 200 -->
      <g transform="translate(1375 291.477432) scale(0.18 -0.18)">
       <use xlink:href="#DejaVuSerif-32"/>
       <use xlink:href="#DejaVuSerif-30" x="63.623047"/>
       <use xlink:href="#DejaVuSerif-30" x="127.246094"/>
      </g>
     </g>
    </g>
    <g id="ytick_12">
     <g id="line2d_50"/>
     <g id="text_30">
      <!-- 250 -->
      <g transform="translate(1375 228.717141) scale(0.18 -0.18)">
       <use xlink:href="#DejaVuSerif-32"/>
       <use xlink:href="#DejaVuSerif-35" x="63.623047"/>
       <use xlink:href="#DejaVuSerif-30" x="127.246094"/>
      </g>
     </g>
    </g>
    <g id="ytick_13">
     <g id="line2d_51"/>
     <g id="text_31">
      <!-- 300 -->
      <g transform="translate(1375 165.95685) scale(0.18 -0.18)">
       <use xlink:href="#DejaVuSerif-33"/>
       <use xlink:href="#DejaVuSerif-30" x="63.623047"/>
       <use xlink:href="#DejaVuSerif-30" x="127.246094"/>
      </g>
     </g>
    </g>
    <g id="ytick_14">
     <g id="line2d_52"/>
     <g id="text_32">
      <!-- 350 -->
      <g transform="translate(1375 103.19656) scale(0.18 -0.18)">
       <use xlink:href="#DejaVuSerif-33"/>
       <use xlink:href="#DejaVuSerif-35" x="63.623047"/>
       <use xlink:href="#DejaVuSerif-30" x="127.246094"/>
      </g>
     </g>
    </g>
    <g id="text_33">
     <!-- Count -->
     <g transform="translate(1426.274844 328.386094) rotate(-90) scale(0.17 -0.17)">
      <use xlink:href="#DejaVuSerif-43"/>
      <use xlink:href="#DejaVuSerif-6f" x="76.513672"/>
      <use xlink:href="#DejaVuSerif-75" x="136.71875"/>
      <use xlink:href="#DejaVuSerif-6e" x="201.123047"/>
      <use xlink:href="#DejaVuSerif-74" x="265.527344"/>
     </g>
    </g>
   </g>
   <g id="patch_7">
    <path d="M 172.145455 535.68 
L 254.33477 535.68 
L 254.33477 91.337143 
L 172.145455 91.337143 
z
" clip-path="url(#p330c4f62f0)" style="fill: #ff0000; opacity: 0.2"/>
   </g>
   <g id="patch_8">
    <path d="M 289.558763 535.68 
L 371.748079 535.68 
L 371.748079 219.368136 
L 289.558763 219.368136 
z
" clip-path="url(#p330c4f62f0)" style="fill: #ff0000; opacity: 0.2"/>
   </g>
   <g id="patch_9">
    <path d="M 406.972071 535.68 
L 489.161387 535.68 
L 489.161387 267.065956 
L 406.972071 267.065956 
z
" clip-path="url(#p330c4f62f0)" style="fill: #ff0000; opacity: 0.2"/>
   </g>
   <g id="patch_10">
    <path d="M 524.38538 535.68 
L 606.574695 535.68 
L 606.574695 434.008329 
L 524.38538 434.008329 
z
" clip-path="url(#p330c4f62f0)" style="fill: #ff0000; opacity: 0.2"/>
   </g>
   <g id="patch_11">
    <path d="M 641.798688 535.68 
L 723.988004 535.68 
L 723.988004 440.284358 
L 641.798688 440.284358 
z
" clip-path="url(#p330c4f62f0)" style="fill: #ff0000; opacity: 0.2"/>
   </g>
   <g id="patch_12">
    <path d="M 759.211996 535.68 
L 841.401312 535.68 
L 841.401312 446.560387 
L 759.211996 446.560387 
z
" clip-path="url(#p330c4f62f0)" style="fill: #ff0000; opacity: 0.2"/>
   </g>
   <g id="patch_13">
    <path d="M 876.625305 535.68 
L 958.81462 535.68 
L 958.81462 495.513414 
L 876.625305 495.513414 
z
" clip-path="url(#p330c4f62f0)" style="fill: #ff0000; opacity: 0.2"/>
   </g>
   <g id="patch_14">
    <path d="M 994.038613 535.68 
L 1076.227929 535.68 
L 1076.227929 533.169588 
L 994.038613 533.169588 
z
" clip-path="url(#p330c4f62f0)" style="fill: #ff0000; opacity: 0.2"/>
   </g>
   <g id="patch_15">
    <path d="M 1111.451921 535.68 
L 1193.641237 535.68 
L 1193.641237 534.424794 
L 1111.451921 534.424794 
z
" clip-path="url(#p330c4f62f0)" style="fill: #ff0000; opacity: 0.2"/>
   </g>
   <g id="patch_16">
    <path d="M 1228.86523 535.68 
L 1311.054545 535.68 
L 1311.054545 534.424794 
L 1228.86523 534.424794 
z
" clip-path="url(#p330c4f62f0)" style="fill: #ff0000; opacity: 0.2"/>
   </g>
   <g id="patch_17">
    <path d="M 115.2 535.68 
L 115.2 69.12 
" style="fill: none; stroke: #ffffff; stroke-linejoin: miter; stroke-linecap: square"/>
   </g>
   <g id="patch_18">
    <path d="M 1368 535.68 
L 1368 69.12 
" style="fill: none; stroke: #ffffff; stroke-linejoin: miter; stroke-linecap: square"/>
   </g>
   <g id="patch_19">
    <path d="M 115.2 535.68 
L 1368 535.68 
" style="fill: none; stroke: #ffffff; stroke-linejoin: miter; stroke-linecap: square"/>
   </g>
   <g id="patch_20">
    <path d="M 115.2 69.12 
L 1368 69.12 
" style="fill: none; stroke: #ffffff; stroke-linejoin: miter; stroke-linecap: square"/>
   </g>
   <g id="text_34">
    <!-- 2.27% -->
    <g transform="translate(189.414722 88.217612) scale(0.15 -0.15)">
     <defs>
      <path id="DejaVuSerif-37" d="M 3609 4347 
L 1784 0 
L 1319 0 
L 3059 4153 
L 903 4153 
L 903 3578 
L 538 3578 
L 538 4666 
L 3609 4666 
L 3609 4347 
z
" transform="scale(0.015625)"/>
      <path id="DejaVuSerif-25" d="M 1434 4459 
Q 1159 4459 1004 4200 
Q 850 3941 850 3475 
Q 850 3016 1008 2753 
Q 1166 2491 1434 2491 
Q 1700 2491 1854 2752 
Q 2009 3013 2009 3475 
Q 2009 3938 1854 4198 
Q 1700 4459 1434 4459 
z
M 4653 2169 
Q 4381 2169 4226 1906 
Q 4072 1644 4072 1178 
Q 4072 719 4228 458 
Q 4384 197 4653 197 
Q 4922 197 5075 458 
Q 5228 719 5228 1178 
Q 5228 1641 5073 1905 
Q 4919 2169 4653 2169 
z
M 4653 2450 
Q 5147 2450 5437 2106 
Q 5728 1763 5728 1178 
Q 5728 594 5436 251 
Q 5144 -91 4653 -91 
Q 4153 -91 3862 251 
Q 3572 594 3572 1178 
Q 3572 1766 3864 2108 
Q 4156 2450 4653 2450 
z
M 4263 4750 
L 4738 4750 
L 1819 -91 
L 1344 -91 
L 4263 4750 
z
M 1428 4750 
Q 1922 4750 2215 4408 
Q 2509 4066 2509 3481 
Q 2509 2891 2217 2550 
Q 1925 2209 1428 2209 
Q 931 2209 642 2551 
Q 353 2894 353 3481 
Q 353 4063 643 4406 
Q 934 4750 1428 4750 
z
" transform="scale(0.015625)"/>
     </defs>
     <use xlink:href="#DejaVuSerif-32"/>
     <use xlink:href="#DejaVuSerif-2e" x="63.623047"/>
     <use xlink:href="#DejaVuSerif-32" x="95.410156"/>
     <use xlink:href="#DejaVuSerif-37" x="159.033203"/>
     <use xlink:href="#DejaVuSerif-25" x="222.65625"/>
    </g>
   </g>
   <g id="text_35">
    <!-- 1.61% -->
    <g transform="translate(306.82803 216.248604) scale(0.15 -0.15)">
     <use xlink:href="#DejaVuSerif-31"/>
     <use xlink:href="#DejaVuSerif-2e" x="63.623047"/>
     <use xlink:href="#DejaVuSerif-36" x="95.410156"/>
     <use xlink:href="#DejaVuSerif-31" x="159.033203"/>
     <use xlink:href="#DejaVuSerif-25" x="222.65625"/>
    </g>
   </g>
   <g id="text_36">
    <!-- 1.37% -->
    <g transform="translate(424.241339 263.946425) scale(0.15 -0.15)">
     <use xlink:href="#DejaVuSerif-31"/>
     <use xlink:href="#DejaVuSerif-2e" x="63.623047"/>
     <use xlink:href="#DejaVuSerif-33" x="95.410156"/>
     <use xlink:href="#DejaVuSerif-37" x="159.033203"/>
     <use xlink:href="#DejaVuSerif-25" x="222.65625"/>
    </g>
   </g>
   <g id="text_37">
    <!-- 0.52% -->
    <g transform="translate(541.654647 430.888798) scale(0.15 -0.15)">
     <use xlink:href="#DejaVuSerif-30"/>
     <use xlink:href="#DejaVuSerif-2e" x="63.623047"/>
     <use xlink:href="#DejaVuSerif-35" x="95.410156"/>
     <use xlink:href="#DejaVuSerif-32" x="159.033203"/>
     <use xlink:href="#DejaVuSerif-25" x="222.65625"/>
    </g>
   </g>
   <g id="text_38">
    <!-- 0.49% -->
    <g transform="translate(659.067955 437.164827) scale(0.15 -0.15)">
     <defs>
      <path id="DejaVuSerif-39" d="M 2994 2091 
Q 2784 1856 2512 1740 
Q 2241 1625 1900 1625 
Q 1206 1625 804 2044 
Q 403 2463 403 3188 
Q 403 3897 839 4323 
Q 1275 4750 2003 4750 
Q 2794 4750 3217 4161 
Q 3641 3572 3641 2478 
Q 3641 1253 3137 581 
Q 2634 -91 1722 -91 
Q 1475 -91 1203 -44 
Q 931 3 647 97 
L 647 872 
L 997 872 
Q 1038 556 1241 387 
Q 1444 219 1784 219 
Q 2391 219 2687 676 
Q 2984 1134 2994 2091 
z
M 1978 4441 
Q 1534 4441 1298 4117 
Q 1063 3794 1063 3188 
Q 1063 2581 1298 2256 
Q 1534 1931 1978 1931 
Q 2422 1931 2658 2245 
Q 2894 2559 2894 3150 
Q 2894 3772 2656 4106 
Q 2419 4441 1978 4441 
z
" transform="scale(0.015625)"/>
     </defs>
     <use xlink:href="#DejaVuSerif-30"/>
     <use xlink:href="#DejaVuSerif-2e" x="63.623047"/>
     <use xlink:href="#DejaVuSerif-34" x="95.410156"/>
     <use xlink:href="#DejaVuSerif-39" x="159.033203"/>
     <use xlink:href="#DejaVuSerif-25" x="222.65625"/>
    </g>
   </g>
   <g id="text_39">
    <!-- 0.45% -->
    <g transform="translate(776.481264 443.440856) scale(0.15 -0.15)">
     <use xlink:href="#DejaVuSerif-30"/>
     <use xlink:href="#DejaVuSerif-2e" x="63.623047"/>
     <use xlink:href="#DejaVuSerif-34" x="95.410156"/>
     <use xlink:href="#DejaVuSerif-35" x="159.033203"/>
     <use xlink:href="#DejaVuSerif-25" x="222.65625"/>
    </g>
   </g>
   <g id="text_40">
    <!-- 0.20% -->
    <g transform="translate(893.894572 492.393883) scale(0.15 -0.15)">
     <use xlink:href="#DejaVuSerif-30"/>
     <use xlink:href="#DejaVuSerif-2e" x="63.623047"/>
     <use xlink:href="#DejaVuSerif-32" x="95.410156"/>
     <use xlink:href="#DejaVuSerif-30" x="159.033203"/>
     <use xlink:href="#DejaVuSerif-25" x="222.65625"/>
    </g>
   </g>
   <g id="text_41">
    <!-- 0.01% -->
    <g transform="translate(1011.30788 530.050057) scale(0.15 -0.15)">
     <use xlink:href="#DejaVuSerif-30"/>
     <use xlink:href="#DejaVuSerif-2e" x="63.623047"/>
     <use xlink:href="#DejaVuSerif-30" x="95.410156"/>
     <use xlink:href="#DejaVuSerif-31" x="159.033203"/>
     <use xlink:href="#DejaVuSerif-25" x="222.65625"/>
    </g>
   </g>
   <g id="text_42">
    <!-- 0.01% -->
    <g transform="translate(1128.721189 531.305263) scale(0.15 -0.15)">
     <use xlink:href="#DejaVuSerif-30"/>
     <use xlink:href="#DejaVuSerif-2e" x="63.623047"/>
     <use xlink:href="#DejaVuSerif-30" x="95.410156"/>
     <use xlink:href="#DejaVuSerif-31" x="159.033203"/>
     <use xlink:href="#DejaVuSerif-25" x="222.65625"/>
    </g>
   </g>
   <g id="text_43">
    <!-- 0.01% -->
    <g transform="translate(1246.134497 531.305263) scale(0.15 -0.15)">
     <use xlink:href="#DejaVuSerif-30"/>
     <use xlink:href="#DejaVuSerif-2e" x="63.623047"/>
     <use xlink:href="#DejaVuSerif-30" x="95.410156"/>
     <use xlink:href="#DejaVuSerif-31" x="159.033203"/>
     <use xlink:href="#DejaVuSerif-25" x="222.65625"/>
    </g>
   </g>
  </g>
 </g>
 <defs>
  <clipPath id="p330c4f62f0">
   <rect x="115.2" y="69.12" width="1252.8" height="466.56"/>
  </clipPath>
 </defs>
</svg>
