<?xml version="1.0" encoding="utf-8" standalone="no"?>
<!DOCTYPE svg PUBLIC "-//W3C//DTD SVG 1.1//EN"
  "http://www.w3.org/Graphics/SVG/1.1/DTD/svg11.dtd">
<svg xmlns:xlink="http://www.w3.org/1999/xlink" width="1296pt" height="576pt" viewBox="0 0 1296 576" xmlns="http://www.w3.org/2000/svg" version="1.1">
 <metadata>
  <rdf:RDF xmlns:dc="http://purl.org/dc/elements/1.1/" xmlns:cc="http://creativecommons.org/ns#" xmlns:rdf="http://www.w3.org/1999/02/22-rdf-syntax-ns#">
   <cc:Work>
    <dc:type rdf:resource="http://purl.org/dc/dcmitype/StillImage"/>
    <dc:date>2024-10-11T22:42:07.448038</dc:date>
    <dc:format>image/svg+xml</dc:format>
    <dc:creator>
     <cc:Agent>
      <dc:title>Matplotlib v3.7.2, https://matplotlib.org/</dc:title>
     </cc:Agent>
    </dc:creator>
   </cc:Work>
  </rdf:RDF>
 </metadata>
 <defs>
  <style type="text/css">*{stroke-linejoin: round; stroke-linecap: butt}</style>
 </defs>
 <g id="figure_1">
  <g id="patch_1">
   <path d="M 0 576 
L 1296 576 
L 1296 0 
L 0 0 
z
" style="fill: #ffffff"/>
  </g>
  <g id="axes_1">
   <g id="patch_2">
    <path d="M 88.490653 459.089849 
L 1190.846922 459.089849 
L 1190.846922 10.8 
L 88.490653 10.8 
z
" style="fill: #e5e5e5"/>
   </g>
   <g id="matplotlib.axis_1">
    <g id="xtick_1">
     <g id="line2d_1">
      <path d="M 138.597756 459.089849 
L 138.597756 10.8 
" clip-path="url(#p100ad10c2b)" style="fill: none; stroke: #ffffff; stroke-width: 0.8; stroke-linecap: square"/>
     </g>
     <g id="line2d_2">
      <defs>
       <path id="m9a38951c54" d="M 0 0 
L 0 3.5 
" style="stroke: #000000; stroke-width: 0.8"/>
      </defs>
      <g>
       <use xlink:href="#m9a38951c54" x="138.597756" y="459.089849" style="stroke: #000000; stroke-width: 0.8"/>
      </g>
     </g>
     <g id="text_1">
      <!-- 861 - MAR3-GUTE000 -->
      <g transform="translate(19.884423 541.805127) rotate(-30) scale(0.12 -0.12)">
       <defs>
        <path id="DejaVuSerif-38" d="M 2981 1275 
Q 2981 1775 2732 2051 
Q 2484 2328 2034 2328 
Q 1584 2328 1336 2051 
Q 1088 1775 1088 1275 
Q 1088 772 1336 495 
Q 1584 219 2034 219 
Q 2484 219 2732 495 
Q 2981 772 2981 1275 
z
M 2853 3541 
Q 2853 3966 2637 4203 
Q 2422 4441 2034 4441 
Q 1650 4441 1433 4203 
Q 1216 3966 1216 3541 
Q 1216 3113 1433 2875 
Q 1650 2638 2034 2638 
Q 2422 2638 2637 2875 
Q 2853 3113 2853 3541 
z
M 2516 2484 
Q 3047 2413 3344 2092 
Q 3641 1772 3641 1275 
Q 3641 619 3225 264 
Q 2809 -91 2034 -91 
Q 1263 -91 845 264 
Q 428 619 428 1275 
Q 428 1772 725 2092 
Q 1022 2413 1556 2484 
Q 1084 2569 832 2842 
Q 581 3116 581 3541 
Q 581 4103 968 4426 
Q 1356 4750 2034 4750 
Q 2713 4750 3100 4426 
Q 3488 4103 3488 3541 
Q 3488 3116 3236 2842 
Q 2984 2569 2516 2484 
z
" transform="scale(0.015625)"/>
        <path id="DejaVuSerif-36" d="M 2094 219 
Q 2534 219 2771 542 
Q 3009 866 3009 1472 
Q 3009 2078 2771 2401 
Q 2534 2725 2094 2725 
Q 1647 2725 1412 2412 
Q 1178 2100 1178 1509 
Q 1178 888 1415 553 
Q 1653 219 2094 219 
z
M 1075 2569 
Q 1288 2803 1556 2918 
Q 1825 3034 2163 3034 
Q 2859 3034 3264 2615 
Q 3669 2197 3669 1472 
Q 3669 763 3233 336 
Q 2797 -91 2069 -91 
Q 1278 -91 853 498 
Q 428 1088 428 2181 
Q 428 3406 931 4078 
Q 1434 4750 2350 4750 
Q 2597 4750 2869 4703 
Q 3141 4656 3425 4563 
L 3425 3794 
L 3072 3794 
Q 3034 4109 2831 4275 
Q 2628 4441 2284 4441 
Q 1678 4441 1381 3981 
Q 1084 3522 1075 2569 
z
" transform="scale(0.015625)"/>
        <path id="DejaVuSerif-31" d="M 909 0 
L 909 331 
L 1722 331 
L 1722 4213 
L 781 3603 
L 781 4013 
L 1919 4750 
L 2350 4750 
L 2350 331 
L 3163 331 
L 3163 0 
L 909 0 
z
" transform="scale(0.015625)"/>
        <path id="DejaVuSerif-20" transform="scale(0.015625)"/>
        <path id="DejaVuSerif-2d" d="M 281 1959 
L 1881 1959 
L 1881 1472 
L 281 1472 
L 281 1959 
z
" transform="scale(0.015625)"/>
        <path id="DejaVuSerif-4d" d="M 353 0 
L 353 331 
L 947 331 
L 947 4331 
L 319 4331 
L 319 4666 
L 1678 4666 
L 3316 1344 
L 4953 4666 
L 6228 4666 
L 6228 4331 
L 5606 4331 
L 5606 331 
L 6203 331 
L 6203 0 
L 4378 0 
L 4378 331 
L 4972 331 
L 4972 3938 
L 3372 684 
L 2931 684 
L 1331 3938 
L 1331 331 
L 1925 331 
L 1925 0 
L 353 0 
z
" transform="scale(0.015625)"/>
        <path id="DejaVuSerif-41" d="M 1281 1691 
L 2994 1691 
L 2138 3909 
L 1281 1691 
z
M -38 0 
L -38 331 
L 372 331 
L 2034 4666 
L 2559 4666 
L 4225 331 
L 4684 331 
L 4684 0 
L 2988 0 
L 2988 331 
L 3506 331 
L 3116 1356 
L 1153 1356 
L 763 331 
L 1275 331 
L 1275 0 
L -38 0 
z
" transform="scale(0.015625)"/>
        <path id="DejaVuSerif-52" d="M 3066 2316 
Q 3284 2256 3442 2114 
Q 3600 1972 3725 1716 
L 4403 331 
L 4972 331 
L 4972 0 
L 3872 0 
L 3144 1484 
Q 2934 1916 2759 2042 
Q 2584 2169 2278 2169 
L 1581 2169 
L 1581 331 
L 2241 331 
L 2241 0 
L 353 0 
L 353 331 
L 947 331 
L 947 4331 
L 353 4331 
L 353 4666 
L 2719 4666 
Q 3400 4666 3770 4341 
Q 4141 4016 4141 3419 
Q 4141 2938 3870 2661 
Q 3600 2384 3066 2316 
z
M 1581 2503 
L 2503 2503 
Q 2975 2503 3200 2726 
Q 3425 2950 3425 3419 
Q 3425 3888 3200 4109 
Q 2975 4331 2503 4331 
L 1581 4331 
L 1581 2503 
z
" transform="scale(0.015625)"/>
        <path id="DejaVuSerif-33" d="M 622 4469 
Q 988 4606 1323 4678 
Q 1659 4750 1953 4750 
Q 2638 4750 3022 4454 
Q 3406 4159 3406 3634 
Q 3406 3213 3140 2930 
Q 2875 2647 2388 2547 
Q 2963 2466 3280 2130 
Q 3597 1794 3597 1259 
Q 3597 606 3158 257 
Q 2719 -91 1894 -91 
Q 1528 -91 1179 -12 
Q 831 66 488 225 
L 488 1131 
L 838 1131 
Q 869 681 1141 450 
Q 1413 219 1906 219 
Q 2384 219 2661 495 
Q 2938 772 2938 1253 
Q 2938 1803 2653 2086 
Q 2369 2369 1819 2369 
L 1522 2369 
L 1522 2688 
L 1678 2688 
Q 2225 2688 2498 2914 
Q 2772 3141 2772 3597 
Q 2772 4006 2547 4223 
Q 2322 4441 1900 4441 
Q 1478 4441 1245 4241 
Q 1013 4041 972 3647 
L 622 3647 
L 622 4469 
z
" transform="scale(0.015625)"/>
        <path id="DejaVuSerif-47" d="M 4097 3272 
Q 3988 3856 3641 4136 
Q 3294 4416 2675 4416 
Q 1869 4416 1472 3897 
Q 1075 3378 1075 2328 
Q 1075 1300 1484 772 
Q 1894 244 2688 244 
Q 3041 244 3362 331 
Q 3684 419 3975 594 
L 3975 1797 
L 3097 1797 
L 3097 2131 
L 4609 2131 
L 4609 391 
Q 4194 150 3714 29 
Q 3234 -91 2688 -91 
Q 1631 -91 995 570 
Q 359 1231 359 2328 
Q 359 3434 996 4092 
Q 1634 4750 2713 4750 
Q 3113 4750 3539 4658 
Q 3966 4566 4447 4378 
L 4447 3272 
L 4097 3272 
z
" transform="scale(0.015625)"/>
        <path id="DejaVuSerif-55" d="M 897 4331 
L 300 4331 
L 300 4666 
L 2125 4666 
L 2125 4331 
L 1528 4331 
L 1528 1919 
Q 1528 1025 1820 672 
Q 2113 319 2828 319 
Q 3544 319 3836 672 
Q 4128 1025 4128 1919 
L 4128 4331 
L 3531 4331 
L 3531 4666 
L 5106 4666 
L 5106 4331 
L 4513 4331 
L 4513 1856 
Q 4513 791 4103 350 
Q 3694 -91 2713 -91 
Q 1731 -91 1314 353 
Q 897 797 897 1856 
L 897 4331 
z
" transform="scale(0.015625)"/>
        <path id="DejaVuSerif-54" d="M 1222 0 
L 1222 331 
L 1819 331 
L 1819 4294 
L 447 4294 
L 447 3566 
L 63 3566 
L 63 4666 
L 4206 4666 
L 4206 3566 
L 3822 3566 
L 3822 4294 
L 2450 4294 
L 2450 331 
L 3047 331 
L 3047 0 
L 1222 0 
z
" transform="scale(0.015625)"/>
        <path id="DejaVuSerif-45" d="M 353 0 
L 353 331 
L 947 331 
L 947 4331 
L 353 4331 
L 353 4666 
L 4109 4666 
L 4109 3628 
L 3725 3628 
L 3725 4281 
L 1581 4281 
L 1581 2719 
L 3109 2719 
L 3109 3303 
L 3494 3303 
L 3494 1753 
L 3109 1753 
L 3109 2338 
L 1581 2338 
L 1581 384 
L 3775 384 
L 3775 1038 
L 4159 1038 
L 4159 0 
L 353 0 
z
" transform="scale(0.015625)"/>
        <path id="DejaVuSerif-30" d="M 2034 219 
Q 2513 219 2750 744 
Q 2988 1269 2988 2328 
Q 2988 3391 2750 3916 
Q 2513 4441 2034 4441 
Q 1556 4441 1318 3916 
Q 1081 3391 1081 2328 
Q 1081 1269 1318 744 
Q 1556 219 2034 219 
z
M 2034 -91 
Q 1275 -91 848 546 
Q 422 1184 422 2328 
Q 422 3475 848 4112 
Q 1275 4750 2034 4750 
Q 2797 4750 3222 4112 
Q 3647 3475 3647 2328 
Q 3647 1184 3222 546 
Q 2797 -91 2034 -91 
z
" transform="scale(0.015625)"/>
       </defs>
       <use xlink:href="#DejaVuSerif-38"/>
       <use xlink:href="#DejaVuSerif-36" x="63.623047"/>
       <use xlink:href="#DejaVuSerif-31" x="127.246094"/>
       <use xlink:href="#DejaVuSerif-20" x="190.869141"/>
       <use xlink:href="#DejaVuSerif-2d" x="222.65625"/>
       <use xlink:href="#DejaVuSerif-20" x="256.445312"/>
       <use xlink:href="#DejaVuSerif-4d" x="288.232422"/>
       <use xlink:href="#DejaVuSerif-41" x="390.625"/>
       <use xlink:href="#DejaVuSerif-52" x="462.841797"/>
       <use xlink:href="#DejaVuSerif-33" x="538.134766"/>
       <use xlink:href="#DejaVuSerif-2d" x="601.757812"/>
       <use xlink:href="#DejaVuSerif-47" x="635.546875"/>
       <use xlink:href="#DejaVuSerif-55" x="715.429688"/>
       <use xlink:href="#DejaVuSerif-54" x="799.707031"/>
       <use xlink:href="#DejaVuSerif-45" x="866.40625"/>
       <use xlink:href="#DejaVuSerif-30" x="939.404297"/>
       <use xlink:href="#DejaVuSerif-30" x="1003.027344"/>
       <use xlink:href="#DejaVuSerif-30" x="1066.650391"/>
      </g>
     </g>
    </g>
    <g id="xtick_2">
     <g id="line2d_3">
      <path d="M 210.179332 459.089849 
L 210.179332 10.8 
" clip-path="url(#p100ad10c2b)" style="fill: none; stroke: #ffffff; stroke-width: 0.8; stroke-linecap: square"/>
     </g>
     <g id="line2d_4">
      <g>
       <use xlink:href="#m9a38951c54" x="210.179332" y="459.089849" style="stroke: #000000; stroke-width: 0.8"/>
      </g>
     </g>
     <g id="text_2">
      <!-- 861 - ESTREIUHE008 -->
      <g transform="translate(92.579924 541.162002) rotate(-30) scale(0.12 -0.12)">
       <defs>
        <path id="DejaVuSerif-53" d="M 594 225 
L 594 1288 
L 953 1284 
Q 969 753 1261 498 
Q 1553 244 2150 244 
Q 2706 244 2998 464 
Q 3291 684 3291 1106 
Q 3291 1444 3114 1625 
Q 2938 1806 2369 1978 
L 1753 2163 
Q 1084 2366 811 2669 
Q 538 2972 538 3500 
Q 538 4094 959 4422 
Q 1381 4750 2144 4750 
Q 2469 4750 2856 4679 
Q 3244 4609 3681 4475 
L 3681 3481 
L 3328 3481 
Q 3275 3975 2998 4195 
Q 2722 4416 2156 4416 
Q 1663 4416 1405 4214 
Q 1147 4013 1147 3628 
Q 1147 3294 1340 3103 
Q 1534 2913 2163 2725 
L 2741 2553 
Q 3375 2363 3645 2067 
Q 3916 1772 3916 1275 
Q 3916 597 3481 253 
Q 3047 -91 2188 -91 
Q 1803 -91 1404 -12 
Q 1006 66 594 225 
z
" transform="scale(0.015625)"/>
        <path id="DejaVuSerif-49" d="M 1581 331 
L 2175 331 
L 2175 0 
L 353 0 
L 353 331 
L 947 331 
L 947 4331 
L 353 4331 
L 353 4666 
L 2175 4666 
L 2175 4331 
L 1581 4331 
L 1581 331 
z
" transform="scale(0.015625)"/>
        <path id="DejaVuSerif-48" d="M 353 0 
L 353 331 
L 947 331 
L 947 4331 
L 353 4331 
L 353 4666 
L 2175 4666 
L 2175 4331 
L 1581 4331 
L 1581 2719 
L 4000 2719 
L 4000 4331 
L 3406 4331 
L 3406 4666 
L 5228 4666 
L 5228 4331 
L 4634 4331 
L 4634 331 
L 5228 331 
L 5228 0 
L 3406 0 
L 3406 331 
L 4000 331 
L 4000 2338 
L 1581 2338 
L 1581 331 
L 2175 331 
L 2175 0 
L 353 0 
z
" transform="scale(0.015625)"/>
       </defs>
       <use xlink:href="#DejaVuSerif-38"/>
       <use xlink:href="#DejaVuSerif-36" x="63.623047"/>
       <use xlink:href="#DejaVuSerif-31" x="127.246094"/>
       <use xlink:href="#DejaVuSerif-20" x="190.869141"/>
       <use xlink:href="#DejaVuSerif-2d" x="222.65625"/>
       <use xlink:href="#DejaVuSerif-20" x="256.445312"/>
       <use xlink:href="#DejaVuSerif-45" x="288.232422"/>
       <use xlink:href="#DejaVuSerif-53" x="361.230469"/>
       <use xlink:href="#DejaVuSerif-54" x="429.736328"/>
       <use xlink:href="#DejaVuSerif-52" x="496.435547"/>
       <use xlink:href="#DejaVuSerif-45" x="571.728516"/>
       <use xlink:href="#DejaVuSerif-49" x="644.726562"/>
       <use xlink:href="#DejaVuSerif-55" x="684.228516"/>
       <use xlink:href="#DejaVuSerif-48" x="768.505859"/>
       <use xlink:href="#DejaVuSerif-45" x="855.712891"/>
       <use xlink:href="#DejaVuSerif-30" x="928.710938"/>
       <use xlink:href="#DejaVuSerif-30" x="992.333984"/>
       <use xlink:href="#DejaVuSerif-38" x="1055.957031"/>
      </g>
     </g>
    </g>
    <g id="xtick_3">
     <g id="line2d_5">
      <path d="M 281.760908 459.089849 
L 281.760908 10.8 
" clip-path="url(#p100ad10c2b)" style="fill: none; stroke: #ffffff; stroke-width: 0.8; stroke-linecap: square"/>
     </g>
     <g id="line2d_6">
      <g>
       <use xlink:href="#m9a38951c54" x="281.760908" y="459.089849" style="stroke: #000000; stroke-width: 0.8"/>
      </g>
     </g>
     <g id="text_3">
      <!-- 861 - DLT7-8EOL036 -->
      <g transform="translate(169.658055 537.988564) rotate(-30) scale(0.12 -0.12)">
       <defs>
        <path id="DejaVuSerif-44" d="M 1581 331 
L 2163 331 
Q 3072 331 3558 850 
Q 4044 1369 4044 2338 
Q 4044 3306 3559 3818 
Q 3075 4331 2163 4331 
L 1581 4331 
L 1581 331 
z
M 353 0 
L 353 331 
L 947 331 
L 947 4331 
L 353 4331 
L 353 4666 
L 2209 4666 
Q 3416 4666 4089 4050 
Q 4763 3434 4763 2338 
Q 4763 1238 4088 619 
Q 3413 0 2209 0 
L 353 0 
z
" transform="scale(0.015625)"/>
        <path id="DejaVuSerif-4c" d="M 353 0 
L 353 331 
L 947 331 
L 947 4331 
L 353 4331 
L 353 4666 
L 2175 4666 
L 2175 4331 
L 1581 4331 
L 1581 384 
L 3713 384 
L 3713 1166 
L 4097 1166 
L 4097 0 
L 353 0 
z
" transform="scale(0.015625)"/>
        <path id="DejaVuSerif-37" d="M 3609 4347 
L 1784 0 
L 1319 0 
L 3059 4153 
L 903 4153 
L 903 3578 
L 538 3578 
L 538 4666 
L 3609 4666 
L 3609 4347 
z
" transform="scale(0.015625)"/>
        <path id="DejaVuSerif-4f" d="M 2625 244 
Q 3391 244 3781 770 
Q 4172 1297 4172 2328 
Q 4172 3363 3781 3889 
Q 3391 4416 2625 4416 
Q 1856 4416 1465 3889 
Q 1075 3363 1075 2328 
Q 1075 1297 1465 770 
Q 1856 244 2625 244 
z
M 2625 -91 
Q 2150 -91 1751 65 
Q 1353 222 1050 525 
Q 700 875 529 1319 
Q 359 1763 359 2328 
Q 359 2894 529 3339 
Q 700 3784 1050 4134 
Q 1356 4441 1750 4595 
Q 2144 4750 2625 4750 
Q 3641 4750 4266 4084 
Q 4891 3419 4891 2328 
Q 4891 1769 4719 1320 
Q 4547 872 4197 525 
Q 3891 219 3497 64 
Q 3103 -91 2625 -91 
z
" transform="scale(0.015625)"/>
       </defs>
       <use xlink:href="#DejaVuSerif-38"/>
       <use xlink:href="#DejaVuSerif-36" x="63.623047"/>
       <use xlink:href="#DejaVuSerif-31" x="127.246094"/>
       <use xlink:href="#DejaVuSerif-20" x="190.869141"/>
       <use xlink:href="#DejaVuSerif-2d" x="222.65625"/>
       <use xlink:href="#DejaVuSerif-20" x="256.445312"/>
       <use xlink:href="#DejaVuSerif-44" x="288.232422"/>
       <use xlink:href="#DejaVuSerif-4c" x="368.408203"/>
       <use xlink:href="#DejaVuSerif-54" x="426.689453"/>
       <use xlink:href="#DejaVuSerif-37" x="493.388672"/>
       <use xlink:href="#DejaVuSerif-2d" x="557.011719"/>
       <use xlink:href="#DejaVuSerif-38" x="590.800781"/>
       <use xlink:href="#DejaVuSerif-45" x="654.423828"/>
       <use xlink:href="#DejaVuSerif-4f" x="727.421875"/>
       <use xlink:href="#DejaVuSerif-4c" x="809.404297"/>
       <use xlink:href="#DejaVuSerif-30" x="875.810547"/>
       <use xlink:href="#DejaVuSerif-33" x="939.433594"/>
       <use xlink:href="#DejaVuSerif-36" x="1003.056641"/>
      </g>
     </g>
    </g>
    <g id="xtick_4">
     <g id="line2d_7">
      <path d="M 353.342484 459.089849 
L 353.342484 10.8 
" clip-path="url(#p100ad10c2b)" style="fill: none; stroke: #ffffff; stroke-width: 0.8; stroke-linecap: square"/>
     </g>
     <g id="line2d_8">
      <g>
       <use xlink:href="#m9a38951c54" x="353.342484" y="459.089849" style="stroke: #000000; stroke-width: 0.8"/>
      </g>
     </g>
     <g id="text_4">
      <!-- 861 - DELT3BEOL036 -->
      <g transform="translate(236.140906 540.932314) rotate(-30) scale(0.12 -0.12)">
       <defs>
        <path id="DejaVuSerif-42" d="M 1581 331 
L 2516 331 
Q 3078 331 3337 575 
Q 3597 819 3597 1350 
Q 3597 1878 3339 2120 
Q 3081 2363 2516 2363 
L 1581 2363 
L 1581 331 
z
M 1581 2694 
L 2375 2694 
Q 2888 2694 3123 2891 
Q 3359 3088 3359 3513 
Q 3359 3941 3123 4136 
Q 2888 4331 2375 4331 
L 1581 4331 
L 1581 2694 
z
M 353 0 
L 353 331 
L 947 331 
L 947 4331 
L 353 4331 
L 353 4666 
L 2656 4666 
Q 3363 4666 3720 4377 
Q 4078 4088 4078 3513 
Q 4078 3097 3829 2850 
Q 3581 2603 3103 2547 
Q 3697 2472 4005 2167 
Q 4313 1863 4313 1350 
Q 4313 656 3875 328 
Q 3438 0 2509 0 
L 353 0 
z
" transform="scale(0.015625)"/>
       </defs>
       <use xlink:href="#DejaVuSerif-38"/>
       <use xlink:href="#DejaVuSerif-36" x="63.623047"/>
       <use xlink:href="#DejaVuSerif-31" x="127.246094"/>
       <use xlink:href="#DejaVuSerif-20" x="190.869141"/>
       <use xlink:href="#DejaVuSerif-2d" x="222.65625"/>
       <use xlink:href="#DejaVuSerif-20" x="256.445312"/>
       <use xlink:href="#DejaVuSerif-44" x="288.232422"/>
       <use xlink:href="#DejaVuSerif-45" x="368.408203"/>
       <use xlink:href="#DejaVuSerif-4c" x="441.40625"/>
       <use xlink:href="#DejaVuSerif-54" x="499.6875"/>
       <use xlink:href="#DejaVuSerif-33" x="566.386719"/>
       <use xlink:href="#DejaVuSerif-42" x="630.009766"/>
       <use xlink:href="#DejaVuSerif-45" x="703.496094"/>
       <use xlink:href="#DejaVuSerif-4f" x="776.494141"/>
       <use xlink:href="#DejaVuSerif-4c" x="858.476562"/>
       <use xlink:href="#DejaVuSerif-30" x="924.882812"/>
       <use xlink:href="#DejaVuSerif-33" x="988.505859"/>
       <use xlink:href="#DejaVuSerif-36" x="1052.128906"/>
      </g>
     </g>
    </g>
    <g id="xtick_5">
     <g id="line2d_9">
      <path d="M 424.92406 459.089849 
L 424.92406 10.8 
" clip-path="url(#p100ad10c2b)" style="fill: none; stroke: #ffffff; stroke-width: 0.8; stroke-linecap: square"/>
     </g>
     <g id="line2d_10">
      <g>
       <use xlink:href="#m9a38951c54" x="424.92406" y="459.089849" style="stroke: #000000; stroke-width: 0.8"/>
      </g>
     </g>
     <g id="text_5">
      <!-- 861 - DELT3CEOL036 -->
      <g transform="translate(307.407466 541.114189) rotate(-30) scale(0.12 -0.12)">
       <defs>
        <path id="DejaVuSerif-43" d="M 4513 1234 
Q 4306 581 3820 245 
Q 3334 -91 2591 -91 
Q 2134 -91 1743 65 
Q 1353 222 1050 525 
Q 700 875 529 1320 
Q 359 1766 359 2328 
Q 359 3416 987 4083 
Q 1616 4750 2644 4750 
Q 3025 4750 3456 4650 
Q 3888 4550 4384 4347 
L 4384 3272 
L 4031 3272 
Q 3916 3859 3567 4137 
Q 3219 4416 2591 4416 
Q 1844 4416 1459 3886 
Q 1075 3356 1075 2328 
Q 1075 1303 1459 773 
Q 1844 244 2591 244 
Q 3113 244 3450 492 
Q 3788 741 3938 1234 
L 4513 1234 
z
" transform="scale(0.015625)"/>
       </defs>
       <use xlink:href="#DejaVuSerif-38"/>
       <use xlink:href="#DejaVuSerif-36" x="63.623047"/>
       <use xlink:href="#DejaVuSerif-31" x="127.246094"/>
       <use xlink:href="#DejaVuSerif-20" x="190.869141"/>
       <use xlink:href="#DejaVuSerif-2d" x="222.65625"/>
       <use xlink:href="#DejaVuSerif-20" x="256.445312"/>
       <use xlink:href="#DejaVuSerif-44" x="288.232422"/>
       <use xlink:href="#DejaVuSerif-45" x="368.408203"/>
       <use xlink:href="#DejaVuSerif-4c" x="441.40625"/>
       <use xlink:href="#DejaVuSerif-54" x="499.6875"/>
       <use xlink:href="#DejaVuSerif-33" x="566.386719"/>
       <use xlink:href="#DejaVuSerif-43" x="630.009766"/>
       <use xlink:href="#DejaVuSerif-45" x="706.523438"/>
       <use xlink:href="#DejaVuSerif-4f" x="779.521484"/>
       <use xlink:href="#DejaVuSerif-4c" x="861.503906"/>
       <use xlink:href="#DejaVuSerif-30" x="927.910156"/>
       <use xlink:href="#DejaVuSerif-33" x="991.533203"/>
       <use xlink:href="#DejaVuSerif-36" x="1055.15625"/>
      </g>
     </g>
    </g>
    <g id="xtick_6">
     <g id="line2d_11">
      <path d="M 496.505636 459.089849 
L 496.505636 10.8 
" clip-path="url(#p100ad10c2b)" style="fill: none; stroke: #ffffff; stroke-width: 0.8; stroke-linecap: square"/>
     </g>
     <g id="line2d_12">
      <g>
       <use xlink:href="#m9a38951c54" x="496.505636" y="459.089849" style="stroke: #000000; stroke-width: 0.8"/>
      </g>
     </g>
     <g id="text_6">
      <!-- 861 - DELT3AEOL024 -->
      <g transform="translate(379.435586 540.856377) rotate(-30) scale(0.12 -0.12)">
       <defs>
        <path id="DejaVuSerif-32" d="M 819 3553 
L 469 3553 
L 469 4384 
Q 803 4563 1142 4656 
Q 1481 4750 1806 4750 
Q 2534 4750 2956 4397 
Q 3378 4044 3378 3438 
Q 3378 2753 2422 1800 
Q 2347 1728 2309 1691 
L 1131 513 
L 3078 513 
L 3078 1088 
L 3444 1088 
L 3444 0 
L 434 0 
L 434 341 
L 1850 1753 
Q 2319 2222 2519 2614 
Q 2719 3006 2719 3438 
Q 2719 3909 2473 4175 
Q 2228 4441 1797 4441 
Q 1350 4441 1106 4219 
Q 863 3997 819 3553 
z
" transform="scale(0.015625)"/>
        <path id="DejaVuSerif-34" d="M 2234 1581 
L 2234 4063 
L 641 1581 
L 2234 1581 
z
M 3609 0 
L 1484 0 
L 1484 331 
L 2234 331 
L 2234 1247 
L 197 1247 
L 197 1588 
L 2241 4750 
L 2859 4750 
L 2859 1581 
L 3750 1581 
L 3750 1247 
L 2859 1247 
L 2859 331 
L 3609 331 
L 3609 0 
z
" transform="scale(0.015625)"/>
       </defs>
       <use xlink:href="#DejaVuSerif-38"/>
       <use xlink:href="#DejaVuSerif-36" x="63.623047"/>
       <use xlink:href="#DejaVuSerif-31" x="127.246094"/>
       <use xlink:href="#DejaVuSerif-20" x="190.869141"/>
       <use xlink:href="#DejaVuSerif-2d" x="222.65625"/>
       <use xlink:href="#DejaVuSerif-20" x="256.445312"/>
       <use xlink:href="#DejaVuSerif-44" x="288.232422"/>
       <use xlink:href="#DejaVuSerif-45" x="368.408203"/>
       <use xlink:href="#DejaVuSerif-4c" x="441.40625"/>
       <use xlink:href="#DejaVuSerif-54" x="499.6875"/>
       <use xlink:href="#DejaVuSerif-33" x="566.386719"/>
       <use xlink:href="#DejaVuSerif-41" x="630.009766"/>
       <use xlink:href="#DejaVuSerif-45" x="702.226562"/>
       <use xlink:href="#DejaVuSerif-4f" x="775.224609"/>
       <use xlink:href="#DejaVuSerif-4c" x="857.207031"/>
       <use xlink:href="#DejaVuSerif-30" x="923.613281"/>
       <use xlink:href="#DejaVuSerif-32" x="987.236328"/>
       <use xlink:href="#DejaVuSerif-34" x="1050.859375"/>
      </g>
     </g>
    </g>
    <g id="xtick_7">
     <g id="line2d_13">
      <path d="M 568.087212 459.089849 
L 568.087212 10.8 
" clip-path="url(#p100ad10c2b)" style="fill: none; stroke: #ffffff; stroke-width: 0.8; stroke-linecap: square"/>
     </g>
     <g id="line2d_14">
      <g>
       <use xlink:href="#m9a38951c54" x="568.087212" y="459.089849" style="stroke: #000000; stroke-width: 0.8"/>
      </g>
     </g>
     <g id="text_7">
      <!-- 861 - DLT5-6EOL030 -->
      <g transform="translate(455.984359 537.988564) rotate(-30) scale(0.12 -0.12)">
       <defs>
        <path id="DejaVuSerif-35" d="M 3219 4666 
L 3219 4153 
L 1081 4153 
L 1081 2816 
Q 1244 2928 1461 2984 
Q 1678 3041 1947 3041 
Q 2703 3041 3140 2622 
Q 3578 2203 3578 1478 
Q 3578 738 3136 323 
Q 2694 -91 1894 -91 
Q 1572 -91 1234 -12 
Q 897 66 544 225 
L 544 1131 
L 897 1131 
Q 925 688 1179 453 
Q 1434 219 1894 219 
Q 2388 219 2653 544 
Q 2919 869 2919 1478 
Q 2919 2084 2655 2407 
Q 2391 2731 1894 2731 
Q 1613 2731 1398 2631 
Q 1184 2531 1019 2322 
L 750 2322 
L 750 4666 
L 3219 4666 
z
" transform="scale(0.015625)"/>
       </defs>
       <use xlink:href="#DejaVuSerif-38"/>
       <use xlink:href="#DejaVuSerif-36" x="63.623047"/>
       <use xlink:href="#DejaVuSerif-31" x="127.246094"/>
       <use xlink:href="#DejaVuSerif-20" x="190.869141"/>
       <use xlink:href="#DejaVuSerif-2d" x="222.65625"/>
       <use xlink:href="#DejaVuSerif-20" x="256.445312"/>
       <use xlink:href="#DejaVuSerif-44" x="288.232422"/>
       <use xlink:href="#DejaVuSerif-4c" x="368.408203"/>
       <use xlink:href="#DejaVuSerif-54" x="426.689453"/>
       <use xlink:href="#DejaVuSerif-35" x="493.388672"/>
       <use xlink:href="#DejaVuSerif-2d" x="557.011719"/>
       <use xlink:href="#DejaVuSerif-36" x="590.800781"/>
       <use xlink:href="#DejaVuSerif-45" x="654.423828"/>
       <use xlink:href="#DejaVuSerif-4f" x="727.421875"/>
       <use xlink:href="#DejaVuSerif-4c" x="809.404297"/>
       <use xlink:href="#DejaVuSerif-30" x="875.810547"/>
       <use xlink:href="#DejaVuSerif-33" x="939.433594"/>
       <use xlink:href="#DejaVuSerif-30" x="1003.056641"/>
      </g>
     </g>
    </g>
    <g id="xtick_8">
     <g id="line2d_15">
      <path d="M 639.668788 459.089849 
L 639.668788 10.8 
" clip-path="url(#p100ad10c2b)" style="fill: none; stroke: #ffffff; stroke-width: 0.8; stroke-linecap: square"/>
     </g>
     <g id="line2d_16">
      <g>
       <use xlink:href="#m9a38951c54" x="639.668788" y="459.089849" style="stroke: #000000; stroke-width: 0.8"/>
      </g>
     </g>
     <g id="text_8">
      <!-- 861 - DELTA5EOL010 -->
      <g transform="translate(523.170314 540.526377) rotate(-30) scale(0.12 -0.12)">
       <use xlink:href="#DejaVuSerif-38"/>
       <use xlink:href="#DejaVuSerif-36" x="63.623047"/>
       <use xlink:href="#DejaVuSerif-31" x="127.246094"/>
       <use xlink:href="#DejaVuSerif-20" x="190.869141"/>
       <use xlink:href="#DejaVuSerif-2d" x="222.65625"/>
       <use xlink:href="#DejaVuSerif-20" x="256.445312"/>
       <use xlink:href="#DejaVuSerif-44" x="288.232422"/>
       <use xlink:href="#DejaVuSerif-45" x="368.408203"/>
       <use xlink:href="#DejaVuSerif-4c" x="441.40625"/>
       <use xlink:href="#DejaVuSerif-54" x="499.6875"/>
       <use xlink:href="#DejaVuSerif-41" x="560.886719"/>
       <use xlink:href="#DejaVuSerif-35" x="633.103516"/>
       <use xlink:href="#DejaVuSerif-45" x="696.726562"/>
       <use xlink:href="#DejaVuSerif-4f" x="769.724609"/>
       <use xlink:href="#DejaVuSerif-4c" x="851.707031"/>
       <use xlink:href="#DejaVuSerif-30" x="918.113281"/>
       <use xlink:href="#DejaVuSerif-31" x="981.736328"/>
       <use xlink:href="#DejaVuSerif-30" x="1045.359375"/>
      </g>
     </g>
    </g>
    <g id="xtick_9">
     <g id="line2d_17">
      <path d="M 711.250363 459.089849 
L 711.250363 10.8 
" clip-path="url(#p100ad10c2b)" style="fill: none; stroke: #ffffff; stroke-width: 0.8; stroke-linecap: square"/>
     </g>
     <g id="line2d_18">
      <g>
       <use xlink:href="#m9a38951c54" x="711.250363" y="459.089849" style="stroke: #000000; stroke-width: 0.8"/>
      </g>
     </g>
     <g id="text_9">
      <!-- 861 - PARNIVUTE000 -->
      <g transform="translate(594.857437 540.465439) rotate(-30) scale(0.12 -0.12)">
       <defs>
        <path id="DejaVuSerif-50" d="M 1581 2375 
L 2406 2375 
Q 2872 2375 3115 2626 
Q 3359 2878 3359 3353 
Q 3359 3831 3115 4081 
Q 2872 4331 2406 4331 
L 1581 4331 
L 1581 2375 
z
M 353 0 
L 353 331 
L 947 331 
L 947 4331 
L 353 4331 
L 353 4666 
L 2559 4666 
Q 3259 4666 3668 4311 
Q 4078 3956 4078 3353 
Q 4078 2753 3668 2397 
Q 3259 2041 2559 2041 
L 1581 2041 
L 1581 331 
L 2303 331 
L 2303 0 
L 353 0 
z
" transform="scale(0.015625)"/>
        <path id="DejaVuSerif-4e" d="M 313 0 
L 313 331 
L 941 331 
L 941 4331 
L 313 4331 
L 313 4666 
L 1509 4666 
L 4306 984 
L 4306 4331 
L 3681 4331 
L 3681 4666 
L 5319 4666 
L 5319 4331 
L 4691 4331 
L 4691 -91 
L 4313 -91 
L 1325 3841 
L 1325 331 
L 1953 331 
L 1953 0 
L 313 0 
z
" transform="scale(0.015625)"/>
        <path id="DejaVuSerif-56" d="M 1119 4331 
L 2497 750 
L 3872 4331 
L 3347 4331 
L 3347 4666 
L 4716 4666 
L 4716 4331 
L 4263 4331 
L 2597 0 
L 2059 0 
L 403 4331 
L -63 4331 
L -63 4666 
L 1638 4666 
L 1638 4331 
L 1119 4331 
z
" transform="scale(0.015625)"/>
       </defs>
       <use xlink:href="#DejaVuSerif-38"/>
       <use xlink:href="#DejaVuSerif-36" x="63.623047"/>
       <use xlink:href="#DejaVuSerif-31" x="127.246094"/>
       <use xlink:href="#DejaVuSerif-20" x="190.869141"/>
       <use xlink:href="#DejaVuSerif-2d" x="222.65625"/>
       <use xlink:href="#DejaVuSerif-20" x="256.445312"/>
       <use xlink:href="#DejaVuSerif-50" x="288.232422"/>
       <use xlink:href="#DejaVuSerif-41" x="346.392578"/>
       <use xlink:href="#DejaVuSerif-52" x="418.609375"/>
       <use xlink:href="#DejaVuSerif-4e" x="493.902344"/>
       <use xlink:href="#DejaVuSerif-49" x="581.402344"/>
       <use xlink:href="#DejaVuSerif-56" x="620.904297"/>
       <use xlink:href="#DejaVuSerif-55" x="693.121094"/>
       <use xlink:href="#DejaVuSerif-54" x="777.398438"/>
       <use xlink:href="#DejaVuSerif-45" x="844.097656"/>
       <use xlink:href="#DejaVuSerif-30" x="917.095703"/>
       <use xlink:href="#DejaVuSerif-30" x="980.71875"/>
       <use xlink:href="#DejaVuSerif-30" x="1044.341797"/>
      </g>
     </g>
    </g>
    <g id="xtick_10">
     <g id="line2d_19">
      <path d="M 782.831939 459.089849 
L 782.831939 10.8 
" clip-path="url(#p100ad10c2b)" style="fill: none; stroke: #ffffff; stroke-width: 0.8; stroke-linecap: square"/>
     </g>
     <g id="line2d_20">
      <g>
       <use xlink:href="#m9a38951c54" x="782.831939" y="459.089849" style="stroke: #000000; stroke-width: 0.8"/>
      </g>
     </g>
     <g id="text_10">
      <!-- 861 - ACAILA-MA500 -->
      <g transform="translate(668.661992 539.182002) rotate(-30) scale(0.12 -0.12)">
       <use xlink:href="#DejaVuSerif-38"/>
       <use xlink:href="#DejaVuSerif-36" x="63.623047"/>
       <use xlink:href="#DejaVuSerif-31" x="127.246094"/>
       <use xlink:href="#DejaVuSerif-20" x="190.869141"/>
       <use xlink:href="#DejaVuSerif-2d" x="222.65625"/>
       <use xlink:href="#DejaVuSerif-20" x="256.445312"/>
       <use xlink:href="#DejaVuSerif-41" x="288.232422"/>
       <use xlink:href="#DejaVuSerif-43" x="360.449219"/>
       <use xlink:href="#DejaVuSerif-41" x="436.962891"/>
       <use xlink:href="#DejaVuSerif-49" x="509.179688"/>
       <use xlink:href="#DejaVuSerif-4c" x="548.681641"/>
       <use xlink:href="#DejaVuSerif-41" x="615.087891"/>
       <use xlink:href="#DejaVuSerif-2d" x="687.304688"/>
       <use xlink:href="#DejaVuSerif-4d" x="721.09375"/>
       <use xlink:href="#DejaVuSerif-41" x="823.486328"/>
       <use xlink:href="#DejaVuSerif-35" x="895.703125"/>
       <use xlink:href="#DejaVuSerif-30" x="959.326172"/>
       <use xlink:href="#DejaVuSerif-30" x="1022.949219"/>
      </g>
     </g>
    </g>
    <g id="xtick_11">
     <g id="line2d_21">
      <path d="M 854.413515 459.089849 
L 854.413515 10.8 
" clip-path="url(#p100ad10c2b)" style="fill: none; stroke: #ffffff; stroke-width: 0.8; stroke-linecap: square"/>
     </g>
     <g id="line2d_22">
      <g>
       <use xlink:href="#m9a38951c54" x="854.413515" y="459.089849" style="stroke: #000000; stroke-width: 0.8"/>
      </g>
     </g>
     <g id="text_11">
      <!-- 861 - IMPERA-MA500 -->
      <g transform="translate(737.062548 541.018564) rotate(-30) scale(0.12 -0.12)">
       <use xlink:href="#DejaVuSerif-38"/>
       <use xlink:href="#DejaVuSerif-36" x="63.623047"/>
       <use xlink:href="#DejaVuSerif-31" x="127.246094"/>
       <use xlink:href="#DejaVuSerif-20" x="190.869141"/>
       <use xlink:href="#DejaVuSerif-2d" x="222.65625"/>
       <use xlink:href="#DejaVuSerif-20" x="256.445312"/>
       <use xlink:href="#DejaVuSerif-49" x="288.232422"/>
       <use xlink:href="#DejaVuSerif-4d" x="327.734375"/>
       <use xlink:href="#DejaVuSerif-50" x="430.126953"/>
       <use xlink:href="#DejaVuSerif-45" x="497.412109"/>
       <use xlink:href="#DejaVuSerif-52" x="570.410156"/>
       <use xlink:href="#DejaVuSerif-41" x="645.703125"/>
       <use xlink:href="#DejaVuSerif-2d" x="717.919922"/>
       <use xlink:href="#DejaVuSerif-4d" x="751.708984"/>
       <use xlink:href="#DejaVuSerif-41" x="854.101562"/>
       <use xlink:href="#DejaVuSerif-35" x="926.318359"/>
       <use xlink:href="#DejaVuSerif-30" x="989.941406"/>
       <use xlink:href="#DejaVuSerif-30" x="1053.564453"/>
      </g>
     </g>
    </g>
    <g id="xtick_12">
     <g id="line2d_23">
      <path d="M 925.995091 459.089849 
L 925.995091 10.8 
" clip-path="url(#p100ad10c2b)" style="fill: none; stroke: #ffffff; stroke-width: 0.8; stroke-linecap: square"/>
     </g>
     <g id="line2d_24">
      <g>
       <use xlink:href="#m9a38951c54" x="925.995091" y="459.089849" style="stroke: #000000; stroke-width: 0.8"/>
      </g>
     </g>
     <g id="text_12">
      <!-- 861 - SLUIS2-MA500 -->
      <g transform="translate(813.255709 538.356064) rotate(-30) scale(0.12 -0.12)">
       <use xlink:href="#DejaVuSerif-38"/>
       <use xlink:href="#DejaVuSerif-36" x="63.623047"/>
       <use xlink:href="#DejaVuSerif-31" x="127.246094"/>
       <use xlink:href="#DejaVuSerif-20" x="190.869141"/>
       <use xlink:href="#DejaVuSerif-2d" x="222.65625"/>
       <use xlink:href="#DejaVuSerif-20" x="256.445312"/>
       <use xlink:href="#DejaVuSerif-53" x="288.232422"/>
       <use xlink:href="#DejaVuSerif-4c" x="356.738281"/>
       <use xlink:href="#DejaVuSerif-55" x="417.644531"/>
       <use xlink:href="#DejaVuSerif-49" x="501.921875"/>
       <use xlink:href="#DejaVuSerif-53" x="541.423828"/>
       <use xlink:href="#DejaVuSerif-32" x="609.929688"/>
       <use xlink:href="#DejaVuSerif-2d" x="673.552734"/>
       <use xlink:href="#DejaVuSerif-4d" x="707.341797"/>
       <use xlink:href="#DejaVuSerif-41" x="809.734375"/>
       <use xlink:href="#DejaVuSerif-35" x="881.951172"/>
       <use xlink:href="#DejaVuSerif-30" x="945.574219"/>
       <use xlink:href="#DejaVuSerif-30" x="1009.197266"/>
      </g>
     </g>
    </g>
    <g id="xtick_13">
     <g id="line2d_25">
      <path d="M 997.576667 459.089849 
L 997.576667 10.8 
" clip-path="url(#p100ad10c2b)" style="fill: none; stroke: #ffffff; stroke-width: 0.8; stroke-linecap: square"/>
     </g>
     <g id="line2d_26">
      <g>
       <use xlink:href="#m9a38951c54" x="997.576667" y="459.089849" style="stroke: #000000; stroke-width: 0.8"/>
      </g>
     </g>
     <g id="text_13">
      <!-- 861 - P.DUTR-MA500 -->
      <g transform="translate(884.842157 538.353252) rotate(-30) scale(0.12 -0.12)">
       <defs>
        <path id="DejaVuSerif-2e" d="M 603 325 
Q 603 500 722 622 
Q 841 744 1019 744 
Q 1191 744 1312 622 
Q 1434 500 1434 325 
Q 1434 153 1312 31 
Q 1191 -91 1019 -91 
Q 841 -91 722 29 
Q 603 150 603 325 
z
" transform="scale(0.015625)"/>
       </defs>
       <use xlink:href="#DejaVuSerif-38"/>
       <use xlink:href="#DejaVuSerif-36" x="63.623047"/>
       <use xlink:href="#DejaVuSerif-31" x="127.246094"/>
       <use xlink:href="#DejaVuSerif-20" x="190.869141"/>
       <use xlink:href="#DejaVuSerif-2d" x="222.65625"/>
       <use xlink:href="#DejaVuSerif-20" x="256.445312"/>
       <use xlink:href="#DejaVuSerif-50" x="288.232422"/>
       <use xlink:href="#DejaVuSerif-2e" x="335.267578"/>
       <use xlink:href="#DejaVuSerif-44" x="367.054688"/>
       <use xlink:href="#DejaVuSerif-55" x="447.230469"/>
       <use xlink:href="#DejaVuSerif-54" x="531.507812"/>
       <use xlink:href="#DejaVuSerif-52" x="598.207031"/>
       <use xlink:href="#DejaVuSerif-2d" x="673.5"/>
       <use xlink:href="#DejaVuSerif-4d" x="707.289062"/>
       <use xlink:href="#DejaVuSerif-41" x="809.681641"/>
       <use xlink:href="#DejaVuSerif-35" x="881.898438"/>
       <use xlink:href="#DejaVuSerif-30" x="945.521484"/>
       <use xlink:href="#DejaVuSerif-30" x="1009.144531"/>
      </g>
     </g>
    </g>
    <g id="xtick_14">
     <g id="line2d_27">
      <path d="M 1069.158243 459.089849 
L 1069.158243 10.8 
" clip-path="url(#p100ad10c2b)" style="fill: none; stroke: #ffffff; stroke-width: 0.8; stroke-linecap: square"/>
     </g>
     <g id="line2d_28">
      <g>
       <use xlink:href="#m9a38951c54" x="1069.158243" y="459.089849" style="stroke: #000000; stroke-width: 0.8"/>
      </g>
     </g>
     <g id="text_14">
      <!-- 861 - BACAB- -MA500 -->
      <g transform="translate(954.519018 539.452939) rotate(-30) scale(0.12 -0.12)">
       <use xlink:href="#DejaVuSerif-38"/>
       <use xlink:href="#DejaVuSerif-36" x="63.623047"/>
       <use xlink:href="#DejaVuSerif-31" x="127.246094"/>
       <use xlink:href="#DejaVuSerif-20" x="190.869141"/>
       <use xlink:href="#DejaVuSerif-2d" x="222.65625"/>
       <use xlink:href="#DejaVuSerif-20" x="256.445312"/>
       <use xlink:href="#DejaVuSerif-42" x="288.232422"/>
       <use xlink:href="#DejaVuSerif-41" x="361.71875"/>
       <use xlink:href="#DejaVuSerif-43" x="433.935547"/>
       <use xlink:href="#DejaVuSerif-41" x="510.449219"/>
       <use xlink:href="#DejaVuSerif-42" x="582.666016"/>
       <use xlink:href="#DejaVuSerif-2d" x="658.027344"/>
       <use xlink:href="#DejaVuSerif-2d" x="691.816406"/>
       <use xlink:href="#DejaVuSerif-4d" x="725.605469"/>
       <use xlink:href="#DejaVuSerif-41" x="827.998047"/>
       <use xlink:href="#DejaVuSerif-35" x="900.214844"/>
       <use xlink:href="#DejaVuSerif-30" x="963.837891"/>
       <use xlink:href="#DejaVuSerif-30" x="1027.460938"/>
      </g>
     </g>
    </g>
    <g id="xtick_15">
     <g id="line2d_29">
      <path d="M 1140.739819 459.089849 
L 1140.739819 10.8 
" clip-path="url(#p100ad10c2b)" style="fill: none; stroke: #ffffff; stroke-width: 0.8; stroke-linecap: square"/>
     </g>
     <g id="line2d_30">
      <g>
       <use xlink:href="#m9a38951c54" x="1140.739819" y="459.089849" style="stroke: #000000; stroke-width: 0.8"/>
      </g>
     </g>
     <g id="text_15">
      <!-- 861 - PNEVES-MA500 -->
      <g transform="translate(1021.78454 541.944814) rotate(-30) scale(0.12 -0.12)">
       <use xlink:href="#DejaVuSerif-38"/>
       <use xlink:href="#DejaVuSerif-36" x="63.623047"/>
       <use xlink:href="#DejaVuSerif-31" x="127.246094"/>
       <use xlink:href="#DejaVuSerif-20" x="190.869141"/>
       <use xlink:href="#DejaVuSerif-2d" x="222.65625"/>
       <use xlink:href="#DejaVuSerif-20" x="256.445312"/>
       <use xlink:href="#DejaVuSerif-50" x="288.232422"/>
       <use xlink:href="#DejaVuSerif-4e" x="355.517578"/>
       <use xlink:href="#DejaVuSerif-45" x="443.017578"/>
       <use xlink:href="#DejaVuSerif-56" x="516.015625"/>
       <use xlink:href="#DejaVuSerif-45" x="588.232422"/>
       <use xlink:href="#DejaVuSerif-53" x="661.230469"/>
       <use xlink:href="#DejaVuSerif-2d" x="733.361328"/>
       <use xlink:href="#DejaVuSerif-4d" x="767.150391"/>
       <use xlink:href="#DejaVuSerif-41" x="869.542969"/>
       <use xlink:href="#DejaVuSerif-35" x="941.759766"/>
       <use xlink:href="#DejaVuSerif-30" x="1005.382812"/>
       <use xlink:href="#DejaVuSerif-30" x="1069.005859"/>
      </g>
     </g>
    </g>
    <g id="text_16">
     <!-- Bus -->
     <g transform="translate(623.586522 561.023433) scale(0.17 -0.17)">
      <defs>
       <path id="DejaVuSerif-75" d="M 2266 3322 
L 3341 3322 
L 3341 331 
L 3884 331 
L 3884 0 
L 2766 0 
L 2766 588 
Q 2606 256 2353 82 
Q 2100 -91 1766 -91 
Q 1213 -91 952 223 
Q 691 538 691 1209 
L 691 2988 
L 172 2988 
L 172 3322 
L 1269 3322 
L 1269 1388 
Q 1269 781 1417 556 
Q 1566 331 1947 331 
Q 2347 331 2556 625 
Q 2766 919 2766 1478 
L 2766 2988 
L 2266 2988 
L 2266 3322 
z
" transform="scale(0.015625)"/>
       <path id="DejaVuSerif-73" d="M 359 184 
L 359 959 
L 691 959 
Q 703 588 923 403 
Q 1144 219 1575 219 
Q 1963 219 2166 364 
Q 2369 509 2369 788 
Q 2369 1006 2220 1140 
Q 2072 1275 1594 1428 
L 1178 1569 
Q 750 1706 558 1912 
Q 366 2119 366 2438 
Q 366 2894 700 3153 
Q 1034 3413 1625 3413 
Q 1888 3413 2178 3344 
Q 2469 3275 2778 3144 
L 2778 2419 
L 2447 2419 
Q 2434 2741 2221 2922 
Q 2009 3103 1644 3103 
Q 1281 3103 1095 2975 
Q 909 2847 909 2591 
Q 909 2381 1050 2254 
Q 1191 2128 1613 1997 
L 2069 1856 
Q 2541 1709 2748 1489 
Q 2956 1269 2956 922 
Q 2956 450 2595 179 
Q 2234 -91 1600 -91 
Q 1278 -91 972 -22 
Q 666 47 359 184 
z
" transform="scale(0.015625)"/>
      </defs>
      <use xlink:href="#DejaVuSerif-42"/>
      <use xlink:href="#DejaVuSerif-75" x="73.486328"/>
      <use xlink:href="#DejaVuSerif-73" x="137.890625"/>
     </g>
    </g>
   </g>
   <g id="matplotlib.axis_2">
    <g id="ytick_1">
     <g id="line2d_31">
      <path d="M 88.490653 438.713038 
L 1190.846922 438.713038 
" clip-path="url(#p100ad10c2b)" style="fill: none; stroke: #ffffff; stroke-width: 0.8; stroke-linecap: square"/>
     </g>
     <g id="line2d_32">
      <defs>
       <path id="madf4e37746" d="M 0 0 
L -3.5 0 
" style="stroke: #000000; stroke-width: 0.8"/>
      </defs>
      <g>
       <use xlink:href="#madf4e37746" x="88.490653" y="438.713038" style="stroke: #000000; stroke-width: 0.8"/>
      </g>
     </g>
     <g id="text_17">
      <!-- 0.0 -->
      <g transform="translate(57.635966 444.411866) scale(0.15 -0.15)">
       <use xlink:href="#DejaVuSerif-30"/>
       <use xlink:href="#DejaVuSerif-2e" x="63.623047"/>
       <use xlink:href="#DejaVuSerif-30" x="95.410156"/>
      </g>
     </g>
    </g>
    <g id="ytick_2">
     <g id="line2d_33">
      <path d="M 88.490653 356.756672 
L 1190.846922 356.756672 
" clip-path="url(#p100ad10c2b)" style="fill: none; stroke: #ffffff; stroke-width: 0.8; stroke-linecap: square"/>
     </g>
     <g id="line2d_34">
      <g>
       <use xlink:href="#madf4e37746" x="88.490653" y="356.756672" style="stroke: #000000; stroke-width: 0.8"/>
      </g>
     </g>
     <g id="text_18">
      <!-- 0.2 -->
      <g transform="translate(57.635966 362.4555) scale(0.15 -0.15)">
       <use xlink:href="#DejaVuSerif-30"/>
       <use xlink:href="#DejaVuSerif-2e" x="63.623047"/>
       <use xlink:href="#DejaVuSerif-32" x="95.410156"/>
      </g>
     </g>
    </g>
    <g id="ytick_3">
     <g id="line2d_35">
      <path d="M 88.490653 274.800307 
L 1190.846922 274.800307 
" clip-path="url(#p100ad10c2b)" style="fill: none; stroke: #ffffff; stroke-width: 0.8; stroke-linecap: square"/>
     </g>
     <g id="line2d_36">
      <g>
       <use xlink:href="#madf4e37746" x="88.490653" y="274.800307" style="stroke: #000000; stroke-width: 0.8"/>
      </g>
     </g>
     <g id="text_19">
      <!-- 0.4 -->
      <g transform="translate(57.635966 280.499135) scale(0.15 -0.15)">
       <use xlink:href="#DejaVuSerif-30"/>
       <use xlink:href="#DejaVuSerif-2e" x="63.623047"/>
       <use xlink:href="#DejaVuSerif-34" x="95.410156"/>
      </g>
     </g>
    </g>
    <g id="ytick_4">
     <g id="line2d_37">
      <path d="M 88.490653 192.843941 
L 1190.846922 192.843941 
" clip-path="url(#p100ad10c2b)" style="fill: none; stroke: #ffffff; stroke-width: 0.8; stroke-linecap: square"/>
     </g>
     <g id="line2d_38">
      <g>
       <use xlink:href="#madf4e37746" x="88.490653" y="192.843941" style="stroke: #000000; stroke-width: 0.8"/>
      </g>
     </g>
     <g id="text_20">
      <!-- 0.6 -->
      <g transform="translate(57.635966 198.542769) scale(0.15 -0.15)">
       <use xlink:href="#DejaVuSerif-30"/>
       <use xlink:href="#DejaVuSerif-2e" x="63.623047"/>
       <use xlink:href="#DejaVuSerif-36" x="95.410156"/>
      </g>
     </g>
    </g>
    <g id="ytick_5">
     <g id="line2d_39">
      <path d="M 88.490653 110.887576 
L 1190.846922 110.887576 
" clip-path="url(#p100ad10c2b)" style="fill: none; stroke: #ffffff; stroke-width: 0.8; stroke-linecap: square"/>
     </g>
     <g id="line2d_40">
      <g>
       <use xlink:href="#madf4e37746" x="88.490653" y="110.887576" style="stroke: #000000; stroke-width: 0.8"/>
      </g>
     </g>
     <g id="text_21">
      <!-- 0.8 -->
      <g transform="translate(57.635966 116.586404) scale(0.15 -0.15)">
       <use xlink:href="#DejaVuSerif-30"/>
       <use xlink:href="#DejaVuSerif-2e" x="63.623047"/>
       <use xlink:href="#DejaVuSerif-38" x="95.410156"/>
      </g>
     </g>
    </g>
    <g id="ytick_6">
     <g id="line2d_41">
      <path d="M 88.490653 28.93121 
L 1190.846922 28.93121 
" clip-path="url(#p100ad10c2b)" style="fill: none; stroke: #ffffff; stroke-width: 0.8; stroke-linecap: square"/>
     </g>
     <g id="line2d_42">
      <g>
       <use xlink:href="#madf4e37746" x="88.490653" y="28.93121" style="stroke: #000000; stroke-width: 0.8"/>
      </g>
     </g>
     <g id="text_22">
      <!-- 1.0 -->
      <g transform="translate(57.635966 34.630039) scale(0.15 -0.15)">
       <use xlink:href="#DejaVuSerif-31"/>
       <use xlink:href="#DejaVuSerif-2e" x="63.623047"/>
       <use xlink:href="#DejaVuSerif-30" x="95.410156"/>
      </g>
     </g>
    </g>
    <g id="text_23">
     <!-- Average Index (p.u) -->
     <g transform="translate(49.858778 319.930315) rotate(-90) scale(0.17 -0.17)">
      <defs>
       <path id="DejaVuSerif-76" d="M 1581 0 
L 359 2988 
L -19 2988 
L -19 3322 
L 1509 3322 
L 1509 2988 
L 978 2988 
L 1913 703 
L 2847 2988 
L 2350 2988 
L 2350 3322 
L 3597 3322 
L 3597 2988 
L 3225 2988 
L 2003 0 
L 1581 0 
z
" transform="scale(0.015625)"/>
       <path id="DejaVuSerif-65" d="M 3469 1600 
L 991 1600 
L 991 1575 
Q 991 903 1244 561 
Q 1497 219 1991 219 
Q 2369 219 2611 417 
Q 2853 616 2950 1006 
L 3413 1006 
Q 3275 459 2904 184 
Q 2534 -91 1931 -91 
Q 1203 -91 761 389 
Q 319 869 319 1663 
Q 319 2450 753 2931 
Q 1188 3413 1894 3413 
Q 2647 3413 3050 2948 
Q 3453 2484 3469 1600 
z
M 2791 1931 
Q 2772 2513 2545 2808 
Q 2319 3103 1894 3103 
Q 1497 3103 1269 2806 
Q 1041 2509 991 1931 
L 2791 1931 
z
" transform="scale(0.015625)"/>
       <path id="DejaVuSerif-72" d="M 3059 3328 
L 3059 2497 
L 2728 2497 
Q 2713 2744 2591 2866 
Q 2469 2988 2234 2988 
Q 1809 2988 1582 2694 
Q 1356 2400 1356 1850 
L 1356 331 
L 2022 331 
L 2022 0 
L 263 0 
L 263 331 
L 781 331 
L 781 2994 
L 231 2994 
L 231 3322 
L 1356 3322 
L 1356 2731 
Q 1525 3078 1790 3245 
Q 2056 3413 2438 3413 
Q 2578 3413 2733 3391 
Q 2888 3369 3059 3328 
z
" transform="scale(0.015625)"/>
       <path id="DejaVuSerif-61" d="M 2547 1044 
L 2547 1747 
L 1806 1747 
Q 1378 1747 1168 1562 
Q 959 1378 959 997 
Q 959 650 1171 447 
Q 1384 244 1747 244 
Q 2106 244 2326 466 
Q 2547 688 2547 1044 
z
M 3122 2075 
L 3122 331 
L 3634 331 
L 3634 0 
L 2547 0 
L 2547 359 
Q 2356 128 2106 18 
Q 1856 -91 1522 -91 
Q 969 -91 644 203 
Q 319 497 319 997 
Q 319 1513 691 1797 
Q 1063 2081 1741 2081 
L 2547 2081 
L 2547 2309 
Q 2547 2688 2317 2895 
Q 2088 3103 1672 3103 
Q 1328 3103 1125 2947 
Q 922 2791 872 2484 
L 575 2484 
L 575 3156 
Q 875 3284 1158 3348 
Q 1441 3413 1709 3413 
Q 2400 3413 2761 3070 
Q 3122 2728 3122 2075 
z
" transform="scale(0.015625)"/>
       <path id="DejaVuSerif-67" d="M 3359 2988 
L 3359 72 
Q 3359 -644 2965 -1033 
Q 2572 -1422 1844 -1422 
Q 1516 -1422 1216 -1362 
Q 916 -1303 641 -1184 
L 641 -488 
L 941 -488 
Q 997 -813 1206 -963 
Q 1416 -1113 1806 -1113 
Q 2313 -1113 2548 -827 
Q 2784 -541 2784 72 
L 2784 519 
Q 2616 206 2355 57 
Q 2094 -91 1709 -91 
Q 1097 -91 708 395 
Q 319 881 319 1663 
Q 319 2444 706 2928 
Q 1094 3413 1709 3413 
Q 2094 3413 2355 3264 
Q 2616 3116 2784 2803 
L 2784 3322 
L 3909 3322 
L 3909 2988 
L 3359 2988 
z
M 2784 1825 
Q 2784 2422 2554 2737 
Q 2325 3053 1888 3053 
Q 1444 3053 1217 2703 
Q 991 2353 991 1663 
Q 991 975 1217 622 
Q 1444 269 1888 269 
Q 2325 269 2554 583 
Q 2784 897 2784 1497 
L 2784 1825 
z
" transform="scale(0.015625)"/>
       <path id="DejaVuSerif-6e" d="M 263 0 
L 263 331 
L 781 331 
L 781 2988 
L 231 2988 
L 231 3322 
L 1356 3322 
L 1356 2731 
Q 1516 3069 1770 3241 
Q 2025 3413 2363 3413 
Q 2913 3413 3172 3097 
Q 3431 2781 3431 2113 
L 3431 331 
L 3944 331 
L 3944 0 
L 2356 0 
L 2356 331 
L 2853 331 
L 2853 1931 
Q 2853 2541 2703 2767 
Q 2553 2994 2175 2994 
Q 1775 2994 1565 2701 
Q 1356 2409 1356 1850 
L 1356 331 
L 1856 331 
L 1856 0 
L 263 0 
z
" transform="scale(0.015625)"/>
       <path id="DejaVuSerif-64" d="M 3359 331 
L 3909 331 
L 3909 0 
L 2784 0 
L 2784 519 
Q 2616 206 2355 57 
Q 2094 -91 1709 -91 
Q 1097 -91 708 395 
Q 319 881 319 1663 
Q 319 2444 706 2928 
Q 1094 3413 1709 3413 
Q 2094 3413 2355 3264 
Q 2616 3116 2784 2803 
L 2784 4531 
L 2241 4531 
L 2241 4863 
L 3359 4863 
L 3359 331 
z
M 2784 1497 
L 2784 1825 
Q 2784 2422 2554 2737 
Q 2325 3053 1888 3053 
Q 1444 3053 1217 2703 
Q 991 2353 991 1663 
Q 991 975 1217 622 
Q 1444 269 1888 269 
Q 2325 269 2554 583 
Q 2784 897 2784 1497 
z
" transform="scale(0.015625)"/>
       <path id="DejaVuSerif-78" d="M 1863 2028 
L 2559 2988 
L 2113 2988 
L 2113 3322 
L 3391 3322 
L 3391 2988 
L 2950 2988 
L 2059 1759 
L 3097 331 
L 3531 331 
L 3531 0 
L 1997 0 
L 1997 331 
L 2419 331 
L 1697 1325 
L 972 331 
L 1403 331 
L 1403 0 
L 141 0 
L 141 331 
L 581 331 
L 1497 1594 
L 488 2988 
L 78 2988 
L 78 3322 
L 1563 3322 
L 1563 2988 
L 1166 2988 
L 1863 2028 
z
" transform="scale(0.015625)"/>
       <path id="DejaVuSerif-28" d="M 2041 -997 
Q 1281 -656 893 83 
Q 506 822 506 1931 
Q 506 3044 893 3783 
Q 1281 4522 2041 4863 
L 2041 4556 
Q 1559 4225 1350 3623 
Q 1141 3022 1141 1931 
Q 1141 844 1350 242 
Q 1559 -359 2041 -691 
L 2041 -997 
z
" transform="scale(0.015625)"/>
       <path id="DejaVuSerif-70" d="M 1313 1825 
L 1313 1497 
Q 1313 897 1542 583 
Q 1772 269 2209 269 
Q 2650 269 2876 622 
Q 3103 975 3103 1663 
Q 3103 2353 2876 2703 
Q 2650 3053 2209 3053 
Q 1772 3053 1542 2737 
Q 1313 2422 1313 1825 
z
M 738 2988 
L 184 2988 
L 184 3322 
L 1313 3322 
L 1313 2803 
Q 1481 3116 1742 3264 
Q 2003 3413 2388 3413 
Q 3000 3413 3387 2928 
Q 3775 2444 3775 1663 
Q 3775 881 3387 395 
Q 3000 -91 2388 -91 
Q 2003 -91 1742 57 
Q 1481 206 1313 519 
L 1313 -997 
L 1856 -997 
L 1856 -1331 
L 184 -1331 
L 184 -997 
L 738 -997 
L 738 2988 
z
" transform="scale(0.015625)"/>
       <path id="DejaVuSerif-29" d="M 453 -997 
L 453 -691 
Q 934 -359 1145 242 
Q 1356 844 1356 1931 
Q 1356 3022 1145 3623 
Q 934 4225 453 4556 
L 453 4863 
Q 1216 4522 1603 3783 
Q 1991 3044 1991 1931 
Q 1991 822 1603 83 
Q 1216 -656 453 -997 
z
" transform="scale(0.015625)"/>
      </defs>
      <use xlink:href="#DejaVuSerif-41"/>
      <use xlink:href="#DejaVuSerif-76" x="68.216797"/>
      <use xlink:href="#DejaVuSerif-65" x="124.710938"/>
      <use xlink:href="#DejaVuSerif-72" x="183.890625"/>
      <use xlink:href="#DejaVuSerif-61" x="231.693359"/>
      <use xlink:href="#DejaVuSerif-67" x="291.3125"/>
      <use xlink:href="#DejaVuSerif-65" x="355.326172"/>
      <use xlink:href="#DejaVuSerif-20" x="414.505859"/>
      <use xlink:href="#DejaVuSerif-49" x="446.292969"/>
      <use xlink:href="#DejaVuSerif-6e" x="485.794922"/>
      <use xlink:href="#DejaVuSerif-64" x="550.199219"/>
      <use xlink:href="#DejaVuSerif-65" x="614.212891"/>
      <use xlink:href="#DejaVuSerif-78" x="673.392578"/>
      <use xlink:href="#DejaVuSerif-20" x="729.789062"/>
      <use xlink:href="#DejaVuSerif-28" x="761.576172"/>
      <use xlink:href="#DejaVuSerif-70" x="800.589844"/>
      <use xlink:href="#DejaVuSerif-2e" x="864.603516"/>
      <use xlink:href="#DejaVuSerif-75" x="896.390625"/>
      <use xlink:href="#DejaVuSerif-29" x="960.794922"/>
     </g>
    </g>
   </g>
   <g id="PolyCollection_1">
    <defs>
     <path id="mea47c9da1a" d="M 138.597756 -520.391987 
L 138.597756 -488.715847 
L 210.179332 -461.834168 
L 281.760908 -441.836818 
L 353.342484 -410.73437 
L 424.92406 -403.52221 
L 496.505636 -392.744942 
L 568.087212 -399.38341 
L 639.668788 -365.002725 
L 711.250363 -137.286962 
L 711.250363 -465.194375 
L 711.250363 -465.194375 
L 639.668788 -445.319955 
L 568.087212 -458.35103 
L 496.505636 -467.407197 
L 424.92406 -474.127635 
L 353.342484 -476.463388 
L 281.760908 -501.29616 
L 210.179332 -518.34308 
L 138.597756 -520.391987 
z
" style="stroke: #ffa500; stroke-opacity: 0.2; stroke-width: 0.5"/>
    </defs>
    <g clip-path="url(#p100ad10c2b)">
     <use xlink:href="#mea47c9da1a" x="0" y="576" style="fill: #ffa500; fill-opacity: 0.2; stroke: #ffa500; stroke-opacity: 0.2; stroke-width: 0.5"/>
    </g>
   </g>
   <g id="PolyCollection_2">
    <defs>
     <path id="m92cf0d539a" d="M 782.831939 -410.488509 
L 782.831939 -410.488509 
L 854.413515 -290.832217 
L 925.995091 -342.177876 
L 997.576667 -333.654416 
L 1069.158243 -137.286962 
L 1140.739819 -137.286962 
L 1140.739819 -137.286962 
L 1140.739819 -137.286962 
L 1069.158243 -137.286962 
L 997.576667 -350.701336 
L 925.995091 -342.177876 
L 854.413515 -393.523535 
L 782.831939 -410.488509 
z
" style="stroke: #a52a2a; stroke-opacity: 0.2; stroke-width: 0.5"/>
    </defs>
    <g clip-path="url(#p100ad10c2b)">
     <use xlink:href="#m92cf0d539a" x="0" y="576" style="fill: #a52a2a; fill-opacity: 0.2; stroke: #a52a2a; stroke-opacity: 0.2; stroke-width: 0.5"/>
    </g>
   </g>
   <g id="PolyCollection_3">
    <defs>
     <path id="me1b89243e1" d="M 782.831939 -137.286962 
L 782.831939 -137.286962 
L 854.413515 -137.286962 
L 925.995091 -137.286962 
L 997.576667 -137.286962 
L 1069.158243 -137.286962 
L 1140.739819 -137.286962 
L 1140.739819 -137.286962 
L 1140.739819 -137.286962 
L 1069.158243 -137.286962 
L 997.576667 -137.286962 
L 925.995091 -137.286962 
L 854.413515 -137.286962 
L 782.831939 -137.286962 
z
" style="stroke: #228b22; stroke-opacity: 0.2; stroke-width: 0.5"/>
    </defs>
    <g clip-path="url(#p100ad10c2b)">
     <use xlink:href="#me1b89243e1" x="0" y="576" style="fill: #228b22; fill-opacity: 0.2; stroke: #228b22; stroke-opacity: 0.2; stroke-width: 0.5"/>
    </g>
   </g>
   <g id="PolyCollection_4">
    <defs>
     <path id="m774008dc89" d="M 138.597756 -544.823189 
L 138.597756 -466.32537 
L 210.179332 -137.286962 
L 281.760908 -320.156203 
L 353.342484 -277.629044 
L 424.92406 -241.215829 
L 496.505636 -169.618749 
L 568.087212 -357.249651 
L 639.668788 -137.286962 
L 711.250363 -137.286962 
L 711.250363 -137.286962 
L 711.250363 -137.286962 
L 639.668788 -460.97363 
L 568.087212 -543.298806 
L 496.505636 -480.479233 
L 424.92406 -531.415115 
L 353.342484 -538.815787 
L 281.760908 -542.372687 
L 210.179332 -251.083379 
L 138.597756 -544.823189 
z
" style="stroke: #0000ff; stroke-opacity: 0.2; stroke-width: 0.5"/>
    </defs>
    <g clip-path="url(#p100ad10c2b)">
     <use xlink:href="#m774008dc89" x="0" y="576" style="fill: #0000ff; fill-opacity: 0.2; stroke: #0000ff; stroke-opacity: 0.2; stroke-width: 0.5"/>
    </g>
   </g>
   <g id="PolyCollection_5">
    <defs>
     <path id="m59727a52a2" d="M 138.597756 -137.286962 
L 138.597756 -137.286962 
L 210.179332 -137.286962 
L 281.760908 -137.286962 
L 353.342484 -137.286962 
L 424.92406 -137.286962 
L 496.505636 -137.286962 
L 568.087212 -137.286962 
L 639.668788 -137.286962 
L 711.250363 -137.286962 
L 711.250363 -137.286962 
L 711.250363 -137.286962 
L 639.668788 -137.286962 
L 568.087212 -137.286962 
L 496.505636 -137.286962 
L 424.92406 -137.286962 
L 353.342484 -137.286962 
L 281.760908 -137.286962 
L 210.179332 -137.286962 
L 138.597756 -137.286962 
z
" style="stroke: #008000; stroke-opacity: 0.2; stroke-width: 0.5"/>
    </defs>
    <g clip-path="url(#p100ad10c2b)">
     <use xlink:href="#m59727a52a2" x="0" y="576" style="fill: #008000; fill-opacity: 0.2; stroke: #008000; stroke-opacity: 0.2; stroke-width: 0.5"/>
    </g>
   </g>
   <g id="PolyCollection_6">
    <defs>
     <path id="m258b079c88" d="M 782.831939 -137.286962 
L 782.831939 -137.286962 
L 854.413515 -137.286962 
L 925.995091 -137.286962 
L 997.576667 -137.286962 
L 1069.158243 -137.286962 
L 1140.739819 -137.286962 
L 1140.739819 -137.286962 
L 1140.739819 -137.286962 
L 1069.158243 -137.286962 
L 997.576667 -137.286962 
L 925.995091 -137.286962 
L 854.413515 -137.286962 
L 782.831939 -137.286962 
z
" style="stroke: #4b0082; stroke-opacity: 0.2; stroke-width: 0.5"/>
    </defs>
    <g clip-path="url(#p100ad10c2b)">
     <use xlink:href="#m258b079c88" x="0" y="576" style="fill: #4b0082; fill-opacity: 0.2; stroke: #4b0082; stroke-opacity: 0.2; stroke-width: 0.5"/>
    </g>
   </g>
   <g id="PolyCollection_7">
    <defs>
     <path id="mbddcdadfa8" d="M 782.831939 -137.286962 
L 782.831939 -137.286962 
L 854.413515 -137.286962 
L 925.995091 -137.286962 
L 997.576667 -137.286962 
L 1069.158243 -137.286962 
L 1140.739819 -342.087724 
L 1140.739819 -543.438126 
L 1140.739819 -543.438126 
L 1069.158243 -137.286962 
L 997.576667 -137.286962 
L 925.995091 -137.286962 
L 854.413515 -137.286962 
L 782.831939 -137.286962 
z
" style="stroke: #87ceeb; stroke-opacity: 0.2; stroke-width: 0.5"/>
    </defs>
    <g clip-path="url(#p100ad10c2b)">
     <use xlink:href="#mbddcdadfa8" x="0" y="576" style="fill: #87ceeb; fill-opacity: 0.2; stroke: #87ceeb; stroke-opacity: 0.2; stroke-width: 0.5"/>
    </g>
   </g>
   <g id="line2d_43">
    <path d="M 138.597756 71.538941 
L 210.179332 89.343785 
L 281.760908 106.077804 
L 353.342484 133.418306 
L 424.92406 138.336997 
L 496.505636 146.029577 
L 568.087212 147.373466 
L 639.668788 169.239716 
L 711.250363 337.746043 
" clip-path="url(#p100ad10c2b)" style="fill: none; stroke: #ffa500; stroke-width: 1.5; stroke-linecap: square"/>
    <defs>
     <path id="m2decfe65cc" d="M 0 -6 
L -6 6 
L 6 6 
z
" style="stroke: #ffa500; stroke-width: 2; stroke-linejoin: miter"/>
    </defs>
    <g clip-path="url(#p100ad10c2b)">
     <use xlink:href="#m2decfe65cc" x="138.597756" y="71.538941" style="fill-opacity: 0; stroke: #ffa500; stroke-width: 2; stroke-linejoin: miter"/>
     <use xlink:href="#m2decfe65cc" x="210.179332" y="89.343785" style="fill-opacity: 0; stroke: #ffa500; stroke-width: 2; stroke-linejoin: miter"/>
     <use xlink:href="#m2decfe65cc" x="281.760908" y="106.077804" style="fill-opacity: 0; stroke: #ffa500; stroke-width: 2; stroke-linejoin: miter"/>
     <use xlink:href="#m2decfe65cc" x="353.342484" y="133.418306" style="fill-opacity: 0; stroke: #ffa500; stroke-width: 2; stroke-linejoin: miter"/>
     <use xlink:href="#m2decfe65cc" x="424.92406" y="138.336997" style="fill-opacity: 0; stroke: #ffa500; stroke-width: 2; stroke-linejoin: miter"/>
     <use xlink:href="#m2decfe65cc" x="496.505636" y="146.029577" style="fill-opacity: 0; stroke: #ffa500; stroke-width: 2; stroke-linejoin: miter"/>
     <use xlink:href="#m2decfe65cc" x="568.087212" y="147.373466" style="fill-opacity: 0; stroke: #ffa500; stroke-width: 2; stroke-linejoin: miter"/>
     <use xlink:href="#m2decfe65cc" x="639.668788" y="169.239716" style="fill-opacity: 0; stroke: #ffa500; stroke-width: 2; stroke-linejoin: miter"/>
     <use xlink:href="#m2decfe65cc" x="711.250363" y="337.746043" style="fill-opacity: 0; stroke: #ffa500; stroke-width: 2; stroke-linejoin: miter"/>
    </g>
   </g>
   <g id="line2d_44">
    <path d="M 782.831939 164.456948 
L 854.413515 211.881906 
L 925.995091 233.779053 
L 997.576667 237.425378 
L 1069.158243 384.701433 
L 1140.739819 438.713038 
" clip-path="url(#p100ad10c2b)" style="fill: none; stroke-dasharray: 6,2.25; stroke-dashoffset: 0; stroke: #a52a2a; stroke-width: 1.5"/>
    <defs>
     <path id="mcdc7656996" d="M 0 -6 
L -6 6 
L 6 6 
z
" style="stroke: #a52a2a; stroke-width: 2; stroke-linejoin: miter"/>
    </defs>
    <g clip-path="url(#p100ad10c2b)">
     <use xlink:href="#mcdc7656996" x="782.831939" y="164.456948" style="fill-opacity: 0; stroke: #a52a2a; stroke-width: 2; stroke-linejoin: miter"/>
     <use xlink:href="#mcdc7656996" x="854.413515" y="211.881906" style="fill-opacity: 0; stroke: #a52a2a; stroke-width: 2; stroke-linejoin: miter"/>
     <use xlink:href="#mcdc7656996" x="925.995091" y="233.779053" style="fill-opacity: 0; stroke: #a52a2a; stroke-width: 2; stroke-linejoin: miter"/>
     <use xlink:href="#mcdc7656996" x="997.576667" y="237.425378" style="fill-opacity: 0; stroke: #a52a2a; stroke-width: 2; stroke-linejoin: miter"/>
     <use xlink:href="#mcdc7656996" x="1069.158243" y="384.701433" style="fill-opacity: 0; stroke: #a52a2a; stroke-width: 2; stroke-linejoin: miter"/>
     <use xlink:href="#mcdc7656996" x="1140.739819" y="438.713038" style="fill-opacity: 0; stroke: #a52a2a; stroke-width: 2; stroke-linejoin: miter"/>
    </g>
   </g>
   <g id="line2d_45">
    <path d="M 782.831939 438.713038 
L 854.413515 438.713038 
L 925.995091 438.713038 
L 997.576667 438.713038 
L 1069.158243 438.713038 
L 1140.739819 438.713038 
" clip-path="url(#p100ad10c2b)" style="fill: none; stroke-dasharray: 1.5,1.5; stroke-dashoffset: 0; stroke: #228b22; stroke-width: 1.5"/>
    <defs>
     <path id="m16e836fb13" d="M 0 -6 
L -6 6 
L 6 6 
z
" style="stroke: #228b22; stroke-width: 2; stroke-linejoin: miter"/>
    </defs>
    <g clip-path="url(#p100ad10c2b)">
     <use xlink:href="#m16e836fb13" x="782.831939" y="438.713038" style="fill-opacity: 0; stroke: #228b22; stroke-width: 2; stroke-linejoin: miter"/>
     <use xlink:href="#m16e836fb13" x="854.413515" y="438.713038" style="fill-opacity: 0; stroke: #228b22; stroke-width: 2; stroke-linejoin: miter"/>
     <use xlink:href="#m16e836fb13" x="925.995091" y="438.713038" style="fill-opacity: 0; stroke: #228b22; stroke-width: 2; stroke-linejoin: miter"/>
     <use xlink:href="#m16e836fb13" x="997.576667" y="438.713038" style="fill-opacity: 0; stroke: #228b22; stroke-width: 2; stroke-linejoin: miter"/>
     <use xlink:href="#m16e836fb13" x="1069.158243" y="438.713038" style="fill-opacity: 0; stroke: #228b22; stroke-width: 2; stroke-linejoin: miter"/>
     <use xlink:href="#m16e836fb13" x="1140.739819" y="438.713038" style="fill-opacity: 0; stroke: #228b22; stroke-width: 2; stroke-linejoin: miter"/>
    </g>
   </g>
   <g id="line2d_46">
    <path d="M 138.597756 77.205639 
L 210.179332 355.362753 
L 281.760908 152.844227 
L 353.342484 174.266315 
L 424.92406 193.832368 
L 496.505636 239.252208 
L 568.087212 136.492116 
L 639.668788 256.547256 
L 711.250363 438.713038 
" clip-path="url(#p100ad10c2b)" style="fill: none; stroke-dasharray: 4.5,1.875,2.25,1.875; stroke-dashoffset: 0; stroke: #0000ff; stroke-width: 1.5"/>
    <defs>
     <path id="m61c07a9ac4" d="M 0 6 
C 1.591219 6 3.117479 5.367802 4.242641 4.242641 
C 5.367802 3.117479 6 1.591219 6 0 
C 6 -1.591219 5.367802 -3.117479 4.242641 -4.242641 
C 3.117479 -5.367802 1.591219 -6 0 -6 
C -1.591219 -6 -3.117479 -5.367802 -4.242641 -4.242641 
C -5.367802 -3.117479 -6 -1.591219 -6 0 
C -6 1.591219 -5.367802 3.117479 -4.242641 4.242641 
C -3.117479 5.367802 -1.591219 6 0 6 
z
" style="stroke: #0000ff; stroke-width: 2"/>
    </defs>
    <g clip-path="url(#p100ad10c2b)">
     <use xlink:href="#m61c07a9ac4" x="138.597756" y="77.205639" style="fill-opacity: 0; stroke: #0000ff; stroke-width: 2"/>
     <use xlink:href="#m61c07a9ac4" x="210.179332" y="355.362753" style="fill-opacity: 0; stroke: #0000ff; stroke-width: 2"/>
     <use xlink:href="#m61c07a9ac4" x="281.760908" y="152.844227" style="fill-opacity: 0; stroke: #0000ff; stroke-width: 2"/>
     <use xlink:href="#m61c07a9ac4" x="353.342484" y="174.266315" style="fill-opacity: 0; stroke: #0000ff; stroke-width: 2"/>
     <use xlink:href="#m61c07a9ac4" x="424.92406" y="193.832368" style="fill-opacity: 0; stroke: #0000ff; stroke-width: 2"/>
     <use xlink:href="#m61c07a9ac4" x="496.505636" y="239.252208" style="fill-opacity: 0; stroke: #0000ff; stroke-width: 2"/>
     <use xlink:href="#m61c07a9ac4" x="568.087212" y="136.492116" style="fill-opacity: 0; stroke: #0000ff; stroke-width: 2"/>
     <use xlink:href="#m61c07a9ac4" x="639.668788" y="256.547256" style="fill-opacity: 0; stroke: #0000ff; stroke-width: 2"/>
     <use xlink:href="#m61c07a9ac4" x="711.250363" y="438.713038" style="fill-opacity: 0; stroke: #0000ff; stroke-width: 2"/>
    </g>
   </g>
   <g id="line2d_47">
    <path d="M 138.597756 438.713038 
L 210.179332 438.713038 
L 281.760908 438.554144 
L 353.342484 438.515595 
L 424.92406 438.410638 
L 496.505636 438.469155 
L 568.087212 438.713038 
L 639.668788 438.439121 
L 711.250363 438.692098 
" clip-path="url(#p100ad10c2b)" style="fill: none; stroke-dasharray: 7.5,1.5,1.5,1.5; stroke-dashoffset: 0; stroke: #008000; stroke-width: 1.5"/>
    <defs>
     <path id="m2cf1c3b10c" d="M 0 6 
C 1.591219 6 3.117479 5.367802 4.242641 4.242641 
C 5.367802 3.117479 6 1.591219 6 0 
C 6 -1.591219 5.367802 -3.117479 4.242641 -4.242641 
C 3.117479 -5.367802 1.591219 -6 0 -6 
C -1.591219 -6 -3.117479 -5.367802 -4.242641 -4.242641 
C -5.367802 -3.117479 -6 -1.591219 -6 0 
C -6 1.591219 -5.367802 3.117479 -4.242641 4.242641 
C -3.117479 5.367802 -1.591219 6 0 6 
z
" style="stroke: #008000; stroke-width: 2"/>
    </defs>
    <g clip-path="url(#p100ad10c2b)">
     <use xlink:href="#m2cf1c3b10c" x="138.597756" y="438.713038" style="fill-opacity: 0; stroke: #008000; stroke-width: 2"/>
     <use xlink:href="#m2cf1c3b10c" x="210.179332" y="438.713038" style="fill-opacity: 0; stroke: #008000; stroke-width: 2"/>
     <use xlink:href="#m2cf1c3b10c" x="281.760908" y="438.554144" style="fill-opacity: 0; stroke: #008000; stroke-width: 2"/>
     <use xlink:href="#m2cf1c3b10c" x="353.342484" y="438.515595" style="fill-opacity: 0; stroke: #008000; stroke-width: 2"/>
     <use xlink:href="#m2cf1c3b10c" x="424.92406" y="438.410638" style="fill-opacity: 0; stroke: #008000; stroke-width: 2"/>
     <use xlink:href="#m2cf1c3b10c" x="496.505636" y="438.469155" style="fill-opacity: 0; stroke: #008000; stroke-width: 2"/>
     <use xlink:href="#m2cf1c3b10c" x="568.087212" y="438.713038" style="fill-opacity: 0; stroke: #008000; stroke-width: 2"/>
     <use xlink:href="#m2cf1c3b10c" x="639.668788" y="438.439121" style="fill-opacity: 0; stroke: #008000; stroke-width: 2"/>
     <use xlink:href="#m2cf1c3b10c" x="711.250363" y="438.692098" style="fill-opacity: 0; stroke: #008000; stroke-width: 2"/>
    </g>
   </g>
   <g id="line2d_48">
    <path d="M 782.831939 438.713038 
L 854.413515 438.713038 
L 925.995091 438.713038 
L 997.576667 438.713038 
L 1069.158243 438.713038 
L 1140.739819 438.713038 
" clip-path="url(#p100ad10c2b)" style="fill: none; stroke-dasharray: 4.5,1.875,1.875,1.875,1.875,1.875; stroke-dashoffset: 0; stroke: #4b0082; stroke-width: 1.5"/>
    <defs>
     <path id="mf6678c67f9" d="M 0 6 
C 1.591219 6 3.117479 5.367802 4.242641 4.242641 
C 5.367802 3.117479 6 1.591219 6 0 
C 6 -1.591219 5.367802 -3.117479 4.242641 -4.242641 
C 3.117479 -5.367802 1.591219 -6 0 -6 
C -1.591219 -6 -3.117479 -5.367802 -4.242641 -4.242641 
C -5.367802 -3.117479 -6 -1.591219 -6 0 
C -6 1.591219 -5.367802 3.117479 -4.242641 4.242641 
C -3.117479 5.367802 -1.591219 6 0 6 
z
" style="stroke: #4b0082; stroke-width: 2"/>
    </defs>
    <g clip-path="url(#p100ad10c2b)">
     <use xlink:href="#mf6678c67f9" x="782.831939" y="438.713038" style="fill-opacity: 0; stroke: #4b0082; stroke-width: 2"/>
     <use xlink:href="#mf6678c67f9" x="854.413515" y="438.713038" style="fill-opacity: 0; stroke: #4b0082; stroke-width: 2"/>
     <use xlink:href="#mf6678c67f9" x="925.995091" y="438.713038" style="fill-opacity: 0; stroke: #4b0082; stroke-width: 2"/>
     <use xlink:href="#mf6678c67f9" x="997.576667" y="438.713038" style="fill-opacity: 0; stroke: #4b0082; stroke-width: 2"/>
     <use xlink:href="#mf6678c67f9" x="1069.158243" y="438.713038" style="fill-opacity: 0; stroke: #4b0082; stroke-width: 2"/>
     <use xlink:href="#mf6678c67f9" x="1140.739819" y="438.713038" style="fill-opacity: 0; stroke: #4b0082; stroke-width: 2"/>
    </g>
   </g>
   <g id="line2d_49">
    <path d="M 782.831939 438.713038 
L 854.413515 438.713038 
L 925.995091 438.677431 
L 997.576667 438.713038 
L 1069.158243 438.687662 
L 1140.739819 134.094293 
" clip-path="url(#p100ad10c2b)" style="fill: none; stroke-dasharray: 6,1.5,6,1.5,1.5,1.5; stroke-dashoffset: 0; stroke: #87ceeb; stroke-width: 1.5"/>
    <defs>
     <path id="me46a9d3c63" d="M 0 6 
C 1.591219 6 3.117479 5.367802 4.242641 4.242641 
C 5.367802 3.117479 6 1.591219 6 0 
C 6 -1.591219 5.367802 -3.117479 4.242641 -4.242641 
C 3.117479 -5.367802 1.591219 -6 0 -6 
C -1.591219 -6 -3.117479 -5.367802 -4.242641 -4.242641 
C -5.367802 -3.117479 -6 -1.591219 -6 0 
C -6 1.591219 -5.367802 3.117479 -4.242641 4.242641 
C -3.117479 5.367802 -1.591219 6 0 6 
z
" style="stroke: #87ceeb; stroke-width: 2"/>
    </defs>
    <g clip-path="url(#p100ad10c2b)">
     <use xlink:href="#me46a9d3c63" x="782.831939" y="438.713038" style="fill-opacity: 0; stroke: #87ceeb; stroke-width: 2"/>
     <use xlink:href="#me46a9d3c63" x="854.413515" y="438.713038" style="fill-opacity: 0; stroke: #87ceeb; stroke-width: 2"/>
     <use xlink:href="#me46a9d3c63" x="925.995091" y="438.677431" style="fill-opacity: 0; stroke: #87ceeb; stroke-width: 2"/>
     <use xlink:href="#me46a9d3c63" x="997.576667" y="438.713038" style="fill-opacity: 0; stroke: #87ceeb; stroke-width: 2"/>
     <use xlink:href="#me46a9d3c63" x="1069.158243" y="438.687662" style="fill-opacity: 0; stroke: #87ceeb; stroke-width: 2"/>
     <use xlink:href="#me46a9d3c63" x="1140.739819" y="134.094293" style="fill-opacity: 0; stroke: #87ceeb; stroke-width: 2"/>
    </g>
   </g>
   <g id="line2d_50"/>
   <g id="line2d_51"/>
   <g id="line2d_52"/>
   <g id="line2d_53"/>
   <g id="line2d_54"/>
   <g id="line2d_55"/>
   <g id="line2d_56"/>
   <g id="patch_3">
    <path d="M 88.490653 459.089849 
L 88.490653 10.8 
" style="fill: none; stroke: #000000; stroke-width: 1.2; stroke-linejoin: miter; stroke-linecap: square"/>
   </g>
   <g id="patch_4">
    <path d="M 1190.846922 459.089849 
L 1190.846922 10.8 
" style="fill: none; stroke: #000000; stroke-width: 1.2; stroke-linejoin: miter; stroke-linecap: square"/>
   </g>
   <g id="patch_5">
    <path d="M 88.490653 459.089849 
L 1190.846922 459.089849 
" style="fill: none; stroke: #000000; stroke-width: 1.2; stroke-linejoin: miter; stroke-linecap: square"/>
   </g>
   <g id="patch_6">
    <path d="M 88.490653 10.8 
L 1190.846922 10.8 
" style="fill: none; stroke: #000000; stroke-width: 1.2; stroke-linejoin: miter; stroke-linecap: square"/>
   </g>
   <g id="legend_1">
    <g id="text_24">
     <!-- Indices -->
     <g transform="translate(1213.546453 33.897656) scale(0.15 -0.15)">
      <defs>
       <path id="DejaVuSerif-69" d="M 622 4353 
Q 622 4497 726 4603 
Q 831 4709 978 4709 
Q 1122 4709 1226 4603 
Q 1331 4497 1331 4353 
Q 1331 4206 1228 4103 
Q 1125 4000 978 4000 
Q 831 4000 726 4103 
Q 622 4206 622 4353 
z
M 1356 331 
L 1900 331 
L 1900 0 
L 231 0 
L 231 331 
L 781 331 
L 781 2988 
L 231 2988 
L 231 3322 
L 1356 3322 
L 1356 331 
z
" transform="scale(0.015625)"/>
       <path id="DejaVuSerif-63" d="M 3291 997 
Q 3169 466 2822 187 
Q 2475 -91 1925 -91 
Q 1200 -91 759 389 
Q 319 869 319 1663 
Q 319 2459 759 2936 
Q 1200 3413 1925 3413 
Q 2241 3413 2553 3339 
Q 2866 3266 3181 3116 
L 3181 2266 
L 2847 2266 
Q 2781 2703 2561 2903 
Q 2341 3103 1931 3103 
Q 1466 3103 1228 2742 
Q 991 2381 991 1663 
Q 991 944 1227 581 
Q 1463 219 1931 219 
Q 2303 219 2525 412 
Q 2747 606 2828 997 
L 3291 997 
z
" transform="scale(0.015625)"/>
      </defs>
      <use xlink:href="#DejaVuSerif-49"/>
      <use xlink:href="#DejaVuSerif-6e" x="39.501953"/>
      <use xlink:href="#DejaVuSerif-64" x="103.90625"/>
      <use xlink:href="#DejaVuSerif-69" x="167.919922"/>
      <use xlink:href="#DejaVuSerif-63" x="199.902344"/>
      <use xlink:href="#DejaVuSerif-65" x="255.908203"/>
      <use xlink:href="#DejaVuSerif-73" x="315.087891"/>
     </g>
    </g>
    <g id="line2d_57">
     <g>
      <use xlink:href="#m2decfe65cc" x="1215.546922" y="50.927188" style="fill-opacity: 0; stroke: #ffa500; stroke-width: 2; stroke-linejoin: miter"/>
     </g>
    </g>
    <g id="text_25">
     <!-- $\mathrm{RPI}_{PV}^\mathrm{ind}$ -->
     <g transform="translate(1238.946922 55.477188) scale(0.13 -0.13)">
      <defs>
       <path id="DejaVuSerif-Italic-50" d="M 1594 2375 
L 2419 2375 
Q 2884 2375 3176 2626 
Q 3469 2878 3559 3353 
Q 3653 3831 3458 4081 
Q 3263 4331 2797 4331 
L 1972 4331 
L 1594 2375 
z
M -97 0 
L -34 331 
L 559 331 
L 1338 4331 
L 744 4331 
L 809 4666 
L 3016 4666 
Q 3716 4666 4056 4311 
Q 4397 3956 4278 3353 
Q 4163 2753 3684 2397 
Q 3206 2041 2506 2041 
L 1528 2041 
L 1194 331 
L 1916 331 
L 1853 0 
L -97 0 
z
" transform="scale(0.015625)"/>
       <path id="DejaVuSerif-Italic-56" d="M 1506 4331 
L 2191 750 
L 4259 4331 
L 3734 4331 
L 3800 4666 
L 5169 4666 
L 5103 4331 
L 4650 4331 
L 2144 0 
L 1606 0 
L 791 4331 
L 325 4331 
L 391 4666 
L 2091 4666 
L 2025 4331 
L 1506 4331 
z
" transform="scale(0.015625)"/>
      </defs>
      <use xlink:href="#DejaVuSerif-52" transform="translate(0 0.234375)"/>
      <use xlink:href="#DejaVuSerif-50" transform="translate(75.292969 0.234375)"/>
      <use xlink:href="#DejaVuSerif-49" transform="translate(142.578125 0.234375)"/>
      <use xlink:href="#DejaVuSerif-69" transform="translate(182.988438 38.810938) scale(0.7)"/>
      <use xlink:href="#DejaVuSerif-6e" transform="translate(205.376133 38.810938) scale(0.7)"/>
      <use xlink:href="#DejaVuSerif-64" transform="translate(250.459141 38.810938) scale(0.7)"/>
      <use xlink:href="#DejaVuSerif-Italic-50" transform="translate(182.988438 -25.71875) scale(0.7)"/>
      <use xlink:href="#DejaVuSerif-Italic-56" transform="translate(230.088047 -25.71875) scale(0.7)"/>
     </g>
    </g>
    <g id="line2d_58">
     <g>
      <use xlink:href="#mcdc7656996" x="1215.546922" y="72.897188" style="fill-opacity: 0; stroke: #a52a2a; stroke-width: 2; stroke-linejoin: miter"/>
     </g>
    </g>
    <g id="text_26">
     <!-- $\mathrm{RPI}_{PQ}^\mathrm{ind}$ -->
     <g transform="translate(1238.946922 77.447188) scale(0.13 -0.13)">
      <defs>
       <path id="DejaVuSerif-Italic-51" d="M 2322 -91 
Q 1250 -91 741 569 
Q 388 1028 388 1713 
Q 388 2000 450 2328 
Q 559 2894 817 3339 
Q 1075 3784 1491 4134 
Q 1856 4441 2281 4595 
Q 2706 4750 3188 4750 
Q 4203 4750 4697 4084 
Q 5044 3619 5044 2944 
Q 5044 2656 4981 2328 
Q 4800 1403 4209 773 
Q 3619 144 2759 -38 
Q 2888 -247 3109 -347 
Q 3331 -447 3672 -447 
L 4453 -447 
L 4341 -1025 
L 3975 -1025 
Q 3147 -1025 2803 -769 
Q 2466 -513 2322 -91 
z
M 2309 244 
Q 3075 244 3569 770 
Q 4063 1297 4263 2328 
Q 4344 2753 4344 3094 
Q 4344 3578 4175 3888 
Q 3888 4416 3122 4416 
Q 2353 4416 1859 3889 
Q 1366 3363 1166 2328 
Q 1084 1906 1084 1566 
Q 1084 1081 1253 769 
Q 1541 244 2309 244 
z
" transform="scale(0.015625)"/>
      </defs>
      <use xlink:href="#DejaVuSerif-52" transform="translate(0 0.315625)"/>
      <use xlink:href="#DejaVuSerif-50" transform="translate(75.292969 0.315625)"/>
      <use xlink:href="#DejaVuSerif-49" transform="translate(142.578125 0.315625)"/>
      <use xlink:href="#DejaVuSerif-69" transform="translate(182.988438 39.810938) scale(0.7)"/>
      <use xlink:href="#DejaVuSerif-6e" transform="translate(205.376133 39.810938) scale(0.7)"/>
      <use xlink:href="#DejaVuSerif-64" transform="translate(250.459141 39.810938) scale(0.7)"/>
      <use xlink:href="#DejaVuSerif-Italic-50" transform="translate(182.988438 -25.6375) scale(0.7)"/>
      <use xlink:href="#DejaVuSerif-Italic-51" transform="translate(230.088047 -25.6375) scale(0.7)"/>
     </g>
    </g>
    <g id="line2d_59">
     <g>
      <use xlink:href="#m16e836fb13" x="1215.546922" y="96.167188" style="fill-opacity: 0; stroke: #228b22; stroke-width: 2; stroke-linejoin: miter"/>
     </g>
    </g>
    <g id="text_27">
     <!-- $\mathrm{RPI}_{PQ}^\mathrm{cap}$ -->
     <g transform="translate(1238.946922 100.717188) scale(0.13 -0.13)">
      <use xlink:href="#DejaVuSerif-52" transform="translate(0 0.6125)"/>
      <use xlink:href="#DejaVuSerif-50" transform="translate(75.292969 0.6125)"/>
      <use xlink:href="#DejaVuSerif-49" transform="translate(142.578125 0.6125)"/>
      <use xlink:href="#DejaVuSerif-63" transform="translate(182.988438 53.670313) scale(0.7)"/>
      <use xlink:href="#DejaVuSerif-61" transform="translate(222.192539 53.670313) scale(0.7)"/>
      <use xlink:href="#DejaVuSerif-70" transform="translate(263.925937 53.670313) scale(0.7)"/>
      <use xlink:href="#DejaVuSerif-Italic-50" transform="translate(182.988438 -25.340625) scale(0.7)"/>
      <use xlink:href="#DejaVuSerif-Italic-51" transform="translate(230.088047 -25.340625) scale(0.7)"/>
     </g>
    </g>
    <g id="line2d_60">
     <g>
      <use xlink:href="#m61c07a9ac4" x="1215.546922" y="119.437188" style="fill-opacity: 0; stroke: #0000ff; stroke-width: 2"/>
     </g>
    </g>
    <g id="text_28">
     <!-- $\mathrm{VPI}_{PV}^\mathrm{l}$ -->
     <g transform="translate(1238.946922 123.987188) scale(0.13 -0.13)">
      <defs>
       <path id="DejaVuSerif-6c" d="M 1313 331 
L 1856 331 
L 1856 0 
L 184 0 
L 184 331 
L 738 331 
L 738 4531 
L 184 4531 
L 184 4863 
L 1313 4863 
L 1313 331 
z
" transform="scale(0.015625)"/>
      </defs>
      <use xlink:href="#DejaVuSerif-56" transform="translate(0 0.229687)"/>
      <use xlink:href="#DejaVuSerif-50" transform="translate(72.216797 0.229687)"/>
      <use xlink:href="#DejaVuSerif-49" transform="translate(139.501953 0.229687)"/>
      <use xlink:href="#DejaVuSerif-6c" transform="translate(179.912266 37.810938) scale(0.7)"/>
      <use xlink:href="#DejaVuSerif-Italic-50" transform="translate(179.912266 -25.723437) scale(0.7)"/>
      <use xlink:href="#DejaVuSerif-Italic-56" transform="translate(227.011875 -25.723437) scale(0.7)"/>
     </g>
    </g>
    <g id="line2d_61">
     <g>
      <use xlink:href="#m2cf1c3b10c" x="1215.546922" y="139.195156" style="fill-opacity: 0; stroke: #008000; stroke-width: 2"/>
     </g>
    </g>
    <g id="text_29">
     <!-- $\mathrm{VPI}_{PV}^\mathrm{u}$ -->
     <g transform="translate(1238.946922 143.745156) scale(0.13 -0.13)">
      <use xlink:href="#DejaVuSerif-56" transform="translate(0 0.089063)"/>
      <use xlink:href="#DejaVuSerif-50" transform="translate(72.216797 0.089063)"/>
      <use xlink:href="#DejaVuSerif-49" transform="translate(139.501953 0.089063)"/>
      <use xlink:href="#DejaVuSerif-75" transform="translate(179.912266 38.665625) scale(0.7)"/>
      <use xlink:href="#DejaVuSerif-Italic-50" transform="translate(179.912266 -25.864062) scale(0.7)"/>
      <use xlink:href="#DejaVuSerif-Italic-56" transform="translate(227.011875 -25.864062) scale(0.7)"/>
     </g>
    </g>
    <g id="line2d_62">
     <g>
      <use xlink:href="#mf6678c67f9" x="1215.546922" y="158.955156" style="fill-opacity: 0; stroke: #4b0082; stroke-width: 2"/>
     </g>
    </g>
    <g id="text_30">
     <!-- $\mathrm{VPI}_{PQ}^\mathrm{u}$ -->
     <g transform="translate(1238.946922 163.505156) scale(0.13 -0.13)">
      <use xlink:href="#DejaVuSerif-56" transform="translate(0 0.170313)"/>
      <use xlink:href="#DejaVuSerif-50" transform="translate(72.216797 0.170313)"/>
      <use xlink:href="#DejaVuSerif-49" transform="translate(139.501953 0.170313)"/>
      <use xlink:href="#DejaVuSerif-75" transform="translate(179.912266 39.665625) scale(0.7)"/>
      <use xlink:href="#DejaVuSerif-Italic-50" transform="translate(179.912266 -25.782812) scale(0.7)"/>
      <use xlink:href="#DejaVuSerif-Italic-51" transform="translate(227.011875 -25.782812) scale(0.7)"/>
     </g>
    </g>
    <g id="line2d_63">
     <g>
      <use xlink:href="#me46a9d3c63" x="1215.546922" y="182.355156" style="fill-opacity: 0; stroke: #87ceeb; stroke-width: 2"/>
     </g>
    </g>
    <g id="text_31">
     <!-- $\mathrm{VPI}_{PQ}^\mathrm{l}$ -->
     <g transform="translate(1238.946922 186.905156) scale(0.13 -0.13)">
      <use xlink:href="#DejaVuSerif-56" transform="translate(0 0.310937)"/>
      <use xlink:href="#DejaVuSerif-50" transform="translate(72.216797 0.310937)"/>
      <use xlink:href="#DejaVuSerif-49" transform="translate(139.501953 0.310937)"/>
      <use xlink:href="#DejaVuSerif-6c" transform="translate(179.912266 38.810938) scale(0.7)"/>
      <use xlink:href="#DejaVuSerif-Italic-50" transform="translate(179.912266 -25.642188) scale(0.7)"/>
      <use xlink:href="#DejaVuSerif-Italic-51" transform="translate(227.011875 -25.642188) scale(0.7)"/>
     </g>
    </g>
   </g>
  </g>
 </g>
 <defs>
  <clipPath id="p100ad10c2b">
   <rect x="88.490653" y="10.8" width="1102.356269" height="448.289849"/>
  </clipPath>
 </defs>
</svg>
