<?xml version="1.0" encoding="utf-8" standalone="no"?>
<!DOCTYPE svg PUBLIC "-//W3C//DTD SVG 1.1//EN"
  "http://www.w3.org/Graphics/SVG/1.1/DTD/svg11.dtd">
<svg xmlns:xlink="http://www.w3.org/1999/xlink" width="720pt" height="432pt" viewBox="0 0 720 432" xmlns="http://www.w3.org/2000/svg" version="1.1">
 <metadata>
  <rdf:RDF xmlns:dc="http://purl.org/dc/elements/1.1/" xmlns:cc="http://creativecommons.org/ns#" xmlns:rdf="http://www.w3.org/1999/02/22-rdf-syntax-ns#">
   <cc:Work>
    <dc:type rdf:resource="http://purl.org/dc/dcmitype/StillImage"/>
    <dc:date>2024-09-26T12:24:25.686009</dc:date>
    <dc:format>image/svg+xml</dc:format>
    <dc:creator>
     <cc:Agent>
      <dc:title>Matplotlib v3.7.2, https://matplotlib.org/</dc:title>
     </cc:Agent>
    </dc:creator>
   </cc:Work>
  </rdf:RDF>
 </metadata>
 <defs>
  <style type="text/css">*{stroke-linejoin: round; stroke-linecap: butt}</style>
 </defs>
 <g id="figure_1">
  <g id="patch_1">
   <path d="M 0 432 
L 720 432 
L 720 0 
L 0 0 
z
" style="fill: #ffffff"/>
  </g>
  <g id="axes_1">
   <g id="patch_2">
    <path d="M 62.8625 326.818409 
L 614.846922 326.818409 
L 614.846922 28.08375 
L 62.8625 28.08375 
z
" style="fill: #e5e5e5"/>
   </g>
   <g id="matplotlib.axis_1">
    <g id="xtick_1">
     <g id="line2d_1">
      <path d="M 87.952701 326.818409 
L 87.952701 28.08375 
" clip-path="url(#pf6a861eabe)" style="fill: none; stroke: #ffffff; stroke-width: 0.8; stroke-linecap: square"/>
     </g>
     <g id="line2d_2">
      <defs>
       <path id="med83b96206" d="M 0 0 
L 0 3.5 
" style="stroke: #000000; stroke-width: 0.8"/>
      </defs>
      <g>
       <use xlink:href="#med83b96206" x="87.952701" y="326.818409" style="stroke: #000000; stroke-width: 0.8"/>
      </g>
     </g>
     <g id="text_1">
      <!-- VIANA2-ES500 -->
      <g transform="translate(31.790745 393.882711) rotate(-45) scale(0.1 -0.1)">
       <defs>
        <path id="DejaVuSerif-56" d="M 1119 4331 
L 2497 750 
L 3872 4331 
L 3347 4331 
L 3347 4666 
L 4716 4666 
L 4716 4331 
L 4263 4331 
L 2597 0 
L 2059 0 
L 403 4331 
L -63 4331 
L -63 4666 
L 1638 4666 
L 1638 4331 
L 1119 4331 
z
" transform="scale(0.015625)"/>
        <path id="DejaVuSerif-49" d="M 1581 331 
L 2175 331 
L 2175 0 
L 353 0 
L 353 331 
L 947 331 
L 947 4331 
L 353 4331 
L 353 4666 
L 2175 4666 
L 2175 4331 
L 1581 4331 
L 1581 331 
z
" transform="scale(0.015625)"/>
        <path id="DejaVuSerif-41" d="M 1281 1691 
L 2994 1691 
L 2138 3909 
L 1281 1691 
z
M -38 0 
L -38 331 
L 372 331 
L 2034 4666 
L 2559 4666 
L 4225 331 
L 4684 331 
L 4684 0 
L 2988 0 
L 2988 331 
L 3506 331 
L 3116 1356 
L 1153 1356 
L 763 331 
L 1275 331 
L 1275 0 
L -38 0 
z
" transform="scale(0.015625)"/>
        <path id="DejaVuSerif-4e" d="M 313 0 
L 313 331 
L 941 331 
L 941 4331 
L 313 4331 
L 313 4666 
L 1509 4666 
L 4306 984 
L 4306 4331 
L 3681 4331 
L 3681 4666 
L 5319 4666 
L 5319 4331 
L 4691 4331 
L 4691 -91 
L 4313 -91 
L 1325 3841 
L 1325 331 
L 1953 331 
L 1953 0 
L 313 0 
z
" transform="scale(0.015625)"/>
        <path id="DejaVuSerif-32" d="M 819 3553 
L 469 3553 
L 469 4384 
Q 803 4563 1142 4656 
Q 1481 4750 1806 4750 
Q 2534 4750 2956 4397 
Q 3378 4044 3378 3438 
Q 3378 2753 2422 1800 
Q 2347 1728 2309 1691 
L 1131 513 
L 3078 513 
L 3078 1088 
L 3444 1088 
L 3444 0 
L 434 0 
L 434 341 
L 1850 1753 
Q 2319 2222 2519 2614 
Q 2719 3006 2719 3438 
Q 2719 3909 2473 4175 
Q 2228 4441 1797 4441 
Q 1350 4441 1106 4219 
Q 863 3997 819 3553 
z
" transform="scale(0.015625)"/>
        <path id="DejaVuSerif-2d" d="M 281 1959 
L 1881 1959 
L 1881 1472 
L 281 1472 
L 281 1959 
z
" transform="scale(0.015625)"/>
        <path id="DejaVuSerif-45" d="M 353 0 
L 353 331 
L 947 331 
L 947 4331 
L 353 4331 
L 353 4666 
L 4109 4666 
L 4109 3628 
L 3725 3628 
L 3725 4281 
L 1581 4281 
L 1581 2719 
L 3109 2719 
L 3109 3303 
L 3494 3303 
L 3494 1753 
L 3109 1753 
L 3109 2338 
L 1581 2338 
L 1581 384 
L 3775 384 
L 3775 1038 
L 4159 1038 
L 4159 0 
L 353 0 
z
" transform="scale(0.015625)"/>
        <path id="DejaVuSerif-53" d="M 594 225 
L 594 1288 
L 953 1284 
Q 969 753 1261 498 
Q 1553 244 2150 244 
Q 2706 244 2998 464 
Q 3291 684 3291 1106 
Q 3291 1444 3114 1625 
Q 2938 1806 2369 1978 
L 1753 2163 
Q 1084 2366 811 2669 
Q 538 2972 538 3500 
Q 538 4094 959 4422 
Q 1381 4750 2144 4750 
Q 2469 4750 2856 4679 
Q 3244 4609 3681 4475 
L 3681 3481 
L 3328 3481 
Q 3275 3975 2998 4195 
Q 2722 4416 2156 4416 
Q 1663 4416 1405 4214 
Q 1147 4013 1147 3628 
Q 1147 3294 1340 3103 
Q 1534 2913 2163 2725 
L 2741 2553 
Q 3375 2363 3645 2067 
Q 3916 1772 3916 1275 
Q 3916 597 3481 253 
Q 3047 -91 2188 -91 
Q 1803 -91 1404 -12 
Q 1006 66 594 225 
z
" transform="scale(0.015625)"/>
        <path id="DejaVuSerif-35" d="M 3219 4666 
L 3219 4153 
L 1081 4153 
L 1081 2816 
Q 1244 2928 1461 2984 
Q 1678 3041 1947 3041 
Q 2703 3041 3140 2622 
Q 3578 2203 3578 1478 
Q 3578 738 3136 323 
Q 2694 -91 1894 -91 
Q 1572 -91 1234 -12 
Q 897 66 544 225 
L 544 1131 
L 897 1131 
Q 925 688 1179 453 
Q 1434 219 1894 219 
Q 2388 219 2653 544 
Q 2919 869 2919 1478 
Q 2919 2084 2655 2407 
Q 2391 2731 1894 2731 
Q 1613 2731 1398 2631 
Q 1184 2531 1019 2322 
L 750 2322 
L 750 4666 
L 3219 4666 
z
" transform="scale(0.015625)"/>
        <path id="DejaVuSerif-30" d="M 2034 219 
Q 2513 219 2750 744 
Q 2988 1269 2988 2328 
Q 2988 3391 2750 3916 
Q 2513 4441 2034 4441 
Q 1556 4441 1318 3916 
Q 1081 3391 1081 2328 
Q 1081 1269 1318 744 
Q 1556 219 2034 219 
z
M 2034 -91 
Q 1275 -91 848 546 
Q 422 1184 422 2328 
Q 422 3475 848 4112 
Q 1275 4750 2034 4750 
Q 2797 4750 3222 4112 
Q 3647 3475 3647 2328 
Q 3647 1184 3222 546 
Q 2797 -91 2034 -91 
z
" transform="scale(0.015625)"/>
       </defs>
       <use xlink:href="#DejaVuSerif-56"/>
       <use xlink:href="#DejaVuSerif-49" x="72.216797"/>
       <use xlink:href="#DejaVuSerif-41" x="111.71875"/>
       <use xlink:href="#DejaVuSerif-4e" x="183.935547"/>
       <use xlink:href="#DejaVuSerif-41" x="271.435547"/>
       <use xlink:href="#DejaVuSerif-32" x="343.652344"/>
       <use xlink:href="#DejaVuSerif-2d" x="407.275391"/>
       <use xlink:href="#DejaVuSerif-45" x="441.064453"/>
       <use xlink:href="#DejaVuSerif-53" x="514.0625"/>
       <use xlink:href="#DejaVuSerif-35" x="582.568359"/>
       <use xlink:href="#DejaVuSerif-30" x="646.191406"/>
       <use xlink:href="#DejaVuSerif-30" x="709.814453"/>
      </g>
     </g>
    </g>
    <g id="xtick_2">
     <g id="line2d_3">
      <path d="M 114.363439 326.818409 
L 114.363439 28.08375 
" clip-path="url(#pf6a861eabe)" style="fill: none; stroke: #ffffff; stroke-width: 0.8; stroke-linecap: square"/>
     </g>
     <g id="line2d_4">
      <g>
       <use xlink:href="#med83b96206" x="114.363439" y="326.818409" style="stroke: #000000; stroke-width: 0.8"/>
      </g>
     </g>
     <g id="text_2">
      <!-- RNSUL- -ES500 -->
      <g transform="translate(57.600442 394.483752) rotate(-45) scale(0.1 -0.1)">
       <defs>
        <path id="DejaVuSerif-52" d="M 3066 2316 
Q 3284 2256 3442 2114 
Q 3600 1972 3725 1716 
L 4403 331 
L 4972 331 
L 4972 0 
L 3872 0 
L 3144 1484 
Q 2934 1916 2759 2042 
Q 2584 2169 2278 2169 
L 1581 2169 
L 1581 331 
L 2241 331 
L 2241 0 
L 353 0 
L 353 331 
L 947 331 
L 947 4331 
L 353 4331 
L 353 4666 
L 2719 4666 
Q 3400 4666 3770 4341 
Q 4141 4016 4141 3419 
Q 4141 2938 3870 2661 
Q 3600 2384 3066 2316 
z
M 1581 2503 
L 2503 2503 
Q 2975 2503 3200 2726 
Q 3425 2950 3425 3419 
Q 3425 3888 3200 4109 
Q 2975 4331 2503 4331 
L 1581 4331 
L 1581 2503 
z
" transform="scale(0.015625)"/>
        <path id="DejaVuSerif-55" d="M 897 4331 
L 300 4331 
L 300 4666 
L 2125 4666 
L 2125 4331 
L 1528 4331 
L 1528 1919 
Q 1528 1025 1820 672 
Q 2113 319 2828 319 
Q 3544 319 3836 672 
Q 4128 1025 4128 1919 
L 4128 4331 
L 3531 4331 
L 3531 4666 
L 5106 4666 
L 5106 4331 
L 4513 4331 
L 4513 1856 
Q 4513 791 4103 350 
Q 3694 -91 2713 -91 
Q 1731 -91 1314 353 
Q 897 797 897 1856 
L 897 4331 
z
" transform="scale(0.015625)"/>
        <path id="DejaVuSerif-4c" d="M 353 0 
L 353 331 
L 947 331 
L 947 4331 
L 353 4331 
L 353 4666 
L 2175 4666 
L 2175 4331 
L 1581 4331 
L 1581 384 
L 3713 384 
L 3713 1166 
L 4097 1166 
L 4097 0 
L 353 0 
z
" transform="scale(0.015625)"/>
       </defs>
       <use xlink:href="#DejaVuSerif-52"/>
       <use xlink:href="#DejaVuSerif-4e" x="75.292969"/>
       <use xlink:href="#DejaVuSerif-53" x="162.792969"/>
       <use xlink:href="#DejaVuSerif-55" x="231.298828"/>
       <use xlink:href="#DejaVuSerif-4c" x="315.576172"/>
       <use xlink:href="#DejaVuSerif-2d" x="381.982422"/>
       <use xlink:href="#DejaVuSerif-2d" x="415.771484"/>
       <use xlink:href="#DejaVuSerif-45" x="449.560547"/>
       <use xlink:href="#DejaVuSerif-53" x="522.558594"/>
       <use xlink:href="#DejaVuSerif-35" x="591.064453"/>
       <use xlink:href="#DejaVuSerif-30" x="654.6875"/>
       <use xlink:href="#DejaVuSerif-30" x="718.310547"/>
      </g>
     </g>
    </g>
    <g id="xtick_3">
     <g id="line2d_5">
      <path d="M 140.774177 326.818409 
L 140.774177 28.08375 
" clip-path="url(#pf6a861eabe)" style="fill: none; stroke: #ffffff; stroke-width: 0.8; stroke-linecap: square"/>
     </g>
     <g id="line2d_6">
      <g>
       <use xlink:href="#med83b96206" x="140.774177" y="326.818409" style="stroke: #000000; stroke-width: 0.8"/>
      </g>
     </g>
     <g id="text_3">
      <!-- Z.OEST-RJ500 -->
      <g transform="translate(88.611793 389.883138) rotate(-45) scale(0.1 -0.1)">
       <defs>
        <path id="DejaVuSerif-5a" d="M 288 0 
L 288 225 
L 3194 4281 
L 781 4281 
L 781 3584 
L 397 3584 
L 397 4666 
L 4084 4666 
L 4084 4441 
L 1178 384 
L 3816 384 
L 3816 1038 
L 4197 1038 
L 4197 0 
L 288 0 
z
" transform="scale(0.015625)"/>
        <path id="DejaVuSerif-2e" d="M 603 325 
Q 603 500 722 622 
Q 841 744 1019 744 
Q 1191 744 1312 622 
Q 1434 500 1434 325 
Q 1434 153 1312 31 
Q 1191 -91 1019 -91 
Q 841 -91 722 29 
Q 603 150 603 325 
z
" transform="scale(0.015625)"/>
        <path id="DejaVuSerif-4f" d="M 2625 244 
Q 3391 244 3781 770 
Q 4172 1297 4172 2328 
Q 4172 3363 3781 3889 
Q 3391 4416 2625 4416 
Q 1856 4416 1465 3889 
Q 1075 3363 1075 2328 
Q 1075 1297 1465 770 
Q 1856 244 2625 244 
z
M 2625 -91 
Q 2150 -91 1751 65 
Q 1353 222 1050 525 
Q 700 875 529 1319 
Q 359 1763 359 2328 
Q 359 2894 529 3339 
Q 700 3784 1050 4134 
Q 1356 4441 1750 4595 
Q 2144 4750 2625 4750 
Q 3641 4750 4266 4084 
Q 4891 3419 4891 2328 
Q 4891 1769 4719 1320 
Q 4547 872 4197 525 
Q 3891 219 3497 64 
Q 3103 -91 2625 -91 
z
" transform="scale(0.015625)"/>
        <path id="DejaVuSerif-54" d="M 1222 0 
L 1222 331 
L 1819 331 
L 1819 4294 
L 447 4294 
L 447 3566 
L 63 3566 
L 63 4666 
L 4206 4666 
L 4206 3566 
L 3822 3566 
L 3822 4294 
L 2450 4294 
L 2450 331 
L 3047 331 
L 3047 0 
L 1222 0 
z
" transform="scale(0.015625)"/>
        <path id="DejaVuSerif-4a" d="M -538 -1119 
L -538 -384 
L -181 -384 
Q -172 -694 -34 -845 
Q 103 -997 378 -997 
Q 750 -997 897 -762 
Q 1044 -528 1044 153 
L 1044 4331 
L 319 4331 
L 319 4666 
L 2272 4666 
L 2272 4331 
L 1678 4331 
L 1678 128 
Q 1678 -644 1368 -987 
Q 1059 -1331 372 -1331 
Q 150 -1331 -79 -1278 
Q -309 -1225 -538 -1119 
z
" transform="scale(0.015625)"/>
       </defs>
       <use xlink:href="#DejaVuSerif-5a"/>
       <use xlink:href="#DejaVuSerif-2e" x="67.732422"/>
       <use xlink:href="#DejaVuSerif-4f" x="99.519531"/>
       <use xlink:href="#DejaVuSerif-45" x="181.501953"/>
       <use xlink:href="#DejaVuSerif-53" x="254.5"/>
       <use xlink:href="#DejaVuSerif-54" x="323.005859"/>
       <use xlink:href="#DejaVuSerif-2d" x="376.830078"/>
       <use xlink:href="#DejaVuSerif-52" x="410.619141"/>
       <use xlink:href="#DejaVuSerif-4a" x="485.912109"/>
       <use xlink:href="#DejaVuSerif-35" x="526"/>
       <use xlink:href="#DejaVuSerif-30" x="589.623047"/>
       <use xlink:href="#DejaVuSerif-30" x="653.246094"/>
      </g>
     </g>
    </g>
    <g id="xtick_4">
     <g id="line2d_7">
      <path d="M 167.184915 326.818409 
L 167.184915 28.08375 
" clip-path="url(#pf6a861eabe)" style="fill: none; stroke: #ffffff; stroke-width: 0.8; stroke-linecap: square"/>
     </g>
     <g id="line2d_8">
      <g>
       <use xlink:href="#med83b96206" x="167.184915" y="326.818409" style="stroke: #000000; stroke-width: 0.8"/>
      </g>
     </g>
     <g id="text_4">
      <!-- CJANAU-MG500 -->
      <g transform="translate(106.456596 398.449074) rotate(-45) scale(0.1 -0.1)">
       <defs>
        <path id="DejaVuSerif-43" d="M 4513 1234 
Q 4306 581 3820 245 
Q 3334 -91 2591 -91 
Q 2134 -91 1743 65 
Q 1353 222 1050 525 
Q 700 875 529 1320 
Q 359 1766 359 2328 
Q 359 3416 987 4083 
Q 1616 4750 2644 4750 
Q 3025 4750 3456 4650 
Q 3888 4550 4384 4347 
L 4384 3272 
L 4031 3272 
Q 3916 3859 3567 4137 
Q 3219 4416 2591 4416 
Q 1844 4416 1459 3886 
Q 1075 3356 1075 2328 
Q 1075 1303 1459 773 
Q 1844 244 2591 244 
Q 3113 244 3450 492 
Q 3788 741 3938 1234 
L 4513 1234 
z
" transform="scale(0.015625)"/>
        <path id="DejaVuSerif-4d" d="M 353 0 
L 353 331 
L 947 331 
L 947 4331 
L 319 4331 
L 319 4666 
L 1678 4666 
L 3316 1344 
L 4953 4666 
L 6228 4666 
L 6228 4331 
L 5606 4331 
L 5606 331 
L 6203 331 
L 6203 0 
L 4378 0 
L 4378 331 
L 4972 331 
L 4972 3938 
L 3372 684 
L 2931 684 
L 1331 3938 
L 1331 331 
L 1925 331 
L 1925 0 
L 353 0 
z
" transform="scale(0.015625)"/>
        <path id="DejaVuSerif-47" d="M 4097 3272 
Q 3988 3856 3641 4136 
Q 3294 4416 2675 4416 
Q 1869 4416 1472 3897 
Q 1075 3378 1075 2328 
Q 1075 1300 1484 772 
Q 1894 244 2688 244 
Q 3041 244 3362 331 
Q 3684 419 3975 594 
L 3975 1797 
L 3097 1797 
L 3097 2131 
L 4609 2131 
L 4609 391 
Q 4194 150 3714 29 
Q 3234 -91 2688 -91 
Q 1631 -91 995 570 
Q 359 1231 359 2328 
Q 359 3434 996 4092 
Q 1634 4750 2713 4750 
Q 3113 4750 3539 4658 
Q 3966 4566 4447 4378 
L 4447 3272 
L 4097 3272 
z
" transform="scale(0.015625)"/>
       </defs>
       <use xlink:href="#DejaVuSerif-43"/>
       <use xlink:href="#DejaVuSerif-4a" x="76.513672"/>
       <use xlink:href="#DejaVuSerif-41" x="116.601562"/>
       <use xlink:href="#DejaVuSerif-4e" x="188.818359"/>
       <use xlink:href="#DejaVuSerif-41" x="276.318359"/>
       <use xlink:href="#DejaVuSerif-55" x="348.535156"/>
       <use xlink:href="#DejaVuSerif-2d" x="431.0625"/>
       <use xlink:href="#DejaVuSerif-4d" x="464.851562"/>
       <use xlink:href="#DejaVuSerif-47" x="567.244141"/>
       <use xlink:href="#DejaVuSerif-35" x="647.126953"/>
       <use xlink:href="#DejaVuSerif-30" x="710.75"/>
       <use xlink:href="#DejaVuSerif-30" x="774.373047"/>
      </g>
     </g>
    </g>
    <g id="xtick_5">
     <g id="line2d_9">
      <path d="M 193.595653 326.818409 
L 193.595653 28.08375 
" clip-path="url(#pf6a861eabe)" style="fill: none; stroke: #ffffff; stroke-width: 0.8; stroke-linecap: square"/>
     </g>
     <g id="line2d_10">
      <g>
       <use xlink:href="#med83b96206" x="193.595653" y="326.818409" style="stroke: #000000; stroke-width: 0.8"/>
      </g>
     </g>
     <g id="text_5">
      <!-- AMANDI-MS230 -->
      <g transform="translate(132.051951 399.264456) rotate(-45) scale(0.1 -0.1)">
       <defs>
        <path id="DejaVuSerif-44" d="M 1581 331 
L 2163 331 
Q 3072 331 3558 850 
Q 4044 1369 4044 2338 
Q 4044 3306 3559 3818 
Q 3075 4331 2163 4331 
L 1581 4331 
L 1581 331 
z
M 353 0 
L 353 331 
L 947 331 
L 947 4331 
L 353 4331 
L 353 4666 
L 2209 4666 
Q 3416 4666 4089 4050 
Q 4763 3434 4763 2338 
Q 4763 1238 4088 619 
Q 3413 0 2209 0 
L 353 0 
z
" transform="scale(0.015625)"/>
        <path id="DejaVuSerif-33" d="M 622 4469 
Q 988 4606 1323 4678 
Q 1659 4750 1953 4750 
Q 2638 4750 3022 4454 
Q 3406 4159 3406 3634 
Q 3406 3213 3140 2930 
Q 2875 2647 2388 2547 
Q 2963 2466 3280 2130 
Q 3597 1794 3597 1259 
Q 3597 606 3158 257 
Q 2719 -91 1894 -91 
Q 1528 -91 1179 -12 
Q 831 66 488 225 
L 488 1131 
L 838 1131 
Q 869 681 1141 450 
Q 1413 219 1906 219 
Q 2384 219 2661 495 
Q 2938 772 2938 1253 
Q 2938 1803 2653 2086 
Q 2369 2369 1819 2369 
L 1522 2369 
L 1522 2688 
L 1678 2688 
Q 2225 2688 2498 2914 
Q 2772 3141 2772 3597 
Q 2772 4006 2547 4223 
Q 2322 4441 1900 4441 
Q 1478 4441 1245 4241 
Q 1013 4041 972 3647 
L 622 3647 
L 622 4469 
z
" transform="scale(0.015625)"/>
       </defs>
       <use xlink:href="#DejaVuSerif-41"/>
       <use xlink:href="#DejaVuSerif-4d" x="72.216797"/>
       <use xlink:href="#DejaVuSerif-41" x="174.609375"/>
       <use xlink:href="#DejaVuSerif-4e" x="246.826172"/>
       <use xlink:href="#DejaVuSerif-44" x="334.326172"/>
       <use xlink:href="#DejaVuSerif-49" x="414.501953"/>
       <use xlink:href="#DejaVuSerif-2d" x="454.003906"/>
       <use xlink:href="#DejaVuSerif-4d" x="487.792969"/>
       <use xlink:href="#DejaVuSerif-53" x="590.185547"/>
       <use xlink:href="#DejaVuSerif-32" x="658.691406"/>
       <use xlink:href="#DejaVuSerif-33" x="722.314453"/>
       <use xlink:href="#DejaVuSerif-30" x="785.9375"/>
      </g>
     </g>
    </g>
    <g id="xtick_6">
     <g id="line2d_11">
      <path d="M 220.00639 326.818409 
L 220.00639 28.08375 
" clip-path="url(#pf6a861eabe)" style="fill: none; stroke: #ffffff; stroke-width: 0.8; stroke-linecap: square"/>
     </g>
     <g id="line2d_12">
      <g>
       <use xlink:href="#med83b96206" x="220.00639" y="326.818409" style="stroke: #000000; stroke-width: 0.8"/>
      </g>
     </g>
     <g id="text_6">
      <!-- NPPRIM-MS440 -->
      <g transform="translate(159.505671 398.221474) rotate(-45) scale(0.1 -0.1)">
       <defs>
        <path id="DejaVuSerif-50" d="M 1581 2375 
L 2406 2375 
Q 2872 2375 3115 2626 
Q 3359 2878 3359 3353 
Q 3359 3831 3115 4081 
Q 2872 4331 2406 4331 
L 1581 4331 
L 1581 2375 
z
M 353 0 
L 353 331 
L 947 331 
L 947 4331 
L 353 4331 
L 353 4666 
L 2559 4666 
Q 3259 4666 3668 4311 
Q 4078 3956 4078 3353 
Q 4078 2753 3668 2397 
Q 3259 2041 2559 2041 
L 1581 2041 
L 1581 331 
L 2303 331 
L 2303 0 
L 353 0 
z
" transform="scale(0.015625)"/>
        <path id="DejaVuSerif-34" d="M 2234 1581 
L 2234 4063 
L 641 1581 
L 2234 1581 
z
M 3609 0 
L 1484 0 
L 1484 331 
L 2234 331 
L 2234 1247 
L 197 1247 
L 197 1588 
L 2241 4750 
L 2859 4750 
L 2859 1581 
L 3750 1581 
L 3750 1247 
L 2859 1247 
L 2859 331 
L 3609 331 
L 3609 0 
z
" transform="scale(0.015625)"/>
       </defs>
       <use xlink:href="#DejaVuSerif-4e"/>
       <use xlink:href="#DejaVuSerif-50" x="87.5"/>
       <use xlink:href="#DejaVuSerif-50" x="154.785156"/>
       <use xlink:href="#DejaVuSerif-52" x="222.070312"/>
       <use xlink:href="#DejaVuSerif-49" x="297.363281"/>
       <use xlink:href="#DejaVuSerif-4d" x="336.865234"/>
       <use xlink:href="#DejaVuSerif-2d" x="439.257812"/>
       <use xlink:href="#DejaVuSerif-4d" x="473.046875"/>
       <use xlink:href="#DejaVuSerif-53" x="575.439453"/>
       <use xlink:href="#DejaVuSerif-34" x="643.945312"/>
       <use xlink:href="#DejaVuSerif-34" x="707.568359"/>
       <use xlink:href="#DejaVuSerif-30" x="771.191406"/>
      </g>
     </g>
    </g>
    <g id="xtick_7">
     <g id="line2d_13">
      <path d="M 246.417128 326.818409 
L 246.417128 28.08375 
" clip-path="url(#pf6a861eabe)" style="fill: none; stroke: #ffffff; stroke-width: 0.8; stroke-linecap: square"/>
     </g>
     <g id="line2d_14">
      <g>
       <use xlink:href="#med83b96206" x="246.417128" y="326.818409" style="stroke: #000000; stroke-width: 0.8"/>
      </g>
     </g>
     <g id="text_7">
      <!-- PPRIMA-SP440 -->
      <g transform="translate(189.479564 394.658319) rotate(-45) scale(0.1 -0.1)">
       <use xlink:href="#DejaVuSerif-50"/>
       <use xlink:href="#DejaVuSerif-50" x="67.285156"/>
       <use xlink:href="#DejaVuSerif-52" x="134.570312"/>
       <use xlink:href="#DejaVuSerif-49" x="209.863281"/>
       <use xlink:href="#DejaVuSerif-4d" x="249.365234"/>
       <use xlink:href="#DejaVuSerif-41" x="351.757812"/>
       <use xlink:href="#DejaVuSerif-2d" x="423.974609"/>
       <use xlink:href="#DejaVuSerif-53" x="457.763672"/>
       <use xlink:href="#DejaVuSerif-50" x="526.269531"/>
       <use xlink:href="#DejaVuSerif-34" x="593.554688"/>
       <use xlink:href="#DejaVuSerif-34" x="657.177734"/>
       <use xlink:href="#DejaVuSerif-30" x="720.800781"/>
      </g>
     </g>
    </g>
    <g id="xtick_8">
     <g id="line2d_15">
      <path d="M 272.827866 326.818409 
L 272.827866 28.08375 
" clip-path="url(#pf6a861eabe)" style="fill: none; stroke: #ffffff; stroke-width: 0.8; stroke-linecap: square"/>
     </g>
     <g id="line2d_16">
      <g>
       <use xlink:href="#med83b96206" x="272.827866" y="326.818409" style="stroke: #000000; stroke-width: 0.8"/>
      </g>
     </g>
     <g id="text_8">
      <!-- M.MARA-GO230 -->
      <g transform="translate(211.759252 398.789369) rotate(-45) scale(0.1 -0.1)">
       <use xlink:href="#DejaVuSerif-4d"/>
       <use xlink:href="#DejaVuSerif-2e" x="102.392578"/>
       <use xlink:href="#DejaVuSerif-4d" x="134.179688"/>
       <use xlink:href="#DejaVuSerif-41" x="236.572266"/>
       <use xlink:href="#DejaVuSerif-52" x="308.789062"/>
       <use xlink:href="#DejaVuSerif-41" x="384.082031"/>
       <use xlink:href="#DejaVuSerif-2d" x="456.298828"/>
       <use xlink:href="#DejaVuSerif-47" x="490.087891"/>
       <use xlink:href="#DejaVuSerif-4f" x="569.970703"/>
       <use xlink:href="#DejaVuSerif-32" x="651.953125"/>
       <use xlink:href="#DejaVuSerif-33" x="715.576172"/>
       <use xlink:href="#DejaVuSerif-30" x="779.199219"/>
      </g>
     </g>
    </g>
    <g id="xtick_9">
     <g id="line2d_17">
      <path d="M 299.238604 326.818409 
L 299.238604 28.08375 
" clip-path="url(#pf6a861eabe)" style="fill: none; stroke: #ffffff; stroke-width: 0.8; stroke-linecap: square"/>
     </g>
     <g id="line2d_18">
      <g>
       <use xlink:href="#med83b96206" x="299.238604" y="326.818409" style="stroke: #000000; stroke-width: 0.8"/>
      </g>
     </g>
     <g id="text_9">
      <!-- JANAU3-MG500 -->
      <g transform="translate(239.298046 397.661313) rotate(-45) scale(0.1 -0.1)">
       <use xlink:href="#DejaVuSerif-4a"/>
       <use xlink:href="#DejaVuSerif-41" x="40.087891"/>
       <use xlink:href="#DejaVuSerif-4e" x="112.304688"/>
       <use xlink:href="#DejaVuSerif-41" x="199.804688"/>
       <use xlink:href="#DejaVuSerif-55" x="272.021484"/>
       <use xlink:href="#DejaVuSerif-33" x="356.298828"/>
       <use xlink:href="#DejaVuSerif-2d" x="419.921875"/>
       <use xlink:href="#DejaVuSerif-4d" x="453.710938"/>
       <use xlink:href="#DejaVuSerif-47" x="556.103516"/>
       <use xlink:href="#DejaVuSerif-35" x="635.986328"/>
       <use xlink:href="#DejaVuSerif-30" x="699.609375"/>
       <use xlink:href="#DejaVuSerif-30" x="763.232422"/>
      </g>
     </g>
    </g>
    <g id="xtick_10">
     <g id="line2d_19">
      <path d="M 325.649342 326.818409 
L 325.649342 28.08375 
" clip-path="url(#pf6a861eabe)" style="fill: none; stroke: #ffffff; stroke-width: 0.8; stroke-linecap: square"/>
     </g>
     <g id="line2d_20">
      <g>
       <use xlink:href="#med83b96206" x="325.649342" y="326.818409" style="stroke: #000000; stroke-width: 0.8"/>
      </g>
     </g>
     <g id="text_10">
      <!-- TPRETO-SP500 -->
      <g transform="translate(267.960477 395.40962) rotate(-45) scale(0.1 -0.1)">
       <use xlink:href="#DejaVuSerif-54"/>
       <use xlink:href="#DejaVuSerif-50" x="66.699219"/>
       <use xlink:href="#DejaVuSerif-52" x="133.984375"/>
       <use xlink:href="#DejaVuSerif-45" x="209.277344"/>
       <use xlink:href="#DejaVuSerif-54" x="282.275391"/>
       <use xlink:href="#DejaVuSerif-4f" x="348.974609"/>
       <use xlink:href="#DejaVuSerif-2d" x="434.582031"/>
       <use xlink:href="#DejaVuSerif-53" x="468.371094"/>
       <use xlink:href="#DejaVuSerif-50" x="536.876953"/>
       <use xlink:href="#DejaVuSerif-35" x="604.162109"/>
       <use xlink:href="#DejaVuSerif-30" x="667.785156"/>
       <use xlink:href="#DejaVuSerif-30" x="731.408203"/>
      </g>
     </g>
    </g>
    <g id="xtick_11">
     <g id="line2d_21">
      <path d="M 352.06008 326.818409 
L 352.06008 28.08375 
" clip-path="url(#pf6a861eabe)" style="fill: none; stroke: #ffffff; stroke-width: 0.8; stroke-linecap: square"/>
     </g>
     <g id="line2d_22">
      <g>
       <use xlink:href="#med83b96206" x="352.06008" y="326.818409" style="stroke: #000000; stroke-width: 0.8"/>
      </g>
     </g>
     <g id="text_11">
      <!-- JNEIV2-ES500 -->
      <g transform="translate(298.114462 391.666373) rotate(-45) scale(0.1 -0.1)">
       <use xlink:href="#DejaVuSerif-4a"/>
       <use xlink:href="#DejaVuSerif-4e" x="40.087891"/>
       <use xlink:href="#DejaVuSerif-45" x="127.587891"/>
       <use xlink:href="#DejaVuSerif-49" x="200.585938"/>
       <use xlink:href="#DejaVuSerif-56" x="240.087891"/>
       <use xlink:href="#DejaVuSerif-32" x="312.304688"/>
       <use xlink:href="#DejaVuSerif-2d" x="375.927734"/>
       <use xlink:href="#DejaVuSerif-45" x="409.716797"/>
       <use xlink:href="#DejaVuSerif-53" x="482.714844"/>
       <use xlink:href="#DejaVuSerif-35" x="551.220703"/>
       <use xlink:href="#DejaVuSerif-30" x="614.84375"/>
       <use xlink:href="#DejaVuSerif-30" x="678.466797"/>
      </g>
     </g>
    </g>
    <g id="xtick_12">
     <g id="line2d_23">
      <path d="M 378.470818 326.818409 
L 378.470818 28.08375 
" clip-path="url(#pf6a861eabe)" style="fill: none; stroke: #ffffff; stroke-width: 0.8; stroke-linecap: square"/>
     </g>
     <g id="line2d_24">
      <g>
       <use xlink:href="#med83b96206" x="378.470818" y="326.818409" style="stroke: #000000; stroke-width: 0.8"/>
      </g>
     </g>
     <g id="text_12">
      <!-- ITAPAC-GO230 -->
      <g transform="translate(322.810466 393.381107) rotate(-45) scale(0.1 -0.1)">
       <use xlink:href="#DejaVuSerif-49"/>
       <use xlink:href="#DejaVuSerif-54" x="39.501953"/>
       <use xlink:href="#DejaVuSerif-41" x="100.701172"/>
       <use xlink:href="#DejaVuSerif-50" x="172.917969"/>
       <use xlink:href="#DejaVuSerif-41" x="231.078125"/>
       <use xlink:href="#DejaVuSerif-43" x="303.294922"/>
       <use xlink:href="#DejaVuSerif-2d" x="379.808594"/>
       <use xlink:href="#DejaVuSerif-47" x="413.597656"/>
       <use xlink:href="#DejaVuSerif-4f" x="493.480469"/>
       <use xlink:href="#DejaVuSerif-32" x="575.462891"/>
       <use xlink:href="#DejaVuSerif-33" x="639.085938"/>
       <use xlink:href="#DejaVuSerif-30" x="702.708984"/>
      </g>
     </g>
    </g>
    <g id="xtick_13">
     <g id="line2d_25">
      <path d="M 404.881556 326.818409 
L 404.881556 28.08375 
" clip-path="url(#pf6a861eabe)" style="fill: none; stroke: #ffffff; stroke-width: 0.8; stroke-linecap: square"/>
     </g>
     <g id="line2d_26">
      <g>
       <use xlink:href="#med83b96206" x="404.881556" y="326.818409" style="stroke: #000000; stroke-width: 0.8"/>
      </g>
     </g>
     <g id="text_13">
      <!-- N.IGUA-RJ500 -->
      <g transform="translate(352.093825 390.508486) rotate(-45) scale(0.1 -0.1)">
       <use xlink:href="#DejaVuSerif-4e"/>
       <use xlink:href="#DejaVuSerif-2e" x="81.125"/>
       <use xlink:href="#DejaVuSerif-49" x="112.912109"/>
       <use xlink:href="#DejaVuSerif-47" x="152.414062"/>
       <use xlink:href="#DejaVuSerif-55" x="232.296875"/>
       <use xlink:href="#DejaVuSerif-41" x="313.449219"/>
       <use xlink:href="#DejaVuSerif-2d" x="385.666016"/>
       <use xlink:href="#DejaVuSerif-52" x="419.455078"/>
       <use xlink:href="#DejaVuSerif-4a" x="494.748047"/>
       <use xlink:href="#DejaVuSerif-35" x="534.835938"/>
       <use xlink:href="#DejaVuSerif-30" x="598.458984"/>
       <use xlink:href="#DejaVuSerif-30" x="662.082031"/>
      </g>
     </g>
    </g>
    <g id="xtick_14">
     <g id="line2d_27">
      <path d="M 431.292294 326.818409 
L 431.292294 28.08375 
" clip-path="url(#pf6a861eabe)" style="fill: none; stroke: #ffffff; stroke-width: 0.8; stroke-linecap: square"/>
     </g>
     <g id="line2d_28">
      <g>
       <use xlink:href="#med83b96206" x="431.292294" y="326.818409" style="stroke: #000000; stroke-width: 0.8"/>
      </g>
     </g>
     <g id="text_14">
      <!-- ARINO2-MG500 -->
      <g transform="translate(371.338477 397.674571) rotate(-45) scale(0.1 -0.1)">
       <use xlink:href="#DejaVuSerif-41"/>
       <use xlink:href="#DejaVuSerif-52" x="72.216797"/>
       <use xlink:href="#DejaVuSerif-49" x="147.509766"/>
       <use xlink:href="#DejaVuSerif-4e" x="187.011719"/>
       <use xlink:href="#DejaVuSerif-4f" x="274.511719"/>
       <use xlink:href="#DejaVuSerif-32" x="356.494141"/>
       <use xlink:href="#DejaVuSerif-2d" x="420.117188"/>
       <use xlink:href="#DejaVuSerif-4d" x="453.90625"/>
       <use xlink:href="#DejaVuSerif-47" x="556.298828"/>
       <use xlink:href="#DejaVuSerif-35" x="636.181641"/>
       <use xlink:href="#DejaVuSerif-30" x="699.804688"/>
       <use xlink:href="#DejaVuSerif-30" x="763.427734"/>
      </g>
     </g>
    </g>
    <g id="xtick_15">
     <g id="line2d_29">
      <path d="M 457.703031 326.818409 
L 457.703031 28.08375 
" clip-path="url(#pf6a861eabe)" style="fill: none; stroke: #ffffff; stroke-width: 0.8; stroke-linecap: square"/>
     </g>
     <g id="line2d_30">
      <g>
       <use xlink:href="#med83b96206" x="457.703031" y="326.818409" style="stroke: #000000; stroke-width: 0.8"/>
      </g>
     </g>
     <g id="text_15">
      <!-- IVINH2-MS230 -->
      <g transform="translate(400.716854 394.706932) rotate(-45) scale(0.1 -0.1)">
       <defs>
        <path id="DejaVuSerif-48" d="M 353 0 
L 353 331 
L 947 331 
L 947 4331 
L 353 4331 
L 353 4666 
L 2175 4666 
L 2175 4331 
L 1581 4331 
L 1581 2719 
L 4000 2719 
L 4000 4331 
L 3406 4331 
L 3406 4666 
L 5228 4666 
L 5228 4331 
L 4634 4331 
L 4634 331 
L 5228 331 
L 5228 0 
L 3406 0 
L 3406 331 
L 4000 331 
L 4000 2338 
L 1581 2338 
L 1581 331 
L 2175 331 
L 2175 0 
L 353 0 
z
" transform="scale(0.015625)"/>
       </defs>
       <use xlink:href="#DejaVuSerif-49"/>
       <use xlink:href="#DejaVuSerif-56" x="39.501953"/>
       <use xlink:href="#DejaVuSerif-49" x="111.71875"/>
       <use xlink:href="#DejaVuSerif-4e" x="151.220703"/>
       <use xlink:href="#DejaVuSerif-48" x="238.720703"/>
       <use xlink:href="#DejaVuSerif-32" x="325.927734"/>
       <use xlink:href="#DejaVuSerif-2d" x="389.550781"/>
       <use xlink:href="#DejaVuSerif-4d" x="423.339844"/>
       <use xlink:href="#DejaVuSerif-53" x="525.732422"/>
       <use xlink:href="#DejaVuSerif-32" x="594.238281"/>
       <use xlink:href="#DejaVuSerif-33" x="657.861328"/>
       <use xlink:href="#DejaVuSerif-30" x="721.484375"/>
      </g>
     </g>
    </g>
    <g id="xtick_16">
     <g id="line2d_31">
      <path d="M 484.113769 326.818409 
L 484.113769 28.08375 
" clip-path="url(#pf6a861eabe)" style="fill: none; stroke: #ffffff; stroke-width: 0.8; stroke-linecap: square"/>
     </g>
     <g id="line2d_32">
      <g>
       <use xlink:href="#med83b96206" x="484.113769" y="326.818409" style="stroke: #000000; stroke-width: 0.8"/>
      </g>
     </g>
     <g id="text_16">
      <!-- CAPIVA-SP440 -->
      <g transform="translate(429.351664 392.48286) rotate(-45) scale(0.1 -0.1)">
       <use xlink:href="#DejaVuSerif-43"/>
       <use xlink:href="#DejaVuSerif-41" x="76.513672"/>
       <use xlink:href="#DejaVuSerif-50" x="148.730469"/>
       <use xlink:href="#DejaVuSerif-49" x="216.015625"/>
       <use xlink:href="#DejaVuSerif-56" x="255.517578"/>
       <use xlink:href="#DejaVuSerif-41" x="320.984375"/>
       <use xlink:href="#DejaVuSerif-2d" x="393.201172"/>
       <use xlink:href="#DejaVuSerif-53" x="426.990234"/>
       <use xlink:href="#DejaVuSerif-50" x="495.496094"/>
       <use xlink:href="#DejaVuSerif-34" x="562.78125"/>
       <use xlink:href="#DejaVuSerif-34" x="626.404297"/>
       <use xlink:href="#DejaVuSerif-30" x="690.027344"/>
      </g>
     </g>
    </g>
    <g id="xtick_17">
     <g id="line2d_33">
      <path d="M 510.524507 326.818409 
L 510.524507 28.08375 
" clip-path="url(#pf6a861eabe)" style="fill: none; stroke: #ffffff; stroke-width: 0.8; stroke-linecap: square"/>
     </g>
     <g id="line2d_34">
      <g>
       <use xlink:href="#med83b96206" x="510.524507" y="326.818409" style="stroke: #000000; stroke-width: 0.8"/>
      </g>
     </g>
     <g id="text_17">
      <!-- S.JOSE-RJ500 -->
      <g transform="translate(459.402897 388.842365) rotate(-45) scale(0.1 -0.1)">
       <use xlink:href="#DejaVuSerif-53"/>
       <use xlink:href="#DejaVuSerif-2e" x="64.880859"/>
       <use xlink:href="#DejaVuSerif-4a" x="96.667969"/>
       <use xlink:href="#DejaVuSerif-4f" x="136.755859"/>
       <use xlink:href="#DejaVuSerif-53" x="218.738281"/>
       <use xlink:href="#DejaVuSerif-45" x="287.244141"/>
       <use xlink:href="#DejaVuSerif-2d" x="362.117188"/>
       <use xlink:href="#DejaVuSerif-52" x="395.90625"/>
       <use xlink:href="#DejaVuSerif-4a" x="471.199219"/>
       <use xlink:href="#DejaVuSerif-35" x="511.287109"/>
       <use xlink:href="#DejaVuSerif-30" x="574.910156"/>
       <use xlink:href="#DejaVuSerif-30" x="638.533203"/>
      </g>
     </g>
    </g>
    <g id="xtick_18">
     <g id="line2d_35">
      <path d="M 536.935245 326.818409 
L 536.935245 28.08375 
" clip-path="url(#pf6a861eabe)" style="fill: none; stroke: #ffffff; stroke-width: 0.8; stroke-linecap: square"/>
     </g>
     <g id="line2d_36">
      <g>
       <use xlink:href="#med83b96206" x="536.935245" y="326.818409" style="stroke: #000000; stroke-width: 0.8"/>
      </g>
     </g>
     <g id="text_18">
      <!-- ANGRA- -RJ500 -->
      <g transform="translate(481.654963 393.001037) rotate(-45) scale(0.1 -0.1)">
       <use xlink:href="#DejaVuSerif-41"/>
       <use xlink:href="#DejaVuSerif-4e" x="72.216797"/>
       <use xlink:href="#DejaVuSerif-47" x="159.716797"/>
       <use xlink:href="#DejaVuSerif-52" x="239.599609"/>
       <use xlink:href="#DejaVuSerif-41" x="314.892578"/>
       <use xlink:href="#DejaVuSerif-2d" x="387.109375"/>
       <use xlink:href="#DejaVuSerif-2d" x="420.898438"/>
       <use xlink:href="#DejaVuSerif-52" x="454.6875"/>
       <use xlink:href="#DejaVuSerif-4a" x="529.980469"/>
       <use xlink:href="#DejaVuSerif-35" x="570.068359"/>
       <use xlink:href="#DejaVuSerif-30" x="633.691406"/>
       <use xlink:href="#DejaVuSerif-30" x="697.314453"/>
      </g>
     </g>
    </g>
    <g id="xtick_19">
     <g id="line2d_37">
      <path d="M 563.345983 326.818409 
L 563.345983 28.08375 
" clip-path="url(#pf6a861eabe)" style="fill: none; stroke: #ffffff; stroke-width: 0.8; stroke-linecap: square"/>
     </g>
     <g id="line2d_38">
      <g>
       <use xlink:href="#med83b96206" x="563.345983" y="326.818409" style="stroke: #000000; stroke-width: 0.8"/>
      </g>
     </g>
     <g id="text_19">
      <!-- P.PEDR-MT230 -->
      <g transform="translate(507.546419 393.520319) rotate(-45) scale(0.1 -0.1)">
       <use xlink:href="#DejaVuSerif-50"/>
       <use xlink:href="#DejaVuSerif-2e" x="47.035156"/>
       <use xlink:href="#DejaVuSerif-50" x="78.822266"/>
       <use xlink:href="#DejaVuSerif-45" x="146.107422"/>
       <use xlink:href="#DejaVuSerif-44" x="219.105469"/>
       <use xlink:href="#DejaVuSerif-52" x="299.28125"/>
       <use xlink:href="#DejaVuSerif-2d" x="374.574219"/>
       <use xlink:href="#DejaVuSerif-4d" x="408.363281"/>
       <use xlink:href="#DejaVuSerif-54" x="510.755859"/>
       <use xlink:href="#DejaVuSerif-32" x="577.455078"/>
       <use xlink:href="#DejaVuSerif-33" x="641.078125"/>
       <use xlink:href="#DejaVuSerif-30" x="704.701172"/>
      </g>
     </g>
    </g>
    <g id="xtick_20">
     <g id="line2d_39">
      <path d="M 589.756721 326.818409 
L 589.756721 28.08375 
" clip-path="url(#pf6a861eabe)" style="fill: none; stroke: #ffffff; stroke-width: 0.8; stroke-linecap: square"/>
     </g>
     <g id="line2d_40">
      <g>
       <use xlink:href="#med83b96206" x="589.756721" y="326.818409" style="stroke: #000000; stroke-width: 0.8"/>
      </g>
     </g>
     <g id="text_20">
      <!-- ASSIS- -SP440 -->
      <g transform="translate(537.845139 389.632336) rotate(-45) scale(0.1 -0.1)">
       <use xlink:href="#DejaVuSerif-41"/>
       <use xlink:href="#DejaVuSerif-53" x="72.216797"/>
       <use xlink:href="#DejaVuSerif-53" x="138.972656"/>
       <use xlink:href="#DejaVuSerif-49" x="207.478516"/>
       <use xlink:href="#DejaVuSerif-53" x="246.980469"/>
       <use xlink:href="#DejaVuSerif-2d" x="319.111328"/>
       <use xlink:href="#DejaVuSerif-2d" x="352.900391"/>
       <use xlink:href="#DejaVuSerif-53" x="386.689453"/>
       <use xlink:href="#DejaVuSerif-50" x="455.195312"/>
       <use xlink:href="#DejaVuSerif-34" x="522.480469"/>
       <use xlink:href="#DejaVuSerif-34" x="586.103516"/>
       <use xlink:href="#DejaVuSerif-30" x="649.726562"/>
      </g>
     </g>
    </g>
    <g id="text_21">
     <!-- Barra -->
     <g transform="translate(314.34682 417.652361) scale(0.17 -0.17)">
      <defs>
       <path id="DejaVuSerif-42" d="M 1581 331 
L 2516 331 
Q 3078 331 3337 575 
Q 3597 819 3597 1350 
Q 3597 1878 3339 2120 
Q 3081 2363 2516 2363 
L 1581 2363 
L 1581 331 
z
M 1581 2694 
L 2375 2694 
Q 2888 2694 3123 2891 
Q 3359 3088 3359 3513 
Q 3359 3941 3123 4136 
Q 2888 4331 2375 4331 
L 1581 4331 
L 1581 2694 
z
M 353 0 
L 353 331 
L 947 331 
L 947 4331 
L 353 4331 
L 353 4666 
L 2656 4666 
Q 3363 4666 3720 4377 
Q 4078 4088 4078 3513 
Q 4078 3097 3829 2850 
Q 3581 2603 3103 2547 
Q 3697 2472 4005 2167 
Q 4313 1863 4313 1350 
Q 4313 656 3875 328 
Q 3438 0 2509 0 
L 353 0 
z
" transform="scale(0.015625)"/>
       <path id="DejaVuSerif-61" d="M 2547 1044 
L 2547 1747 
L 1806 1747 
Q 1378 1747 1168 1562 
Q 959 1378 959 997 
Q 959 650 1171 447 
Q 1384 244 1747 244 
Q 2106 244 2326 466 
Q 2547 688 2547 1044 
z
M 3122 2075 
L 3122 331 
L 3634 331 
L 3634 0 
L 2547 0 
L 2547 359 
Q 2356 128 2106 18 
Q 1856 -91 1522 -91 
Q 969 -91 644 203 
Q 319 497 319 997 
Q 319 1513 691 1797 
Q 1063 2081 1741 2081 
L 2547 2081 
L 2547 2309 
Q 2547 2688 2317 2895 
Q 2088 3103 1672 3103 
Q 1328 3103 1125 2947 
Q 922 2791 872 2484 
L 575 2484 
L 575 3156 
Q 875 3284 1158 3348 
Q 1441 3413 1709 3413 
Q 2400 3413 2761 3070 
Q 3122 2728 3122 2075 
z
" transform="scale(0.015625)"/>
       <path id="DejaVuSerif-72" d="M 3059 3328 
L 3059 2497 
L 2728 2497 
Q 2713 2744 2591 2866 
Q 2469 2988 2234 2988 
Q 1809 2988 1582 2694 
Q 1356 2400 1356 1850 
L 1356 331 
L 2022 331 
L 2022 0 
L 263 0 
L 263 331 
L 781 331 
L 781 2994 
L 231 2994 
L 231 3322 
L 1356 3322 
L 1356 2731 
Q 1525 3078 1790 3245 
Q 2056 3413 2438 3413 
Q 2578 3413 2733 3391 
Q 2888 3369 3059 3328 
z
" transform="scale(0.015625)"/>
      </defs>
      <use xlink:href="#DejaVuSerif-42"/>
      <use xlink:href="#DejaVuSerif-61" x="73.486328"/>
      <use xlink:href="#DejaVuSerif-72" x="133.105469"/>
      <use xlink:href="#DejaVuSerif-72" x="180.908203"/>
      <use xlink:href="#DejaVuSerif-61" x="228.710938"/>
     </g>
    </g>
   </g>
   <g id="matplotlib.axis_2">
    <g id="ytick_1">
     <g id="line2d_41">
      <path d="M 62.8625 313.239561 
L 614.846922 313.239561 
" clip-path="url(#pf6a861eabe)" style="fill: none; stroke: #ffffff; stroke-width: 0.8; stroke-linecap: square"/>
     </g>
     <g id="line2d_42">
      <defs>
       <path id="mc607887783" d="M 0 0 
L -3.5 0 
" style="stroke: #000000; stroke-width: 0.8"/>
      </defs>
      <g>
       <use xlink:href="#mc607887783" x="62.8625" y="313.239561" style="stroke: #000000; stroke-width: 0.8"/>
      </g>
     </g>
     <g id="text_22">
      <!-- 0.0 -->
      <g transform="translate(32.007812 318.938389) scale(0.15 -0.15)">
       <use xlink:href="#DejaVuSerif-30"/>
       <use xlink:href="#DejaVuSerif-2e" x="63.623047"/>
       <use xlink:href="#DejaVuSerif-30" x="95.410156"/>
      </g>
     </g>
    </g>
    <g id="ytick_2">
     <g id="line2d_43">
      <path d="M 62.8625 262.483949 
L 614.846922 262.483949 
" clip-path="url(#pf6a861eabe)" style="fill: none; stroke: #ffffff; stroke-width: 0.8; stroke-linecap: square"/>
     </g>
     <g id="line2d_44">
      <g>
       <use xlink:href="#mc607887783" x="62.8625" y="262.483949" style="stroke: #000000; stroke-width: 0.8"/>
      </g>
     </g>
     <g id="text_23">
      <!-- 0.2 -->
      <g transform="translate(32.007812 268.182777) scale(0.15 -0.15)">
       <use xlink:href="#DejaVuSerif-30"/>
       <use xlink:href="#DejaVuSerif-2e" x="63.623047"/>
       <use xlink:href="#DejaVuSerif-32" x="95.410156"/>
      </g>
     </g>
    </g>
    <g id="ytick_3">
     <g id="line2d_45">
      <path d="M 62.8625 211.728336 
L 614.846922 211.728336 
" clip-path="url(#pf6a861eabe)" style="fill: none; stroke: #ffffff; stroke-width: 0.8; stroke-linecap: square"/>
     </g>
     <g id="line2d_46">
      <g>
       <use xlink:href="#mc607887783" x="62.8625" y="211.728336" style="stroke: #000000; stroke-width: 0.8"/>
      </g>
     </g>
     <g id="text_24">
      <!-- 0.4 -->
      <g transform="translate(32.007812 217.427164) scale(0.15 -0.15)">
       <use xlink:href="#DejaVuSerif-30"/>
       <use xlink:href="#DejaVuSerif-2e" x="63.623047"/>
       <use xlink:href="#DejaVuSerif-34" x="95.410156"/>
      </g>
     </g>
    </g>
    <g id="ytick_4">
     <g id="line2d_47">
      <path d="M 62.8625 160.972724 
L 614.846922 160.972724 
" clip-path="url(#pf6a861eabe)" style="fill: none; stroke: #ffffff; stroke-width: 0.8; stroke-linecap: square"/>
     </g>
     <g id="line2d_48">
      <g>
       <use xlink:href="#mc607887783" x="62.8625" y="160.972724" style="stroke: #000000; stroke-width: 0.8"/>
      </g>
     </g>
     <g id="text_25">
      <!-- 0.6 -->
      <g transform="translate(32.007812 166.671552) scale(0.15 -0.15)">
       <defs>
        <path id="DejaVuSerif-36" d="M 2094 219 
Q 2534 219 2771 542 
Q 3009 866 3009 1472 
Q 3009 2078 2771 2401 
Q 2534 2725 2094 2725 
Q 1647 2725 1412 2412 
Q 1178 2100 1178 1509 
Q 1178 888 1415 553 
Q 1653 219 2094 219 
z
M 1075 2569 
Q 1288 2803 1556 2918 
Q 1825 3034 2163 3034 
Q 2859 3034 3264 2615 
Q 3669 2197 3669 1472 
Q 3669 763 3233 336 
Q 2797 -91 2069 -91 
Q 1278 -91 853 498 
Q 428 1088 428 2181 
Q 428 3406 931 4078 
Q 1434 4750 2350 4750 
Q 2597 4750 2869 4703 
Q 3141 4656 3425 4563 
L 3425 3794 
L 3072 3794 
Q 3034 4109 2831 4275 
Q 2628 4441 2284 4441 
Q 1678 4441 1381 3981 
Q 1084 3522 1075 2569 
z
" transform="scale(0.015625)"/>
       </defs>
       <use xlink:href="#DejaVuSerif-30"/>
       <use xlink:href="#DejaVuSerif-2e" x="63.623047"/>
       <use xlink:href="#DejaVuSerif-36" x="95.410156"/>
      </g>
     </g>
    </g>
    <g id="ytick_5">
     <g id="line2d_49">
      <path d="M 62.8625 110.217112 
L 614.846922 110.217112 
" clip-path="url(#pf6a861eabe)" style="fill: none; stroke: #ffffff; stroke-width: 0.8; stroke-linecap: square"/>
     </g>
     <g id="line2d_50">
      <g>
       <use xlink:href="#mc607887783" x="62.8625" y="110.217112" style="stroke: #000000; stroke-width: 0.8"/>
      </g>
     </g>
     <g id="text_26">
      <!-- 0.8 -->
      <g transform="translate(32.007812 115.91594) scale(0.15 -0.15)">
       <defs>
        <path id="DejaVuSerif-38" d="M 2981 1275 
Q 2981 1775 2732 2051 
Q 2484 2328 2034 2328 
Q 1584 2328 1336 2051 
Q 1088 1775 1088 1275 
Q 1088 772 1336 495 
Q 1584 219 2034 219 
Q 2484 219 2732 495 
Q 2981 772 2981 1275 
z
M 2853 3541 
Q 2853 3966 2637 4203 
Q 2422 4441 2034 4441 
Q 1650 4441 1433 4203 
Q 1216 3966 1216 3541 
Q 1216 3113 1433 2875 
Q 1650 2638 2034 2638 
Q 2422 2638 2637 2875 
Q 2853 3113 2853 3541 
z
M 2516 2484 
Q 3047 2413 3344 2092 
Q 3641 1772 3641 1275 
Q 3641 619 3225 264 
Q 2809 -91 2034 -91 
Q 1263 -91 845 264 
Q 428 619 428 1275 
Q 428 1772 725 2092 
Q 1022 2413 1556 2484 
Q 1084 2569 832 2842 
Q 581 3116 581 3541 
Q 581 4103 968 4426 
Q 1356 4750 2034 4750 
Q 2713 4750 3100 4426 
Q 3488 4103 3488 3541 
Q 3488 3116 3236 2842 
Q 2984 2569 2516 2484 
z
" transform="scale(0.015625)"/>
       </defs>
       <use xlink:href="#DejaVuSerif-30"/>
       <use xlink:href="#DejaVuSerif-2e" x="63.623047"/>
       <use xlink:href="#DejaVuSerif-38" x="95.410156"/>
      </g>
     </g>
    </g>
    <g id="ytick_6">
     <g id="line2d_51">
      <path d="M 62.8625 59.461499 
L 614.846922 59.461499 
" clip-path="url(#pf6a861eabe)" style="fill: none; stroke: #ffffff; stroke-width: 0.8; stroke-linecap: square"/>
     </g>
     <g id="line2d_52">
      <g>
       <use xlink:href="#mc607887783" x="62.8625" y="59.461499" style="stroke: #000000; stroke-width: 0.8"/>
      </g>
     </g>
     <g id="text_27">
      <!-- 1.0 -->
      <g transform="translate(32.007812 65.160327) scale(0.15 -0.15)">
       <defs>
        <path id="DejaVuSerif-31" d="M 909 0 
L 909 331 
L 1722 331 
L 1722 4213 
L 781 3603 
L 781 4013 
L 1919 4750 
L 2350 4750 
L 2350 331 
L 3163 331 
L 3163 0 
L 909 0 
z
" transform="scale(0.015625)"/>
       </defs>
       <use xlink:href="#DejaVuSerif-31"/>
       <use xlink:href="#DejaVuSerif-2e" x="63.623047"/>
       <use xlink:href="#DejaVuSerif-30" x="95.410156"/>
      </g>
     </g>
    </g>
    <g id="text_28">
     <!-- Indice (p.u) -->
     <g transform="translate(24.472344 227.185376) rotate(-90) scale(0.17 -0.17)">
      <defs>
       <path id="DejaVuSerif-6e" d="M 263 0 
L 263 331 
L 781 331 
L 781 2988 
L 231 2988 
L 231 3322 
L 1356 3322 
L 1356 2731 
Q 1516 3069 1770 3241 
Q 2025 3413 2363 3413 
Q 2913 3413 3172 3097 
Q 3431 2781 3431 2113 
L 3431 331 
L 3944 331 
L 3944 0 
L 2356 0 
L 2356 331 
L 2853 331 
L 2853 1931 
Q 2853 2541 2703 2767 
Q 2553 2994 2175 2994 
Q 1775 2994 1565 2701 
Q 1356 2409 1356 1850 
L 1356 331 
L 1856 331 
L 1856 0 
L 263 0 
z
" transform="scale(0.015625)"/>
       <path id="DejaVuSerif-64" d="M 3359 331 
L 3909 331 
L 3909 0 
L 2784 0 
L 2784 519 
Q 2616 206 2355 57 
Q 2094 -91 1709 -91 
Q 1097 -91 708 395 
Q 319 881 319 1663 
Q 319 2444 706 2928 
Q 1094 3413 1709 3413 
Q 2094 3413 2355 3264 
Q 2616 3116 2784 2803 
L 2784 4531 
L 2241 4531 
L 2241 4863 
L 3359 4863 
L 3359 331 
z
M 2784 1497 
L 2784 1825 
Q 2784 2422 2554 2737 
Q 2325 3053 1888 3053 
Q 1444 3053 1217 2703 
Q 991 2353 991 1663 
Q 991 975 1217 622 
Q 1444 269 1888 269 
Q 2325 269 2554 583 
Q 2784 897 2784 1497 
z
" transform="scale(0.015625)"/>
       <path id="DejaVuSerif-69" d="M 622 4353 
Q 622 4497 726 4603 
Q 831 4709 978 4709 
Q 1122 4709 1226 4603 
Q 1331 4497 1331 4353 
Q 1331 4206 1228 4103 
Q 1125 4000 978 4000 
Q 831 4000 726 4103 
Q 622 4206 622 4353 
z
M 1356 331 
L 1900 331 
L 1900 0 
L 231 0 
L 231 331 
L 781 331 
L 781 2988 
L 231 2988 
L 231 3322 
L 1356 3322 
L 1356 331 
z
" transform="scale(0.015625)"/>
       <path id="DejaVuSerif-63" d="M 3291 997 
Q 3169 466 2822 187 
Q 2475 -91 1925 -91 
Q 1200 -91 759 389 
Q 319 869 319 1663 
Q 319 2459 759 2936 
Q 1200 3413 1925 3413 
Q 2241 3413 2553 3339 
Q 2866 3266 3181 3116 
L 3181 2266 
L 2847 2266 
Q 2781 2703 2561 2903 
Q 2341 3103 1931 3103 
Q 1466 3103 1228 2742 
Q 991 2381 991 1663 
Q 991 944 1227 581 
Q 1463 219 1931 219 
Q 2303 219 2525 412 
Q 2747 606 2828 997 
L 3291 997 
z
" transform="scale(0.015625)"/>
       <path id="DejaVuSerif-65" d="M 3469 1600 
L 991 1600 
L 991 1575 
Q 991 903 1244 561 
Q 1497 219 1991 219 
Q 2369 219 2611 417 
Q 2853 616 2950 1006 
L 3413 1006 
Q 3275 459 2904 184 
Q 2534 -91 1931 -91 
Q 1203 -91 761 389 
Q 319 869 319 1663 
Q 319 2450 753 2931 
Q 1188 3413 1894 3413 
Q 2647 3413 3050 2948 
Q 3453 2484 3469 1600 
z
M 2791 1931 
Q 2772 2513 2545 2808 
Q 2319 3103 1894 3103 
Q 1497 3103 1269 2806 
Q 1041 2509 991 1931 
L 2791 1931 
z
" transform="scale(0.015625)"/>
       <path id="DejaVuSerif-20" transform="scale(0.015625)"/>
       <path id="DejaVuSerif-28" d="M 2041 -997 
Q 1281 -656 893 83 
Q 506 822 506 1931 
Q 506 3044 893 3783 
Q 1281 4522 2041 4863 
L 2041 4556 
Q 1559 4225 1350 3623 
Q 1141 3022 1141 1931 
Q 1141 844 1350 242 
Q 1559 -359 2041 -691 
L 2041 -997 
z
" transform="scale(0.015625)"/>
       <path id="DejaVuSerif-70" d="M 1313 1825 
L 1313 1497 
Q 1313 897 1542 583 
Q 1772 269 2209 269 
Q 2650 269 2876 622 
Q 3103 975 3103 1663 
Q 3103 2353 2876 2703 
Q 2650 3053 2209 3053 
Q 1772 3053 1542 2737 
Q 1313 2422 1313 1825 
z
M 738 2988 
L 184 2988 
L 184 3322 
L 1313 3322 
L 1313 2803 
Q 1481 3116 1742 3264 
Q 2003 3413 2388 3413 
Q 3000 3413 3387 2928 
Q 3775 2444 3775 1663 
Q 3775 881 3387 395 
Q 3000 -91 2388 -91 
Q 2003 -91 1742 57 
Q 1481 206 1313 519 
L 1313 -997 
L 1856 -997 
L 1856 -1331 
L 184 -1331 
L 184 -997 
L 738 -997 
L 738 2988 
z
" transform="scale(0.015625)"/>
       <path id="DejaVuSerif-75" d="M 2266 3322 
L 3341 3322 
L 3341 331 
L 3884 331 
L 3884 0 
L 2766 0 
L 2766 588 
Q 2606 256 2353 82 
Q 2100 -91 1766 -91 
Q 1213 -91 952 223 
Q 691 538 691 1209 
L 691 2988 
L 172 2988 
L 172 3322 
L 1269 3322 
L 1269 1388 
Q 1269 781 1417 556 
Q 1566 331 1947 331 
Q 2347 331 2556 625 
Q 2766 919 2766 1478 
L 2766 2988 
L 2266 2988 
L 2266 3322 
z
" transform="scale(0.015625)"/>
       <path id="DejaVuSerif-29" d="M 453 -997 
L 453 -691 
Q 934 -359 1145 242 
Q 1356 844 1356 1931 
Q 1356 3022 1145 3623 
Q 934 4225 453 4556 
L 453 4863 
Q 1216 4522 1603 3783 
Q 1991 3044 1991 1931 
Q 1991 822 1603 83 
Q 1216 -656 453 -997 
z
" transform="scale(0.015625)"/>
      </defs>
      <use xlink:href="#DejaVuSerif-49"/>
      <use xlink:href="#DejaVuSerif-6e" x="39.501953"/>
      <use xlink:href="#DejaVuSerif-64" x="103.90625"/>
      <use xlink:href="#DejaVuSerif-69" x="167.919922"/>
      <use xlink:href="#DejaVuSerif-63" x="199.902344"/>
      <use xlink:href="#DejaVuSerif-65" x="255.908203"/>
      <use xlink:href="#DejaVuSerif-20" x="315.087891"/>
      <use xlink:href="#DejaVuSerif-28" x="346.875"/>
      <use xlink:href="#DejaVuSerif-70" x="385.888672"/>
      <use xlink:href="#DejaVuSerif-2e" x="449.902344"/>
      <use xlink:href="#DejaVuSerif-75" x="481.689453"/>
      <use xlink:href="#DejaVuSerif-29" x="546.09375"/>
     </g>
    </g>
   </g>
   <g id="PathCollection_1">
    <path d="M 87.952701 46.662598 
C 89.278716 46.662598 90.5506 46.135767 91.488235 45.198132 
C 92.425869 44.260497 92.952701 42.988614 92.952701 41.662598 
C 92.952701 40.336583 92.425869 39.064699 91.488235 38.127064 
C 90.5506 37.18943 89.278716 36.662598 87.952701 36.662598 
C 86.626685 36.662598 85.354802 37.18943 84.417167 38.127064 
C 83.479533 39.064699 82.952701 40.336583 82.952701 41.662598 
C 82.952701 42.988614 83.479533 44.260497 84.417167 45.198132 
C 85.354802 46.135767 86.626685 46.662598 87.952701 46.662598 
z
" clip-path="url(#pf6a861eabe)" style="fill: #0000ff; stroke: #ffffff; stroke-width: 0.8"/>
    <path d="M 114.363439 189.681641 
C 115.689454 189.681641 116.961338 189.154809 117.898973 188.217175 
C 118.836607 187.27954 119.363439 186.007656 119.363439 184.681641 
C 119.363439 183.355625 118.836607 182.083742 117.898973 181.146107 
C 116.961338 180.208472 115.689454 179.681641 114.363439 179.681641 
C 113.037423 179.681641 111.76554 180.208472 110.827905 181.146107 
C 109.89027 182.083742 109.363439 183.355625 109.363439 184.681641 
C 109.363439 186.007656 109.89027 187.27954 110.827905 188.217175 
C 111.76554 189.154809 113.037423 189.681641 114.363439 189.681641 
z
" clip-path="url(#pf6a861eabe)" style="fill: #0000ff; stroke: #ffffff; stroke-width: 0.8"/>
    <path d="M 140.774177 239.90704 
C 142.100192 239.90704 143.372076 239.380208 144.309711 238.442574 
C 145.247345 237.504939 145.774177 236.233055 145.774177 234.90704 
C 145.774177 233.581024 145.247345 232.30914 144.309711 231.371506 
C 143.372076 230.433871 142.100192 229.90704 140.774177 229.90704 
C 139.448161 229.90704 138.176277 230.433871 137.238643 231.371506 
C 136.301008 232.30914 135.774177 233.581024 135.774177 234.90704 
C 135.774177 236.233055 136.301008 237.504939 137.238643 238.442574 
C 138.176277 239.380208 139.448161 239.90704 140.774177 239.90704 
z
" clip-path="url(#pf6a861eabe)" style="fill: #0000ff; stroke: #ffffff; stroke-width: 0.8"/>
    <path d="M 167.184915 256.173556 
C 168.51093 256.173556 169.782814 255.646724 170.720449 254.70909 
C 171.658083 253.771455 172.184915 252.499571 172.184915 251.173556 
C 172.184915 249.84754 171.658083 248.575656 170.720449 247.638022 
C 169.782814 246.700387 168.51093 246.173556 167.184915 246.173556 
C 165.858899 246.173556 164.587015 246.700387 163.649381 247.638022 
C 162.711746 248.575656 162.184915 249.84754 162.184915 251.173556 
C 162.184915 252.499571 162.711746 253.771455 163.649381 254.70909 
C 164.587015 255.646724 165.858899 256.173556 167.184915 256.173556 
z
" clip-path="url(#pf6a861eabe)" style="fill: #0000ff; stroke: #ffffff; stroke-width: 0.8"/>
    <path d="M 193.595653 262.572308 
C 194.921668 262.572308 196.193552 262.045476 197.131186 261.107842 
C 198.068821 260.170207 198.595653 258.898323 198.595653 257.572308 
C 198.595653 256.246292 198.068821 254.974408 197.131186 254.036774 
C 196.193552 253.099139 194.921668 252.572308 193.595653 252.572308 
C 192.269637 252.572308 190.997753 253.099139 190.060119 254.036774 
C 189.122484 254.974408 188.595653 256.246292 188.595653 257.572308 
C 188.595653 258.898323 189.122484 260.170207 190.060119 261.107842 
C 190.997753 262.045476 192.269637 262.572308 193.595653 262.572308 
z
" clip-path="url(#pf6a861eabe)" style="fill: #0000ff; stroke: #ffffff; stroke-width: 0.8"/>
    <path d="M 220.00639 264.031889 
C 221.332406 264.031889 222.60429 263.505057 223.541924 262.567423 
C 224.479559 261.629788 225.00639 260.357904 225.00639 259.031889 
C 225.00639 257.705873 224.479559 256.43399 223.541924 255.496355 
C 222.60429 254.55872 221.332406 254.031889 220.00639 254.031889 
C 218.680375 254.031889 217.408491 254.55872 216.470857 255.496355 
C 215.533222 256.43399 215.00639 257.705873 215.00639 259.031889 
C 215.00639 260.357904 215.533222 261.629788 216.470857 262.567423 
C 217.408491 263.505057 218.680375 264.031889 220.00639 264.031889 
z
" clip-path="url(#pf6a861eabe)" style="fill: #0000ff; stroke: #ffffff; stroke-width: 0.8"/>
    <path d="M 246.417128 264.144152 
C 247.743144 264.144152 249.015028 263.617321 249.952662 262.679686 
C 250.890297 261.742052 251.417128 260.470168 251.417128 259.144152 
C 251.417128 257.818137 250.890297 256.546253 249.952662 255.608618 
C 249.015028 254.670984 247.743144 254.144152 246.417128 254.144152 
C 245.091113 254.144152 243.819229 254.670984 242.881594 255.608618 
C 241.94396 256.546253 241.417128 257.818137 241.417128 259.144152 
C 241.417128 260.470168 241.94396 261.742052 242.881594 262.679686 
C 243.819229 263.617321 245.091113 264.144152 246.417128 264.144152 
z
" clip-path="url(#pf6a861eabe)" style="fill: #0000ff; stroke: #ffffff; stroke-width: 0.8"/>
    <path d="M 272.827866 268.030583 
C 274.153882 268.030583 275.425766 267.503751 276.3634 266.566116 
C 277.301035 265.628482 277.827866 264.356598 277.827866 263.030583 
C 277.827866 261.704567 277.301035 260.432683 276.3634 259.495049 
C 275.425766 258.557414 274.153882 258.030583 272.827866 258.030583 
C 271.501851 258.030583 270.229967 258.557414 269.292332 259.495049 
C 268.354698 260.432683 267.827866 261.704567 267.827866 263.030583 
C 267.827866 264.356598 268.354698 265.628482 269.292332 266.566116 
C 270.229967 267.503751 271.501851 268.030583 272.827866 268.030583 
z
" clip-path="url(#pf6a861eabe)" style="fill: #0000ff; stroke: #ffffff; stroke-width: 0.8"/>
    <path d="M 299.238604 275.217642 
C 300.56462 275.217642 301.836503 274.690811 302.774138 273.753176 
C 303.711773 272.815542 304.238604 271.543658 304.238604 270.217642 
C 304.238604 268.891627 303.711773 267.619743 302.774138 266.682108 
C 301.836503 265.744474 300.56462 265.217642 299.238604 265.217642 
C 297.912589 265.217642 296.640705 265.744474 295.70307 266.682108 
C 294.765436 267.619743 294.238604 268.891627 294.238604 270.217642 
C 294.238604 271.543658 294.765436 272.815542 295.70307 273.753176 
C 296.640705 274.690811 297.912589 275.217642 299.238604 275.217642 
z
" clip-path="url(#pf6a861eabe)" style="fill: #0000ff; stroke: #ffffff; stroke-width: 0.8"/>
    <path d="M 325.649342 286.216745 
C 326.975357 286.216745 328.247241 285.689913 329.184876 284.752279 
C 330.12251 283.814644 330.649342 282.54276 330.649342 281.216745 
C 330.649342 279.890729 330.12251 278.618845 329.184876 277.681211 
C 328.247241 276.743576 326.975357 276.216745 325.649342 276.216745 
C 324.323326 276.216745 323.051443 276.743576 322.113808 277.681211 
C 321.176174 278.618845 320.649342 279.890729 320.649342 281.216745 
C 320.649342 282.54276 321.176174 283.814644 322.113808 284.752279 
C 323.051443 285.689913 324.323326 286.216745 325.649342 286.216745 
z
" clip-path="url(#pf6a861eabe)" style="fill: #0000ff; stroke: #ffffff; stroke-width: 0.8"/>
    <path d="M 352.06008 286.566268 
C 353.386095 286.566268 354.657979 286.039437 355.595614 285.101802 
C 356.533248 284.164168 357.06008 282.892284 357.06008 281.566268 
C 357.06008 280.240253 356.533248 278.968369 355.595614 278.030734 
C 354.657979 277.0931 353.386095 276.566268 352.06008 276.566268 
C 350.734064 276.566268 349.462181 277.0931 348.524546 278.030734 
C 347.586911 278.968369 347.06008 280.240253 347.06008 281.566268 
C 347.06008 282.892284 347.586911 284.164168 348.524546 285.101802 
C 349.462181 286.039437 350.734064 286.566268 352.06008 286.566268 
z
" clip-path="url(#pf6a861eabe)" style="fill: #0000ff; stroke: #ffffff; stroke-width: 0.8"/>
    <path d="M 378.470818 290.851008 
C 379.796833 290.851008 381.068717 290.324177 382.006352 289.386542 
C 382.943986 288.448908 383.470818 287.177024 383.470818 285.851008 
C 383.470818 284.524993 382.943986 283.253109 382.006352 282.315474 
C 381.068717 281.37784 379.796833 280.851008 378.470818 280.851008 
C 377.144802 280.851008 375.872918 281.37784 374.935284 282.315474 
C 373.997649 283.253109 373.470818 284.524993 373.470818 285.851008 
C 373.470818 287.177024 373.997649 288.448908 374.935284 289.386542 
C 375.872918 290.324177 377.144802 290.851008 378.470818 290.851008 
z
" clip-path="url(#pf6a861eabe)" style="fill: #0000ff; stroke: #ffffff; stroke-width: 0.8"/>
    <path d="M 404.881556 292.525647 
C 406.207571 292.525647 407.479455 291.998816 408.41709 291.061181 
C 409.354724 290.123546 409.881556 288.851663 409.881556 287.525647 
C 409.881556 286.199632 409.354724 284.927748 408.41709 283.990113 
C 407.479455 283.052479 406.207571 282.525647 404.881556 282.525647 
C 403.55554 282.525647 402.283656 283.052479 401.346022 283.990113 
C 400.408387 284.927748 399.881556 286.199632 399.881556 287.525647 
C 399.881556 288.851663 400.408387 290.123546 401.346022 291.061181 
C 402.283656 291.998816 403.55554 292.525647 404.881556 292.525647 
z
" clip-path="url(#pf6a861eabe)" style="fill: #0000ff; stroke: #ffffff; stroke-width: 0.8"/>
    <path d="M 431.292294 292.541824 
C 432.618309 292.541824 433.890193 292.014992 434.827827 291.077358 
C 435.765462 290.139723 436.292294 288.867839 436.292294 287.541824 
C 436.292294 286.215808 435.765462 284.943925 434.827827 284.00629 
C 433.890193 283.068655 432.618309 282.541824 431.292294 282.541824 
C 429.966278 282.541824 428.694394 283.068655 427.75676 284.00629 
C 426.819125 284.943925 426.292294 286.215808 426.292294 287.541824 
C 426.292294 288.867839 426.819125 290.139723 427.75676 291.077358 
C 428.694394 292.014992 429.966278 292.541824 431.292294 292.541824 
z
" clip-path="url(#pf6a861eabe)" style="fill: #0000ff; stroke: #ffffff; stroke-width: 0.8"/>
    <path d="M 457.703031 296.337093 
C 459.029047 296.337093 460.300931 295.810262 461.238565 294.872627 
C 462.1762 293.934992 462.703031 292.663109 462.703031 291.337093 
C 462.703031 290.011078 462.1762 288.739194 461.238565 287.801559 
C 460.300931 286.863925 459.029047 286.337093 457.703031 286.337093 
C 456.377016 286.337093 455.105132 286.863925 454.167498 287.801559 
C 453.229863 288.739194 452.703031 290.011078 452.703031 291.337093 
C 452.703031 292.663109 453.229863 293.934992 454.167498 294.872627 
C 455.105132 295.810262 456.377016 296.337093 457.703031 296.337093 
z
" clip-path="url(#pf6a861eabe)" style="fill: #0000ff; stroke: #ffffff; stroke-width: 0.8"/>
    <path d="M 484.113769 296.973763 
C 485.439785 296.973763 486.711669 296.446932 487.649303 295.509297 
C 488.586938 294.571663 489.113769 293.299779 489.113769 291.973763 
C 489.113769 290.647748 488.586938 289.375864 487.649303 288.43823 
C 486.711669 287.500595 485.439785 286.973763 484.113769 286.973763 
C 482.787754 286.973763 481.51587 287.500595 480.578235 288.43823 
C 479.640601 289.375864 479.113769 290.647748 479.113769 291.973763 
C 479.113769 293.299779 479.640601 294.571663 480.578235 295.509297 
C 481.51587 296.446932 482.787754 296.973763 484.113769 296.973763 
z
" clip-path="url(#pf6a861eabe)" style="fill: #0000ff; stroke: #ffffff; stroke-width: 0.8"/>
    <path d="M 510.524507 300.300704 
C 511.850523 300.300704 513.122407 299.773873 514.060041 298.836238 
C 514.997676 297.898604 515.524507 296.62672 515.524507 295.300704 
C 515.524507 293.974689 514.997676 292.702805 514.060041 291.765171 
C 513.122407 290.827536 511.850523 290.300704 510.524507 290.300704 
C 509.198492 290.300704 507.926608 290.827536 506.988973 291.765171 
C 506.051339 292.702805 505.524507 293.974689 505.524507 295.300704 
C 505.524507 296.62672 506.051339 297.898604 506.988973 298.836238 
C 507.926608 299.773873 509.198492 300.300704 510.524507 300.300704 
z
" clip-path="url(#pf6a861eabe)" style="fill: #0000ff; stroke: #ffffff; stroke-width: 0.8"/>
    <path d="M 536.935245 300.940371 
C 538.261261 300.940371 539.533144 300.41354 540.470779 299.475905 
C 541.408414 298.538271 541.935245 297.266387 541.935245 295.940371 
C 541.935245 294.614356 541.408414 293.342472 540.470779 292.404837 
C 539.533144 291.467203 538.261261 290.940371 536.935245 290.940371 
C 535.60923 290.940371 534.337346 291.467203 533.399711 292.404837 
C 532.462077 293.342472 531.935245 294.614356 531.935245 295.940371 
C 531.935245 297.266387 532.462077 298.538271 533.399711 299.475905 
C 534.337346 300.41354 535.60923 300.940371 536.935245 300.940371 
z
" clip-path="url(#pf6a861eabe)" style="fill: #0000ff; stroke: #ffffff; stroke-width: 0.8"/>
    <path d="M 563.345983 301.313653 
C 564.671998 301.313653 565.943882 300.786821 566.881517 299.849186 
C 567.819151 298.911552 568.345983 297.639668 568.345983 296.313653 
C 568.345983 294.987637 567.819151 293.715753 566.881517 292.778119 
C 565.943882 291.840484 564.671998 291.313653 563.345983 291.313653 
C 562.019967 291.313653 560.748084 291.840484 559.810449 292.778119 
C 558.872815 293.715753 558.345983 294.987637 558.345983 296.313653 
C 558.345983 297.639668 558.872815 298.911552 559.810449 299.849186 
C 560.748084 300.786821 562.019967 301.313653 563.345983 301.313653 
z
" clip-path="url(#pf6a861eabe)" style="fill: #0000ff; stroke: #ffffff; stroke-width: 0.8"/>
    <path d="M 589.756721 302.654327 
C 591.082736 302.654327 592.35462 302.127496 593.292255 301.189861 
C 594.229889 300.252227 594.756721 298.980343 594.756721 297.654327 
C 594.756721 296.328312 594.229889 295.056428 593.292255 294.118794 
C 592.35462 293.181159 591.082736 292.654327 589.756721 292.654327 
C 588.430705 292.654327 587.158822 293.181159 586.221187 294.118794 
C 585.283552 295.056428 584.756721 296.328312 584.756721 297.654327 
C 584.756721 298.980343 585.283552 300.252227 586.221187 301.189861 
C 587.158822 302.127496 588.430705 302.654327 589.756721 302.654327 
z
" clip-path="url(#pf6a861eabe)" style="fill: #0000ff; stroke: #ffffff; stroke-width: 0.8"/>
    <path d="M 87.952701 299.509596 
L 82.952701 309.509596 
L 92.952701 309.509596 
z
" clip-path="url(#pf6a861eabe)" style="fill: #ffa500; stroke: #ffffff; stroke-width: 0.8"/>
    <path d="M 114.363439 290.982653 
L 109.363439 300.982653 
L 119.363439 300.982653 
z
" clip-path="url(#pf6a861eabe)" style="fill: #ffa500; stroke: #ffffff; stroke-width: 0.8"/>
    <path d="M 140.774177 308.239561 
L 135.774177 318.239561 
L 145.774177 318.239561 
z
" clip-path="url(#pf6a861eabe)" style="fill: #ffa500; stroke: #ffffff; stroke-width: 0.8"/>
    <path d="M 167.184915 308.239561 
L 162.184915 318.239561 
L 172.184915 318.239561 
z
" clip-path="url(#pf6a861eabe)" style="fill: #ffa500; stroke: #ffffff; stroke-width: 0.8"/>
    <path d="M 193.595653 308.239561 
L 188.595653 318.239561 
L 198.595653 318.239561 
z
" clip-path="url(#pf6a861eabe)" style="fill: #ffa500; stroke: #ffffff; stroke-width: 0.8"/>
    <path d="M 220.00639 300.524708 
L 215.00639 310.524708 
L 225.00639 310.524708 
z
" clip-path="url(#pf6a861eabe)" style="fill: #ffa500; stroke: #ffffff; stroke-width: 0.8"/>
    <path d="M 246.417128 308.239561 
L 241.417128 318.239561 
L 251.417128 318.239561 
z
" clip-path="url(#pf6a861eabe)" style="fill: #ffa500; stroke: #ffffff; stroke-width: 0.8"/>
    <path d="M 272.827866 308.239561 
L 267.827866 318.239561 
L 277.827866 318.239561 
z
" clip-path="url(#pf6a861eabe)" style="fill: #ffa500; stroke: #ffffff; stroke-width: 0.8"/>
    <path d="M 299.238604 181.354144 
L 294.238604 191.354144 
L 304.238604 191.354144 
z
" clip-path="url(#pf6a861eabe)" style="fill: #ffa500; stroke: #ffffff; stroke-width: 0.8"/>
    <path d="M 325.649342 308.239561 
L 320.649342 318.239561 
L 330.649342 318.239561 
z
" clip-path="url(#pf6a861eabe)" style="fill: #ffa500; stroke: #ffffff; stroke-width: 0.8"/>
    <path d="M 352.06008 297.479371 
L 347.06008 307.479371 
L 357.06008 307.479371 
z
" clip-path="url(#pf6a861eabe)" style="fill: #ffa500; stroke: #ffffff; stroke-width: 0.8"/>
    <path d="M 378.470818 308.239561 
L 373.470818 318.239561 
L 383.470818 318.239561 
z
" clip-path="url(#pf6a861eabe)" style="fill: #ffa500; stroke: #ffffff; stroke-width: 0.8"/>
    <path d="M 404.881556 308.239561 
L 399.881556 318.239561 
L 409.881556 318.239561 
z
" clip-path="url(#pf6a861eabe)" style="fill: #ffa500; stroke: #ffffff; stroke-width: 0.8"/>
    <path d="M 431.292294 132.523631 
L 426.292294 142.523631 
L 436.292294 142.523631 
z
" clip-path="url(#pf6a861eabe)" style="fill: #ffa500; stroke: #ffffff; stroke-width: 0.8"/>
    <path d="M 457.703031 308.239561 
L 452.703031 318.239561 
L 462.703031 318.239561 
z
" clip-path="url(#pf6a861eabe)" style="fill: #ffa500; stroke: #ffffff; stroke-width: 0.8"/>
    <path d="M 484.113769 308.239561 
L 479.113769 318.239561 
L 489.113769 318.239561 
z
" clip-path="url(#pf6a861eabe)" style="fill: #ffa500; stroke: #ffffff; stroke-width: 0.8"/>
    <path d="M 510.524507 308.239561 
L 505.524507 318.239561 
L 515.524507 318.239561 
z
" clip-path="url(#pf6a861eabe)" style="fill: #ffa500; stroke: #ffffff; stroke-width: 0.8"/>
    <path d="M 536.935245 308.239561 
L 531.935245 318.239561 
L 541.935245 318.239561 
z
" clip-path="url(#pf6a861eabe)" style="fill: #ffa500; stroke: #ffffff; stroke-width: 0.8"/>
    <path d="M 563.345983 308.239561 
L 558.345983 318.239561 
L 568.345983 318.239561 
z
" clip-path="url(#pf6a861eabe)" style="fill: #ffa500; stroke: #ffffff; stroke-width: 0.8"/>
    <path d="M 589.756721 308.239561 
L 584.756721 318.239561 
L 594.756721 318.239561 
z
" clip-path="url(#pf6a861eabe)" style="fill: #ffa500; stroke: #ffffff; stroke-width: 0.8"/>
    <path d="M 87.952701 308.239561 
L 82.952701 318.239561 
L 92.952701 318.239561 
z
" clip-path="url(#pf6a861eabe)" style="fill: #800080; stroke: #ffffff; stroke-width: 0.8"/>
    <path d="M 114.363439 308.239561 
L 109.363439 318.239561 
L 119.363439 318.239561 
z
" clip-path="url(#pf6a861eabe)" style="fill: #800080; stroke: #ffffff; stroke-width: 0.8"/>
    <path d="M 140.774177 308.239561 
L 135.774177 318.239561 
L 145.774177 318.239561 
z
" clip-path="url(#pf6a861eabe)" style="fill: #800080; stroke: #ffffff; stroke-width: 0.8"/>
    <path d="M 167.184915 308.239561 
L 162.184915 318.239561 
L 172.184915 318.239561 
z
" clip-path="url(#pf6a861eabe)" style="fill: #800080; stroke: #ffffff; stroke-width: 0.8"/>
    <path d="M 193.595653 308.239561 
L 188.595653 318.239561 
L 198.595653 318.239561 
z
" clip-path="url(#pf6a861eabe)" style="fill: #800080; stroke: #ffffff; stroke-width: 0.8"/>
    <path d="M 220.00639 308.239561 
L 215.00639 318.239561 
L 225.00639 318.239561 
z
" clip-path="url(#pf6a861eabe)" style="fill: #800080; stroke: #ffffff; stroke-width: 0.8"/>
    <path d="M 246.417128 308.239561 
L 241.417128 318.239561 
L 251.417128 318.239561 
z
" clip-path="url(#pf6a861eabe)" style="fill: #800080; stroke: #ffffff; stroke-width: 0.8"/>
    <path d="M 272.827866 308.239561 
L 267.827866 318.239561 
L 277.827866 318.239561 
z
" clip-path="url(#pf6a861eabe)" style="fill: #800080; stroke: #ffffff; stroke-width: 0.8"/>
    <path d="M 299.238604 308.239561 
L 294.238604 318.239561 
L 304.238604 318.239561 
z
" clip-path="url(#pf6a861eabe)" style="fill: #800080; stroke: #ffffff; stroke-width: 0.8"/>
    <path d="M 325.649342 308.239561 
L 320.649342 318.239561 
L 330.649342 318.239561 
z
" clip-path="url(#pf6a861eabe)" style="fill: #800080; stroke: #ffffff; stroke-width: 0.8"/>
    <path d="M 352.06008 308.239561 
L 347.06008 318.239561 
L 357.06008 318.239561 
z
" clip-path="url(#pf6a861eabe)" style="fill: #800080; stroke: #ffffff; stroke-width: 0.8"/>
    <path d="M 378.470818 308.239561 
L 373.470818 318.239561 
L 383.470818 318.239561 
z
" clip-path="url(#pf6a861eabe)" style="fill: #800080; stroke: #ffffff; stroke-width: 0.8"/>
    <path d="M 404.881556 308.239561 
L 399.881556 318.239561 
L 409.881556 318.239561 
z
" clip-path="url(#pf6a861eabe)" style="fill: #800080; stroke: #ffffff; stroke-width: 0.8"/>
    <path d="M 431.292294 308.239561 
L 426.292294 318.239561 
L 436.292294 318.239561 
z
" clip-path="url(#pf6a861eabe)" style="fill: #800080; stroke: #ffffff; stroke-width: 0.8"/>
    <path d="M 457.703031 308.239561 
L 452.703031 318.239561 
L 462.703031 318.239561 
z
" clip-path="url(#pf6a861eabe)" style="fill: #800080; stroke: #ffffff; stroke-width: 0.8"/>
    <path d="M 484.113769 308.239561 
L 479.113769 318.239561 
L 489.113769 318.239561 
z
" clip-path="url(#pf6a861eabe)" style="fill: #800080; stroke: #ffffff; stroke-width: 0.8"/>
    <path d="M 510.524507 308.239561 
L 505.524507 318.239561 
L 515.524507 318.239561 
z
" clip-path="url(#pf6a861eabe)" style="fill: #800080; stroke: #ffffff; stroke-width: 0.8"/>
    <path d="M 536.935245 308.239561 
L 531.935245 318.239561 
L 541.935245 318.239561 
z
" clip-path="url(#pf6a861eabe)" style="fill: #800080; stroke: #ffffff; stroke-width: 0.8"/>
    <path d="M 563.345983 308.239561 
L 558.345983 318.239561 
L 568.345983 318.239561 
z
" clip-path="url(#pf6a861eabe)" style="fill: #800080; stroke: #ffffff; stroke-width: 0.8"/>
    <path d="M 589.756721 308.239561 
L 584.756721 318.239561 
L 594.756721 318.239561 
z
" clip-path="url(#pf6a861eabe)" style="fill: #800080; stroke: #ffffff; stroke-width: 0.8"/>
   </g>
   <g id="line2d_53"/>
   <g id="line2d_54"/>
   <g id="line2d_55"/>
   <g id="line2d_56">
    <path d="M 87.952701 313.239561 
L 114.363439 313.239561 
L 140.774177 313.239561 
L 167.184915 313.239561 
L 193.595653 313.239561 
L 220.00639 313.239561 
L 246.417128 313.239561 
L 272.827866 313.239561 
L 299.238604 313.239561 
L 325.649342 313.239561 
L 352.06008 313.239561 
L 378.470818 313.239561 
L 404.881556 313.239561 
L 431.292294 313.239561 
L 457.703031 313.239561 
L 484.113769 313.239561 
L 510.524507 313.239561 
L 536.935245 313.239561 
L 563.345983 313.239561 
L 589.756721 313.239561 
" clip-path="url(#pf6a861eabe)" style="fill: none; stroke-dasharray: 4.44,1.92; stroke-dashoffset: 0; stroke: #800080; stroke-width: 1.2"/>
   </g>
   <g id="line2d_57">
    <path d="M 87.952701 304.509596 
L 114.363439 295.982653 
L 140.774177 313.239561 
L 167.184915 313.239561 
L 193.595653 313.239561 
L 220.00639 305.524708 
L 246.417128 313.239561 
L 272.827866 313.239561 
L 299.238604 186.354144 
L 325.649342 313.239561 
L 352.06008 302.479371 
L 378.470818 313.239561 
L 404.881556 313.239561 
L 431.292294 137.523631 
L 457.703031 313.239561 
L 484.113769 313.239561 
L 510.524507 313.239561 
L 536.935245 313.239561 
L 563.345983 313.239561 
L 589.756721 313.239561 
" clip-path="url(#pf6a861eabe)" style="fill: none; stroke-dasharray: 4.44,1.92; stroke-dashoffset: 0; stroke: #ffa500; stroke-width: 1.2"/>
   </g>
   <g id="line2d_58">
    <path d="M 87.952701 41.662598 
L 114.363439 184.681641 
L 140.774177 234.90704 
L 167.184915 251.173556 
L 193.595653 257.572308 
L 220.00639 259.031889 
L 246.417128 259.144152 
L 272.827866 263.030583 
L 299.238604 270.217642 
L 325.649342 281.216745 
L 352.06008 281.566268 
L 378.470818 285.851008 
L 404.881556 287.525647 
L 431.292294 287.541824 
L 457.703031 291.337093 
L 484.113769 291.973763 
L 510.524507 295.300704 
L 536.935245 295.940371 
L 563.345983 296.313653 
L 589.756721 297.654327 
" clip-path="url(#pf6a861eabe)" style="fill: none; stroke: #0000ff; stroke-width: 2; stroke-linecap: square"/>
   </g>
   <g id="patch_3">
    <path d="M 62.8625 326.818409 
L 62.8625 28.08375 
" style="fill: none; stroke: #000000; stroke-width: 1.2; stroke-linejoin: miter; stroke-linecap: square"/>
   </g>
   <g id="patch_4">
    <path d="M 614.846922 326.818409 
L 614.846922 28.08375 
" style="fill: none; stroke: #000000; stroke-width: 1.2; stroke-linejoin: miter; stroke-linecap: square"/>
   </g>
   <g id="patch_5">
    <path d="M 62.8625 326.818409 
L 614.846922 326.818409 
" style="fill: none; stroke: #000000; stroke-width: 1.2; stroke-linejoin: miter; stroke-linecap: square"/>
   </g>
   <g id="patch_6">
    <path d="M 62.8625 28.08375 
L 614.846922 28.08375 
" style="fill: none; stroke: #000000; stroke-width: 1.2; stroke-linejoin: miter; stroke-linecap: square"/>
   </g>
   <g id="text_29">
    <!-- Highest average index for (PQ Buses) - SE-CW - IndiceInf -->
    <g transform="translate(119.97893 22.08375) scale(0.15 -0.15)">
     <defs>
      <path id="DejaVuSerif-67" d="M 3359 2988 
L 3359 72 
Q 3359 -644 2965 -1033 
Q 2572 -1422 1844 -1422 
Q 1516 -1422 1216 -1362 
Q 916 -1303 641 -1184 
L 641 -488 
L 941 -488 
Q 997 -813 1206 -963 
Q 1416 -1113 1806 -1113 
Q 2313 -1113 2548 -827 
Q 2784 -541 2784 72 
L 2784 519 
Q 2616 206 2355 57 
Q 2094 -91 1709 -91 
Q 1097 -91 708 395 
Q 319 881 319 1663 
Q 319 2444 706 2928 
Q 1094 3413 1709 3413 
Q 2094 3413 2355 3264 
Q 2616 3116 2784 2803 
L 2784 3322 
L 3909 3322 
L 3909 2988 
L 3359 2988 
z
M 2784 1825 
Q 2784 2422 2554 2737 
Q 2325 3053 1888 3053 
Q 1444 3053 1217 2703 
Q 991 2353 991 1663 
Q 991 975 1217 622 
Q 1444 269 1888 269 
Q 2325 269 2554 583 
Q 2784 897 2784 1497 
L 2784 1825 
z
" transform="scale(0.015625)"/>
      <path id="DejaVuSerif-68" d="M 263 0 
L 263 331 
L 781 331 
L 781 4531 
L 231 4531 
L 231 4863 
L 1356 4863 
L 1356 2731 
Q 1516 3069 1770 3241 
Q 2025 3413 2363 3413 
Q 2913 3413 3172 3097 
Q 3431 2781 3431 2113 
L 3431 331 
L 3944 331 
L 3944 0 
L 2356 0 
L 2356 331 
L 2853 331 
L 2853 1931 
Q 2853 2541 2704 2764 
Q 2556 2988 2175 2988 
Q 1775 2988 1565 2697 
Q 1356 2406 1356 1850 
L 1356 331 
L 1856 331 
L 1856 0 
L 263 0 
z
" transform="scale(0.015625)"/>
      <path id="DejaVuSerif-73" d="M 359 184 
L 359 959 
L 691 959 
Q 703 588 923 403 
Q 1144 219 1575 219 
Q 1963 219 2166 364 
Q 2369 509 2369 788 
Q 2369 1006 2220 1140 
Q 2072 1275 1594 1428 
L 1178 1569 
Q 750 1706 558 1912 
Q 366 2119 366 2438 
Q 366 2894 700 3153 
Q 1034 3413 1625 3413 
Q 1888 3413 2178 3344 
Q 2469 3275 2778 3144 
L 2778 2419 
L 2447 2419 
Q 2434 2741 2221 2922 
Q 2009 3103 1644 3103 
Q 1281 3103 1095 2975 
Q 909 2847 909 2591 
Q 909 2381 1050 2254 
Q 1191 2128 1613 1997 
L 2069 1856 
Q 2541 1709 2748 1489 
Q 2956 1269 2956 922 
Q 2956 450 2595 179 
Q 2234 -91 1600 -91 
Q 1278 -91 972 -22 
Q 666 47 359 184 
z
" transform="scale(0.015625)"/>
      <path id="DejaVuSerif-74" d="M 691 2988 
L 184 2988 
L 184 3322 
L 691 3322 
L 691 4353 
L 1269 4353 
L 1269 3322 
L 2350 3322 
L 2350 2988 
L 1269 2988 
L 1269 878 
Q 1269 456 1350 337 
Q 1431 219 1650 219 
Q 1875 219 1978 351 
Q 2081 484 2088 781 
L 2522 781 
Q 2497 328 2275 118 
Q 2053 -91 1600 -91 
Q 1103 -91 897 129 
Q 691 350 691 878 
L 691 2988 
z
" transform="scale(0.015625)"/>
      <path id="DejaVuSerif-76" d="M 1581 0 
L 359 2988 
L -19 2988 
L -19 3322 
L 1509 3322 
L 1509 2988 
L 978 2988 
L 1913 703 
L 2847 2988 
L 2350 2988 
L 2350 3322 
L 3597 3322 
L 3597 2988 
L 3225 2988 
L 2003 0 
L 1581 0 
z
" transform="scale(0.015625)"/>
      <path id="DejaVuSerif-78" d="M 1863 2028 
L 2559 2988 
L 2113 2988 
L 2113 3322 
L 3391 3322 
L 3391 2988 
L 2950 2988 
L 2059 1759 
L 3097 331 
L 3531 331 
L 3531 0 
L 1997 0 
L 1997 331 
L 2419 331 
L 1697 1325 
L 972 331 
L 1403 331 
L 1403 0 
L 141 0 
L 141 331 
L 581 331 
L 1497 1594 
L 488 2988 
L 78 2988 
L 78 3322 
L 1563 3322 
L 1563 2988 
L 1166 2988 
L 1863 2028 
z
" transform="scale(0.015625)"/>
      <path id="DejaVuSerif-66" d="M 2753 4078 
L 2450 4078 
Q 2447 4313 2317 4434 
Q 2188 4556 1941 4556 
Q 1619 4556 1487 4379 
Q 1356 4203 1356 3750 
L 1356 3322 
L 2284 3322 
L 2284 2988 
L 1356 2988 
L 1356 331 
L 2094 331 
L 2094 0 
L 231 0 
L 231 331 
L 781 331 
L 781 2988 
L 231 2988 
L 231 3322 
L 781 3322 
L 781 3738 
Q 781 4294 1070 4578 
Q 1359 4863 1919 4863 
Q 2128 4863 2337 4825 
Q 2547 4788 2753 4709 
L 2753 4078 
z
" transform="scale(0.015625)"/>
      <path id="DejaVuSerif-6f" d="M 1925 219 
Q 2388 219 2623 584 
Q 2859 950 2859 1663 
Q 2859 2375 2623 2739 
Q 2388 3103 1925 3103 
Q 1463 3103 1227 2739 
Q 991 2375 991 1663 
Q 991 950 1228 584 
Q 1466 219 1925 219 
z
M 1925 -91 
Q 1200 -91 759 389 
Q 319 869 319 1663 
Q 319 2456 758 2934 
Q 1197 3413 1925 3413 
Q 2653 3413 3092 2934 
Q 3531 2456 3531 1663 
Q 3531 869 3092 389 
Q 2653 -91 1925 -91 
z
" transform="scale(0.015625)"/>
      <path id="DejaVuSerif-51" d="M 2700 -91 
Q 1628 -91 993 567 
Q 359 1225 359 2328 
Q 359 2894 529 3339 
Q 700 3784 1050 4134 
Q 1356 4441 1750 4595 
Q 2144 4750 2625 4750 
Q 3641 4750 4266 4084 
Q 4891 3419 4891 2328 
Q 4891 1403 4422 773 
Q 3953 144 3128 -38 
Q 3297 -247 3539 -347 
Q 3781 -447 4122 -447 
L 4219 -447 
L 4219 -1025 
Q 3691 -1000 3314 -767 
Q 2938 -534 2700 -91 
z
M 2625 244 
Q 3391 244 3781 770 
Q 4172 1297 4172 2328 
Q 4172 3363 3781 3889 
Q 3391 4416 2625 4416 
Q 1856 4416 1465 3889 
Q 1075 3363 1075 2328 
Q 1075 1297 1465 770 
Q 1856 244 2625 244 
z
" transform="scale(0.015625)"/>
      <path id="DejaVuSerif-57" d="M 4878 0 
L 4366 0 
L 3297 3794 
L 2228 0 
L 1716 0 
L 494 4331 
L 31 4331 
L 31 4666 
L 1734 4666 
L 1734 4331 
L 1153 4331 
L 2125 884 
L 3188 4666 
L 3694 4666 
L 4775 844 
L 5753 4331 
L 5216 4331 
L 5216 4666 
L 6559 4666 
L 6559 4331 
L 6100 4331 
L 4878 0 
z
" transform="scale(0.015625)"/>
     </defs>
     <use xlink:href="#DejaVuSerif-48"/>
     <use xlink:href="#DejaVuSerif-69" x="87.207031"/>
     <use xlink:href="#DejaVuSerif-67" x="119.189453"/>
     <use xlink:href="#DejaVuSerif-68" x="183.203125"/>
     <use xlink:href="#DejaVuSerif-65" x="247.607422"/>
     <use xlink:href="#DejaVuSerif-73" x="306.787109"/>
     <use xlink:href="#DejaVuSerif-74" x="358.105469"/>
     <use xlink:href="#DejaVuSerif-20" x="398.291016"/>
     <use xlink:href="#DejaVuSerif-61" x="430.078125"/>
     <use xlink:href="#DejaVuSerif-76" x="489.697266"/>
     <use xlink:href="#DejaVuSerif-65" x="546.191406"/>
     <use xlink:href="#DejaVuSerif-72" x="605.371094"/>
     <use xlink:href="#DejaVuSerif-61" x="653.173828"/>
     <use xlink:href="#DejaVuSerif-67" x="712.792969"/>
     <use xlink:href="#DejaVuSerif-65" x="776.806641"/>
     <use xlink:href="#DejaVuSerif-20" x="835.986328"/>
     <use xlink:href="#DejaVuSerif-69" x="867.773438"/>
     <use xlink:href="#DejaVuSerif-6e" x="899.755859"/>
     <use xlink:href="#DejaVuSerif-64" x="964.160156"/>
     <use xlink:href="#DejaVuSerif-65" x="1028.173828"/>
     <use xlink:href="#DejaVuSerif-78" x="1087.353516"/>
     <use xlink:href="#DejaVuSerif-20" x="1143.75"/>
     <use xlink:href="#DejaVuSerif-66" x="1175.537109"/>
     <use xlink:href="#DejaVuSerif-6f" x="1212.548828"/>
     <use xlink:href="#DejaVuSerif-72" x="1272.753906"/>
     <use xlink:href="#DejaVuSerif-20" x="1320.556641"/>
     <use xlink:href="#DejaVuSerif-28" x="1352.34375"/>
     <use xlink:href="#DejaVuSerif-50" x="1391.357422"/>
     <use xlink:href="#DejaVuSerif-51" x="1458.642578"/>
     <use xlink:href="#DejaVuSerif-20" x="1540.625"/>
     <use xlink:href="#DejaVuSerif-42" x="1572.412109"/>
     <use xlink:href="#DejaVuSerif-75" x="1645.898438"/>
     <use xlink:href="#DejaVuSerif-73" x="1710.302734"/>
     <use xlink:href="#DejaVuSerif-65" x="1761.621094"/>
     <use xlink:href="#DejaVuSerif-73" x="1820.800781"/>
     <use xlink:href="#DejaVuSerif-29" x="1872.119141"/>
     <use xlink:href="#DejaVuSerif-20" x="1911.132812"/>
     <use xlink:href="#DejaVuSerif-2d" x="1942.919922"/>
     <use xlink:href="#DejaVuSerif-20" x="1976.708984"/>
     <use xlink:href="#DejaVuSerif-53" x="2008.496094"/>
     <use xlink:href="#DejaVuSerif-45" x="2077.001953"/>
     <use xlink:href="#DejaVuSerif-2d" x="2151.875"/>
     <use xlink:href="#DejaVuSerif-43" x="2185.664062"/>
     <use xlink:href="#DejaVuSerif-57" x="2262.177734"/>
     <use xlink:href="#DejaVuSerif-20" x="2364.960938"/>
     <use xlink:href="#DejaVuSerif-2d" x="2396.748047"/>
     <use xlink:href="#DejaVuSerif-20" x="2430.537109"/>
     <use xlink:href="#DejaVuSerif-49" x="2462.324219"/>
     <use xlink:href="#DejaVuSerif-6e" x="2501.826172"/>
     <use xlink:href="#DejaVuSerif-64" x="2566.230469"/>
     <use xlink:href="#DejaVuSerif-69" x="2630.244141"/>
     <use xlink:href="#DejaVuSerif-63" x="2662.226562"/>
     <use xlink:href="#DejaVuSerif-65" x="2718.232422"/>
     <use xlink:href="#DejaVuSerif-49" x="2777.412109"/>
     <use xlink:href="#DejaVuSerif-6e" x="2816.914062"/>
     <use xlink:href="#DejaVuSerif-66" x="2881.318359"/>
    </g>
   </g>
   <g id="legend_1">
    <g id="patch_7">
     <path d="M 623.946922 111.906562 
L 706.106922 111.906562 
Q 708.706922 111.906562 708.706922 109.306562 
L 708.706922 37.18375 
Q 708.706922 34.58375 706.106922 34.58375 
L 623.946922 34.58375 
Q 621.346922 34.58375 621.346922 37.18375 
L 621.346922 109.306562 
Q 621.346922 111.906562 623.946922 111.906562 
z
" style="fill: #e5e5e5; opacity: 0.8; stroke: #cccccc; stroke-width: 0.5; stroke-linejoin: miter"/>
    </g>
    <g id="text_30">
     <!-- Indices -->
     <g transform="translate(646.706609 47.382187) scale(0.1 -0.1)">
      <use xlink:href="#DejaVuSerif-49"/>
      <use xlink:href="#DejaVuSerif-6e" x="39.501953"/>
      <use xlink:href="#DejaVuSerif-64" x="103.90625"/>
      <use xlink:href="#DejaVuSerif-69" x="167.919922"/>
      <use xlink:href="#DejaVuSerif-63" x="199.902344"/>
      <use xlink:href="#DejaVuSerif-65" x="255.908203"/>
      <use xlink:href="#DejaVuSerif-73" x="315.087891"/>
     </g>
    </g>
    <g id="line2d_59">
     <defs>
      <path id="m9b5b4e362d" d="M 0 5 
C 1.326016 5 2.597899 4.473168 3.535534 3.535534 
C 4.473168 2.597899 5 1.326016 5 0 
C 5 -1.326016 4.473168 -2.597899 3.535534 -3.535534 
C 2.597899 -4.473168 1.326016 -5 0 -5 
C -1.326016 -5 -2.597899 -4.473168 -3.535534 -3.535534 
C -4.473168 -2.597899 -5 -1.326016 -5 0 
C -5 1.326016 -4.473168 2.597899 -3.535534 3.535534 
C -2.597899 4.473168 -1.326016 5 0 5 
z
" style="stroke: #0000ff"/>
     </defs>
     <g>
      <use xlink:href="#m9b5b4e362d" x="639.546922" y="61.289844" style="fill: #0000ff; stroke: #0000ff"/>
     </g>
    </g>
    <g id="text_31">
     <!-- $\mathrm{VPI}^\mathrm{l}$ -->
     <g transform="translate(662.946922 65.839844) scale(0.13 -0.13)">
      <defs>
       <path id="DejaVuSerif-6c" d="M 1313 331 
L 1856 331 
L 1856 0 
L 184 0 
L 184 331 
L 738 331 
L 738 4531 
L 184 4531 
L 184 4863 
L 1313 4863 
L 1313 331 
z
" transform="scale(0.015625)"/>
      </defs>
      <use xlink:href="#DejaVuSerif-56" transform="translate(0 0.476562)"/>
      <use xlink:href="#DejaVuSerif-50" transform="translate(72.216797 0.476562)"/>
      <use xlink:href="#DejaVuSerif-49" transform="translate(139.501953 0.476562)"/>
      <use xlink:href="#DejaVuSerif-6c" transform="translate(179.912266 36.810937) scale(0.7)"/>
     </g>
    </g>
    <g id="line2d_60">
     <defs>
      <path id="m80358c8923" d="M 0 -5 
L -5 5 
L 5 5 
z
" style="stroke: #ffa500; stroke-linejoin: miter"/>
     </defs>
     <g>
      <use xlink:href="#m80358c8923" x="639.546922" y="80.371406" style="fill: #ffa500; stroke: #ffa500; stroke-linejoin: miter"/>
     </g>
    </g>
    <g id="text_32">
     <!-- $\mathrm{RPI}^\mathrm{ind}$ -->
     <g transform="translate(662.946922 84.921406) scale(0.13 -0.13)">
      <use xlink:href="#DejaVuSerif-52" transform="translate(0 0.476562)"/>
      <use xlink:href="#DejaVuSerif-50" transform="translate(75.292969 0.476562)"/>
      <use xlink:href="#DejaVuSerif-49" transform="translate(142.578125 0.476562)"/>
      <use xlink:href="#DejaVuSerif-69" transform="translate(182.988438 36.810937) scale(0.7)"/>
      <use xlink:href="#DejaVuSerif-6e" transform="translate(205.376133 36.810937) scale(0.7)"/>
      <use xlink:href="#DejaVuSerif-64" transform="translate(250.459141 36.810937) scale(0.7)"/>
     </g>
    </g>
    <g id="line2d_61">
     <defs>
      <path id="mba2b43bb30" d="M 0 -5 
L -5 5 
L 5 5 
z
" style="stroke: #800080; stroke-linejoin: miter"/>
     </defs>
     <g>
      <use xlink:href="#mba2b43bb30" x="639.546922" y="99.452969" style="fill: #800080; stroke: #800080; stroke-linejoin: miter"/>
     </g>
    </g>
    <g id="text_33">
     <!-- $\mathrm{RPI}^\mathrm{cap}$ -->
     <g transform="translate(662.946922 104.002969) scale(0.13 -0.13)">
      <use xlink:href="#DejaVuSerif-52" transform="translate(0 0.335938)"/>
      <use xlink:href="#DejaVuSerif-50" transform="translate(75.292969 0.335938)"/>
      <use xlink:href="#DejaVuSerif-49" transform="translate(142.578125 0.335938)"/>
      <use xlink:href="#DejaVuSerif-63" transform="translate(182.988438 36.670312) scale(0.7)"/>
      <use xlink:href="#DejaVuSerif-61" transform="translate(222.192539 36.670312) scale(0.7)"/>
      <use xlink:href="#DejaVuSerif-70" transform="translate(263.925937 36.670312) scale(0.7)"/>
     </g>
    </g>
   </g>
  </g>
 </g>
 <defs>
  <clipPath id="pf6a861eabe">
   <rect x="62.8625" y="28.08375" width="551.984422" height="298.734659"/>
  </clipPath>
 </defs>
</svg>
