<?xml version="1.0" encoding="utf-8" standalone="no"?>
<!DOCTYPE svg PUBLIC "-//W3C//DTD SVG 1.1//EN"
  "http://www.w3.org/Graphics/SVG/1.1/DTD/svg11.dtd">
<svg xmlns:xlink="http://www.w3.org/1999/xlink" width="1296pt" height="648pt" viewBox="0 0 1296 648" xmlns="http://www.w3.org/2000/svg" version="1.1">
 <metadata>
  <rdf:RDF xmlns:dc="http://purl.org/dc/elements/1.1/" xmlns:cc="http://creativecommons.org/ns#" xmlns:rdf="http://www.w3.org/1999/02/22-rdf-syntax-ns#">
   <cc:Work>
    <dc:type rdf:resource="http://purl.org/dc/dcmitype/StillImage"/>
    <dc:date>2024-10-17T09:17:03.461728</dc:date>
    <dc:format>image/svg+xml</dc:format>
    <dc:creator>
     <cc:Agent>
      <dc:title>Matplotlib v3.7.2, https://matplotlib.org/</dc:title>
     </cc:Agent>
    </dc:creator>
   </cc:Work>
  </rdf:RDF>
 </metadata>
 <defs>
  <style type="text/css">*{stroke-linejoin: round; stroke-linecap: butt}</style>
 </defs>
 <g id="figure_1">
  <g id="patch_1">
   <path d="M 0 648 
L 1296 648 
L 1296 0 
L 0 0 
z
" style="fill: #ffffff"/>
  </g>
  <g id="axes_1">
   <g id="patch_2">
    <path d="M 67.3625 503.061311 
L 1285.2 503.061311 
L 1285.2 101.592 
L 67.3625 101.592 
z
" style="fill: #e5e5e5"/>
   </g>
   <g id="matplotlib.axis_1">
    <g id="xtick_1">
     <g id="line2d_1">
      <path d="M 122.71875 503.061311 
L 122.71875 101.592 
" clip-path="url(#p44b4a602e1)" style="fill: none; stroke: #ffffff; stroke-width: 0.8; stroke-linecap: square"/>
     </g>
     <g id="line2d_2">
      <defs>
       <path id="mfaaffe9b92" d="M 0 0 
L 0 3.5 
" style="stroke: #000000; stroke-width: 0.8"/>
      </defs>
      <g>
       <use xlink:href="#mfaaffe9b92" x="122.71875" y="503.061311" style="stroke: #000000; stroke-width: 0.8"/>
      </g>
     </g>
     <g id="text_1">
      <!-- 802 - 230 kV -->
      <g transform="translate(48.896729 560.456586) rotate(-30) scale(0.13 -0.13)">
       <defs>
        <path id="DejaVuSerif-38" d="M 2981 1275 
Q 2981 1775 2732 2051 
Q 2484 2328 2034 2328 
Q 1584 2328 1336 2051 
Q 1088 1775 1088 1275 
Q 1088 772 1336 495 
Q 1584 219 2034 219 
Q 2484 219 2732 495 
Q 2981 772 2981 1275 
z
M 2853 3541 
Q 2853 3966 2637 4203 
Q 2422 4441 2034 4441 
Q 1650 4441 1433 4203 
Q 1216 3966 1216 3541 
Q 1216 3113 1433 2875 
Q 1650 2638 2034 2638 
Q 2422 2638 2637 2875 
Q 2853 3113 2853 3541 
z
M 2516 2484 
Q 3047 2413 3344 2092 
Q 3641 1772 3641 1275 
Q 3641 619 3225 264 
Q 2809 -91 2034 -91 
Q 1263 -91 845 264 
Q 428 619 428 1275 
Q 428 1772 725 2092 
Q 1022 2413 1556 2484 
Q 1084 2569 832 2842 
Q 581 3116 581 3541 
Q 581 4103 968 4426 
Q 1356 4750 2034 4750 
Q 2713 4750 3100 4426 
Q 3488 4103 3488 3541 
Q 3488 3116 3236 2842 
Q 2984 2569 2516 2484 
z
" transform="scale(0.015625)"/>
        <path id="DejaVuSerif-30" d="M 2034 219 
Q 2513 219 2750 744 
Q 2988 1269 2988 2328 
Q 2988 3391 2750 3916 
Q 2513 4441 2034 4441 
Q 1556 4441 1318 3916 
Q 1081 3391 1081 2328 
Q 1081 1269 1318 744 
Q 1556 219 2034 219 
z
M 2034 -91 
Q 1275 -91 848 546 
Q 422 1184 422 2328 
Q 422 3475 848 4112 
Q 1275 4750 2034 4750 
Q 2797 4750 3222 4112 
Q 3647 3475 3647 2328 
Q 3647 1184 3222 546 
Q 2797 -91 2034 -91 
z
" transform="scale(0.015625)"/>
        <path id="DejaVuSerif-32" d="M 819 3553 
L 469 3553 
L 469 4384 
Q 803 4563 1142 4656 
Q 1481 4750 1806 4750 
Q 2534 4750 2956 4397 
Q 3378 4044 3378 3438 
Q 3378 2753 2422 1800 
Q 2347 1728 2309 1691 
L 1131 513 
L 3078 513 
L 3078 1088 
L 3444 1088 
L 3444 0 
L 434 0 
L 434 341 
L 1850 1753 
Q 2319 2222 2519 2614 
Q 2719 3006 2719 3438 
Q 2719 3909 2473 4175 
Q 2228 4441 1797 4441 
Q 1350 4441 1106 4219 
Q 863 3997 819 3553 
z
" transform="scale(0.015625)"/>
        <path id="DejaVuSerif-20" transform="scale(0.015625)"/>
        <path id="DejaVuSerif-2d" d="M 281 1959 
L 1881 1959 
L 1881 1472 
L 281 1472 
L 281 1959 
z
" transform="scale(0.015625)"/>
        <path id="DejaVuSerif-33" d="M 622 4469 
Q 988 4606 1323 4678 
Q 1659 4750 1953 4750 
Q 2638 4750 3022 4454 
Q 3406 4159 3406 3634 
Q 3406 3213 3140 2930 
Q 2875 2647 2388 2547 
Q 2963 2466 3280 2130 
Q 3597 1794 3597 1259 
Q 3597 606 3158 257 
Q 2719 -91 1894 -91 
Q 1528 -91 1179 -12 
Q 831 66 488 225 
L 488 1131 
L 838 1131 
Q 869 681 1141 450 
Q 1413 219 1906 219 
Q 2384 219 2661 495 
Q 2938 772 2938 1253 
Q 2938 1803 2653 2086 
Q 2369 2369 1819 2369 
L 1522 2369 
L 1522 2688 
L 1678 2688 
Q 2225 2688 2498 2914 
Q 2772 3141 2772 3597 
Q 2772 4006 2547 4223 
Q 2322 4441 1900 4441 
Q 1478 4441 1245 4241 
Q 1013 4041 972 3647 
L 622 3647 
L 622 4469 
z
" transform="scale(0.015625)"/>
        <path id="DejaVuSerif-6b" d="M 1831 0 
L 219 0 
L 219 331 
L 738 331 
L 738 4531 
L 184 4531 
L 184 4863 
L 1313 4863 
L 1313 1697 
L 2713 2988 
L 2234 2988 
L 2234 3322 
L 3738 3322 
L 3738 2988 
L 3169 2988 
L 2181 2075 
L 3444 331 
L 3922 331 
L 3922 0 
L 2284 0 
L 2284 331 
L 2759 331 
L 1766 1697 
L 1313 1275 
L 1313 331 
L 1831 331 
L 1831 0 
z
" transform="scale(0.015625)"/>
        <path id="DejaVuSerif-56" d="M 1119 4331 
L 2497 750 
L 3872 4331 
L 3347 4331 
L 3347 4666 
L 4716 4666 
L 4716 4331 
L 4263 4331 
L 2597 0 
L 2059 0 
L 403 4331 
L -63 4331 
L -63 4666 
L 1638 4666 
L 1638 4331 
L 1119 4331 
z
" transform="scale(0.015625)"/>
       </defs>
       <use xlink:href="#DejaVuSerif-38"/>
       <use xlink:href="#DejaVuSerif-30" x="63.623047"/>
       <use xlink:href="#DejaVuSerif-32" x="127.246094"/>
       <use xlink:href="#DejaVuSerif-20" x="190.869141"/>
       <use xlink:href="#DejaVuSerif-2d" x="222.65625"/>
       <use xlink:href="#DejaVuSerif-20" x="256.445312"/>
       <use xlink:href="#DejaVuSerif-32" x="288.232422"/>
       <use xlink:href="#DejaVuSerif-33" x="351.855469"/>
       <use xlink:href="#DejaVuSerif-30" x="415.478516"/>
       <use xlink:href="#DejaVuSerif-20" x="479.101562"/>
       <use xlink:href="#DejaVuSerif-6b" x="510.888672"/>
       <use xlink:href="#DejaVuSerif-56" x="571.484375"/>
      </g>
     </g>
    </g>
    <g id="xtick_2">
     <g id="line2d_3">
      <path d="M 261.109375 503.061311 
L 261.109375 101.592 
" clip-path="url(#p44b4a602e1)" style="fill: none; stroke: #ffffff; stroke-width: 0.8; stroke-linecap: square"/>
     </g>
     <g id="line2d_4">
      <g>
       <use xlink:href="#mfaaffe9b92" x="261.109375" y="503.061311" style="stroke: #000000; stroke-width: 0.8"/>
      </g>
     </g>
     <g id="text_2">
      <!-- 863 - 230 kV Imperatriz -->
      <g transform="translate(123.183478 597.466976) rotate(-30) scale(0.13 -0.13)">
       <defs>
        <path id="DejaVuSerif-36" d="M 2094 219 
Q 2534 219 2771 542 
Q 3009 866 3009 1472 
Q 3009 2078 2771 2401 
Q 2534 2725 2094 2725 
Q 1647 2725 1412 2412 
Q 1178 2100 1178 1509 
Q 1178 888 1415 553 
Q 1653 219 2094 219 
z
M 1075 2569 
Q 1288 2803 1556 2918 
Q 1825 3034 2163 3034 
Q 2859 3034 3264 2615 
Q 3669 2197 3669 1472 
Q 3669 763 3233 336 
Q 2797 -91 2069 -91 
Q 1278 -91 853 498 
Q 428 1088 428 2181 
Q 428 3406 931 4078 
Q 1434 4750 2350 4750 
Q 2597 4750 2869 4703 
Q 3141 4656 3425 4563 
L 3425 3794 
L 3072 3794 
Q 3034 4109 2831 4275 
Q 2628 4441 2284 4441 
Q 1678 4441 1381 3981 
Q 1084 3522 1075 2569 
z
" transform="scale(0.015625)"/>
        <path id="DejaVuSerif-49" d="M 1581 331 
L 2175 331 
L 2175 0 
L 353 0 
L 353 331 
L 947 331 
L 947 4331 
L 353 4331 
L 353 4666 
L 2175 4666 
L 2175 4331 
L 1581 4331 
L 1581 331 
z
" transform="scale(0.015625)"/>
        <path id="DejaVuSerif-6d" d="M 3316 2675 
Q 3481 3041 3739 3227 
Q 3997 3413 4341 3413 
Q 4863 3413 5119 3089 
Q 5375 2766 5375 2113 
L 5375 331 
L 5894 331 
L 5894 0 
L 4300 0 
L 4300 331 
L 4800 331 
L 4800 2047 
Q 4800 2556 4650 2772 
Q 4500 2988 4153 2988 
Q 3769 2988 3567 2697 
Q 3366 2406 3366 1850 
L 3366 331 
L 3866 331 
L 3866 0 
L 2291 0 
L 2291 331 
L 2791 331 
L 2791 2069 
Q 2791 2566 2641 2777 
Q 2491 2988 2144 2988 
Q 1759 2988 1557 2697 
Q 1356 2406 1356 1850 
L 1356 331 
L 1856 331 
L 1856 0 
L 263 0 
L 263 331 
L 781 331 
L 781 2994 
L 231 2994 
L 231 3322 
L 1356 3322 
L 1356 2731 
Q 1516 3063 1762 3238 
Q 2009 3413 2322 3413 
Q 2709 3413 2968 3220 
Q 3228 3028 3316 2675 
z
" transform="scale(0.015625)"/>
        <path id="DejaVuSerif-70" d="M 1313 1825 
L 1313 1497 
Q 1313 897 1542 583 
Q 1772 269 2209 269 
Q 2650 269 2876 622 
Q 3103 975 3103 1663 
Q 3103 2353 2876 2703 
Q 2650 3053 2209 3053 
Q 1772 3053 1542 2737 
Q 1313 2422 1313 1825 
z
M 738 2988 
L 184 2988 
L 184 3322 
L 1313 3322 
L 1313 2803 
Q 1481 3116 1742 3264 
Q 2003 3413 2388 3413 
Q 3000 3413 3387 2928 
Q 3775 2444 3775 1663 
Q 3775 881 3387 395 
Q 3000 -91 2388 -91 
Q 2003 -91 1742 57 
Q 1481 206 1313 519 
L 1313 -997 
L 1856 -997 
L 1856 -1331 
L 184 -1331 
L 184 -997 
L 738 -997 
L 738 2988 
z
" transform="scale(0.015625)"/>
        <path id="DejaVuSerif-65" d="M 3469 1600 
L 991 1600 
L 991 1575 
Q 991 903 1244 561 
Q 1497 219 1991 219 
Q 2369 219 2611 417 
Q 2853 616 2950 1006 
L 3413 1006 
Q 3275 459 2904 184 
Q 2534 -91 1931 -91 
Q 1203 -91 761 389 
Q 319 869 319 1663 
Q 319 2450 753 2931 
Q 1188 3413 1894 3413 
Q 2647 3413 3050 2948 
Q 3453 2484 3469 1600 
z
M 2791 1931 
Q 2772 2513 2545 2808 
Q 2319 3103 1894 3103 
Q 1497 3103 1269 2806 
Q 1041 2509 991 1931 
L 2791 1931 
z
" transform="scale(0.015625)"/>
        <path id="DejaVuSerif-72" d="M 3059 3328 
L 3059 2497 
L 2728 2497 
Q 2713 2744 2591 2866 
Q 2469 2988 2234 2988 
Q 1809 2988 1582 2694 
Q 1356 2400 1356 1850 
L 1356 331 
L 2022 331 
L 2022 0 
L 263 0 
L 263 331 
L 781 331 
L 781 2994 
L 231 2994 
L 231 3322 
L 1356 3322 
L 1356 2731 
Q 1525 3078 1790 3245 
Q 2056 3413 2438 3413 
Q 2578 3413 2733 3391 
Q 2888 3369 3059 3328 
z
" transform="scale(0.015625)"/>
        <path id="DejaVuSerif-61" d="M 2547 1044 
L 2547 1747 
L 1806 1747 
Q 1378 1747 1168 1562 
Q 959 1378 959 997 
Q 959 650 1171 447 
Q 1384 244 1747 244 
Q 2106 244 2326 466 
Q 2547 688 2547 1044 
z
M 3122 2075 
L 3122 331 
L 3634 331 
L 3634 0 
L 2547 0 
L 2547 359 
Q 2356 128 2106 18 
Q 1856 -91 1522 -91 
Q 969 -91 644 203 
Q 319 497 319 997 
Q 319 1513 691 1797 
Q 1063 2081 1741 2081 
L 2547 2081 
L 2547 2309 
Q 2547 2688 2317 2895 
Q 2088 3103 1672 3103 
Q 1328 3103 1125 2947 
Q 922 2791 872 2484 
L 575 2484 
L 575 3156 
Q 875 3284 1158 3348 
Q 1441 3413 1709 3413 
Q 2400 3413 2761 3070 
Q 3122 2728 3122 2075 
z
" transform="scale(0.015625)"/>
        <path id="DejaVuSerif-74" d="M 691 2988 
L 184 2988 
L 184 3322 
L 691 3322 
L 691 4353 
L 1269 4353 
L 1269 3322 
L 2350 3322 
L 2350 2988 
L 1269 2988 
L 1269 878 
Q 1269 456 1350 337 
Q 1431 219 1650 219 
Q 1875 219 1978 351 
Q 2081 484 2088 781 
L 2522 781 
Q 2497 328 2275 118 
Q 2053 -91 1600 -91 
Q 1103 -91 897 129 
Q 691 350 691 878 
L 691 2988 
z
" transform="scale(0.015625)"/>
        <path id="DejaVuSerif-69" d="M 622 4353 
Q 622 4497 726 4603 
Q 831 4709 978 4709 
Q 1122 4709 1226 4603 
Q 1331 4497 1331 4353 
Q 1331 4206 1228 4103 
Q 1125 4000 978 4000 
Q 831 4000 726 4103 
Q 622 4206 622 4353 
z
M 1356 331 
L 1900 331 
L 1900 0 
L 231 0 
L 231 331 
L 781 331 
L 781 2988 
L 231 2988 
L 231 3322 
L 1356 3322 
L 1356 331 
z
" transform="scale(0.015625)"/>
        <path id="DejaVuSerif-7a" d="M 256 0 
L 256 269 
L 2338 2988 
L 691 2988 
L 691 2413 
L 359 2413 
L 359 3322 
L 3078 3322 
L 3078 3053 
L 997 331 
L 2803 331 
L 2803 934 
L 3138 934 
L 3138 0 
L 256 0 
z
" transform="scale(0.015625)"/>
       </defs>
       <use xlink:href="#DejaVuSerif-38"/>
       <use xlink:href="#DejaVuSerif-36" x="63.623047"/>
       <use xlink:href="#DejaVuSerif-33" x="127.246094"/>
       <use xlink:href="#DejaVuSerif-20" x="190.869141"/>
       <use xlink:href="#DejaVuSerif-2d" x="222.65625"/>
       <use xlink:href="#DejaVuSerif-20" x="256.445312"/>
       <use xlink:href="#DejaVuSerif-32" x="288.232422"/>
       <use xlink:href="#DejaVuSerif-33" x="351.855469"/>
       <use xlink:href="#DejaVuSerif-30" x="415.478516"/>
       <use xlink:href="#DejaVuSerif-20" x="479.101562"/>
       <use xlink:href="#DejaVuSerif-6b" x="510.888672"/>
       <use xlink:href="#DejaVuSerif-56" x="571.484375"/>
       <use xlink:href="#DejaVuSerif-20" x="643.701172"/>
       <use xlink:href="#DejaVuSerif-49" x="675.488281"/>
       <use xlink:href="#DejaVuSerif-6d" x="714.990234"/>
       <use xlink:href="#DejaVuSerif-70" x="809.814453"/>
       <use xlink:href="#DejaVuSerif-65" x="873.828125"/>
       <use xlink:href="#DejaVuSerif-72" x="933.007812"/>
       <use xlink:href="#DejaVuSerif-61" x="980.810547"/>
       <use xlink:href="#DejaVuSerif-74" x="1040.429688"/>
       <use xlink:href="#DejaVuSerif-72" x="1080.615234"/>
       <use xlink:href="#DejaVuSerif-69" x="1128.417969"/>
       <use xlink:href="#DejaVuSerif-7a" x="1160.400391"/>
      </g>
     </g>
    </g>
    <g id="xtick_3">
     <g id="line2d_5">
      <path d="M 399.5 503.061311 
L 399.5 101.592 
" clip-path="url(#p44b4a602e1)" style="fill: none; stroke: #ffffff; stroke-width: 0.8; stroke-linecap: square"/>
     </g>
     <g id="line2d_6">
      <g>
       <use xlink:href="#mfaaffe9b92" x="399.5" y="503.061311" style="stroke: #000000; stroke-width: 0.8"/>
      </g>
     </g>
     <g id="text_3">
      <!-- 202 - 500 kV -->
      <g transform="translate(325.677979 560.456586) rotate(-30) scale(0.13 -0.13)">
       <defs>
        <path id="DejaVuSerif-35" d="M 3219 4666 
L 3219 4153 
L 1081 4153 
L 1081 2816 
Q 1244 2928 1461 2984 
Q 1678 3041 1947 3041 
Q 2703 3041 3140 2622 
Q 3578 2203 3578 1478 
Q 3578 738 3136 323 
Q 2694 -91 1894 -91 
Q 1572 -91 1234 -12 
Q 897 66 544 225 
L 544 1131 
L 897 1131 
Q 925 688 1179 453 
Q 1434 219 1894 219 
Q 2388 219 2653 544 
Q 2919 869 2919 1478 
Q 2919 2084 2655 2407 
Q 2391 2731 1894 2731 
Q 1613 2731 1398 2631 
Q 1184 2531 1019 2322 
L 750 2322 
L 750 4666 
L 3219 4666 
z
" transform="scale(0.015625)"/>
       </defs>
       <use xlink:href="#DejaVuSerif-32"/>
       <use xlink:href="#DejaVuSerif-30" x="63.623047"/>
       <use xlink:href="#DejaVuSerif-32" x="127.246094"/>
       <use xlink:href="#DejaVuSerif-20" x="190.869141"/>
       <use xlink:href="#DejaVuSerif-2d" x="222.65625"/>
       <use xlink:href="#DejaVuSerif-20" x="256.445312"/>
       <use xlink:href="#DejaVuSerif-35" x="288.232422"/>
       <use xlink:href="#DejaVuSerif-30" x="351.855469"/>
       <use xlink:href="#DejaVuSerif-30" x="415.478516"/>
       <use xlink:href="#DejaVuSerif-20" x="479.101562"/>
       <use xlink:href="#DejaVuSerif-6b" x="510.888672"/>
       <use xlink:href="#DejaVuSerif-56" x="571.484375"/>
      </g>
     </g>
    </g>
    <g id="xtick_4">
     <g id="line2d_7">
      <path d="M 537.890625 503.061311 
L 537.890625 101.592 
" clip-path="url(#p44b4a602e1)" style="fill: none; stroke: #ffffff; stroke-width: 0.8; stroke-linecap: square"/>
     </g>
     <g id="line2d_8">
      <g>
       <use xlink:href="#mfaaffe9b92" x="537.890625" y="503.061311" style="stroke: #000000; stroke-width: 0.8"/>
      </g>
     </g>
     <g id="text_4">
      <!-- 302 - 345 kV -->
      <g transform="translate(464.068604 560.456586) rotate(-30) scale(0.13 -0.13)">
       <defs>
        <path id="DejaVuSerif-34" d="M 2234 1581 
L 2234 4063 
L 641 1581 
L 2234 1581 
z
M 3609 0 
L 1484 0 
L 1484 331 
L 2234 331 
L 2234 1247 
L 197 1247 
L 197 1588 
L 2241 4750 
L 2859 4750 
L 2859 1581 
L 3750 1581 
L 3750 1247 
L 2859 1247 
L 2859 331 
L 3609 331 
L 3609 0 
z
" transform="scale(0.015625)"/>
       </defs>
       <use xlink:href="#DejaVuSerif-33"/>
       <use xlink:href="#DejaVuSerif-30" x="63.623047"/>
       <use xlink:href="#DejaVuSerif-32" x="127.246094"/>
       <use xlink:href="#DejaVuSerif-20" x="190.869141"/>
       <use xlink:href="#DejaVuSerif-2d" x="222.65625"/>
       <use xlink:href="#DejaVuSerif-20" x="256.445312"/>
       <use xlink:href="#DejaVuSerif-33" x="288.232422"/>
       <use xlink:href="#DejaVuSerif-34" x="351.855469"/>
       <use xlink:href="#DejaVuSerif-35" x="415.478516"/>
       <use xlink:href="#DejaVuSerif-20" x="479.101562"/>
       <use xlink:href="#DejaVuSerif-6b" x="510.888672"/>
       <use xlink:href="#DejaVuSerif-56" x="571.484375"/>
      </g>
     </g>
    </g>
    <g id="xtick_5">
     <g id="line2d_9">
      <path d="M 676.28125 503.061311 
L 676.28125 101.592 
" clip-path="url(#p44b4a602e1)" style="fill: none; stroke: #ffffff; stroke-width: 0.8; stroke-linecap: square"/>
     </g>
     <g id="line2d_10">
      <g>
       <use xlink:href="#mfaaffe9b92" x="676.28125" y="503.061311" style="stroke: #000000; stroke-width: 0.8"/>
      </g>
     </g>
     <g id="text_5">
      <!-- 862 - 230 kV Centro/Norte -->
      <g transform="translate(522.678128 606.518226) rotate(-30) scale(0.13 -0.13)">
       <defs>
        <path id="DejaVuSerif-43" d="M 4513 1234 
Q 4306 581 3820 245 
Q 3334 -91 2591 -91 
Q 2134 -91 1743 65 
Q 1353 222 1050 525 
Q 700 875 529 1320 
Q 359 1766 359 2328 
Q 359 3416 987 4083 
Q 1616 4750 2644 4750 
Q 3025 4750 3456 4650 
Q 3888 4550 4384 4347 
L 4384 3272 
L 4031 3272 
Q 3916 3859 3567 4137 
Q 3219 4416 2591 4416 
Q 1844 4416 1459 3886 
Q 1075 3356 1075 2328 
Q 1075 1303 1459 773 
Q 1844 244 2591 244 
Q 3113 244 3450 492 
Q 3788 741 3938 1234 
L 4513 1234 
z
" transform="scale(0.015625)"/>
        <path id="DejaVuSerif-6e" d="M 263 0 
L 263 331 
L 781 331 
L 781 2988 
L 231 2988 
L 231 3322 
L 1356 3322 
L 1356 2731 
Q 1516 3069 1770 3241 
Q 2025 3413 2363 3413 
Q 2913 3413 3172 3097 
Q 3431 2781 3431 2113 
L 3431 331 
L 3944 331 
L 3944 0 
L 2356 0 
L 2356 331 
L 2853 331 
L 2853 1931 
Q 2853 2541 2703 2767 
Q 2553 2994 2175 2994 
Q 1775 2994 1565 2701 
Q 1356 2409 1356 1850 
L 1356 331 
L 1856 331 
L 1856 0 
L 263 0 
z
" transform="scale(0.015625)"/>
        <path id="DejaVuSerif-6f" d="M 1925 219 
Q 2388 219 2623 584 
Q 2859 950 2859 1663 
Q 2859 2375 2623 2739 
Q 2388 3103 1925 3103 
Q 1463 3103 1227 2739 
Q 991 2375 991 1663 
Q 991 950 1228 584 
Q 1466 219 1925 219 
z
M 1925 -91 
Q 1200 -91 759 389 
Q 319 869 319 1663 
Q 319 2456 758 2934 
Q 1197 3413 1925 3413 
Q 2653 3413 3092 2934 
Q 3531 2456 3531 1663 
Q 3531 869 3092 389 
Q 2653 -91 1925 -91 
z
" transform="scale(0.015625)"/>
        <path id="DejaVuSerif-2f" d="M 1656 4666 
L 2156 4666 
L 500 -594 
L 0 -594 
L 1656 4666 
z
" transform="scale(0.015625)"/>
        <path id="DejaVuSerif-4e" d="M 313 0 
L 313 331 
L 941 331 
L 941 4331 
L 313 4331 
L 313 4666 
L 1509 4666 
L 4306 984 
L 4306 4331 
L 3681 4331 
L 3681 4666 
L 5319 4666 
L 5319 4331 
L 4691 4331 
L 4691 -91 
L 4313 -91 
L 1325 3841 
L 1325 331 
L 1953 331 
L 1953 0 
L 313 0 
z
" transform="scale(0.015625)"/>
       </defs>
       <use xlink:href="#DejaVuSerif-38"/>
       <use xlink:href="#DejaVuSerif-36" x="63.623047"/>
       <use xlink:href="#DejaVuSerif-32" x="127.246094"/>
       <use xlink:href="#DejaVuSerif-20" x="190.869141"/>
       <use xlink:href="#DejaVuSerif-2d" x="222.65625"/>
       <use xlink:href="#DejaVuSerif-20" x="256.445312"/>
       <use xlink:href="#DejaVuSerif-32" x="288.232422"/>
       <use xlink:href="#DejaVuSerif-33" x="351.855469"/>
       <use xlink:href="#DejaVuSerif-30" x="415.478516"/>
       <use xlink:href="#DejaVuSerif-20" x="479.101562"/>
       <use xlink:href="#DejaVuSerif-6b" x="510.888672"/>
       <use xlink:href="#DejaVuSerif-56" x="571.484375"/>
       <use xlink:href="#DejaVuSerif-20" x="643.701172"/>
       <use xlink:href="#DejaVuSerif-43" x="675.488281"/>
       <use xlink:href="#DejaVuSerif-65" x="752.001953"/>
       <use xlink:href="#DejaVuSerif-6e" x="811.181641"/>
       <use xlink:href="#DejaVuSerif-74" x="875.585938"/>
       <use xlink:href="#DejaVuSerif-72" x="915.771484"/>
       <use xlink:href="#DejaVuSerif-6f" x="963.574219"/>
       <use xlink:href="#DejaVuSerif-2f" x="1023.779297"/>
       <use xlink:href="#DejaVuSerif-4e" x="1057.470703"/>
       <use xlink:href="#DejaVuSerif-6f" x="1144.970703"/>
       <use xlink:href="#DejaVuSerif-72" x="1205.175781"/>
       <use xlink:href="#DejaVuSerif-74" x="1252.978516"/>
       <use xlink:href="#DejaVuSerif-65" x="1293.164062"/>
      </g>
     </g>
    </g>
    <g id="xtick_6">
     <g id="line2d_11">
      <path d="M 814.671875 503.061311 
L 814.671875 101.592 
" clip-path="url(#p44b4a602e1)" style="fill: none; stroke: #ffffff; stroke-width: 0.8; stroke-linecap: square"/>
     </g>
     <g id="line2d_12">
      <g>
       <use xlink:href="#mfaaffe9b92" x="814.671875" y="503.061311" style="stroke: #000000; stroke-width: 0.8"/>
      </g>
     </g>
     <g id="text_6">
      <!-- 511 - 500 kV -->
      <g transform="translate(740.849854 560.456586) rotate(-30) scale(0.13 -0.13)">
       <defs>
        <path id="DejaVuSerif-31" d="M 909 0 
L 909 331 
L 1722 331 
L 1722 4213 
L 781 3603 
L 781 4013 
L 1919 4750 
L 2350 4750 
L 2350 331 
L 3163 331 
L 3163 0 
L 909 0 
z
" transform="scale(0.015625)"/>
       </defs>
       <use xlink:href="#DejaVuSerif-35"/>
       <use xlink:href="#DejaVuSerif-31" x="63.623047"/>
       <use xlink:href="#DejaVuSerif-31" x="127.246094"/>
       <use xlink:href="#DejaVuSerif-20" x="190.869141"/>
       <use xlink:href="#DejaVuSerif-2d" x="222.65625"/>
       <use xlink:href="#DejaVuSerif-20" x="256.445312"/>
       <use xlink:href="#DejaVuSerif-35" x="288.232422"/>
       <use xlink:href="#DejaVuSerif-30" x="351.855469"/>
       <use xlink:href="#DejaVuSerif-30" x="415.478516"/>
       <use xlink:href="#DejaVuSerif-20" x="479.101562"/>
       <use xlink:href="#DejaVuSerif-6b" x="510.888672"/>
       <use xlink:href="#DejaVuSerif-56" x="571.484375"/>
      </g>
     </g>
    </g>
    <g id="xtick_7">
     <g id="line2d_13">
      <path d="M 953.0625 503.061311 
L 953.0625 101.592 
" clip-path="url(#p44b4a602e1)" style="fill: none; stroke: #ffffff; stroke-width: 0.8; stroke-linecap: square"/>
     </g>
     <g id="line2d_14">
      <g>
       <use xlink:href="#mfaaffe9b92" x="953.0625" y="503.061311" style="stroke: #000000; stroke-width: 0.8"/>
      </g>
     </g>
     <g id="text_7">
      <!-- 841 - 500 kV -->
      <g transform="translate(879.240479 560.456586) rotate(-30) scale(0.13 -0.13)">
       <use xlink:href="#DejaVuSerif-38"/>
       <use xlink:href="#DejaVuSerif-34" x="63.623047"/>
       <use xlink:href="#DejaVuSerif-31" x="127.246094"/>
       <use xlink:href="#DejaVuSerif-20" x="190.869141"/>
       <use xlink:href="#DejaVuSerif-2d" x="222.65625"/>
       <use xlink:href="#DejaVuSerif-20" x="256.445312"/>
       <use xlink:href="#DejaVuSerif-35" x="288.232422"/>
       <use xlink:href="#DejaVuSerif-30" x="351.855469"/>
       <use xlink:href="#DejaVuSerif-30" x="415.478516"/>
       <use xlink:href="#DejaVuSerif-20" x="479.101562"/>
       <use xlink:href="#DejaVuSerif-6b" x="510.888672"/>
       <use xlink:href="#DejaVuSerif-56" x="571.484375"/>
      </g>
     </g>
    </g>
    <g id="xtick_8">
     <g id="line2d_15">
      <path d="M 1091.453125 503.061311 
L 1091.453125 101.592 
" clip-path="url(#p44b4a602e1)" style="fill: none; stroke: #ffffff; stroke-width: 0.8; stroke-linecap: square"/>
     </g>
     <g id="line2d_16">
      <g>
       <use xlink:href="#mfaaffe9b92" x="1091.453125" y="503.061311" style="stroke: #000000; stroke-width: 0.8"/>
      </g>
     </g>
     <g id="text_8">
      <!-- 843 - 230 kV Norte -->
      <g transform="translate(980.855065 581.689242) rotate(-30) scale(0.13 -0.13)">
       <use xlink:href="#DejaVuSerif-38"/>
       <use xlink:href="#DejaVuSerif-34" x="63.623047"/>
       <use xlink:href="#DejaVuSerif-33" x="127.246094"/>
       <use xlink:href="#DejaVuSerif-20" x="190.869141"/>
       <use xlink:href="#DejaVuSerif-2d" x="222.65625"/>
       <use xlink:href="#DejaVuSerif-20" x="256.445312"/>
       <use xlink:href="#DejaVuSerif-32" x="288.232422"/>
       <use xlink:href="#DejaVuSerif-33" x="351.855469"/>
       <use xlink:href="#DejaVuSerif-30" x="415.478516"/>
       <use xlink:href="#DejaVuSerif-20" x="479.101562"/>
       <use xlink:href="#DejaVuSerif-6b" x="510.888672"/>
       <use xlink:href="#DejaVuSerif-56" x="571.484375"/>
       <use xlink:href="#DejaVuSerif-20" x="643.701172"/>
       <use xlink:href="#DejaVuSerif-4e" x="675.488281"/>
       <use xlink:href="#DejaVuSerif-6f" x="762.988281"/>
       <use xlink:href="#DejaVuSerif-72" x="823.193359"/>
       <use xlink:href="#DejaVuSerif-74" x="870.996094"/>
       <use xlink:href="#DejaVuSerif-65" x="911.181641"/>
      </g>
     </g>
    </g>
    <g id="xtick_9">
     <g id="line2d_17">
      <path d="M 1229.84375 503.061311 
L 1229.84375 101.592 
" clip-path="url(#p44b4a602e1)" style="fill: none; stroke: #ffffff; stroke-width: 0.8; stroke-linecap: square"/>
     </g>
     <g id="line2d_18">
      <g>
       <use xlink:href="#mfaaffe9b92" x="1229.84375" y="503.061311" style="stroke: #000000; stroke-width: 0.8"/>
      </g>
     </g>
     <g id="text_9">
      <!-- 404 - Autoprodutores 230 kV -->
      <g transform="translate(1062.811551 614.271508) rotate(-30) scale(0.13 -0.13)">
       <defs>
        <path id="DejaVuSerif-41" d="M 1281 1691 
L 2994 1691 
L 2138 3909 
L 1281 1691 
z
M -38 0 
L -38 331 
L 372 331 
L 2034 4666 
L 2559 4666 
L 4225 331 
L 4684 331 
L 4684 0 
L 2988 0 
L 2988 331 
L 3506 331 
L 3116 1356 
L 1153 1356 
L 763 331 
L 1275 331 
L 1275 0 
L -38 0 
z
" transform="scale(0.015625)"/>
        <path id="DejaVuSerif-75" d="M 2266 3322 
L 3341 3322 
L 3341 331 
L 3884 331 
L 3884 0 
L 2766 0 
L 2766 588 
Q 2606 256 2353 82 
Q 2100 -91 1766 -91 
Q 1213 -91 952 223 
Q 691 538 691 1209 
L 691 2988 
L 172 2988 
L 172 3322 
L 1269 3322 
L 1269 1388 
Q 1269 781 1417 556 
Q 1566 331 1947 331 
Q 2347 331 2556 625 
Q 2766 919 2766 1478 
L 2766 2988 
L 2266 2988 
L 2266 3322 
z
" transform="scale(0.015625)"/>
        <path id="DejaVuSerif-64" d="M 3359 331 
L 3909 331 
L 3909 0 
L 2784 0 
L 2784 519 
Q 2616 206 2355 57 
Q 2094 -91 1709 -91 
Q 1097 -91 708 395 
Q 319 881 319 1663 
Q 319 2444 706 2928 
Q 1094 3413 1709 3413 
Q 2094 3413 2355 3264 
Q 2616 3116 2784 2803 
L 2784 4531 
L 2241 4531 
L 2241 4863 
L 3359 4863 
L 3359 331 
z
M 2784 1497 
L 2784 1825 
Q 2784 2422 2554 2737 
Q 2325 3053 1888 3053 
Q 1444 3053 1217 2703 
Q 991 2353 991 1663 
Q 991 975 1217 622 
Q 1444 269 1888 269 
Q 2325 269 2554 583 
Q 2784 897 2784 1497 
z
" transform="scale(0.015625)"/>
        <path id="DejaVuSerif-73" d="M 359 184 
L 359 959 
L 691 959 
Q 703 588 923 403 
Q 1144 219 1575 219 
Q 1963 219 2166 364 
Q 2369 509 2369 788 
Q 2369 1006 2220 1140 
Q 2072 1275 1594 1428 
L 1178 1569 
Q 750 1706 558 1912 
Q 366 2119 366 2438 
Q 366 2894 700 3153 
Q 1034 3413 1625 3413 
Q 1888 3413 2178 3344 
Q 2469 3275 2778 3144 
L 2778 2419 
L 2447 2419 
Q 2434 2741 2221 2922 
Q 2009 3103 1644 3103 
Q 1281 3103 1095 2975 
Q 909 2847 909 2591 
Q 909 2381 1050 2254 
Q 1191 2128 1613 1997 
L 2069 1856 
Q 2541 1709 2748 1489 
Q 2956 1269 2956 922 
Q 2956 450 2595 179 
Q 2234 -91 1600 -91 
Q 1278 -91 972 -22 
Q 666 47 359 184 
z
" transform="scale(0.015625)"/>
       </defs>
       <use xlink:href="#DejaVuSerif-34"/>
       <use xlink:href="#DejaVuSerif-30" x="63.623047"/>
       <use xlink:href="#DejaVuSerif-34" x="127.246094"/>
       <use xlink:href="#DejaVuSerif-20" x="190.869141"/>
       <use xlink:href="#DejaVuSerif-2d" x="222.65625"/>
       <use xlink:href="#DejaVuSerif-20" x="256.445312"/>
       <use xlink:href="#DejaVuSerif-41" x="288.232422"/>
       <use xlink:href="#DejaVuSerif-75" x="360.449219"/>
       <use xlink:href="#DejaVuSerif-74" x="424.853516"/>
       <use xlink:href="#DejaVuSerif-6f" x="465.039062"/>
       <use xlink:href="#DejaVuSerif-70" x="525.244141"/>
       <use xlink:href="#DejaVuSerif-72" x="589.257812"/>
       <use xlink:href="#DejaVuSerif-6f" x="637.060547"/>
       <use xlink:href="#DejaVuSerif-64" x="697.265625"/>
       <use xlink:href="#DejaVuSerif-75" x="761.279297"/>
       <use xlink:href="#DejaVuSerif-74" x="825.683594"/>
       <use xlink:href="#DejaVuSerif-6f" x="865.869141"/>
       <use xlink:href="#DejaVuSerif-72" x="926.074219"/>
       <use xlink:href="#DejaVuSerif-65" x="973.876953"/>
       <use xlink:href="#DejaVuSerif-73" x="1033.056641"/>
       <use xlink:href="#DejaVuSerif-20" x="1084.375"/>
       <use xlink:href="#DejaVuSerif-32" x="1116.162109"/>
       <use xlink:href="#DejaVuSerif-33" x="1179.785156"/>
       <use xlink:href="#DejaVuSerif-30" x="1243.408203"/>
       <use xlink:href="#DejaVuSerif-20" x="1307.03125"/>
       <use xlink:href="#DejaVuSerif-6b" x="1338.818359"/>
       <use xlink:href="#DejaVuSerif-56" x="1399.414062"/>
      </g>
     </g>
    </g>
    <g id="text_10">
     <!-- Ãrea -->
     <g transform="translate(655.980859 633.530232) scale(0.17 -0.17)">
      <defs>
       <path id="DejaVuSerif-c1" d="M 1281 1691 
L 2994 1691 
L 2138 3909 
L 1281 1691 
z
M -38 0 
L -38 331 
L 372 331 
L 2034 4666 
L 2559 4666 
L 4225 331 
L 4684 331 
L 4684 0 
L 2988 0 
L 2988 331 
L 3506 331 
L 3116 1356 
L 1153 1356 
L 763 331 
L 1275 331 
L 1275 0 
L -38 0 
z
M 2509 5921 
L 3125 5921 
L 2306 5096 
L 1940 5096 
L 2509 5921 
z
" transform="scale(0.015625)"/>
      </defs>
      <use xlink:href="#DejaVuSerif-c1"/>
      <use xlink:href="#DejaVuSerif-72" x="72.216797"/>
      <use xlink:href="#DejaVuSerif-65" x="120.019531"/>
      <use xlink:href="#DejaVuSerif-61" x="179.199219"/>
     </g>
    </g>
   </g>
   <g id="matplotlib.axis_2">
    <g id="ytick_1">
     <g id="line2d_19">
      <path d="M 67.3625 484.812706 
L 1285.2 484.812706 
" clip-path="url(#p44b4a602e1)" style="fill: none; stroke: #ffffff; stroke-width: 0.8; stroke-linecap: square"/>
     </g>
     <g id="line2d_20">
      <defs>
       <path id="m6b8c61bedd" d="M 0 0 
L -3.5 0 
" style="stroke: #000000; stroke-width: 0.8"/>
      </defs>
      <g>
       <use xlink:href="#m6b8c61bedd" x="67.3625" y="484.812706" style="stroke: #000000; stroke-width: 0.8"/>
      </g>
     </g>
     <g id="text_11">
      <!-- 0.0 -->
      <g transform="translate(31.736875 491.651299) scale(0.18 -0.18)">
       <defs>
        <path id="DejaVuSerif-2e" d="M 603 325 
Q 603 500 722 622 
Q 841 744 1019 744 
Q 1191 744 1312 622 
Q 1434 500 1434 325 
Q 1434 153 1312 31 
Q 1191 -91 1019 -91 
Q 841 -91 722 29 
Q 603 150 603 325 
z
" transform="scale(0.015625)"/>
       </defs>
       <use xlink:href="#DejaVuSerif-30"/>
       <use xlink:href="#DejaVuSerif-2e" x="63.623047"/>
       <use xlink:href="#DejaVuSerif-30" x="95.410156"/>
      </g>
     </g>
    </g>
    <g id="ytick_2">
     <g id="line2d_21">
      <path d="M 67.3625 423.543554 
L 1285.2 423.543554 
" clip-path="url(#p44b4a602e1)" style="fill: none; stroke: #ffffff; stroke-width: 0.8; stroke-linecap: square"/>
     </g>
     <g id="line2d_22">
      <g>
       <use xlink:href="#m6b8c61bedd" x="67.3625" y="423.543554" style="stroke: #000000; stroke-width: 0.8"/>
      </g>
     </g>
     <g id="text_12">
      <!-- 0.2 -->
      <g transform="translate(31.736875 430.382147) scale(0.18 -0.18)">
       <use xlink:href="#DejaVuSerif-30"/>
       <use xlink:href="#DejaVuSerif-2e" x="63.623047"/>
       <use xlink:href="#DejaVuSerif-32" x="95.410156"/>
      </g>
     </g>
    </g>
    <g id="ytick_3">
     <g id="line2d_23">
      <path d="M 67.3625 362.274402 
L 1285.2 362.274402 
" clip-path="url(#p44b4a602e1)" style="fill: none; stroke: #ffffff; stroke-width: 0.8; stroke-linecap: square"/>
     </g>
     <g id="line2d_24">
      <g>
       <use xlink:href="#m6b8c61bedd" x="67.3625" y="362.274402" style="stroke: #000000; stroke-width: 0.8"/>
      </g>
     </g>
     <g id="text_13">
      <!-- 0.4 -->
      <g transform="translate(31.736875 369.112996) scale(0.18 -0.18)">
       <use xlink:href="#DejaVuSerif-30"/>
       <use xlink:href="#DejaVuSerif-2e" x="63.623047"/>
       <use xlink:href="#DejaVuSerif-34" x="95.410156"/>
      </g>
     </g>
    </g>
    <g id="ytick_4">
     <g id="line2d_25">
      <path d="M 67.3625 301.00525 
L 1285.2 301.00525 
" clip-path="url(#p44b4a602e1)" style="fill: none; stroke: #ffffff; stroke-width: 0.8; stroke-linecap: square"/>
     </g>
     <g id="line2d_26">
      <g>
       <use xlink:href="#m6b8c61bedd" x="67.3625" y="301.00525" style="stroke: #000000; stroke-width: 0.8"/>
      </g>
     </g>
     <g id="text_14">
      <!-- 0.6 -->
      <g transform="translate(31.736875 307.843844) scale(0.18 -0.18)">
       <use xlink:href="#DejaVuSerif-30"/>
       <use xlink:href="#DejaVuSerif-2e" x="63.623047"/>
       <use xlink:href="#DejaVuSerif-36" x="95.410156"/>
      </g>
     </g>
    </g>
    <g id="ytick_5">
     <g id="line2d_27">
      <path d="M 67.3625 239.736098 
L 1285.2 239.736098 
" clip-path="url(#p44b4a602e1)" style="fill: none; stroke: #ffffff; stroke-width: 0.8; stroke-linecap: square"/>
     </g>
     <g id="line2d_28">
      <g>
       <use xlink:href="#m6b8c61bedd" x="67.3625" y="239.736098" style="stroke: #000000; stroke-width: 0.8"/>
      </g>
     </g>
     <g id="text_15">
      <!-- 0.8 -->
      <g transform="translate(31.736875 246.574692) scale(0.18 -0.18)">
       <use xlink:href="#DejaVuSerif-30"/>
       <use xlink:href="#DejaVuSerif-2e" x="63.623047"/>
       <use xlink:href="#DejaVuSerif-38" x="95.410156"/>
      </g>
     </g>
    </g>
    <g id="ytick_6">
     <g id="line2d_29">
      <path d="M 67.3625 178.466946 
L 1285.2 178.466946 
" clip-path="url(#p44b4a602e1)" style="fill: none; stroke: #ffffff; stroke-width: 0.8; stroke-linecap: square"/>
     </g>
     <g id="line2d_30">
      <g>
       <use xlink:href="#m6b8c61bedd" x="67.3625" y="178.466946" style="stroke: #000000; stroke-width: 0.8"/>
      </g>
     </g>
     <g id="text_16">
      <!-- 1.0 -->
      <g transform="translate(31.736875 185.30554) scale(0.18 -0.18)">
       <use xlink:href="#DejaVuSerif-31"/>
       <use xlink:href="#DejaVuSerif-2e" x="63.623047"/>
       <use xlink:href="#DejaVuSerif-30" x="95.410156"/>
      </g>
     </g>
    </g>
    <g id="ytick_7">
     <g id="line2d_31">
      <path d="M 67.3625 117.197794 
L 1285.2 117.197794 
" clip-path="url(#p44b4a602e1)" style="fill: none; stroke: #ffffff; stroke-width: 0.8; stroke-linecap: square"/>
     </g>
     <g id="line2d_32">
      <g>
       <use xlink:href="#m6b8c61bedd" x="67.3625" y="117.197794" style="stroke: #000000; stroke-width: 0.8"/>
      </g>
     </g>
     <g id="text_17">
      <!-- 1.2 -->
      <g transform="translate(31.736875 124.036388) scale(0.18 -0.18)">
       <use xlink:href="#DejaVuSerif-31"/>
       <use xlink:href="#DejaVuSerif-2e" x="63.623047"/>
       <use xlink:href="#DejaVuSerif-32" x="95.410156"/>
      </g>
     </g>
    </g>
    <g id="text_18">
     <!-- Indice (p.u) -->
     <g transform="translate(24.201406 352.060952) rotate(-90) scale(0.17 -0.17)">
      <defs>
       <path id="DejaVuSerif-63" d="M 3291 997 
Q 3169 466 2822 187 
Q 2475 -91 1925 -91 
Q 1200 -91 759 389 
Q 319 869 319 1663 
Q 319 2459 759 2936 
Q 1200 3413 1925 3413 
Q 2241 3413 2553 3339 
Q 2866 3266 3181 3116 
L 3181 2266 
L 2847 2266 
Q 2781 2703 2561 2903 
Q 2341 3103 1931 3103 
Q 1466 3103 1228 2742 
Q 991 2381 991 1663 
Q 991 944 1227 581 
Q 1463 219 1931 219 
Q 2303 219 2525 412 
Q 2747 606 2828 997 
L 3291 997 
z
" transform="scale(0.015625)"/>
       <path id="DejaVuSerif-28" d="M 2041 -997 
Q 1281 -656 893 83 
Q 506 822 506 1931 
Q 506 3044 893 3783 
Q 1281 4522 2041 4863 
L 2041 4556 
Q 1559 4225 1350 3623 
Q 1141 3022 1141 1931 
Q 1141 844 1350 242 
Q 1559 -359 2041 -691 
L 2041 -997 
z
" transform="scale(0.015625)"/>
       <path id="DejaVuSerif-29" d="M 453 -997 
L 453 -691 
Q 934 -359 1145 242 
Q 1356 844 1356 1931 
Q 1356 3022 1145 3623 
Q 934 4225 453 4556 
L 453 4863 
Q 1216 4522 1603 3783 
Q 1991 3044 1991 1931 
Q 1991 822 1603 83 
Q 1216 -656 453 -997 
z
" transform="scale(0.015625)"/>
      </defs>
      <use xlink:href="#DejaVuSerif-49"/>
      <use xlink:href="#DejaVuSerif-6e" x="39.501953"/>
      <use xlink:href="#DejaVuSerif-64" x="103.90625"/>
      <use xlink:href="#DejaVuSerif-69" x="167.919922"/>
      <use xlink:href="#DejaVuSerif-63" x="199.902344"/>
      <use xlink:href="#DejaVuSerif-65" x="255.908203"/>
      <use xlink:href="#DejaVuSerif-20" x="315.087891"/>
      <use xlink:href="#DejaVuSerif-28" x="346.875"/>
      <use xlink:href="#DejaVuSerif-70" x="385.888672"/>
      <use xlink:href="#DejaVuSerif-2e" x="449.902344"/>
      <use xlink:href="#DejaVuSerif-75" x="481.689453"/>
      <use xlink:href="#DejaVuSerif-29" x="546.09375"/>
     </g>
    </g>
   </g>
   <g id="line2d_33">
    <path d="M 122.71875 206.503527 
L 261.109375 195.734276 
L 399.5 182.073877 
L 537.890625 208.792623 
L 676.28125 190.792149 
L 814.671875 209.956621 
L 953.0625 205.934589 
L 1091.453125 178.619098 
L 1229.84375 212.992113 
" clip-path="url(#p44b4a602e1)" style="fill: none; stroke: #800080; stroke-width: 1.5; stroke-linecap: square"/>
    <defs>
     <path id="mc7c5a2a4ed" d="M 0 -6 
L -6 6 
L 6 6 
z
" style="stroke: #800080; stroke-width: 2; stroke-linejoin: miter"/>
    </defs>
    <g clip-path="url(#p44b4a602e1)">
     <use xlink:href="#mc7c5a2a4ed" x="122.71875" y="206.503527" style="fill-opacity: 0; stroke: #800080; stroke-width: 2; stroke-linejoin: miter"/>
     <use xlink:href="#mc7c5a2a4ed" x="261.109375" y="195.734276" style="fill-opacity: 0; stroke: #800080; stroke-width: 2; stroke-linejoin: miter"/>
     <use xlink:href="#mc7c5a2a4ed" x="399.5" y="182.073877" style="fill-opacity: 0; stroke: #800080; stroke-width: 2; stroke-linejoin: miter"/>
     <use xlink:href="#mc7c5a2a4ed" x="537.890625" y="208.792623" style="fill-opacity: 0; stroke: #800080; stroke-width: 2; stroke-linejoin: miter"/>
     <use xlink:href="#mc7c5a2a4ed" x="676.28125" y="190.792149" style="fill-opacity: 0; stroke: #800080; stroke-width: 2; stroke-linejoin: miter"/>
     <use xlink:href="#mc7c5a2a4ed" x="814.671875" y="209.956621" style="fill-opacity: 0; stroke: #800080; stroke-width: 2; stroke-linejoin: miter"/>
     <use xlink:href="#mc7c5a2a4ed" x="953.0625" y="205.934589" style="fill-opacity: 0; stroke: #800080; stroke-width: 2; stroke-linejoin: miter"/>
     <use xlink:href="#mc7c5a2a4ed" x="1091.453125" y="178.619098" style="fill-opacity: 0; stroke: #800080; stroke-width: 2; stroke-linejoin: miter"/>
     <use xlink:href="#mc7c5a2a4ed" x="1229.84375" y="212.992113" style="fill-opacity: 0; stroke: #800080; stroke-width: 2; stroke-linejoin: miter"/>
    </g>
   </g>
   <g id="line2d_34">
    <path d="M 122.71875 323.423656 
L 261.109375 484.812706 
L 399.5 357.696349 
L 537.890625 484.812706 
L 676.28125 406.882644 
L 814.671875 484.812706 
L 953.0625 327.778325 
L 1091.453125 484.812706 
L 1229.84375 484.812706 
" clip-path="url(#p44b4a602e1)" style="fill: none; stroke-dasharray: 7.5,3,7.5,3; stroke-dashoffset: 0; stroke: #228b22; stroke-width: 1.5"/>
    <defs>
     <path id="m3eabf087e3" d="M 0 -6 
L -6 6 
L 6 6 
z
" style="stroke: #228b22; stroke-width: 2; stroke-linejoin: miter"/>
    </defs>
    <g clip-path="url(#p44b4a602e1)">
     <use xlink:href="#m3eabf087e3" x="122.71875" y="323.423656" style="fill-opacity: 0; stroke: #228b22; stroke-width: 2; stroke-linejoin: miter"/>
     <use xlink:href="#m3eabf087e3" x="261.109375" y="484.812706" style="fill-opacity: 0; stroke: #228b22; stroke-width: 2; stroke-linejoin: miter"/>
     <use xlink:href="#m3eabf087e3" x="399.5" y="357.696349" style="fill-opacity: 0; stroke: #228b22; stroke-width: 2; stroke-linejoin: miter"/>
     <use xlink:href="#m3eabf087e3" x="537.890625" y="484.812706" style="fill-opacity: 0; stroke: #228b22; stroke-width: 2; stroke-linejoin: miter"/>
     <use xlink:href="#m3eabf087e3" x="676.28125" y="406.882644" style="fill-opacity: 0; stroke: #228b22; stroke-width: 2; stroke-linejoin: miter"/>
     <use xlink:href="#m3eabf087e3" x="814.671875" y="484.812706" style="fill-opacity: 0; stroke: #228b22; stroke-width: 2; stroke-linejoin: miter"/>
     <use xlink:href="#m3eabf087e3" x="953.0625" y="327.778325" style="fill-opacity: 0; stroke: #228b22; stroke-width: 2; stroke-linejoin: miter"/>
     <use xlink:href="#m3eabf087e3" x="1091.453125" y="484.812706" style="fill-opacity: 0; stroke: #228b22; stroke-width: 2; stroke-linejoin: miter"/>
     <use xlink:href="#m3eabf087e3" x="1229.84375" y="484.812706" style="fill-opacity: 0; stroke: #228b22; stroke-width: 2; stroke-linejoin: miter"/>
    </g>
   </g>
   <g id="line2d_35">
    <path d="M 122.71875 475.552983 
L 261.109375 484.812706 
L 399.5 484.812706 
L 537.890625 469.284228 
L 676.28125 414.835257 
L 814.671875 481.765958 
L 953.0625 464.426986 
L 1091.453125 484.812706 
L 1229.84375 119.840605 
" clip-path="url(#p44b4a602e1)" style="fill: none; stroke-dasharray: 7.5,3,7.5,3; stroke-dashoffset: 0; stroke: #0000ff; stroke-width: 1.5"/>
    <defs>
     <path id="m5e37a5cae5" d="M 0 6 
C 1.591219 6 3.117479 5.367802 4.242641 4.242641 
C 5.367802 3.117479 6 1.591219 6 0 
C 6 -1.591219 5.367802 -3.117479 4.242641 -4.242641 
C 3.117479 -5.367802 1.591219 -6 0 -6 
C -1.591219 -6 -3.117479 -5.367802 -4.242641 -4.242641 
C -5.367802 -3.117479 -6 -1.591219 -6 0 
C -6 1.591219 -5.367802 3.117479 -4.242641 4.242641 
C -3.117479 5.367802 -1.591219 6 0 6 
z
" style="stroke: #0000ff; stroke-width: 2"/>
    </defs>
    <g clip-path="url(#p44b4a602e1)">
     <use xlink:href="#m5e37a5cae5" x="122.71875" y="475.552983" style="fill-opacity: 0; stroke: #0000ff; stroke-width: 2"/>
     <use xlink:href="#m5e37a5cae5" x="261.109375" y="484.812706" style="fill-opacity: 0; stroke: #0000ff; stroke-width: 2"/>
     <use xlink:href="#m5e37a5cae5" x="399.5" y="484.812706" style="fill-opacity: 0; stroke: #0000ff; stroke-width: 2"/>
     <use xlink:href="#m5e37a5cae5" x="537.890625" y="469.284228" style="fill-opacity: 0; stroke: #0000ff; stroke-width: 2"/>
     <use xlink:href="#m5e37a5cae5" x="676.28125" y="414.835257" style="fill-opacity: 0; stroke: #0000ff; stroke-width: 2"/>
     <use xlink:href="#m5e37a5cae5" x="814.671875" y="481.765958" style="fill-opacity: 0; stroke: #0000ff; stroke-width: 2"/>
     <use xlink:href="#m5e37a5cae5" x="953.0625" y="464.426986" style="fill-opacity: 0; stroke: #0000ff; stroke-width: 2"/>
     <use xlink:href="#m5e37a5cae5" x="1091.453125" y="484.812706" style="fill-opacity: 0; stroke: #0000ff; stroke-width: 2"/>
     <use xlink:href="#m5e37a5cae5" x="1229.84375" y="119.840605" style="fill-opacity: 0; stroke: #0000ff; stroke-width: 2"/>
    </g>
   </g>
   <g id="line2d_36">
    <path d="M 122.71875 470.15581 
L 261.109375 482.718383 
L 399.5 407.363886 
L 537.890625 482.541436 
L 676.28125 375.021978 
L 814.671875 475.259978 
L 953.0625 379.207126 
L 1091.453125 484.812706 
L 1229.84375 484.812706 
" clip-path="url(#p44b4a602e1)" style="fill: none; stroke-dasharray: 7.5,3,7.5,3; stroke-dashoffset: 0; stroke: #87ceeb; stroke-width: 1.5"/>
    <defs>
     <path id="m78d88d8308" d="M 0 6 
C 1.591219 6 3.117479 5.367802 4.242641 4.242641 
C 5.367802 3.117479 6 1.591219 6 0 
C 6 -1.591219 5.367802 -3.117479 4.242641 -4.242641 
C 3.117479 -5.367802 1.591219 -6 0 -6 
C -1.591219 -6 -3.117479 -5.367802 -4.242641 -4.242641 
C -5.367802 -3.117479 -6 -1.591219 -6 0 
C -6 1.591219 -5.367802 3.117479 -4.242641 4.242641 
C -3.117479 5.367802 -1.591219 6 0 6 
z
" style="stroke: #87ceeb; stroke-width: 2"/>
    </defs>
    <g clip-path="url(#p44b4a602e1)">
     <use xlink:href="#m78d88d8308" x="122.71875" y="470.15581" style="fill-opacity: 0; stroke: #87ceeb; stroke-width: 2"/>
     <use xlink:href="#m78d88d8308" x="261.109375" y="482.718383" style="fill-opacity: 0; stroke: #87ceeb; stroke-width: 2"/>
     <use xlink:href="#m78d88d8308" x="399.5" y="407.363886" style="fill-opacity: 0; stroke: #87ceeb; stroke-width: 2"/>
     <use xlink:href="#m78d88d8308" x="537.890625" y="482.541436" style="fill-opacity: 0; stroke: #87ceeb; stroke-width: 2"/>
     <use xlink:href="#m78d88d8308" x="676.28125" y="375.021978" style="fill-opacity: 0; stroke: #87ceeb; stroke-width: 2"/>
     <use xlink:href="#m78d88d8308" x="814.671875" y="475.259978" style="fill-opacity: 0; stroke: #87ceeb; stroke-width: 2"/>
     <use xlink:href="#m78d88d8308" x="953.0625" y="379.207126" style="fill-opacity: 0; stroke: #87ceeb; stroke-width: 2"/>
     <use xlink:href="#m78d88d8308" x="1091.453125" y="484.812706" style="fill-opacity: 0; stroke: #87ceeb; stroke-width: 2"/>
     <use xlink:href="#m78d88d8308" x="1229.84375" y="484.812706" style="fill-opacity: 0; stroke: #87ceeb; stroke-width: 2"/>
    </g>
   </g>
   <g id="line2d_37">
    <path d="M 122.71875 402.602914 
L 261.109375 479.988281 
L 399.5 188.630931 
L 537.890625 265.972406 
L 676.28125 484.812706 
L 814.671875 484.812706 
L 953.0625 447.612921 
L 1091.453125 186.174605 
L 1229.84375 464.86347 
" clip-path="url(#p44b4a602e1)" style="fill: none; stroke-dasharray: 7.5,3,7.5,3; stroke-dashoffset: 0; stroke: #008000; stroke-width: 1.5"/>
    <defs>
     <path id="mf0df7f7196" d="M 0 6 
C 1.591219 6 3.117479 5.367802 4.242641 4.242641 
C 5.367802 3.117479 6 1.591219 6 0 
C 6 -1.591219 5.367802 -3.117479 4.242641 -4.242641 
C 3.117479 -5.367802 1.591219 -6 0 -6 
C -1.591219 -6 -3.117479 -5.367802 -4.242641 -4.242641 
C -5.367802 -3.117479 -6 -1.591219 -6 0 
C -6 1.591219 -5.367802 3.117479 -4.242641 4.242641 
C -3.117479 5.367802 -1.591219 6 0 6 
z
" style="stroke: #008000; stroke-width: 2"/>
    </defs>
    <g clip-path="url(#p44b4a602e1)">
     <use xlink:href="#mf0df7f7196" x="122.71875" y="402.602914" style="fill-opacity: 0; stroke: #008000; stroke-width: 2"/>
     <use xlink:href="#mf0df7f7196" x="261.109375" y="479.988281" style="fill-opacity: 0; stroke: #008000; stroke-width: 2"/>
     <use xlink:href="#mf0df7f7196" x="399.5" y="188.630931" style="fill-opacity: 0; stroke: #008000; stroke-width: 2"/>
     <use xlink:href="#mf0df7f7196" x="537.890625" y="265.972406" style="fill-opacity: 0; stroke: #008000; stroke-width: 2"/>
     <use xlink:href="#mf0df7f7196" x="676.28125" y="484.812706" style="fill-opacity: 0; stroke: #008000; stroke-width: 2"/>
     <use xlink:href="#mf0df7f7196" x="814.671875" y="484.812706" style="fill-opacity: 0; stroke: #008000; stroke-width: 2"/>
     <use xlink:href="#mf0df7f7196" x="953.0625" y="447.612921" style="fill-opacity: 0; stroke: #008000; stroke-width: 2"/>
     <use xlink:href="#mf0df7f7196" x="1091.453125" y="186.174605" style="fill-opacity: 0; stroke: #008000; stroke-width: 2"/>
     <use xlink:href="#mf0df7f7196" x="1229.84375" y="464.86347" style="fill-opacity: 0; stroke: #008000; stroke-width: 2"/>
    </g>
   </g>
   <g id="line2d_38">
    <path d="M 122.71875 449.150399 
L 261.109375 484.812706 
L 399.5 484.689969 
L 537.890625 440.229551 
L 676.28125 484.812706 
L 814.671875 484.812706 
L 953.0625 478.37352 
L 1091.453125 172.025102 
L 1229.84375 484.812706 
" clip-path="url(#p44b4a602e1)" style="fill: none; stroke-dasharray: 7.5,3,7.5,3; stroke-dashoffset: 0; stroke: #4b0082; stroke-width: 1.5"/>
    <defs>
     <path id="m769e3a1ebd" d="M 0 6 
C 1.591219 6 3.117479 5.367802 4.242641 4.242641 
C 5.367802 3.117479 6 1.591219 6 0 
C 6 -1.591219 5.367802 -3.117479 4.242641 -4.242641 
C 3.117479 -5.367802 1.591219 -6 0 -6 
C -1.591219 -6 -3.117479 -5.367802 -4.242641 -4.242641 
C -5.367802 -3.117479 -6 -1.591219 -6 0 
C -6 1.591219 -5.367802 3.117479 -4.242641 4.242641 
C -3.117479 5.367802 -1.591219 6 0 6 
z
" style="stroke: #4b0082; stroke-width: 2"/>
    </defs>
    <g clip-path="url(#p44b4a602e1)">
     <use xlink:href="#m769e3a1ebd" x="122.71875" y="449.150399" style="fill-opacity: 0; stroke: #4b0082; stroke-width: 2"/>
     <use xlink:href="#m769e3a1ebd" x="261.109375" y="484.812706" style="fill-opacity: 0; stroke: #4b0082; stroke-width: 2"/>
     <use xlink:href="#m769e3a1ebd" x="399.5" y="484.689969" style="fill-opacity: 0; stroke: #4b0082; stroke-width: 2"/>
     <use xlink:href="#m769e3a1ebd" x="537.890625" y="440.229551" style="fill-opacity: 0; stroke: #4b0082; stroke-width: 2"/>
     <use xlink:href="#m769e3a1ebd" x="676.28125" y="484.812706" style="fill-opacity: 0; stroke: #4b0082; stroke-width: 2"/>
     <use xlink:href="#m769e3a1ebd" x="814.671875" y="484.812706" style="fill-opacity: 0; stroke: #4b0082; stroke-width: 2"/>
     <use xlink:href="#m769e3a1ebd" x="953.0625" y="478.37352" style="fill-opacity: 0; stroke: #4b0082; stroke-width: 2"/>
     <use xlink:href="#m769e3a1ebd" x="1091.453125" y="172.025102" style="fill-opacity: 0; stroke: #4b0082; stroke-width: 2"/>
     <use xlink:href="#m769e3a1ebd" x="1229.84375" y="484.812706" style="fill-opacity: 0; stroke: #4b0082; stroke-width: 2"/>
    </g>
   </g>
   <g id="line2d_39">
    <path d="M 122.71875 484.812706 
L 261.109375 484.812706 
L 399.5 379.00252 
L 537.890625 484.812706 
L 676.28125 358.960135 
L 814.671875 320.685334 
L 953.0625 306.5879 
L 1091.453125 484.812706 
L 1229.84375 484.812706 
" clip-path="url(#p44b4a602e1)" style="fill: none; stroke-dasharray: 7.5,3,7.5,3; stroke-dashoffset: 0; stroke: #a52a2a; stroke-width: 1.5"/>
    <defs>
     <path id="ma69e33b0c9" d="M 0 -6 
L -6 6 
L 6 6 
z
" style="stroke: #a52a2a; stroke-width: 2; stroke-linejoin: miter"/>
    </defs>
    <g clip-path="url(#p44b4a602e1)">
     <use xlink:href="#ma69e33b0c9" x="122.71875" y="484.812706" style="fill-opacity: 0; stroke: #a52a2a; stroke-width: 2; stroke-linejoin: miter"/>
     <use xlink:href="#ma69e33b0c9" x="261.109375" y="484.812706" style="fill-opacity: 0; stroke: #a52a2a; stroke-width: 2; stroke-linejoin: miter"/>
     <use xlink:href="#ma69e33b0c9" x="399.5" y="379.00252" style="fill-opacity: 0; stroke: #a52a2a; stroke-width: 2; stroke-linejoin: miter"/>
     <use xlink:href="#ma69e33b0c9" x="537.890625" y="484.812706" style="fill-opacity: 0; stroke: #a52a2a; stroke-width: 2; stroke-linejoin: miter"/>
     <use xlink:href="#ma69e33b0c9" x="676.28125" y="358.960135" style="fill-opacity: 0; stroke: #a52a2a; stroke-width: 2; stroke-linejoin: miter"/>
     <use xlink:href="#ma69e33b0c9" x="814.671875" y="320.685334" style="fill-opacity: 0; stroke: #a52a2a; stroke-width: 2; stroke-linejoin: miter"/>
     <use xlink:href="#ma69e33b0c9" x="953.0625" y="306.5879" style="fill-opacity: 0; stroke: #a52a2a; stroke-width: 2; stroke-linejoin: miter"/>
     <use xlink:href="#ma69e33b0c9" x="1091.453125" y="484.812706" style="fill-opacity: 0; stroke: #a52a2a; stroke-width: 2; stroke-linejoin: miter"/>
     <use xlink:href="#ma69e33b0c9" x="1229.84375" y="484.812706" style="fill-opacity: 0; stroke: #a52a2a; stroke-width: 2; stroke-linejoin: miter"/>
    </g>
   </g>
   <g id="line2d_40"/>
   <g id="line2d_41"/>
   <g id="line2d_42"/>
   <g id="line2d_43"/>
   <g id="line2d_44"/>
   <g id="line2d_45"/>
   <g id="line2d_46"/>
   <g id="patch_3">
    <path d="M 67.3625 503.061311 
L 67.3625 101.592 
" style="fill: none; stroke: #000000; stroke-width: 1.2; stroke-linejoin: miter; stroke-linecap: square"/>
   </g>
   <g id="patch_4">
    <path d="M 1285.2 503.061311 
L 1285.2 101.592 
" style="fill: none; stroke: #000000; stroke-width: 1.2; stroke-linejoin: miter; stroke-linecap: square"/>
   </g>
   <g id="patch_5">
    <path d="M 67.3625 503.061311 
L 1285.2 503.061311 
" style="fill: none; stroke: #000000; stroke-width: 1.2; stroke-linejoin: miter; stroke-linecap: square"/>
   </g>
   <g id="patch_6">
    <path d="M 67.3625 101.592 
L 1285.2 101.592 
" style="fill: none; stroke: #000000; stroke-width: 1.2; stroke-linejoin: miter; stroke-linecap: square"/>
   </g>
   <g id="legend_1">
    <g id="text_19">
     <!-- Indice -->
     <g transform="translate(647.922812 51.175325) scale(0.18 -0.18)">
      <use xlink:href="#DejaVuSerif-49"/>
      <use xlink:href="#DejaVuSerif-6e" x="39.501953"/>
      <use xlink:href="#DejaVuSerif-64" x="103.90625"/>
      <use xlink:href="#DejaVuSerif-69" x="167.919922"/>
      <use xlink:href="#DejaVuSerif-63" x="199.902344"/>
      <use xlink:href="#DejaVuSerif-65" x="255.908203"/>
     </g>
    </g>
    <g id="line2d_47">
     <g>
      <use xlink:href="#mc7c5a2a4ed" x="228.08125" y="76.698763" style="fill-opacity: 0; stroke: #800080; stroke-width: 2; stroke-linejoin: miter"/>
     </g>
    </g>
    <g id="text_20">
     <!-- $\mathrm{RPI}_{PV}^\mathrm{inj}$ -->
     <g transform="translate(260.48125 82.998763) scale(0.18 -0.18)">
      <defs>
       <path id="DejaVuSerif-52" d="M 3066 2316 
Q 3284 2256 3442 2114 
Q 3600 1972 3725 1716 
L 4403 331 
L 4972 331 
L 4972 0 
L 3872 0 
L 3144 1484 
Q 2934 1916 2759 2042 
Q 2584 2169 2278 2169 
L 1581 2169 
L 1581 331 
L 2241 331 
L 2241 0 
L 353 0 
L 353 331 
L 947 331 
L 947 4331 
L 353 4331 
L 353 4666 
L 2719 4666 
Q 3400 4666 3770 4341 
Q 4141 4016 4141 3419 
Q 4141 2938 3870 2661 
Q 3600 2384 3066 2316 
z
M 1581 2503 
L 2503 2503 
Q 2975 2503 3200 2726 
Q 3425 2950 3425 3419 
Q 3425 3888 3200 4109 
Q 2975 4331 2503 4331 
L 1581 4331 
L 1581 2503 
z
" transform="scale(0.015625)"/>
       <path id="DejaVuSerif-50" d="M 1581 2375 
L 2406 2375 
Q 2872 2375 3115 2626 
Q 3359 2878 3359 3353 
Q 3359 3831 3115 4081 
Q 2872 4331 2406 4331 
L 1581 4331 
L 1581 2375 
z
M 353 0 
L 353 331 
L 947 331 
L 947 4331 
L 353 4331 
L 353 4666 
L 2559 4666 
Q 3259 4666 3668 4311 
Q 4078 3956 4078 3353 
Q 4078 2753 3668 2397 
Q 3259 2041 2559 2041 
L 1581 2041 
L 1581 331 
L 2303 331 
L 2303 0 
L 353 0 
z
" transform="scale(0.015625)"/>
       <path id="DejaVuSerif-6a" d="M 641 4353 
Q 641 4497 745 4603 
Q 850 4709 997 4709 
Q 1141 4709 1245 4603 
Q 1350 4497 1350 4353 
Q 1350 4206 1248 4103 
Q 1147 4000 997 4000 
Q 850 4000 745 4103 
Q 641 4206 641 4353 
z
M 781 2988 
L 238 2988 
L 238 3322 
L 1356 3322 
L 1356 -325 
Q 1356 -838 1051 -1130 
Q 747 -1422 213 -1422 
Q -13 -1422 -217 -1370 
Q -422 -1319 -616 -1216 
L -616 -531 
L -319 -531 
Q -297 -831 -164 -972 
Q -31 -1113 225 -1113 
Q 509 -1113 645 -920 
Q 781 -728 781 -325 
L 781 2988 
z
" transform="scale(0.015625)"/>
       <path id="DejaVuSerif-Italic-50" d="M 1594 2375 
L 2419 2375 
Q 2884 2375 3176 2626 
Q 3469 2878 3559 3353 
Q 3653 3831 3458 4081 
Q 3263 4331 2797 4331 
L 1972 4331 
L 1594 2375 
z
M -97 0 
L -34 331 
L 559 331 
L 1338 4331 
L 744 4331 
L 809 4666 
L 3016 4666 
Q 3716 4666 4056 4311 
Q 4397 3956 4278 3353 
Q 4163 2753 3684 2397 
Q 3206 2041 2506 2041 
L 1528 2041 
L 1194 331 
L 1916 331 
L 1853 0 
L -97 0 
z
" transform="scale(0.015625)"/>
       <path id="DejaVuSerif-Italic-56" d="M 1506 4331 
L 2191 750 
L 4259 4331 
L 3734 4331 
L 3800 4666 
L 5169 4666 
L 5103 4331 
L 4650 4331 
L 2144 0 
L 1606 0 
L 791 4331 
L 325 4331 
L 391 4666 
L 2091 4666 
L 2025 4331 
L 1506 4331 
z
" transform="scale(0.015625)"/>
      </defs>
      <use xlink:href="#DejaVuSerif-52" transform="translate(0 0.360938)"/>
      <use xlink:href="#DejaVuSerif-50" transform="translate(75.292969 0.360938)"/>
      <use xlink:href="#DejaVuSerif-49" transform="translate(142.578125 0.360938)"/>
      <use xlink:href="#DejaVuSerif-69" transform="translate(182.988438 53.495313) scale(0.7)"/>
      <use xlink:href="#DejaVuSerif-6e" transform="translate(205.376133 53.495313) scale(0.7)"/>
      <use xlink:href="#DejaVuSerif-6a" transform="translate(250.459141 53.495313) scale(0.7)"/>
      <use xlink:href="#DejaVuSerif-Italic-50" transform="translate(182.988438 -25.592187) scale(0.7)"/>
      <use xlink:href="#DejaVuSerif-Italic-56" transform="translate(230.088047 -25.592187) scale(0.7)"/>
     </g>
    </g>
    <g id="line2d_48">
     <g>
      <use xlink:href="#m3eabf087e3" x="365.60125" y="76.698763" style="fill-opacity: 0; stroke: #228b22; stroke-width: 2; stroke-linejoin: miter"/>
     </g>
    </g>
    <g id="text_21">
     <!-- $\mathrm{RPI}_{PQ}^\mathrm{inj}$ -->
     <g transform="translate(398.00125 82.998763) scale(0.18 -0.18)">
      <defs>
       <path id="DejaVuSerif-Italic-51" d="M 2322 -91 
Q 1250 -91 741 569 
Q 388 1028 388 1713 
Q 388 2000 450 2328 
Q 559 2894 817 3339 
Q 1075 3784 1491 4134 
Q 1856 4441 2281 4595 
Q 2706 4750 3188 4750 
Q 4203 4750 4697 4084 
Q 5044 3619 5044 2944 
Q 5044 2656 4981 2328 
Q 4800 1403 4209 773 
Q 3619 144 2759 -38 
Q 2888 -247 3109 -347 
Q 3331 -447 3672 -447 
L 4453 -447 
L 4341 -1025 
L 3975 -1025 
Q 3147 -1025 2803 -769 
Q 2466 -513 2322 -91 
z
M 2309 244 
Q 3075 244 3569 770 
Q 4063 1297 4263 2328 
Q 4344 2753 4344 3094 
Q 4344 3578 4175 3888 
Q 3888 4416 3122 4416 
Q 2353 4416 1859 3889 
Q 1366 3363 1166 2328 
Q 1084 1906 1084 1566 
Q 1084 1081 1253 769 
Q 1541 244 2309 244 
z
" transform="scale(0.015625)"/>
      </defs>
      <use xlink:href="#DejaVuSerif-52" transform="translate(0 0.442187)"/>
      <use xlink:href="#DejaVuSerif-50" transform="translate(75.292969 0.442187)"/>
      <use xlink:href="#DejaVuSerif-49" transform="translate(142.578125 0.442187)"/>
      <use xlink:href="#DejaVuSerif-69" transform="translate(182.988438 54.495313) scale(0.7)"/>
      <use xlink:href="#DejaVuSerif-6e" transform="translate(205.376133 54.495313) scale(0.7)"/>
      <use xlink:href="#DejaVuSerif-6a" transform="translate(250.459141 54.495313) scale(0.7)"/>
      <use xlink:href="#DejaVuSerif-Italic-50" transform="translate(182.988438 -25.510938) scale(0.7)"/>
      <use xlink:href="#DejaVuSerif-Italic-51" transform="translate(230.088047 -25.510938) scale(0.7)"/>
     </g>
    </g>
    <g id="line2d_49">
     <g>
      <use xlink:href="#m5e37a5cae5" x="504.38125" y="76.698763" style="fill-opacity: 0; stroke: #0000ff; stroke-width: 2"/>
     </g>
    </g>
    <g id="text_22">
     <!-- $\mathrm{VPI}_{PV}^\mathrm{l}$ -->
     <g transform="translate(536.78125 82.998763) scale(0.18 -0.18)">
      <defs>
       <path id="DejaVuSerif-6c" d="M 1313 331 
L 1856 331 
L 1856 0 
L 184 0 
L 184 331 
L 738 331 
L 738 4531 
L 184 4531 
L 184 4863 
L 1313 4863 
L 1313 331 
z
" transform="scale(0.015625)"/>
      </defs>
      <use xlink:href="#DejaVuSerif-56" transform="translate(0 0.229687)"/>
      <use xlink:href="#DejaVuSerif-50" transform="translate(72.216797 0.229687)"/>
      <use xlink:href="#DejaVuSerif-49" transform="translate(139.501953 0.229687)"/>
      <use xlink:href="#DejaVuSerif-6c" transform="translate(179.912266 37.810938) scale(0.7)"/>
      <use xlink:href="#DejaVuSerif-Italic-50" transform="translate(179.912266 -25.723437) scale(0.7)"/>
      <use xlink:href="#DejaVuSerif-Italic-56" transform="translate(227.011875 -25.723437) scale(0.7)"/>
     </g>
    </g>
    <g id="line2d_50">
     <g>
      <use xlink:href="#m78d88d8308" x="641.36125" y="76.698763" style="fill-opacity: 0; stroke: #87ceeb; stroke-width: 2"/>
     </g>
    </g>
    <g id="text_23">
     <!-- $\mathrm{VPI}_{PQ}^\mathrm{l}$ -->
     <g transform="translate(673.76125 82.998763) scale(0.18 -0.18)">
      <use xlink:href="#DejaVuSerif-56" transform="translate(0 0.310937)"/>
      <use xlink:href="#DejaVuSerif-50" transform="translate(72.216797 0.310937)"/>
      <use xlink:href="#DejaVuSerif-49" transform="translate(139.501953 0.310937)"/>
      <use xlink:href="#DejaVuSerif-6c" transform="translate(179.912266 38.810938) scale(0.7)"/>
      <use xlink:href="#DejaVuSerif-Italic-50" transform="translate(179.912266 -25.642188) scale(0.7)"/>
      <use xlink:href="#DejaVuSerif-Italic-51" transform="translate(227.011875 -25.642188) scale(0.7)"/>
     </g>
    </g>
    <g id="line2d_51">
     <g>
      <use xlink:href="#mf0df7f7196" x="779.42125" y="76.698763" style="fill-opacity: 0; stroke: #008000; stroke-width: 2"/>
     </g>
    </g>
    <g id="text_24">
     <!-- $\mathrm{VPI}_{PV}^\mathrm{u}$ -->
     <g transform="translate(811.82125 82.998763) scale(0.18 -0.18)">
      <use xlink:href="#DejaVuSerif-56" transform="translate(0 0.089063)"/>
      <use xlink:href="#DejaVuSerif-50" transform="translate(72.216797 0.089063)"/>
      <use xlink:href="#DejaVuSerif-49" transform="translate(139.501953 0.089063)"/>
      <use xlink:href="#DejaVuSerif-75" transform="translate(179.912266 38.665625) scale(0.7)"/>
      <use xlink:href="#DejaVuSerif-Italic-50" transform="translate(179.912266 -25.864062) scale(0.7)"/>
      <use xlink:href="#DejaVuSerif-Italic-56" transform="translate(227.011875 -25.864062) scale(0.7)"/>
     </g>
    </g>
    <g id="line2d_52">
     <g>
      <use xlink:href="#m769e3a1ebd" x="916.40125" y="76.698763" style="fill-opacity: 0; stroke: #4b0082; stroke-width: 2"/>
     </g>
    </g>
    <g id="text_25">
     <!-- $\mathrm{VPI}_{PQ}^\mathrm{u}$ -->
     <g transform="translate(948.80125 82.998763) scale(0.18 -0.18)">
      <use xlink:href="#DejaVuSerif-56" transform="translate(0 0.170313)"/>
      <use xlink:href="#DejaVuSerif-50" transform="translate(72.216797 0.170313)"/>
      <use xlink:href="#DejaVuSerif-49" transform="translate(139.501953 0.170313)"/>
      <use xlink:href="#DejaVuSerif-75" transform="translate(179.912266 39.665625) scale(0.7)"/>
      <use xlink:href="#DejaVuSerif-Italic-50" transform="translate(179.912266 -25.782812) scale(0.7)"/>
      <use xlink:href="#DejaVuSerif-Italic-51" transform="translate(227.011875 -25.782812) scale(0.7)"/>
     </g>
    </g>
    <g id="line2d_53">
     <g>
      <use xlink:href="#ma69e33b0c9" x="1054.46125" y="76.698763" style="fill-opacity: 0; stroke: #a52a2a; stroke-width: 2; stroke-linejoin: miter"/>
     </g>
    </g>
    <g id="text_26">
     <!-- $\mathrm{RPI}_{PQ}^\mathrm{abs}$ -->
     <g transform="translate(1086.86125 82.998763) scale(0.18 -0.18)">
      <defs>
       <path id="DejaVuSerif-62" d="M 738 331 
L 738 4531 
L 184 4531 
L 184 4863 
L 1313 4863 
L 1313 2803 
Q 1481 3116 1742 3264 
Q 2003 3413 2388 3413 
Q 3000 3413 3387 2928 
Q 3775 2444 3775 1663 
Q 3775 881 3387 395 
Q 3000 -91 2388 -91 
Q 2003 -91 1742 57 
Q 1481 206 1313 519 
L 1313 0 
L 184 0 
L 184 331 
L 738 331 
z
M 1313 1497 
Q 1313 897 1542 583 
Q 1772 269 2209 269 
Q 2650 269 2876 622 
Q 3103 975 3103 1663 
Q 3103 2353 2876 2703 
Q 2650 3053 2209 3053 
Q 1772 3053 1542 2737 
Q 1313 2422 1313 1825 
L 1313 1497 
z
" transform="scale(0.015625)"/>
      </defs>
      <use xlink:href="#DejaVuSerif-52" transform="translate(0 0.315625)"/>
      <use xlink:href="#DejaVuSerif-50" transform="translate(75.292969 0.315625)"/>
      <use xlink:href="#DejaVuSerif-49" transform="translate(142.578125 0.315625)"/>
      <use xlink:href="#DejaVuSerif-61" transform="translate(182.988438 39.810938) scale(0.7)"/>
      <use xlink:href="#DejaVuSerif-62" transform="translate(224.721836 39.810938) scale(0.7)"/>
      <use xlink:href="#DejaVuSerif-73" transform="translate(269.531406 39.810938) scale(0.7)"/>
      <use xlink:href="#DejaVuSerif-Italic-50" transform="translate(182.988438 -25.6375) scale(0.7)"/>
      <use xlink:href="#DejaVuSerif-Italic-51" transform="translate(230.088047 -25.6375) scale(0.7)"/>
     </g>
    </g>
   </g>
  </g>
 </g>
 <defs>
  <clipPath id="p44b4a602e1">
   <rect x="67.3625" y="101.592" width="1217.8375" height="401.469311"/>
  </clipPath>
 </defs>
</svg>
