<?xml version="1.0" encoding="utf-8" standalone="no"?>
<!DOCTYPE svg PUBLIC "-//W3C//DTD SVG 1.1//EN"
  "http://www.w3.org/Graphics/SVG/1.1/DTD/svg11.dtd">
<svg xmlns:xlink="http://www.w3.org/1999/xlink" width="1440pt" height="576pt" viewBox="0 0 1440 576" xmlns="http://www.w3.org/2000/svg" version="1.1">
 <metadata>
  <rdf:RDF xmlns:dc="http://purl.org/dc/elements/1.1/" xmlns:cc="http://creativecommons.org/ns#" xmlns:rdf="http://www.w3.org/1999/02/22-rdf-syntax-ns#">
   <cc:Work>
    <dc:type rdf:resource="http://purl.org/dc/dcmitype/StillImage"/>
    <dc:date>2024-10-05T20:21:12.516124</dc:date>
    <dc:format>image/svg+xml</dc:format>
    <dc:creator>
     <cc:Agent>
      <dc:title>Matplotlib v3.7.2, https://matplotlib.org/</dc:title>
     </cc:Agent>
    </dc:creator>
   </cc:Work>
  </rdf:RDF>
 </metadata>
 <defs>
  <style type="text/css">*{stroke-linejoin: round; stroke-linecap: butt}</style>
 </defs>
 <g id="figure_1">
  <g id="patch_1">
   <path d="M 0 576 
L 1440 576 
L 1440 0 
L 0 0 
z
" style="fill: #f0f0f0"/>
  </g>
  <g id="axes_1">
   <g id="patch_2">
    <path d="M 115.2 535.68 
L 1368 535.68 
L 1368 69.12 
L 115.2 69.12 
z
" style="fill: #e5e5e5"/>
   </g>
   <g id="matplotlib.axis_1">
    <g id="xtick_1">
     <g id="line2d_1">
      <path d="M 192.37988 535.68 
L 192.37988 69.12 
" clip-path="url(#pb2bd58e9db)" style="fill: none; stroke: #ffffff; stroke-linecap: round"/>
     </g>
     <g id="line2d_2"/>
     <g id="text_1">
      <!-- North - 842 - 230 kV Tramo Oeste -->
      <g transform="translate(-3.260792 663.407306) rotate(-30) scale(0.13 -0.13)">
       <defs>
        <path id="DejaVuSerif-4e" d="M 313 0 
L 313 331 
L 941 331 
L 941 4331 
L 313 4331 
L 313 4666 
L 1509 4666 
L 4306 984 
L 4306 4331 
L 3681 4331 
L 3681 4666 
L 5319 4666 
L 5319 4331 
L 4691 4331 
L 4691 -91 
L 4313 -91 
L 1325 3841 
L 1325 331 
L 1953 331 
L 1953 0 
L 313 0 
z
" transform="scale(0.015625)"/>
        <path id="DejaVuSerif-6f" d="M 1925 219 
Q 2388 219 2623 584 
Q 2859 950 2859 1663 
Q 2859 2375 2623 2739 
Q 2388 3103 1925 3103 
Q 1463 3103 1227 2739 
Q 991 2375 991 1663 
Q 991 950 1228 584 
Q 1466 219 1925 219 
z
M 1925 -91 
Q 1200 -91 759 389 
Q 319 869 319 1663 
Q 319 2456 758 2934 
Q 1197 3413 1925 3413 
Q 2653 3413 3092 2934 
Q 3531 2456 3531 1663 
Q 3531 869 3092 389 
Q 2653 -91 1925 -91 
z
" transform="scale(0.015625)"/>
        <path id="DejaVuSerif-72" d="M 3059 3328 
L 3059 2497 
L 2728 2497 
Q 2713 2744 2591 2866 
Q 2469 2988 2234 2988 
Q 1809 2988 1582 2694 
Q 1356 2400 1356 1850 
L 1356 331 
L 2022 331 
L 2022 0 
L 263 0 
L 263 331 
L 781 331 
L 781 2994 
L 231 2994 
L 231 3322 
L 1356 3322 
L 1356 2731 
Q 1525 3078 1790 3245 
Q 2056 3413 2438 3413 
Q 2578 3413 2733 3391 
Q 2888 3369 3059 3328 
z
" transform="scale(0.015625)"/>
        <path id="DejaVuSerif-74" d="M 691 2988 
L 184 2988 
L 184 3322 
L 691 3322 
L 691 4353 
L 1269 4353 
L 1269 3322 
L 2350 3322 
L 2350 2988 
L 1269 2988 
L 1269 878 
Q 1269 456 1350 337 
Q 1431 219 1650 219 
Q 1875 219 1978 351 
Q 2081 484 2088 781 
L 2522 781 
Q 2497 328 2275 118 
Q 2053 -91 1600 -91 
Q 1103 -91 897 129 
Q 691 350 691 878 
L 691 2988 
z
" transform="scale(0.015625)"/>
        <path id="DejaVuSerif-68" d="M 263 0 
L 263 331 
L 781 331 
L 781 4531 
L 231 4531 
L 231 4863 
L 1356 4863 
L 1356 2731 
Q 1516 3069 1770 3241 
Q 2025 3413 2363 3413 
Q 2913 3413 3172 3097 
Q 3431 2781 3431 2113 
L 3431 331 
L 3944 331 
L 3944 0 
L 2356 0 
L 2356 331 
L 2853 331 
L 2853 1931 
Q 2853 2541 2704 2764 
Q 2556 2988 2175 2988 
Q 1775 2988 1565 2697 
Q 1356 2406 1356 1850 
L 1356 331 
L 1856 331 
L 1856 0 
L 263 0 
z
" transform="scale(0.015625)"/>
        <path id="DejaVuSerif-20" transform="scale(0.015625)"/>
        <path id="DejaVuSerif-2d" d="M 281 1959 
L 1881 1959 
L 1881 1472 
L 281 1472 
L 281 1959 
z
" transform="scale(0.015625)"/>
        <path id="DejaVuSerif-38" d="M 2981 1275 
Q 2981 1775 2732 2051 
Q 2484 2328 2034 2328 
Q 1584 2328 1336 2051 
Q 1088 1775 1088 1275 
Q 1088 772 1336 495 
Q 1584 219 2034 219 
Q 2484 219 2732 495 
Q 2981 772 2981 1275 
z
M 2853 3541 
Q 2853 3966 2637 4203 
Q 2422 4441 2034 4441 
Q 1650 4441 1433 4203 
Q 1216 3966 1216 3541 
Q 1216 3113 1433 2875 
Q 1650 2638 2034 2638 
Q 2422 2638 2637 2875 
Q 2853 3113 2853 3541 
z
M 2516 2484 
Q 3047 2413 3344 2092 
Q 3641 1772 3641 1275 
Q 3641 619 3225 264 
Q 2809 -91 2034 -91 
Q 1263 -91 845 264 
Q 428 619 428 1275 
Q 428 1772 725 2092 
Q 1022 2413 1556 2484 
Q 1084 2569 832 2842 
Q 581 3116 581 3541 
Q 581 4103 968 4426 
Q 1356 4750 2034 4750 
Q 2713 4750 3100 4426 
Q 3488 4103 3488 3541 
Q 3488 3116 3236 2842 
Q 2984 2569 2516 2484 
z
" transform="scale(0.015625)"/>
        <path id="DejaVuSerif-34" d="M 2234 1581 
L 2234 4063 
L 641 1581 
L 2234 1581 
z
M 3609 0 
L 1484 0 
L 1484 331 
L 2234 331 
L 2234 1247 
L 197 1247 
L 197 1588 
L 2241 4750 
L 2859 4750 
L 2859 1581 
L 3750 1581 
L 3750 1247 
L 2859 1247 
L 2859 331 
L 3609 331 
L 3609 0 
z
" transform="scale(0.015625)"/>
        <path id="DejaVuSerif-32" d="M 819 3553 
L 469 3553 
L 469 4384 
Q 803 4563 1142 4656 
Q 1481 4750 1806 4750 
Q 2534 4750 2956 4397 
Q 3378 4044 3378 3438 
Q 3378 2753 2422 1800 
Q 2347 1728 2309 1691 
L 1131 513 
L 3078 513 
L 3078 1088 
L 3444 1088 
L 3444 0 
L 434 0 
L 434 341 
L 1850 1753 
Q 2319 2222 2519 2614 
Q 2719 3006 2719 3438 
Q 2719 3909 2473 4175 
Q 2228 4441 1797 4441 
Q 1350 4441 1106 4219 
Q 863 3997 819 3553 
z
" transform="scale(0.015625)"/>
        <path id="DejaVuSerif-33" d="M 622 4469 
Q 988 4606 1323 4678 
Q 1659 4750 1953 4750 
Q 2638 4750 3022 4454 
Q 3406 4159 3406 3634 
Q 3406 3213 3140 2930 
Q 2875 2647 2388 2547 
Q 2963 2466 3280 2130 
Q 3597 1794 3597 1259 
Q 3597 606 3158 257 
Q 2719 -91 1894 -91 
Q 1528 -91 1179 -12 
Q 831 66 488 225 
L 488 1131 
L 838 1131 
Q 869 681 1141 450 
Q 1413 219 1906 219 
Q 2384 219 2661 495 
Q 2938 772 2938 1253 
Q 2938 1803 2653 2086 
Q 2369 2369 1819 2369 
L 1522 2369 
L 1522 2688 
L 1678 2688 
Q 2225 2688 2498 2914 
Q 2772 3141 2772 3597 
Q 2772 4006 2547 4223 
Q 2322 4441 1900 4441 
Q 1478 4441 1245 4241 
Q 1013 4041 972 3647 
L 622 3647 
L 622 4469 
z
" transform="scale(0.015625)"/>
        <path id="DejaVuSerif-30" d="M 2034 219 
Q 2513 219 2750 744 
Q 2988 1269 2988 2328 
Q 2988 3391 2750 3916 
Q 2513 4441 2034 4441 
Q 1556 4441 1318 3916 
Q 1081 3391 1081 2328 
Q 1081 1269 1318 744 
Q 1556 219 2034 219 
z
M 2034 -91 
Q 1275 -91 848 546 
Q 422 1184 422 2328 
Q 422 3475 848 4112 
Q 1275 4750 2034 4750 
Q 2797 4750 3222 4112 
Q 3647 3475 3647 2328 
Q 3647 1184 3222 546 
Q 2797 -91 2034 -91 
z
" transform="scale(0.015625)"/>
        <path id="DejaVuSerif-6b" d="M 1831 0 
L 219 0 
L 219 331 
L 738 331 
L 738 4531 
L 184 4531 
L 184 4863 
L 1313 4863 
L 1313 1697 
L 2713 2988 
L 2234 2988 
L 2234 3322 
L 3738 3322 
L 3738 2988 
L 3169 2988 
L 2181 2075 
L 3444 331 
L 3922 331 
L 3922 0 
L 2284 0 
L 2284 331 
L 2759 331 
L 1766 1697 
L 1313 1275 
L 1313 331 
L 1831 331 
L 1831 0 
z
" transform="scale(0.015625)"/>
        <path id="DejaVuSerif-56" d="M 1119 4331 
L 2497 750 
L 3872 4331 
L 3347 4331 
L 3347 4666 
L 4716 4666 
L 4716 4331 
L 4263 4331 
L 2597 0 
L 2059 0 
L 403 4331 
L -63 4331 
L -63 4666 
L 1638 4666 
L 1638 4331 
L 1119 4331 
z
" transform="scale(0.015625)"/>
        <path id="DejaVuSerif-54" d="M 1222 0 
L 1222 331 
L 1819 331 
L 1819 4294 
L 447 4294 
L 447 3566 
L 63 3566 
L 63 4666 
L 4206 4666 
L 4206 3566 
L 3822 3566 
L 3822 4294 
L 2450 4294 
L 2450 331 
L 3047 331 
L 3047 0 
L 1222 0 
z
" transform="scale(0.015625)"/>
        <path id="DejaVuSerif-61" d="M 2547 1044 
L 2547 1747 
L 1806 1747 
Q 1378 1747 1168 1562 
Q 959 1378 959 997 
Q 959 650 1171 447 
Q 1384 244 1747 244 
Q 2106 244 2326 466 
Q 2547 688 2547 1044 
z
M 3122 2075 
L 3122 331 
L 3634 331 
L 3634 0 
L 2547 0 
L 2547 359 
Q 2356 128 2106 18 
Q 1856 -91 1522 -91 
Q 969 -91 644 203 
Q 319 497 319 997 
Q 319 1513 691 1797 
Q 1063 2081 1741 2081 
L 2547 2081 
L 2547 2309 
Q 2547 2688 2317 2895 
Q 2088 3103 1672 3103 
Q 1328 3103 1125 2947 
Q 922 2791 872 2484 
L 575 2484 
L 575 3156 
Q 875 3284 1158 3348 
Q 1441 3413 1709 3413 
Q 2400 3413 2761 3070 
Q 3122 2728 3122 2075 
z
" transform="scale(0.015625)"/>
        <path id="DejaVuSerif-6d" d="M 3316 2675 
Q 3481 3041 3739 3227 
Q 3997 3413 4341 3413 
Q 4863 3413 5119 3089 
Q 5375 2766 5375 2113 
L 5375 331 
L 5894 331 
L 5894 0 
L 4300 0 
L 4300 331 
L 4800 331 
L 4800 2047 
Q 4800 2556 4650 2772 
Q 4500 2988 4153 2988 
Q 3769 2988 3567 2697 
Q 3366 2406 3366 1850 
L 3366 331 
L 3866 331 
L 3866 0 
L 2291 0 
L 2291 331 
L 2791 331 
L 2791 2069 
Q 2791 2566 2641 2777 
Q 2491 2988 2144 2988 
Q 1759 2988 1557 2697 
Q 1356 2406 1356 1850 
L 1356 331 
L 1856 331 
L 1856 0 
L 263 0 
L 263 331 
L 781 331 
L 781 2994 
L 231 2994 
L 231 3322 
L 1356 3322 
L 1356 2731 
Q 1516 3063 1762 3238 
Q 2009 3413 2322 3413 
Q 2709 3413 2968 3220 
Q 3228 3028 3316 2675 
z
" transform="scale(0.015625)"/>
        <path id="DejaVuSerif-4f" d="M 2625 244 
Q 3391 244 3781 770 
Q 4172 1297 4172 2328 
Q 4172 3363 3781 3889 
Q 3391 4416 2625 4416 
Q 1856 4416 1465 3889 
Q 1075 3363 1075 2328 
Q 1075 1297 1465 770 
Q 1856 244 2625 244 
z
M 2625 -91 
Q 2150 -91 1751 65 
Q 1353 222 1050 525 
Q 700 875 529 1319 
Q 359 1763 359 2328 
Q 359 2894 529 3339 
Q 700 3784 1050 4134 
Q 1356 4441 1750 4595 
Q 2144 4750 2625 4750 
Q 3641 4750 4266 4084 
Q 4891 3419 4891 2328 
Q 4891 1769 4719 1320 
Q 4547 872 4197 525 
Q 3891 219 3497 64 
Q 3103 -91 2625 -91 
z
" transform="scale(0.015625)"/>
        <path id="DejaVuSerif-65" d="M 3469 1600 
L 991 1600 
L 991 1575 
Q 991 903 1244 561 
Q 1497 219 1991 219 
Q 2369 219 2611 417 
Q 2853 616 2950 1006 
L 3413 1006 
Q 3275 459 2904 184 
Q 2534 -91 1931 -91 
Q 1203 -91 761 389 
Q 319 869 319 1663 
Q 319 2450 753 2931 
Q 1188 3413 1894 3413 
Q 2647 3413 3050 2948 
Q 3453 2484 3469 1600 
z
M 2791 1931 
Q 2772 2513 2545 2808 
Q 2319 3103 1894 3103 
Q 1497 3103 1269 2806 
Q 1041 2509 991 1931 
L 2791 1931 
z
" transform="scale(0.015625)"/>
        <path id="DejaVuSerif-73" d="M 359 184 
L 359 959 
L 691 959 
Q 703 588 923 403 
Q 1144 219 1575 219 
Q 1963 219 2166 364 
Q 2369 509 2369 788 
Q 2369 1006 2220 1140 
Q 2072 1275 1594 1428 
L 1178 1569 
Q 750 1706 558 1912 
Q 366 2119 366 2438 
Q 366 2894 700 3153 
Q 1034 3413 1625 3413 
Q 1888 3413 2178 3344 
Q 2469 3275 2778 3144 
L 2778 2419 
L 2447 2419 
Q 2434 2741 2221 2922 
Q 2009 3103 1644 3103 
Q 1281 3103 1095 2975 
Q 909 2847 909 2591 
Q 909 2381 1050 2254 
Q 1191 2128 1613 1997 
L 2069 1856 
Q 2541 1709 2748 1489 
Q 2956 1269 2956 922 
Q 2956 450 2595 179 
Q 2234 -91 1600 -91 
Q 1278 -91 972 -22 
Q 666 47 359 184 
z
" transform="scale(0.015625)"/>
       </defs>
       <use xlink:href="#DejaVuSerif-4e"/>
       <use xlink:href="#DejaVuSerif-6f" x="87.5"/>
       <use xlink:href="#DejaVuSerif-72" x="147.705078"/>
       <use xlink:href="#DejaVuSerif-74" x="195.507812"/>
       <use xlink:href="#DejaVuSerif-68" x="235.693359"/>
       <use xlink:href="#DejaVuSerif-20" x="300.097656"/>
       <use xlink:href="#DejaVuSerif-2d" x="331.884766"/>
       <use xlink:href="#DejaVuSerif-20" x="365.673828"/>
       <use xlink:href="#DejaVuSerif-38" x="397.460938"/>
       <use xlink:href="#DejaVuSerif-34" x="461.083984"/>
       <use xlink:href="#DejaVuSerif-32" x="524.707031"/>
       <use xlink:href="#DejaVuSerif-20" x="588.330078"/>
       <use xlink:href="#DejaVuSerif-2d" x="620.117188"/>
       <use xlink:href="#DejaVuSerif-20" x="653.90625"/>
       <use xlink:href="#DejaVuSerif-32" x="685.693359"/>
       <use xlink:href="#DejaVuSerif-33" x="749.316406"/>
       <use xlink:href="#DejaVuSerif-30" x="812.939453"/>
       <use xlink:href="#DejaVuSerif-20" x="876.5625"/>
       <use xlink:href="#DejaVuSerif-6b" x="908.349609"/>
       <use xlink:href="#DejaVuSerif-56" x="968.945312"/>
       <use xlink:href="#DejaVuSerif-20" x="1041.162109"/>
       <use xlink:href="#DejaVuSerif-54" x="1072.949219"/>
       <use xlink:href="#DejaVuSerif-72" x="1139.648438"/>
       <use xlink:href="#DejaVuSerif-61" x="1187.451172"/>
       <use xlink:href="#DejaVuSerif-6d" x="1247.070312"/>
       <use xlink:href="#DejaVuSerif-6f" x="1341.894531"/>
       <use xlink:href="#DejaVuSerif-20" x="1402.099609"/>
       <use xlink:href="#DejaVuSerif-4f" x="1433.886719"/>
       <use xlink:href="#DejaVuSerif-65" x="1515.869141"/>
       <use xlink:href="#DejaVuSerif-73" x="1575.048828"/>
       <use xlink:href="#DejaVuSerif-74" x="1626.367188"/>
       <use xlink:href="#DejaVuSerif-65" x="1666.552734"/>
      </g>
     </g>
    </g>
    <g id="xtick_2">
     <g id="line2d_3">
      <path d="M 250.192524 535.68 
L 250.192524 69.12 
" clip-path="url(#pb2bd58e9db)" style="fill: none; stroke: #ffffff; stroke-linecap: round"/>
     </g>
     <g id="line2d_4"/>
     <g id="text_2">
      <!-- South - 101 - 525 kV -->
      <g transform="translate(131.893063 618.754338) rotate(-30) scale(0.13 -0.13)">
       <defs>
        <path id="DejaVuSerif-53" d="M 594 225 
L 594 1288 
L 953 1284 
Q 969 753 1261 498 
Q 1553 244 2150 244 
Q 2706 244 2998 464 
Q 3291 684 3291 1106 
Q 3291 1444 3114 1625 
Q 2938 1806 2369 1978 
L 1753 2163 
Q 1084 2366 811 2669 
Q 538 2972 538 3500 
Q 538 4094 959 4422 
Q 1381 4750 2144 4750 
Q 2469 4750 2856 4679 
Q 3244 4609 3681 4475 
L 3681 3481 
L 3328 3481 
Q 3275 3975 2998 4195 
Q 2722 4416 2156 4416 
Q 1663 4416 1405 4214 
Q 1147 4013 1147 3628 
Q 1147 3294 1340 3103 
Q 1534 2913 2163 2725 
L 2741 2553 
Q 3375 2363 3645 2067 
Q 3916 1772 3916 1275 
Q 3916 597 3481 253 
Q 3047 -91 2188 -91 
Q 1803 -91 1404 -12 
Q 1006 66 594 225 
z
" transform="scale(0.015625)"/>
        <path id="DejaVuSerif-75" d="M 2266 3322 
L 3341 3322 
L 3341 331 
L 3884 331 
L 3884 0 
L 2766 0 
L 2766 588 
Q 2606 256 2353 82 
Q 2100 -91 1766 -91 
Q 1213 -91 952 223 
Q 691 538 691 1209 
L 691 2988 
L 172 2988 
L 172 3322 
L 1269 3322 
L 1269 1388 
Q 1269 781 1417 556 
Q 1566 331 1947 331 
Q 2347 331 2556 625 
Q 2766 919 2766 1478 
L 2766 2988 
L 2266 2988 
L 2266 3322 
z
" transform="scale(0.015625)"/>
        <path id="DejaVuSerif-31" d="M 909 0 
L 909 331 
L 1722 331 
L 1722 4213 
L 781 3603 
L 781 4013 
L 1919 4750 
L 2350 4750 
L 2350 331 
L 3163 331 
L 3163 0 
L 909 0 
z
" transform="scale(0.015625)"/>
        <path id="DejaVuSerif-35" d="M 3219 4666 
L 3219 4153 
L 1081 4153 
L 1081 2816 
Q 1244 2928 1461 2984 
Q 1678 3041 1947 3041 
Q 2703 3041 3140 2622 
Q 3578 2203 3578 1478 
Q 3578 738 3136 323 
Q 2694 -91 1894 -91 
Q 1572 -91 1234 -12 
Q 897 66 544 225 
L 544 1131 
L 897 1131 
Q 925 688 1179 453 
Q 1434 219 1894 219 
Q 2388 219 2653 544 
Q 2919 869 2919 1478 
Q 2919 2084 2655 2407 
Q 2391 2731 1894 2731 
Q 1613 2731 1398 2631 
Q 1184 2531 1019 2322 
L 750 2322 
L 750 4666 
L 3219 4666 
z
" transform="scale(0.015625)"/>
       </defs>
       <use xlink:href="#DejaVuSerif-53"/>
       <use xlink:href="#DejaVuSerif-6f" x="68.505859"/>
       <use xlink:href="#DejaVuSerif-75" x="128.710938"/>
       <use xlink:href="#DejaVuSerif-74" x="193.115234"/>
       <use xlink:href="#DejaVuSerif-68" x="233.300781"/>
       <use xlink:href="#DejaVuSerif-20" x="297.705078"/>
       <use xlink:href="#DejaVuSerif-2d" x="329.492188"/>
       <use xlink:href="#DejaVuSerif-20" x="363.28125"/>
       <use xlink:href="#DejaVuSerif-31" x="395.068359"/>
       <use xlink:href="#DejaVuSerif-30" x="458.691406"/>
       <use xlink:href="#DejaVuSerif-31" x="522.314453"/>
       <use xlink:href="#DejaVuSerif-20" x="585.9375"/>
       <use xlink:href="#DejaVuSerif-2d" x="617.724609"/>
       <use xlink:href="#DejaVuSerif-20" x="651.513672"/>
       <use xlink:href="#DejaVuSerif-35" x="683.300781"/>
       <use xlink:href="#DejaVuSerif-32" x="746.923828"/>
       <use xlink:href="#DejaVuSerif-35" x="810.546875"/>
       <use xlink:href="#DejaVuSerif-20" x="874.169922"/>
       <use xlink:href="#DejaVuSerif-6b" x="905.957031"/>
       <use xlink:href="#DejaVuSerif-56" x="966.552734"/>
      </g>
     </g>
    </g>
    <g id="xtick_3">
     <g id="line2d_5">
      <path d="M 308.005168 535.68 
L 308.005168 69.12 
" clip-path="url(#pb2bd58e9db)" style="fill: none; stroke: #ffffff; stroke-linecap: round"/>
     </g>
     <g id="line2d_6"/>
     <g id="text_3">
      <!-- SE-CW - 251 - 500 kV -->
      <g transform="translate(183.089679 622.574103) rotate(-30) scale(0.13 -0.13)">
       <defs>
        <path id="DejaVuSerif-45" d="M 353 0 
L 353 331 
L 947 331 
L 947 4331 
L 353 4331 
L 353 4666 
L 4109 4666 
L 4109 3628 
L 3725 3628 
L 3725 4281 
L 1581 4281 
L 1581 2719 
L 3109 2719 
L 3109 3303 
L 3494 3303 
L 3494 1753 
L 3109 1753 
L 3109 2338 
L 1581 2338 
L 1581 384 
L 3775 384 
L 3775 1038 
L 4159 1038 
L 4159 0 
L 353 0 
z
" transform="scale(0.015625)"/>
        <path id="DejaVuSerif-43" d="M 4513 1234 
Q 4306 581 3820 245 
Q 3334 -91 2591 -91 
Q 2134 -91 1743 65 
Q 1353 222 1050 525 
Q 700 875 529 1320 
Q 359 1766 359 2328 
Q 359 3416 987 4083 
Q 1616 4750 2644 4750 
Q 3025 4750 3456 4650 
Q 3888 4550 4384 4347 
L 4384 3272 
L 4031 3272 
Q 3916 3859 3567 4137 
Q 3219 4416 2591 4416 
Q 1844 4416 1459 3886 
Q 1075 3356 1075 2328 
Q 1075 1303 1459 773 
Q 1844 244 2591 244 
Q 3113 244 3450 492 
Q 3788 741 3938 1234 
L 4513 1234 
z
" transform="scale(0.015625)"/>
        <path id="DejaVuSerif-57" d="M 4878 0 
L 4366 0 
L 3297 3794 
L 2228 0 
L 1716 0 
L 494 4331 
L 31 4331 
L 31 4666 
L 1734 4666 
L 1734 4331 
L 1153 4331 
L 2125 884 
L 3188 4666 
L 3694 4666 
L 4775 844 
L 5753 4331 
L 5216 4331 
L 5216 4666 
L 6559 4666 
L 6559 4331 
L 6100 4331 
L 4878 0 
z
" transform="scale(0.015625)"/>
       </defs>
       <use xlink:href="#DejaVuSerif-53"/>
       <use xlink:href="#DejaVuSerif-45" x="68.505859"/>
       <use xlink:href="#DejaVuSerif-2d" x="143.378906"/>
       <use xlink:href="#DejaVuSerif-43" x="177.167969"/>
       <use xlink:href="#DejaVuSerif-57" x="253.681641"/>
       <use xlink:href="#DejaVuSerif-20" x="356.464844"/>
       <use xlink:href="#DejaVuSerif-2d" x="388.251953"/>
       <use xlink:href="#DejaVuSerif-20" x="422.041016"/>
       <use xlink:href="#DejaVuSerif-32" x="453.828125"/>
       <use xlink:href="#DejaVuSerif-35" x="517.451172"/>
       <use xlink:href="#DejaVuSerif-31" x="581.074219"/>
       <use xlink:href="#DejaVuSerif-20" x="644.697266"/>
       <use xlink:href="#DejaVuSerif-2d" x="676.484375"/>
       <use xlink:href="#DejaVuSerif-20" x="710.273438"/>
       <use xlink:href="#DejaVuSerif-35" x="742.060547"/>
       <use xlink:href="#DejaVuSerif-30" x="805.683594"/>
       <use xlink:href="#DejaVuSerif-30" x="869.306641"/>
       <use xlink:href="#DejaVuSerif-20" x="932.929688"/>
       <use xlink:href="#DejaVuSerif-6b" x="964.716797"/>
       <use xlink:href="#DejaVuSerif-56" x="1025.3125"/>
      </g>
     </g>
    </g>
    <g id="xtick_4">
     <g id="line2d_7">
      <path d="M 365.817813 535.68 
L 365.817813 69.12 
" clip-path="url(#pb2bd58e9db)" style="fill: none; stroke: #ffffff; stroke-linecap: round"/>
     </g>
     <g id="line2d_8"/>
     <g id="text_4">
      <!-- North - 844 - 230 kV Sul -->
      <g transform="translate(225.107238 631.6934) rotate(-30) scale(0.13 -0.13)">
       <defs>
        <path id="DejaVuSerif-6c" d="M 1313 331 
L 1856 331 
L 1856 0 
L 184 0 
L 184 331 
L 738 331 
L 738 4531 
L 184 4531 
L 184 4863 
L 1313 4863 
L 1313 331 
z
" transform="scale(0.015625)"/>
       </defs>
       <use xlink:href="#DejaVuSerif-4e"/>
       <use xlink:href="#DejaVuSerif-6f" x="87.5"/>
       <use xlink:href="#DejaVuSerif-72" x="147.705078"/>
       <use xlink:href="#DejaVuSerif-74" x="195.507812"/>
       <use xlink:href="#DejaVuSerif-68" x="235.693359"/>
       <use xlink:href="#DejaVuSerif-20" x="300.097656"/>
       <use xlink:href="#DejaVuSerif-2d" x="331.884766"/>
       <use xlink:href="#DejaVuSerif-20" x="365.673828"/>
       <use xlink:href="#DejaVuSerif-38" x="397.460938"/>
       <use xlink:href="#DejaVuSerif-34" x="461.083984"/>
       <use xlink:href="#DejaVuSerif-34" x="524.707031"/>
       <use xlink:href="#DejaVuSerif-20" x="588.330078"/>
       <use xlink:href="#DejaVuSerif-2d" x="620.117188"/>
       <use xlink:href="#DejaVuSerif-20" x="653.90625"/>
       <use xlink:href="#DejaVuSerif-32" x="685.693359"/>
       <use xlink:href="#DejaVuSerif-33" x="749.316406"/>
       <use xlink:href="#DejaVuSerif-30" x="812.939453"/>
       <use xlink:href="#DejaVuSerif-20" x="876.5625"/>
       <use xlink:href="#DejaVuSerif-6b" x="908.349609"/>
       <use xlink:href="#DejaVuSerif-56" x="968.945312"/>
       <use xlink:href="#DejaVuSerif-20" x="1041.162109"/>
       <use xlink:href="#DejaVuSerif-53" x="1072.949219"/>
       <use xlink:href="#DejaVuSerif-75" x="1141.455078"/>
       <use xlink:href="#DejaVuSerif-6c" x="1205.859375"/>
      </g>
     </g>
    </g>
    <g id="xtick_5">
     <g id="line2d_9">
      <path d="M 423.630457 535.68 
L 423.630457 69.12 
" clip-path="url(#pb2bd58e9db)" style="fill: none; stroke: #ffffff; stroke-linecap: round"/>
     </g>
     <g id="line2d_10"/>
     <g id="text_5">
      <!-- North - 821 - 230 kV -->
      <g transform="translate(305.061851 618.909728) rotate(-30) scale(0.13 -0.13)">
       <use xlink:href="#DejaVuSerif-4e"/>
       <use xlink:href="#DejaVuSerif-6f" x="87.5"/>
       <use xlink:href="#DejaVuSerif-72" x="147.705078"/>
       <use xlink:href="#DejaVuSerif-74" x="195.507812"/>
       <use xlink:href="#DejaVuSerif-68" x="235.693359"/>
       <use xlink:href="#DejaVuSerif-20" x="300.097656"/>
       <use xlink:href="#DejaVuSerif-2d" x="331.884766"/>
       <use xlink:href="#DejaVuSerif-20" x="365.673828"/>
       <use xlink:href="#DejaVuSerif-38" x="397.460938"/>
       <use xlink:href="#DejaVuSerif-32" x="461.083984"/>
       <use xlink:href="#DejaVuSerif-31" x="524.707031"/>
       <use xlink:href="#DejaVuSerif-20" x="588.330078"/>
       <use xlink:href="#DejaVuSerif-2d" x="620.117188"/>
       <use xlink:href="#DejaVuSerif-20" x="653.90625"/>
       <use xlink:href="#DejaVuSerif-32" x="685.693359"/>
       <use xlink:href="#DejaVuSerif-33" x="749.316406"/>
       <use xlink:href="#DejaVuSerif-30" x="812.939453"/>
       <use xlink:href="#DejaVuSerif-20" x="876.5625"/>
       <use xlink:href="#DejaVuSerif-6b" x="908.349609"/>
       <use xlink:href="#DejaVuSerif-56" x="968.945312"/>
      </g>
     </g>
    </g>
    <g id="xtick_6">
     <g id="line2d_11">
      <path d="M 481.443101 535.68 
L 481.443101 69.12 
" clip-path="url(#pb2bd58e9db)" style="fill: none; stroke: #ffffff; stroke-linecap: round"/>
     </g>
     <g id="line2d_12"/>
     <g id="text_6">
      <!-- SE-CW - 351 - 500 kV -->
      <g transform="translate(356.527611 622.574103) rotate(-30) scale(0.13 -0.13)">
       <use xlink:href="#DejaVuSerif-53"/>
       <use xlink:href="#DejaVuSerif-45" x="68.505859"/>
       <use xlink:href="#DejaVuSerif-2d" x="143.378906"/>
       <use xlink:href="#DejaVuSerif-43" x="177.167969"/>
       <use xlink:href="#DejaVuSerif-57" x="253.681641"/>
       <use xlink:href="#DejaVuSerif-20" x="356.464844"/>
       <use xlink:href="#DejaVuSerif-2d" x="388.251953"/>
       <use xlink:href="#DejaVuSerif-20" x="422.041016"/>
       <use xlink:href="#DejaVuSerif-33" x="453.828125"/>
       <use xlink:href="#DejaVuSerif-35" x="517.451172"/>
       <use xlink:href="#DejaVuSerif-31" x="581.074219"/>
       <use xlink:href="#DejaVuSerif-20" x="644.697266"/>
       <use xlink:href="#DejaVuSerif-2d" x="676.484375"/>
       <use xlink:href="#DejaVuSerif-20" x="710.273438"/>
       <use xlink:href="#DejaVuSerif-35" x="742.060547"/>
       <use xlink:href="#DejaVuSerif-30" x="805.683594"/>
       <use xlink:href="#DejaVuSerif-30" x="869.306641"/>
       <use xlink:href="#DejaVuSerif-20" x="932.929688"/>
       <use xlink:href="#DejaVuSerif-6b" x="964.716797"/>
       <use xlink:href="#DejaVuSerif-56" x="1025.3125"/>
      </g>
     </g>
    </g>
    <g id="xtick_7">
     <g id="line2d_13">
      <path d="M 539.255745 535.68 
L 539.255745 69.12 
" clip-path="url(#pb2bd58e9db)" style="fill: none; stroke: #ffffff; stroke-linecap: round"/>
     </g>
     <g id="line2d_14"/>
     <g id="text_7">
      <!-- North - 843 - 230 kV Norte -->
      <g transform="translate(383.9111 640.142384) rotate(-30) scale(0.13 -0.13)">
       <use xlink:href="#DejaVuSerif-4e"/>
       <use xlink:href="#DejaVuSerif-6f" x="87.5"/>
       <use xlink:href="#DejaVuSerif-72" x="147.705078"/>
       <use xlink:href="#DejaVuSerif-74" x="195.507812"/>
       <use xlink:href="#DejaVuSerif-68" x="235.693359"/>
       <use xlink:href="#DejaVuSerif-20" x="300.097656"/>
       <use xlink:href="#DejaVuSerif-2d" x="331.884766"/>
       <use xlink:href="#DejaVuSerif-20" x="365.673828"/>
       <use xlink:href="#DejaVuSerif-38" x="397.460938"/>
       <use xlink:href="#DejaVuSerif-34" x="461.083984"/>
       <use xlink:href="#DejaVuSerif-33" x="524.707031"/>
       <use xlink:href="#DejaVuSerif-20" x="588.330078"/>
       <use xlink:href="#DejaVuSerif-2d" x="620.117188"/>
       <use xlink:href="#DejaVuSerif-20" x="653.90625"/>
       <use xlink:href="#DejaVuSerif-32" x="685.693359"/>
       <use xlink:href="#DejaVuSerif-33" x="749.316406"/>
       <use xlink:href="#DejaVuSerif-30" x="812.939453"/>
       <use xlink:href="#DejaVuSerif-20" x="876.5625"/>
       <use xlink:href="#DejaVuSerif-6b" x="908.349609"/>
       <use xlink:href="#DejaVuSerif-56" x="968.945312"/>
       <use xlink:href="#DejaVuSerif-20" x="1041.162109"/>
       <use xlink:href="#DejaVuSerif-4e" x="1072.949219"/>
       <use xlink:href="#DejaVuSerif-6f" x="1160.449219"/>
       <use xlink:href="#DejaVuSerif-72" x="1220.654297"/>
       <use xlink:href="#DejaVuSerif-74" x="1268.457031"/>
       <use xlink:href="#DejaVuSerif-65" x="1308.642578"/>
      </g>
     </g>
    </g>
    <g id="xtick_8">
     <g id="line2d_15">
      <path d="M 597.068389 535.68 
L 597.068389 69.12 
" clip-path="url(#pb2bd58e9db)" style="fill: none; stroke: #ffffff; stroke-linecap: round"/>
     </g>
     <g id="line2d_16"/>
     <g id="text_8">
      <!-- SE-CW - 471 - 500 kV -->
      <g transform="translate(472.1529 622.574103) rotate(-30) scale(0.13 -0.13)">
       <defs>
        <path id="DejaVuSerif-37" d="M 3609 4347 
L 1784 0 
L 1319 0 
L 3059 4153 
L 903 4153 
L 903 3578 
L 538 3578 
L 538 4666 
L 3609 4666 
L 3609 4347 
z
" transform="scale(0.015625)"/>
       </defs>
       <use xlink:href="#DejaVuSerif-53"/>
       <use xlink:href="#DejaVuSerif-45" x="68.505859"/>
       <use xlink:href="#DejaVuSerif-2d" x="143.378906"/>
       <use xlink:href="#DejaVuSerif-43" x="177.167969"/>
       <use xlink:href="#DejaVuSerif-57" x="253.681641"/>
       <use xlink:href="#DejaVuSerif-20" x="356.464844"/>
       <use xlink:href="#DejaVuSerif-2d" x="388.251953"/>
       <use xlink:href="#DejaVuSerif-20" x="422.041016"/>
       <use xlink:href="#DejaVuSerif-34" x="453.828125"/>
       <use xlink:href="#DejaVuSerif-37" x="517.451172"/>
       <use xlink:href="#DejaVuSerif-31" x="581.074219"/>
       <use xlink:href="#DejaVuSerif-20" x="644.697266"/>
       <use xlink:href="#DejaVuSerif-2d" x="676.484375"/>
       <use xlink:href="#DejaVuSerif-20" x="710.273438"/>
       <use xlink:href="#DejaVuSerif-35" x="742.060547"/>
       <use xlink:href="#DejaVuSerif-30" x="805.683594"/>
       <use xlink:href="#DejaVuSerif-30" x="869.306641"/>
       <use xlink:href="#DejaVuSerif-20" x="932.929688"/>
       <use xlink:href="#DejaVuSerif-6b" x="964.716797"/>
       <use xlink:href="#DejaVuSerif-56" x="1025.3125"/>
      </g>
     </g>
    </g>
    <g id="xtick_9">
     <g id="line2d_17">
      <path d="M 654.881034 535.68 
L 654.881034 69.12 
" clip-path="url(#pb2bd58e9db)" style="fill: none; stroke: #ffffff; stroke-linecap: round"/>
     </g>
     <g id="line2d_18"/>
     <g id="text_9">
      <!-- SE-CW - 472 - 230 kV -->
      <g transform="translate(529.965544 622.574103) rotate(-30) scale(0.13 -0.13)">
       <use xlink:href="#DejaVuSerif-53"/>
       <use xlink:href="#DejaVuSerif-45" x="68.505859"/>
       <use xlink:href="#DejaVuSerif-2d" x="143.378906"/>
       <use xlink:href="#DejaVuSerif-43" x="177.167969"/>
       <use xlink:href="#DejaVuSerif-57" x="253.681641"/>
       <use xlink:href="#DejaVuSerif-20" x="356.464844"/>
       <use xlink:href="#DejaVuSerif-2d" x="388.251953"/>
       <use xlink:href="#DejaVuSerif-20" x="422.041016"/>
       <use xlink:href="#DejaVuSerif-34" x="453.828125"/>
       <use xlink:href="#DejaVuSerif-37" x="517.451172"/>
       <use xlink:href="#DejaVuSerif-32" x="581.074219"/>
       <use xlink:href="#DejaVuSerif-20" x="644.697266"/>
       <use xlink:href="#DejaVuSerif-2d" x="676.484375"/>
       <use xlink:href="#DejaVuSerif-20" x="710.273438"/>
       <use xlink:href="#DejaVuSerif-32" x="742.060547"/>
       <use xlink:href="#DejaVuSerif-33" x="805.683594"/>
       <use xlink:href="#DejaVuSerif-30" x="869.306641"/>
       <use xlink:href="#DejaVuSerif-20" x="932.929688"/>
       <use xlink:href="#DejaVuSerif-6b" x="964.716797"/>
       <use xlink:href="#DejaVuSerif-56" x="1025.3125"/>
      </g>
     </g>
    </g>
    <g id="xtick_10">
     <g id="line2d_19">
      <path d="M 712.693678 535.68 
L 712.693678 69.12 
" clip-path="url(#pb2bd58e9db)" style="fill: none; stroke: #ffffff; stroke-linecap: round"/>
     </g>
     <g id="line2d_20"/>
     <g id="text_10">
      <!-- North - 861 - 500 kV -->
      <g transform="translate(594.125072 618.909728) rotate(-30) scale(0.13 -0.13)">
       <defs>
        <path id="DejaVuSerif-36" d="M 2094 219 
Q 2534 219 2771 542 
Q 3009 866 3009 1472 
Q 3009 2078 2771 2401 
Q 2534 2725 2094 2725 
Q 1647 2725 1412 2412 
Q 1178 2100 1178 1509 
Q 1178 888 1415 553 
Q 1653 219 2094 219 
z
M 1075 2569 
Q 1288 2803 1556 2918 
Q 1825 3034 2163 3034 
Q 2859 3034 3264 2615 
Q 3669 2197 3669 1472 
Q 3669 763 3233 336 
Q 2797 -91 2069 -91 
Q 1278 -91 853 498 
Q 428 1088 428 2181 
Q 428 3406 931 4078 
Q 1434 4750 2350 4750 
Q 2597 4750 2869 4703 
Q 3141 4656 3425 4563 
L 3425 3794 
L 3072 3794 
Q 3034 4109 2831 4275 
Q 2628 4441 2284 4441 
Q 1678 4441 1381 3981 
Q 1084 3522 1075 2569 
z
" transform="scale(0.015625)"/>
       </defs>
       <use xlink:href="#DejaVuSerif-4e"/>
       <use xlink:href="#DejaVuSerif-6f" x="87.5"/>
       <use xlink:href="#DejaVuSerif-72" x="147.705078"/>
       <use xlink:href="#DejaVuSerif-74" x="195.507812"/>
       <use xlink:href="#DejaVuSerif-68" x="235.693359"/>
       <use xlink:href="#DejaVuSerif-20" x="300.097656"/>
       <use xlink:href="#DejaVuSerif-2d" x="331.884766"/>
       <use xlink:href="#DejaVuSerif-20" x="365.673828"/>
       <use xlink:href="#DejaVuSerif-38" x="397.460938"/>
       <use xlink:href="#DejaVuSerif-36" x="461.083984"/>
       <use xlink:href="#DejaVuSerif-31" x="524.707031"/>
       <use xlink:href="#DejaVuSerif-20" x="588.330078"/>
       <use xlink:href="#DejaVuSerif-2d" x="620.117188"/>
       <use xlink:href="#DejaVuSerif-20" x="653.90625"/>
       <use xlink:href="#DejaVuSerif-35" x="685.693359"/>
       <use xlink:href="#DejaVuSerif-30" x="749.316406"/>
       <use xlink:href="#DejaVuSerif-30" x="812.939453"/>
       <use xlink:href="#DejaVuSerif-20" x="876.5625"/>
       <use xlink:href="#DejaVuSerif-6b" x="908.349609"/>
       <use xlink:href="#DejaVuSerif-56" x="968.945312"/>
      </g>
     </g>
    </g>
    <g id="xtick_11">
     <g id="line2d_21">
      <path d="M 770.506322 535.68 
L 770.506322 69.12 
" clip-path="url(#pb2bd58e9db)" style="fill: none; stroke: #ffffff; stroke-linecap: round"/>
     </g>
     <g id="line2d_22"/>
     <g id="text_11">
      <!-- South - 1 - 525 kV -->
      <g transform="translate(666.533086 610.483088) rotate(-30) scale(0.13 -0.13)">
       <use xlink:href="#DejaVuSerif-53"/>
       <use xlink:href="#DejaVuSerif-6f" x="68.505859"/>
       <use xlink:href="#DejaVuSerif-75" x="128.710938"/>
       <use xlink:href="#DejaVuSerif-74" x="193.115234"/>
       <use xlink:href="#DejaVuSerif-68" x="233.300781"/>
       <use xlink:href="#DejaVuSerif-20" x="297.705078"/>
       <use xlink:href="#DejaVuSerif-2d" x="329.492188"/>
       <use xlink:href="#DejaVuSerif-20" x="363.28125"/>
       <use xlink:href="#DejaVuSerif-31" x="395.068359"/>
       <use xlink:href="#DejaVuSerif-20" x="458.691406"/>
       <use xlink:href="#DejaVuSerif-2d" x="490.478516"/>
       <use xlink:href="#DejaVuSerif-20" x="524.267578"/>
       <use xlink:href="#DejaVuSerif-35" x="556.054688"/>
       <use xlink:href="#DejaVuSerif-32" x="619.677734"/>
       <use xlink:href="#DejaVuSerif-35" x="683.300781"/>
       <use xlink:href="#DejaVuSerif-20" x="746.923828"/>
       <use xlink:href="#DejaVuSerif-6b" x="778.710938"/>
       <use xlink:href="#DejaVuSerif-56" x="839.306641"/>
      </g>
     </g>
    </g>
    <g id="xtick_12">
     <g id="line2d_23">
      <path d="M 828.318966 535.68 
L 828.318966 69.12 
" clip-path="url(#pb2bd58e9db)" style="fill: none; stroke: #ffffff; stroke-linecap: round"/>
     </g>
     <g id="line2d_24"/>
     <g id="text_12">
      <!-- Northeast - 772 - 230 kV -->
      <g transform="translate(686.072685 632.580041) rotate(-30) scale(0.13 -0.13)">
       <use xlink:href="#DejaVuSerif-4e"/>
       <use xlink:href="#DejaVuSerif-6f" x="87.5"/>
       <use xlink:href="#DejaVuSerif-72" x="147.705078"/>
       <use xlink:href="#DejaVuSerif-74" x="195.507812"/>
       <use xlink:href="#DejaVuSerif-68" x="235.693359"/>
       <use xlink:href="#DejaVuSerif-65" x="300.097656"/>
       <use xlink:href="#DejaVuSerif-61" x="359.277344"/>
       <use xlink:href="#DejaVuSerif-73" x="418.896484"/>
       <use xlink:href="#DejaVuSerif-74" x="470.214844"/>
       <use xlink:href="#DejaVuSerif-20" x="510.400391"/>
       <use xlink:href="#DejaVuSerif-2d" x="542.1875"/>
       <use xlink:href="#DejaVuSerif-20" x="575.976562"/>
       <use xlink:href="#DejaVuSerif-37" x="607.763672"/>
       <use xlink:href="#DejaVuSerif-37" x="671.386719"/>
       <use xlink:href="#DejaVuSerif-32" x="735.009766"/>
       <use xlink:href="#DejaVuSerif-20" x="798.632812"/>
       <use xlink:href="#DejaVuSerif-2d" x="830.419922"/>
       <use xlink:href="#DejaVuSerif-20" x="864.208984"/>
       <use xlink:href="#DejaVuSerif-32" x="895.996094"/>
       <use xlink:href="#DejaVuSerif-33" x="959.619141"/>
       <use xlink:href="#DejaVuSerif-30" x="1023.242188"/>
       <use xlink:href="#DejaVuSerif-20" x="1086.865234"/>
       <use xlink:href="#DejaVuSerif-6b" x="1118.652344"/>
       <use xlink:href="#DejaVuSerif-56" x="1179.248047"/>
      </g>
     </g>
    </g>
    <g id="xtick_13">
     <g id="line2d_25">
      <path d="M 886.131611 535.68 
L 886.131611 69.12 
" clip-path="url(#pb2bd58e9db)" style="fill: none; stroke: #ffffff; stroke-linecap: round"/>
     </g>
     <g id="line2d_26"/>
     <g id="text_13">
      <!-- SE-CW - 201 - 765 kV SP+PR -->
      <g transform="translate(716.865336 648.180041) rotate(-30) scale(0.13 -0.13)">
       <defs>
        <path id="DejaVuSerif-50" d="M 1581 2375 
L 2406 2375 
Q 2872 2375 3115 2626 
Q 3359 2878 3359 3353 
Q 3359 3831 3115 4081 
Q 2872 4331 2406 4331 
L 1581 4331 
L 1581 2375 
z
M 353 0 
L 353 331 
L 947 331 
L 947 4331 
L 353 4331 
L 353 4666 
L 2559 4666 
Q 3259 4666 3668 4311 
Q 4078 3956 4078 3353 
Q 4078 2753 3668 2397 
Q 3259 2041 2559 2041 
L 1581 2041 
L 1581 331 
L 2303 331 
L 2303 0 
L 353 0 
z
" transform="scale(0.015625)"/>
        <path id="DejaVuSerif-2b" d="M 2931 4013 
L 2931 2259 
L 4684 2259 
L 4684 1753 
L 2931 1753 
L 2931 0 
L 2431 0 
L 2431 1753 
L 678 1753 
L 678 2259 
L 2431 2259 
L 2431 4013 
L 2931 4013 
z
" transform="scale(0.015625)"/>
        <path id="DejaVuSerif-52" d="M 3066 2316 
Q 3284 2256 3442 2114 
Q 3600 1972 3725 1716 
L 4403 331 
L 4972 331 
L 4972 0 
L 3872 0 
L 3144 1484 
Q 2934 1916 2759 2042 
Q 2584 2169 2278 2169 
L 1581 2169 
L 1581 331 
L 2241 331 
L 2241 0 
L 353 0 
L 353 331 
L 947 331 
L 947 4331 
L 353 4331 
L 353 4666 
L 2719 4666 
Q 3400 4666 3770 4341 
Q 4141 4016 4141 3419 
Q 4141 2938 3870 2661 
Q 3600 2384 3066 2316 
z
M 1581 2503 
L 2503 2503 
Q 2975 2503 3200 2726 
Q 3425 2950 3425 3419 
Q 3425 3888 3200 4109 
Q 2975 4331 2503 4331 
L 1581 4331 
L 1581 2503 
z
" transform="scale(0.015625)"/>
       </defs>
       <use xlink:href="#DejaVuSerif-53"/>
       <use xlink:href="#DejaVuSerif-45" x="68.505859"/>
       <use xlink:href="#DejaVuSerif-2d" x="143.378906"/>
       <use xlink:href="#DejaVuSerif-43" x="177.167969"/>
       <use xlink:href="#DejaVuSerif-57" x="253.681641"/>
       <use xlink:href="#DejaVuSerif-20" x="356.464844"/>
       <use xlink:href="#DejaVuSerif-2d" x="388.251953"/>
       <use xlink:href="#DejaVuSerif-20" x="422.041016"/>
       <use xlink:href="#DejaVuSerif-32" x="453.828125"/>
       <use xlink:href="#DejaVuSerif-30" x="517.451172"/>
       <use xlink:href="#DejaVuSerif-31" x="581.074219"/>
       <use xlink:href="#DejaVuSerif-20" x="644.697266"/>
       <use xlink:href="#DejaVuSerif-2d" x="676.484375"/>
       <use xlink:href="#DejaVuSerif-20" x="710.273438"/>
       <use xlink:href="#DejaVuSerif-37" x="742.060547"/>
       <use xlink:href="#DejaVuSerif-36" x="805.683594"/>
       <use xlink:href="#DejaVuSerif-35" x="869.306641"/>
       <use xlink:href="#DejaVuSerif-20" x="932.929688"/>
       <use xlink:href="#DejaVuSerif-6b" x="964.716797"/>
       <use xlink:href="#DejaVuSerif-56" x="1025.3125"/>
       <use xlink:href="#DejaVuSerif-20" x="1097.529297"/>
       <use xlink:href="#DejaVuSerif-53" x="1129.316406"/>
       <use xlink:href="#DejaVuSerif-50" x="1197.822266"/>
       <use xlink:href="#DejaVuSerif-2b" x="1265.107422"/>
       <use xlink:href="#DejaVuSerif-50" x="1348.896484"/>
       <use xlink:href="#DejaVuSerif-52" x="1416.181641"/>
      </g>
     </g>
    </g>
    <g id="xtick_14">
     <g id="line2d_27">
      <path d="M 943.944255 535.68 
L 943.944255 69.12 
" clip-path="url(#pb2bd58e9db)" style="fill: none; stroke: #ffffff; stroke-linecap: round"/>
     </g>
     <g id="line2d_28"/>
     <g id="text_14">
      <!-- South - 102 - 230 kV -->
      <g transform="translate(825.644793 618.754338) rotate(-30) scale(0.13 -0.13)">
       <use xlink:href="#DejaVuSerif-53"/>
       <use xlink:href="#DejaVuSerif-6f" x="68.505859"/>
       <use xlink:href="#DejaVuSerif-75" x="128.710938"/>
       <use xlink:href="#DejaVuSerif-74" x="193.115234"/>
       <use xlink:href="#DejaVuSerif-68" x="233.300781"/>
       <use xlink:href="#DejaVuSerif-20" x="297.705078"/>
       <use xlink:href="#DejaVuSerif-2d" x="329.492188"/>
       <use xlink:href="#DejaVuSerif-20" x="363.28125"/>
       <use xlink:href="#DejaVuSerif-31" x="395.068359"/>
       <use xlink:href="#DejaVuSerif-30" x="458.691406"/>
       <use xlink:href="#DejaVuSerif-32" x="522.314453"/>
       <use xlink:href="#DejaVuSerif-20" x="585.9375"/>
       <use xlink:href="#DejaVuSerif-2d" x="617.724609"/>
       <use xlink:href="#DejaVuSerif-20" x="651.513672"/>
       <use xlink:href="#DejaVuSerif-32" x="683.300781"/>
       <use xlink:href="#DejaVuSerif-33" x="746.923828"/>
       <use xlink:href="#DejaVuSerif-30" x="810.546875"/>
       <use xlink:href="#DejaVuSerif-20" x="874.169922"/>
       <use xlink:href="#DejaVuSerif-6b" x="905.957031"/>
       <use xlink:href="#DejaVuSerif-56" x="966.552734"/>
      </g>
     </g>
    </g>
    <g id="xtick_15">
     <g id="line2d_29">
      <path d="M 1001.756899 535.68 
L 1001.756899 69.12 
" clip-path="url(#pb2bd58e9db)" style="fill: none; stroke: #ffffff; stroke-linecap: round"/>
     </g>
     <g id="line2d_30"/>
     <g id="text_15">
      <!-- North - 866 - Consumidores RB -->
      <g transform="translate(821.124988 654.741994) rotate(-30) scale(0.13 -0.13)">
       <defs>
        <path id="DejaVuSerif-6e" d="M 263 0 
L 263 331 
L 781 331 
L 781 2988 
L 231 2988 
L 231 3322 
L 1356 3322 
L 1356 2731 
Q 1516 3069 1770 3241 
Q 2025 3413 2363 3413 
Q 2913 3413 3172 3097 
Q 3431 2781 3431 2113 
L 3431 331 
L 3944 331 
L 3944 0 
L 2356 0 
L 2356 331 
L 2853 331 
L 2853 1931 
Q 2853 2541 2703 2767 
Q 2553 2994 2175 2994 
Q 1775 2994 1565 2701 
Q 1356 2409 1356 1850 
L 1356 331 
L 1856 331 
L 1856 0 
L 263 0 
z
" transform="scale(0.015625)"/>
        <path id="DejaVuSerif-69" d="M 622 4353 
Q 622 4497 726 4603 
Q 831 4709 978 4709 
Q 1122 4709 1226 4603 
Q 1331 4497 1331 4353 
Q 1331 4206 1228 4103 
Q 1125 4000 978 4000 
Q 831 4000 726 4103 
Q 622 4206 622 4353 
z
M 1356 331 
L 1900 331 
L 1900 0 
L 231 0 
L 231 331 
L 781 331 
L 781 2988 
L 231 2988 
L 231 3322 
L 1356 3322 
L 1356 331 
z
" transform="scale(0.015625)"/>
        <path id="DejaVuSerif-64" d="M 3359 331 
L 3909 331 
L 3909 0 
L 2784 0 
L 2784 519 
Q 2616 206 2355 57 
Q 2094 -91 1709 -91 
Q 1097 -91 708 395 
Q 319 881 319 1663 
Q 319 2444 706 2928 
Q 1094 3413 1709 3413 
Q 2094 3413 2355 3264 
Q 2616 3116 2784 2803 
L 2784 4531 
L 2241 4531 
L 2241 4863 
L 3359 4863 
L 3359 331 
z
M 2784 1497 
L 2784 1825 
Q 2784 2422 2554 2737 
Q 2325 3053 1888 3053 
Q 1444 3053 1217 2703 
Q 991 2353 991 1663 
Q 991 975 1217 622 
Q 1444 269 1888 269 
Q 2325 269 2554 583 
Q 2784 897 2784 1497 
z
" transform="scale(0.015625)"/>
        <path id="DejaVuSerif-42" d="M 1581 331 
L 2516 331 
Q 3078 331 3337 575 
Q 3597 819 3597 1350 
Q 3597 1878 3339 2120 
Q 3081 2363 2516 2363 
L 1581 2363 
L 1581 331 
z
M 1581 2694 
L 2375 2694 
Q 2888 2694 3123 2891 
Q 3359 3088 3359 3513 
Q 3359 3941 3123 4136 
Q 2888 4331 2375 4331 
L 1581 4331 
L 1581 2694 
z
M 353 0 
L 353 331 
L 947 331 
L 947 4331 
L 353 4331 
L 353 4666 
L 2656 4666 
Q 3363 4666 3720 4377 
Q 4078 4088 4078 3513 
Q 4078 3097 3829 2850 
Q 3581 2603 3103 2547 
Q 3697 2472 4005 2167 
Q 4313 1863 4313 1350 
Q 4313 656 3875 328 
Q 3438 0 2509 0 
L 353 0 
z
" transform="scale(0.015625)"/>
       </defs>
       <use xlink:href="#DejaVuSerif-4e"/>
       <use xlink:href="#DejaVuSerif-6f" x="87.5"/>
       <use xlink:href="#DejaVuSerif-72" x="147.705078"/>
       <use xlink:href="#DejaVuSerif-74" x="195.507812"/>
       <use xlink:href="#DejaVuSerif-68" x="235.693359"/>
       <use xlink:href="#DejaVuSerif-20" x="300.097656"/>
       <use xlink:href="#DejaVuSerif-2d" x="331.884766"/>
       <use xlink:href="#DejaVuSerif-20" x="365.673828"/>
       <use xlink:href="#DejaVuSerif-38" x="397.460938"/>
       <use xlink:href="#DejaVuSerif-36" x="461.083984"/>
       <use xlink:href="#DejaVuSerif-36" x="524.707031"/>
       <use xlink:href="#DejaVuSerif-20" x="588.330078"/>
       <use xlink:href="#DejaVuSerif-2d" x="620.117188"/>
       <use xlink:href="#DejaVuSerif-20" x="653.90625"/>
       <use xlink:href="#DejaVuSerif-43" x="685.693359"/>
       <use xlink:href="#DejaVuSerif-6f" x="762.207031"/>
       <use xlink:href="#DejaVuSerif-6e" x="822.412109"/>
       <use xlink:href="#DejaVuSerif-73" x="886.816406"/>
       <use xlink:href="#DejaVuSerif-75" x="938.134766"/>
       <use xlink:href="#DejaVuSerif-6d" x="1002.539062"/>
       <use xlink:href="#DejaVuSerif-69" x="1097.363281"/>
       <use xlink:href="#DejaVuSerif-64" x="1129.345703"/>
       <use xlink:href="#DejaVuSerif-6f" x="1193.359375"/>
       <use xlink:href="#DejaVuSerif-72" x="1253.564453"/>
       <use xlink:href="#DejaVuSerif-65" x="1301.367188"/>
       <use xlink:href="#DejaVuSerif-73" x="1360.546875"/>
       <use xlink:href="#DejaVuSerif-20" x="1411.865234"/>
       <use xlink:href="#DejaVuSerif-52" x="1443.652344"/>
       <use xlink:href="#DejaVuSerif-42" x="1518.945312"/>
      </g>
     </g>
    </g>
    <g id="xtick_16">
     <g id="line2d_31">
      <path d="M 1059.569543 535.68 
L 1059.569543 69.12 
" clip-path="url(#pb2bd58e9db)" style="fill: none; stroke: #ffffff; stroke-linecap: round"/>
     </g>
     <g id="line2d_32"/>
     <g id="text_16">
      <!-- SE-CW - 203 - 440 kV -->
      <g transform="translate(934.654054 622.574103) rotate(-30) scale(0.13 -0.13)">
       <use xlink:href="#DejaVuSerif-53"/>
       <use xlink:href="#DejaVuSerif-45" x="68.505859"/>
       <use xlink:href="#DejaVuSerif-2d" x="143.378906"/>
       <use xlink:href="#DejaVuSerif-43" x="177.167969"/>
       <use xlink:href="#DejaVuSerif-57" x="253.681641"/>
       <use xlink:href="#DejaVuSerif-20" x="356.464844"/>
       <use xlink:href="#DejaVuSerif-2d" x="388.251953"/>
       <use xlink:href="#DejaVuSerif-20" x="422.041016"/>
       <use xlink:href="#DejaVuSerif-32" x="453.828125"/>
       <use xlink:href="#DejaVuSerif-30" x="517.451172"/>
       <use xlink:href="#DejaVuSerif-33" x="581.074219"/>
       <use xlink:href="#DejaVuSerif-20" x="644.697266"/>
       <use xlink:href="#DejaVuSerif-2d" x="676.484375"/>
       <use xlink:href="#DejaVuSerif-20" x="710.273438"/>
       <use xlink:href="#DejaVuSerif-34" x="742.060547"/>
       <use xlink:href="#DejaVuSerif-34" x="805.683594"/>
       <use xlink:href="#DejaVuSerif-30" x="869.306641"/>
       <use xlink:href="#DejaVuSerif-20" x="932.929688"/>
       <use xlink:href="#DejaVuSerif-6b" x="964.716797"/>
       <use xlink:href="#DejaVuSerif-56" x="1025.3125"/>
      </g>
     </g>
    </g>
    <g id="xtick_17">
     <g id="line2d_33">
      <path d="M 1117.382187 535.68 
L 1117.382187 69.12 
" clip-path="url(#pb2bd58e9db)" style="fill: none; stroke: #ffffff; stroke-linecap: round"/>
     </g>
     <g id="line2d_34"/>
     <g id="text_17">
      <!-- SE-CW - 404 - Autoprodutores 230 kV -->
      <g transform="translate(899.256519 676.389025) rotate(-30) scale(0.13 -0.13)">
       <defs>
        <path id="DejaVuSerif-41" d="M 1281 1691 
L 2994 1691 
L 2138 3909 
L 1281 1691 
z
M -38 0 
L -38 331 
L 372 331 
L 2034 4666 
L 2559 4666 
L 4225 331 
L 4684 331 
L 4684 0 
L 2988 0 
L 2988 331 
L 3506 331 
L 3116 1356 
L 1153 1356 
L 763 331 
L 1275 331 
L 1275 0 
L -38 0 
z
" transform="scale(0.015625)"/>
        <path id="DejaVuSerif-70" d="M 1313 1825 
L 1313 1497 
Q 1313 897 1542 583 
Q 1772 269 2209 269 
Q 2650 269 2876 622 
Q 3103 975 3103 1663 
Q 3103 2353 2876 2703 
Q 2650 3053 2209 3053 
Q 1772 3053 1542 2737 
Q 1313 2422 1313 1825 
z
M 738 2988 
L 184 2988 
L 184 3322 
L 1313 3322 
L 1313 2803 
Q 1481 3116 1742 3264 
Q 2003 3413 2388 3413 
Q 3000 3413 3387 2928 
Q 3775 2444 3775 1663 
Q 3775 881 3387 395 
Q 3000 -91 2388 -91 
Q 2003 -91 1742 57 
Q 1481 206 1313 519 
L 1313 -997 
L 1856 -997 
L 1856 -1331 
L 184 -1331 
L 184 -997 
L 738 -997 
L 738 2988 
z
" transform="scale(0.015625)"/>
       </defs>
       <use xlink:href="#DejaVuSerif-53"/>
       <use xlink:href="#DejaVuSerif-45" x="68.505859"/>
       <use xlink:href="#DejaVuSerif-2d" x="143.378906"/>
       <use xlink:href="#DejaVuSerif-43" x="177.167969"/>
       <use xlink:href="#DejaVuSerif-57" x="253.681641"/>
       <use xlink:href="#DejaVuSerif-20" x="356.464844"/>
       <use xlink:href="#DejaVuSerif-2d" x="388.251953"/>
       <use xlink:href="#DejaVuSerif-20" x="422.041016"/>
       <use xlink:href="#DejaVuSerif-34" x="453.828125"/>
       <use xlink:href="#DejaVuSerif-30" x="517.451172"/>
       <use xlink:href="#DejaVuSerif-34" x="581.074219"/>
       <use xlink:href="#DejaVuSerif-20" x="644.697266"/>
       <use xlink:href="#DejaVuSerif-2d" x="676.484375"/>
       <use xlink:href="#DejaVuSerif-20" x="710.273438"/>
       <use xlink:href="#DejaVuSerif-41" x="742.060547"/>
       <use xlink:href="#DejaVuSerif-75" x="814.277344"/>
       <use xlink:href="#DejaVuSerif-74" x="878.681641"/>
       <use xlink:href="#DejaVuSerif-6f" x="918.867188"/>
       <use xlink:href="#DejaVuSerif-70" x="979.072266"/>
       <use xlink:href="#DejaVuSerif-72" x="1043.085938"/>
       <use xlink:href="#DejaVuSerif-6f" x="1090.888672"/>
       <use xlink:href="#DejaVuSerif-64" x="1151.09375"/>
       <use xlink:href="#DejaVuSerif-75" x="1215.107422"/>
       <use xlink:href="#DejaVuSerif-74" x="1279.511719"/>
       <use xlink:href="#DejaVuSerif-6f" x="1319.697266"/>
       <use xlink:href="#DejaVuSerif-72" x="1379.902344"/>
       <use xlink:href="#DejaVuSerif-65" x="1427.705078"/>
       <use xlink:href="#DejaVuSerif-73" x="1486.884766"/>
       <use xlink:href="#DejaVuSerif-20" x="1538.203125"/>
       <use xlink:href="#DejaVuSerif-32" x="1569.990234"/>
       <use xlink:href="#DejaVuSerif-33" x="1633.613281"/>
       <use xlink:href="#DejaVuSerif-30" x="1697.236328"/>
       <use xlink:href="#DejaVuSerif-20" x="1760.859375"/>
       <use xlink:href="#DejaVuSerif-6b" x="1792.646484"/>
       <use xlink:href="#DejaVuSerif-56" x="1853.242188"/>
      </g>
     </g>
    </g>
    <g id="xtick_18">
     <g id="line2d_35">
      <path d="M 1175.194832 535.68 
L 1175.194832 69.12 
" clip-path="url(#pb2bd58e9db)" style="fill: none; stroke: #ffffff; stroke-linecap: round"/>
     </g>
     <g id="line2d_36"/>
     <g id="text_18">
      <!-- SE-CW - 513 - 230 kV -->
      <g transform="translate(1050.279342 622.574103) rotate(-30) scale(0.13 -0.13)">
       <use xlink:href="#DejaVuSerif-53"/>
       <use xlink:href="#DejaVuSerif-45" x="68.505859"/>
       <use xlink:href="#DejaVuSerif-2d" x="143.378906"/>
       <use xlink:href="#DejaVuSerif-43" x="177.167969"/>
       <use xlink:href="#DejaVuSerif-57" x="253.681641"/>
       <use xlink:href="#DejaVuSerif-20" x="356.464844"/>
       <use xlink:href="#DejaVuSerif-2d" x="388.251953"/>
       <use xlink:href="#DejaVuSerif-20" x="422.041016"/>
       <use xlink:href="#DejaVuSerif-35" x="453.828125"/>
       <use xlink:href="#DejaVuSerif-31" x="517.451172"/>
       <use xlink:href="#DejaVuSerif-33" x="581.074219"/>
       <use xlink:href="#DejaVuSerif-20" x="644.697266"/>
       <use xlink:href="#DejaVuSerif-2d" x="676.484375"/>
       <use xlink:href="#DejaVuSerif-20" x="710.273438"/>
       <use xlink:href="#DejaVuSerif-32" x="742.060547"/>
       <use xlink:href="#DejaVuSerif-33" x="805.683594"/>
       <use xlink:href="#DejaVuSerif-30" x="869.306641"/>
       <use xlink:href="#DejaVuSerif-20" x="932.929688"/>
       <use xlink:href="#DejaVuSerif-6b" x="964.716797"/>
       <use xlink:href="#DejaVuSerif-56" x="1025.3125"/>
      </g>
     </g>
    </g>
    <g id="xtick_19">
     <g id="line2d_37">
      <path d="M 1233.007476 535.68 
L 1233.007476 69.12 
" clip-path="url(#pb2bd58e9db)" style="fill: none; stroke: #ffffff; stroke-linecap: round"/>
     </g>
     <g id="line2d_38"/>
     <g id="text_19">
      <!-- South - 52 - 230 kV -->
      <g transform="translate(1121.871127 614.618713) rotate(-30) scale(0.13 -0.13)">
       <use xlink:href="#DejaVuSerif-53"/>
       <use xlink:href="#DejaVuSerif-6f" x="68.505859"/>
       <use xlink:href="#DejaVuSerif-75" x="128.710938"/>
       <use xlink:href="#DejaVuSerif-74" x="193.115234"/>
       <use xlink:href="#DejaVuSerif-68" x="233.300781"/>
       <use xlink:href="#DejaVuSerif-20" x="297.705078"/>
       <use xlink:href="#DejaVuSerif-2d" x="329.492188"/>
       <use xlink:href="#DejaVuSerif-20" x="363.28125"/>
       <use xlink:href="#DejaVuSerif-35" x="395.068359"/>
       <use xlink:href="#DejaVuSerif-32" x="458.691406"/>
       <use xlink:href="#DejaVuSerif-20" x="522.314453"/>
       <use xlink:href="#DejaVuSerif-2d" x="554.101562"/>
       <use xlink:href="#DejaVuSerif-20" x="587.890625"/>
       <use xlink:href="#DejaVuSerif-32" x="619.677734"/>
       <use xlink:href="#DejaVuSerif-33" x="683.300781"/>
       <use xlink:href="#DejaVuSerif-30" x="746.923828"/>
       <use xlink:href="#DejaVuSerif-20" x="810.546875"/>
       <use xlink:href="#DejaVuSerif-6b" x="842.333984"/>
       <use xlink:href="#DejaVuSerif-56" x="902.929688"/>
      </g>
     </g>
    </g>
    <g id="xtick_20">
     <g id="line2d_39">
      <path d="M 1290.82012 535.68 
L 1290.82012 69.12 
" clip-path="url(#pb2bd58e9db)" style="fill: none; stroke: #ffffff; stroke-linecap: round"/>
     </g>
     <g id="line2d_40"/>
     <g id="text_20">
      <!-- South - 51 - 525 kV -->
      <g transform="translate(1179.683771 614.618713) rotate(-30) scale(0.13 -0.13)">
       <use xlink:href="#DejaVuSerif-53"/>
       <use xlink:href="#DejaVuSerif-6f" x="68.505859"/>
       <use xlink:href="#DejaVuSerif-75" x="128.710938"/>
       <use xlink:href="#DejaVuSerif-74" x="193.115234"/>
       <use xlink:href="#DejaVuSerif-68" x="233.300781"/>
       <use xlink:href="#DejaVuSerif-20" x="297.705078"/>
       <use xlink:href="#DejaVuSerif-2d" x="329.492188"/>
       <use xlink:href="#DejaVuSerif-20" x="363.28125"/>
       <use xlink:href="#DejaVuSerif-35" x="395.068359"/>
       <use xlink:href="#DejaVuSerif-31" x="458.691406"/>
       <use xlink:href="#DejaVuSerif-20" x="522.314453"/>
       <use xlink:href="#DejaVuSerif-2d" x="554.101562"/>
       <use xlink:href="#DejaVuSerif-20" x="587.890625"/>
       <use xlink:href="#DejaVuSerif-35" x="619.677734"/>
       <use xlink:href="#DejaVuSerif-32" x="683.300781"/>
       <use xlink:href="#DejaVuSerif-35" x="746.923828"/>
       <use xlink:href="#DejaVuSerif-20" x="810.546875"/>
       <use xlink:href="#DejaVuSerif-6b" x="842.333984"/>
       <use xlink:href="#DejaVuSerif-56" x="902.929688"/>
      </g>
     </g>
    </g>
    <g id="text_21">
     <!-- Control Area -->
     <g transform="translate(686.187969 695.64775) scale(0.17 -0.17)">
      <use xlink:href="#DejaVuSerif-43"/>
      <use xlink:href="#DejaVuSerif-6f" x="76.513672"/>
      <use xlink:href="#DejaVuSerif-6e" x="136.71875"/>
      <use xlink:href="#DejaVuSerif-74" x="201.123047"/>
      <use xlink:href="#DejaVuSerif-72" x="241.308594"/>
      <use xlink:href="#DejaVuSerif-6f" x="289.111328"/>
      <use xlink:href="#DejaVuSerif-6c" x="349.316406"/>
      <use xlink:href="#DejaVuSerif-20" x="381.298828"/>
      <use xlink:href="#DejaVuSerif-41" x="413.085938"/>
      <use xlink:href="#DejaVuSerif-72" x="485.302734"/>
      <use xlink:href="#DejaVuSerif-65" x="533.105469"/>
      <use xlink:href="#DejaVuSerif-61" x="592.285156"/>
     </g>
    </g>
   </g>
   <g id="matplotlib.axis_2">
    <g id="ytick_1">
     <g id="line2d_41">
      <path d="M 115.2 460.329869 
L 1368 460.329869 
" clip-path="url(#pb2bd58e9db)" style="fill: none; stroke: #ffffff; stroke-linecap: round"/>
     </g>
     <g id="line2d_42"/>
     <g id="text_22">
      <!-- 1.0 -->
      <g transform="translate(79.574375 467.168463) scale(0.18 -0.18)">
       <defs>
        <path id="DejaVuSerif-2e" d="M 603 325 
Q 603 500 722 622 
Q 841 744 1019 744 
Q 1191 744 1312 622 
Q 1434 500 1434 325 
Q 1434 153 1312 31 
Q 1191 -91 1019 -91 
Q 841 -91 722 29 
Q 603 150 603 325 
z
" transform="scale(0.015625)"/>
       </defs>
       <use xlink:href="#DejaVuSerif-31"/>
       <use xlink:href="#DejaVuSerif-2e" x="63.623047"/>
       <use xlink:href="#DejaVuSerif-30" x="95.410156"/>
      </g>
     </g>
    </g>
    <g id="ytick_2">
     <g id="line2d_43">
      <path d="M 115.2 365.386361 
L 1368 365.386361 
" clip-path="url(#pb2bd58e9db)" style="fill: none; stroke: #ffffff; stroke-linecap: round"/>
     </g>
     <g id="line2d_44"/>
     <g id="text_23">
      <!-- 1.1 -->
      <g transform="translate(79.574375 372.224955) scale(0.18 -0.18)">
       <use xlink:href="#DejaVuSerif-31"/>
       <use xlink:href="#DejaVuSerif-2e" x="63.623047"/>
       <use xlink:href="#DejaVuSerif-31" x="95.410156"/>
      </g>
     </g>
    </g>
    <g id="ytick_3">
     <g id="line2d_45">
      <path d="M 115.2 270.442854 
L 1368 270.442854 
" clip-path="url(#pb2bd58e9db)" style="fill: none; stroke: #ffffff; stroke-linecap: round"/>
     </g>
     <g id="line2d_46"/>
     <g id="text_24">
      <!-- 1.2 -->
      <g transform="translate(79.574375 277.281448) scale(0.18 -0.18)">
       <use xlink:href="#DejaVuSerif-31"/>
       <use xlink:href="#DejaVuSerif-2e" x="63.623047"/>
       <use xlink:href="#DejaVuSerif-32" x="95.410156"/>
      </g>
     </g>
    </g>
    <g id="ytick_4">
     <g id="line2d_47">
      <path d="M 115.2 175.499346 
L 1368 175.499346 
" clip-path="url(#pb2bd58e9db)" style="fill: none; stroke: #ffffff; stroke-linecap: round"/>
     </g>
     <g id="line2d_48"/>
     <g id="text_25">
      <!-- 1.3 -->
      <g transform="translate(79.574375 182.33794) scale(0.18 -0.18)">
       <use xlink:href="#DejaVuSerif-31"/>
       <use xlink:href="#DejaVuSerif-2e" x="63.623047"/>
       <use xlink:href="#DejaVuSerif-33" x="95.410156"/>
      </g>
     </g>
    </g>
    <g id="ytick_5">
     <g id="line2d_49">
      <path d="M 115.2 80.555839 
L 1368 80.555839 
" clip-path="url(#pb2bd58e9db)" style="fill: none; stroke: #ffffff; stroke-linecap: round"/>
     </g>
     <g id="line2d_50"/>
     <g id="text_26">
      <!-- 1.4 -->
      <g transform="translate(79.574375 87.394433) scale(0.18 -0.18)">
       <use xlink:href="#DejaVuSerif-31"/>
       <use xlink:href="#DejaVuSerif-2e" x="63.623047"/>
       <use xlink:href="#DejaVuSerif-34" x="95.410156"/>
      </g>
     </g>
    </g>
    <g id="text_27">
     <!-- (p.u) -->
     <g transform="translate(72.038906 322.649922) rotate(-90) scale(0.17 -0.17)">
      <defs>
       <path id="DejaVuSerif-28" d="M 2041 -997 
Q 1281 -656 893 83 
Q 506 822 506 1931 
Q 506 3044 893 3783 
Q 1281 4522 2041 4863 
L 2041 4556 
Q 1559 4225 1350 3623 
Q 1141 3022 1141 1931 
Q 1141 844 1350 242 
Q 1559 -359 2041 -691 
L 2041 -997 
z
" transform="scale(0.015625)"/>
       <path id="DejaVuSerif-29" d="M 453 -997 
L 453 -691 
Q 934 -359 1145 242 
Q 1356 844 1356 1931 
Q 1356 3022 1145 3623 
Q 934 4225 453 4556 
L 453 4863 
Q 1216 4522 1603 3783 
Q 1991 3044 1991 1931 
Q 1991 822 1603 83 
Q 1216 -656 453 -997 
z
" transform="scale(0.015625)"/>
      </defs>
      <use xlink:href="#DejaVuSerif-28"/>
      <use xlink:href="#DejaVuSerif-70" x="39.013672"/>
      <use xlink:href="#DejaVuSerif-2e" x="103.027344"/>
      <use xlink:href="#DejaVuSerif-75" x="134.814453"/>
      <use xlink:href="#DejaVuSerif-29" x="199.21875"/>
     </g>
    </g>
   </g>
   <g id="PolyCollection_1">
    <defs>
     <path id="m8e0e4dd874" d="M 192.37988 -298.500813 
L 192.37988 -295.839143 
L 250.192524 -440.768128 
L 308.005168 -155.482822 
L 365.817813 -88.382576 
L 423.630457 -416.111782 
L 481.443101 -234.569095 
L 539.255745 -116.52653 
L 597.068389 -146.89454 
L 654.881034 -261.028554 
L 712.693678 -364.694756 
L 770.506322 -346.101554 
L 828.318966 -236.400654 
L 886.131611 -88.98312 
L 943.944255 -176.339438 
L 1001.756899 -61.527273 
L 1059.569543 -383.25515 
L 1117.382187 -478.700401 
L 1175.194832 -113.576255 
L 1233.007476 -107.310827 
L 1290.82012 -122.404517 
L 1290.82012 -127.966066 
L 1290.82012 -127.966066 
L 1233.007476 -112.288569 
L 1175.194832 -117.221541 
L 1117.382187 -485.672727 
L 1059.569543 -388.593468 
L 1001.756899 -65.063183 
L 943.944255 -181.653188 
L 886.131611 -90.843601 
L 828.318966 -247.20245 
L 770.506322 -353.930821 
L 712.693678 -372.527119 
L 654.881034 -265.963417 
L 597.068389 -150.345372 
L 539.255745 -121.700143 
L 481.443101 -240.213707 
L 423.630457 -420.492381 
L 365.817813 -90.000569 
L 308.005168 -157.589787 
L 250.192524 -446.090261 
L 192.37988 -298.500813 
z
" style="stroke: #0000ff; stroke-opacity: 0.2; stroke-width: 0.5"/>
    </defs>
    <g clip-path="url(#pb2bd58e9db)">
     <use xlink:href="#m8e0e4dd874" x="0" y="576" style="fill: #0000ff; fill-opacity: 0.2; stroke: #0000ff; stroke-opacity: 0.2; stroke-width: 0.5"/>
    </g>
   </g>
   <g id="line2d_51">
    <path d="M 192.37988 278.870486 
L 250.192524 132.543812 
L 308.005168 419.43619 
L 365.817813 486.833313 
L 423.630457 157.741491 
L 481.443101 338.624198 
L 539.255745 456.963619 
L 597.068389 427.508024 
L 654.881034 312.432347 
L 712.693678 207.218081 
L 770.506322 225.860824 
L 828.318966 334.37454 
L 886.131611 486.062009 
L 943.944255 396.93165 
L 1001.756899 512.743502 
L 1059.569543 190.030289 
L 1117.382187 93.687217 
L 1175.194832 460.568779 
L 1233.007476 466.250215 
L 1290.82012 450.88335 
" clip-path="url(#pb2bd58e9db)" style="fill: none; stroke: #0000ff; stroke-width: 2.5; stroke-linecap: round"/>
    <defs>
     <path id="me7db1660cc" d="M 0 6 
C 1.591219 6 3.117479 5.367802 4.242641 4.242641 
C 5.367802 3.117479 6 1.591219 6 0 
C 6 -1.591219 5.367802 -3.117479 4.242641 -4.242641 
C 3.117479 -5.367802 1.591219 -6 0 -6 
C -1.591219 -6 -3.117479 -5.367802 -4.242641 -4.242641 
C -5.367802 -3.117479 -6 -1.591219 -6 0 
C -6 1.591219 -5.367802 3.117479 -4.242641 4.242641 
C -3.117479 5.367802 -1.591219 6 0 6 
z
" style="stroke: #ffffff; stroke-width: 0.75"/>
    </defs>
    <g clip-path="url(#pb2bd58e9db)">
     <use xlink:href="#me7db1660cc" x="192.37988" y="278.870486" style="fill: #0000ff; stroke: #ffffff; stroke-width: 0.75"/>
     <use xlink:href="#me7db1660cc" x="250.192524" y="132.543812" style="fill: #0000ff; stroke: #ffffff; stroke-width: 0.75"/>
     <use xlink:href="#me7db1660cc" x="308.005168" y="419.43619" style="fill: #0000ff; stroke: #ffffff; stroke-width: 0.75"/>
     <use xlink:href="#me7db1660cc" x="365.817813" y="486.833313" style="fill: #0000ff; stroke: #ffffff; stroke-width: 0.75"/>
     <use xlink:href="#me7db1660cc" x="423.630457" y="157.741491" style="fill: #0000ff; stroke: #ffffff; stroke-width: 0.75"/>
     <use xlink:href="#me7db1660cc" x="481.443101" y="338.624198" style="fill: #0000ff; stroke: #ffffff; stroke-width: 0.75"/>
     <use xlink:href="#me7db1660cc" x="539.255745" y="456.963619" style="fill: #0000ff; stroke: #ffffff; stroke-width: 0.75"/>
     <use xlink:href="#me7db1660cc" x="597.068389" y="427.508024" style="fill: #0000ff; stroke: #ffffff; stroke-width: 0.75"/>
     <use xlink:href="#me7db1660cc" x="654.881034" y="312.432347" style="fill: #0000ff; stroke: #ffffff; stroke-width: 0.75"/>
     <use xlink:href="#me7db1660cc" x="712.693678" y="207.218081" style="fill: #0000ff; stroke: #ffffff; stroke-width: 0.75"/>
     <use xlink:href="#me7db1660cc" x="770.506322" y="225.860824" style="fill: #0000ff; stroke: #ffffff; stroke-width: 0.75"/>
     <use xlink:href="#me7db1660cc" x="828.318966" y="334.37454" style="fill: #0000ff; stroke: #ffffff; stroke-width: 0.75"/>
     <use xlink:href="#me7db1660cc" x="886.131611" y="486.062009" style="fill: #0000ff; stroke: #ffffff; stroke-width: 0.75"/>
     <use xlink:href="#me7db1660cc" x="943.944255" y="396.93165" style="fill: #0000ff; stroke: #ffffff; stroke-width: 0.75"/>
     <use xlink:href="#me7db1660cc" x="1001.756899" y="512.743502" style="fill: #0000ff; stroke: #ffffff; stroke-width: 0.75"/>
     <use xlink:href="#me7db1660cc" x="1059.569543" y="190.030289" style="fill: #0000ff; stroke: #ffffff; stroke-width: 0.75"/>
     <use xlink:href="#me7db1660cc" x="1117.382187" y="93.687217" style="fill: #0000ff; stroke: #ffffff; stroke-width: 0.75"/>
     <use xlink:href="#me7db1660cc" x="1175.194832" y="460.568779" style="fill: #0000ff; stroke: #ffffff; stroke-width: 0.75"/>
     <use xlink:href="#me7db1660cc" x="1233.007476" y="466.250215" style="fill: #0000ff; stroke: #ffffff; stroke-width: 0.75"/>
     <use xlink:href="#me7db1660cc" x="1290.82012" y="450.88335" style="fill: #0000ff; stroke: #ffffff; stroke-width: 0.75"/>
    </g>
   </g>
   <g id="line2d_52"/>
   <g id="patch_3">
    <path d="M 115.2 535.68 
L 115.2 69.12 
" style="fill: none; stroke: #000000; stroke-width: 1.2; stroke-linejoin: miter; stroke-linecap: square"/>
   </g>
   <g id="patch_4">
    <path d="M 1368 535.68 
L 1368 69.12 
" style="fill: none; stroke: #000000; stroke-width: 1.2; stroke-linejoin: miter; stroke-linecap: square"/>
   </g>
   <g id="patch_5">
    <path d="M 115.2 535.68 
L 1368 535.68 
" style="fill: none; stroke: #000000; stroke-width: 1.2; stroke-linejoin: miter; stroke-linecap: square"/>
   </g>
   <g id="patch_6">
    <path d="M 115.2 69.12 
L 1368 69.12 
" style="fill: none; stroke: #000000; stroke-width: 1.2; stroke-linejoin: miter; stroke-linecap: square"/>
   </g>
   <g id="text_28">
    <!-- Highest average index for each control area (PV Buses) - North- IndiceInf_s1_PV -->
    <g style="fill: #262626" transform="translate(495.81375 63.12) scale(0.12 -0.12)">
     <defs>
      <path id="DejaVuSerif-48" d="M 353 0 
L 353 331 
L 947 331 
L 947 4331 
L 353 4331 
L 353 4666 
L 2175 4666 
L 2175 4331 
L 1581 4331 
L 1581 2719 
L 4000 2719 
L 4000 4331 
L 3406 4331 
L 3406 4666 
L 5228 4666 
L 5228 4331 
L 4634 4331 
L 4634 331 
L 5228 331 
L 5228 0 
L 3406 0 
L 3406 331 
L 4000 331 
L 4000 2338 
L 1581 2338 
L 1581 331 
L 2175 331 
L 2175 0 
L 353 0 
z
" transform="scale(0.015625)"/>
      <path id="DejaVuSerif-67" d="M 3359 2988 
L 3359 72 
Q 3359 -644 2965 -1033 
Q 2572 -1422 1844 -1422 
Q 1516 -1422 1216 -1362 
Q 916 -1303 641 -1184 
L 641 -488 
L 941 -488 
Q 997 -813 1206 -963 
Q 1416 -1113 1806 -1113 
Q 2313 -1113 2548 -827 
Q 2784 -541 2784 72 
L 2784 519 
Q 2616 206 2355 57 
Q 2094 -91 1709 -91 
Q 1097 -91 708 395 
Q 319 881 319 1663 
Q 319 2444 706 2928 
Q 1094 3413 1709 3413 
Q 2094 3413 2355 3264 
Q 2616 3116 2784 2803 
L 2784 3322 
L 3909 3322 
L 3909 2988 
L 3359 2988 
z
M 2784 1825 
Q 2784 2422 2554 2737 
Q 2325 3053 1888 3053 
Q 1444 3053 1217 2703 
Q 991 2353 991 1663 
Q 991 975 1217 622 
Q 1444 269 1888 269 
Q 2325 269 2554 583 
Q 2784 897 2784 1497 
L 2784 1825 
z
" transform="scale(0.015625)"/>
      <path id="DejaVuSerif-76" d="M 1581 0 
L 359 2988 
L -19 2988 
L -19 3322 
L 1509 3322 
L 1509 2988 
L 978 2988 
L 1913 703 
L 2847 2988 
L 2350 2988 
L 2350 3322 
L 3597 3322 
L 3597 2988 
L 3225 2988 
L 2003 0 
L 1581 0 
z
" transform="scale(0.015625)"/>
      <path id="DejaVuSerif-78" d="M 1863 2028 
L 2559 2988 
L 2113 2988 
L 2113 3322 
L 3391 3322 
L 3391 2988 
L 2950 2988 
L 2059 1759 
L 3097 331 
L 3531 331 
L 3531 0 
L 1997 0 
L 1997 331 
L 2419 331 
L 1697 1325 
L 972 331 
L 1403 331 
L 1403 0 
L 141 0 
L 141 331 
L 581 331 
L 1497 1594 
L 488 2988 
L 78 2988 
L 78 3322 
L 1563 3322 
L 1563 2988 
L 1166 2988 
L 1863 2028 
z
" transform="scale(0.015625)"/>
      <path id="DejaVuSerif-66" d="M 2753 4078 
L 2450 4078 
Q 2447 4313 2317 4434 
Q 2188 4556 1941 4556 
Q 1619 4556 1487 4379 
Q 1356 4203 1356 3750 
L 1356 3322 
L 2284 3322 
L 2284 2988 
L 1356 2988 
L 1356 331 
L 2094 331 
L 2094 0 
L 231 0 
L 231 331 
L 781 331 
L 781 2988 
L 231 2988 
L 231 3322 
L 781 3322 
L 781 3738 
Q 781 4294 1070 4578 
Q 1359 4863 1919 4863 
Q 2128 4863 2337 4825 
Q 2547 4788 2753 4709 
L 2753 4078 
z
" transform="scale(0.015625)"/>
      <path id="DejaVuSerif-63" d="M 3291 997 
Q 3169 466 2822 187 
Q 2475 -91 1925 -91 
Q 1200 -91 759 389 
Q 319 869 319 1663 
Q 319 2459 759 2936 
Q 1200 3413 1925 3413 
Q 2241 3413 2553 3339 
Q 2866 3266 3181 3116 
L 3181 2266 
L 2847 2266 
Q 2781 2703 2561 2903 
Q 2341 3103 1931 3103 
Q 1466 3103 1228 2742 
Q 991 2381 991 1663 
Q 991 944 1227 581 
Q 1463 219 1931 219 
Q 2303 219 2525 412 
Q 2747 606 2828 997 
L 3291 997 
z
" transform="scale(0.015625)"/>
      <path id="DejaVuSerif-49" d="M 1581 331 
L 2175 331 
L 2175 0 
L 353 0 
L 353 331 
L 947 331 
L 947 4331 
L 353 4331 
L 353 4666 
L 2175 4666 
L 2175 4331 
L 1581 4331 
L 1581 331 
z
" transform="scale(0.015625)"/>
      <path id="DejaVuSerif-5f" d="M 3200 -1259 
L 3200 -1509 
L 0 -1509 
L 0 -1259 
L 3200 -1259 
z
" transform="scale(0.015625)"/>
     </defs>
     <use xlink:href="#DejaVuSerif-48"/>
     <use xlink:href="#DejaVuSerif-69" x="87.207031"/>
     <use xlink:href="#DejaVuSerif-67" x="119.189453"/>
     <use xlink:href="#DejaVuSerif-68" x="183.203125"/>
     <use xlink:href="#DejaVuSerif-65" x="247.607422"/>
     <use xlink:href="#DejaVuSerif-73" x="306.787109"/>
     <use xlink:href="#DejaVuSerif-74" x="358.105469"/>
     <use xlink:href="#DejaVuSerif-20" x="398.291016"/>
     <use xlink:href="#DejaVuSerif-61" x="430.078125"/>
     <use xlink:href="#DejaVuSerif-76" x="489.697266"/>
     <use xlink:href="#DejaVuSerif-65" x="546.191406"/>
     <use xlink:href="#DejaVuSerif-72" x="605.371094"/>
     <use xlink:href="#DejaVuSerif-61" x="653.173828"/>
     <use xlink:href="#DejaVuSerif-67" x="712.792969"/>
     <use xlink:href="#DejaVuSerif-65" x="776.806641"/>
     <use xlink:href="#DejaVuSerif-20" x="835.986328"/>
     <use xlink:href="#DejaVuSerif-69" x="867.773438"/>
     <use xlink:href="#DejaVuSerif-6e" x="899.755859"/>
     <use xlink:href="#DejaVuSerif-64" x="964.160156"/>
     <use xlink:href="#DejaVuSerif-65" x="1028.173828"/>
     <use xlink:href="#DejaVuSerif-78" x="1087.353516"/>
     <use xlink:href="#DejaVuSerif-20" x="1143.75"/>
     <use xlink:href="#DejaVuSerif-66" x="1175.537109"/>
     <use xlink:href="#DejaVuSerif-6f" x="1212.548828"/>
     <use xlink:href="#DejaVuSerif-72" x="1272.753906"/>
     <use xlink:href="#DejaVuSerif-20" x="1320.556641"/>
     <use xlink:href="#DejaVuSerif-65" x="1352.34375"/>
     <use xlink:href="#DejaVuSerif-61" x="1411.523438"/>
     <use xlink:href="#DejaVuSerif-63" x="1471.142578"/>
     <use xlink:href="#DejaVuSerif-68" x="1527.148438"/>
     <use xlink:href="#DejaVuSerif-20" x="1591.552734"/>
     <use xlink:href="#DejaVuSerif-63" x="1623.339844"/>
     <use xlink:href="#DejaVuSerif-6f" x="1679.345703"/>
     <use xlink:href="#DejaVuSerif-6e" x="1739.550781"/>
     <use xlink:href="#DejaVuSerif-74" x="1803.955078"/>
     <use xlink:href="#DejaVuSerif-72" x="1844.140625"/>
     <use xlink:href="#DejaVuSerif-6f" x="1891.943359"/>
     <use xlink:href="#DejaVuSerif-6c" x="1952.148438"/>
     <use xlink:href="#DejaVuSerif-20" x="1984.130859"/>
     <use xlink:href="#DejaVuSerif-61" x="2015.917969"/>
     <use xlink:href="#DejaVuSerif-72" x="2075.537109"/>
     <use xlink:href="#DejaVuSerif-65" x="2123.339844"/>
     <use xlink:href="#DejaVuSerif-61" x="2182.519531"/>
     <use xlink:href="#DejaVuSerif-20" x="2242.138672"/>
     <use xlink:href="#DejaVuSerif-28" x="2273.925781"/>
     <use xlink:href="#DejaVuSerif-50" x="2312.939453"/>
     <use xlink:href="#DejaVuSerif-56" x="2380.224609"/>
     <use xlink:href="#DejaVuSerif-20" x="2452.441406"/>
     <use xlink:href="#DejaVuSerif-42" x="2484.228516"/>
     <use xlink:href="#DejaVuSerif-75" x="2557.714844"/>
     <use xlink:href="#DejaVuSerif-73" x="2622.119141"/>
     <use xlink:href="#DejaVuSerif-65" x="2673.4375"/>
     <use xlink:href="#DejaVuSerif-73" x="2732.617188"/>
     <use xlink:href="#DejaVuSerif-29" x="2783.935547"/>
     <use xlink:href="#DejaVuSerif-20" x="2822.949219"/>
     <use xlink:href="#DejaVuSerif-2d" x="2854.736328"/>
     <use xlink:href="#DejaVuSerif-20" x="2888.525391"/>
     <use xlink:href="#DejaVuSerif-4e" x="2920.3125"/>
     <use xlink:href="#DejaVuSerif-6f" x="3007.8125"/>
     <use xlink:href="#DejaVuSerif-72" x="3068.017578"/>
     <use xlink:href="#DejaVuSerif-74" x="3115.820312"/>
     <use xlink:href="#DejaVuSerif-68" x="3156.005859"/>
     <use xlink:href="#DejaVuSerif-2d" x="3220.410156"/>
     <use xlink:href="#DejaVuSerif-20" x="3254.199219"/>
     <use xlink:href="#DejaVuSerif-49" x="3285.986328"/>
     <use xlink:href="#DejaVuSerif-6e" x="3325.488281"/>
     <use xlink:href="#DejaVuSerif-64" x="3389.892578"/>
     <use xlink:href="#DejaVuSerif-69" x="3453.90625"/>
     <use xlink:href="#DejaVuSerif-63" x="3485.888672"/>
     <use xlink:href="#DejaVuSerif-65" x="3541.894531"/>
     <use xlink:href="#DejaVuSerif-49" x="3601.074219"/>
     <use xlink:href="#DejaVuSerif-6e" x="3640.576172"/>
     <use xlink:href="#DejaVuSerif-66" x="3704.980469"/>
     <use xlink:href="#DejaVuSerif-5f" x="3741.992188"/>
     <use xlink:href="#DejaVuSerif-73" x="3791.992188"/>
     <use xlink:href="#DejaVuSerif-31" x="3843.310547"/>
     <use xlink:href="#DejaVuSerif-5f" x="3906.933594"/>
     <use xlink:href="#DejaVuSerif-50" x="3956.933594"/>
     <use xlink:href="#DejaVuSerif-56" x="4024.21875"/>
    </g>
   </g>
   <g id="legend_1">
    <g id="text_29">
     <!-- INDICES -->
     <g style="fill: #262626" transform="translate(1525.620625 90.218437) scale(0.1 -0.1)">
      <defs>
       <path id="DejaVuSerif-44" d="M 1581 331 
L 2163 331 
Q 3072 331 3558 850 
Q 4044 1369 4044 2338 
Q 4044 3306 3559 3818 
Q 3075 4331 2163 4331 
L 1581 4331 
L 1581 331 
z
M 353 0 
L 353 331 
L 947 331 
L 947 4331 
L 353 4331 
L 353 4666 
L 2209 4666 
Q 3416 4666 4089 4050 
Q 4763 3434 4763 2338 
Q 4763 1238 4088 619 
Q 3413 0 2209 0 
L 353 0 
z
" transform="scale(0.015625)"/>
      </defs>
      <use xlink:href="#DejaVuSerif-49"/>
      <use xlink:href="#DejaVuSerif-4e" x="39.501953"/>
      <use xlink:href="#DejaVuSerif-44" x="127.001953"/>
      <use xlink:href="#DejaVuSerif-49" x="207.177734"/>
      <use xlink:href="#DejaVuSerif-43" x="246.679688"/>
      <use xlink:href="#DejaVuSerif-45" x="323.193359"/>
      <use xlink:href="#DejaVuSerif-53" x="396.191406"/>
     </g>
    </g>
    <g id="line2d_53">
     <defs>
      <path id="m94ba933860" d="M 0 6 
C 1.591219 6 3.117479 5.367802 4.242641 4.242641 
C 5.367802 3.117479 6 1.591219 6 0 
C 6 -1.591219 5.367802 -3.117479 4.242641 -4.242641 
C 3.117479 -5.367802 1.591219 -6 0 -6 
C -1.591219 -6 -3.117479 -5.367802 -4.242641 -4.242641 
C -5.367802 -3.117479 -6 -1.591219 -6 0 
C -6 1.591219 -5.367802 3.117479 -4.242641 4.242641 
C -3.117479 5.367802 -1.591219 6 0 6 
z
"/>
     </defs>
     <g>
      <use xlink:href="#m94ba933860" x="1521.78" y="108.198125" style="fill: #0000ff"/>
     </g>
    </g>
    <g id="text_30">
     <!-- $\mathrm{VPI}_{PV}^\mathrm{l}$ -->
     <g style="fill: #262626" transform="translate(1548.78 113.448125) scale(0.15 -0.15)">
      <defs>
       <path id="DejaVuSerif-Italic-50" d="M 1594 2375 
L 2419 2375 
Q 2884 2375 3176 2626 
Q 3469 2878 3559 3353 
Q 3653 3831 3458 4081 
Q 3263 4331 2797 4331 
L 1972 4331 
L 1594 2375 
z
M -97 0 
L -34 331 
L 559 331 
L 1338 4331 
L 744 4331 
L 809 4666 
L 3016 4666 
Q 3716 4666 4056 4311 
Q 4397 3956 4278 3353 
Q 4163 2753 3684 2397 
Q 3206 2041 2506 2041 
L 1528 2041 
L 1194 331 
L 1916 331 
L 1853 0 
L -97 0 
z
" transform="scale(0.015625)"/>
       <path id="DejaVuSerif-Italic-56" d="M 1506 4331 
L 2191 750 
L 4259 4331 
L 3734 4331 
L 3800 4666 
L 5169 4666 
L 5103 4331 
L 4650 4331 
L 2144 0 
L 1606 0 
L 791 4331 
L 325 4331 
L 391 4666 
L 2091 4666 
L 2025 4331 
L 1506 4331 
z
" transform="scale(0.015625)"/>
      </defs>
      <use xlink:href="#DejaVuSerif-56" transform="translate(0 0.229687)"/>
      <use xlink:href="#DejaVuSerif-50" transform="translate(72.216797 0.229687)"/>
      <use xlink:href="#DejaVuSerif-49" transform="translate(139.501953 0.229687)"/>
      <use xlink:href="#DejaVuSerif-6c" transform="translate(179.912266 37.810938) scale(0.7)"/>
      <use xlink:href="#DejaVuSerif-Italic-50" transform="translate(179.912266 -25.723437) scale(0.7)"/>
      <use xlink:href="#DejaVuSerif-Italic-56" transform="translate(227.011875 -25.723437) scale(0.7)"/>
     </g>
    </g>
   </g>
  </g>
  <g id="axes_2">
   <g id="matplotlib.axis_3">
    <g id="ytick_6">
     <g id="line2d_54"/>
     <g id="text_31">
      <!-- 0 -->
      <g transform="translate(1375 542.518594) scale(0.18 -0.18)">
       <use xlink:href="#DejaVuSerif-30"/>
      </g>
     </g>
    </g>
    <g id="ytick_7">
     <g id="line2d_55"/>
     <g id="text_32">
      <!-- 2000 -->
      <g transform="translate(1375 483.890429) scale(0.18 -0.18)">
       <use xlink:href="#DejaVuSerif-32"/>
       <use xlink:href="#DejaVuSerif-30" x="63.623047"/>
       <use xlink:href="#DejaVuSerif-30" x="127.246094"/>
       <use xlink:href="#DejaVuSerif-30" x="190.869141"/>
      </g>
     </g>
    </g>
    <g id="ytick_8">
     <g id="line2d_56"/>
     <g id="text_33">
      <!-- 4000 -->
      <g transform="translate(1375 425.262265) scale(0.18 -0.18)">
       <use xlink:href="#DejaVuSerif-34"/>
       <use xlink:href="#DejaVuSerif-30" x="63.623047"/>
       <use xlink:href="#DejaVuSerif-30" x="127.246094"/>
       <use xlink:href="#DejaVuSerif-30" x="190.869141"/>
      </g>
     </g>
    </g>
    <g id="ytick_9">
     <g id="line2d_57"/>
     <g id="text_34">
      <!-- 6000 -->
      <g transform="translate(1375 366.634101) scale(0.18 -0.18)">
       <use xlink:href="#DejaVuSerif-36"/>
       <use xlink:href="#DejaVuSerif-30" x="63.623047"/>
       <use xlink:href="#DejaVuSerif-30" x="127.246094"/>
       <use xlink:href="#DejaVuSerif-30" x="190.869141"/>
      </g>
     </g>
    </g>
    <g id="ytick_10">
     <g id="line2d_58"/>
     <g id="text_35">
      <!-- 8000 -->
      <g transform="translate(1375 308.005937) scale(0.18 -0.18)">
       <use xlink:href="#DejaVuSerif-38"/>
       <use xlink:href="#DejaVuSerif-30" x="63.623047"/>
       <use xlink:href="#DejaVuSerif-30" x="127.246094"/>
       <use xlink:href="#DejaVuSerif-30" x="190.869141"/>
      </g>
     </g>
    </g>
    <g id="ytick_11">
     <g id="line2d_59"/>
     <g id="text_36">
      <!-- 10000 -->
      <g transform="translate(1375 249.377772) scale(0.18 -0.18)">
       <use xlink:href="#DejaVuSerif-31"/>
       <use xlink:href="#DejaVuSerif-30" x="63.623047"/>
       <use xlink:href="#DejaVuSerif-30" x="127.246094"/>
       <use xlink:href="#DejaVuSerif-30" x="190.869141"/>
       <use xlink:href="#DejaVuSerif-30" x="254.492188"/>
      </g>
     </g>
    </g>
    <g id="ytick_12">
     <g id="line2d_60"/>
     <g id="text_37">
      <!-- 12000 -->
      <g transform="translate(1375 190.749608) scale(0.18 -0.18)">
       <use xlink:href="#DejaVuSerif-31"/>
       <use xlink:href="#DejaVuSerif-32" x="63.623047"/>
       <use xlink:href="#DejaVuSerif-30" x="127.246094"/>
       <use xlink:href="#DejaVuSerif-30" x="190.869141"/>
       <use xlink:href="#DejaVuSerif-30" x="254.492188"/>
      </g>
     </g>
    </g>
    <g id="ytick_13">
     <g id="line2d_61"/>
     <g id="text_38">
      <!-- 14000 -->
      <g transform="translate(1375 132.121444) scale(0.18 -0.18)">
       <use xlink:href="#DejaVuSerif-31"/>
       <use xlink:href="#DejaVuSerif-34" x="63.623047"/>
       <use xlink:href="#DejaVuSerif-30" x="127.246094"/>
       <use xlink:href="#DejaVuSerif-30" x="190.869141"/>
       <use xlink:href="#DejaVuSerif-30" x="254.492188"/>
      </g>
     </g>
    </g>
    <g id="text_39">
     <!-- Count -->
     <g transform="translate(1449.179844 328.386094) rotate(-90) scale(0.17 -0.17)">
      <use xlink:href="#DejaVuSerif-43"/>
      <use xlink:href="#DejaVuSerif-6f" x="76.513672"/>
      <use xlink:href="#DejaVuSerif-75" x="136.71875"/>
      <use xlink:href="#DejaVuSerif-6e" x="201.123047"/>
      <use xlink:href="#DejaVuSerif-74" x="265.527344"/>
     </g>
    </g>
   </g>
   <g id="patch_7">
    <path d="M 172.145455 535.68 
L 212.614305 535.68 
L 212.614305 91.337143 
L 172.145455 91.337143 
z
" clip-path="url(#pb2bd58e9db)" style="fill: #ff0000; opacity: 0.2"/>
   </g>
   <g id="patch_8">
    <path d="M 229.958099 535.68 
L 270.42695 535.68 
L 270.42695 98.050068 
L 229.958099 98.050068 
z
" clip-path="url(#pb2bd58e9db)" style="fill: #ff0000; opacity: 0.2"/>
   </g>
   <g id="patch_9">
    <path d="M 287.770743 535.68 
L 328.239594 535.68 
L 328.239594 108.309996 
L 287.770743 108.309996 
z
" clip-path="url(#pb2bd58e9db)" style="fill: #ff0000; opacity: 0.2"/>
   </g>
   <g id="patch_10">
    <path d="M 345.583387 535.68 
L 386.052238 535.68 
L 386.052238 109.189419 
L 345.583387 109.189419 
z
" clip-path="url(#pb2bd58e9db)" style="fill: #ff0000; opacity: 0.2"/>
   </g>
   <g id="patch_11">
    <path d="M 403.396031 535.68 
L 443.864882 535.68 
L 443.864882 115.990286 
L 403.396031 115.990286 
z
" clip-path="url(#pb2bd58e9db)" style="fill: #ff0000; opacity: 0.2"/>
   </g>
   <g id="patch_12">
    <path d="M 461.208676 535.68 
L 501.677527 535.68 
L 501.677527 167.641699 
L 461.208676 167.641699 
z
" clip-path="url(#pb2bd58e9db)" style="fill: #ff0000; opacity: 0.2"/>
   </g>
   <g id="patch_13">
    <path d="M 519.02132 535.68 
L 559.490171 535.68 
L 559.490171 172.068125 
L 519.02132 172.068125 
z
" clip-path="url(#pb2bd58e9db)" style="fill: #ff0000; opacity: 0.2"/>
   </g>
   <g id="patch_14">
    <path d="M 576.833964 535.68 
L 617.302815 535.68 
L 617.302815 187.809787 
L 576.833964 187.809787 
z
" clip-path="url(#pb2bd58e9db)" style="fill: #ff0000; opacity: 0.2"/>
   </g>
   <g id="patch_15">
    <path d="M 634.646608 535.68 
L 675.115459 535.68 
L 675.115459 202.466828 
L 634.646608 202.466828 
z
" clip-path="url(#pb2bd58e9db)" style="fill: #ff0000; opacity: 0.2"/>
   </g>
   <g id="patch_16">
    <path d="M 692.459252 535.68 
L 732.928103 535.68 
L 732.928103 208.329645 
L 692.459252 208.329645 
z
" clip-path="url(#pb2bd58e9db)" style="fill: #ff0000; opacity: 0.2"/>
   </g>
   <g id="patch_17">
    <path d="M 750.271897 535.68 
L 790.740748 535.68 
L 790.740748 216.62553 
L 750.271897 216.62553 
z
" clip-path="url(#pb2bd58e9db)" style="fill: #ff0000; opacity: 0.2"/>
   </g>
   <g id="patch_18">
    <path d="M 808.084541 535.68 
L 848.553392 535.68 
L 848.553392 229.55304 
L 808.084541 229.55304 
z
" clip-path="url(#pb2bd58e9db)" style="fill: #ff0000; opacity: 0.2"/>
   </g>
   <g id="patch_19">
    <path d="M 865.897185 535.68 
L 906.366036 535.68 
L 906.366036 263.87983 
L 865.897185 263.87983 
z
" clip-path="url(#pb2bd58e9db)" style="fill: #ff0000; opacity: 0.2"/>
   </g>
   <g id="patch_20">
    <path d="M 923.709829 535.68 
L 964.17868 535.68 
L 964.17868 264.143657 
L 923.709829 264.143657 
z
" clip-path="url(#pb2bd58e9db)" style="fill: #ff0000; opacity: 0.2"/>
   </g>
   <g id="patch_21">
    <path d="M 981.522473 535.68 
L 1021.991324 535.68 
L 1021.991324 265.521419 
L 981.522473 265.521419 
z
" clip-path="url(#pb2bd58e9db)" style="fill: #ff0000; opacity: 0.2"/>
   </g>
   <g id="patch_22">
    <path d="M 1039.335118 535.68 
L 1079.803969 535.68 
L 1079.803969 266.928495 
L 1039.335118 266.928495 
z
" clip-path="url(#pb2bd58e9db)" style="fill: #ff0000; opacity: 0.2"/>
   </g>
   <g id="patch_23">
    <path d="M 1097.147762 535.68 
L 1137.616613 535.68 
L 1137.616613 298.06005 
L 1097.147762 298.06005 
z
" clip-path="url(#pb2bd58e9db)" style="fill: #ff0000; opacity: 0.2"/>
   </g>
   <g id="patch_24">
    <path d="M 1154.960406 535.68 
L 1195.429257 535.68 
L 1195.429257 317.436658 
L 1154.960406 317.436658 
z
" clip-path="url(#pb2bd58e9db)" style="fill: #ff0000; opacity: 0.2"/>
   </g>
   <g id="patch_25">
    <path d="M 1212.77305 535.68 
L 1253.241901 535.68 
L 1253.241901 381.018903 
L 1212.77305 381.018903 
z
" clip-path="url(#pb2bd58e9db)" style="fill: #ff0000; opacity: 0.2"/>
   </g>
   <g id="patch_26">
    <path d="M 1270.585695 535.68 
L 1311.054545 535.68 
L 1311.054545 388.347423 
L 1270.585695 388.347423 
z
" clip-path="url(#pb2bd58e9db)" style="fill: #ff0000; opacity: 0.2"/>
   </g>
   <g id="patch_27">
    <path d="M 115.2 535.68 
L 115.2 69.12 
" style="fill: none; stroke: #ffffff; stroke-linejoin: miter; stroke-linecap: square"/>
   </g>
   <g id="patch_28">
    <path d="M 1368 535.68 
L 1368 69.12 
" style="fill: none; stroke: #ffffff; stroke-linejoin: miter; stroke-linecap: square"/>
   </g>
   <g id="patch_29">
    <path d="M 115.2 535.68 
L 1368 535.68 
" style="fill: none; stroke: #ffffff; stroke-linejoin: miter; stroke-linecap: square"/>
   </g>
   <g id="patch_30">
    <path d="M 115.2 69.12 
L 1368 69.12 
" style="fill: none; stroke: #ffffff; stroke-linejoin: miter; stroke-linecap: square"/>
   </g>
   <g id="text_40">
    <!-- 97.01% -->
    <g transform="translate(158.063161 87.593705) scale(0.18 -0.18)">
     <defs>
      <path id="DejaVuSerif-39" d="M 2994 2091 
Q 2784 1856 2512 1740 
Q 2241 1625 1900 1625 
Q 1206 1625 804 2044 
Q 403 2463 403 3188 
Q 403 3897 839 4323 
Q 1275 4750 2003 4750 
Q 2794 4750 3217 4161 
Q 3641 3572 3641 2478 
Q 3641 1253 3137 581 
Q 2634 -91 1722 -91 
Q 1475 -91 1203 -44 
Q 931 3 647 97 
L 647 872 
L 997 872 
Q 1038 556 1241 387 
Q 1444 219 1784 219 
Q 2391 219 2687 676 
Q 2984 1134 2994 2091 
z
M 1978 4441 
Q 1534 4441 1298 4117 
Q 1063 3794 1063 3188 
Q 1063 2581 1298 2256 
Q 1534 1931 1978 1931 
Q 2422 1931 2658 2245 
Q 2894 2559 2894 3150 
Q 2894 3772 2656 4106 
Q 2419 4441 1978 4441 
z
" transform="scale(0.015625)"/>
      <path id="DejaVuSerif-25" d="M 1434 4459 
Q 1159 4459 1004 4200 
Q 850 3941 850 3475 
Q 850 3016 1008 2753 
Q 1166 2491 1434 2491 
Q 1700 2491 1854 2752 
Q 2009 3013 2009 3475 
Q 2009 3938 1854 4198 
Q 1700 4459 1434 4459 
z
M 4653 2169 
Q 4381 2169 4226 1906 
Q 4072 1644 4072 1178 
Q 4072 719 4228 458 
Q 4384 197 4653 197 
Q 4922 197 5075 458 
Q 5228 719 5228 1178 
Q 5228 1641 5073 1905 
Q 4919 2169 4653 2169 
z
M 4653 2450 
Q 5147 2450 5437 2106 
Q 5728 1763 5728 1178 
Q 5728 594 5436 251 
Q 5144 -91 4653 -91 
Q 4153 -91 3862 251 
Q 3572 594 3572 1178 
Q 3572 1766 3864 2108 
Q 4156 2450 4653 2450 
z
M 4263 4750 
L 4738 4750 
L 1819 -91 
L 1344 -91 
L 4263 4750 
z
M 1428 4750 
Q 1922 4750 2215 4408 
Q 2509 4066 2509 3481 
Q 2509 2891 2217 2550 
Q 1925 2209 1428 2209 
Q 931 2209 642 2551 
Q 353 2894 353 3481 
Q 353 4063 643 4406 
Q 934 4750 1428 4750 
z
" transform="scale(0.015625)"/>
     </defs>
     <use xlink:href="#DejaVuSerif-39"/>
     <use xlink:href="#DejaVuSerif-37" x="63.623047"/>
     <use xlink:href="#DejaVuSerif-2e" x="127.246094"/>
     <use xlink:href="#DejaVuSerif-30" x="159.033203"/>
     <use xlink:href="#DejaVuSerif-31" x="222.65625"/>
     <use xlink:href="#DejaVuSerif-25" x="286.279297"/>
    </g>
   </g>
   <g id="text_41">
    <!-- 95.55% -->
    <g transform="translate(215.875805 94.30663) scale(0.18 -0.18)">
     <use xlink:href="#DejaVuSerif-39"/>
     <use xlink:href="#DejaVuSerif-35" x="63.623047"/>
     <use xlink:href="#DejaVuSerif-2e" x="127.246094"/>
     <use xlink:href="#DejaVuSerif-35" x="159.033203"/>
     <use xlink:href="#DejaVuSerif-35" x="222.65625"/>
     <use xlink:href="#DejaVuSerif-25" x="286.279297"/>
    </g>
   </g>
   <g id="text_42">
    <!-- 93.31% -->
    <g transform="translate(273.68845 104.566559) scale(0.18 -0.18)">
     <use xlink:href="#DejaVuSerif-39"/>
     <use xlink:href="#DejaVuSerif-33" x="63.623047"/>
     <use xlink:href="#DejaVuSerif-2e" x="127.246094"/>
     <use xlink:href="#DejaVuSerif-33" x="159.033203"/>
     <use xlink:href="#DejaVuSerif-31" x="222.65625"/>
     <use xlink:href="#DejaVuSerif-25" x="286.279297"/>
    </g>
   </g>
   <g id="text_43">
    <!-- 93.11% -->
    <g transform="translate(331.501094 105.445981) scale(0.18 -0.18)">
     <use xlink:href="#DejaVuSerif-39"/>
     <use xlink:href="#DejaVuSerif-33" x="63.623047"/>
     <use xlink:href="#DejaVuSerif-2e" x="127.246094"/>
     <use xlink:href="#DejaVuSerif-31" x="159.033203"/>
     <use xlink:href="#DejaVuSerif-31" x="222.65625"/>
     <use xlink:href="#DejaVuSerif-25" x="286.279297"/>
    </g>
   </g>
   <g id="text_44">
    <!-- 91.63% -->
    <g transform="translate(389.313738 112.246848) scale(0.18 -0.18)">
     <use xlink:href="#DejaVuSerif-39"/>
     <use xlink:href="#DejaVuSerif-31" x="63.623047"/>
     <use xlink:href="#DejaVuSerif-2e" x="127.246094"/>
     <use xlink:href="#DejaVuSerif-36" x="159.033203"/>
     <use xlink:href="#DejaVuSerif-33" x="222.65625"/>
     <use xlink:href="#DejaVuSerif-25" x="286.279297"/>
    </g>
   </g>
   <g id="text_45">
    <!-- 80.35% -->
    <g transform="translate(447.126382 163.898261) scale(0.18 -0.18)">
     <use xlink:href="#DejaVuSerif-38"/>
     <use xlink:href="#DejaVuSerif-30" x="63.623047"/>
     <use xlink:href="#DejaVuSerif-2e" x="127.246094"/>
     <use xlink:href="#DejaVuSerif-33" x="159.033203"/>
     <use xlink:href="#DejaVuSerif-35" x="222.65625"/>
     <use xlink:href="#DejaVuSerif-25" x="286.279297"/>
    </g>
   </g>
   <g id="text_46">
    <!-- 79.39% -->
    <g transform="translate(504.939027 168.324688) scale(0.18 -0.18)">
     <use xlink:href="#DejaVuSerif-37"/>
     <use xlink:href="#DejaVuSerif-39" x="63.623047"/>
     <use xlink:href="#DejaVuSerif-2e" x="127.246094"/>
     <use xlink:href="#DejaVuSerif-33" x="159.033203"/>
     <use xlink:href="#DejaVuSerif-39" x="222.65625"/>
     <use xlink:href="#DejaVuSerif-25" x="286.279297"/>
    </g>
   </g>
   <g id="text_47">
    <!-- 75.95% -->
    <g transform="translate(562.751671 184.06635) scale(0.18 -0.18)">
     <use xlink:href="#DejaVuSerif-37"/>
     <use xlink:href="#DejaVuSerif-35" x="63.623047"/>
     <use xlink:href="#DejaVuSerif-2e" x="127.246094"/>
     <use xlink:href="#DejaVuSerif-39" x="159.033203"/>
     <use xlink:href="#DejaVuSerif-35" x="222.65625"/>
     <use xlink:href="#DejaVuSerif-25" x="286.279297"/>
    </g>
   </g>
   <g id="text_48">
    <!-- 72.75% -->
    <g transform="translate(620.564315 198.723391) scale(0.18 -0.18)">
     <use xlink:href="#DejaVuSerif-37"/>
     <use xlink:href="#DejaVuSerif-32" x="63.623047"/>
     <use xlink:href="#DejaVuSerif-2e" x="127.246094"/>
     <use xlink:href="#DejaVuSerif-37" x="159.033203"/>
     <use xlink:href="#DejaVuSerif-35" x="222.65625"/>
     <use xlink:href="#DejaVuSerif-25" x="286.279297"/>
    </g>
   </g>
   <g id="text_49">
    <!-- 71.47% -->
    <g transform="translate(678.376959 204.586207) scale(0.18 -0.18)">
     <use xlink:href="#DejaVuSerif-37"/>
     <use xlink:href="#DejaVuSerif-31" x="63.623047"/>
     <use xlink:href="#DejaVuSerif-2e" x="127.246094"/>
     <use xlink:href="#DejaVuSerif-34" x="159.033203"/>
     <use xlink:href="#DejaVuSerif-37" x="222.65625"/>
     <use xlink:href="#DejaVuSerif-25" x="286.279297"/>
    </g>
   </g>
   <g id="text_50">
    <!-- 69.66% -->
    <g transform="translate(736.189603 212.882092) scale(0.18 -0.18)">
     <use xlink:href="#DejaVuSerif-36"/>
     <use xlink:href="#DejaVuSerif-39" x="63.623047"/>
     <use xlink:href="#DejaVuSerif-2e" x="127.246094"/>
     <use xlink:href="#DejaVuSerif-36" x="159.033203"/>
     <use xlink:href="#DejaVuSerif-36" x="222.65625"/>
     <use xlink:href="#DejaVuSerif-25" x="286.279297"/>
    </g>
   </g>
   <g id="text_51">
    <!-- 66.84% -->
    <g transform="translate(794.002248 225.809603) scale(0.18 -0.18)">
     <use xlink:href="#DejaVuSerif-36"/>
     <use xlink:href="#DejaVuSerif-36" x="63.623047"/>
     <use xlink:href="#DejaVuSerif-2e" x="127.246094"/>
     <use xlink:href="#DejaVuSerif-38" x="159.033203"/>
     <use xlink:href="#DejaVuSerif-34" x="222.65625"/>
     <use xlink:href="#DejaVuSerif-25" x="286.279297"/>
    </g>
   </g>
   <g id="text_52">
    <!-- 59.34% -->
    <g transform="translate(851.814892 260.136393) scale(0.18 -0.18)">
     <use xlink:href="#DejaVuSerif-35"/>
     <use xlink:href="#DejaVuSerif-39" x="63.623047"/>
     <use xlink:href="#DejaVuSerif-2e" x="127.246094"/>
     <use xlink:href="#DejaVuSerif-33" x="159.033203"/>
     <use xlink:href="#DejaVuSerif-34" x="222.65625"/>
     <use xlink:href="#DejaVuSerif-25" x="286.279297"/>
    </g>
   </g>
   <g id="text_53">
    <!-- 59.28% -->
    <g transform="translate(909.627536 260.40022) scale(0.18 -0.18)">
     <use xlink:href="#DejaVuSerif-35"/>
     <use xlink:href="#DejaVuSerif-39" x="63.623047"/>
     <use xlink:href="#DejaVuSerif-2e" x="127.246094"/>
     <use xlink:href="#DejaVuSerif-32" x="159.033203"/>
     <use xlink:href="#DejaVuSerif-38" x="222.65625"/>
     <use xlink:href="#DejaVuSerif-25" x="286.279297"/>
    </g>
   </g>
   <g id="text_54">
    <!-- 58.98% -->
    <g transform="translate(967.44018 261.777981) scale(0.18 -0.18)">
     <use xlink:href="#DejaVuSerif-35"/>
     <use xlink:href="#DejaVuSerif-38" x="63.623047"/>
     <use xlink:href="#DejaVuSerif-2e" x="127.246094"/>
     <use xlink:href="#DejaVuSerif-39" x="159.033203"/>
     <use xlink:href="#DejaVuSerif-38" x="222.65625"/>
     <use xlink:href="#DejaVuSerif-25" x="286.279297"/>
    </g>
   </g>
   <g id="text_55">
    <!-- 58.68% -->
    <g transform="translate(1025.252824 263.185057) scale(0.18 -0.18)">
     <use xlink:href="#DejaVuSerif-35"/>
     <use xlink:href="#DejaVuSerif-38" x="63.623047"/>
     <use xlink:href="#DejaVuSerif-2e" x="127.246094"/>
     <use xlink:href="#DejaVuSerif-36" x="159.033203"/>
     <use xlink:href="#DejaVuSerif-38" x="222.65625"/>
     <use xlink:href="#DejaVuSerif-25" x="286.279297"/>
    </g>
   </g>
   <g id="text_56">
    <!-- 51.88% -->
    <g transform="translate(1083.065469 294.316613) scale(0.18 -0.18)">
     <use xlink:href="#DejaVuSerif-35"/>
     <use xlink:href="#DejaVuSerif-31" x="63.623047"/>
     <use xlink:href="#DejaVuSerif-2e" x="127.246094"/>
     <use xlink:href="#DejaVuSerif-38" x="159.033203"/>
     <use xlink:href="#DejaVuSerif-38" x="222.65625"/>
     <use xlink:href="#DejaVuSerif-25" x="286.279297"/>
    </g>
   </g>
   <g id="text_57">
    <!-- 47.65% -->
    <g transform="translate(1140.878113 313.693221) scale(0.18 -0.18)">
     <use xlink:href="#DejaVuSerif-34"/>
     <use xlink:href="#DejaVuSerif-37" x="63.623047"/>
     <use xlink:href="#DejaVuSerif-2e" x="127.246094"/>
     <use xlink:href="#DejaVuSerif-36" x="159.033203"/>
     <use xlink:href="#DejaVuSerif-35" x="222.65625"/>
     <use xlink:href="#DejaVuSerif-25" x="286.279297"/>
    </g>
   </g>
   <g id="text_58">
    <!-- 33.77% -->
    <g transform="translate(1198.690757 377.275465) scale(0.18 -0.18)">
     <use xlink:href="#DejaVuSerif-33"/>
     <use xlink:href="#DejaVuSerif-33" x="63.623047"/>
     <use xlink:href="#DejaVuSerif-2e" x="127.246094"/>
     <use xlink:href="#DejaVuSerif-37" x="159.033203"/>
     <use xlink:href="#DejaVuSerif-37" x="222.65625"/>
     <use xlink:href="#DejaVuSerif-25" x="286.279297"/>
    </g>
   </g>
   <g id="text_59">
    <!-- 32.17% -->
    <g transform="translate(1256.503401 384.603986) scale(0.18 -0.18)">
     <use xlink:href="#DejaVuSerif-33"/>
     <use xlink:href="#DejaVuSerif-32" x="63.623047"/>
     <use xlink:href="#DejaVuSerif-2e" x="127.246094"/>
     <use xlink:href="#DejaVuSerif-31" x="159.033203"/>
     <use xlink:href="#DejaVuSerif-37" x="222.65625"/>
     <use xlink:href="#DejaVuSerif-25" x="286.279297"/>
    </g>
   </g>
  </g>
 </g>
 <defs>
  <clipPath id="pb2bd58e9db">
   <rect x="115.2" y="69.12" width="1252.8" height="466.56"/>
  </clipPath>
 </defs>
</svg>
