<?xml version="1.0" encoding="utf-8" standalone="no"?>
<!DOCTYPE svg PUBLIC "-//W3C//DTD SVG 1.1//EN"
  "http://www.w3.org/Graphics/SVG/1.1/DTD/svg11.dtd">
<svg xmlns:xlink="http://www.w3.org/1999/xlink" width="1008pt" height="792pt" viewBox="0 0 1008 792" xmlns="http://www.w3.org/2000/svg" version="1.1">
 <metadata>
  <rdf:RDF xmlns:dc="http://purl.org/dc/elements/1.1/" xmlns:cc="http://creativecommons.org/ns#" xmlns:rdf="http://www.w3.org/1999/02/22-rdf-syntax-ns#">
   <cc:Work>
    <dc:type rdf:resource="http://purl.org/dc/dcmitype/StillImage"/>
    <dc:date>2024-11-04T21:02:19.798964</dc:date>
    <dc:format>image/svg+xml</dc:format>
    <dc:creator>
     <cc:Agent>
      <dc:title>Matplotlib v3.7.2, https://matplotlib.org/</dc:title>
     </cc:Agent>
    </dc:creator>
   </cc:Work>
  </rdf:RDF>
 </metadata>
 <defs>
  <style type="text/css">*{stroke-linejoin: round; stroke-linecap: butt}</style>
 </defs>
 <g id="figure_1">
  <g id="patch_1">
   <path d="M 0 792 
L 1008 792 
L 1008 0 
L 0 0 
z
" style="fill: #ffffff"/>
  </g>
  <g id="axes_1">
   <g id="patch_2">
    <path d="M 87.23729 567.848375 
L 997.2 567.848375 
L 997.2 122.768 
L 87.23729 122.768 
z
" style="fill: #e5e5e5"/>
   </g>
   <g id="matplotlib.axis_1">
    <g id="xtick_1">
     <g id="line2d_1">
      <path d="M 128.599231 567.848375 
L 128.599231 122.768 
" clip-path="url(#paaed4460db)" style="fill: none; stroke: #ffffff; stroke-width: 0.8; stroke-linecap: square"/>
     </g>
     <g id="line2d_2">
      <defs>
       <path id="me2a0a7ef66" d="M 0 0 
L 0 3.5 
" style="stroke: #000000; stroke-width: 0.8"/>
      </defs>
      <g>
       <use xlink:href="#me2a0a7ef66" x="128.599231" y="567.848375" style="stroke: #000000; stroke-width: 0.8"/>
      </g>
     </g>
     <g id="text_1">
      <!-- 6700 - ACAILA-MA500 -->
      <g transform="translate(27.768832 750.647219) rotate(-60) scale(0.17 -0.17)">
       <defs>
        <path id="DejaVuSerif-36" d="M 2094 219 
Q 2534 219 2771 542 
Q 3009 866 3009 1472 
Q 3009 2078 2771 2401 
Q 2534 2725 2094 2725 
Q 1647 2725 1412 2412 
Q 1178 2100 1178 1509 
Q 1178 888 1415 553 
Q 1653 219 2094 219 
z
M 1075 2569 
Q 1288 2803 1556 2918 
Q 1825 3034 2163 3034 
Q 2859 3034 3264 2615 
Q 3669 2197 3669 1472 
Q 3669 763 3233 336 
Q 2797 -91 2069 -91 
Q 1278 -91 853 498 
Q 428 1088 428 2181 
Q 428 3406 931 4078 
Q 1434 4750 2350 4750 
Q 2597 4750 2869 4703 
Q 3141 4656 3425 4563 
L 3425 3794 
L 3072 3794 
Q 3034 4109 2831 4275 
Q 2628 4441 2284 4441 
Q 1678 4441 1381 3981 
Q 1084 3522 1075 2569 
z
" transform="scale(0.015625)"/>
        <path id="DejaVuSerif-37" d="M 3609 4347 
L 1784 0 
L 1319 0 
L 3059 4153 
L 903 4153 
L 903 3578 
L 538 3578 
L 538 4666 
L 3609 4666 
L 3609 4347 
z
" transform="scale(0.015625)"/>
        <path id="DejaVuSerif-30" d="M 2034 219 
Q 2513 219 2750 744 
Q 2988 1269 2988 2328 
Q 2988 3391 2750 3916 
Q 2513 4441 2034 4441 
Q 1556 4441 1318 3916 
Q 1081 3391 1081 2328 
Q 1081 1269 1318 744 
Q 1556 219 2034 219 
z
M 2034 -91 
Q 1275 -91 848 546 
Q 422 1184 422 2328 
Q 422 3475 848 4112 
Q 1275 4750 2034 4750 
Q 2797 4750 3222 4112 
Q 3647 3475 3647 2328 
Q 3647 1184 3222 546 
Q 2797 -91 2034 -91 
z
" transform="scale(0.015625)"/>
        <path id="DejaVuSerif-20" transform="scale(0.015625)"/>
        <path id="DejaVuSerif-2d" d="M 281 1959 
L 1881 1959 
L 1881 1472 
L 281 1472 
L 281 1959 
z
" transform="scale(0.015625)"/>
        <path id="DejaVuSerif-41" d="M 1281 1691 
L 2994 1691 
L 2138 3909 
L 1281 1691 
z
M -38 0 
L -38 331 
L 372 331 
L 2034 4666 
L 2559 4666 
L 4225 331 
L 4684 331 
L 4684 0 
L 2988 0 
L 2988 331 
L 3506 331 
L 3116 1356 
L 1153 1356 
L 763 331 
L 1275 331 
L 1275 0 
L -38 0 
z
" transform="scale(0.015625)"/>
        <path id="DejaVuSerif-43" d="M 4513 1234 
Q 4306 581 3820 245 
Q 3334 -91 2591 -91 
Q 2134 -91 1743 65 
Q 1353 222 1050 525 
Q 700 875 529 1320 
Q 359 1766 359 2328 
Q 359 3416 987 4083 
Q 1616 4750 2644 4750 
Q 3025 4750 3456 4650 
Q 3888 4550 4384 4347 
L 4384 3272 
L 4031 3272 
Q 3916 3859 3567 4137 
Q 3219 4416 2591 4416 
Q 1844 4416 1459 3886 
Q 1075 3356 1075 2328 
Q 1075 1303 1459 773 
Q 1844 244 2591 244 
Q 3113 244 3450 492 
Q 3788 741 3938 1234 
L 4513 1234 
z
" transform="scale(0.015625)"/>
        <path id="DejaVuSerif-49" d="M 1581 331 
L 2175 331 
L 2175 0 
L 353 0 
L 353 331 
L 947 331 
L 947 4331 
L 353 4331 
L 353 4666 
L 2175 4666 
L 2175 4331 
L 1581 4331 
L 1581 331 
z
" transform="scale(0.015625)"/>
        <path id="DejaVuSerif-4c" d="M 353 0 
L 353 331 
L 947 331 
L 947 4331 
L 353 4331 
L 353 4666 
L 2175 4666 
L 2175 4331 
L 1581 4331 
L 1581 384 
L 3713 384 
L 3713 1166 
L 4097 1166 
L 4097 0 
L 353 0 
z
" transform="scale(0.015625)"/>
        <path id="DejaVuSerif-4d" d="M 353 0 
L 353 331 
L 947 331 
L 947 4331 
L 319 4331 
L 319 4666 
L 1678 4666 
L 3316 1344 
L 4953 4666 
L 6228 4666 
L 6228 4331 
L 5606 4331 
L 5606 331 
L 6203 331 
L 6203 0 
L 4378 0 
L 4378 331 
L 4972 331 
L 4972 3938 
L 3372 684 
L 2931 684 
L 1331 3938 
L 1331 331 
L 1925 331 
L 1925 0 
L 353 0 
z
" transform="scale(0.015625)"/>
        <path id="DejaVuSerif-35" d="M 3219 4666 
L 3219 4153 
L 1081 4153 
L 1081 2816 
Q 1244 2928 1461 2984 
Q 1678 3041 1947 3041 
Q 2703 3041 3140 2622 
Q 3578 2203 3578 1478 
Q 3578 738 3136 323 
Q 2694 -91 1894 -91 
Q 1572 -91 1234 -12 
Q 897 66 544 225 
L 544 1131 
L 897 1131 
Q 925 688 1179 453 
Q 1434 219 1894 219 
Q 2388 219 2653 544 
Q 2919 869 2919 1478 
Q 2919 2084 2655 2407 
Q 2391 2731 1894 2731 
Q 1613 2731 1398 2631 
Q 1184 2531 1019 2322 
L 750 2322 
L 750 4666 
L 3219 4666 
z
" transform="scale(0.015625)"/>
       </defs>
       <use xlink:href="#DejaVuSerif-36"/>
       <use xlink:href="#DejaVuSerif-37" x="63.623047"/>
       <use xlink:href="#DejaVuSerif-30" x="127.246094"/>
       <use xlink:href="#DejaVuSerif-30" x="190.869141"/>
       <use xlink:href="#DejaVuSerif-20" x="254.492188"/>
       <use xlink:href="#DejaVuSerif-2d" x="286.279297"/>
       <use xlink:href="#DejaVuSerif-20" x="320.068359"/>
       <use xlink:href="#DejaVuSerif-41" x="351.855469"/>
       <use xlink:href="#DejaVuSerif-43" x="424.072266"/>
       <use xlink:href="#DejaVuSerif-41" x="500.585938"/>
       <use xlink:href="#DejaVuSerif-49" x="572.802734"/>
       <use xlink:href="#DejaVuSerif-4c" x="612.304688"/>
       <use xlink:href="#DejaVuSerif-41" x="678.710938"/>
       <use xlink:href="#DejaVuSerif-2d" x="750.927734"/>
       <use xlink:href="#DejaVuSerif-4d" x="784.716797"/>
       <use xlink:href="#DejaVuSerif-41" x="887.109375"/>
       <use xlink:href="#DejaVuSerif-35" x="959.326172"/>
       <use xlink:href="#DejaVuSerif-30" x="1022.949219"/>
       <use xlink:href="#DejaVuSerif-30" x="1086.572266"/>
      </g>
     </g>
    </g>
    <g id="xtick_2">
     <g id="line2d_3">
      <path d="M 220.514656 567.848375 
L 220.514656 122.768 
" clip-path="url(#paaed4460db)" style="fill: none; stroke: #ffffff; stroke-width: 0.8; stroke-linecap: square"/>
     </g>
     <g id="line2d_4">
      <g>
       <use xlink:href="#me2a0a7ef66" x="220.514656" y="567.848375" style="stroke: #000000; stroke-width: 0.8"/>
      </g>
     </g>
     <g id="text_2">
      <!-- 5590 - IMPERA-MA500 -->
      <g transform="translate(117.08246 755.153663) rotate(-60) scale(0.17 -0.17)">
       <defs>
        <path id="DejaVuSerif-39" d="M 2994 2091 
Q 2784 1856 2512 1740 
Q 2241 1625 1900 1625 
Q 1206 1625 804 2044 
Q 403 2463 403 3188 
Q 403 3897 839 4323 
Q 1275 4750 2003 4750 
Q 2794 4750 3217 4161 
Q 3641 3572 3641 2478 
Q 3641 1253 3137 581 
Q 2634 -91 1722 -91 
Q 1475 -91 1203 -44 
Q 931 3 647 97 
L 647 872 
L 997 872 
Q 1038 556 1241 387 
Q 1444 219 1784 219 
Q 2391 219 2687 676 
Q 2984 1134 2994 2091 
z
M 1978 4441 
Q 1534 4441 1298 4117 
Q 1063 3794 1063 3188 
Q 1063 2581 1298 2256 
Q 1534 1931 1978 1931 
Q 2422 1931 2658 2245 
Q 2894 2559 2894 3150 
Q 2894 3772 2656 4106 
Q 2419 4441 1978 4441 
z
" transform="scale(0.015625)"/>
        <path id="DejaVuSerif-50" d="M 1581 2375 
L 2406 2375 
Q 2872 2375 3115 2626 
Q 3359 2878 3359 3353 
Q 3359 3831 3115 4081 
Q 2872 4331 2406 4331 
L 1581 4331 
L 1581 2375 
z
M 353 0 
L 353 331 
L 947 331 
L 947 4331 
L 353 4331 
L 353 4666 
L 2559 4666 
Q 3259 4666 3668 4311 
Q 4078 3956 4078 3353 
Q 4078 2753 3668 2397 
Q 3259 2041 2559 2041 
L 1581 2041 
L 1581 331 
L 2303 331 
L 2303 0 
L 353 0 
z
" transform="scale(0.015625)"/>
        <path id="DejaVuSerif-45" d="M 353 0 
L 353 331 
L 947 331 
L 947 4331 
L 353 4331 
L 353 4666 
L 4109 4666 
L 4109 3628 
L 3725 3628 
L 3725 4281 
L 1581 4281 
L 1581 2719 
L 3109 2719 
L 3109 3303 
L 3494 3303 
L 3494 1753 
L 3109 1753 
L 3109 2338 
L 1581 2338 
L 1581 384 
L 3775 384 
L 3775 1038 
L 4159 1038 
L 4159 0 
L 353 0 
z
" transform="scale(0.015625)"/>
        <path id="DejaVuSerif-52" d="M 3066 2316 
Q 3284 2256 3442 2114 
Q 3600 1972 3725 1716 
L 4403 331 
L 4972 331 
L 4972 0 
L 3872 0 
L 3144 1484 
Q 2934 1916 2759 2042 
Q 2584 2169 2278 2169 
L 1581 2169 
L 1581 331 
L 2241 331 
L 2241 0 
L 353 0 
L 353 331 
L 947 331 
L 947 4331 
L 353 4331 
L 353 4666 
L 2719 4666 
Q 3400 4666 3770 4341 
Q 4141 4016 4141 3419 
Q 4141 2938 3870 2661 
Q 3600 2384 3066 2316 
z
M 1581 2503 
L 2503 2503 
Q 2975 2503 3200 2726 
Q 3425 2950 3425 3419 
Q 3425 3888 3200 4109 
Q 2975 4331 2503 4331 
L 1581 4331 
L 1581 2503 
z
" transform="scale(0.015625)"/>
       </defs>
       <use xlink:href="#DejaVuSerif-35"/>
       <use xlink:href="#DejaVuSerif-35" x="63.623047"/>
       <use xlink:href="#DejaVuSerif-39" x="127.246094"/>
       <use xlink:href="#DejaVuSerif-30" x="190.869141"/>
       <use xlink:href="#DejaVuSerif-20" x="254.492188"/>
       <use xlink:href="#DejaVuSerif-2d" x="286.279297"/>
       <use xlink:href="#DejaVuSerif-20" x="320.068359"/>
       <use xlink:href="#DejaVuSerif-49" x="351.855469"/>
       <use xlink:href="#DejaVuSerif-4d" x="391.357422"/>
       <use xlink:href="#DejaVuSerif-50" x="493.75"/>
       <use xlink:href="#DejaVuSerif-45" x="561.035156"/>
       <use xlink:href="#DejaVuSerif-52" x="634.033203"/>
       <use xlink:href="#DejaVuSerif-41" x="709.326172"/>
       <use xlink:href="#DejaVuSerif-2d" x="781.542969"/>
       <use xlink:href="#DejaVuSerif-4d" x="815.332031"/>
       <use xlink:href="#DejaVuSerif-41" x="917.724609"/>
       <use xlink:href="#DejaVuSerif-35" x="989.941406"/>
       <use xlink:href="#DejaVuSerif-30" x="1053.564453"/>
       <use xlink:href="#DejaVuSerif-30" x="1117.1875"/>
      </g>
     </g>
    </g>
    <g id="xtick_3">
     <g id="line2d_5">
      <path d="M 312.430082 567.848375 
L 312.430082 122.768 
" clip-path="url(#paaed4460db)" style="fill: none; stroke: #ffffff; stroke-width: 0.8; stroke-linecap: square"/>
     </g>
     <g id="line2d_6">
      <g>
       <use xlink:href="#me2a0a7ef66" x="312.430082" y="567.848375" style="stroke: #000000; stroke-width: 0.8"/>
      </g>
     </g>
     <g id="text_3">
      <!-- 5550 - SLUIS2-MA500 -->
      <g transform="translate(212.76976 748.620584) rotate(-60) scale(0.17 -0.17)">
       <defs>
        <path id="DejaVuSerif-53" d="M 594 225 
L 594 1288 
L 953 1284 
Q 969 753 1261 498 
Q 1553 244 2150 244 
Q 2706 244 2998 464 
Q 3291 684 3291 1106 
Q 3291 1444 3114 1625 
Q 2938 1806 2369 1978 
L 1753 2163 
Q 1084 2366 811 2669 
Q 538 2972 538 3500 
Q 538 4094 959 4422 
Q 1381 4750 2144 4750 
Q 2469 4750 2856 4679 
Q 3244 4609 3681 4475 
L 3681 3481 
L 3328 3481 
Q 3275 3975 2998 4195 
Q 2722 4416 2156 4416 
Q 1663 4416 1405 4214 
Q 1147 4013 1147 3628 
Q 1147 3294 1340 3103 
Q 1534 2913 2163 2725 
L 2741 2553 
Q 3375 2363 3645 2067 
Q 3916 1772 3916 1275 
Q 3916 597 3481 253 
Q 3047 -91 2188 -91 
Q 1803 -91 1404 -12 
Q 1006 66 594 225 
z
" transform="scale(0.015625)"/>
        <path id="DejaVuSerif-55" d="M 897 4331 
L 300 4331 
L 300 4666 
L 2125 4666 
L 2125 4331 
L 1528 4331 
L 1528 1919 
Q 1528 1025 1820 672 
Q 2113 319 2828 319 
Q 3544 319 3836 672 
Q 4128 1025 4128 1919 
L 4128 4331 
L 3531 4331 
L 3531 4666 
L 5106 4666 
L 5106 4331 
L 4513 4331 
L 4513 1856 
Q 4513 791 4103 350 
Q 3694 -91 2713 -91 
Q 1731 -91 1314 353 
Q 897 797 897 1856 
L 897 4331 
z
" transform="scale(0.015625)"/>
        <path id="DejaVuSerif-32" d="M 819 3553 
L 469 3553 
L 469 4384 
Q 803 4563 1142 4656 
Q 1481 4750 1806 4750 
Q 2534 4750 2956 4397 
Q 3378 4044 3378 3438 
Q 3378 2753 2422 1800 
Q 2347 1728 2309 1691 
L 1131 513 
L 3078 513 
L 3078 1088 
L 3444 1088 
L 3444 0 
L 434 0 
L 434 341 
L 1850 1753 
Q 2319 2222 2519 2614 
Q 2719 3006 2719 3438 
Q 2719 3909 2473 4175 
Q 2228 4441 1797 4441 
Q 1350 4441 1106 4219 
Q 863 3997 819 3553 
z
" transform="scale(0.015625)"/>
       </defs>
       <use xlink:href="#DejaVuSerif-35"/>
       <use xlink:href="#DejaVuSerif-35" x="63.623047"/>
       <use xlink:href="#DejaVuSerif-35" x="127.246094"/>
       <use xlink:href="#DejaVuSerif-30" x="190.869141"/>
       <use xlink:href="#DejaVuSerif-20" x="254.492188"/>
       <use xlink:href="#DejaVuSerif-2d" x="286.279297"/>
       <use xlink:href="#DejaVuSerif-20" x="320.068359"/>
       <use xlink:href="#DejaVuSerif-53" x="351.855469"/>
       <use xlink:href="#DejaVuSerif-4c" x="420.361328"/>
       <use xlink:href="#DejaVuSerif-55" x="481.267578"/>
       <use xlink:href="#DejaVuSerif-49" x="565.544922"/>
       <use xlink:href="#DejaVuSerif-53" x="605.046875"/>
       <use xlink:href="#DejaVuSerif-32" x="673.552734"/>
       <use xlink:href="#DejaVuSerif-2d" x="737.175781"/>
       <use xlink:href="#DejaVuSerif-4d" x="770.964844"/>
       <use xlink:href="#DejaVuSerif-41" x="873.357422"/>
       <use xlink:href="#DejaVuSerif-35" x="945.574219"/>
       <use xlink:href="#DejaVuSerif-30" x="1009.197266"/>
       <use xlink:href="#DejaVuSerif-30" x="1072.820312"/>
      </g>
     </g>
    </g>
    <g id="xtick_4">
     <g id="line2d_7">
      <path d="M 404.345507 567.848375 
L 404.345507 122.768 
" clip-path="url(#paaed4460db)" style="fill: none; stroke: #ffffff; stroke-width: 0.8; stroke-linecap: square"/>
     </g>
     <g id="line2d_8">
      <g>
       <use xlink:href="#me2a0a7ef66" x="404.345507" y="567.848375" style="stroke: #000000; stroke-width: 0.8"/>
      </g>
     </g>
     <g id="text_4">
      <!-- 5580 - P.DUTR-MA500 -->
      <g transform="translate(304.68917 748.613683) rotate(-60) scale(0.17 -0.17)">
       <defs>
        <path id="DejaVuSerif-38" d="M 2981 1275 
Q 2981 1775 2732 2051 
Q 2484 2328 2034 2328 
Q 1584 2328 1336 2051 
Q 1088 1775 1088 1275 
Q 1088 772 1336 495 
Q 1584 219 2034 219 
Q 2484 219 2732 495 
Q 2981 772 2981 1275 
z
M 2853 3541 
Q 2853 3966 2637 4203 
Q 2422 4441 2034 4441 
Q 1650 4441 1433 4203 
Q 1216 3966 1216 3541 
Q 1216 3113 1433 2875 
Q 1650 2638 2034 2638 
Q 2422 2638 2637 2875 
Q 2853 3113 2853 3541 
z
M 2516 2484 
Q 3047 2413 3344 2092 
Q 3641 1772 3641 1275 
Q 3641 619 3225 264 
Q 2809 -91 2034 -91 
Q 1263 -91 845 264 
Q 428 619 428 1275 
Q 428 1772 725 2092 
Q 1022 2413 1556 2484 
Q 1084 2569 832 2842 
Q 581 3116 581 3541 
Q 581 4103 968 4426 
Q 1356 4750 2034 4750 
Q 2713 4750 3100 4426 
Q 3488 4103 3488 3541 
Q 3488 3116 3236 2842 
Q 2984 2569 2516 2484 
z
" transform="scale(0.015625)"/>
        <path id="DejaVuSerif-2e" d="M 603 325 
Q 603 500 722 622 
Q 841 744 1019 744 
Q 1191 744 1312 622 
Q 1434 500 1434 325 
Q 1434 153 1312 31 
Q 1191 -91 1019 -91 
Q 841 -91 722 29 
Q 603 150 603 325 
z
" transform="scale(0.015625)"/>
        <path id="DejaVuSerif-44" d="M 1581 331 
L 2163 331 
Q 3072 331 3558 850 
Q 4044 1369 4044 2338 
Q 4044 3306 3559 3818 
Q 3075 4331 2163 4331 
L 1581 4331 
L 1581 331 
z
M 353 0 
L 353 331 
L 947 331 
L 947 4331 
L 353 4331 
L 353 4666 
L 2209 4666 
Q 3416 4666 4089 4050 
Q 4763 3434 4763 2338 
Q 4763 1238 4088 619 
Q 3413 0 2209 0 
L 353 0 
z
" transform="scale(0.015625)"/>
        <path id="DejaVuSerif-54" d="M 1222 0 
L 1222 331 
L 1819 331 
L 1819 4294 
L 447 4294 
L 447 3566 
L 63 3566 
L 63 4666 
L 4206 4666 
L 4206 3566 
L 3822 3566 
L 3822 4294 
L 2450 4294 
L 2450 331 
L 3047 331 
L 3047 0 
L 1222 0 
z
" transform="scale(0.015625)"/>
       </defs>
       <use xlink:href="#DejaVuSerif-35"/>
       <use xlink:href="#DejaVuSerif-35" x="63.623047"/>
       <use xlink:href="#DejaVuSerif-38" x="127.246094"/>
       <use xlink:href="#DejaVuSerif-30" x="190.869141"/>
       <use xlink:href="#DejaVuSerif-20" x="254.492188"/>
       <use xlink:href="#DejaVuSerif-2d" x="286.279297"/>
       <use xlink:href="#DejaVuSerif-20" x="320.068359"/>
       <use xlink:href="#DejaVuSerif-50" x="351.855469"/>
       <use xlink:href="#DejaVuSerif-2e" x="398.890625"/>
       <use xlink:href="#DejaVuSerif-44" x="430.677734"/>
       <use xlink:href="#DejaVuSerif-55" x="510.853516"/>
       <use xlink:href="#DejaVuSerif-54" x="595.130859"/>
       <use xlink:href="#DejaVuSerif-52" x="661.830078"/>
       <use xlink:href="#DejaVuSerif-2d" x="737.123047"/>
       <use xlink:href="#DejaVuSerif-4d" x="770.912109"/>
       <use xlink:href="#DejaVuSerif-41" x="873.304688"/>
       <use xlink:href="#DejaVuSerif-35" x="945.521484"/>
       <use xlink:href="#DejaVuSerif-30" x="1009.144531"/>
       <use xlink:href="#DejaVuSerif-30" x="1072.767578"/>
      </g>
     </g>
    </g>
    <g id="xtick_5">
     <g id="line2d_9">
      <path d="M 496.260932 567.848375 
L 496.260932 122.768 
" clip-path="url(#paaed4460db)" style="fill: none; stroke: #ffffff; stroke-width: 0.8; stroke-linecap: square"/>
     </g>
     <g id="line2d_10">
      <g>
       <use xlink:href="#me2a0a7ef66" x="496.260932" y="567.848375" style="stroke: #000000; stroke-width: 0.8"/>
      </g>
     </g>
     <g id="text_5">
      <!-- 5684 - BACAB- -MA500 -->
      <g transform="translate(395.046705 751.312029) rotate(-60) scale(0.17 -0.17)">
       <defs>
        <path id="DejaVuSerif-34" d="M 2234 1581 
L 2234 4063 
L 641 1581 
L 2234 1581 
z
M 3609 0 
L 1484 0 
L 1484 331 
L 2234 331 
L 2234 1247 
L 197 1247 
L 197 1588 
L 2241 4750 
L 2859 4750 
L 2859 1581 
L 3750 1581 
L 3750 1247 
L 2859 1247 
L 2859 331 
L 3609 331 
L 3609 0 
z
" transform="scale(0.015625)"/>
        <path id="DejaVuSerif-42" d="M 1581 331 
L 2516 331 
Q 3078 331 3337 575 
Q 3597 819 3597 1350 
Q 3597 1878 3339 2120 
Q 3081 2363 2516 2363 
L 1581 2363 
L 1581 331 
z
M 1581 2694 
L 2375 2694 
Q 2888 2694 3123 2891 
Q 3359 3088 3359 3513 
Q 3359 3941 3123 4136 
Q 2888 4331 2375 4331 
L 1581 4331 
L 1581 2694 
z
M 353 0 
L 353 331 
L 947 331 
L 947 4331 
L 353 4331 
L 353 4666 
L 2656 4666 
Q 3363 4666 3720 4377 
Q 4078 4088 4078 3513 
Q 4078 3097 3829 2850 
Q 3581 2603 3103 2547 
Q 3697 2472 4005 2167 
Q 4313 1863 4313 1350 
Q 4313 656 3875 328 
Q 3438 0 2509 0 
L 353 0 
z
" transform="scale(0.015625)"/>
       </defs>
       <use xlink:href="#DejaVuSerif-35"/>
       <use xlink:href="#DejaVuSerif-36" x="63.623047"/>
       <use xlink:href="#DejaVuSerif-38" x="127.246094"/>
       <use xlink:href="#DejaVuSerif-34" x="190.869141"/>
       <use xlink:href="#DejaVuSerif-20" x="254.492188"/>
       <use xlink:href="#DejaVuSerif-2d" x="286.279297"/>
       <use xlink:href="#DejaVuSerif-20" x="320.068359"/>
       <use xlink:href="#DejaVuSerif-42" x="351.855469"/>
       <use xlink:href="#DejaVuSerif-41" x="425.341797"/>
       <use xlink:href="#DejaVuSerif-43" x="497.558594"/>
       <use xlink:href="#DejaVuSerif-41" x="574.072266"/>
       <use xlink:href="#DejaVuSerif-42" x="646.289062"/>
       <use xlink:href="#DejaVuSerif-2d" x="721.650391"/>
       <use xlink:href="#DejaVuSerif-2d" x="755.439453"/>
       <use xlink:href="#DejaVuSerif-4d" x="789.228516"/>
       <use xlink:href="#DejaVuSerif-41" x="891.621094"/>
       <use xlink:href="#DejaVuSerif-35" x="963.837891"/>
       <use xlink:href="#DejaVuSerif-30" x="1027.460938"/>
       <use xlink:href="#DejaVuSerif-30" x="1091.083984"/>
      </g>
     </g>
    </g>
    <g id="xtick_6">
     <g id="line2d_11">
      <path d="M 588.176358 567.848375 
L 588.176358 122.768 
" clip-path="url(#paaed4460db)" style="fill: none; stroke: #ffffff; stroke-width: 0.8; stroke-linecap: square"/>
     </g>
     <g id="line2d_12">
      <g>
       <use xlink:href="#me2a0a7ef66" x="588.176358" y="567.848375" style="stroke: #000000; stroke-width: 0.8"/>
      </g>
     </g>
     <g id="text_6">
      <!-- 5594 - ESTREI-MA500 -->
      <g transform="translate(487.607599 750.194044) rotate(-60) scale(0.17 -0.17)">
       <use xlink:href="#DejaVuSerif-35"/>
       <use xlink:href="#DejaVuSerif-35" x="63.623047"/>
       <use xlink:href="#DejaVuSerif-39" x="127.246094"/>
       <use xlink:href="#DejaVuSerif-34" x="190.869141"/>
       <use xlink:href="#DejaVuSerif-20" x="254.492188"/>
       <use xlink:href="#DejaVuSerif-2d" x="286.279297"/>
       <use xlink:href="#DejaVuSerif-20" x="320.068359"/>
       <use xlink:href="#DejaVuSerif-45" x="351.855469"/>
       <use xlink:href="#DejaVuSerif-53" x="424.853516"/>
       <use xlink:href="#DejaVuSerif-54" x="493.359375"/>
       <use xlink:href="#DejaVuSerif-52" x="560.058594"/>
       <use xlink:href="#DejaVuSerif-45" x="635.351562"/>
       <use xlink:href="#DejaVuSerif-49" x="708.349609"/>
       <use xlink:href="#DejaVuSerif-2d" x="747.851562"/>
       <use xlink:href="#DejaVuSerif-4d" x="781.640625"/>
       <use xlink:href="#DejaVuSerif-41" x="884.033203"/>
       <use xlink:href="#DejaVuSerif-35" x="956.25"/>
       <use xlink:href="#DejaVuSerif-30" x="1019.873047"/>
       <use xlink:href="#DejaVuSerif-30" x="1083.496094"/>
      </g>
     </g>
    </g>
    <g id="xtick_7">
     <g id="line2d_13">
      <path d="M 680.091783 567.848375 
L 680.091783 122.768 
" clip-path="url(#paaed4460db)" style="fill: none; stroke: #ffffff; stroke-width: 0.8; stroke-linecap: square"/>
     </g>
     <g id="line2d_14">
      <g>
       <use xlink:href="#me2a0a7ef66" x="680.091783" y="567.848375" style="stroke: #000000; stroke-width: 0.8"/>
      </g>
     </g>
     <g id="text_7">
      <!-- 5645 - SA.LOP-MA500 -->
      <g transform="translate(580.655915 748.23182) rotate(-60) scale(0.17 -0.17)">
       <defs>
        <path id="DejaVuSerif-4f" d="M 2625 244 
Q 3391 244 3781 770 
Q 4172 1297 4172 2328 
Q 4172 3363 3781 3889 
Q 3391 4416 2625 4416 
Q 1856 4416 1465 3889 
Q 1075 3363 1075 2328 
Q 1075 1297 1465 770 
Q 1856 244 2625 244 
z
M 2625 -91 
Q 2150 -91 1751 65 
Q 1353 222 1050 525 
Q 700 875 529 1319 
Q 359 1763 359 2328 
Q 359 2894 529 3339 
Q 700 3784 1050 4134 
Q 1356 4441 1750 4595 
Q 2144 4750 2625 4750 
Q 3641 4750 4266 4084 
Q 4891 3419 4891 2328 
Q 4891 1769 4719 1320 
Q 4547 872 4197 525 
Q 3891 219 3497 64 
Q 3103 -91 2625 -91 
z
" transform="scale(0.015625)"/>
       </defs>
       <use xlink:href="#DejaVuSerif-35"/>
       <use xlink:href="#DejaVuSerif-36" x="63.623047"/>
       <use xlink:href="#DejaVuSerif-34" x="127.246094"/>
       <use xlink:href="#DejaVuSerif-35" x="190.869141"/>
       <use xlink:href="#DejaVuSerif-20" x="254.492188"/>
       <use xlink:href="#DejaVuSerif-2d" x="286.279297"/>
       <use xlink:href="#DejaVuSerif-20" x="320.068359"/>
       <use xlink:href="#DejaVuSerif-53" x="351.855469"/>
       <use xlink:href="#DejaVuSerif-41" x="420.361328"/>
       <use xlink:href="#DejaVuSerif-2e" x="492.578125"/>
       <use xlink:href="#DejaVuSerif-4c" x="524.365234"/>
       <use xlink:href="#DejaVuSerif-4f" x="590.771484"/>
       <use xlink:href="#DejaVuSerif-50" x="672.753906"/>
       <use xlink:href="#DejaVuSerif-2d" x="734.539062"/>
       <use xlink:href="#DejaVuSerif-4d" x="768.328125"/>
       <use xlink:href="#DejaVuSerif-41" x="870.720703"/>
       <use xlink:href="#DejaVuSerif-35" x="942.9375"/>
       <use xlink:href="#DejaVuSerif-30" x="1006.560547"/>
       <use xlink:href="#DejaVuSerif-30" x="1070.183594"/>
      </g>
     </g>
    </g>
    <g id="xtick_8">
     <g id="line2d_15">
      <path d="M 772.007208 567.848375 
L 772.007208 122.768 
" clip-path="url(#paaed4460db)" style="fill: none; stroke: #ffffff; stroke-width: 0.8; stroke-linecap: square"/>
     </g>
     <g id="line2d_16">
      <g>
       <use xlink:href="#me2a0a7ef66" x="772.007208" y="567.848375" style="stroke: #000000; stroke-width: 0.8"/>
      </g>
     </g>
     <g id="text_8">
      <!-- 5649 - PARNAI-MA500 -->
      <g transform="translate(670.682746 751.50296) rotate(-60) scale(0.17 -0.17)">
       <defs>
        <path id="DejaVuSerif-4e" d="M 313 0 
L 313 331 
L 941 331 
L 941 4331 
L 313 4331 
L 313 4666 
L 1509 4666 
L 4306 984 
L 4306 4331 
L 3681 4331 
L 3681 4666 
L 5319 4666 
L 5319 4331 
L 4691 4331 
L 4691 -91 
L 4313 -91 
L 1325 3841 
L 1325 331 
L 1953 331 
L 1953 0 
L 313 0 
z
" transform="scale(0.015625)"/>
       </defs>
       <use xlink:href="#DejaVuSerif-35"/>
       <use xlink:href="#DejaVuSerif-36" x="63.623047"/>
       <use xlink:href="#DejaVuSerif-34" x="127.246094"/>
       <use xlink:href="#DejaVuSerif-39" x="190.869141"/>
       <use xlink:href="#DejaVuSerif-20" x="254.492188"/>
       <use xlink:href="#DejaVuSerif-2d" x="286.279297"/>
       <use xlink:href="#DejaVuSerif-20" x="320.068359"/>
       <use xlink:href="#DejaVuSerif-50" x="351.855469"/>
       <use xlink:href="#DejaVuSerif-41" x="410.015625"/>
       <use xlink:href="#DejaVuSerif-52" x="482.232422"/>
       <use xlink:href="#DejaVuSerif-4e" x="557.525391"/>
       <use xlink:href="#DejaVuSerif-41" x="645.025391"/>
       <use xlink:href="#DejaVuSerif-49" x="717.242188"/>
       <use xlink:href="#DejaVuSerif-2d" x="756.744141"/>
       <use xlink:href="#DejaVuSerif-4d" x="790.533203"/>
       <use xlink:href="#DejaVuSerif-41" x="892.925781"/>
       <use xlink:href="#DejaVuSerif-35" x="965.142578"/>
       <use xlink:href="#DejaVuSerif-30" x="1028.765625"/>
       <use xlink:href="#DejaVuSerif-30" x="1092.388672"/>
      </g>
     </g>
    </g>
    <g id="xtick_9">
     <g id="line2d_17">
      <path d="M 863.922633 567.848375 
L 863.922633 122.768 
" clip-path="url(#paaed4460db)" style="fill: none; stroke: #ffffff; stroke-width: 0.8; stroke-linecap: square"/>
     </g>
     <g id="line2d_18">
      <g>
       <use xlink:href="#me2a0a7ef66" x="863.922633" y="567.848375" style="stroke: #000000; stroke-width: 0.8"/>
      </g>
     </g>
     <g id="text_9">
      <!-- 5688 - SLUIS4-MA500 -->
      <g transform="translate(764.262312 748.620584) rotate(-60) scale(0.17 -0.17)">
       <use xlink:href="#DejaVuSerif-35"/>
       <use xlink:href="#DejaVuSerif-36" x="63.623047"/>
       <use xlink:href="#DejaVuSerif-38" x="127.246094"/>
       <use xlink:href="#DejaVuSerif-38" x="190.869141"/>
       <use xlink:href="#DejaVuSerif-20" x="254.492188"/>
       <use xlink:href="#DejaVuSerif-2d" x="286.279297"/>
       <use xlink:href="#DejaVuSerif-20" x="320.068359"/>
       <use xlink:href="#DejaVuSerif-53" x="351.855469"/>
       <use xlink:href="#DejaVuSerif-4c" x="420.361328"/>
       <use xlink:href="#DejaVuSerif-55" x="481.267578"/>
       <use xlink:href="#DejaVuSerif-49" x="565.544922"/>
       <use xlink:href="#DejaVuSerif-53" x="605.046875"/>
       <use xlink:href="#DejaVuSerif-34" x="673.552734"/>
       <use xlink:href="#DejaVuSerif-2d" x="737.175781"/>
       <use xlink:href="#DejaVuSerif-4d" x="770.964844"/>
       <use xlink:href="#DejaVuSerif-41" x="873.357422"/>
       <use xlink:href="#DejaVuSerif-35" x="945.574219"/>
       <use xlink:href="#DejaVuSerif-30" x="1009.197266"/>
       <use xlink:href="#DejaVuSerif-30" x="1072.820312"/>
      </g>
     </g>
    </g>
    <g id="xtick_10">
     <g id="line2d_19">
      <path d="M 955.838059 567.848375 
L 955.838059 122.768 
" clip-path="url(#paaed4460db)" style="fill: none; stroke: #ffffff; stroke-width: 0.8; stroke-linecap: square"/>
     </g>
     <g id="line2d_20">
      <g>
       <use xlink:href="#me2a0a7ef66" x="955.838059" y="567.848375" style="stroke: #000000; stroke-width: 0.8"/>
      </g>
     </g>
     <g id="text_10">
      <!-- 5695 - PNEVES-MA500 -->
      <g transform="translate(851.093675 757.426439) rotate(-60) scale(0.17 -0.17)">
       <defs>
        <path id="DejaVuSerif-56" d="M 1119 4331 
L 2497 750 
L 3872 4331 
L 3347 4331 
L 3347 4666 
L 4716 4666 
L 4716 4331 
L 4263 4331 
L 2597 0 
L 2059 0 
L 403 4331 
L -63 4331 
L -63 4666 
L 1638 4666 
L 1638 4331 
L 1119 4331 
z
" transform="scale(0.015625)"/>
       </defs>
       <use xlink:href="#DejaVuSerif-35"/>
       <use xlink:href="#DejaVuSerif-36" x="63.623047"/>
       <use xlink:href="#DejaVuSerif-39" x="127.246094"/>
       <use xlink:href="#DejaVuSerif-35" x="190.869141"/>
       <use xlink:href="#DejaVuSerif-20" x="254.492188"/>
       <use xlink:href="#DejaVuSerif-2d" x="286.279297"/>
       <use xlink:href="#DejaVuSerif-20" x="320.068359"/>
       <use xlink:href="#DejaVuSerif-50" x="351.855469"/>
       <use xlink:href="#DejaVuSerif-4e" x="419.140625"/>
       <use xlink:href="#DejaVuSerif-45" x="506.640625"/>
       <use xlink:href="#DejaVuSerif-56" x="579.638672"/>
       <use xlink:href="#DejaVuSerif-45" x="651.855469"/>
       <use xlink:href="#DejaVuSerif-53" x="724.853516"/>
       <use xlink:href="#DejaVuSerif-2d" x="796.984375"/>
       <use xlink:href="#DejaVuSerif-4d" x="830.773438"/>
       <use xlink:href="#DejaVuSerif-41" x="933.166016"/>
       <use xlink:href="#DejaVuSerif-35" x="1005.382812"/>
       <use xlink:href="#DejaVuSerif-30" x="1069.005859"/>
       <use xlink:href="#DejaVuSerif-30" x="1132.628906"/>
      </g>
     </g>
    </g>
    <g id="text_11">
     <!-- Barra -->
     <g transform="translate(514.827473 777.631204) scale(0.19 -0.19)">
      <defs>
       <path id="DejaVuSerif-61" d="M 2547 1044 
L 2547 1747 
L 1806 1747 
Q 1378 1747 1168 1562 
Q 959 1378 959 997 
Q 959 650 1171 447 
Q 1384 244 1747 244 
Q 2106 244 2326 466 
Q 2547 688 2547 1044 
z
M 3122 2075 
L 3122 331 
L 3634 331 
L 3634 0 
L 2547 0 
L 2547 359 
Q 2356 128 2106 18 
Q 1856 -91 1522 -91 
Q 969 -91 644 203 
Q 319 497 319 997 
Q 319 1513 691 1797 
Q 1063 2081 1741 2081 
L 2547 2081 
L 2547 2309 
Q 2547 2688 2317 2895 
Q 2088 3103 1672 3103 
Q 1328 3103 1125 2947 
Q 922 2791 872 2484 
L 575 2484 
L 575 3156 
Q 875 3284 1158 3348 
Q 1441 3413 1709 3413 
Q 2400 3413 2761 3070 
Q 3122 2728 3122 2075 
z
" transform="scale(0.015625)"/>
       <path id="DejaVuSerif-72" d="M 3059 3328 
L 3059 2497 
L 2728 2497 
Q 2713 2744 2591 2866 
Q 2469 2988 2234 2988 
Q 1809 2988 1582 2694 
Q 1356 2400 1356 1850 
L 1356 331 
L 2022 331 
L 2022 0 
L 263 0 
L 263 331 
L 781 331 
L 781 2994 
L 231 2994 
L 231 3322 
L 1356 3322 
L 1356 2731 
Q 1525 3078 1790 3245 
Q 2056 3413 2438 3413 
Q 2578 3413 2733 3391 
Q 2888 3369 3059 3328 
z
" transform="scale(0.015625)"/>
      </defs>
      <use xlink:href="#DejaVuSerif-42"/>
      <use xlink:href="#DejaVuSerif-61" x="73.486328"/>
      <use xlink:href="#DejaVuSerif-72" x="133.105469"/>
      <use xlink:href="#DejaVuSerif-72" x="180.908203"/>
      <use xlink:href="#DejaVuSerif-61" x="228.710938"/>
     </g>
    </g>
   </g>
   <g id="matplotlib.axis_2">
    <g id="ytick_1">
     <g id="line2d_21">
      <path d="M 87.23729 550.04516 
L 997.2 550.04516 
" clip-path="url(#paaed4460db)" style="fill: none; stroke: #ffffff; stroke-width: 0.8; stroke-linecap: square"/>
     </g>
     <g id="line2d_22">
      <defs>
       <path id="m9efbfceb51" d="M 0 0 
L -3.5 0 
" style="stroke: #000000; stroke-width: 0.8"/>
      </defs>
      <g>
       <use xlink:href="#m9efbfceb51" x="87.23729" y="550.04516" style="stroke: #000000; stroke-width: 0.8"/>
      </g>
     </g>
     <g id="text_12">
      <!-- 0.0 -->
      <g transform="translate(45.250415 558.403441) scale(0.22 -0.22)">
       <use xlink:href="#DejaVuSerif-30"/>
       <use xlink:href="#DejaVuSerif-2e" x="63.623047"/>
       <use xlink:href="#DejaVuSerif-30" x="95.410156"/>
      </g>
     </g>
    </g>
    <g id="ytick_2">
     <g id="line2d_23">
      <path d="M 87.23729 478.8323 
L 997.2 478.8323 
" clip-path="url(#paaed4460db)" style="fill: none; stroke: #ffffff; stroke-width: 0.8; stroke-linecap: square"/>
     </g>
     <g id="line2d_24">
      <g>
       <use xlink:href="#m9efbfceb51" x="87.23729" y="478.8323" style="stroke: #000000; stroke-width: 0.8"/>
      </g>
     </g>
     <g id="text_13">
      <!-- 0.2 -->
      <g transform="translate(45.250415 487.190581) scale(0.22 -0.22)">
       <use xlink:href="#DejaVuSerif-30"/>
       <use xlink:href="#DejaVuSerif-2e" x="63.623047"/>
       <use xlink:href="#DejaVuSerif-32" x="95.410156"/>
      </g>
     </g>
    </g>
    <g id="ytick_3">
     <g id="line2d_25">
      <path d="M 87.23729 407.61944 
L 997.2 407.61944 
" clip-path="url(#paaed4460db)" style="fill: none; stroke: #ffffff; stroke-width: 0.8; stroke-linecap: square"/>
     </g>
     <g id="line2d_26">
      <g>
       <use xlink:href="#m9efbfceb51" x="87.23729" y="407.61944" style="stroke: #000000; stroke-width: 0.8"/>
      </g>
     </g>
     <g id="text_14">
      <!-- 0.4 -->
      <g transform="translate(45.250415 415.977721) scale(0.22 -0.22)">
       <use xlink:href="#DejaVuSerif-30"/>
       <use xlink:href="#DejaVuSerif-2e" x="63.623047"/>
       <use xlink:href="#DejaVuSerif-34" x="95.410156"/>
      </g>
     </g>
    </g>
    <g id="ytick_4">
     <g id="line2d_27">
      <path d="M 87.23729 336.40658 
L 997.2 336.40658 
" clip-path="url(#paaed4460db)" style="fill: none; stroke: #ffffff; stroke-width: 0.8; stroke-linecap: square"/>
     </g>
     <g id="line2d_28">
      <g>
       <use xlink:href="#m9efbfceb51" x="87.23729" y="336.40658" style="stroke: #000000; stroke-width: 0.8"/>
      </g>
     </g>
     <g id="text_15">
      <!-- 0.6 -->
      <g transform="translate(45.250415 344.764861) scale(0.22 -0.22)">
       <use xlink:href="#DejaVuSerif-30"/>
       <use xlink:href="#DejaVuSerif-2e" x="63.623047"/>
       <use xlink:href="#DejaVuSerif-36" x="95.410156"/>
      </g>
     </g>
    </g>
    <g id="ytick_5">
     <g id="line2d_29">
      <path d="M 87.23729 265.19372 
L 997.2 265.19372 
" clip-path="url(#paaed4460db)" style="fill: none; stroke: #ffffff; stroke-width: 0.8; stroke-linecap: square"/>
     </g>
     <g id="line2d_30">
      <g>
       <use xlink:href="#m9efbfceb51" x="87.23729" y="265.19372" style="stroke: #000000; stroke-width: 0.8"/>
      </g>
     </g>
     <g id="text_16">
      <!-- 0.8 -->
      <g transform="translate(45.250415 273.552001) scale(0.22 -0.22)">
       <use xlink:href="#DejaVuSerif-30"/>
       <use xlink:href="#DejaVuSerif-2e" x="63.623047"/>
       <use xlink:href="#DejaVuSerif-38" x="95.410156"/>
      </g>
     </g>
    </g>
    <g id="ytick_6">
     <g id="line2d_31">
      <path d="M 87.23729 193.98086 
L 997.2 193.98086 
" clip-path="url(#paaed4460db)" style="fill: none; stroke: #ffffff; stroke-width: 0.8; stroke-linecap: square"/>
     </g>
     <g id="line2d_32">
      <g>
       <use xlink:href="#m9efbfceb51" x="87.23729" y="193.98086" style="stroke: #000000; stroke-width: 0.8"/>
      </g>
     </g>
     <g id="text_17">
      <!-- 1.0 -->
      <g transform="translate(45.250415 202.339141) scale(0.22 -0.22)">
       <defs>
        <path id="DejaVuSerif-31" d="M 909 0 
L 909 331 
L 1722 331 
L 1722 4213 
L 781 3603 
L 781 4013 
L 1919 4750 
L 2350 4750 
L 2350 331 
L 3163 331 
L 3163 0 
L 909 0 
z
" transform="scale(0.015625)"/>
       </defs>
       <use xlink:href="#DejaVuSerif-31"/>
       <use xlink:href="#DejaVuSerif-2e" x="63.623047"/>
       <use xlink:href="#DejaVuSerif-30" x="95.410156"/>
      </g>
     </g>
    </g>
    <g id="ytick_7">
     <g id="line2d_33">
      <path d="M 87.23729 122.768 
L 997.2 122.768 
" clip-path="url(#paaed4460db)" style="fill: none; stroke: #ffffff; stroke-width: 0.8; stroke-linecap: square"/>
     </g>
     <g id="line2d_34">
      <g>
       <use xlink:href="#m9efbfceb51" x="87.23729" y="122.768" style="stroke: #000000; stroke-width: 0.8"/>
      </g>
     </g>
     <g id="text_18">
      <!-- 1.2 -->
      <g transform="translate(45.250415 131.126281) scale(0.22 -0.22)">
       <use xlink:href="#DejaVuSerif-31"/>
       <use xlink:href="#DejaVuSerif-2e" x="63.623047"/>
       <use xlink:href="#DejaVuSerif-32" x="95.410156"/>
      </g>
     </g>
    </g>
    <g id="text_19">
     <!-- Valor médio (p.u) -->
     <g transform="translate(37.299009 428.406469) rotate(-90) scale(0.19 -0.19)">
      <defs>
       <path id="DejaVuSerif-6c" d="M 1313 331 
L 1856 331 
L 1856 0 
L 184 0 
L 184 331 
L 738 331 
L 738 4531 
L 184 4531 
L 184 4863 
L 1313 4863 
L 1313 331 
z
" transform="scale(0.015625)"/>
       <path id="DejaVuSerif-6f" d="M 1925 219 
Q 2388 219 2623 584 
Q 2859 950 2859 1663 
Q 2859 2375 2623 2739 
Q 2388 3103 1925 3103 
Q 1463 3103 1227 2739 
Q 991 2375 991 1663 
Q 991 950 1228 584 
Q 1466 219 1925 219 
z
M 1925 -91 
Q 1200 -91 759 389 
Q 319 869 319 1663 
Q 319 2456 758 2934 
Q 1197 3413 1925 3413 
Q 2653 3413 3092 2934 
Q 3531 2456 3531 1663 
Q 3531 869 3092 389 
Q 2653 -91 1925 -91 
z
" transform="scale(0.015625)"/>
       <path id="DejaVuSerif-6d" d="M 3316 2675 
Q 3481 3041 3739 3227 
Q 3997 3413 4341 3413 
Q 4863 3413 5119 3089 
Q 5375 2766 5375 2113 
L 5375 331 
L 5894 331 
L 5894 0 
L 4300 0 
L 4300 331 
L 4800 331 
L 4800 2047 
Q 4800 2556 4650 2772 
Q 4500 2988 4153 2988 
Q 3769 2988 3567 2697 
Q 3366 2406 3366 1850 
L 3366 331 
L 3866 331 
L 3866 0 
L 2291 0 
L 2291 331 
L 2791 331 
L 2791 2069 
Q 2791 2566 2641 2777 
Q 2491 2988 2144 2988 
Q 1759 2988 1557 2697 
Q 1356 2406 1356 1850 
L 1356 331 
L 1856 331 
L 1856 0 
L 263 0 
L 263 331 
L 781 331 
L 781 2994 
L 231 2994 
L 231 3322 
L 1356 3322 
L 1356 2731 
Q 1516 3063 1762 3238 
Q 2009 3413 2322 3413 
Q 2709 3413 2968 3220 
Q 3228 3028 3316 2675 
z
" transform="scale(0.015625)"/>
       <path id="DejaVuSerif-e9" d="M 3469 1600 
L 991 1600 
L 991 1575 
Q 991 903 1244 561 
Q 1497 219 1991 219 
Q 2369 219 2611 417 
Q 2853 616 2950 1006 
L 3413 1006 
Q 3275 459 2904 184 
Q 2534 -91 1931 -91 
Q 1203 -91 761 389 
Q 319 869 319 1663 
Q 319 2450 753 2931 
Q 1188 3413 1894 3413 
Q 2647 3413 3050 2948 
Q 3453 2484 3469 1600 
z
M 2791 1931 
Q 2772 2513 2545 2808 
Q 2319 3103 1894 3103 
Q 1497 3103 1269 2806 
Q 1041 2509 991 1931 
L 2791 1931 
z
M 2330 5119 
L 2952 5119 
L 1890 3944 
L 1524 3944 
L 2330 5119 
z
" transform="scale(0.015625)"/>
       <path id="DejaVuSerif-64" d="M 3359 331 
L 3909 331 
L 3909 0 
L 2784 0 
L 2784 519 
Q 2616 206 2355 57 
Q 2094 -91 1709 -91 
Q 1097 -91 708 395 
Q 319 881 319 1663 
Q 319 2444 706 2928 
Q 1094 3413 1709 3413 
Q 2094 3413 2355 3264 
Q 2616 3116 2784 2803 
L 2784 4531 
L 2241 4531 
L 2241 4863 
L 3359 4863 
L 3359 331 
z
M 2784 1497 
L 2784 1825 
Q 2784 2422 2554 2737 
Q 2325 3053 1888 3053 
Q 1444 3053 1217 2703 
Q 991 2353 991 1663 
Q 991 975 1217 622 
Q 1444 269 1888 269 
Q 2325 269 2554 583 
Q 2784 897 2784 1497 
z
" transform="scale(0.015625)"/>
       <path id="DejaVuSerif-69" d="M 622 4353 
Q 622 4497 726 4603 
Q 831 4709 978 4709 
Q 1122 4709 1226 4603 
Q 1331 4497 1331 4353 
Q 1331 4206 1228 4103 
Q 1125 4000 978 4000 
Q 831 4000 726 4103 
Q 622 4206 622 4353 
z
M 1356 331 
L 1900 331 
L 1900 0 
L 231 0 
L 231 331 
L 781 331 
L 781 2988 
L 231 2988 
L 231 3322 
L 1356 3322 
L 1356 331 
z
" transform="scale(0.015625)"/>
       <path id="DejaVuSerif-28" d="M 2041 -997 
Q 1281 -656 893 83 
Q 506 822 506 1931 
Q 506 3044 893 3783 
Q 1281 4522 2041 4863 
L 2041 4556 
Q 1559 4225 1350 3623 
Q 1141 3022 1141 1931 
Q 1141 844 1350 242 
Q 1559 -359 2041 -691 
L 2041 -997 
z
" transform="scale(0.015625)"/>
       <path id="DejaVuSerif-70" d="M 1313 1825 
L 1313 1497 
Q 1313 897 1542 583 
Q 1772 269 2209 269 
Q 2650 269 2876 622 
Q 3103 975 3103 1663 
Q 3103 2353 2876 2703 
Q 2650 3053 2209 3053 
Q 1772 3053 1542 2737 
Q 1313 2422 1313 1825 
z
M 738 2988 
L 184 2988 
L 184 3322 
L 1313 3322 
L 1313 2803 
Q 1481 3116 1742 3264 
Q 2003 3413 2388 3413 
Q 3000 3413 3387 2928 
Q 3775 2444 3775 1663 
Q 3775 881 3387 395 
Q 3000 -91 2388 -91 
Q 2003 -91 1742 57 
Q 1481 206 1313 519 
L 1313 -997 
L 1856 -997 
L 1856 -1331 
L 184 -1331 
L 184 -997 
L 738 -997 
L 738 2988 
z
" transform="scale(0.015625)"/>
       <path id="DejaVuSerif-75" d="M 2266 3322 
L 3341 3322 
L 3341 331 
L 3884 331 
L 3884 0 
L 2766 0 
L 2766 588 
Q 2606 256 2353 82 
Q 2100 -91 1766 -91 
Q 1213 -91 952 223 
Q 691 538 691 1209 
L 691 2988 
L 172 2988 
L 172 3322 
L 1269 3322 
L 1269 1388 
Q 1269 781 1417 556 
Q 1566 331 1947 331 
Q 2347 331 2556 625 
Q 2766 919 2766 1478 
L 2766 2988 
L 2266 2988 
L 2266 3322 
z
" transform="scale(0.015625)"/>
       <path id="DejaVuSerif-29" d="M 453 -997 
L 453 -691 
Q 934 -359 1145 242 
Q 1356 844 1356 1931 
Q 1356 3022 1145 3623 
Q 934 4225 453 4556 
L 453 4863 
Q 1216 4522 1603 3783 
Q 1991 3044 1991 1931 
Q 1991 822 1603 83 
Q 1216 -656 453 -997 
z
" transform="scale(0.015625)"/>
      </defs>
      <use xlink:href="#DejaVuSerif-56"/>
      <use xlink:href="#DejaVuSerif-61" x="63.091797"/>
      <use xlink:href="#DejaVuSerif-6c" x="122.710938"/>
      <use xlink:href="#DejaVuSerif-6f" x="154.693359"/>
      <use xlink:href="#DejaVuSerif-72" x="214.898438"/>
      <use xlink:href="#DejaVuSerif-20" x="262.701172"/>
      <use xlink:href="#DejaVuSerif-6d" x="294.488281"/>
      <use xlink:href="#DejaVuSerif-e9" x="389.3125"/>
      <use xlink:href="#DejaVuSerif-64" x="448.492188"/>
      <use xlink:href="#DejaVuSerif-69" x="512.505859"/>
      <use xlink:href="#DejaVuSerif-6f" x="544.488281"/>
      <use xlink:href="#DejaVuSerif-20" x="604.693359"/>
      <use xlink:href="#DejaVuSerif-28" x="636.480469"/>
      <use xlink:href="#DejaVuSerif-70" x="675.494141"/>
      <use xlink:href="#DejaVuSerif-2e" x="739.507812"/>
      <use xlink:href="#DejaVuSerif-75" x="771.294922"/>
      <use xlink:href="#DejaVuSerif-29" x="835.699219"/>
     </g>
    </g>
   </g>
   <g id="PolyCollection_1">
    <defs>
     <path id="m493fa9885d" d="M 128.599231 -598.01914 
L 128.599231 -360.631069 
L 220.514656 -375.372137 
L 312.430082 -419.98699 
L 404.345507 -412.580854 
L 496.260932 -241.95484 
L 588.176358 -241.95484 
L 680.091783 -241.95484 
L 772.007208 -241.95484 
L 863.922633 -241.95484 
L 955.838059 -241.95484 
L 955.838059 -241.95484 
L 955.838059 -241.95484 
L 863.922633 -241.95484 
L 772.007208 -241.95484 
L 680.091783 -241.95484 
L 588.176358 -241.95484 
L 496.260932 -598.01914 
L 404.345507 -427.393125 
L 312.430082 -419.98699 
L 220.514656 -486.713434 
L 128.599231 -598.01914 
z
" style="stroke: #a52a2a; stroke-opacity: 0.2; stroke-width: 0.5"/>
    </defs>
    <g clip-path="url(#paaed4460db)">
     <use xlink:href="#m493fa9885d" x="0" y="792" style="fill: #a52a2a; fill-opacity: 0.2; stroke: #a52a2a; stroke-opacity: 0.2; stroke-width: 0.5"/>
    </g>
   </g>
   <g id="PolyCollection_2">
    <defs>
     <path id="m9f462fa521" d="M 128.599231 -241.95484 
L 128.599231 -241.95484 
L 220.514656 -241.95484 
L 312.430082 -241.95484 
L 404.345507 -241.95484 
L 496.260932 -241.95484 
L 588.176358 -241.95484 
L 680.091783 -241.95484 
L 772.007208 -241.95484 
L 863.922633 -241.95484 
L 955.838059 -241.95484 
L 955.838059 -241.95484 
L 955.838059 -241.95484 
L 863.922633 -241.95484 
L 772.007208 -241.95484 
L 680.091783 -241.95484 
L 588.176358 -241.95484 
L 496.260932 -241.95484 
L 404.345507 -241.95484 
L 312.430082 -241.95484 
L 220.514656 -241.95484 
L 128.599231 -241.95484 
z
" style="stroke: #228b22; stroke-opacity: 0.2; stroke-width: 0.5"/>
    </defs>
    <g clip-path="url(#paaed4460db)">
     <use xlink:href="#m9f462fa521" x="0" y="792" style="fill: #228b22; fill-opacity: 0.2; stroke: #228b22; stroke-opacity: 0.2; stroke-width: 0.5"/>
    </g>
   </g>
   <g id="PolyCollection_3">
    <defs>
     <path id="m2dd645c429" d="M 128.599231 -626.399152 
L 128.599231 -614.264491 
L 220.514656 -615.531726 
L 312.430082 -601.55859 
L 404.345507 -604.481663 
L 496.260932 -604.099448 
L 588.176358 -591.009759 
L 680.091783 -603.609585 
L 772.007208 -603.56587 
L 863.922633 -601.815954 
L 955.838059 -573.017793 
L 955.838059 -597.362886 
L 955.838059 -597.362886 
L 863.922633 -612.843088 
L 772.007208 -613.752399 
L 680.091783 -613.788984 
L 588.176358 -619.623906 
L 496.260932 -615.629675 
L 404.345507 -614.215975 
L 312.430082 -612.593182 
L 220.514656 -625.536752 
L 128.599231 -626.399152 
z
" style="stroke: #0000ff; stroke-opacity: 0.2; stroke-width: 0.5"/>
    </defs>
    <g clip-path="url(#paaed4460db)">
     <use xlink:href="#m2dd645c429" x="0" y="792" style="fill: #0000ff; fill-opacity: 0.2; stroke: #0000ff; stroke-opacity: 0.2; stroke-width: 0.5"/>
    </g>
   </g>
   <g id="line2d_35">
    <path d="M 128.599231 311.740784 
L 220.514656 352.948894 
L 312.430082 371.975585 
L 404.345507 375.14392 
L 496.260932 503.113834 
L 588.176358 550.04516 
L 680.091783 550.04516 
L 772.007208 550.04516 
L 863.922633 550.04516 
L 955.838059 550.04516 
" clip-path="url(#paaed4460db)" style="fill: none; stroke: #a52a2a; stroke-width: 1.5; stroke-linecap: square"/>
    <defs>
     <path id="me1331f1264" d="M 0 -6 
L -6 6 
L 6 6 
z
" style="stroke: #a52a2a; stroke-width: 2; stroke-linejoin: miter"/>
    </defs>
    <g clip-path="url(#paaed4460db)">
     <use xlink:href="#me1331f1264" x="128.599231" y="311.740784" style="fill-opacity: 0; stroke: #a52a2a; stroke-width: 2; stroke-linejoin: miter"/>
     <use xlink:href="#me1331f1264" x="220.514656" y="352.948894" style="fill-opacity: 0; stroke: #a52a2a; stroke-width: 2; stroke-linejoin: miter"/>
     <use xlink:href="#me1331f1264" x="312.430082" y="371.975585" style="fill-opacity: 0; stroke: #a52a2a; stroke-width: 2; stroke-linejoin: miter"/>
     <use xlink:href="#me1331f1264" x="404.345507" y="375.14392" style="fill-opacity: 0; stroke: #a52a2a; stroke-width: 2; stroke-linejoin: miter"/>
     <use xlink:href="#me1331f1264" x="496.260932" y="503.113834" style="fill-opacity: 0; stroke: #a52a2a; stroke-width: 2; stroke-linejoin: miter"/>
     <use xlink:href="#me1331f1264" x="588.176358" y="550.04516" style="fill-opacity: 0; stroke: #a52a2a; stroke-width: 2; stroke-linejoin: miter"/>
     <use xlink:href="#me1331f1264" x="680.091783" y="550.04516" style="fill-opacity: 0; stroke: #a52a2a; stroke-width: 2; stroke-linejoin: miter"/>
     <use xlink:href="#me1331f1264" x="772.007208" y="550.04516" style="fill-opacity: 0; stroke: #a52a2a; stroke-width: 2; stroke-linejoin: miter"/>
     <use xlink:href="#me1331f1264" x="863.922633" y="550.04516" style="fill-opacity: 0; stroke: #a52a2a; stroke-width: 2; stroke-linejoin: miter"/>
     <use xlink:href="#me1331f1264" x="955.838059" y="550.04516" style="fill-opacity: 0; stroke: #a52a2a; stroke-width: 2; stroke-linejoin: miter"/>
    </g>
   </g>
   <g id="line2d_36">
    <path d="M 128.599231 550.04516 
L 220.514656 550.04516 
L 312.430082 550.04516 
L 404.345507 550.04516 
L 496.260932 550.04516 
L 588.176358 550.04516 
L 680.091783 550.04516 
L 772.007208 550.04516 
L 863.922633 550.04516 
L 955.838059 550.04516 
" clip-path="url(#paaed4460db)" style="fill: none; stroke-dasharray: 6,2.25; stroke-dashoffset: 0; stroke: #228b22; stroke-width: 1.5"/>
    <defs>
     <path id="m74191c6129" d="M 0 -6 
L -6 6 
L 6 6 
z
" style="stroke: #228b22; stroke-width: 2; stroke-linejoin: miter"/>
    </defs>
    <g clip-path="url(#paaed4460db)">
     <use xlink:href="#m74191c6129" x="128.599231" y="550.04516" style="fill-opacity: 0; stroke: #228b22; stroke-width: 2; stroke-linejoin: miter"/>
     <use xlink:href="#m74191c6129" x="220.514656" y="550.04516" style="fill-opacity: 0; stroke: #228b22; stroke-width: 2; stroke-linejoin: miter"/>
     <use xlink:href="#m74191c6129" x="312.430082" y="550.04516" style="fill-opacity: 0; stroke: #228b22; stroke-width: 2; stroke-linejoin: miter"/>
     <use xlink:href="#m74191c6129" x="404.345507" y="550.04516" style="fill-opacity: 0; stroke: #228b22; stroke-width: 2; stroke-linejoin: miter"/>
     <use xlink:href="#m74191c6129" x="496.260932" y="550.04516" style="fill-opacity: 0; stroke: #228b22; stroke-width: 2; stroke-linejoin: miter"/>
     <use xlink:href="#m74191c6129" x="588.176358" y="550.04516" style="fill-opacity: 0; stroke: #228b22; stroke-width: 2; stroke-linejoin: miter"/>
     <use xlink:href="#m74191c6129" x="680.091783" y="550.04516" style="fill-opacity: 0; stroke: #228b22; stroke-width: 2; stroke-linejoin: miter"/>
     <use xlink:href="#m74191c6129" x="772.007208" y="550.04516" style="fill-opacity: 0; stroke: #228b22; stroke-width: 2; stroke-linejoin: miter"/>
     <use xlink:href="#m74191c6129" x="863.922633" y="550.04516" style="fill-opacity: 0; stroke: #228b22; stroke-width: 2; stroke-linejoin: miter"/>
     <use xlink:href="#m74191c6129" x="955.838059" y="550.04516" style="fill-opacity: 0; stroke: #228b22; stroke-width: 2; stroke-linejoin: miter"/>
    </g>
   </g>
   <g id="line2d_37">
    <path d="M 128.599231 173.230561 
L 220.514656 173.259527 
L 312.430082 185.607966 
L 404.345507 183.364581 
L 496.260932 182.547755 
L 588.176358 185.725919 
L 680.091783 184.20058 
L 772.007208 184.241757 
L 863.922633 185.359964 
L 955.838059 207.169607 
" clip-path="url(#paaed4460db)" style="fill: none; stroke-dasharray: 1.5,1.5; stroke-dashoffset: 0; stroke: #0000ff; stroke-width: 1.5"/>
    <defs>
     <path id="mca8de7dcfa" d="M 0 6 
C 1.591219 6 3.117479 5.367802 4.242641 4.242641 
C 5.367802 3.117479 6 1.591219 6 0 
C 6 -1.591219 5.367802 -3.117479 4.242641 -4.242641 
C 3.117479 -5.367802 1.591219 -6 0 -6 
C -1.591219 -6 -3.117479 -5.367802 -4.242641 -4.242641 
C -5.367802 -3.117479 -6 -1.591219 -6 0 
C -6 1.591219 -5.367802 3.117479 -4.242641 4.242641 
C -3.117479 5.367802 -1.591219 6 0 6 
z
" style="stroke: #0000ff; stroke-width: 2"/>
    </defs>
    <g clip-path="url(#paaed4460db)">
     <use xlink:href="#mca8de7dcfa" x="128.599231" y="173.230561" style="fill-opacity: 0; stroke: #0000ff; stroke-width: 2"/>
     <use xlink:href="#mca8de7dcfa" x="220.514656" y="173.259527" style="fill-opacity: 0; stroke: #0000ff; stroke-width: 2"/>
     <use xlink:href="#mca8de7dcfa" x="312.430082" y="185.607966" style="fill-opacity: 0; stroke: #0000ff; stroke-width: 2"/>
     <use xlink:href="#mca8de7dcfa" x="404.345507" y="183.364581" style="fill-opacity: 0; stroke: #0000ff; stroke-width: 2"/>
     <use xlink:href="#mca8de7dcfa" x="496.260932" y="182.547755" style="fill-opacity: 0; stroke: #0000ff; stroke-width: 2"/>
     <use xlink:href="#mca8de7dcfa" x="588.176358" y="185.725919" style="fill-opacity: 0; stroke: #0000ff; stroke-width: 2"/>
     <use xlink:href="#mca8de7dcfa" x="680.091783" y="184.20058" style="fill-opacity: 0; stroke: #0000ff; stroke-width: 2"/>
     <use xlink:href="#mca8de7dcfa" x="772.007208" y="184.241757" style="fill-opacity: 0; stroke: #0000ff; stroke-width: 2"/>
     <use xlink:href="#mca8de7dcfa" x="863.922633" y="185.359964" style="fill-opacity: 0; stroke: #0000ff; stroke-width: 2"/>
     <use xlink:href="#mca8de7dcfa" x="955.838059" y="207.169607" style="fill-opacity: 0; stroke: #0000ff; stroke-width: 2"/>
    </g>
   </g>
   <g id="line2d_38"/>
   <g id="line2d_39"/>
   <g id="line2d_40"/>
   <g id="line2d_41">
    <path d="M 87.23729 193.98086 
L 997.2 193.98086 
" clip-path="url(#paaed4460db)" style="fill: none; stroke-dasharray: 5.55,2.4; stroke-dashoffset: 0; stroke: #ff0000; stroke-opacity: 0.9; stroke-width: 1.5"/>
   </g>
   <g id="line2d_42">
    <path d="M 87.23729 158.37443 
L 997.2 158.37443 
" clip-path="url(#paaed4460db)" style="fill: none; stroke-dasharray: 5.55,2.4; stroke-dashoffset: 0; stroke: #ff0000; stroke-opacity: 0.9; stroke-width: 1.5"/>
   </g>
   <g id="patch_3">
    <path d="M 87.23729 567.848375 
L 87.23729 122.768 
" style="fill: none; stroke: #000000; stroke-width: 1.2; stroke-linejoin: miter; stroke-linecap: square"/>
   </g>
   <g id="patch_4">
    <path d="M 997.2 567.848375 
L 997.2 122.768 
" style="fill: none; stroke: #000000; stroke-width: 1.2; stroke-linejoin: miter; stroke-linecap: square"/>
   </g>
   <g id="patch_5">
    <path d="M 87.23729 567.848375 
L 997.2 567.848375 
" style="fill: none; stroke: #000000; stroke-width: 1.2; stroke-linejoin: miter; stroke-linecap: square"/>
   </g>
   <g id="patch_6">
    <path d="M 87.23729 122.768 
L 997.2 122.768 
" style="fill: none; stroke: #000000; stroke-width: 1.2; stroke-linejoin: miter; stroke-linecap: square"/>
   </g>
   <g id="legend_1">
    <g id="text_20">
     <!-- Variável -->
     <g transform="translate(501.238957 66.9488) scale(0.2 -0.2)">
      <defs>
       <path id="DejaVuSerif-e1" d="M 2547 1044 
L 2547 1747 
L 1806 1747 
Q 1378 1747 1168 1562 
Q 959 1378 959 997 
Q 959 650 1171 447 
Q 1384 244 1747 244 
Q 2106 244 2326 466 
Q 2547 688 2547 1044 
z
M 3122 2075 
L 3122 331 
L 3634 331 
L 3634 0 
L 2547 0 
L 2547 359 
Q 2356 128 2106 18 
Q 1856 -91 1522 -91 
Q 969 -91 644 203 
Q 319 497 319 997 
Q 319 1513 691 1797 
Q 1063 2081 1741 2081 
L 2547 2081 
L 2547 2309 
Q 2547 2688 2317 2895 
Q 2088 3103 1672 3103 
Q 1328 3103 1125 2947 
Q 922 2791 872 2484 
L 575 2484 
L 575 3156 
Q 875 3284 1158 3348 
Q 1441 3413 1709 3413 
Q 2400 3413 2761 3070 
Q 3122 2728 3122 2075 
z
M 2210 5119 
L 2832 5119 
L 1770 3944 
L 1404 3944 
L 2210 5119 
z
" transform="scale(0.015625)"/>
       <path id="DejaVuSerif-76" d="M 1581 0 
L 359 2988 
L -19 2988 
L -19 3322 
L 1509 3322 
L 1509 2988 
L 978 2988 
L 1913 703 
L 2847 2988 
L 2350 2988 
L 2350 3322 
L 3597 3322 
L 3597 2988 
L 3225 2988 
L 2003 0 
L 1581 0 
z
" transform="scale(0.015625)"/>
       <path id="DejaVuSerif-65" d="M 3469 1600 
L 991 1600 
L 991 1575 
Q 991 903 1244 561 
Q 1497 219 1991 219 
Q 2369 219 2611 417 
Q 2853 616 2950 1006 
L 3413 1006 
Q 3275 459 2904 184 
Q 2534 -91 1931 -91 
Q 1203 -91 761 389 
Q 319 869 319 1663 
Q 319 2450 753 2931 
Q 1188 3413 1894 3413 
Q 2647 3413 3050 2948 
Q 3453 2484 3469 1600 
z
M 2791 1931 
Q 2772 2513 2545 2808 
Q 2319 3103 1894 3103 
Q 1497 3103 1269 2806 
Q 1041 2509 991 1931 
L 2791 1931 
z
" transform="scale(0.015625)"/>
      </defs>
      <use xlink:href="#DejaVuSerif-56"/>
      <use xlink:href="#DejaVuSerif-61" x="63.091797"/>
      <use xlink:href="#DejaVuSerif-72" x="122.710938"/>
      <use xlink:href="#DejaVuSerif-69" x="170.513672"/>
      <use xlink:href="#DejaVuSerif-e1" x="202.496094"/>
      <use xlink:href="#DejaVuSerif-76" x="262.115234"/>
      <use xlink:href="#DejaVuSerif-65" x="318.609375"/>
      <use xlink:href="#DejaVuSerif-6c" x="377.789062"/>
     </g>
    </g>
    <g id="line2d_43">
     <g>
      <use xlink:href="#me1331f1264" x="383.318645" y="92.308175" style="fill-opacity: 0; stroke: #a52a2a; stroke-width: 2; stroke-linejoin: miter"/>
     </g>
    </g>
    <g id="text_21">
     <!-- $\mathrm{Q}_{n}^\mathrm{abs}$ -->
     <g transform="translate(419.318645 99.308175) scale(0.2 -0.2)">
      <defs>
       <path id="DejaVuSerif-51" d="M 2700 -91 
Q 1628 -91 993 567 
Q 359 1225 359 2328 
Q 359 2894 529 3339 
Q 700 3784 1050 4134 
Q 1356 4441 1750 4595 
Q 2144 4750 2625 4750 
Q 3641 4750 4266 4084 
Q 4891 3419 4891 2328 
Q 4891 1403 4422 773 
Q 3953 144 3128 -38 
Q 3297 -247 3539 -347 
Q 3781 -447 4122 -447 
L 4219 -447 
L 4219 -1025 
Q 3691 -1000 3314 -767 
Q 2938 -534 2700 -91 
z
M 2625 244 
Q 3391 244 3781 770 
Q 4172 1297 4172 2328 
Q 4172 3363 3781 3889 
Q 3391 4416 2625 4416 
Q 1856 4416 1465 3889 
Q 1075 3363 1075 2328 
Q 1075 1297 1465 770 
Q 1856 244 2625 244 
z
" transform="scale(0.015625)"/>
       <path id="DejaVuSerif-62" d="M 738 331 
L 738 4531 
L 184 4531 
L 184 4863 
L 1313 4863 
L 1313 2803 
Q 1481 3116 1742 3264 
Q 2003 3413 2388 3413 
Q 3000 3413 3387 2928 
Q 3775 2444 3775 1663 
Q 3775 881 3387 395 
Q 3000 -91 2388 -91 
Q 2003 -91 1742 57 
Q 1481 206 1313 519 
L 1313 0 
L 184 0 
L 184 331 
L 738 331 
z
M 1313 1497 
Q 1313 897 1542 583 
Q 1772 269 2209 269 
Q 2650 269 2876 622 
Q 3103 975 3103 1663 
Q 3103 2353 2876 2703 
Q 2650 3053 2209 3053 
Q 1772 3053 1542 2737 
Q 1313 2422 1313 1825 
L 1313 1497 
z
" transform="scale(0.015625)"/>
       <path id="DejaVuSerif-73" d="M 359 184 
L 359 959 
L 691 959 
Q 703 588 923 403 
Q 1144 219 1575 219 
Q 1963 219 2166 364 
Q 2369 509 2369 788 
Q 2369 1006 2220 1140 
Q 2072 1275 1594 1428 
L 1178 1569 
Q 750 1706 558 1912 
Q 366 2119 366 2438 
Q 366 2894 700 3153 
Q 1034 3413 1625 3413 
Q 1888 3413 2178 3344 
Q 2469 3275 2778 3144 
L 2778 2419 
L 2447 2419 
Q 2434 2741 2221 2922 
Q 2009 3103 1644 3103 
Q 1281 3103 1095 2975 
Q 909 2847 909 2591 
Q 909 2381 1050 2254 
Q 1191 2128 1613 1997 
L 2069 1856 
Q 2541 1709 2748 1489 
Q 2956 1269 2956 922 
Q 2956 450 2595 179 
Q 2234 -91 1600 -91 
Q 1278 -91 972 -22 
Q 666 47 359 184 
z
" transform="scale(0.015625)"/>
       <path id="DejaVuSerif-Italic-6e" d="M 450 0 
L 1031 2988 
L 481 2988 
L 544 3322 
L 1669 3322 
L 1556 2731 
Q 1781 3069 2068 3241 
Q 2356 3413 2694 3413 
Q 3244 3413 3444 3097 
Q 3563 2906 3563 2588 
Q 3563 2378 3509 2113 
L 3163 331 
L 3675 331 
L 3613 0 
L 2522 0 
L 2897 1931 
Q 2959 2253 2959 2469 
Q 2959 2659 2909 2769 
Q 2803 2994 2425 2994 
Q 2025 2994 1759 2701 
Q 1494 2409 1384 1850 
L 1025 0 
L 450 0 
z
" transform="scale(0.015625)"/>
      </defs>
      <use xlink:href="#DejaVuSerif-51" transform="translate(0 0.476562)"/>
      <use xlink:href="#DejaVuSerif-61" transform="translate(82.890781 36.810938) scale(0.7)"/>
      <use xlink:href="#DejaVuSerif-62" transform="translate(124.62418 36.810938) scale(0.7)"/>
      <use xlink:href="#DejaVuSerif-73" transform="translate(169.43375 36.810938) scale(0.7)"/>
      <use xlink:href="#DejaVuSerif-Italic-6e" transform="translate(82.890781 -25.476562) scale(0.7)"/>
     </g>
    </g>
    <g id="line2d_44">
     <g>
      <use xlink:href="#m74191c6129" x="520.918645" y="92.308175" style="fill-opacity: 0; stroke: #228b22; stroke-width: 2; stroke-linejoin: miter"/>
     </g>
    </g>
    <g id="text_22">
     <!-- $\mathrm{Q}_{n}^\mathrm{inj}$ -->
     <g transform="translate(556.918645 99.308175) scale(0.2 -0.2)">
      <defs>
       <path id="DejaVuSerif-6e" d="M 263 0 
L 263 331 
L 781 331 
L 781 2988 
L 231 2988 
L 231 3322 
L 1356 3322 
L 1356 2731 
Q 1516 3069 1770 3241 
Q 2025 3413 2363 3413 
Q 2913 3413 3172 3097 
Q 3431 2781 3431 2113 
L 3431 331 
L 3944 331 
L 3944 0 
L 2356 0 
L 2356 331 
L 2853 331 
L 2853 1931 
Q 2853 2541 2703 2767 
Q 2553 2994 2175 2994 
Q 1775 2994 1565 2701 
Q 1356 2409 1356 1850 
L 1356 331 
L 1856 331 
L 1856 0 
L 263 0 
z
" transform="scale(0.015625)"/>
       <path id="DejaVuSerif-6a" d="M 641 4353 
Q 641 4497 745 4603 
Q 850 4709 997 4709 
Q 1141 4709 1245 4603 
Q 1350 4497 1350 4353 
Q 1350 4206 1248 4103 
Q 1147 4000 997 4000 
Q 850 4000 745 4103 
Q 641 4206 641 4353 
z
M 781 2988 
L 238 2988 
L 238 3322 
L 1356 3322 
L 1356 -325 
Q 1356 -838 1051 -1130 
Q 747 -1422 213 -1422 
Q -13 -1422 -217 -1370 
Q -422 -1319 -616 -1216 
L -616 -531 
L -319 -531 
Q -297 -831 -164 -972 
Q -31 -1113 225 -1113 
Q 509 -1113 645 -920 
Q 781 -728 781 -325 
L 781 2988 
z
" transform="scale(0.015625)"/>
      </defs>
      <use xlink:href="#DejaVuSerif-51" transform="translate(0 0.065625)"/>
      <use xlink:href="#DejaVuSerif-69" transform="translate(82.890781 39.495313) scale(0.7)"/>
      <use xlink:href="#DejaVuSerif-6e" transform="translate(105.278477 39.495313) scale(0.7)"/>
      <use xlink:href="#DejaVuSerif-6a" transform="translate(150.361484 39.495313) scale(0.7)"/>
      <use xlink:href="#DejaVuSerif-Italic-6e" transform="translate(82.890781 -25.8875) scale(0.7)"/>
     </g>
    </g>
    <g id="line2d_45">
     <g>
      <use xlink:href="#mca8de7dcfa" x="651.918645" y="92.308175" style="fill-opacity: 0; stroke: #0000ff; stroke-width: 2"/>
     </g>
    </g>
    <g id="text_23">
     <!-- $\mathrm{V}_{pu}$ -->
     <g transform="translate(687.918645 99.308175) scale(0.2 -0.2)">
      <defs>
       <path id="DejaVuSerif-Italic-70" d="M 1466 1825 
L 1400 1497 
Q 1353 1250 1353 1053 
Q 1353 769 1453 581 
Q 1622 269 2059 269 
Q 2500 269 2795 622 
Q 3091 975 3225 1663 
Q 3284 1978 3284 2225 
Q 3284 2513 3200 2703 
Q 3041 3053 2600 3053 
Q 2163 3053 1872 2737 
Q 1581 2422 1466 1825 
z
M 1116 2988 
L 563 2988 
L 628 3322 
L 1756 3322 
L 1656 2803 
Q 1884 3116 2175 3264 
Q 2466 3413 2850 3413 
Q 3463 3413 3753 2928 
Q 3947 2609 3947 2163 
Q 3947 1928 3897 1663 
Q 3744 881 3262 395 
Q 2781 -91 2169 -91 
Q 1784 -91 1551 57 
Q 1319 206 1213 519 
L 850 -1331 
L 275 -1331 
L 1116 2988 
z
" transform="scale(0.015625)"/>
       <path id="DejaVuSerif-Italic-75" d="M 3097 3322 
L 3672 3322 
L 3091 331 
L 3634 331 
L 3572 0 
L 2453 0 
L 2566 588 
Q 2341 256 2055 82 
Q 1769 -91 1434 -91 
Q 881 -91 681 225 
Q 559 413 559 734 
Q 559 944 613 1209 
L 956 2988 
L 438 2988 
L 503 3322 
L 1600 3322 
L 1225 1388 
Q 1163 1066 1163 853 
Q 1163 663 1213 556 
Q 1316 331 1697 331 
Q 2097 331 2364 625 
Q 2631 919 2738 1478 
L 3097 3322 
z
" transform="scale(0.015625)"/>
      </defs>
      <use xlink:href="#DejaVuSerif-56" transform="translate(0 0.09375)"/>
      <use xlink:href="#DejaVuSerif-Italic-70" transform="translate(73.125156 -15.478125) scale(0.7)"/>
      <use xlink:href="#DejaVuSerif-Italic-75" transform="translate(117.934727 -15.478125) scale(0.7)"/>
     </g>
    </g>
   </g>
  </g>
 </g>
 <defs>
  <clipPath id="paaed4460db">
   <rect x="87.23729" y="122.768" width="909.96271" height="445.080375"/>
  </clipPath>
 </defs>
</svg>
