<?xml version="1.0" encoding="utf-8" standalone="no"?>
<!DOCTYPE svg PUBLIC "-//W3C//DTD SVG 1.1//EN"
  "http://www.w3.org/Graphics/SVG/1.1/DTD/svg11.dtd">
<svg xmlns:xlink="http://www.w3.org/1999/xlink" width="1008pt" height="792pt" viewBox="0 0 1008 792" xmlns="http://www.w3.org/2000/svg" version="1.1">
 <metadata>
  <rdf:RDF xmlns:dc="http://purl.org/dc/elements/1.1/" xmlns:cc="http://creativecommons.org/ns#" xmlns:rdf="http://www.w3.org/1999/02/22-rdf-syntax-ns#">
   <cc:Work>
    <dc:type rdf:resource="http://purl.org/dc/dcmitype/StillImage"/>
    <dc:date>2024-11-04T21:33:18.154739</dc:date>
    <dc:format>image/svg+xml</dc:format>
    <dc:creator>
     <cc:Agent>
      <dc:title>Matplotlib v3.7.2, https://matplotlib.org/</dc:title>
     </cc:Agent>
    </dc:creator>
   </cc:Work>
  </rdf:RDF>
 </metadata>
 <defs>
  <style type="text/css">*{stroke-linejoin: round; stroke-linecap: butt}</style>
 </defs>
 <g id="figure_1">
  <g id="patch_1">
   <path d="M 0 792 
L 1008 792 
L 1008 0 
L 0 0 
z
" style="fill: #ffffff"/>
  </g>
  <g id="axes_1">
   <g id="patch_2">
    <path d="M 86.83229 566.523356 
L 997.2 566.523356 
L 997.2 122.768 
L 86.83229 122.768 
z
" style="fill: #e5e5e5"/>
   </g>
   <g id="matplotlib.axis_1">
    <g id="xtick_1">
     <g id="line2d_1">
      <path d="M 128.21264 566.523356 
L 128.21264 122.768 
" clip-path="url(#p589e732c2d)" style="fill: none; stroke: #ffffff; stroke-width: 0.8; stroke-linecap: square"/>
     </g>
     <g id="line2d_2">
      <defs>
       <path id="md17891f9b6" d="M 0 0 
L 0 3.5 
" style="stroke: #000000; stroke-width: 0.8"/>
      </defs>
      <g>
       <use xlink:href="#md17891f9b6" x="128.21264" y="566.523356" style="stroke: #000000; stroke-width: 0.8"/>
      </g>
     </g>
     <g id="text_1">
      <!-- 301 - JAGUARUHE003 -->
      <g transform="translate(27.870991 748.47566) rotate(-60) scale(0.17 -0.17)">
       <defs>
        <path id="DejaVuSerif-33" d="M 622 4469 
Q 988 4606 1323 4678 
Q 1659 4750 1953 4750 
Q 2638 4750 3022 4454 
Q 3406 4159 3406 3634 
Q 3406 3213 3140 2930 
Q 2875 2647 2388 2547 
Q 2963 2466 3280 2130 
Q 3597 1794 3597 1259 
Q 3597 606 3158 257 
Q 2719 -91 1894 -91 
Q 1528 -91 1179 -12 
Q 831 66 488 225 
L 488 1131 
L 838 1131 
Q 869 681 1141 450 
Q 1413 219 1906 219 
Q 2384 219 2661 495 
Q 2938 772 2938 1253 
Q 2938 1803 2653 2086 
Q 2369 2369 1819 2369 
L 1522 2369 
L 1522 2688 
L 1678 2688 
Q 2225 2688 2498 2914 
Q 2772 3141 2772 3597 
Q 2772 4006 2547 4223 
Q 2322 4441 1900 4441 
Q 1478 4441 1245 4241 
Q 1013 4041 972 3647 
L 622 3647 
L 622 4469 
z
" transform="scale(0.015625)"/>
        <path id="DejaVuSerif-30" d="M 2034 219 
Q 2513 219 2750 744 
Q 2988 1269 2988 2328 
Q 2988 3391 2750 3916 
Q 2513 4441 2034 4441 
Q 1556 4441 1318 3916 
Q 1081 3391 1081 2328 
Q 1081 1269 1318 744 
Q 1556 219 2034 219 
z
M 2034 -91 
Q 1275 -91 848 546 
Q 422 1184 422 2328 
Q 422 3475 848 4112 
Q 1275 4750 2034 4750 
Q 2797 4750 3222 4112 
Q 3647 3475 3647 2328 
Q 3647 1184 3222 546 
Q 2797 -91 2034 -91 
z
" transform="scale(0.015625)"/>
        <path id="DejaVuSerif-31" d="M 909 0 
L 909 331 
L 1722 331 
L 1722 4213 
L 781 3603 
L 781 4013 
L 1919 4750 
L 2350 4750 
L 2350 331 
L 3163 331 
L 3163 0 
L 909 0 
z
" transform="scale(0.015625)"/>
        <path id="DejaVuSerif-20" transform="scale(0.015625)"/>
        <path id="DejaVuSerif-2d" d="M 281 1959 
L 1881 1959 
L 1881 1472 
L 281 1472 
L 281 1959 
z
" transform="scale(0.015625)"/>
        <path id="DejaVuSerif-4a" d="M -538 -1119 
L -538 -384 
L -181 -384 
Q -172 -694 -34 -845 
Q 103 -997 378 -997 
Q 750 -997 897 -762 
Q 1044 -528 1044 153 
L 1044 4331 
L 319 4331 
L 319 4666 
L 2272 4666 
L 2272 4331 
L 1678 4331 
L 1678 128 
Q 1678 -644 1368 -987 
Q 1059 -1331 372 -1331 
Q 150 -1331 -79 -1278 
Q -309 -1225 -538 -1119 
z
" transform="scale(0.015625)"/>
        <path id="DejaVuSerif-41" d="M 1281 1691 
L 2994 1691 
L 2138 3909 
L 1281 1691 
z
M -38 0 
L -38 331 
L 372 331 
L 2034 4666 
L 2559 4666 
L 4225 331 
L 4684 331 
L 4684 0 
L 2988 0 
L 2988 331 
L 3506 331 
L 3116 1356 
L 1153 1356 
L 763 331 
L 1275 331 
L 1275 0 
L -38 0 
z
" transform="scale(0.015625)"/>
        <path id="DejaVuSerif-47" d="M 4097 3272 
Q 3988 3856 3641 4136 
Q 3294 4416 2675 4416 
Q 1869 4416 1472 3897 
Q 1075 3378 1075 2328 
Q 1075 1300 1484 772 
Q 1894 244 2688 244 
Q 3041 244 3362 331 
Q 3684 419 3975 594 
L 3975 1797 
L 3097 1797 
L 3097 2131 
L 4609 2131 
L 4609 391 
Q 4194 150 3714 29 
Q 3234 -91 2688 -91 
Q 1631 -91 995 570 
Q 359 1231 359 2328 
Q 359 3434 996 4092 
Q 1634 4750 2713 4750 
Q 3113 4750 3539 4658 
Q 3966 4566 4447 4378 
L 4447 3272 
L 4097 3272 
z
" transform="scale(0.015625)"/>
        <path id="DejaVuSerif-55" d="M 897 4331 
L 300 4331 
L 300 4666 
L 2125 4666 
L 2125 4331 
L 1528 4331 
L 1528 1919 
Q 1528 1025 1820 672 
Q 2113 319 2828 319 
Q 3544 319 3836 672 
Q 4128 1025 4128 1919 
L 4128 4331 
L 3531 4331 
L 3531 4666 
L 5106 4666 
L 5106 4331 
L 4513 4331 
L 4513 1856 
Q 4513 791 4103 350 
Q 3694 -91 2713 -91 
Q 1731 -91 1314 353 
Q 897 797 897 1856 
L 897 4331 
z
" transform="scale(0.015625)"/>
        <path id="DejaVuSerif-52" d="M 3066 2316 
Q 3284 2256 3442 2114 
Q 3600 1972 3725 1716 
L 4403 331 
L 4972 331 
L 4972 0 
L 3872 0 
L 3144 1484 
Q 2934 1916 2759 2042 
Q 2584 2169 2278 2169 
L 1581 2169 
L 1581 331 
L 2241 331 
L 2241 0 
L 353 0 
L 353 331 
L 947 331 
L 947 4331 
L 353 4331 
L 353 4666 
L 2719 4666 
Q 3400 4666 3770 4341 
Q 4141 4016 4141 3419 
Q 4141 2938 3870 2661 
Q 3600 2384 3066 2316 
z
M 1581 2503 
L 2503 2503 
Q 2975 2503 3200 2726 
Q 3425 2950 3425 3419 
Q 3425 3888 3200 4109 
Q 2975 4331 2503 4331 
L 1581 4331 
L 1581 2503 
z
" transform="scale(0.015625)"/>
        <path id="DejaVuSerif-48" d="M 353 0 
L 353 331 
L 947 331 
L 947 4331 
L 353 4331 
L 353 4666 
L 2175 4666 
L 2175 4331 
L 1581 4331 
L 1581 2719 
L 4000 2719 
L 4000 4331 
L 3406 4331 
L 3406 4666 
L 5228 4666 
L 5228 4331 
L 4634 4331 
L 4634 331 
L 5228 331 
L 5228 0 
L 3406 0 
L 3406 331 
L 4000 331 
L 4000 2338 
L 1581 2338 
L 1581 331 
L 2175 331 
L 2175 0 
L 353 0 
z
" transform="scale(0.015625)"/>
        <path id="DejaVuSerif-45" d="M 353 0 
L 353 331 
L 947 331 
L 947 4331 
L 353 4331 
L 353 4666 
L 4109 4666 
L 4109 3628 
L 3725 3628 
L 3725 4281 
L 1581 4281 
L 1581 2719 
L 3109 2719 
L 3109 3303 
L 3494 3303 
L 3494 1753 
L 3109 1753 
L 3109 2338 
L 1581 2338 
L 1581 384 
L 3775 384 
L 3775 1038 
L 4159 1038 
L 4159 0 
L 353 0 
z
" transform="scale(0.015625)"/>
       </defs>
       <use xlink:href="#DejaVuSerif-33"/>
       <use xlink:href="#DejaVuSerif-30" x="63.623047"/>
       <use xlink:href="#DejaVuSerif-31" x="127.246094"/>
       <use xlink:href="#DejaVuSerif-20" x="190.869141"/>
       <use xlink:href="#DejaVuSerif-2d" x="222.65625"/>
       <use xlink:href="#DejaVuSerif-20" x="256.445312"/>
       <use xlink:href="#DejaVuSerif-4a" x="288.232422"/>
       <use xlink:href="#DejaVuSerif-41" x="328.320312"/>
       <use xlink:href="#DejaVuSerif-47" x="400.537109"/>
       <use xlink:href="#DejaVuSerif-55" x="480.419922"/>
       <use xlink:href="#DejaVuSerif-41" x="561.572266"/>
       <use xlink:href="#DejaVuSerif-52" x="633.789062"/>
       <use xlink:href="#DejaVuSerif-55" x="709.082031"/>
       <use xlink:href="#DejaVuSerif-48" x="793.359375"/>
       <use xlink:href="#DejaVuSerif-45" x="880.566406"/>
       <use xlink:href="#DejaVuSerif-30" x="953.564453"/>
       <use xlink:href="#DejaVuSerif-30" x="1017.1875"/>
       <use xlink:href="#DejaVuSerif-33" x="1080.810547"/>
      </g>
     </g>
    </g>
    <g id="xtick_2">
     <g id="line2d_3">
      <path d="M 191.874718 566.523356 
L 191.874718 122.768 
" clip-path="url(#p589e732c2d)" style="fill: none; stroke: #ffffff; stroke-width: 0.8; stroke-linecap: square"/>
     </g>
     <g id="line2d_4">
      <g>
       <use xlink:href="#md17891f9b6" x="191.874718" y="566.523356" style="stroke: #000000; stroke-width: 0.8"/>
      </g>
     </g>
     <g id="text_2">
      <!-- 315 - BARRE-SIN001 -->
      <g transform="translate(97.048772 738.922182) rotate(-60) scale(0.17 -0.17)">
       <defs>
        <path id="DejaVuSerif-35" d="M 3219 4666 
L 3219 4153 
L 1081 4153 
L 1081 2816 
Q 1244 2928 1461 2984 
Q 1678 3041 1947 3041 
Q 2703 3041 3140 2622 
Q 3578 2203 3578 1478 
Q 3578 738 3136 323 
Q 2694 -91 1894 -91 
Q 1572 -91 1234 -12 
Q 897 66 544 225 
L 544 1131 
L 897 1131 
Q 925 688 1179 453 
Q 1434 219 1894 219 
Q 2388 219 2653 544 
Q 2919 869 2919 1478 
Q 2919 2084 2655 2407 
Q 2391 2731 1894 2731 
Q 1613 2731 1398 2631 
Q 1184 2531 1019 2322 
L 750 2322 
L 750 4666 
L 3219 4666 
z
" transform="scale(0.015625)"/>
        <path id="DejaVuSerif-42" d="M 1581 331 
L 2516 331 
Q 3078 331 3337 575 
Q 3597 819 3597 1350 
Q 3597 1878 3339 2120 
Q 3081 2363 2516 2363 
L 1581 2363 
L 1581 331 
z
M 1581 2694 
L 2375 2694 
Q 2888 2694 3123 2891 
Q 3359 3088 3359 3513 
Q 3359 3941 3123 4136 
Q 2888 4331 2375 4331 
L 1581 4331 
L 1581 2694 
z
M 353 0 
L 353 331 
L 947 331 
L 947 4331 
L 353 4331 
L 353 4666 
L 2656 4666 
Q 3363 4666 3720 4377 
Q 4078 4088 4078 3513 
Q 4078 3097 3829 2850 
Q 3581 2603 3103 2547 
Q 3697 2472 4005 2167 
Q 4313 1863 4313 1350 
Q 4313 656 3875 328 
Q 3438 0 2509 0 
L 353 0 
z
" transform="scale(0.015625)"/>
        <path id="DejaVuSerif-53" d="M 594 225 
L 594 1288 
L 953 1284 
Q 969 753 1261 498 
Q 1553 244 2150 244 
Q 2706 244 2998 464 
Q 3291 684 3291 1106 
Q 3291 1444 3114 1625 
Q 2938 1806 2369 1978 
L 1753 2163 
Q 1084 2366 811 2669 
Q 538 2972 538 3500 
Q 538 4094 959 4422 
Q 1381 4750 2144 4750 
Q 2469 4750 2856 4679 
Q 3244 4609 3681 4475 
L 3681 3481 
L 3328 3481 
Q 3275 3975 2998 4195 
Q 2722 4416 2156 4416 
Q 1663 4416 1405 4214 
Q 1147 4013 1147 3628 
Q 1147 3294 1340 3103 
Q 1534 2913 2163 2725 
L 2741 2553 
Q 3375 2363 3645 2067 
Q 3916 1772 3916 1275 
Q 3916 597 3481 253 
Q 3047 -91 2188 -91 
Q 1803 -91 1404 -12 
Q 1006 66 594 225 
z
" transform="scale(0.015625)"/>
        <path id="DejaVuSerif-49" d="M 1581 331 
L 2175 331 
L 2175 0 
L 353 0 
L 353 331 
L 947 331 
L 947 4331 
L 353 4331 
L 353 4666 
L 2175 4666 
L 2175 4331 
L 1581 4331 
L 1581 331 
z
" transform="scale(0.015625)"/>
        <path id="DejaVuSerif-4e" d="M 313 0 
L 313 331 
L 941 331 
L 941 4331 
L 313 4331 
L 313 4666 
L 1509 4666 
L 4306 984 
L 4306 4331 
L 3681 4331 
L 3681 4666 
L 5319 4666 
L 5319 4331 
L 4691 4331 
L 4691 -91 
L 4313 -91 
L 1325 3841 
L 1325 331 
L 1953 331 
L 1953 0 
L 313 0 
z
" transform="scale(0.015625)"/>
       </defs>
       <use xlink:href="#DejaVuSerif-33"/>
       <use xlink:href="#DejaVuSerif-31" x="63.623047"/>
       <use xlink:href="#DejaVuSerif-35" x="127.246094"/>
       <use xlink:href="#DejaVuSerif-20" x="190.869141"/>
       <use xlink:href="#DejaVuSerif-2d" x="222.65625"/>
       <use xlink:href="#DejaVuSerif-20" x="256.445312"/>
       <use xlink:href="#DejaVuSerif-42" x="288.232422"/>
       <use xlink:href="#DejaVuSerif-41" x="361.71875"/>
       <use xlink:href="#DejaVuSerif-52" x="433.935547"/>
       <use xlink:href="#DejaVuSerif-52" x="509.228516"/>
       <use xlink:href="#DejaVuSerif-45" x="584.521484"/>
       <use xlink:href="#DejaVuSerif-2d" x="659.394531"/>
       <use xlink:href="#DejaVuSerif-53" x="693.183594"/>
       <use xlink:href="#DejaVuSerif-49" x="761.689453"/>
       <use xlink:href="#DejaVuSerif-4e" x="801.191406"/>
       <use xlink:href="#DejaVuSerif-30" x="888.691406"/>
       <use xlink:href="#DejaVuSerif-30" x="952.314453"/>
       <use xlink:href="#DejaVuSerif-31" x="1015.9375"/>
      </g>
     </g>
    </g>
    <g id="xtick_3">
     <g id="line2d_5">
      <path d="M 255.536796 566.523356 
L 255.536796 122.768 
" clip-path="url(#p589e732c2d)" style="fill: none; stroke: #ffffff; stroke-width: 0.8; stroke-linecap: square"/>
     </g>
     <g id="line2d_6">
      <g>
       <use xlink:href="#md17891f9b6" x="255.536796" y="566.523356" style="stroke: #000000; stroke-width: 0.8"/>
      </g>
     </g>
     <g id="text_3">
      <!-- 16 - FURNASUHE006 -->
      <g transform="translate(157.516709 744.454596) rotate(-60) scale(0.17 -0.17)">
       <defs>
        <path id="DejaVuSerif-36" d="M 2094 219 
Q 2534 219 2771 542 
Q 3009 866 3009 1472 
Q 3009 2078 2771 2401 
Q 2534 2725 2094 2725 
Q 1647 2725 1412 2412 
Q 1178 2100 1178 1509 
Q 1178 888 1415 553 
Q 1653 219 2094 219 
z
M 1075 2569 
Q 1288 2803 1556 2918 
Q 1825 3034 2163 3034 
Q 2859 3034 3264 2615 
Q 3669 2197 3669 1472 
Q 3669 763 3233 336 
Q 2797 -91 2069 -91 
Q 1278 -91 853 498 
Q 428 1088 428 2181 
Q 428 3406 931 4078 
Q 1434 4750 2350 4750 
Q 2597 4750 2869 4703 
Q 3141 4656 3425 4563 
L 3425 3794 
L 3072 3794 
Q 3034 4109 2831 4275 
Q 2628 4441 2284 4441 
Q 1678 4441 1381 3981 
Q 1084 3522 1075 2569 
z
" transform="scale(0.015625)"/>
        <path id="DejaVuSerif-46" d="M 353 0 
L 353 331 
L 947 331 
L 947 4331 
L 353 4331 
L 353 4666 
L 4172 4666 
L 4172 3628 
L 3788 3628 
L 3788 4281 
L 1581 4281 
L 1581 2719 
L 3175 2719 
L 3175 3303 
L 3559 3303 
L 3559 1753 
L 3175 1753 
L 3175 2338 
L 1581 2338 
L 1581 331 
L 2328 331 
L 2328 0 
L 353 0 
z
" transform="scale(0.015625)"/>
       </defs>
       <use xlink:href="#DejaVuSerif-31"/>
       <use xlink:href="#DejaVuSerif-36" x="63.623047"/>
       <use xlink:href="#DejaVuSerif-20" x="127.246094"/>
       <use xlink:href="#DejaVuSerif-2d" x="159.033203"/>
       <use xlink:href="#DejaVuSerif-20" x="192.822266"/>
       <use xlink:href="#DejaVuSerif-46" x="224.609375"/>
       <use xlink:href="#DejaVuSerif-55" x="293.994141"/>
       <use xlink:href="#DejaVuSerif-52" x="378.271484"/>
       <use xlink:href="#DejaVuSerif-4e" x="453.564453"/>
       <use xlink:href="#DejaVuSerif-41" x="541.064453"/>
       <use xlink:href="#DejaVuSerif-53" x="613.28125"/>
       <use xlink:href="#DejaVuSerif-55" x="681.787109"/>
       <use xlink:href="#DejaVuSerif-48" x="766.064453"/>
       <use xlink:href="#DejaVuSerif-45" x="853.271484"/>
       <use xlink:href="#DejaVuSerif-30" x="926.269531"/>
       <use xlink:href="#DejaVuSerif-30" x="989.892578"/>
       <use xlink:href="#DejaVuSerif-36" x="1053.515625"/>
      </g>
     </g>
    </g>
    <g id="xtick_4">
     <g id="line2d_7">
      <path d="M 319.198873 566.523356 
L 319.198873 122.768 
" clip-path="url(#p589e732c2d)" style="fill: none; stroke: #ffffff; stroke-width: 0.8; stroke-linecap: square"/>
     </g>
     <g id="line2d_8">
      <g>
       <use xlink:href="#md17891f9b6" x="319.198873" y="566.523356" style="stroke: #000000; stroke-width: 0.8"/>
      </g>
     </g>
     <g id="text_4">
      <!-- 22 - M.MORAUHE005 -->
      <g transform="translate(220.424411 745.761212) rotate(-60) scale(0.17 -0.17)">
       <defs>
        <path id="DejaVuSerif-32" d="M 819 3553 
L 469 3553 
L 469 4384 
Q 803 4563 1142 4656 
Q 1481 4750 1806 4750 
Q 2534 4750 2956 4397 
Q 3378 4044 3378 3438 
Q 3378 2753 2422 1800 
Q 2347 1728 2309 1691 
L 1131 513 
L 3078 513 
L 3078 1088 
L 3444 1088 
L 3444 0 
L 434 0 
L 434 341 
L 1850 1753 
Q 2319 2222 2519 2614 
Q 2719 3006 2719 3438 
Q 2719 3909 2473 4175 
Q 2228 4441 1797 4441 
Q 1350 4441 1106 4219 
Q 863 3997 819 3553 
z
" transform="scale(0.015625)"/>
        <path id="DejaVuSerif-4d" d="M 353 0 
L 353 331 
L 947 331 
L 947 4331 
L 319 4331 
L 319 4666 
L 1678 4666 
L 3316 1344 
L 4953 4666 
L 6228 4666 
L 6228 4331 
L 5606 4331 
L 5606 331 
L 6203 331 
L 6203 0 
L 4378 0 
L 4378 331 
L 4972 331 
L 4972 3938 
L 3372 684 
L 2931 684 
L 1331 3938 
L 1331 331 
L 1925 331 
L 1925 0 
L 353 0 
z
" transform="scale(0.015625)"/>
        <path id="DejaVuSerif-2e" d="M 603 325 
Q 603 500 722 622 
Q 841 744 1019 744 
Q 1191 744 1312 622 
Q 1434 500 1434 325 
Q 1434 153 1312 31 
Q 1191 -91 1019 -91 
Q 841 -91 722 29 
Q 603 150 603 325 
z
" transform="scale(0.015625)"/>
        <path id="DejaVuSerif-4f" d="M 2625 244 
Q 3391 244 3781 770 
Q 4172 1297 4172 2328 
Q 4172 3363 3781 3889 
Q 3391 4416 2625 4416 
Q 1856 4416 1465 3889 
Q 1075 3363 1075 2328 
Q 1075 1297 1465 770 
Q 1856 244 2625 244 
z
M 2625 -91 
Q 2150 -91 1751 65 
Q 1353 222 1050 525 
Q 700 875 529 1319 
Q 359 1763 359 2328 
Q 359 2894 529 3339 
Q 700 3784 1050 4134 
Q 1356 4441 1750 4595 
Q 2144 4750 2625 4750 
Q 3641 4750 4266 4084 
Q 4891 3419 4891 2328 
Q 4891 1769 4719 1320 
Q 4547 872 4197 525 
Q 3891 219 3497 64 
Q 3103 -91 2625 -91 
z
" transform="scale(0.015625)"/>
       </defs>
       <use xlink:href="#DejaVuSerif-32"/>
       <use xlink:href="#DejaVuSerif-32" x="63.623047"/>
       <use xlink:href="#DejaVuSerif-20" x="127.246094"/>
       <use xlink:href="#DejaVuSerif-2d" x="159.033203"/>
       <use xlink:href="#DejaVuSerif-20" x="192.822266"/>
       <use xlink:href="#DejaVuSerif-4d" x="224.609375"/>
       <use xlink:href="#DejaVuSerif-2e" x="327.001953"/>
       <use xlink:href="#DejaVuSerif-4d" x="358.789062"/>
       <use xlink:href="#DejaVuSerif-4f" x="461.181641"/>
       <use xlink:href="#DejaVuSerif-52" x="543.164062"/>
       <use xlink:href="#DejaVuSerif-41" x="618.457031"/>
       <use xlink:href="#DejaVuSerif-55" x="690.673828"/>
       <use xlink:href="#DejaVuSerif-48" x="774.951172"/>
       <use xlink:href="#DejaVuSerif-45" x="862.158203"/>
       <use xlink:href="#DejaVuSerif-30" x="935.15625"/>
       <use xlink:href="#DejaVuSerif-30" x="998.779297"/>
       <use xlink:href="#DejaVuSerif-35" x="1062.402344"/>
      </g>
     </g>
    </g>
    <g id="xtick_5">
     <g id="line2d_9">
      <path d="M 382.860951 566.523356 
L 382.860951 122.768 
" clip-path="url(#p589e732c2d)" style="fill: none; stroke: #ffffff; stroke-width: 0.8; stroke-linecap: square"/>
     </g>
     <g id="line2d_10">
      <g>
       <use xlink:href="#md17891f9b6" x="382.860951" y="566.523356" style="stroke: #000000; stroke-width: 0.8"/>
      </g>
     </g>
     <g id="text_5">
      <!-- 305 - V.GRD-UHE003 -->
      <g transform="translate(287.90352 739.14992) rotate(-60) scale(0.17 -0.17)">
       <defs>
        <path id="DejaVuSerif-56" d="M 1119 4331 
L 2497 750 
L 3872 4331 
L 3347 4331 
L 3347 4666 
L 4716 4666 
L 4716 4331 
L 4263 4331 
L 2597 0 
L 2059 0 
L 403 4331 
L -63 4331 
L -63 4666 
L 1638 4666 
L 1638 4331 
L 1119 4331 
z
" transform="scale(0.015625)"/>
        <path id="DejaVuSerif-44" d="M 1581 331 
L 2163 331 
Q 3072 331 3558 850 
Q 4044 1369 4044 2338 
Q 4044 3306 3559 3818 
Q 3075 4331 2163 4331 
L 1581 4331 
L 1581 331 
z
M 353 0 
L 353 331 
L 947 331 
L 947 4331 
L 353 4331 
L 353 4666 
L 2209 4666 
Q 3416 4666 4089 4050 
Q 4763 3434 4763 2338 
Q 4763 1238 4088 619 
Q 3413 0 2209 0 
L 353 0 
z
" transform="scale(0.015625)"/>
       </defs>
       <use xlink:href="#DejaVuSerif-33"/>
       <use xlink:href="#DejaVuSerif-30" x="63.623047"/>
       <use xlink:href="#DejaVuSerif-35" x="127.246094"/>
       <use xlink:href="#DejaVuSerif-20" x="190.869141"/>
       <use xlink:href="#DejaVuSerif-2d" x="222.65625"/>
       <use xlink:href="#DejaVuSerif-20" x="256.445312"/>
       <use xlink:href="#DejaVuSerif-56" x="288.232422"/>
       <use xlink:href="#DejaVuSerif-2e" x="342.949219"/>
       <use xlink:href="#DejaVuSerif-47" x="374.736328"/>
       <use xlink:href="#DejaVuSerif-52" x="454.619141"/>
       <use xlink:href="#DejaVuSerif-44" x="529.912109"/>
       <use xlink:href="#DejaVuSerif-2d" x="611.962891"/>
       <use xlink:href="#DejaVuSerif-55" x="645.751953"/>
       <use xlink:href="#DejaVuSerif-48" x="730.029297"/>
       <use xlink:href="#DejaVuSerif-45" x="817.236328"/>
       <use xlink:href="#DejaVuSerif-30" x="890.234375"/>
       <use xlink:href="#DejaVuSerif-30" x="953.857422"/>
       <use xlink:href="#DejaVuSerif-33" x="1017.480469"/>
      </g>
     </g>
    </g>
    <g id="xtick_6">
     <g id="line2d_11">
      <path d="M 446.523028 566.523356 
L 446.523028 122.768 
" clip-path="url(#p589e732c2d)" style="fill: none; stroke: #ffffff; stroke-width: 0.8; stroke-linecap: square"/>
     </g>
     <g id="line2d_12">
      <g>
       <use xlink:href="#md17891f9b6" x="446.523028" y="566.523356" style="stroke: #000000; stroke-width: 0.8"/>
      </g>
     </g>
     <g id="text_6">
      <!-- 304 - T.MAR-UHE005 -->
      <g transform="translate(350.723566 740.608361) rotate(-60) scale(0.17 -0.17)">
       <defs>
        <path id="DejaVuSerif-34" d="M 2234 1581 
L 2234 4063 
L 641 1581 
L 2234 1581 
z
M 3609 0 
L 1484 0 
L 1484 331 
L 2234 331 
L 2234 1247 
L 197 1247 
L 197 1588 
L 2241 4750 
L 2859 4750 
L 2859 1581 
L 3750 1581 
L 3750 1247 
L 2859 1247 
L 2859 331 
L 3609 331 
L 3609 0 
z
" transform="scale(0.015625)"/>
        <path id="DejaVuSerif-54" d="M 1222 0 
L 1222 331 
L 1819 331 
L 1819 4294 
L 447 4294 
L 447 3566 
L 63 3566 
L 63 4666 
L 4206 4666 
L 4206 3566 
L 3822 3566 
L 3822 4294 
L 2450 4294 
L 2450 331 
L 3047 331 
L 3047 0 
L 1222 0 
z
" transform="scale(0.015625)"/>
       </defs>
       <use xlink:href="#DejaVuSerif-33"/>
       <use xlink:href="#DejaVuSerif-30" x="63.623047"/>
       <use xlink:href="#DejaVuSerif-34" x="127.246094"/>
       <use xlink:href="#DejaVuSerif-20" x="190.869141"/>
       <use xlink:href="#DejaVuSerif-2d" x="222.65625"/>
       <use xlink:href="#DejaVuSerif-20" x="256.445312"/>
       <use xlink:href="#DejaVuSerif-54" x="288.232422"/>
       <use xlink:href="#DejaVuSerif-2e" x="340.181641"/>
       <use xlink:href="#DejaVuSerif-4d" x="371.96875"/>
       <use xlink:href="#DejaVuSerif-41" x="474.361328"/>
       <use xlink:href="#DejaVuSerif-52" x="546.578125"/>
       <use xlink:href="#DejaVuSerif-2d" x="621.871094"/>
       <use xlink:href="#DejaVuSerif-55" x="655.660156"/>
       <use xlink:href="#DejaVuSerif-48" x="739.9375"/>
       <use xlink:href="#DejaVuSerif-45" x="827.144531"/>
       <use xlink:href="#DejaVuSerif-30" x="900.142578"/>
       <use xlink:href="#DejaVuSerif-30" x="963.765625"/>
       <use xlink:href="#DejaVuSerif-35" x="1027.388672"/>
      </g>
     </g>
    </g>
    <g id="xtick_7">
     <g id="line2d_13">
      <path d="M 510.185106 566.523356 
L 510.185106 122.768 
" clip-path="url(#p589e732c2d)" style="fill: none; stroke: #ffffff; stroke-width: 0.8; stroke-linecap: square"/>
     </g>
     <g id="line2d_14">
      <g>
       <use xlink:href="#md17891f9b6" x="510.185106" y="566.523356" style="stroke: #000000; stroke-width: 0.8"/>
      </g>
     </g>
     <g id="text_7">
      <!-- 17 - FURNASSIN001 -->
      <g transform="translate(416.477441 736.985262) rotate(-60) scale(0.17 -0.17)">
       <defs>
        <path id="DejaVuSerif-37" d="M 3609 4347 
L 1784 0 
L 1319 0 
L 3059 4153 
L 903 4153 
L 903 3578 
L 538 3578 
L 538 4666 
L 3609 4666 
L 3609 4347 
z
" transform="scale(0.015625)"/>
       </defs>
       <use xlink:href="#DejaVuSerif-31"/>
       <use xlink:href="#DejaVuSerif-37" x="63.623047"/>
       <use xlink:href="#DejaVuSerif-20" x="127.246094"/>
       <use xlink:href="#DejaVuSerif-2d" x="159.033203"/>
       <use xlink:href="#DejaVuSerif-20" x="192.822266"/>
       <use xlink:href="#DejaVuSerif-46" x="224.609375"/>
       <use xlink:href="#DejaVuSerif-55" x="293.994141"/>
       <use xlink:href="#DejaVuSerif-52" x="378.271484"/>
       <use xlink:href="#DejaVuSerif-4e" x="453.564453"/>
       <use xlink:href="#DejaVuSerif-41" x="541.064453"/>
       <use xlink:href="#DejaVuSerif-53" x="613.28125"/>
       <use xlink:href="#DejaVuSerif-53" x="680.037109"/>
       <use xlink:href="#DejaVuSerif-49" x="748.542969"/>
       <use xlink:href="#DejaVuSerif-4e" x="788.044922"/>
       <use xlink:href="#DejaVuSerif-30" x="875.544922"/>
       <use xlink:href="#DejaVuSerif-30" x="939.167969"/>
       <use xlink:href="#DejaVuSerif-31" x="1002.791016"/>
      </g>
     </g>
    </g>
    <g id="xtick_8">
     <g id="line2d_15">
      <path d="M 573.847184 566.523356 
L 573.847184 122.768 
" clip-path="url(#p589e732c2d)" style="fill: none; stroke: #ffffff; stroke-width: 0.8; stroke-linecap: square"/>
     </g>
     <g id="line2d_16">
      <g>
       <use xlink:href="#md17891f9b6" x="573.847184" y="566.523356" style="stroke: #000000; stroke-width: 0.8"/>
      </g>
     </g>
     <g id="text_8">
      <!-- 4064 - IRAPE-UHE003 -->
      <g transform="translate(473.01944 749.317599) rotate(-60) scale(0.17 -0.17)">
       <defs>
        <path id="DejaVuSerif-50" d="M 1581 2375 
L 2406 2375 
Q 2872 2375 3115 2626 
Q 3359 2878 3359 3353 
Q 3359 3831 3115 4081 
Q 2872 4331 2406 4331 
L 1581 4331 
L 1581 2375 
z
M 353 0 
L 353 331 
L 947 331 
L 947 4331 
L 353 4331 
L 353 4666 
L 2559 4666 
Q 3259 4666 3668 4311 
Q 4078 3956 4078 3353 
Q 4078 2753 3668 2397 
Q 3259 2041 2559 2041 
L 1581 2041 
L 1581 331 
L 2303 331 
L 2303 0 
L 353 0 
z
" transform="scale(0.015625)"/>
       </defs>
       <use xlink:href="#DejaVuSerif-34"/>
       <use xlink:href="#DejaVuSerif-30" x="63.623047"/>
       <use xlink:href="#DejaVuSerif-36" x="127.246094"/>
       <use xlink:href="#DejaVuSerif-34" x="190.869141"/>
       <use xlink:href="#DejaVuSerif-20" x="254.492188"/>
       <use xlink:href="#DejaVuSerif-2d" x="286.279297"/>
       <use xlink:href="#DejaVuSerif-20" x="320.068359"/>
       <use xlink:href="#DejaVuSerif-49" x="351.855469"/>
       <use xlink:href="#DejaVuSerif-52" x="391.357422"/>
       <use xlink:href="#DejaVuSerif-41" x="466.650391"/>
       <use xlink:href="#DejaVuSerif-50" x="538.867188"/>
       <use xlink:href="#DejaVuSerif-45" x="606.152344"/>
       <use xlink:href="#DejaVuSerif-2d" x="681.025391"/>
       <use xlink:href="#DejaVuSerif-55" x="714.814453"/>
       <use xlink:href="#DejaVuSerif-48" x="799.091797"/>
       <use xlink:href="#DejaVuSerif-45" x="886.298828"/>
       <use xlink:href="#DejaVuSerif-30" x="959.296875"/>
       <use xlink:href="#DejaVuSerif-30" x="1022.919922"/>
       <use xlink:href="#DejaVuSerif-33" x="1086.542969"/>
      </g>
     </g>
    </g>
    <g id="xtick_9">
     <g id="line2d_17">
      <path d="M 637.509261 566.523356 
L 637.509261 122.768 
" clip-path="url(#p589e732c2d)" style="fill: none; stroke: #ffffff; stroke-width: 0.8; stroke-linecap: square"/>
     </g>
     <g id="line2d_18">
      <g>
       <use xlink:href="#md17891f9b6" x="637.509261" y="566.523356" style="stroke: #000000; stroke-width: 0.8"/>
      </g>
     </g>
     <g id="text_9">
      <!-- 9037 - VGRANDSIN000 -->
      <g transform="translate(531.977299 757.465545) rotate(-60) scale(0.17 -0.17)">
       <defs>
        <path id="DejaVuSerif-39" d="M 2994 2091 
Q 2784 1856 2512 1740 
Q 2241 1625 1900 1625 
Q 1206 1625 804 2044 
Q 403 2463 403 3188 
Q 403 3897 839 4323 
Q 1275 4750 2003 4750 
Q 2794 4750 3217 4161 
Q 3641 3572 3641 2478 
Q 3641 1253 3137 581 
Q 2634 -91 1722 -91 
Q 1475 -91 1203 -44 
Q 931 3 647 97 
L 647 872 
L 997 872 
Q 1038 556 1241 387 
Q 1444 219 1784 219 
Q 2391 219 2687 676 
Q 2984 1134 2994 2091 
z
M 1978 4441 
Q 1534 4441 1298 4117 
Q 1063 3794 1063 3188 
Q 1063 2581 1298 2256 
Q 1534 1931 1978 1931 
Q 2422 1931 2658 2245 
Q 2894 2559 2894 3150 
Q 2894 3772 2656 4106 
Q 2419 4441 1978 4441 
z
" transform="scale(0.015625)"/>
       </defs>
       <use xlink:href="#DejaVuSerif-39"/>
       <use xlink:href="#DejaVuSerif-30" x="63.623047"/>
       <use xlink:href="#DejaVuSerif-33" x="127.246094"/>
       <use xlink:href="#DejaVuSerif-37" x="190.869141"/>
       <use xlink:href="#DejaVuSerif-20" x="254.492188"/>
       <use xlink:href="#DejaVuSerif-2d" x="286.279297"/>
       <use xlink:href="#DejaVuSerif-20" x="320.068359"/>
       <use xlink:href="#DejaVuSerif-56" x="351.855469"/>
       <use xlink:href="#DejaVuSerif-47" x="424.072266"/>
       <use xlink:href="#DejaVuSerif-52" x="503.955078"/>
       <use xlink:href="#DejaVuSerif-41" x="579.248047"/>
       <use xlink:href="#DejaVuSerif-4e" x="651.464844"/>
       <use xlink:href="#DejaVuSerif-44" x="738.964844"/>
       <use xlink:href="#DejaVuSerif-53" x="819.140625"/>
       <use xlink:href="#DejaVuSerif-49" x="887.646484"/>
       <use xlink:href="#DejaVuSerif-4e" x="927.148438"/>
       <use xlink:href="#DejaVuSerif-30" x="1014.648438"/>
       <use xlink:href="#DejaVuSerif-30" x="1078.271484"/>
       <use xlink:href="#DejaVuSerif-30" x="1141.894531"/>
      </g>
     </g>
    </g>
    <g id="xtick_10">
     <g id="line2d_19">
      <path d="M 701.171339 566.523356 
L 701.171339 122.768 
" clip-path="url(#p589e732c2d)" style="fill: none; stroke: #ffffff; stroke-width: 0.8; stroke-linecap: square"/>
     </g>
     <g id="line2d_20">
      <g>
       <use xlink:href="#md17891f9b6" x="701.171339" y="566.523356" style="stroke: #000000; stroke-width: 0.8"/>
      </g>
     </g>
     <g id="text_10">
      <!-- 9041 - IRAPE-SIN000 -->
      <g transform="translate(604.507268 742.105908) rotate(-60) scale(0.17 -0.17)">
       <use xlink:href="#DejaVuSerif-39"/>
       <use xlink:href="#DejaVuSerif-30" x="63.623047"/>
       <use xlink:href="#DejaVuSerif-34" x="127.246094"/>
       <use xlink:href="#DejaVuSerif-31" x="190.869141"/>
       <use xlink:href="#DejaVuSerif-20" x="254.492188"/>
       <use xlink:href="#DejaVuSerif-2d" x="286.279297"/>
       <use xlink:href="#DejaVuSerif-20" x="320.068359"/>
       <use xlink:href="#DejaVuSerif-49" x="351.855469"/>
       <use xlink:href="#DejaVuSerif-52" x="391.357422"/>
       <use xlink:href="#DejaVuSerif-41" x="466.650391"/>
       <use xlink:href="#DejaVuSerif-50" x="538.867188"/>
       <use xlink:href="#DejaVuSerif-45" x="606.152344"/>
       <use xlink:href="#DejaVuSerif-2d" x="681.025391"/>
       <use xlink:href="#DejaVuSerif-53" x="714.814453"/>
       <use xlink:href="#DejaVuSerif-49" x="783.320312"/>
       <use xlink:href="#DejaVuSerif-4e" x="822.822266"/>
       <use xlink:href="#DejaVuSerif-30" x="910.322266"/>
       <use xlink:href="#DejaVuSerif-30" x="973.945312"/>
       <use xlink:href="#DejaVuSerif-30" x="1037.568359"/>
      </g>
     </g>
    </g>
    <g id="xtick_11">
     <g id="line2d_21">
      <path d="M 764.833417 566.523356 
L 764.833417 122.768 
" clip-path="url(#p589e732c2d)" style="fill: none; stroke: #ffffff; stroke-width: 0.8; stroke-linecap: square"/>
     </g>
     <g id="line2d_22">
      <g>
       <use xlink:href="#md17891f9b6" x="764.833417" y="566.523356" style="stroke: #000000; stroke-width: 0.8"/>
      </g>
     </g>
     <g id="text_11">
      <!-- 7450 - L.SV1-UFV034 -->
      <g transform="translate(667.850595 742.657999) rotate(-60) scale(0.17 -0.17)">
       <defs>
        <path id="DejaVuSerif-4c" d="M 353 0 
L 353 331 
L 947 331 
L 947 4331 
L 353 4331 
L 353 4666 
L 2175 4666 
L 2175 4331 
L 1581 4331 
L 1581 384 
L 3713 384 
L 3713 1166 
L 4097 1166 
L 4097 0 
L 353 0 
z
" transform="scale(0.015625)"/>
       </defs>
       <use xlink:href="#DejaVuSerif-37"/>
       <use xlink:href="#DejaVuSerif-34" x="63.623047"/>
       <use xlink:href="#DejaVuSerif-35" x="127.246094"/>
       <use xlink:href="#DejaVuSerif-30" x="190.869141"/>
       <use xlink:href="#DejaVuSerif-20" x="254.492188"/>
       <use xlink:href="#DejaVuSerif-2d" x="286.279297"/>
       <use xlink:href="#DejaVuSerif-20" x="320.068359"/>
       <use xlink:href="#DejaVuSerif-4c" x="351.855469"/>
       <use xlink:href="#DejaVuSerif-2e" x="418.261719"/>
       <use xlink:href="#DejaVuSerif-53" x="450.048828"/>
       <use xlink:href="#DejaVuSerif-56" x="518.554688"/>
       <use xlink:href="#DejaVuSerif-31" x="590.771484"/>
       <use xlink:href="#DejaVuSerif-2d" x="654.394531"/>
       <use xlink:href="#DejaVuSerif-55" x="688.183594"/>
       <use xlink:href="#DejaVuSerif-46" x="772.460938"/>
       <use xlink:href="#DejaVuSerif-56" x="841.845703"/>
       <use xlink:href="#DejaVuSerif-30" x="914.0625"/>
       <use xlink:href="#DejaVuSerif-33" x="977.685547"/>
       <use xlink:href="#DejaVuSerif-34" x="1041.308594"/>
      </g>
     </g>
    </g>
    <g id="xtick_12">
     <g id="line2d_23">
      <path d="M 828.495494 566.523356 
L 828.495494 122.768 
" clip-path="url(#p589e732c2d)" style="fill: none; stroke: #ffffff; stroke-width: 0.8; stroke-linecap: square"/>
     </g>
     <g id="line2d_24">
      <g>
       <use xlink:href="#md17891f9b6" x="828.495494" y="566.523356" style="stroke: #000000; stroke-width: 0.8"/>
      </g>
     </g>
     <g id="text_12">
      <!-- 7583 - L.SV2-UFV034 -->
      <g transform="translate(731.512673 742.657999) rotate(-60) scale(0.17 -0.17)">
       <defs>
        <path id="DejaVuSerif-38" d="M 2981 1275 
Q 2981 1775 2732 2051 
Q 2484 2328 2034 2328 
Q 1584 2328 1336 2051 
Q 1088 1775 1088 1275 
Q 1088 772 1336 495 
Q 1584 219 2034 219 
Q 2484 219 2732 495 
Q 2981 772 2981 1275 
z
M 2853 3541 
Q 2853 3966 2637 4203 
Q 2422 4441 2034 4441 
Q 1650 4441 1433 4203 
Q 1216 3966 1216 3541 
Q 1216 3113 1433 2875 
Q 1650 2638 2034 2638 
Q 2422 2638 2637 2875 
Q 2853 3113 2853 3541 
z
M 2516 2484 
Q 3047 2413 3344 2092 
Q 3641 1772 3641 1275 
Q 3641 619 3225 264 
Q 2809 -91 2034 -91 
Q 1263 -91 845 264 
Q 428 619 428 1275 
Q 428 1772 725 2092 
Q 1022 2413 1556 2484 
Q 1084 2569 832 2842 
Q 581 3116 581 3541 
Q 581 4103 968 4426 
Q 1356 4750 2034 4750 
Q 2713 4750 3100 4426 
Q 3488 4103 3488 3541 
Q 3488 3116 3236 2842 
Q 2984 2569 2516 2484 
z
" transform="scale(0.015625)"/>
       </defs>
       <use xlink:href="#DejaVuSerif-37"/>
       <use xlink:href="#DejaVuSerif-35" x="63.623047"/>
       <use xlink:href="#DejaVuSerif-38" x="127.246094"/>
       <use xlink:href="#DejaVuSerif-33" x="190.869141"/>
       <use xlink:href="#DejaVuSerif-20" x="254.492188"/>
       <use xlink:href="#DejaVuSerif-2d" x="286.279297"/>
       <use xlink:href="#DejaVuSerif-20" x="320.068359"/>
       <use xlink:href="#DejaVuSerif-4c" x="351.855469"/>
       <use xlink:href="#DejaVuSerif-2e" x="418.261719"/>
       <use xlink:href="#DejaVuSerif-53" x="450.048828"/>
       <use xlink:href="#DejaVuSerif-56" x="518.554688"/>
       <use xlink:href="#DejaVuSerif-32" x="590.771484"/>
       <use xlink:href="#DejaVuSerif-2d" x="654.394531"/>
       <use xlink:href="#DejaVuSerif-55" x="688.183594"/>
       <use xlink:href="#DejaVuSerif-46" x="772.460938"/>
       <use xlink:href="#DejaVuSerif-56" x="841.845703"/>
       <use xlink:href="#DejaVuSerif-30" x="914.0625"/>
       <use xlink:href="#DejaVuSerif-33" x="977.685547"/>
       <use xlink:href="#DejaVuSerif-34" x="1041.308594"/>
      </g>
     </g>
    </g>
    <g id="xtick_13">
     <g id="line2d_25">
      <path d="M 892.157572 566.523356 
L 892.157572 122.768 
" clip-path="url(#p589e732c2d)" style="fill: none; stroke: #ffffff; stroke-width: 0.8; stroke-linecap: square"/>
     </g>
     <g id="line2d_26">
      <g>
       <use xlink:href="#md17891f9b6" x="892.157572" y="566.523356" style="stroke: #000000; stroke-width: 0.8"/>
      </g>
     </g>
     <g id="text_13">
      <!-- 7788 - HV6A10UFV034 -->
      <g transform="translate(787.848813 755.346895) rotate(-60) scale(0.17 -0.17)">
       <use xlink:href="#DejaVuSerif-37"/>
       <use xlink:href="#DejaVuSerif-37" x="63.623047"/>
       <use xlink:href="#DejaVuSerif-38" x="127.246094"/>
       <use xlink:href="#DejaVuSerif-38" x="190.869141"/>
       <use xlink:href="#DejaVuSerif-20" x="254.492188"/>
       <use xlink:href="#DejaVuSerif-2d" x="286.279297"/>
       <use xlink:href="#DejaVuSerif-20" x="320.068359"/>
       <use xlink:href="#DejaVuSerif-48" x="351.855469"/>
       <use xlink:href="#DejaVuSerif-56" x="439.0625"/>
       <use xlink:href="#DejaVuSerif-36" x="511.279297"/>
       <use xlink:href="#DejaVuSerif-41" x="574.902344"/>
       <use xlink:href="#DejaVuSerif-31" x="647.119141"/>
       <use xlink:href="#DejaVuSerif-30" x="710.742188"/>
       <use xlink:href="#DejaVuSerif-55" x="774.365234"/>
       <use xlink:href="#DejaVuSerif-46" x="858.642578"/>
       <use xlink:href="#DejaVuSerif-56" x="928.027344"/>
       <use xlink:href="#DejaVuSerif-30" x="1000.244141"/>
       <use xlink:href="#DejaVuSerif-33" x="1063.867188"/>
       <use xlink:href="#DejaVuSerif-34" x="1127.490234"/>
      </g>
     </g>
    </g>
    <g id="xtick_14">
     <g id="line2d_27">
      <path d="M 955.81965 566.523356 
L 955.81965 122.768 
" clip-path="url(#p589e732c2d)" style="fill: none; stroke: #ffffff; stroke-width: 0.8; stroke-linecap: square"/>
     </g>
     <g id="line2d_28">
      <g>
       <use xlink:href="#md17891f9b6" x="955.81965" y="566.523356" style="stroke: #000000; stroke-width: 0.8"/>
      </g>
     </g>
     <g id="text_14">
      <!-- 7787 - HV1A5-UFV034 -->
      <g transform="translate(854.046281 750.95547) rotate(-60) scale(0.17 -0.17)">
       <use xlink:href="#DejaVuSerif-37"/>
       <use xlink:href="#DejaVuSerif-37" x="63.623047"/>
       <use xlink:href="#DejaVuSerif-38" x="127.246094"/>
       <use xlink:href="#DejaVuSerif-37" x="190.869141"/>
       <use xlink:href="#DejaVuSerif-20" x="254.492188"/>
       <use xlink:href="#DejaVuSerif-2d" x="286.279297"/>
       <use xlink:href="#DejaVuSerif-20" x="320.068359"/>
       <use xlink:href="#DejaVuSerif-48" x="351.855469"/>
       <use xlink:href="#DejaVuSerif-56" x="439.0625"/>
       <use xlink:href="#DejaVuSerif-31" x="511.279297"/>
       <use xlink:href="#DejaVuSerif-41" x="574.902344"/>
       <use xlink:href="#DejaVuSerif-35" x="647.119141"/>
       <use xlink:href="#DejaVuSerif-2d" x="710.742188"/>
       <use xlink:href="#DejaVuSerif-55" x="744.53125"/>
       <use xlink:href="#DejaVuSerif-46" x="828.808594"/>
       <use xlink:href="#DejaVuSerif-56" x="898.193359"/>
       <use xlink:href="#DejaVuSerif-30" x="970.410156"/>
       <use xlink:href="#DejaVuSerif-33" x="1034.033203"/>
       <use xlink:href="#DejaVuSerif-34" x="1097.65625"/>
      </g>
     </g>
    </g>
    <g id="text_15">
     <!-- Barra -->
     <g transform="translate(514.624973 777.670311) scale(0.19 -0.19)">
      <defs>
       <path id="DejaVuSerif-61" d="M 2547 1044 
L 2547 1747 
L 1806 1747 
Q 1378 1747 1168 1562 
Q 959 1378 959 997 
Q 959 650 1171 447 
Q 1384 244 1747 244 
Q 2106 244 2326 466 
Q 2547 688 2547 1044 
z
M 3122 2075 
L 3122 331 
L 3634 331 
L 3634 0 
L 2547 0 
L 2547 359 
Q 2356 128 2106 18 
Q 1856 -91 1522 -91 
Q 969 -91 644 203 
Q 319 497 319 997 
Q 319 1513 691 1797 
Q 1063 2081 1741 2081 
L 2547 2081 
L 2547 2309 
Q 2547 2688 2317 2895 
Q 2088 3103 1672 3103 
Q 1328 3103 1125 2947 
Q 922 2791 872 2484 
L 575 2484 
L 575 3156 
Q 875 3284 1158 3348 
Q 1441 3413 1709 3413 
Q 2400 3413 2761 3070 
Q 3122 2728 3122 2075 
z
" transform="scale(0.015625)"/>
       <path id="DejaVuSerif-72" d="M 3059 3328 
L 3059 2497 
L 2728 2497 
Q 2713 2744 2591 2866 
Q 2469 2988 2234 2988 
Q 1809 2988 1582 2694 
Q 1356 2400 1356 1850 
L 1356 331 
L 2022 331 
L 2022 0 
L 263 0 
L 263 331 
L 781 331 
L 781 2994 
L 231 2994 
L 231 3322 
L 1356 3322 
L 1356 2731 
Q 1525 3078 1790 3245 
Q 2056 3413 2438 3413 
Q 2578 3413 2733 3391 
Q 2888 3369 3059 3328 
z
" transform="scale(0.015625)"/>
      </defs>
      <use xlink:href="#DejaVuSerif-42"/>
      <use xlink:href="#DejaVuSerif-61" x="73.486328"/>
      <use xlink:href="#DejaVuSerif-72" x="133.105469"/>
      <use xlink:href="#DejaVuSerif-72" x="180.908203"/>
      <use xlink:href="#DejaVuSerif-61" x="228.710938"/>
     </g>
    </g>
   </g>
   <g id="matplotlib.axis_2">
    <g id="ytick_1">
     <g id="line2d_29">
      <path d="M 86.83229 548.773142 
L 997.2 548.773142 
" clip-path="url(#p589e732c2d)" style="fill: none; stroke: #ffffff; stroke-width: 0.8; stroke-linecap: square"/>
     </g>
     <g id="line2d_30">
      <defs>
       <path id="m0058f2e8f1" d="M 0 0 
L -3.5 0 
" style="stroke: #000000; stroke-width: 0.8"/>
      </defs>
      <g>
       <use xlink:href="#m0058f2e8f1" x="86.83229" y="548.773142" style="stroke: #000000; stroke-width: 0.8"/>
      </g>
     </g>
     <g id="text_16">
      <!-- 0.0 -->
      <g transform="translate(44.845415 557.131423) scale(0.22 -0.22)">
       <use xlink:href="#DejaVuSerif-30"/>
       <use xlink:href="#DejaVuSerif-2e" x="63.623047"/>
       <use xlink:href="#DejaVuSerif-30" x="95.410156"/>
      </g>
     </g>
    </g>
    <g id="ytick_2">
     <g id="line2d_31">
      <path d="M 86.83229 477.772285 
L 997.2 477.772285 
" clip-path="url(#p589e732c2d)" style="fill: none; stroke: #ffffff; stroke-width: 0.8; stroke-linecap: square"/>
     </g>
     <g id="line2d_32">
      <g>
       <use xlink:href="#m0058f2e8f1" x="86.83229" y="477.772285" style="stroke: #000000; stroke-width: 0.8"/>
      </g>
     </g>
     <g id="text_17">
      <!-- 0.2 -->
      <g transform="translate(44.845415 486.130566) scale(0.22 -0.22)">
       <use xlink:href="#DejaVuSerif-30"/>
       <use xlink:href="#DejaVuSerif-2e" x="63.623047"/>
       <use xlink:href="#DejaVuSerif-32" x="95.410156"/>
      </g>
     </g>
    </g>
    <g id="ytick_3">
     <g id="line2d_33">
      <path d="M 86.83229 406.771428 
L 997.2 406.771428 
" clip-path="url(#p589e732c2d)" style="fill: none; stroke: #ffffff; stroke-width: 0.8; stroke-linecap: square"/>
     </g>
     <g id="line2d_34">
      <g>
       <use xlink:href="#m0058f2e8f1" x="86.83229" y="406.771428" style="stroke: #000000; stroke-width: 0.8"/>
      </g>
     </g>
     <g id="text_18">
      <!-- 0.4 -->
      <g transform="translate(44.845415 415.129709) scale(0.22 -0.22)">
       <use xlink:href="#DejaVuSerif-30"/>
       <use xlink:href="#DejaVuSerif-2e" x="63.623047"/>
       <use xlink:href="#DejaVuSerif-34" x="95.410156"/>
      </g>
     </g>
    </g>
    <g id="ytick_4">
     <g id="line2d_35">
      <path d="M 86.83229 335.770571 
L 997.2 335.770571 
" clip-path="url(#p589e732c2d)" style="fill: none; stroke: #ffffff; stroke-width: 0.8; stroke-linecap: square"/>
     </g>
     <g id="line2d_36">
      <g>
       <use xlink:href="#m0058f2e8f1" x="86.83229" y="335.770571" style="stroke: #000000; stroke-width: 0.8"/>
      </g>
     </g>
     <g id="text_19">
      <!-- 0.6 -->
      <g transform="translate(44.845415 344.128852) scale(0.22 -0.22)">
       <use xlink:href="#DejaVuSerif-30"/>
       <use xlink:href="#DejaVuSerif-2e" x="63.623047"/>
       <use xlink:href="#DejaVuSerif-36" x="95.410156"/>
      </g>
     </g>
    </g>
    <g id="ytick_5">
     <g id="line2d_37">
      <path d="M 86.83229 264.769714 
L 997.2 264.769714 
" clip-path="url(#p589e732c2d)" style="fill: none; stroke: #ffffff; stroke-width: 0.8; stroke-linecap: square"/>
     </g>
     <g id="line2d_38">
      <g>
       <use xlink:href="#m0058f2e8f1" x="86.83229" y="264.769714" style="stroke: #000000; stroke-width: 0.8"/>
      </g>
     </g>
     <g id="text_20">
      <!-- 0.8 -->
      <g transform="translate(44.845415 273.127995) scale(0.22 -0.22)">
       <use xlink:href="#DejaVuSerif-30"/>
       <use xlink:href="#DejaVuSerif-2e" x="63.623047"/>
       <use xlink:href="#DejaVuSerif-38" x="95.410156"/>
      </g>
     </g>
    </g>
    <g id="ytick_6">
     <g id="line2d_39">
      <path d="M 86.83229 193.768857 
L 997.2 193.768857 
" clip-path="url(#p589e732c2d)" style="fill: none; stroke: #ffffff; stroke-width: 0.8; stroke-linecap: square"/>
     </g>
     <g id="line2d_40">
      <g>
       <use xlink:href="#m0058f2e8f1" x="86.83229" y="193.768857" style="stroke: #000000; stroke-width: 0.8"/>
      </g>
     </g>
     <g id="text_21">
      <!-- 1.0 -->
      <g transform="translate(44.845415 202.127138) scale(0.22 -0.22)">
       <use xlink:href="#DejaVuSerif-31"/>
       <use xlink:href="#DejaVuSerif-2e" x="63.623047"/>
       <use xlink:href="#DejaVuSerif-30" x="95.410156"/>
      </g>
     </g>
    </g>
    <g id="ytick_7">
     <g id="line2d_41">
      <path d="M 86.83229 122.768 
L 997.2 122.768 
" clip-path="url(#p589e732c2d)" style="fill: none; stroke: #ffffff; stroke-width: 0.8; stroke-linecap: square"/>
     </g>
     <g id="line2d_42">
      <g>
       <use xlink:href="#m0058f2e8f1" x="86.83229" y="122.768" style="stroke: #000000; stroke-width: 0.8"/>
      </g>
     </g>
     <g id="text_22">
      <!-- 1.2 -->
      <g transform="translate(44.845415 131.126281) scale(0.22 -0.22)">
       <use xlink:href="#DejaVuSerif-31"/>
       <use xlink:href="#DejaVuSerif-2e" x="63.623047"/>
       <use xlink:href="#DejaVuSerif-32" x="95.410156"/>
      </g>
     </g>
    </g>
    <g id="text_23">
     <!-- Valor médio (p.u) -->
     <g transform="translate(36.894009 427.743959) rotate(-90) scale(0.19 -0.19)">
      <defs>
       <path id="DejaVuSerif-6c" d="M 1313 331 
L 1856 331 
L 1856 0 
L 184 0 
L 184 331 
L 738 331 
L 738 4531 
L 184 4531 
L 184 4863 
L 1313 4863 
L 1313 331 
z
" transform="scale(0.015625)"/>
       <path id="DejaVuSerif-6f" d="M 1925 219 
Q 2388 219 2623 584 
Q 2859 950 2859 1663 
Q 2859 2375 2623 2739 
Q 2388 3103 1925 3103 
Q 1463 3103 1227 2739 
Q 991 2375 991 1663 
Q 991 950 1228 584 
Q 1466 219 1925 219 
z
M 1925 -91 
Q 1200 -91 759 389 
Q 319 869 319 1663 
Q 319 2456 758 2934 
Q 1197 3413 1925 3413 
Q 2653 3413 3092 2934 
Q 3531 2456 3531 1663 
Q 3531 869 3092 389 
Q 2653 -91 1925 -91 
z
" transform="scale(0.015625)"/>
       <path id="DejaVuSerif-6d" d="M 3316 2675 
Q 3481 3041 3739 3227 
Q 3997 3413 4341 3413 
Q 4863 3413 5119 3089 
Q 5375 2766 5375 2113 
L 5375 331 
L 5894 331 
L 5894 0 
L 4300 0 
L 4300 331 
L 4800 331 
L 4800 2047 
Q 4800 2556 4650 2772 
Q 4500 2988 4153 2988 
Q 3769 2988 3567 2697 
Q 3366 2406 3366 1850 
L 3366 331 
L 3866 331 
L 3866 0 
L 2291 0 
L 2291 331 
L 2791 331 
L 2791 2069 
Q 2791 2566 2641 2777 
Q 2491 2988 2144 2988 
Q 1759 2988 1557 2697 
Q 1356 2406 1356 1850 
L 1356 331 
L 1856 331 
L 1856 0 
L 263 0 
L 263 331 
L 781 331 
L 781 2994 
L 231 2994 
L 231 3322 
L 1356 3322 
L 1356 2731 
Q 1516 3063 1762 3238 
Q 2009 3413 2322 3413 
Q 2709 3413 2968 3220 
Q 3228 3028 3316 2675 
z
" transform="scale(0.015625)"/>
       <path id="DejaVuSerif-e9" d="M 3469 1600 
L 991 1600 
L 991 1575 
Q 991 903 1244 561 
Q 1497 219 1991 219 
Q 2369 219 2611 417 
Q 2853 616 2950 1006 
L 3413 1006 
Q 3275 459 2904 184 
Q 2534 -91 1931 -91 
Q 1203 -91 761 389 
Q 319 869 319 1663 
Q 319 2450 753 2931 
Q 1188 3413 1894 3413 
Q 2647 3413 3050 2948 
Q 3453 2484 3469 1600 
z
M 2791 1931 
Q 2772 2513 2545 2808 
Q 2319 3103 1894 3103 
Q 1497 3103 1269 2806 
Q 1041 2509 991 1931 
L 2791 1931 
z
M 2330 5119 
L 2952 5119 
L 1890 3944 
L 1524 3944 
L 2330 5119 
z
" transform="scale(0.015625)"/>
       <path id="DejaVuSerif-64" d="M 3359 331 
L 3909 331 
L 3909 0 
L 2784 0 
L 2784 519 
Q 2616 206 2355 57 
Q 2094 -91 1709 -91 
Q 1097 -91 708 395 
Q 319 881 319 1663 
Q 319 2444 706 2928 
Q 1094 3413 1709 3413 
Q 2094 3413 2355 3264 
Q 2616 3116 2784 2803 
L 2784 4531 
L 2241 4531 
L 2241 4863 
L 3359 4863 
L 3359 331 
z
M 2784 1497 
L 2784 1825 
Q 2784 2422 2554 2737 
Q 2325 3053 1888 3053 
Q 1444 3053 1217 2703 
Q 991 2353 991 1663 
Q 991 975 1217 622 
Q 1444 269 1888 269 
Q 2325 269 2554 583 
Q 2784 897 2784 1497 
z
" transform="scale(0.015625)"/>
       <path id="DejaVuSerif-69" d="M 622 4353 
Q 622 4497 726 4603 
Q 831 4709 978 4709 
Q 1122 4709 1226 4603 
Q 1331 4497 1331 4353 
Q 1331 4206 1228 4103 
Q 1125 4000 978 4000 
Q 831 4000 726 4103 
Q 622 4206 622 4353 
z
M 1356 331 
L 1900 331 
L 1900 0 
L 231 0 
L 231 331 
L 781 331 
L 781 2988 
L 231 2988 
L 231 3322 
L 1356 3322 
L 1356 331 
z
" transform="scale(0.015625)"/>
       <path id="DejaVuSerif-28" d="M 2041 -997 
Q 1281 -656 893 83 
Q 506 822 506 1931 
Q 506 3044 893 3783 
Q 1281 4522 2041 4863 
L 2041 4556 
Q 1559 4225 1350 3623 
Q 1141 3022 1141 1931 
Q 1141 844 1350 242 
Q 1559 -359 2041 -691 
L 2041 -997 
z
" transform="scale(0.015625)"/>
       <path id="DejaVuSerif-70" d="M 1313 1825 
L 1313 1497 
Q 1313 897 1542 583 
Q 1772 269 2209 269 
Q 2650 269 2876 622 
Q 3103 975 3103 1663 
Q 3103 2353 2876 2703 
Q 2650 3053 2209 3053 
Q 1772 3053 1542 2737 
Q 1313 2422 1313 1825 
z
M 738 2988 
L 184 2988 
L 184 3322 
L 1313 3322 
L 1313 2803 
Q 1481 3116 1742 3264 
Q 2003 3413 2388 3413 
Q 3000 3413 3387 2928 
Q 3775 2444 3775 1663 
Q 3775 881 3387 395 
Q 3000 -91 2388 -91 
Q 2003 -91 1742 57 
Q 1481 206 1313 519 
L 1313 -997 
L 1856 -997 
L 1856 -1331 
L 184 -1331 
L 184 -997 
L 738 -997 
L 738 2988 
z
" transform="scale(0.015625)"/>
       <path id="DejaVuSerif-75" d="M 2266 3322 
L 3341 3322 
L 3341 331 
L 3884 331 
L 3884 0 
L 2766 0 
L 2766 588 
Q 2606 256 2353 82 
Q 2100 -91 1766 -91 
Q 1213 -91 952 223 
Q 691 538 691 1209 
L 691 2988 
L 172 2988 
L 172 3322 
L 1269 3322 
L 1269 1388 
Q 1269 781 1417 556 
Q 1566 331 1947 331 
Q 2347 331 2556 625 
Q 2766 919 2766 1478 
L 2766 2988 
L 2266 2988 
L 2266 3322 
z
" transform="scale(0.015625)"/>
       <path id="DejaVuSerif-29" d="M 453 -997 
L 453 -691 
Q 934 -359 1145 242 
Q 1356 844 1356 1931 
Q 1356 3022 1145 3623 
Q 934 4225 453 4556 
L 453 4863 
Q 1216 4522 1603 3783 
Q 1991 3044 1991 1931 
Q 1991 822 1603 83 
Q 1216 -656 453 -997 
z
" transform="scale(0.015625)"/>
      </defs>
      <use xlink:href="#DejaVuSerif-56"/>
      <use xlink:href="#DejaVuSerif-61" x="63.091797"/>
      <use xlink:href="#DejaVuSerif-6c" x="122.710938"/>
      <use xlink:href="#DejaVuSerif-6f" x="154.693359"/>
      <use xlink:href="#DejaVuSerif-72" x="214.898438"/>
      <use xlink:href="#DejaVuSerif-20" x="262.701172"/>
      <use xlink:href="#DejaVuSerif-6d" x="294.488281"/>
      <use xlink:href="#DejaVuSerif-e9" x="389.3125"/>
      <use xlink:href="#DejaVuSerif-64" x="448.492188"/>
      <use xlink:href="#DejaVuSerif-69" x="512.505859"/>
      <use xlink:href="#DejaVuSerif-6f" x="544.488281"/>
      <use xlink:href="#DejaVuSerif-20" x="604.693359"/>
      <use xlink:href="#DejaVuSerif-28" x="636.480469"/>
      <use xlink:href="#DejaVuSerif-70" x="675.494141"/>
      <use xlink:href="#DejaVuSerif-2e" x="739.507812"/>
      <use xlink:href="#DejaVuSerif-75" x="771.294922"/>
      <use xlink:href="#DejaVuSerif-29" x="835.699219"/>
     </g>
    </g>
   </g>
   <g id="PolyCollection_1">
    <defs>
     <path id="m493afe50ed" d="M 128.21264 -598.231143 
L 128.21264 -439.011724 
L 191.874718 -479.224826 
L 255.536796 -378.554489 
L 319.198873 -243.226858 
L 382.860951 -402.854536 
L 446.523028 -243.226858 
L 510.185106 -370.07876 
L 573.847184 -243.226858 
L 637.509261 -243.226858 
L 701.171339 -243.226858 
L 764.833417 -243.226858 
L 828.495494 -243.226858 
L 892.157572 -243.226858 
L 955.81965 -243.226858 
L 955.81965 -289.11116 
L 955.81965 -289.11116 
L 892.157572 -289.146663 
L 828.495494 -574.081974 
L 764.833417 -582.93933 
L 701.171339 -490.451837 
L 637.509261 -446.218311 
L 573.847184 -590.563053 
L 510.185106 -581.652437 
L 446.523028 -598.231143 
L 382.860951 -598.231143 
L 319.198873 -598.231143 
L 255.536796 -598.231143 
L 191.874718 -598.231143 
L 128.21264 -598.231143 
z
" style="stroke: #a52a2a; stroke-opacity: 0.2; stroke-width: 0.5"/>
    </defs>
    <g clip-path="url(#p589e732c2d)">
     <use xlink:href="#m493afe50ed" x="0" y="792" style="fill: #a52a2a; fill-opacity: 0.2; stroke: #a52a2a; stroke-opacity: 0.2; stroke-width: 0.5"/>
    </g>
   </g>
   <g id="PolyCollection_2">
    <defs>
     <path id="m0c0590b8b0" d="M 128.21264 -243.226858 
L 128.21264 -243.226858 
L 191.874718 -243.226858 
L 255.536796 -243.226858 
L 319.198873 -243.226858 
L 382.860951 -243.226858 
L 446.523028 -243.226858 
L 510.185106 -243.226858 
L 573.847184 -243.226858 
L 637.509261 -243.226858 
L 701.171339 -243.226858 
L 764.833417 -243.226858 
L 828.495494 -243.226858 
L 892.157572 -243.226858 
L 955.81965 -243.226858 
L 955.81965 -243.226858 
L 955.81965 -243.226858 
L 892.157572 -243.226858 
L 828.495494 -243.226858 
L 764.833417 -243.226858 
L 701.171339 -243.226858 
L 637.509261 -243.226858 
L 573.847184 -243.226858 
L 510.185106 -243.226858 
L 446.523028 -243.226858 
L 382.860951 -243.226858 
L 319.198873 -243.226858 
L 255.536796 -243.226858 
L 191.874718 -243.226858 
L 128.21264 -243.226858 
z
" style="stroke: #228b22; stroke-opacity: 0.2; stroke-width: 0.5"/>
    </defs>
    <g clip-path="url(#p589e732c2d)">
     <use xlink:href="#m0c0590b8b0" x="0" y="792" style="fill: #228b22; fill-opacity: 0.2; stroke: #228b22; stroke-opacity: 0.2; stroke-width: 0.5"/>
    </g>
   </g>
   <g id="PolyCollection_3">
    <defs>
     <path id="mc4db833dc5" d="M 128.21264 -587.486048 
L 128.21264 -573.412432 
L 191.874718 -570.785578 
L 255.536796 -584.600578 
L 319.198873 -593.20082 
L 382.860951 -583.722474 
L 446.523028 -575.35662 
L 510.185106 -562.741101 
L 573.847184 -562.424702 
L 637.509261 -584.763795 
L 701.171339 -565.033713 
L 764.833417 -564.689801 
L 828.495494 -565.375678 
L 892.157572 -570.463413 
L 955.81965 -571.084673 
L 955.81965 -624.744535 
L 955.81965 -624.744535 
L 892.157572 -609.64232 
L 828.495494 -596.091443 
L 764.833417 -597.464684 
L 701.171339 -600.154832 
L 637.509261 -602.596452 
L 573.847184 -599.969789 
L 510.185106 -600.696124 
L 446.523028 -598.33179 
L 382.860951 -597.750644 
L 319.198873 -623.274197 
L 255.536796 -608.64573 
L 191.874718 -580.37896 
L 128.21264 -587.486048 
z
" style="stroke: #0000ff; stroke-opacity: 0.2; stroke-width: 0.5"/>
    </defs>
    <g clip-path="url(#p589e732c2d)">
     <use xlink:href="#mc4db833dc5" x="0" y="792" style="fill: #0000ff; fill-opacity: 0.2; stroke: #0000ff; stroke-opacity: 0.2; stroke-width: 0.5"/>
    </g>
   </g>
   <g id="line2d_43">
    <path d="M 128.21264 215.755972 
L 191.874718 218.178348 
L 255.536796 223.797983 
L 319.198873 226.503035 
L 382.860951 260.730778 
L 446.523028 277.634594 
L 510.185106 291.557875 
L 573.847184 363.43877 
L 637.509261 485.942902 
L 701.171339 504.727115 
L 764.833417 530.471632 
L 828.495494 531.125302 
L 892.157572 545.469867 
L 955.81965 545.605866 
" clip-path="url(#p589e732c2d)" style="fill: none; stroke: #a52a2a; stroke-width: 1.5; stroke-linecap: square"/>
    <defs>
     <path id="md9cfb97365" d="M 0 -6 
L -6 6 
L 6 6 
z
" style="stroke: #a52a2a; stroke-width: 2; stroke-linejoin: miter"/>
    </defs>
    <g clip-path="url(#p589e732c2d)">
     <use xlink:href="#md9cfb97365" x="128.21264" y="215.755972" style="fill-opacity: 0; stroke: #a52a2a; stroke-width: 2; stroke-linejoin: miter"/>
     <use xlink:href="#md9cfb97365" x="191.874718" y="218.178348" style="fill-opacity: 0; stroke: #a52a2a; stroke-width: 2; stroke-linejoin: miter"/>
     <use xlink:href="#md9cfb97365" x="255.536796" y="223.797983" style="fill-opacity: 0; stroke: #a52a2a; stroke-width: 2; stroke-linejoin: miter"/>
     <use xlink:href="#md9cfb97365" x="319.198873" y="226.503035" style="fill-opacity: 0; stroke: #a52a2a; stroke-width: 2; stroke-linejoin: miter"/>
     <use xlink:href="#md9cfb97365" x="382.860951" y="260.730778" style="fill-opacity: 0; stroke: #a52a2a; stroke-width: 2; stroke-linejoin: miter"/>
     <use xlink:href="#md9cfb97365" x="446.523028" y="277.634594" style="fill-opacity: 0; stroke: #a52a2a; stroke-width: 2; stroke-linejoin: miter"/>
     <use xlink:href="#md9cfb97365" x="510.185106" y="291.557875" style="fill-opacity: 0; stroke: #a52a2a; stroke-width: 2; stroke-linejoin: miter"/>
     <use xlink:href="#md9cfb97365" x="573.847184" y="363.43877" style="fill-opacity: 0; stroke: #a52a2a; stroke-width: 2; stroke-linejoin: miter"/>
     <use xlink:href="#md9cfb97365" x="637.509261" y="485.942902" style="fill-opacity: 0; stroke: #a52a2a; stroke-width: 2; stroke-linejoin: miter"/>
     <use xlink:href="#md9cfb97365" x="701.171339" y="504.727115" style="fill-opacity: 0; stroke: #a52a2a; stroke-width: 2; stroke-linejoin: miter"/>
     <use xlink:href="#md9cfb97365" x="764.833417" y="530.471632" style="fill-opacity: 0; stroke: #a52a2a; stroke-width: 2; stroke-linejoin: miter"/>
     <use xlink:href="#md9cfb97365" x="828.495494" y="531.125302" style="fill-opacity: 0; stroke: #a52a2a; stroke-width: 2; stroke-linejoin: miter"/>
     <use xlink:href="#md9cfb97365" x="892.157572" y="545.469867" style="fill-opacity: 0; stroke: #a52a2a; stroke-width: 2; stroke-linejoin: miter"/>
     <use xlink:href="#md9cfb97365" x="955.81965" y="545.605866" style="fill-opacity: 0; stroke: #a52a2a; stroke-width: 2; stroke-linejoin: miter"/>
    </g>
   </g>
   <g id="line2d_44">
    <path d="M 128.21264 548.773142 
L 191.874718 548.773142 
L 255.536796 548.773142 
L 319.198873 548.773142 
L 382.860951 548.487435 
L 446.523028 548.773142 
L 510.185106 548.773142 
L 573.847184 548.773142 
L 637.509261 548.773142 
L 701.171339 548.773142 
L 764.833417 548.773142 
L 828.495494 548.773142 
L 892.157572 548.453935 
L 955.81965 548.499534 
" clip-path="url(#p589e732c2d)" style="fill: none; stroke-dasharray: 6,2.25; stroke-dashoffset: 0; stroke: #228b22; stroke-width: 1.5"/>
    <defs>
     <path id="mc0e43d60db" d="M 0 -6 
L -6 6 
L 6 6 
z
" style="stroke: #228b22; stroke-width: 2; stroke-linejoin: miter"/>
    </defs>
    <g clip-path="url(#p589e732c2d)">
     <use xlink:href="#mc0e43d60db" x="128.21264" y="548.773142" style="fill-opacity: 0; stroke: #228b22; stroke-width: 2; stroke-linejoin: miter"/>
     <use xlink:href="#mc0e43d60db" x="191.874718" y="548.773142" style="fill-opacity: 0; stroke: #228b22; stroke-width: 2; stroke-linejoin: miter"/>
     <use xlink:href="#mc0e43d60db" x="255.536796" y="548.773142" style="fill-opacity: 0; stroke: #228b22; stroke-width: 2; stroke-linejoin: miter"/>
     <use xlink:href="#mc0e43d60db" x="319.198873" y="548.773142" style="fill-opacity: 0; stroke: #228b22; stroke-width: 2; stroke-linejoin: miter"/>
     <use xlink:href="#mc0e43d60db" x="382.860951" y="548.487435" style="fill-opacity: 0; stroke: #228b22; stroke-width: 2; stroke-linejoin: miter"/>
     <use xlink:href="#mc0e43d60db" x="446.523028" y="548.773142" style="fill-opacity: 0; stroke: #228b22; stroke-width: 2; stroke-linejoin: miter"/>
     <use xlink:href="#mc0e43d60db" x="510.185106" y="548.773142" style="fill-opacity: 0; stroke: #228b22; stroke-width: 2; stroke-linejoin: miter"/>
     <use xlink:href="#mc0e43d60db" x="573.847184" y="548.773142" style="fill-opacity: 0; stroke: #228b22; stroke-width: 2; stroke-linejoin: miter"/>
     <use xlink:href="#mc0e43d60db" x="637.509261" y="548.773142" style="fill-opacity: 0; stroke: #228b22; stroke-width: 2; stroke-linejoin: miter"/>
     <use xlink:href="#mc0e43d60db" x="701.171339" y="548.773142" style="fill-opacity: 0; stroke: #228b22; stroke-width: 2; stroke-linejoin: miter"/>
     <use xlink:href="#mc0e43d60db" x="764.833417" y="548.773142" style="fill-opacity: 0; stroke: #228b22; stroke-width: 2; stroke-linejoin: miter"/>
     <use xlink:href="#mc0e43d60db" x="828.495494" y="548.773142" style="fill-opacity: 0; stroke: #228b22; stroke-width: 2; stroke-linejoin: miter"/>
     <use xlink:href="#mc0e43d60db" x="892.157572" y="548.453935" style="fill-opacity: 0; stroke: #228b22; stroke-width: 2; stroke-linejoin: miter"/>
     <use xlink:href="#mc0e43d60db" x="955.81965" y="548.499534" style="fill-opacity: 0; stroke: #228b22; stroke-width: 2; stroke-linejoin: miter"/>
    </g>
   </g>
   <g id="line2d_45">
    <path d="M 128.21264 214.127635 
L 191.874718 216.214534 
L 255.536796 199.388152 
L 319.198873 190.110153 
L 382.860951 203.911561 
L 446.523028 208.833981 
L 510.185106 218.973107 
L 573.847184 218.662235 
L 637.509261 198.657027 
L 701.171339 209.918494 
L 764.833417 209.252567 
L 828.495494 211.140887 
L 892.157572 197.158928 
L 955.81965 200.102978 
" clip-path="url(#p589e732c2d)" style="fill: none; stroke-dasharray: 1.5,1.5; stroke-dashoffset: 0; stroke: #0000ff; stroke-width: 1.5"/>
    <defs>
     <path id="m12533457d7" d="M 0 6 
C 1.591219 6 3.117479 5.367802 4.242641 4.242641 
C 5.367802 3.117479 6 1.591219 6 0 
C 6 -1.591219 5.367802 -3.117479 4.242641 -4.242641 
C 3.117479 -5.367802 1.591219 -6 0 -6 
C -1.591219 -6 -3.117479 -5.367802 -4.242641 -4.242641 
C -5.367802 -3.117479 -6 -1.591219 -6 0 
C -6 1.591219 -5.367802 3.117479 -4.242641 4.242641 
C -3.117479 5.367802 -1.591219 6 0 6 
z
" style="stroke: #0000ff; stroke-width: 2"/>
    </defs>
    <g clip-path="url(#p589e732c2d)">
     <use xlink:href="#m12533457d7" x="128.21264" y="214.127635" style="fill-opacity: 0; stroke: #0000ff; stroke-width: 2"/>
     <use xlink:href="#m12533457d7" x="191.874718" y="216.214534" style="fill-opacity: 0; stroke: #0000ff; stroke-width: 2"/>
     <use xlink:href="#m12533457d7" x="255.536796" y="199.388152" style="fill-opacity: 0; stroke: #0000ff; stroke-width: 2"/>
     <use xlink:href="#m12533457d7" x="319.198873" y="190.110153" style="fill-opacity: 0; stroke: #0000ff; stroke-width: 2"/>
     <use xlink:href="#m12533457d7" x="382.860951" y="203.911561" style="fill-opacity: 0; stroke: #0000ff; stroke-width: 2"/>
     <use xlink:href="#m12533457d7" x="446.523028" y="208.833981" style="fill-opacity: 0; stroke: #0000ff; stroke-width: 2"/>
     <use xlink:href="#m12533457d7" x="510.185106" y="218.973107" style="fill-opacity: 0; stroke: #0000ff; stroke-width: 2"/>
     <use xlink:href="#m12533457d7" x="573.847184" y="218.662235" style="fill-opacity: 0; stroke: #0000ff; stroke-width: 2"/>
     <use xlink:href="#m12533457d7" x="637.509261" y="198.657027" style="fill-opacity: 0; stroke: #0000ff; stroke-width: 2"/>
     <use xlink:href="#m12533457d7" x="701.171339" y="209.918494" style="fill-opacity: 0; stroke: #0000ff; stroke-width: 2"/>
     <use xlink:href="#m12533457d7" x="764.833417" y="209.252567" style="fill-opacity: 0; stroke: #0000ff; stroke-width: 2"/>
     <use xlink:href="#m12533457d7" x="828.495494" y="211.140887" style="fill-opacity: 0; stroke: #0000ff; stroke-width: 2"/>
     <use xlink:href="#m12533457d7" x="892.157572" y="197.158928" style="fill-opacity: 0; stroke: #0000ff; stroke-width: 2"/>
     <use xlink:href="#m12533457d7" x="955.81965" y="200.102978" style="fill-opacity: 0; stroke: #0000ff; stroke-width: 2"/>
    </g>
   </g>
   <g id="line2d_46"/>
   <g id="line2d_47"/>
   <g id="line2d_48"/>
   <g id="line2d_49">
    <path d="M 86.83229 211.519071 
L 997.2 211.519071 
" clip-path="url(#p589e732c2d)" style="fill: none; stroke-dasharray: 5.55,2.4; stroke-dashoffset: 0; stroke: #ff0000; stroke-opacity: 0.9; stroke-width: 1.5"/>
   </g>
   <g id="line2d_50">
    <path d="M 86.83229 176.018643 
L 997.2 176.018643 
" clip-path="url(#p589e732c2d)" style="fill: none; stroke-dasharray: 5.55,2.4; stroke-dashoffset: 0; stroke: #ff0000; stroke-opacity: 0.9; stroke-width: 1.5"/>
   </g>
   <g id="patch_3">
    <path d="M 86.83229 566.523356 
L 86.83229 122.768 
" style="fill: none; stroke: #000000; stroke-width: 1.2; stroke-linejoin: miter; stroke-linecap: square"/>
   </g>
   <g id="patch_4">
    <path d="M 997.2 566.523356 
L 997.2 122.768 
" style="fill: none; stroke: #000000; stroke-width: 1.2; stroke-linejoin: miter; stroke-linecap: square"/>
   </g>
   <g id="patch_5">
    <path d="M 86.83229 566.523356 
L 997.2 566.523356 
" style="fill: none; stroke: #000000; stroke-width: 1.2; stroke-linejoin: miter; stroke-linecap: square"/>
   </g>
   <g id="patch_6">
    <path d="M 86.83229 122.768 
L 997.2 122.768 
" style="fill: none; stroke: #000000; stroke-width: 1.2; stroke-linejoin: miter; stroke-linecap: square"/>
   </g>
   <g id="legend_1">
    <g id="text_24">
     <!-- Variável -->
     <g transform="translate(501.036457 67.213804) scale(0.2 -0.2)">
      <defs>
       <path id="DejaVuSerif-e1" d="M 2547 1044 
L 2547 1747 
L 1806 1747 
Q 1378 1747 1168 1562 
Q 959 1378 959 997 
Q 959 650 1171 447 
Q 1384 244 1747 244 
Q 2106 244 2326 466 
Q 2547 688 2547 1044 
z
M 3122 2075 
L 3122 331 
L 3634 331 
L 3634 0 
L 2547 0 
L 2547 359 
Q 2356 128 2106 18 
Q 1856 -91 1522 -91 
Q 969 -91 644 203 
Q 319 497 319 997 
Q 319 1513 691 1797 
Q 1063 2081 1741 2081 
L 2547 2081 
L 2547 2309 
Q 2547 2688 2317 2895 
Q 2088 3103 1672 3103 
Q 1328 3103 1125 2947 
Q 922 2791 872 2484 
L 575 2484 
L 575 3156 
Q 875 3284 1158 3348 
Q 1441 3413 1709 3413 
Q 2400 3413 2761 3070 
Q 3122 2728 3122 2075 
z
M 2210 5119 
L 2832 5119 
L 1770 3944 
L 1404 3944 
L 2210 5119 
z
" transform="scale(0.015625)"/>
       <path id="DejaVuSerif-76" d="M 1581 0 
L 359 2988 
L -19 2988 
L -19 3322 
L 1509 3322 
L 1509 2988 
L 978 2988 
L 1913 703 
L 2847 2988 
L 2350 2988 
L 2350 3322 
L 3597 3322 
L 3597 2988 
L 3225 2988 
L 2003 0 
L 1581 0 
z
" transform="scale(0.015625)"/>
       <path id="DejaVuSerif-65" d="M 3469 1600 
L 991 1600 
L 991 1575 
Q 991 903 1244 561 
Q 1497 219 1991 219 
Q 2369 219 2611 417 
Q 2853 616 2950 1006 
L 3413 1006 
Q 3275 459 2904 184 
Q 2534 -91 1931 -91 
Q 1203 -91 761 389 
Q 319 869 319 1663 
Q 319 2450 753 2931 
Q 1188 3413 1894 3413 
Q 2647 3413 3050 2948 
Q 3453 2484 3469 1600 
z
M 2791 1931 
Q 2772 2513 2545 2808 
Q 2319 3103 1894 3103 
Q 1497 3103 1269 2806 
Q 1041 2509 991 1931 
L 2791 1931 
z
" transform="scale(0.015625)"/>
      </defs>
      <use xlink:href="#DejaVuSerif-56"/>
      <use xlink:href="#DejaVuSerif-61" x="63.091797"/>
      <use xlink:href="#DejaVuSerif-72" x="122.710938"/>
      <use xlink:href="#DejaVuSerif-69" x="170.513672"/>
      <use xlink:href="#DejaVuSerif-e1" x="202.496094"/>
      <use xlink:href="#DejaVuSerif-76" x="262.115234"/>
      <use xlink:href="#DejaVuSerif-65" x="318.609375"/>
      <use xlink:href="#DejaVuSerif-6c" x="377.789062"/>
     </g>
    </g>
    <g id="line2d_51">
     <g>
      <use xlink:href="#md9cfb97365" x="383.116145" y="92.573179" style="fill-opacity: 0; stroke: #a52a2a; stroke-width: 2; stroke-linejoin: miter"/>
     </g>
    </g>
    <g id="text_25">
     <!-- $\mathrm{Q}_{n}^\mathrm{abs}$ -->
     <g transform="translate(419.116145 99.573179) scale(0.2 -0.2)">
      <defs>
       <path id="DejaVuSerif-51" d="M 2700 -91 
Q 1628 -91 993 567 
Q 359 1225 359 2328 
Q 359 2894 529 3339 
Q 700 3784 1050 4134 
Q 1356 4441 1750 4595 
Q 2144 4750 2625 4750 
Q 3641 4750 4266 4084 
Q 4891 3419 4891 2328 
Q 4891 1403 4422 773 
Q 3953 144 3128 -38 
Q 3297 -247 3539 -347 
Q 3781 -447 4122 -447 
L 4219 -447 
L 4219 -1025 
Q 3691 -1000 3314 -767 
Q 2938 -534 2700 -91 
z
M 2625 244 
Q 3391 244 3781 770 
Q 4172 1297 4172 2328 
Q 4172 3363 3781 3889 
Q 3391 4416 2625 4416 
Q 1856 4416 1465 3889 
Q 1075 3363 1075 2328 
Q 1075 1297 1465 770 
Q 1856 244 2625 244 
z
" transform="scale(0.015625)"/>
       <path id="DejaVuSerif-62" d="M 738 331 
L 738 4531 
L 184 4531 
L 184 4863 
L 1313 4863 
L 1313 2803 
Q 1481 3116 1742 3264 
Q 2003 3413 2388 3413 
Q 3000 3413 3387 2928 
Q 3775 2444 3775 1663 
Q 3775 881 3387 395 
Q 3000 -91 2388 -91 
Q 2003 -91 1742 57 
Q 1481 206 1313 519 
L 1313 0 
L 184 0 
L 184 331 
L 738 331 
z
M 1313 1497 
Q 1313 897 1542 583 
Q 1772 269 2209 269 
Q 2650 269 2876 622 
Q 3103 975 3103 1663 
Q 3103 2353 2876 2703 
Q 2650 3053 2209 3053 
Q 1772 3053 1542 2737 
Q 1313 2422 1313 1825 
L 1313 1497 
z
" transform="scale(0.015625)"/>
       <path id="DejaVuSerif-73" d="M 359 184 
L 359 959 
L 691 959 
Q 703 588 923 403 
Q 1144 219 1575 219 
Q 1963 219 2166 364 
Q 2369 509 2369 788 
Q 2369 1006 2220 1140 
Q 2072 1275 1594 1428 
L 1178 1569 
Q 750 1706 558 1912 
Q 366 2119 366 2438 
Q 366 2894 700 3153 
Q 1034 3413 1625 3413 
Q 1888 3413 2178 3344 
Q 2469 3275 2778 3144 
L 2778 2419 
L 2447 2419 
Q 2434 2741 2221 2922 
Q 2009 3103 1644 3103 
Q 1281 3103 1095 2975 
Q 909 2847 909 2591 
Q 909 2381 1050 2254 
Q 1191 2128 1613 1997 
L 2069 1856 
Q 2541 1709 2748 1489 
Q 2956 1269 2956 922 
Q 2956 450 2595 179 
Q 2234 -91 1600 -91 
Q 1278 -91 972 -22 
Q 666 47 359 184 
z
" transform="scale(0.015625)"/>
       <path id="DejaVuSerif-Italic-6e" d="M 450 0 
L 1031 2988 
L 481 2988 
L 544 3322 
L 1669 3322 
L 1556 2731 
Q 1781 3069 2068 3241 
Q 2356 3413 2694 3413 
Q 3244 3413 3444 3097 
Q 3563 2906 3563 2588 
Q 3563 2378 3509 2113 
L 3163 331 
L 3675 331 
L 3613 0 
L 2522 0 
L 2897 1931 
Q 2959 2253 2959 2469 
Q 2959 2659 2909 2769 
Q 2803 2994 2425 2994 
Q 2025 2994 1759 2701 
Q 1494 2409 1384 1850 
L 1025 0 
L 450 0 
z
" transform="scale(0.015625)"/>
      </defs>
      <use xlink:href="#DejaVuSerif-51" transform="translate(0 0.476562)"/>
      <use xlink:href="#DejaVuSerif-61" transform="translate(82.890781 36.810938) scale(0.7)"/>
      <use xlink:href="#DejaVuSerif-62" transform="translate(124.62418 36.810938) scale(0.7)"/>
      <use xlink:href="#DejaVuSerif-73" transform="translate(169.43375 36.810938) scale(0.7)"/>
      <use xlink:href="#DejaVuSerif-Italic-6e" transform="translate(82.890781 -25.476562) scale(0.7)"/>
     </g>
    </g>
    <g id="line2d_52">
     <g>
      <use xlink:href="#mc0e43d60db" x="520.716145" y="92.573179" style="fill-opacity: 0; stroke: #228b22; stroke-width: 2; stroke-linejoin: miter"/>
     </g>
    </g>
    <g id="text_26">
     <!-- $\mathrm{Q}_{n}^\mathrm{inj}$ -->
     <g transform="translate(556.716145 99.573179) scale(0.2 -0.2)">
      <defs>
       <path id="DejaVuSerif-6e" d="M 263 0 
L 263 331 
L 781 331 
L 781 2988 
L 231 2988 
L 231 3322 
L 1356 3322 
L 1356 2731 
Q 1516 3069 1770 3241 
Q 2025 3413 2363 3413 
Q 2913 3413 3172 3097 
Q 3431 2781 3431 2113 
L 3431 331 
L 3944 331 
L 3944 0 
L 2356 0 
L 2356 331 
L 2853 331 
L 2853 1931 
Q 2853 2541 2703 2767 
Q 2553 2994 2175 2994 
Q 1775 2994 1565 2701 
Q 1356 2409 1356 1850 
L 1356 331 
L 1856 331 
L 1856 0 
L 263 0 
z
" transform="scale(0.015625)"/>
       <path id="DejaVuSerif-6a" d="M 641 4353 
Q 641 4497 745 4603 
Q 850 4709 997 4709 
Q 1141 4709 1245 4603 
Q 1350 4497 1350 4353 
Q 1350 4206 1248 4103 
Q 1147 4000 997 4000 
Q 850 4000 745 4103 
Q 641 4206 641 4353 
z
M 781 2988 
L 238 2988 
L 238 3322 
L 1356 3322 
L 1356 -325 
Q 1356 -838 1051 -1130 
Q 747 -1422 213 -1422 
Q -13 -1422 -217 -1370 
Q -422 -1319 -616 -1216 
L -616 -531 
L -319 -531 
Q -297 -831 -164 -972 
Q -31 -1113 225 -1113 
Q 509 -1113 645 -920 
Q 781 -728 781 -325 
L 781 2988 
z
" transform="scale(0.015625)"/>
      </defs>
      <use xlink:href="#DejaVuSerif-51" transform="translate(0 0.065625)"/>
      <use xlink:href="#DejaVuSerif-69" transform="translate(82.890781 39.495313) scale(0.7)"/>
      <use xlink:href="#DejaVuSerif-6e" transform="translate(105.278477 39.495313) scale(0.7)"/>
      <use xlink:href="#DejaVuSerif-6a" transform="translate(150.361484 39.495313) scale(0.7)"/>
      <use xlink:href="#DejaVuSerif-Italic-6e" transform="translate(82.890781 -25.8875) scale(0.7)"/>
     </g>
    </g>
    <g id="line2d_53">
     <g>
      <use xlink:href="#m12533457d7" x="651.716145" y="92.573179" style="fill-opacity: 0; stroke: #0000ff; stroke-width: 2"/>
     </g>
    </g>
    <g id="text_27">
     <!-- $\mathrm{V}_{pu}$ -->
     <g transform="translate(687.716145 99.573179) scale(0.2 -0.2)">
      <defs>
       <path id="DejaVuSerif-Italic-70" d="M 1466 1825 
L 1400 1497 
Q 1353 1250 1353 1053 
Q 1353 769 1453 581 
Q 1622 269 2059 269 
Q 2500 269 2795 622 
Q 3091 975 3225 1663 
Q 3284 1978 3284 2225 
Q 3284 2513 3200 2703 
Q 3041 3053 2600 3053 
Q 2163 3053 1872 2737 
Q 1581 2422 1466 1825 
z
M 1116 2988 
L 563 2988 
L 628 3322 
L 1756 3322 
L 1656 2803 
Q 1884 3116 2175 3264 
Q 2466 3413 2850 3413 
Q 3463 3413 3753 2928 
Q 3947 2609 3947 2163 
Q 3947 1928 3897 1663 
Q 3744 881 3262 395 
Q 2781 -91 2169 -91 
Q 1784 -91 1551 57 
Q 1319 206 1213 519 
L 850 -1331 
L 275 -1331 
L 1116 2988 
z
" transform="scale(0.015625)"/>
       <path id="DejaVuSerif-Italic-75" d="M 3097 3322 
L 3672 3322 
L 3091 331 
L 3634 331 
L 3572 0 
L 2453 0 
L 2566 588 
Q 2341 256 2055 82 
Q 1769 -91 1434 -91 
Q 881 -91 681 225 
Q 559 413 559 734 
Q 559 944 613 1209 
L 956 2988 
L 438 2988 
L 503 3322 
L 1600 3322 
L 1225 1388 
Q 1163 1066 1163 853 
Q 1163 663 1213 556 
Q 1316 331 1697 331 
Q 2097 331 2364 625 
Q 2631 919 2738 1478 
L 3097 3322 
z
" transform="scale(0.015625)"/>
      </defs>
      <use xlink:href="#DejaVuSerif-56" transform="translate(0 0.09375)"/>
      <use xlink:href="#DejaVuSerif-Italic-70" transform="translate(73.125156 -15.478125) scale(0.7)"/>
      <use xlink:href="#DejaVuSerif-Italic-75" transform="translate(117.934727 -15.478125) scale(0.7)"/>
     </g>
    </g>
   </g>
  </g>
 </g>
 <defs>
  <clipPath id="p589e732c2d">
   <rect x="86.83229" y="122.768" width="910.36771" height="443.755356"/>
  </clipPath>
 </defs>
</svg>
