<?xml version="1.0" encoding="utf-8" standalone="no"?>
<!DOCTYPE svg PUBLIC "-//W3C//DTD SVG 1.1//EN"
  "http://www.w3.org/Graphics/SVG/1.1/DTD/svg11.dtd">
<svg xmlns:xlink="http://www.w3.org/1999/xlink" width="1296pt" height="504pt" viewBox="0 0 1296 504" xmlns="http://www.w3.org/2000/svg" version="1.1">
 <metadata>
  <rdf:RDF xmlns:dc="http://purl.org/dc/elements/1.1/" xmlns:cc="http://creativecommons.org/ns#" xmlns:rdf="http://www.w3.org/1999/02/22-rdf-syntax-ns#">
   <cc:Work>
    <dc:type rdf:resource="http://purl.org/dc/dcmitype/StillImage"/>
    <dc:date>2025-02-17T15:21:25.095780</dc:date>
    <dc:format>image/svg+xml</dc:format>
    <dc:creator>
     <cc:Agent>
      <dc:title>Matplotlib v3.7.2, https://matplotlib.org/</dc:title>
     </cc:Agent>
    </dc:creator>
   </cc:Work>
  </rdf:RDF>
 </metadata>
 <defs>
  <style type="text/css">*{stroke-linejoin: round; stroke-linecap: butt}</style>
 </defs>
 <g id="figure_1">
  <g id="patch_1">
   <path d="M 0 504 
L 1296 504 
L 1296 0 
L 0 0 
z
" style="fill: #ffffff"/>
  </g>
  <g id="axes_1">
   <g id="patch_2">
    <path d="M 162 448.56 
L 1166.4 448.56 
L 1166.4 60.48 
L 162 60.48 
z
" style="fill: #e5e5e5"/>
   </g>
   <g id="matplotlib.axis_1">
    <g id="xtick_1">
     <g id="line2d_1">
      <path d="M 162 448.56 
L 162 60.48 
" clip-path="url(#p24dd970209)" style="fill: none; stroke: #ffffff; stroke-width: 0.8; stroke-linecap: square"/>
     </g>
     <g id="line2d_2">
      <defs>
       <path id="mde4551044f" d="M 0 0 
L 0 3.5 
" style="stroke: #000000; stroke-width: 0.8"/>
      </defs>
      <g>
       <use xlink:href="#mde4551044f" x="162" y="448.56" style="stroke: #000000; stroke-width: 0.8"/>
      </g>
     </g>
     <g id="text_1">
      <!-- Out 1 -->
      <g transform="translate(149.972279 493.52832) rotate(-45) scale(0.15 -0.15)">
       <defs>
        <path id="DejaVuSerif-4f" d="M 2625 244 
Q 3391 244 3781 770 
Q 4172 1297 4172 2328 
Q 4172 3363 3781 3889 
Q 3391 4416 2625 4416 
Q 1856 4416 1465 3889 
Q 1075 3363 1075 2328 
Q 1075 1297 1465 770 
Q 1856 244 2625 244 
z
M 2625 -91 
Q 2150 -91 1751 65 
Q 1353 222 1050 525 
Q 700 875 529 1319 
Q 359 1763 359 2328 
Q 359 2894 529 3339 
Q 700 3784 1050 4134 
Q 1356 4441 1750 4595 
Q 2144 4750 2625 4750 
Q 3641 4750 4266 4084 
Q 4891 3419 4891 2328 
Q 4891 1769 4719 1320 
Q 4547 872 4197 525 
Q 3891 219 3497 64 
Q 3103 -91 2625 -91 
z
" transform="scale(0.015625)"/>
        <path id="DejaVuSerif-75" d="M 2266 3322 
L 3341 3322 
L 3341 331 
L 3884 331 
L 3884 0 
L 2766 0 
L 2766 588 
Q 2606 256 2353 82 
Q 2100 -91 1766 -91 
Q 1213 -91 952 223 
Q 691 538 691 1209 
L 691 2988 
L 172 2988 
L 172 3322 
L 1269 3322 
L 1269 1388 
Q 1269 781 1417 556 
Q 1566 331 1947 331 
Q 2347 331 2556 625 
Q 2766 919 2766 1478 
L 2766 2988 
L 2266 2988 
L 2266 3322 
z
" transform="scale(0.015625)"/>
        <path id="DejaVuSerif-74" d="M 691 2988 
L 184 2988 
L 184 3322 
L 691 3322 
L 691 4353 
L 1269 4353 
L 1269 3322 
L 2350 3322 
L 2350 2988 
L 1269 2988 
L 1269 878 
Q 1269 456 1350 337 
Q 1431 219 1650 219 
Q 1875 219 1978 351 
Q 2081 484 2088 781 
L 2522 781 
Q 2497 328 2275 118 
Q 2053 -91 1600 -91 
Q 1103 -91 897 129 
Q 691 350 691 878 
L 691 2988 
z
" transform="scale(0.015625)"/>
        <path id="DejaVuSerif-20" transform="scale(0.015625)"/>
        <path id="DejaVuSerif-31" d="M 909 0 
L 909 331 
L 1722 331 
L 1722 4213 
L 781 3603 
L 781 4013 
L 1919 4750 
L 2350 4750 
L 2350 331 
L 3163 331 
L 3163 0 
L 909 0 
z
" transform="scale(0.015625)"/>
       </defs>
       <use xlink:href="#DejaVuSerif-4f"/>
       <use xlink:href="#DejaVuSerif-75" x="81.982422"/>
       <use xlink:href="#DejaVuSerif-74" x="146.386719"/>
       <use xlink:href="#DejaVuSerif-20" x="186.572266"/>
       <use xlink:href="#DejaVuSerif-31" x="218.359375"/>
      </g>
     </g>
    </g>
    <g id="xtick_2">
     <g id="line2d_3">
      <path d="M 197.871429 448.56 
L 197.871429 60.48 
" clip-path="url(#p24dd970209)" style="fill: none; stroke: #ffffff; stroke-width: 0.8; stroke-linecap: square"/>
     </g>
     <g id="line2d_4">
      <g>
       <use xlink:href="#mde4551044f" x="197.871429" y="448.56" style="stroke: #000000; stroke-width: 0.8"/>
      </g>
     </g>
     <g id="text_2">
      <!-- Out 2 -->
      <g transform="translate(185.843708 493.52832) rotate(-45) scale(0.15 -0.15)">
       <defs>
        <path id="DejaVuSerif-32" d="M 819 3553 
L 469 3553 
L 469 4384 
Q 803 4563 1142 4656 
Q 1481 4750 1806 4750 
Q 2534 4750 2956 4397 
Q 3378 4044 3378 3438 
Q 3378 2753 2422 1800 
Q 2347 1728 2309 1691 
L 1131 513 
L 3078 513 
L 3078 1088 
L 3444 1088 
L 3444 0 
L 434 0 
L 434 341 
L 1850 1753 
Q 2319 2222 2519 2614 
Q 2719 3006 2719 3438 
Q 2719 3909 2473 4175 
Q 2228 4441 1797 4441 
Q 1350 4441 1106 4219 
Q 863 3997 819 3553 
z
" transform="scale(0.015625)"/>
       </defs>
       <use xlink:href="#DejaVuSerif-4f"/>
       <use xlink:href="#DejaVuSerif-75" x="81.982422"/>
       <use xlink:href="#DejaVuSerif-74" x="146.386719"/>
       <use xlink:href="#DejaVuSerif-20" x="186.572266"/>
       <use xlink:href="#DejaVuSerif-32" x="218.359375"/>
      </g>
     </g>
    </g>
    <g id="xtick_3">
     <g id="line2d_5">
      <path d="M 233.742857 448.56 
L 233.742857 60.48 
" clip-path="url(#p24dd970209)" style="fill: none; stroke: #ffffff; stroke-width: 0.8; stroke-linecap: square"/>
     </g>
     <g id="line2d_6">
      <g>
       <use xlink:href="#mde4551044f" x="233.742857" y="448.56" style="stroke: #000000; stroke-width: 0.8"/>
      </g>
     </g>
     <g id="text_3">
      <!-- Out 3 -->
      <g transform="translate(221.715137 493.52832) rotate(-45) scale(0.15 -0.15)">
       <defs>
        <path id="DejaVuSerif-33" d="M 622 4469 
Q 988 4606 1323 4678 
Q 1659 4750 1953 4750 
Q 2638 4750 3022 4454 
Q 3406 4159 3406 3634 
Q 3406 3213 3140 2930 
Q 2875 2647 2388 2547 
Q 2963 2466 3280 2130 
Q 3597 1794 3597 1259 
Q 3597 606 3158 257 
Q 2719 -91 1894 -91 
Q 1528 -91 1179 -12 
Q 831 66 488 225 
L 488 1131 
L 838 1131 
Q 869 681 1141 450 
Q 1413 219 1906 219 
Q 2384 219 2661 495 
Q 2938 772 2938 1253 
Q 2938 1803 2653 2086 
Q 2369 2369 1819 2369 
L 1522 2369 
L 1522 2688 
L 1678 2688 
Q 2225 2688 2498 2914 
Q 2772 3141 2772 3597 
Q 2772 4006 2547 4223 
Q 2322 4441 1900 4441 
Q 1478 4441 1245 4241 
Q 1013 4041 972 3647 
L 622 3647 
L 622 4469 
z
" transform="scale(0.015625)"/>
       </defs>
       <use xlink:href="#DejaVuSerif-4f"/>
       <use xlink:href="#DejaVuSerif-75" x="81.982422"/>
       <use xlink:href="#DejaVuSerif-74" x="146.386719"/>
       <use xlink:href="#DejaVuSerif-20" x="186.572266"/>
       <use xlink:href="#DejaVuSerif-33" x="218.359375"/>
      </g>
     </g>
    </g>
    <g id="xtick_4">
     <g id="line2d_7">
      <path d="M 269.614286 448.56 
L 269.614286 60.48 
" clip-path="url(#p24dd970209)" style="fill: none; stroke: #ffffff; stroke-width: 0.8; stroke-linecap: square"/>
     </g>
     <g id="line2d_8">
      <g>
       <use xlink:href="#mde4551044f" x="269.614286" y="448.56" style="stroke: #000000; stroke-width: 0.8"/>
      </g>
     </g>
     <g id="text_4">
      <!-- Out 4 -->
      <g transform="translate(257.586565 493.52832) rotate(-45) scale(0.15 -0.15)">
       <defs>
        <path id="DejaVuSerif-34" d="M 2234 1581 
L 2234 4063 
L 641 1581 
L 2234 1581 
z
M 3609 0 
L 1484 0 
L 1484 331 
L 2234 331 
L 2234 1247 
L 197 1247 
L 197 1588 
L 2241 4750 
L 2859 4750 
L 2859 1581 
L 3750 1581 
L 3750 1247 
L 2859 1247 
L 2859 331 
L 3609 331 
L 3609 0 
z
" transform="scale(0.015625)"/>
       </defs>
       <use xlink:href="#DejaVuSerif-4f"/>
       <use xlink:href="#DejaVuSerif-75" x="81.982422"/>
       <use xlink:href="#DejaVuSerif-74" x="146.386719"/>
       <use xlink:href="#DejaVuSerif-20" x="186.572266"/>
       <use xlink:href="#DejaVuSerif-34" x="218.359375"/>
      </g>
     </g>
    </g>
    <g id="xtick_5">
     <g id="line2d_9">
      <path d="M 305.485714 448.56 
L 305.485714 60.48 
" clip-path="url(#p24dd970209)" style="fill: none; stroke: #ffffff; stroke-width: 0.8; stroke-linecap: square"/>
     </g>
     <g id="line2d_10">
      <g>
       <use xlink:href="#mde4551044f" x="305.485714" y="448.56" style="stroke: #000000; stroke-width: 0.8"/>
      </g>
     </g>
     <g id="text_5">
      <!-- Out 5 -->
      <g transform="translate(293.457994 493.52832) rotate(-45) scale(0.15 -0.15)">
       <defs>
        <path id="DejaVuSerif-35" d="M 3219 4666 
L 3219 4153 
L 1081 4153 
L 1081 2816 
Q 1244 2928 1461 2984 
Q 1678 3041 1947 3041 
Q 2703 3041 3140 2622 
Q 3578 2203 3578 1478 
Q 3578 738 3136 323 
Q 2694 -91 1894 -91 
Q 1572 -91 1234 -12 
Q 897 66 544 225 
L 544 1131 
L 897 1131 
Q 925 688 1179 453 
Q 1434 219 1894 219 
Q 2388 219 2653 544 
Q 2919 869 2919 1478 
Q 2919 2084 2655 2407 
Q 2391 2731 1894 2731 
Q 1613 2731 1398 2631 
Q 1184 2531 1019 2322 
L 750 2322 
L 750 4666 
L 3219 4666 
z
" transform="scale(0.015625)"/>
       </defs>
       <use xlink:href="#DejaVuSerif-4f"/>
       <use xlink:href="#DejaVuSerif-75" x="81.982422"/>
       <use xlink:href="#DejaVuSerif-74" x="146.386719"/>
       <use xlink:href="#DejaVuSerif-20" x="186.572266"/>
       <use xlink:href="#DejaVuSerif-35" x="218.359375"/>
      </g>
     </g>
    </g>
    <g id="xtick_6">
     <g id="line2d_11">
      <path d="M 341.357143 448.56 
L 341.357143 60.48 
" clip-path="url(#p24dd970209)" style="fill: none; stroke: #ffffff; stroke-width: 0.8; stroke-linecap: square"/>
     </g>
     <g id="line2d_12">
      <g>
       <use xlink:href="#mde4551044f" x="341.357143" y="448.56" style="stroke: #000000; stroke-width: 0.8"/>
      </g>
     </g>
     <g id="text_6">
      <!-- Out 6 -->
      <g transform="translate(329.329422 493.52832) rotate(-45) scale(0.15 -0.15)">
       <defs>
        <path id="DejaVuSerif-36" d="M 2094 219 
Q 2534 219 2771 542 
Q 3009 866 3009 1472 
Q 3009 2078 2771 2401 
Q 2534 2725 2094 2725 
Q 1647 2725 1412 2412 
Q 1178 2100 1178 1509 
Q 1178 888 1415 553 
Q 1653 219 2094 219 
z
M 1075 2569 
Q 1288 2803 1556 2918 
Q 1825 3034 2163 3034 
Q 2859 3034 3264 2615 
Q 3669 2197 3669 1472 
Q 3669 763 3233 336 
Q 2797 -91 2069 -91 
Q 1278 -91 853 498 
Q 428 1088 428 2181 
Q 428 3406 931 4078 
Q 1434 4750 2350 4750 
Q 2597 4750 2869 4703 
Q 3141 4656 3425 4563 
L 3425 3794 
L 3072 3794 
Q 3034 4109 2831 4275 
Q 2628 4441 2284 4441 
Q 1678 4441 1381 3981 
Q 1084 3522 1075 2569 
z
" transform="scale(0.015625)"/>
       </defs>
       <use xlink:href="#DejaVuSerif-4f"/>
       <use xlink:href="#DejaVuSerif-75" x="81.982422"/>
       <use xlink:href="#DejaVuSerif-74" x="146.386719"/>
       <use xlink:href="#DejaVuSerif-20" x="186.572266"/>
       <use xlink:href="#DejaVuSerif-36" x="218.359375"/>
      </g>
     </g>
    </g>
    <g id="xtick_7">
     <g id="line2d_13">
      <path d="M 377.228571 448.56 
L 377.228571 60.48 
" clip-path="url(#p24dd970209)" style="fill: none; stroke: #ffffff; stroke-width: 0.8; stroke-linecap: square"/>
     </g>
     <g id="line2d_14">
      <g>
       <use xlink:href="#mde4551044f" x="377.228571" y="448.56" style="stroke: #000000; stroke-width: 0.8"/>
      </g>
     </g>
     <g id="text_7">
      <!-- Out 7 -->
      <g transform="translate(365.200851 493.52832) rotate(-45) scale(0.15 -0.15)">
       <defs>
        <path id="DejaVuSerif-37" d="M 3609 4347 
L 1784 0 
L 1319 0 
L 3059 4153 
L 903 4153 
L 903 3578 
L 538 3578 
L 538 4666 
L 3609 4666 
L 3609 4347 
z
" transform="scale(0.015625)"/>
       </defs>
       <use xlink:href="#DejaVuSerif-4f"/>
       <use xlink:href="#DejaVuSerif-75" x="81.982422"/>
       <use xlink:href="#DejaVuSerif-74" x="146.386719"/>
       <use xlink:href="#DejaVuSerif-20" x="186.572266"/>
       <use xlink:href="#DejaVuSerif-37" x="218.359375"/>
      </g>
     </g>
    </g>
    <g id="xtick_8">
     <g id="line2d_15">
      <path d="M 413.1 448.56 
L 413.1 60.48 
" clip-path="url(#p24dd970209)" style="fill: none; stroke: #ffffff; stroke-width: 0.8; stroke-linecap: square"/>
     </g>
     <g id="line2d_16">
      <g>
       <use xlink:href="#mde4551044f" x="413.1" y="448.56" style="stroke: #000000; stroke-width: 0.8"/>
      </g>
     </g>
     <g id="text_8">
      <!-- Out 8 -->
      <g transform="translate(401.072279 493.52832) rotate(-45) scale(0.15 -0.15)">
       <defs>
        <path id="DejaVuSerif-38" d="M 2981 1275 
Q 2981 1775 2732 2051 
Q 2484 2328 2034 2328 
Q 1584 2328 1336 2051 
Q 1088 1775 1088 1275 
Q 1088 772 1336 495 
Q 1584 219 2034 219 
Q 2484 219 2732 495 
Q 2981 772 2981 1275 
z
M 2853 3541 
Q 2853 3966 2637 4203 
Q 2422 4441 2034 4441 
Q 1650 4441 1433 4203 
Q 1216 3966 1216 3541 
Q 1216 3113 1433 2875 
Q 1650 2638 2034 2638 
Q 2422 2638 2637 2875 
Q 2853 3113 2853 3541 
z
M 2516 2484 
Q 3047 2413 3344 2092 
Q 3641 1772 3641 1275 
Q 3641 619 3225 264 
Q 2809 -91 2034 -91 
Q 1263 -91 845 264 
Q 428 619 428 1275 
Q 428 1772 725 2092 
Q 1022 2413 1556 2484 
Q 1084 2569 832 2842 
Q 581 3116 581 3541 
Q 581 4103 968 4426 
Q 1356 4750 2034 4750 
Q 2713 4750 3100 4426 
Q 3488 4103 3488 3541 
Q 3488 3116 3236 2842 
Q 2984 2569 2516 2484 
z
" transform="scale(0.015625)"/>
       </defs>
       <use xlink:href="#DejaVuSerif-4f"/>
       <use xlink:href="#DejaVuSerif-75" x="81.982422"/>
       <use xlink:href="#DejaVuSerif-74" x="146.386719"/>
       <use xlink:href="#DejaVuSerif-20" x="186.572266"/>
       <use xlink:href="#DejaVuSerif-38" x="218.359375"/>
      </g>
     </g>
    </g>
    <g id="xtick_9">
     <g id="line2d_17">
      <path d="M 448.971429 448.56 
L 448.971429 60.48 
" clip-path="url(#p24dd970209)" style="fill: none; stroke: #ffffff; stroke-width: 0.8; stroke-linecap: square"/>
     </g>
     <g id="line2d_18">
      <g>
       <use xlink:href="#mde4551044f" x="448.971429" y="448.56" style="stroke: #000000; stroke-width: 0.8"/>
      </g>
     </g>
     <g id="text_9">
      <!-- Out 9 -->
      <g transform="translate(436.943708 493.52832) rotate(-45) scale(0.15 -0.15)">
       <defs>
        <path id="DejaVuSerif-39" d="M 2994 2091 
Q 2784 1856 2512 1740 
Q 2241 1625 1900 1625 
Q 1206 1625 804 2044 
Q 403 2463 403 3188 
Q 403 3897 839 4323 
Q 1275 4750 2003 4750 
Q 2794 4750 3217 4161 
Q 3641 3572 3641 2478 
Q 3641 1253 3137 581 
Q 2634 -91 1722 -91 
Q 1475 -91 1203 -44 
Q 931 3 647 97 
L 647 872 
L 997 872 
Q 1038 556 1241 387 
Q 1444 219 1784 219 
Q 2391 219 2687 676 
Q 2984 1134 2994 2091 
z
M 1978 4441 
Q 1534 4441 1298 4117 
Q 1063 3794 1063 3188 
Q 1063 2581 1298 2256 
Q 1534 1931 1978 1931 
Q 2422 1931 2658 2245 
Q 2894 2559 2894 3150 
Q 2894 3772 2656 4106 
Q 2419 4441 1978 4441 
z
" transform="scale(0.015625)"/>
       </defs>
       <use xlink:href="#DejaVuSerif-4f"/>
       <use xlink:href="#DejaVuSerif-75" x="81.982422"/>
       <use xlink:href="#DejaVuSerif-74" x="146.386719"/>
       <use xlink:href="#DejaVuSerif-20" x="186.572266"/>
       <use xlink:href="#DejaVuSerif-39" x="218.359375"/>
      </g>
     </g>
    </g>
    <g id="xtick_10">
     <g id="line2d_19">
      <path d="M 484.842857 448.56 
L 484.842857 60.48 
" clip-path="url(#p24dd970209)" style="fill: none; stroke: #ffffff; stroke-width: 0.8; stroke-linecap: square"/>
     </g>
     <g id="line2d_20">
      <g>
       <use xlink:href="#mde4551044f" x="484.842857" y="448.56" style="stroke: #000000; stroke-width: 0.8"/>
      </g>
     </g>
     <g id="text_10">
      <!-- Out 10 -->
      <g transform="translate(469.440911 500.27677) rotate(-45) scale(0.15 -0.15)">
       <defs>
        <path id="DejaVuSerif-30" d="M 2034 219 
Q 2513 219 2750 744 
Q 2988 1269 2988 2328 
Q 2988 3391 2750 3916 
Q 2513 4441 2034 4441 
Q 1556 4441 1318 3916 
Q 1081 3391 1081 2328 
Q 1081 1269 1318 744 
Q 1556 219 2034 219 
z
M 2034 -91 
Q 1275 -91 848 546 
Q 422 1184 422 2328 
Q 422 3475 848 4112 
Q 1275 4750 2034 4750 
Q 2797 4750 3222 4112 
Q 3647 3475 3647 2328 
Q 3647 1184 3222 546 
Q 2797 -91 2034 -91 
z
" transform="scale(0.015625)"/>
       </defs>
       <use xlink:href="#DejaVuSerif-4f"/>
       <use xlink:href="#DejaVuSerif-75" x="81.982422"/>
       <use xlink:href="#DejaVuSerif-74" x="146.386719"/>
       <use xlink:href="#DejaVuSerif-20" x="186.572266"/>
       <use xlink:href="#DejaVuSerif-31" x="218.359375"/>
       <use xlink:href="#DejaVuSerif-30" x="281.982422"/>
      </g>
     </g>
    </g>
    <g id="xtick_11">
     <g id="line2d_21">
      <path d="M 520.714286 448.56 
L 520.714286 60.48 
" clip-path="url(#p24dd970209)" style="fill: none; stroke: #ffffff; stroke-width: 0.8; stroke-linecap: square"/>
     </g>
     <g id="line2d_22">
      <g>
       <use xlink:href="#mde4551044f" x="520.714286" y="448.56" style="stroke: #000000; stroke-width: 0.8"/>
      </g>
     </g>
     <g id="text_11">
      <!-- Out 11 -->
      <g transform="translate(505.31234 500.27677) rotate(-45) scale(0.15 -0.15)">
       <use xlink:href="#DejaVuSerif-4f"/>
       <use xlink:href="#DejaVuSerif-75" x="81.982422"/>
       <use xlink:href="#DejaVuSerif-74" x="146.386719"/>
       <use xlink:href="#DejaVuSerif-20" x="186.572266"/>
       <use xlink:href="#DejaVuSerif-31" x="218.359375"/>
       <use xlink:href="#DejaVuSerif-31" x="281.982422"/>
      </g>
     </g>
    </g>
    <g id="xtick_12">
     <g id="line2d_23">
      <path d="M 556.585714 448.56 
L 556.585714 60.48 
" clip-path="url(#p24dd970209)" style="fill: none; stroke: #ffffff; stroke-width: 0.8; stroke-linecap: square"/>
     </g>
     <g id="line2d_24">
      <g>
       <use xlink:href="#mde4551044f" x="556.585714" y="448.56" style="stroke: #000000; stroke-width: 0.8"/>
      </g>
     </g>
     <g id="text_12">
      <!-- Out 12 -->
      <g transform="translate(541.183768 500.27677) rotate(-45) scale(0.15 -0.15)">
       <use xlink:href="#DejaVuSerif-4f"/>
       <use xlink:href="#DejaVuSerif-75" x="81.982422"/>
       <use xlink:href="#DejaVuSerif-74" x="146.386719"/>
       <use xlink:href="#DejaVuSerif-20" x="186.572266"/>
       <use xlink:href="#DejaVuSerif-31" x="218.359375"/>
       <use xlink:href="#DejaVuSerif-32" x="281.982422"/>
      </g>
     </g>
    </g>
    <g id="xtick_13">
     <g id="line2d_25">
      <path d="M 592.457143 448.56 
L 592.457143 60.48 
" clip-path="url(#p24dd970209)" style="fill: none; stroke: #ffffff; stroke-width: 0.8; stroke-linecap: square"/>
     </g>
     <g id="line2d_26">
      <g>
       <use xlink:href="#mde4551044f" x="592.457143" y="448.56" style="stroke: #000000; stroke-width: 0.8"/>
      </g>
     </g>
     <g id="text_13">
      <!-- Out 13 -->
      <g transform="translate(577.055197 500.27677) rotate(-45) scale(0.15 -0.15)">
       <use xlink:href="#DejaVuSerif-4f"/>
       <use xlink:href="#DejaVuSerif-75" x="81.982422"/>
       <use xlink:href="#DejaVuSerif-74" x="146.386719"/>
       <use xlink:href="#DejaVuSerif-20" x="186.572266"/>
       <use xlink:href="#DejaVuSerif-31" x="218.359375"/>
       <use xlink:href="#DejaVuSerif-33" x="281.982422"/>
      </g>
     </g>
    </g>
    <g id="xtick_14">
     <g id="line2d_27">
      <path d="M 628.328571 448.56 
L 628.328571 60.48 
" clip-path="url(#p24dd970209)" style="fill: none; stroke: #ffffff; stroke-width: 0.8; stroke-linecap: square"/>
     </g>
     <g id="line2d_28">
      <g>
       <use xlink:href="#mde4551044f" x="628.328571" y="448.56" style="stroke: #000000; stroke-width: 0.8"/>
      </g>
     </g>
     <g id="text_14">
      <!-- Out 14 -->
      <g transform="translate(612.926626 500.27677) rotate(-45) scale(0.15 -0.15)">
       <use xlink:href="#DejaVuSerif-4f"/>
       <use xlink:href="#DejaVuSerif-75" x="81.982422"/>
       <use xlink:href="#DejaVuSerif-74" x="146.386719"/>
       <use xlink:href="#DejaVuSerif-20" x="186.572266"/>
       <use xlink:href="#DejaVuSerif-31" x="218.359375"/>
       <use xlink:href="#DejaVuSerif-34" x="281.982422"/>
      </g>
     </g>
    </g>
    <g id="xtick_15">
     <g id="line2d_29">
      <path d="M 664.2 448.56 
L 664.2 60.48 
" clip-path="url(#p24dd970209)" style="fill: none; stroke: #ffffff; stroke-width: 0.8; stroke-linecap: square"/>
     </g>
     <g id="line2d_30">
      <g>
       <use xlink:href="#mde4551044f" x="664.2" y="448.56" style="stroke: #000000; stroke-width: 0.8"/>
      </g>
     </g>
     <g id="text_15">
      <!-- Out 15 -->
      <g transform="translate(648.798054 500.27677) rotate(-45) scale(0.15 -0.15)">
       <use xlink:href="#DejaVuSerif-4f"/>
       <use xlink:href="#DejaVuSerif-75" x="81.982422"/>
       <use xlink:href="#DejaVuSerif-74" x="146.386719"/>
       <use xlink:href="#DejaVuSerif-20" x="186.572266"/>
       <use xlink:href="#DejaVuSerif-31" x="218.359375"/>
       <use xlink:href="#DejaVuSerif-35" x="281.982422"/>
      </g>
     </g>
    </g>
    <g id="xtick_16">
     <g id="line2d_31">
      <path d="M 700.071429 448.56 
L 700.071429 60.48 
" clip-path="url(#p24dd970209)" style="fill: none; stroke: #ffffff; stroke-width: 0.8; stroke-linecap: square"/>
     </g>
     <g id="line2d_32">
      <g>
       <use xlink:href="#mde4551044f" x="700.071429" y="448.56" style="stroke: #000000; stroke-width: 0.8"/>
      </g>
     </g>
     <g id="text_16">
      <!-- Out 16 -->
      <g transform="translate(684.669483 500.27677) rotate(-45) scale(0.15 -0.15)">
       <use xlink:href="#DejaVuSerif-4f"/>
       <use xlink:href="#DejaVuSerif-75" x="81.982422"/>
       <use xlink:href="#DejaVuSerif-74" x="146.386719"/>
       <use xlink:href="#DejaVuSerif-20" x="186.572266"/>
       <use xlink:href="#DejaVuSerif-31" x="218.359375"/>
       <use xlink:href="#DejaVuSerif-36" x="281.982422"/>
      </g>
     </g>
    </g>
    <g id="xtick_17">
     <g id="line2d_33">
      <path d="M 735.942857 448.56 
L 735.942857 60.48 
" clip-path="url(#p24dd970209)" style="fill: none; stroke: #ffffff; stroke-width: 0.8; stroke-linecap: square"/>
     </g>
     <g id="line2d_34">
      <g>
       <use xlink:href="#mde4551044f" x="735.942857" y="448.56" style="stroke: #000000; stroke-width: 0.8"/>
      </g>
     </g>
     <g id="text_17">
      <!-- Out 17 -->
      <g transform="translate(720.540911 500.27677) rotate(-45) scale(0.15 -0.15)">
       <use xlink:href="#DejaVuSerif-4f"/>
       <use xlink:href="#DejaVuSerif-75" x="81.982422"/>
       <use xlink:href="#DejaVuSerif-74" x="146.386719"/>
       <use xlink:href="#DejaVuSerif-20" x="186.572266"/>
       <use xlink:href="#DejaVuSerif-31" x="218.359375"/>
       <use xlink:href="#DejaVuSerif-37" x="281.982422"/>
      </g>
     </g>
    </g>
    <g id="xtick_18">
     <g id="line2d_35">
      <path d="M 771.814286 448.56 
L 771.814286 60.48 
" clip-path="url(#p24dd970209)" style="fill: none; stroke: #ffffff; stroke-width: 0.8; stroke-linecap: square"/>
     </g>
     <g id="line2d_36">
      <g>
       <use xlink:href="#mde4551044f" x="771.814286" y="448.56" style="stroke: #000000; stroke-width: 0.8"/>
      </g>
     </g>
     <g id="text_18">
      <!-- Out 18 -->
      <g transform="translate(756.41234 500.27677) rotate(-45) scale(0.15 -0.15)">
       <use xlink:href="#DejaVuSerif-4f"/>
       <use xlink:href="#DejaVuSerif-75" x="81.982422"/>
       <use xlink:href="#DejaVuSerif-74" x="146.386719"/>
       <use xlink:href="#DejaVuSerif-20" x="186.572266"/>
       <use xlink:href="#DejaVuSerif-31" x="218.359375"/>
       <use xlink:href="#DejaVuSerif-38" x="281.982422"/>
      </g>
     </g>
    </g>
    <g id="xtick_19">
     <g id="line2d_37">
      <path d="M 807.685714 448.56 
L 807.685714 60.48 
" clip-path="url(#p24dd970209)" style="fill: none; stroke: #ffffff; stroke-width: 0.8; stroke-linecap: square"/>
     </g>
     <g id="line2d_38">
      <g>
       <use xlink:href="#mde4551044f" x="807.685714" y="448.56" style="stroke: #000000; stroke-width: 0.8"/>
      </g>
     </g>
     <g id="text_19">
      <!-- Out 19 -->
      <g transform="translate(792.283768 500.27677) rotate(-45) scale(0.15 -0.15)">
       <use xlink:href="#DejaVuSerif-4f"/>
       <use xlink:href="#DejaVuSerif-75" x="81.982422"/>
       <use xlink:href="#DejaVuSerif-74" x="146.386719"/>
       <use xlink:href="#DejaVuSerif-20" x="186.572266"/>
       <use xlink:href="#DejaVuSerif-31" x="218.359375"/>
       <use xlink:href="#DejaVuSerif-39" x="281.982422"/>
      </g>
     </g>
    </g>
    <g id="xtick_20">
     <g id="line2d_39">
      <path d="M 843.557143 448.56 
L 843.557143 60.48 
" clip-path="url(#p24dd970209)" style="fill: none; stroke: #ffffff; stroke-width: 0.8; stroke-linecap: square"/>
     </g>
     <g id="line2d_40">
      <g>
       <use xlink:href="#mde4551044f" x="843.557143" y="448.56" style="stroke: #000000; stroke-width: 0.8"/>
      </g>
     </g>
     <g id="text_20">
      <!-- Out 20 -->
      <g transform="translate(828.155197 500.27677) rotate(-45) scale(0.15 -0.15)">
       <use xlink:href="#DejaVuSerif-4f"/>
       <use xlink:href="#DejaVuSerif-75" x="81.982422"/>
       <use xlink:href="#DejaVuSerif-74" x="146.386719"/>
       <use xlink:href="#DejaVuSerif-20" x="186.572266"/>
       <use xlink:href="#DejaVuSerif-32" x="218.359375"/>
       <use xlink:href="#DejaVuSerif-30" x="281.982422"/>
      </g>
     </g>
    </g>
    <g id="xtick_21">
     <g id="line2d_41">
      <path d="M 879.428571 448.56 
L 879.428571 60.48 
" clip-path="url(#p24dd970209)" style="fill: none; stroke: #ffffff; stroke-width: 0.8; stroke-linecap: square"/>
     </g>
     <g id="line2d_42">
      <g>
       <use xlink:href="#mde4551044f" x="879.428571" y="448.56" style="stroke: #000000; stroke-width: 0.8"/>
      </g>
     </g>
     <g id="text_21">
      <!-- Out 21 -->
      <g transform="translate(864.026626 500.27677) rotate(-45) scale(0.15 -0.15)">
       <use xlink:href="#DejaVuSerif-4f"/>
       <use xlink:href="#DejaVuSerif-75" x="81.982422"/>
       <use xlink:href="#DejaVuSerif-74" x="146.386719"/>
       <use xlink:href="#DejaVuSerif-20" x="186.572266"/>
       <use xlink:href="#DejaVuSerif-32" x="218.359375"/>
       <use xlink:href="#DejaVuSerif-31" x="281.982422"/>
      </g>
     </g>
    </g>
    <g id="xtick_22">
     <g id="line2d_43">
      <path d="M 915.3 448.56 
L 915.3 60.48 
" clip-path="url(#p24dd970209)" style="fill: none; stroke: #ffffff; stroke-width: 0.8; stroke-linecap: square"/>
     </g>
     <g id="line2d_44">
      <g>
       <use xlink:href="#mde4551044f" x="915.3" y="448.56" style="stroke: #000000; stroke-width: 0.8"/>
      </g>
     </g>
     <g id="text_22">
      <!-- Out 22 -->
      <g transform="translate(899.898054 500.27677) rotate(-45) scale(0.15 -0.15)">
       <use xlink:href="#DejaVuSerif-4f"/>
       <use xlink:href="#DejaVuSerif-75" x="81.982422"/>
       <use xlink:href="#DejaVuSerif-74" x="146.386719"/>
       <use xlink:href="#DejaVuSerif-20" x="186.572266"/>
       <use xlink:href="#DejaVuSerif-32" x="218.359375"/>
       <use xlink:href="#DejaVuSerif-32" x="281.982422"/>
      </g>
     </g>
    </g>
    <g id="xtick_23">
     <g id="line2d_45">
      <path d="M 951.171429 448.56 
L 951.171429 60.48 
" clip-path="url(#p24dd970209)" style="fill: none; stroke: #ffffff; stroke-width: 0.8; stroke-linecap: square"/>
     </g>
     <g id="line2d_46">
      <g>
       <use xlink:href="#mde4551044f" x="951.171429" y="448.56" style="stroke: #000000; stroke-width: 0.8"/>
      </g>
     </g>
     <g id="text_23">
      <!-- Out 23 -->
      <g transform="translate(935.769483 500.27677) rotate(-45) scale(0.15 -0.15)">
       <use xlink:href="#DejaVuSerif-4f"/>
       <use xlink:href="#DejaVuSerif-75" x="81.982422"/>
       <use xlink:href="#DejaVuSerif-74" x="146.386719"/>
       <use xlink:href="#DejaVuSerif-20" x="186.572266"/>
       <use xlink:href="#DejaVuSerif-32" x="218.359375"/>
       <use xlink:href="#DejaVuSerif-33" x="281.982422"/>
      </g>
     </g>
    </g>
    <g id="xtick_24">
     <g id="line2d_47">
      <path d="M 987.042857 448.56 
L 987.042857 60.48 
" clip-path="url(#p24dd970209)" style="fill: none; stroke: #ffffff; stroke-width: 0.8; stroke-linecap: square"/>
     </g>
     <g id="line2d_48">
      <g>
       <use xlink:href="#mde4551044f" x="987.042857" y="448.56" style="stroke: #000000; stroke-width: 0.8"/>
      </g>
     </g>
     <g id="text_24">
      <!-- Out 24 -->
      <g transform="translate(971.640911 500.27677) rotate(-45) scale(0.15 -0.15)">
       <use xlink:href="#DejaVuSerif-4f"/>
       <use xlink:href="#DejaVuSerif-75" x="81.982422"/>
       <use xlink:href="#DejaVuSerif-74" x="146.386719"/>
       <use xlink:href="#DejaVuSerif-20" x="186.572266"/>
       <use xlink:href="#DejaVuSerif-32" x="218.359375"/>
       <use xlink:href="#DejaVuSerif-34" x="281.982422"/>
      </g>
     </g>
    </g>
    <g id="xtick_25">
     <g id="line2d_49">
      <path d="M 1022.914286 448.56 
L 1022.914286 60.48 
" clip-path="url(#p24dd970209)" style="fill: none; stroke: #ffffff; stroke-width: 0.8; stroke-linecap: square"/>
     </g>
     <g id="line2d_50">
      <g>
       <use xlink:href="#mde4551044f" x="1022.914286" y="448.56" style="stroke: #000000; stroke-width: 0.8"/>
      </g>
     </g>
     <g id="text_25">
      <!-- Out 25 -->
      <g transform="translate(1007.51234 500.27677) rotate(-45) scale(0.15 -0.15)">
       <use xlink:href="#DejaVuSerif-4f"/>
       <use xlink:href="#DejaVuSerif-75" x="81.982422"/>
       <use xlink:href="#DejaVuSerif-74" x="146.386719"/>
       <use xlink:href="#DejaVuSerif-20" x="186.572266"/>
       <use xlink:href="#DejaVuSerif-32" x="218.359375"/>
       <use xlink:href="#DejaVuSerif-35" x="281.982422"/>
      </g>
     </g>
    </g>
    <g id="xtick_26">
     <g id="line2d_51">
      <path d="M 1058.785714 448.56 
L 1058.785714 60.48 
" clip-path="url(#p24dd970209)" style="fill: none; stroke: #ffffff; stroke-width: 0.8; stroke-linecap: square"/>
     </g>
     <g id="line2d_52">
      <g>
       <use xlink:href="#mde4551044f" x="1058.785714" y="448.56" style="stroke: #000000; stroke-width: 0.8"/>
      </g>
     </g>
     <g id="text_26">
      <!-- Out 26 -->
      <g transform="translate(1043.383768 500.27677) rotate(-45) scale(0.15 -0.15)">
       <use xlink:href="#DejaVuSerif-4f"/>
       <use xlink:href="#DejaVuSerif-75" x="81.982422"/>
       <use xlink:href="#DejaVuSerif-74" x="146.386719"/>
       <use xlink:href="#DejaVuSerif-20" x="186.572266"/>
       <use xlink:href="#DejaVuSerif-32" x="218.359375"/>
       <use xlink:href="#DejaVuSerif-36" x="281.982422"/>
      </g>
     </g>
    </g>
    <g id="xtick_27">
     <g id="line2d_53">
      <path d="M 1094.657143 448.56 
L 1094.657143 60.48 
" clip-path="url(#p24dd970209)" style="fill: none; stroke: #ffffff; stroke-width: 0.8; stroke-linecap: square"/>
     </g>
     <g id="line2d_54">
      <g>
       <use xlink:href="#mde4551044f" x="1094.657143" y="448.56" style="stroke: #000000; stroke-width: 0.8"/>
      </g>
     </g>
     <g id="text_27">
      <!-- Out 27 -->
      <g transform="translate(1079.255197 500.27677) rotate(-45) scale(0.15 -0.15)">
       <use xlink:href="#DejaVuSerif-4f"/>
       <use xlink:href="#DejaVuSerif-75" x="81.982422"/>
       <use xlink:href="#DejaVuSerif-74" x="146.386719"/>
       <use xlink:href="#DejaVuSerif-20" x="186.572266"/>
       <use xlink:href="#DejaVuSerif-32" x="218.359375"/>
       <use xlink:href="#DejaVuSerif-37" x="281.982422"/>
      </g>
     </g>
    </g>
    <g id="xtick_28">
     <g id="line2d_55">
      <path d="M 1130.528571 448.56 
L 1130.528571 60.48 
" clip-path="url(#p24dd970209)" style="fill: none; stroke: #ffffff; stroke-width: 0.8; stroke-linecap: square"/>
     </g>
     <g id="line2d_56">
      <g>
       <use xlink:href="#mde4551044f" x="1130.528571" y="448.56" style="stroke: #000000; stroke-width: 0.8"/>
      </g>
     </g>
     <g id="text_28">
      <!-- Out 28 -->
      <g transform="translate(1115.126626 500.27677) rotate(-45) scale(0.15 -0.15)">
       <use xlink:href="#DejaVuSerif-4f"/>
       <use xlink:href="#DejaVuSerif-75" x="81.982422"/>
       <use xlink:href="#DejaVuSerif-74" x="146.386719"/>
       <use xlink:href="#DejaVuSerif-20" x="186.572266"/>
       <use xlink:href="#DejaVuSerif-32" x="218.359375"/>
       <use xlink:href="#DejaVuSerif-38" x="281.982422"/>
      </g>
     </g>
    </g>
   </g>
   <g id="matplotlib.axis_2">
    <g id="ytick_1">
     <g id="line2d_57">
      <path d="M 162 443.151729 
L 1166.4 443.151729 
" clip-path="url(#p24dd970209)" style="fill: none; stroke: #ffffff; stroke-width: 0.8; stroke-linecap: square"/>
     </g>
     <g id="line2d_58">
      <defs>
       <path id="m9c2c5fdb1c" d="M 0 0 
L -3.5 0 
" style="stroke: #000000; stroke-width: 0.8"/>
      </defs>
      <g>
       <use xlink:href="#m9c2c5fdb1c" x="162" y="443.151729" style="stroke: #000000; stroke-width: 0.8"/>
      </g>
     </g>
     <g id="text_29">
      <!-- 30000 -->
      <g transform="translate(107.28125 448.850557) scale(0.15 -0.15)">
       <use xlink:href="#DejaVuSerif-33"/>
       <use xlink:href="#DejaVuSerif-30" x="63.623047"/>
       <use xlink:href="#DejaVuSerif-30" x="127.246094"/>
       <use xlink:href="#DejaVuSerif-30" x="190.869141"/>
       <use xlink:href="#DejaVuSerif-30" x="254.492188"/>
      </g>
     </g>
    </g>
    <g id="ytick_2">
     <g id="line2d_59">
      <path d="M 162 357.813425 
L 1166.4 357.813425 
" clip-path="url(#p24dd970209)" style="fill: none; stroke: #ffffff; stroke-width: 0.8; stroke-linecap: square"/>
     </g>
     <g id="line2d_60">
      <g>
       <use xlink:href="#m9c2c5fdb1c" x="162" y="357.813425" style="stroke: #000000; stroke-width: 0.8"/>
      </g>
     </g>
     <g id="text_30">
      <!-- 40000 -->
      <g transform="translate(107.28125 363.512253) scale(0.15 -0.15)">
       <use xlink:href="#DejaVuSerif-34"/>
       <use xlink:href="#DejaVuSerif-30" x="63.623047"/>
       <use xlink:href="#DejaVuSerif-30" x="127.246094"/>
       <use xlink:href="#DejaVuSerif-30" x="190.869141"/>
       <use xlink:href="#DejaVuSerif-30" x="254.492188"/>
      </g>
     </g>
    </g>
    <g id="ytick_3">
     <g id="line2d_61">
      <path d="M 162 272.475121 
L 1166.4 272.475121 
" clip-path="url(#p24dd970209)" style="fill: none; stroke: #ffffff; stroke-width: 0.8; stroke-linecap: square"/>
     </g>
     <g id="line2d_62">
      <g>
       <use xlink:href="#m9c2c5fdb1c" x="162" y="272.475121" style="stroke: #000000; stroke-width: 0.8"/>
      </g>
     </g>
     <g id="text_31">
      <!-- 50000 -->
      <g transform="translate(107.28125 278.173949) scale(0.15 -0.15)">
       <use xlink:href="#DejaVuSerif-35"/>
       <use xlink:href="#DejaVuSerif-30" x="63.623047"/>
       <use xlink:href="#DejaVuSerif-30" x="127.246094"/>
       <use xlink:href="#DejaVuSerif-30" x="190.869141"/>
       <use xlink:href="#DejaVuSerif-30" x="254.492188"/>
      </g>
     </g>
    </g>
    <g id="ytick_4">
     <g id="line2d_63">
      <path d="M 162 187.136817 
L 1166.4 187.136817 
" clip-path="url(#p24dd970209)" style="fill: none; stroke: #ffffff; stroke-width: 0.8; stroke-linecap: square"/>
     </g>
     <g id="line2d_64">
      <g>
       <use xlink:href="#m9c2c5fdb1c" x="162" y="187.136817" style="stroke: #000000; stroke-width: 0.8"/>
      </g>
     </g>
     <g id="text_32">
      <!-- 60000 -->
      <g transform="translate(107.28125 192.835645) scale(0.15 -0.15)">
       <use xlink:href="#DejaVuSerif-36"/>
       <use xlink:href="#DejaVuSerif-30" x="63.623047"/>
       <use xlink:href="#DejaVuSerif-30" x="127.246094"/>
       <use xlink:href="#DejaVuSerif-30" x="190.869141"/>
       <use xlink:href="#DejaVuSerif-30" x="254.492188"/>
      </g>
     </g>
    </g>
    <g id="ytick_5">
     <g id="line2d_65">
      <path d="M 162 101.798513 
L 1166.4 101.798513 
" clip-path="url(#p24dd970209)" style="fill: none; stroke: #ffffff; stroke-width: 0.8; stroke-linecap: square"/>
     </g>
     <g id="line2d_66">
      <g>
       <use xlink:href="#m9c2c5fdb1c" x="162" y="101.798513" style="stroke: #000000; stroke-width: 0.8"/>
      </g>
     </g>
     <g id="text_33">
      <!-- 70000 -->
      <g transform="translate(107.28125 107.497341) scale(0.15 -0.15)">
       <use xlink:href="#DejaVuSerif-37"/>
       <use xlink:href="#DejaVuSerif-30" x="63.623047"/>
       <use xlink:href="#DejaVuSerif-30" x="127.246094"/>
       <use xlink:href="#DejaVuSerif-30" x="190.869141"/>
       <use xlink:href="#DejaVuSerif-30" x="254.492188"/>
      </g>
     </g>
    </g>
    <g id="text_34">
     <!-- (GW) -->
     <g transform="translate(100.161719 274.072734) rotate(-90) scale(0.15 -0.15)">
      <defs>
       <path id="DejaVuSerif-28" d="M 2041 -997 
Q 1281 -656 893 83 
Q 506 822 506 1931 
Q 506 3044 893 3783 
Q 1281 4522 2041 4863 
L 2041 4556 
Q 1559 4225 1350 3623 
Q 1141 3022 1141 1931 
Q 1141 844 1350 242 
Q 1559 -359 2041 -691 
L 2041 -997 
z
" transform="scale(0.015625)"/>
       <path id="DejaVuSerif-47" d="M 4097 3272 
Q 3988 3856 3641 4136 
Q 3294 4416 2675 4416 
Q 1869 4416 1472 3897 
Q 1075 3378 1075 2328 
Q 1075 1300 1484 772 
Q 1894 244 2688 244 
Q 3041 244 3362 331 
Q 3684 419 3975 594 
L 3975 1797 
L 3097 1797 
L 3097 2131 
L 4609 2131 
L 4609 391 
Q 4194 150 3714 29 
Q 3234 -91 2688 -91 
Q 1631 -91 995 570 
Q 359 1231 359 2328 
Q 359 3434 996 4092 
Q 1634 4750 2713 4750 
Q 3113 4750 3539 4658 
Q 3966 4566 4447 4378 
L 4447 3272 
L 4097 3272 
z
" transform="scale(0.015625)"/>
       <path id="DejaVuSerif-57" d="M 4878 0 
L 4366 0 
L 3297 3794 
L 2228 0 
L 1716 0 
L 494 4331 
L 31 4331 
L 31 4666 
L 1734 4666 
L 1734 4331 
L 1153 4331 
L 2125 884 
L 3188 4666 
L 3694 4666 
L 4775 844 
L 5753 4331 
L 5216 4331 
L 5216 4666 
L 6559 4666 
L 6559 4331 
L 6100 4331 
L 4878 0 
z
" transform="scale(0.015625)"/>
       <path id="DejaVuSerif-29" d="M 453 -997 
L 453 -691 
Q 934 -359 1145 242 
Q 1356 844 1356 1931 
Q 1356 3022 1145 3623 
Q 934 4225 453 4556 
L 453 4863 
Q 1216 4522 1603 3783 
Q 1991 3044 1991 1931 
Q 1991 822 1603 83 
Q 1216 -656 453 -997 
z
" transform="scale(0.015625)"/>
      </defs>
      <use xlink:href="#DejaVuSerif-28"/>
      <use xlink:href="#DejaVuSerif-47" x="39.013672"/>
      <use xlink:href="#DejaVuSerif-57" x="118.896484"/>
      <use xlink:href="#DejaVuSerif-29" x="221.679688"/>
     </g>
    </g>
   </g>
   <g id="line2d_67">
    <path d="M 162 274.114516 
L 162.747321 287.687474 
L 164.241964 309.839931 
L 164.989286 315.197643 
L 165.736607 322.509735 
L 167.23125 330.064942 
L 167.978571 330.163981 
L 168.725893 331.067367 
L 169.473214 327.166073 
L 170.220536 329.399737 
L 170.967857 342.541602 
L 171.715179 348.138161 
L 172.4625 366.721977 
L 173.209821 359.491556 
L 173.957143 362.02777 
L 174.704464 359.665833 
L 175.451786 356.599788 
L 176.199107 356.871937 
L 176.946429 353.375166 
L 177.69375 353.467105 
L 178.441071 349.009646 
L 179.188393 349.624415 
L 179.935714 344.748664 
L 180.683036 346.291887 
L 181.430357 339.559628 
L 182.177679 334.14478 
L 182.925 322.843455 
L 184.419643 305.509145 
L 185.166964 293.865133 
L 186.661607 262.244692 
L 187.408929 229.441948 
L 188.15625 203.483402 
L 188.903571 170.061455 
L 189.650893 149.595597 
L 191.145536 174.528616 
L 191.892857 192.85145 
L 192.640179 204.94182 
L 194.134821 232.547462 
L 196.376786 270.240057 
L 197.124107 278.971266 
L 197.871429 319.523095 
L 199.366071 341.670551 
L 200.113393 350.487898 
L 200.860714 350.068807 
L 201.608036 356.260135 
L 202.355357 353.793524 
L 203.102679 357.586512 
L 203.85 360.794632 
L 204.597321 362.458562 
L 205.344643 365.556076 
L 206.091964 373.475271 
L 206.839286 384.440443 
L 207.586607 391.980215 
L 208.333929 411.297907 
L 209.08125 411.06076 
L 209.828571 406.049468 
L 210.575893 405.357094 
L 211.323214 402.143774 
L 212.070536 400.923403 
L 212.817857 387.117065 
L 213.565179 382.84535 
L 214.3125 370.419093 
L 215.059821 368.42321 
L 215.807143 364.492981 
L 216.554464 365.565677 
L 217.301786 364.526549 
L 218.049107 362.606471 
L 218.796429 358.623439 
L 220.291071 343.911215 
L 221.038393 332.408845 
L 222.533036 296.634028 
L 224.775 194.800463 
L 225.522321 178.614387 
L 226.269643 191.693815 
L 227.016964 198.793796 
L 227.764286 212.948087 
L 228.511607 219.334792 
L 230.00625 238.949568 
L 230.753571 262.74002 
L 232.248214 289.887902 
L 232.995536 299.741376 
L 233.742857 315.631835 
L 234.490179 327.341883 
L 235.2375 331.218309 
L 235.984821 339.256411 
L 237.479464 347.984152 
L 238.226786 349.03288 
L 238.974107 348.725262 
L 239.721429 351.959984 
L 240.46875 348.074124 
L 241.216071 340.087092 
L 241.963393 333.674819 
L 242.710714 315.027833 
L 243.458036 312.749067 
L 244.205357 300.925178 
L 244.952679 284.670498 
L 245.7 274.168986 
L 246.447321 266.717752 
L 247.194643 254.075982 
L 247.941964 250.292195 
L 248.689286 233.776467 
L 249.436607 229.203867 
L 250.183929 217.185634 
L 250.93125 220.987955 
L 251.678571 228.39962 
L 252.425893 230.17499 
L 253.173214 211.767418 
L 253.920536 196.846649 
L 254.667857 194.324902 
L 255.415179 183.102682 
L 256.1625 183.539641 
L 257.657143 162.516449 
L 258.404464 159.239892 
L 259.151786 157.875312 
L 259.899107 147.77069 
L 260.646429 140.15498 
L 261.39375 130.879273 
L 262.141071 130.116162 
L 262.888393 133.253745 
L 263.635714 145.088067 
L 264.383036 150.019288 
L 265.130357 151.146187 
L 265.877679 157.733771 
L 267.372321 194.8665 
L 268.866964 227.369594 
L 269.614286 271.515398 
L 270.361607 286.153118 
L 271.85625 303.232312 
L 273.350893 312.890775 
L 274.098214 312.364844 
L 274.845536 314.096445 
L 275.592857 306.756884 
L 276.340179 304.896309 
L 277.0875 295.12174 
L 277.834821 288.793471 
L 278.582143 276.075264 
L 279.329464 271.138043 
L 280.076786 260.173404 
L 280.824107 245.67326 
L 281.571429 233.94141 
L 282.31875 228.885549 
L 283.066071 212.075403 
L 283.813393 210.47951 
L 284.560714 195.816656 
L 285.308036 193.227705 
L 286.055357 187.208321 
L 286.802679 192.167143 
L 287.55 206.166558 
L 288.297321 209.051427 
L 289.044643 190.455543 
L 289.791964 175.655448 
L 290.539286 170.051121 
L 291.286607 160.01017 
L 292.033929 167.116317 
L 293.528571 148.84972 
L 294.275893 143.633316 
L 295.023214 132.930126 
L 296.517857 108.640378 
L 297.265179 91.547782 
L 298.0125 103.228863 
L 298.759821 111.182326 
L 299.507143 125.688771 
L 300.254464 131.538645 
L 301.749107 149.76484 
L 303.24375 181.012927 
L 303.991071 198.661221 
L 304.738393 213.547788 
L 305.485714 255.785282 
L 306.233036 270.762254 
L 307.727679 291.23358 
L 308.475 298.507271 
L 309.969643 308.869974 
L 310.716964 310.322459 
L 311.464286 308.336243 
L 312.211607 306.857957 
L 312.958929 303.098805 
L 313.70625 296.120998 
L 314.453571 290.219754 
L 315.200893 287.602802 
L 315.948214 284.248673 
L 316.695536 272.975283 
L 317.442857 266.552243 
L 318.190179 261.169796 
L 318.9375 259.151078 
L 319.684821 257.937841 
L 320.432143 259.396792 
L 321.179464 254.836427 
L 321.926786 248.988053 
L 322.674107 253.28317 
L 323.421429 253.381875 
L 324.16875 254.222491 
L 324.916071 241.866071 
L 325.663393 227.476866 
L 327.158036 206.013416 
L 328.652679 187.405599 
L 329.4 173.672832 
L 330.147321 166.658957 
L 330.894643 153.433254 
L 331.641964 143.912132 
L 333.136607 104.094846 
L 333.883929 104.641145 
L 334.63125 111.931569 
L 335.378571 121.811078 
L 336.125893 127.756291 
L 336.873214 129.176841 
L 337.620536 139.273695 
L 339.8625 194.321102 
L 340.609821 208.593367 
L 341.357143 243.662309 
L 342.104464 257.692193 
L 342.851786 268.061164 
L 344.346429 284.748269 
L 345.09375 292.02836 
L 345.841071 293.883701 
L 346.588393 294.998466 
L 347.335714 293.821064 
L 348.083036 293.52678 
L 349.577679 281.821265 
L 350.325 278.554108 
L 351.072321 274.020978 
L 351.819643 274.333729 
L 352.566964 261.916706 
L 353.314286 257.355107 
L 354.061607 251.666409 
L 354.808929 250.494807 
L 355.55625 248.787308 
L 356.303571 244.624399 
L 357.050893 239.375393 
L 357.798214 232.755407 
L 358.545536 237.154597 
L 359.292857 246.262927 
L 360.040179 247.121611 
L 360.7875 229.882273 
L 361.534821 215.584474 
L 362.282143 196.236813 
L 363.776786 171.372398 
L 364.524107 159.464105 
L 365.271429 144.350258 
L 366.01875 139.102085 
L 367.513393 121.563797 
L 368.260714 101.043735 
L 369.008036 86.301543 
L 369.755357 92.726117 
L 370.502679 100.190486 
L 371.25 111.187259 
L 371.997321 116.726582 
L 373.491964 136.593473 
L 374.239286 154.449013 
L 374.986607 166.280102 
L 375.733929 187.125349 
L 376.48125 202.168026 
L 377.228571 239.893456 
L 377.975893 255.829418 
L 379.470536 276.52329 
L 380.217857 279.755778 
L 380.965179 285.778629 
L 381.7125 284.844141 
L 382.459821 287.921354 
L 383.207143 287.293184 
L 383.954464 285.44791 
L 384.701786 279.839516 
L 385.449107 276.143401 
L 386.196429 266.547876 
L 386.94375 262.21239 
L 387.691071 256.6605 
L 389.185714 229.267904 
L 389.933036 225.525286 
L 390.680357 217.736432 
L 391.427679 215.647877 
L 392.175 214.331167 
L 393.669643 207.759551 
L 394.416964 212.26158 
L 395.164286 220.671737 
L 395.911607 221.023491 
L 396.658929 208.18701 
L 397.40625 190.435009 
L 398.153571 179.238857 
L 398.900893 170.135826 
L 399.648214 166.000152 
L 400.395536 157.802708 
L 401.142857 146.906373 
L 401.890179 143.841028 
L 402.6375 144.080175 
L 403.384821 134.88524 
L 404.132143 121.557864 
L 404.879464 101.083338 
L 405.626786 103.19126 
L 407.86875 130.515519 
L 408.616071 142.770299 
L 409.363393 150.375975 
L 410.858036 178.551983 
L 411.605357 177.184904 
L 413.1 233.101427 
L 413.847321 247.664676 
L 414.594643 252.868712 
L 415.341964 262.685417 
L 416.089286 262.228557 
L 416.836607 268.295844 
L 417.583929 273.221798 
L 418.33125 276.111633 
L 419.078571 278.327495 
L 419.825893 279.853451 
L 420.573214 280.516189 
L 421.320536 283.416458 
L 422.067857 287.419725 
L 423.5625 296.66363 
L 424.309821 292.809572 
L 425.057143 292.491553 
L 425.804464 292.733968 
L 426.551786 292.685965 
L 427.299107 293.435708 
L 428.046429 289.638321 
L 428.79375 289.34647 
L 430.288393 292.148967 
L 431.035714 306.325893 
L 431.783036 306.16315 
L 432.530357 312.743266 
L 433.277679 307.757876 
L 434.025 308.435982 
L 434.772321 299.951555 
L 435.519643 300.465685 
L 436.266964 289.883735 
L 437.761607 263.12731 
L 440.003571 173.620796 
L 440.750893 153.935749 
L 441.498214 159.030146 
L 442.992857 181.319778 
L 443.740179 193.299676 
L 444.4875 208.936987 
L 448.224107 269.002185 
L 448.971429 296.896343 
L 449.71875 310.251788 
L 451.213393 328.584289 
L 451.960714 331.987354 
L 452.708036 337.69152 
L 454.202679 346.698244 
L 454.95 346.162913 
L 455.697321 348.8023 
L 457.191964 362.050205 
L 458.686607 387.408849 
L 459.433929 417.436865 
L 460.18125 418.817312 
L 460.928571 424.099903 
L 461.675893 426.547245 
L 462.423214 430.591681 
L 463.170536 430.92 
L 463.917857 430.582964 
L 464.665179 427.245686 
L 465.4125 416.654286 
L 466.159821 413.527504 
L 466.907143 415.736166 
L 467.654464 414.808112 
L 468.401786 414.524628 
L 469.896429 406.425923 
L 471.391071 387.956847 
L 472.138393 374.756145 
L 472.885714 348.529318 
L 473.633036 330.667577 
L 474.380357 278.548608 
L 475.127679 249.718595 
L 475.875 199.170718 
L 476.622321 180.499497 
L 477.369643 184.655739 
L 478.116964 190.415441 
L 478.864286 204.64527 
L 479.611607 210.689789 
L 480.358929 220.362119 
L 481.10625 228.00133 
L 481.853571 245.741597 
L 482.600893 257.369774 
L 483.348214 263.863786 
L 484.095536 274.18292 
L 484.842857 279.281717 
L 485.590179 290.402265 
L 486.3375 294.624978 
L 487.084821 302.410398 
L 487.832143 304.762968 
L 488.579464 310.182984 
L 489.326786 308.34241 
L 490.074107 308.607392 
L 490.821429 302.915127 
L 491.56875 299.63487 
L 493.063393 288.863775 
L 493.810714 278.839658 
L 494.558036 271.384691 
L 495.305357 269.995343 
L 496.052679 254.806958 
L 497.547321 241.568321 
L 499.041964 235.596339 
L 499.789286 238.23166 
L 500.536607 235.340758 
L 501.283929 234.426805 
L 502.03125 238.80736 
L 502.778571 256.491223 
L 503.525893 257.41121 
L 504.273214 251.17488 
L 505.020536 236.0564 
L 506.515179 217.784269 
L 507.2625 204.879584 
L 508.009821 196.231346 
L 508.757143 176.341955 
L 509.504464 172.060005 
L 510.251786 161.95485 
L 510.999107 153.393118 
L 512.49375 120.418197 
L 513.241071 129.855947 
L 513.988393 134.701362 
L 514.735714 146.594822 
L 515.483036 151.400235 
L 516.230357 160.616039 
L 516.977679 168.034304 
L 517.725 189.879676 
L 519.219643 223.718314 
L 519.966964 238.990437 
L 520.714286 277.978241 
L 521.461607 290.226321 
L 522.208929 308.475251 
L 522.95625 318.891291 
L 523.703571 318.65051 
L 524.450893 324.54032 
L 525.198214 322.02084 
L 525.945536 323.479025 
L 526.692857 319.754075 
L 528.1875 315.515761 
L 529.682143 304.353144 
L 530.429464 300.427116 
L 531.176786 307.880183 
L 531.924107 294.867692 
L 532.671429 278.619712 
L 533.41875 271.117375 
L 534.166071 258.54811 
L 534.913393 253.693227 
L 535.660714 254.344431 
L 536.408036 250.838094 
L 537.155357 248.251343 
L 537.902679 252.470289 
L 538.65 260.583595 
L 539.397321 260.591095 
L 540.144643 250.53941 
L 541.639286 217.219102 
L 542.386607 206.94217 
L 543.133929 200.910619 
L 543.88125 191.646479 
L 544.628571 175.182687 
L 545.375893 171.33963 
L 546.123214 160.591237 
L 546.870536 154.075024 
L 547.617857 131.85553 
L 548.365179 115.165224 
L 549.859821 132.952127 
L 550.607143 144.870155 
L 551.354464 149.02193 
L 552.101786 147.059116 
L 552.849107 154.374808 
L 554.34375 184.894153 
L 555.091071 203.177951 
L 555.838393 216.573665 
L 556.585714 263.928423 
L 557.333036 278.767454 
L 558.827679 299.079404 
L 559.575 304.418682 
L 560.322321 311.318817 
L 561.069643 311.020633 
L 561.816964 315.014332 
L 562.564286 312.065127 
L 563.311607 315.874382 
L 564.058929 322.792752 
L 564.80625 335.172973 
L 565.553571 357.471805 
L 566.300893 366.297186 
L 567.048214 397.016842 
L 567.795536 395.949713 
L 568.542857 401.295391 
L 569.290179 400.535447 
L 570.0375 385.982699 
L 570.784821 384.427042 
L 571.532143 370.937656 
L 572.279464 367.051363 
L 573.026786 355.682168 
L 573.774107 352.238034 
L 574.521429 343.048498 
L 575.26875 341.662251 
L 576.016071 336.983878 
L 576.763393 334.328457 
L 577.510714 329.786226 
L 578.258036 322.199017 
L 579.005357 318.728182 
L 579.752679 308.842639 
L 580.5 295.753743 
L 581.247321 280.494288 
L 583.489286 188.130341 
L 584.236607 166.31317 
L 584.983929 172.965291 
L 585.73125 176.168745 
L 586.478571 186.255499 
L 587.973214 198.340703 
L 588.720536 210.176892 
L 589.467857 228.546595 
L 590.215179 241.204133 
L 590.9625 256.641532 
L 591.709821 267.334288 
L 592.457143 271.800448 
L 593.204464 285.494146 
L 594.699107 305.169959 
L 595.446429 309.633385 
L 596.19375 315.738741 
L 596.941071 315.181608 
L 597.688393 316.204001 
L 598.435714 309.531279 
L 599.183036 307.666504 
L 599.930357 301.468243 
L 600.677679 300.744568 
L 601.425 303.659671 
L 602.172321 298.279224 
L 602.919643 303.050535 
L 604.414286 273.046354 
L 605.161607 263.227249 
L 605.908929 251.705744 
L 606.65625 246.473973 
L 607.403571 236.416721 
L 608.150893 233.163398 
L 608.898214 221.775268 
L 610.392857 228.418755 
L 611.140179 228.150939 
L 611.8875 212.972588 
L 612.634821 194.320702 
L 613.382143 184.72471 
L 614.129464 173.464154 
L 614.876786 172.147844 
L 616.371429 153.859478 
L 617.11875 151.141653 
L 617.866071 150.408611 
L 618.613393 145.652 
L 619.360714 139.371034 
L 620.108036 118.156532 
L 620.855357 129.124438 
L 621.602679 137.860146 
L 623.097321 150.424378 
L 623.844643 159.217457 
L 624.591964 164.694109 
L 625.339286 183.291159 
L 626.086607 199.021009 
L 626.833929 217.52532 
L 627.58125 228.874381 
L 628.328571 268.751271 
L 629.075893 285.075455 
L 629.823214 297.972839 
L 630.570536 308.759101 
L 632.065179 321.874732 
L 632.8125 325.584948 
L 633.559821 327.402987 
L 634.307143 327.213909 
L 635.054464 325.690354 
L 635.801786 317.529812 
L 636.549107 313.920302 
L 637.296429 311.982655 
L 638.791071 303.947621 
L 640.285714 273.688358 
L 641.033036 267.071573 
L 641.780357 254.874662 
L 642.527679 252.664567 
L 643.275 242.092684 
L 644.022321 238.005313 
L 644.769643 223.98193 
L 645.516964 229.130163 
L 646.264286 236.534827 
L 647.011607 238.376001 
L 648.50625 208.522529 
L 650.000893 188.077705 
L 651.495536 174.8409 
L 652.242857 161.885713 
L 652.990179 159.142986 
L 653.7375 154.757197 
L 654.484821 144.692078 
L 655.232143 139.727789 
L 655.979464 122.818204 
L 656.726786 132.621241 
L 657.474107 139.704454 
L 658.221429 152.951492 
L 659.716071 168.70461 
L 660.463393 174.556917 
L 661.958036 200.676305 
L 662.705357 211.086478 
L 663.452679 223.88009 
L 664.2 267.066072 
L 665.694643 299.557765 
L 666.441964 309.775127 
L 667.189286 317.371469 
L 667.936607 323.324616 
L 668.683929 324.524253 
L 669.43125 327.295247 
L 670.178571 331.870847 
L 670.925893 333.360634 
L 671.673214 339.151538 
L 672.420536 346.586038 
L 673.167857 360.910505 
L 673.915179 362.733012 
L 674.6625 374.09444 
L 675.409821 370.309686 
L 676.157143 367.661932 
L 676.904464 364.338338 
L 677.651786 359.466855 
L 678.399107 360.027421 
L 679.146429 348.291404 
L 679.89375 348.104659 
L 680.641071 338.740981 
L 681.388393 339.427687 
L 682.135714 338.826786 
L 682.883036 337.949801 
L 683.630357 339.607865 
L 684.377679 334.189549 
L 685.125 333.69462 
L 685.872321 325.808427 
L 686.619643 324.612624 
L 687.366964 314.721715 
L 688.861607 286.609077 
L 690.35625 232.818211 
L 691.103571 193.32461 
L 691.850893 174.863202 
L 692.598214 175.733886 
L 693.345536 184.122041 
L 694.092857 203.739617 
L 694.840179 215.416531 
L 695.5875 229.336375 
L 696.334821 239.713846 
L 697.082143 256.006995 
L 698.576786 280.6994 
L 699.324107 291.544832 
L 700.071429 316.385979 
L 700.81875 329.201192 
L 702.313393 347.372784 
L 703.808036 360.355806 
L 704.555357 360.639756 
L 705.302679 365.070281 
L 706.05 362.866619 
L 707.544643 368.803865 
L 708.291964 379.449585 
L 709.039286 399.794004 
L 710.533929 416.848264 
L 711.28125 417.447065 
L 712.028571 416.277864 
L 712.775893 416.21786 
L 713.523214 412.54398 
L 714.270536 410.269147 
L 715.017857 398.082937 
L 715.765179 394.46916 
L 716.5125 384.804697 
L 717.259821 381.978266 
L 718.007143 373.579977 
L 718.754464 372.855435 
L 719.501786 376.343304 
L 720.249107 373.653414 
L 720.996429 374.700075 
L 721.74375 367.502823 
L 722.491071 364.794365 
L 723.238393 354.431228 
L 724.733036 314.268389 
L 726.975 224.979221 
L 727.722321 206.106922 
L 728.469643 206.965738 
L 729.216964 211.519237 
L 729.964286 219.991264 
L 730.711607 226.17209 
L 731.458929 230.656618 
L 732.20625 236.469957 
L 732.953571 257.40151 
L 735.195536 292.750369 
L 735.942857 313.671154 
L 737.4375 334.513701 
L 738.184821 341.999737 
L 738.932143 346.468164 
L 739.679464 349.390401 
L 740.426786 349.509141 
L 741.174107 350.657241 
L 742.66875 347.54376 
L 743.416071 341.264761 
L 744.163393 339.403586 
L 744.910714 342.663676 
L 745.658036 337.700353 
L 746.405357 337.709154 
L 747.152679 324.258604 
L 747.9 304.175001 
L 748.647321 296.726267 
L 749.394643 296.017225 
L 750.889286 290.49357 
L 751.636607 287.906753 
L 752.383929 279.306285 
L 753.13125 280.866076 
L 753.878571 274.451003 
L 754.625893 275.38449 
L 755.373214 252.300179 
L 756.867857 224.512394 
L 757.615179 215.110213 
L 758.3625 203.585408 
L 759.109821 194.57935 
L 760.604464 183.559175 
L 761.351786 182.066088 
L 762.099107 174.018419 
L 762.846429 160.625506 
L 763.59375 140.147013 
L 765.088393 150.293671 
L 765.835714 160.124977 
L 766.583036 162.770097 
L 767.330357 170.916405 
L 768.077679 177.034762 
L 770.319643 224.970487 
L 771.066964 237.196099 
L 771.814286 268.598862 
L 772.561607 283.232514 
L 773.308929 290.669814 
L 774.05625 300.155167 
L 774.803571 307.662837 
L 775.550893 313.465675 
L 776.298214 318.00674 
L 777.045536 320.006256 
L 777.792857 316.690563 
L 778.540179 314.106146 
L 779.2875 309.564115 
L 780.034821 308.45395 
L 780.782143 310.994798 
L 781.529464 309.509911 
L 782.276786 315.476559 
L 783.024107 299.853316 
L 783.771429 289.556816 
L 784.51875 282.094681 
L 785.266071 271.315187 
L 786.013393 267.432527 
L 786.760714 260.50279 
L 787.508036 255.771081 
L 788.255357 239.190682 
L 789.002679 243.528635 
L 790.497321 244.221008 
L 791.244643 223.92526 
L 791.991964 207.046576 
L 793.486607 184.265549 
L 794.98125 164.512532 
L 795.728571 161.500457 
L 796.475893 157.477422 
L 797.223214 158.964976 
L 797.970536 154.305104 
L 799.465179 115.198493 
L 801.707143 149.229409 
L 802.454464 155.198923 
L 803.201786 164.311387 
L 803.949107 169.868211 
L 804.696429 190.228897 
L 805.44375 205.253039 
L 806.191071 223.393029 
L 806.938393 237.500717 
L 807.685714 270.187288 
L 808.433036 284.390215 
L 809.180357 290.644213 
L 809.927679 299.260648 
L 810.675 303.078803 
L 811.422321 309.59305 
L 812.169643 308.186934 
L 812.916964 309.558748 
L 813.664286 305.547614 
L 814.411607 305.124289 
L 815.158929 299.886818 
L 815.90625 298.868025 
L 816.653571 299.657771 
L 817.400893 295.082971 
L 818.148214 295.940421 
L 818.895536 283.707375 
L 819.642857 268.51199 
L 821.1375 253.042456 
L 821.884821 250.478506 
L 822.632143 236.570996 
L 823.379464 233.496517 
L 824.126786 220.797577 
L 824.874107 225.095328 
L 825.621429 228.197675 
L 826.36875 228.295081 
L 827.863393 192.087338 
L 828.610714 182.2734 
L 829.358036 170.792598 
L 830.105357 163.807458 
L 830.852679 155.091383 
L 831.6 152.148345 
L 832.347321 148.372125 
L 833.094643 150.474681 
L 833.841964 145.018697 
L 834.589286 132.718514 
L 835.336607 110.371612 
L 836.83125 123.944869 
L 837.578571 134.965911 
L 839.820536 150.546719 
L 841.315179 184.511264 
L 842.809821 214.250596 
L 843.557143 255.822184 
L 844.304464 269.244533 
L 845.051786 280.198971 
L 846.546429 297.347803 
L 847.29375 303.043135 
L 848.788393 306.434232 
L 849.535714 303.480127 
L 850.283036 302.956396 
L 851.030357 294.262823 
L 851.777679 291.631503 
L 852.525 297.299934 
L 853.272321 293.273766 
L 854.019643 290.549374 
L 854.766964 279.299518 
L 855.514286 261.971176 
L 856.261607 253.722595 
L 857.008929 243.38906 
L 857.75625 239.799251 
L 858.503571 218.477576 
L 859.250893 213.111296 
L 859.998214 195.754485 
L 860.745536 198.304634 
L 861.492857 196.530797 
L 862.240179 198.147525 
L 863.734821 163.234291 
L 865.229464 144.436296 
L 865.976786 141.940117 
L 866.724107 134.986779 
L 867.471429 125.638901 
L 868.21875 122.606991 
L 868.966071 123.455974 
L 869.713393 121.38172 
L 870.460714 120.118846 
L 871.208036 100.174018 
L 871.955357 107.961472 
L 872.702679 114.1669 
L 873.45 128.565005 
L 874.197321 130.904808 
L 874.944643 137.723538 
L 875.691964 143.12362 
L 877.186607 173.954249 
L 877.933929 196.123774 
L 878.68125 209.133498 
L 879.428571 242.351166 
L 880.923214 268.62513 
L 881.670536 279.970991 
L 882.417857 285.484345 
L 883.165179 291.825615 
L 884.659821 297.961172 
L 886.154464 294.849457 
L 886.901786 291.071604 
L 887.649107 288.515755 
L 888.396429 288.616161 
L 889.14375 285.255299 
L 889.891071 288.483287 
L 891.385714 261.918239 
L 892.133036 252.984419 
L 892.880357 241.958543 
L 893.627679 239.43633 
L 894.375 227.846888 
L 895.122321 223.438731 
L 895.869643 213.180934 
L 896.616964 216.748975 
L 898.111607 221.498252 
L 898.858929 197.311443 
L 900.353571 165.04593 
L 901.100893 156.290687 
L 901.848214 151.836561 
L 902.595536 145.944684 
L 903.342857 133.848313 
L 904.090179 133.094802 
L 904.8375 135.110453 
L 905.584821 130.753199 
L 906.332143 125.251345 
L 907.079464 105.264648 
L 907.826786 108.127348 
L 908.574107 114.535188 
L 909.321429 122.46365 
L 910.06875 127.697821 
L 910.816071 129.315715 
L 911.563393 134.458815 
L 912.310714 146.343641 
L 913.058036 160.459596 
L 913.805357 179.727518 
L 914.552679 192.774745 
L 915.3 222.564714 
L 916.794643 251.193215 
L 917.541964 262.477238 
L 919.036607 276.287676 
L 920.53125 284.938247 
L 921.278571 284.333045 
L 922.025893 287.599068 
L 922.773214 285.825165 
L 923.520536 291.332586 
L 924.267857 304.32781 
L 925.015179 308.534088 
L 925.7625 324.632959 
L 926.509821 320.250104 
L 927.257143 313.039517 
L 928.004464 310.29239 
L 928.751786 298.37853 
L 929.499107 296.886576 
L 930.246429 287.103973 
L 930.99375 286.367197 
L 931.741071 280.926113 
L 932.488393 282.76192 
L 933.235714 278.615078 
L 933.983036 278.633013 
L 934.730357 278.973899 
L 935.477679 273.538016 
L 936.225 263.404026 
L 937.719643 249.168263 
L 939.214286 228.455423 
L 939.961607 214.15399 
L 940.708929 195.258823 
L 942.203571 141.275112 
L 942.950893 120.828754 
L 943.698214 125.660969 
L 944.445536 133.718439 
L 945.940179 156.850786 
L 947.434821 176.782414 
L 948.182143 184.000501 
L 949.676786 207.191218 
L 950.424107 216.281014 
L 951.171429 257.520516 
L 951.91875 270.832425 
L 952.666071 277.026486 
L 953.413393 287.768612 
L 954.908036 299.113372 
L 955.655357 301.203528 
L 956.402679 305.02325 
L 957.15 301.701323 
L 957.897321 305.519479 
L 958.644643 304.750334 
L 959.391964 313.552647 
L 960.139286 319.995155 
L 960.886607 328.832837 
L 961.633929 342.15348 
L 962.38125 341.887264 
L 963.128571 343.377584 
L 963.875893 342.403394 
L 964.623214 335.6393 
L 965.370536 334.038273 
L 966.117857 327.698504 
L 966.865179 324.002589 
L 968.359821 320.150131 
L 969.107143 324.904908 
L 969.854464 326.965328 
L 970.601786 327.806177 
L 971.349107 325.120787 
L 972.096429 321.073285 
L 972.84375 313.779193 
L 974.338393 291.425891 
L 975.833036 255.234983 
L 978.075 164.960058 
L 978.822321 142.714596 
L 979.569643 140.511901 
L 980.316964 143.811093 
L 981.811607 157.343781 
L 982.558929 169.625197 
L 983.30625 177.852343 
L 984.053571 201.862774 
L 986.295536 238.325398 
L 987.042857 254.921198 
L 987.790179 265.917439 
L 989.284821 283.184078 
L 990.032143 284.810373 
L 990.779464 288.987649 
L 991.526786 292.262007 
L 992.274107 294.208753 
L 993.021429 291.311785 
L 993.76875 289.335703 
L 994.516071 282.051812 
L 995.263393 278.92093 
L 997.505357 255.647607 
L 998.252679 240.482124 
L 999 218.064052 
L 999.747321 211.247188 
L 1000.494643 208.584866 
L 1001.241964 206.69909 
L 1001.989286 204.103972 
L 1003.483929 196.771011 
L 1004.23125 199.987265 
L 1004.978571 216.377153 
L 1005.725893 217.209268 
L 1006.473214 208.786744 
L 1007.220536 193.676464 
L 1008.715179 172.77628 
L 1009.4625 167.17182 
L 1010.957143 149.353316 
L 1011.704464 144.553403 
L 1012.451786 144.870388 
L 1013.199107 140.131345 
L 1014.69375 101.329885 
L 1015.441071 96.644546 
L 1016.188393 99.548848 
L 1016.935714 108.708182 
L 1017.683036 111.406472 
L 1018.430357 116.29289 
L 1019.177679 122.212368 
L 1019.925 134.304273 
L 1020.672321 151.553611 
L 1021.419643 171.786023 
L 1022.166964 184.627671 
L 1022.914286 228.000597 
L 1023.661607 241.702695 
L 1025.15625 261.418243 
L 1025.903571 261.992177 
L 1026.650893 267.960658 
L 1027.398214 266.91213 
L 1028.145536 269.788398 
L 1028.892857 265.817066 
L 1029.640179 264.702368 
L 1030.3875 254.173355 
L 1031.134821 252.829543 
L 1031.882143 248.093634 
L 1032.629464 241.918108 
L 1033.376786 244.905215 
L 1034.124107 231.986962 
L 1034.871429 225.413113 
L 1035.61875 217.684096 
L 1036.366071 216.821979 
L 1037.113393 214.414106 
L 1037.860714 209.207336 
L 1038.608036 205.27994 
L 1039.355357 198.493912 
L 1040.102679 203.312092 
L 1040.85 209.134965 
L 1041.597321 211.782719 
L 1043.091964 177.205338 
L 1043.839286 162.34854 
L 1044.586607 152.372525 
L 1045.333929 150.417545 
L 1046.828571 132.368427 
L 1047.575893 129.074901 
L 1048.323214 132.518702 
L 1049.070536 129.459457 
L 1049.817857 117.253279 
L 1050.565179 91.126758 
L 1051.3125 87.680224 
L 1052.059821 94.787838 
L 1052.807143 94.943647 
L 1053.554464 98.437517 
L 1054.301786 97.92122 
L 1055.049107 104.877225 
L 1055.796429 116.508236 
L 1056.54375 132.786384 
L 1057.291071 144.332923 
L 1058.038393 158.676559 
L 1058.785714 206.180893 
L 1059.533036 221.415747 
L 1060.280357 231.933793 
L 1061.027679 240.739006 
L 1061.775 240.975386 
L 1062.522321 247.769882 
L 1063.269643 246.926566 
L 1064.016964 249.86387 
L 1064.764286 245.96531 
L 1065.511607 244.487291 
L 1066.258929 244.329015 
L 1067.00625 243.717146 
L 1067.753571 244.316681 
L 1068.500893 237.341874 
L 1069.248214 241.153963 
L 1069.995536 230.236361 
L 1070.742857 227.99263 
L 1071.490179 222.883399 
L 1072.2375 209.33541 
L 1072.984821 205.690731 
L 1073.732143 199.55484 
L 1074.479464 196.203445 
L 1075.226786 194.885135 
L 1075.974107 198.551215 
L 1076.721429 204.783711 
L 1077.46875 204.741575 
L 1078.963393 168.595803 
L 1081.205357 126.276272 
L 1081.952679 117.365753 
L 1082.7 98.856741 
L 1083.447321 94.934779 
L 1084.194643 102.707766 
L 1084.941964 100.526838 
L 1085.689286 100.194486 
L 1086.436607 78.12 
L 1087.183929 78.86151 
L 1087.93125 81.907621 
L 1088.678571 89.880618 
L 1089.425893 95.952572 
L 1090.173214 100.72685 
L 1090.920536 106.378979 
L 1092.415179 141.090901 
L 1093.1625 163.912997 
L 1093.909821 176.44276 
L 1094.657143 216.005598 
L 1096.151786 244.894714 
L 1097.646429 264.020428 
L 1098.39375 268.789706 
L 1099.141071 272.329912 
L 1099.888393 274.857793 
L 1100.635714 274.304027 
L 1101.383036 274.218189 
L 1102.130357 270.155786 
L 1102.877679 271.572602 
L 1103.625 264.121801 
L 1104.372321 260.228908 
L 1105.119643 259.76298 
L 1105.866964 248.792608 
L 1106.614286 244.870213 
L 1107.361607 237.563254 
L 1108.108929 231.950794 
L 1108.85625 227.36956 
L 1110.350893 215.163349 
L 1111.098214 206.336268 
L 1111.845536 208.988723 
L 1112.592857 216.596933 
L 1113.340179 217.183834 
L 1114.834821 178.644222 
L 1115.582143 162.896505 
L 1116.329464 150.498349 
L 1117.076786 147.904598 
L 1117.824107 138.826136 
L 1118.571429 137.342316 
L 1119.31875 136.454798 
L 1120.066071 132.123879 
L 1120.813393 130.353909 
L 1122.308036 96.510871 
L 1123.055357 93.320085 
L 1123.802679 98.556657 
L 1124.55 105.93462 
L 1125.297321 108.955196 
L 1126.044643 110.157199 
L 1126.791964 115.287898 
L 1128.286607 141.600531 
L 1129.78125 175.324762 
L 1130.528571 202.377604 
L 1131.275893 216.971188 
L 1132.770536 240.022197 
L 1133.517857 247.029872 
L 1134.265179 252.671467 
L 1135.0125 251.373958 
L 1135.759821 254.245459 
L 1136.507143 246.224292 
L 1137.254464 245.759498 
L 1138.001786 245.605856 
L 1138.749107 246.970369 
L 1139.496429 250.896564 
L 1140.24375 247.248018 
L 1140.991071 257.051389 
L 1142.485714 230.789726 
L 1143.980357 215.753017 
L 1146.969643 193.816572 
L 1148.464286 207.669979 
L 1149.211607 207.834322 
L 1150.70625 174.693025 
L 1152.200893 151.286362 
L 1152.948214 139.803793 
L 1153.695536 134.204267 
L 1154.442857 123.985338 
L 1155.190179 126.157798 
L 1155.9375 127.114387 
L 1156.684821 121.869748 
L 1157.432143 118.52682 
L 1158.179464 95.765161 
L 1158.926786 103.093655 
L 1160.421429 114.248771 
L 1161.16875 118.664228 
L 1161.916071 120.059243 
L 1162.663393 126.389478 
L 1164.158036 154.547218 
L 1164.905357 171.654715 
L 1165.652679 184.474162 
L 1165.652679 184.474162 
" clip-path="url(#p24dd970209)" style="fill: none; stroke: #d60000; stroke-opacity: 0.8; stroke-width: 1.5; stroke-linecap: square"/>
   </g>
   <g id="patch_3">
    <path d="M 162 448.56 
L 162 60.48 
" style="fill: none; stroke: #000000; stroke-width: 1.2; stroke-linejoin: miter; stroke-linecap: square"/>
   </g>
   <g id="patch_4">
    <path d="M 1166.4 448.56 
L 1166.4 60.48 
" style="fill: none; stroke: #000000; stroke-width: 1.2; stroke-linejoin: miter; stroke-linecap: square"/>
   </g>
   <g id="patch_5">
    <path d="M 162 448.56 
L 1166.4 448.56 
" style="fill: none; stroke: #000000; stroke-width: 1.2; stroke-linejoin: miter; stroke-linecap: square"/>
   </g>
   <g id="patch_6">
    <path d="M 162 60.48 
L 1166.4 60.48 
" style="fill: none; stroke: #000000; stroke-width: 1.2; stroke-linejoin: miter; stroke-linecap: square"/>
   </g>
   <g id="legend_1">
    <g id="text_35">
     <!-- Cenrios -->
     <g transform="translate(630.372656 11.642456) scale(0.15 -0.15)">
      <defs>
       <path id="DejaVuSerif-43" d="M 4513 1234 
Q 4306 581 3820 245 
Q 3334 -91 2591 -91 
Q 2134 -91 1743 65 
Q 1353 222 1050 525 
Q 700 875 529 1320 
Q 359 1766 359 2328 
Q 359 3416 987 4083 
Q 1616 4750 2644 4750 
Q 3025 4750 3456 4650 
Q 3888 4550 4384 4347 
L 4384 3272 
L 4031 3272 
Q 3916 3859 3567 4137 
Q 3219 4416 2591 4416 
Q 1844 4416 1459 3886 
Q 1075 3356 1075 2328 
Q 1075 1303 1459 773 
Q 1844 244 2591 244 
Q 3113 244 3450 492 
Q 3788 741 3938 1234 
L 4513 1234 
z
" transform="scale(0.015625)"/>
       <path id="DejaVuSerif-65" d="M 3469 1600 
L 991 1600 
L 991 1575 
Q 991 903 1244 561 
Q 1497 219 1991 219 
Q 2369 219 2611 417 
Q 2853 616 2950 1006 
L 3413 1006 
Q 3275 459 2904 184 
Q 2534 -91 1931 -91 
Q 1203 -91 761 389 
Q 319 869 319 1663 
Q 319 2450 753 2931 
Q 1188 3413 1894 3413 
Q 2647 3413 3050 2948 
Q 3453 2484 3469 1600 
z
M 2791 1931 
Q 2772 2513 2545 2808 
Q 2319 3103 1894 3103 
Q 1497 3103 1269 2806 
Q 1041 2509 991 1931 
L 2791 1931 
z
" transform="scale(0.015625)"/>
       <path id="DejaVuSerif-6e" d="M 263 0 
L 263 331 
L 781 331 
L 781 2988 
L 231 2988 
L 231 3322 
L 1356 3322 
L 1356 2731 
Q 1516 3069 1770 3241 
Q 2025 3413 2363 3413 
Q 2913 3413 3172 3097 
Q 3431 2781 3431 2113 
L 3431 331 
L 3944 331 
L 3944 0 
L 2356 0 
L 2356 331 
L 2853 331 
L 2853 1931 
Q 2853 2541 2703 2767 
Q 2553 2994 2175 2994 
Q 1775 2994 1565 2701 
Q 1356 2409 1356 1850 
L 1356 331 
L 1856 331 
L 1856 0 
L 263 0 
z
" transform="scale(0.015625)"/>
       <path id="DejaVuSerif-e1" d="M 2547 1044 
L 2547 1747 
L 1806 1747 
Q 1378 1747 1168 1562 
Q 959 1378 959 997 
Q 959 650 1171 447 
Q 1384 244 1747 244 
Q 2106 244 2326 466 
Q 2547 688 2547 1044 
z
M 3122 2075 
L 3122 331 
L 3634 331 
L 3634 0 
L 2547 0 
L 2547 359 
Q 2356 128 2106 18 
Q 1856 -91 1522 -91 
Q 969 -91 644 203 
Q 319 497 319 997 
Q 319 1513 691 1797 
Q 1063 2081 1741 2081 
L 2547 2081 
L 2547 2309 
Q 2547 2688 2317 2895 
Q 2088 3103 1672 3103 
Q 1328 3103 1125 2947 
Q 922 2791 872 2484 
L 575 2484 
L 575 3156 
Q 875 3284 1158 3348 
Q 1441 3413 1709 3413 
Q 2400 3413 2761 3070 
Q 3122 2728 3122 2075 
z
M 2210 5119 
L 2832 5119 
L 1770 3944 
L 1404 3944 
L 2210 5119 
z
" transform="scale(0.015625)"/>
       <path id="DejaVuSerif-72" d="M 3059 3328 
L 3059 2497 
L 2728 2497 
Q 2713 2744 2591 2866 
Q 2469 2988 2234 2988 
Q 1809 2988 1582 2694 
Q 1356 2400 1356 1850 
L 1356 331 
L 2022 331 
L 2022 0 
L 263 0 
L 263 331 
L 781 331 
L 781 2994 
L 231 2994 
L 231 3322 
L 1356 3322 
L 1356 2731 
Q 1525 3078 1790 3245 
Q 2056 3413 2438 3413 
Q 2578 3413 2733 3391 
Q 2888 3369 3059 3328 
z
" transform="scale(0.015625)"/>
       <path id="DejaVuSerif-69" d="M 622 4353 
Q 622 4497 726 4603 
Q 831 4709 978 4709 
Q 1122 4709 1226 4603 
Q 1331 4497 1331 4353 
Q 1331 4206 1228 4103 
Q 1125 4000 978 4000 
Q 831 4000 726 4103 
Q 622 4206 622 4353 
z
M 1356 331 
L 1900 331 
L 1900 0 
L 231 0 
L 231 331 
L 781 331 
L 781 2988 
L 231 2988 
L 231 3322 
L 1356 3322 
L 1356 331 
z
" transform="scale(0.015625)"/>
       <path id="DejaVuSerif-6f" d="M 1925 219 
Q 2388 219 2623 584 
Q 2859 950 2859 1663 
Q 2859 2375 2623 2739 
Q 2388 3103 1925 3103 
Q 1463 3103 1227 2739 
Q 991 2375 991 1663 
Q 991 950 1228 584 
Q 1466 219 1925 219 
z
M 1925 -91 
Q 1200 -91 759 389 
Q 319 869 319 1663 
Q 319 2456 758 2934 
Q 1197 3413 1925 3413 
Q 2653 3413 3092 2934 
Q 3531 2456 3531 1663 
Q 3531 869 3092 389 
Q 2653 -91 1925 -91 
z
" transform="scale(0.015625)"/>
       <path id="DejaVuSerif-73" d="M 359 184 
L 359 959 
L 691 959 
Q 703 588 923 403 
Q 1144 219 1575 219 
Q 1963 219 2166 364 
Q 2369 509 2369 788 
Q 2369 1006 2220 1140 
Q 2072 1275 1594 1428 
L 1178 1569 
Q 750 1706 558 1912 
Q 366 2119 366 2438 
Q 366 2894 700 3153 
Q 1034 3413 1625 3413 
Q 1888 3413 2178 3344 
Q 2469 3275 2778 3144 
L 2778 2419 
L 2447 2419 
Q 2434 2741 2221 2922 
Q 2009 3103 1644 3103 
Q 1281 3103 1095 2975 
Q 909 2847 909 2591 
Q 909 2381 1050 2254 
Q 1191 2128 1613 1997 
L 2069 1856 
Q 2541 1709 2748 1489 
Q 2956 1269 2956 922 
Q 2956 450 2595 179 
Q 2234 -91 1600 -91 
Q 1278 -91 972 -22 
Q 666 47 359 184 
z
" transform="scale(0.015625)"/>
      </defs>
      <use xlink:href="#DejaVuSerif-43"/>
      <use xlink:href="#DejaVuSerif-65" x="76.513672"/>
      <use xlink:href="#DejaVuSerif-6e" x="135.693359"/>
      <use xlink:href="#DejaVuSerif-e1" x="200.097656"/>
      <use xlink:href="#DejaVuSerif-72" x="259.716797"/>
      <use xlink:href="#DejaVuSerif-69" x="307.519531"/>
      <use xlink:href="#DejaVuSerif-6f" x="339.501953"/>
      <use xlink:href="#DejaVuSerif-73" x="399.707031"/>
     </g>
    </g>
    <g id="line2d_68">
     <path d="M 612.847266 28.409644 
L 627.847266 28.409644 
L 642.847266 28.409644 
" style="fill: none; stroke: #d60000; stroke-opacity: 0.8; stroke-width: 1.5; stroke-linecap: square"/>
    </g>
    <g id="text_36">
     <!-- V1A1F2 -->
     <g transform="translate(654.847266 33.659644) scale(0.15 -0.15)">
      <defs>
       <path id="DejaVuSerif-56" d="M 1119 4331 
L 2497 750 
L 3872 4331 
L 3347 4331 
L 3347 4666 
L 4716 4666 
L 4716 4331 
L 4263 4331 
L 2597 0 
L 2059 0 
L 403 4331 
L -63 4331 
L -63 4666 
L 1638 4666 
L 1638 4331 
L 1119 4331 
z
" transform="scale(0.015625)"/>
       <path id="DejaVuSerif-41" d="M 1281 1691 
L 2994 1691 
L 2138 3909 
L 1281 1691 
z
M -38 0 
L -38 331 
L 372 331 
L 2034 4666 
L 2559 4666 
L 4225 331 
L 4684 331 
L 4684 0 
L 2988 0 
L 2988 331 
L 3506 331 
L 3116 1356 
L 1153 1356 
L 763 331 
L 1275 331 
L 1275 0 
L -38 0 
z
" transform="scale(0.015625)"/>
       <path id="DejaVuSerif-46" d="M 353 0 
L 353 331 
L 947 331 
L 947 4331 
L 353 4331 
L 353 4666 
L 4172 4666 
L 4172 3628 
L 3788 3628 
L 3788 4281 
L 1581 4281 
L 1581 2719 
L 3175 2719 
L 3175 3303 
L 3559 3303 
L 3559 1753 
L 3175 1753 
L 3175 2338 
L 1581 2338 
L 1581 331 
L 2328 331 
L 2328 0 
L 353 0 
z
" transform="scale(0.015625)"/>
      </defs>
      <use xlink:href="#DejaVuSerif-56"/>
      <use xlink:href="#DejaVuSerif-31" x="72.216797"/>
      <use xlink:href="#DejaVuSerif-41" x="135.839844"/>
      <use xlink:href="#DejaVuSerif-31" x="208.056641"/>
      <use xlink:href="#DejaVuSerif-46" x="271.679688"/>
      <use xlink:href="#DejaVuSerif-32" x="341.064453"/>
     </g>
    </g>
   </g>
  </g>
 </g>
 <defs>
  <clipPath id="p24dd970209">
   <rect x="162" y="60.48" width="1004.4" height="388.08"/>
  </clipPath>
 </defs>
</svg>
