<?xml version="1.0" encoding="utf-8" standalone="no"?>
<!DOCTYPE svg PUBLIC "-//W3C//DTD SVG 1.1//EN"
  "http://www.w3.org/Graphics/SVG/1.1/DTD/svg11.dtd">
<svg xmlns:xlink="http://www.w3.org/1999/xlink" width="1296pt" height="504pt" viewBox="0 0 1296 504" xmlns="http://www.w3.org/2000/svg" version="1.1">
 <metadata>
  <rdf:RDF xmlns:dc="http://purl.org/dc/elements/1.1/" xmlns:cc="http://creativecommons.org/ns#" xmlns:rdf="http://www.w3.org/1999/02/22-rdf-syntax-ns#">
   <cc:Work>
    <dc:type rdf:resource="http://purl.org/dc/dcmitype/StillImage"/>
    <dc:date>2024-10-07T10:40:18.223143</dc:date>
    <dc:format>image/svg+xml</dc:format>
    <dc:creator>
     <cc:Agent>
      <dc:title>Matplotlib v3.7.2, https://matplotlib.org/</dc:title>
     </cc:Agent>
    </dc:creator>
   </cc:Work>
  </rdf:RDF>
 </metadata>
 <defs>
  <style type="text/css">*{stroke-linejoin: round; stroke-linecap: butt}</style>
 </defs>
 <g id="figure_1">
  <g id="patch_1">
   <path d="M 0 504 
L 1296 504 
L 1296 0 
L 0 0 
z
" style="fill: #ffffff"/>
  </g>
  <g id="axes_1">
   <g id="patch_2">
    <path d="M 162 448.56 
L 1166.4 448.56 
L 1166.4 60.48 
L 162 60.48 
z
" style="fill: #e5e5e5"/>
   </g>
   <g id="matplotlib.axis_1">
    <g id="xtick_1">
     <g id="line2d_1">
      <path d="M 162 448.56 
L 162 60.48 
" clip-path="url(#p2430cf66c7)" style="fill: none; stroke: #ffffff; stroke-width: 0.8; stroke-linecap: square"/>
     </g>
     <g id="line2d_2">
      <defs>
       <path id="mbd7b947a6d" d="M 0 0 
L 0 3.5 
" style="stroke: #000000; stroke-width: 0.8"/>
      </defs>
      <g>
       <use xlink:href="#mbd7b947a6d" x="162" y="448.56" style="stroke: #000000; stroke-width: 0.8"/>
      </g>
     </g>
     <g id="text_1">
      <!-- Oct 1 -->
      <g transform="translate(150.418088 492.636702) rotate(-45) scale(0.15 -0.15)">
       <defs>
        <path id="DejaVuSerif-4f" d="M 2625 244 
Q 3391 244 3781 770 
Q 4172 1297 4172 2328 
Q 4172 3363 3781 3889 
Q 3391 4416 2625 4416 
Q 1856 4416 1465 3889 
Q 1075 3363 1075 2328 
Q 1075 1297 1465 770 
Q 1856 244 2625 244 
z
M 2625 -91 
Q 2150 -91 1751 65 
Q 1353 222 1050 525 
Q 700 875 529 1319 
Q 359 1763 359 2328 
Q 359 2894 529 3339 
Q 700 3784 1050 4134 
Q 1356 4441 1750 4595 
Q 2144 4750 2625 4750 
Q 3641 4750 4266 4084 
Q 4891 3419 4891 2328 
Q 4891 1769 4719 1320 
Q 4547 872 4197 525 
Q 3891 219 3497 64 
Q 3103 -91 2625 -91 
z
" transform="scale(0.015625)"/>
        <path id="DejaVuSerif-63" d="M 3291 997 
Q 3169 466 2822 187 
Q 2475 -91 1925 -91 
Q 1200 -91 759 389 
Q 319 869 319 1663 
Q 319 2459 759 2936 
Q 1200 3413 1925 3413 
Q 2241 3413 2553 3339 
Q 2866 3266 3181 3116 
L 3181 2266 
L 2847 2266 
Q 2781 2703 2561 2903 
Q 2341 3103 1931 3103 
Q 1466 3103 1228 2742 
Q 991 2381 991 1663 
Q 991 944 1227 581 
Q 1463 219 1931 219 
Q 2303 219 2525 412 
Q 2747 606 2828 997 
L 3291 997 
z
" transform="scale(0.015625)"/>
        <path id="DejaVuSerif-74" d="M 691 2988 
L 184 2988 
L 184 3322 
L 691 3322 
L 691 4353 
L 1269 4353 
L 1269 3322 
L 2350 3322 
L 2350 2988 
L 1269 2988 
L 1269 878 
Q 1269 456 1350 337 
Q 1431 219 1650 219 
Q 1875 219 1978 351 
Q 2081 484 2088 781 
L 2522 781 
Q 2497 328 2275 118 
Q 2053 -91 1600 -91 
Q 1103 -91 897 129 
Q 691 350 691 878 
L 691 2988 
z
" transform="scale(0.015625)"/>
        <path id="DejaVuSerif-20" transform="scale(0.015625)"/>
        <path id="DejaVuSerif-31" d="M 909 0 
L 909 331 
L 1722 331 
L 1722 4213 
L 781 3603 
L 781 4013 
L 1919 4750 
L 2350 4750 
L 2350 331 
L 3163 331 
L 3163 0 
L 909 0 
z
" transform="scale(0.015625)"/>
       </defs>
       <use xlink:href="#DejaVuSerif-4f"/>
       <use xlink:href="#DejaVuSerif-63" x="81.982422"/>
       <use xlink:href="#DejaVuSerif-74" x="137.988281"/>
       <use xlink:href="#DejaVuSerif-20" x="178.173828"/>
       <use xlink:href="#DejaVuSerif-31" x="209.960938"/>
      </g>
     </g>
    </g>
    <g id="xtick_2">
     <g id="line2d_3">
      <path d="M 197.871429 448.56 
L 197.871429 60.48 
" clip-path="url(#p2430cf66c7)" style="fill: none; stroke: #ffffff; stroke-width: 0.8; stroke-linecap: square"/>
     </g>
     <g id="line2d_4">
      <g>
       <use xlink:href="#mbd7b947a6d" x="197.871429" y="448.56" style="stroke: #000000; stroke-width: 0.8"/>
      </g>
     </g>
     <g id="text_2">
      <!-- Oct 2 -->
      <g transform="translate(186.289517 492.636702) rotate(-45) scale(0.15 -0.15)">
       <defs>
        <path id="DejaVuSerif-32" d="M 819 3553 
L 469 3553 
L 469 4384 
Q 803 4563 1142 4656 
Q 1481 4750 1806 4750 
Q 2534 4750 2956 4397 
Q 3378 4044 3378 3438 
Q 3378 2753 2422 1800 
Q 2347 1728 2309 1691 
L 1131 513 
L 3078 513 
L 3078 1088 
L 3444 1088 
L 3444 0 
L 434 0 
L 434 341 
L 1850 1753 
Q 2319 2222 2519 2614 
Q 2719 3006 2719 3438 
Q 2719 3909 2473 4175 
Q 2228 4441 1797 4441 
Q 1350 4441 1106 4219 
Q 863 3997 819 3553 
z
" transform="scale(0.015625)"/>
       </defs>
       <use xlink:href="#DejaVuSerif-4f"/>
       <use xlink:href="#DejaVuSerif-63" x="81.982422"/>
       <use xlink:href="#DejaVuSerif-74" x="137.988281"/>
       <use xlink:href="#DejaVuSerif-20" x="178.173828"/>
       <use xlink:href="#DejaVuSerif-32" x="209.960938"/>
      </g>
     </g>
    </g>
    <g id="xtick_3">
     <g id="line2d_5">
      <path d="M 233.742857 448.56 
L 233.742857 60.48 
" clip-path="url(#p2430cf66c7)" style="fill: none; stroke: #ffffff; stroke-width: 0.8; stroke-linecap: square"/>
     </g>
     <g id="line2d_6">
      <g>
       <use xlink:href="#mbd7b947a6d" x="233.742857" y="448.56" style="stroke: #000000; stroke-width: 0.8"/>
      </g>
     </g>
     <g id="text_3">
      <!-- Oct 3 -->
      <g transform="translate(222.160945 492.636702) rotate(-45) scale(0.15 -0.15)">
       <defs>
        <path id="DejaVuSerif-33" d="M 622 4469 
Q 988 4606 1323 4678 
Q 1659 4750 1953 4750 
Q 2638 4750 3022 4454 
Q 3406 4159 3406 3634 
Q 3406 3213 3140 2930 
Q 2875 2647 2388 2547 
Q 2963 2466 3280 2130 
Q 3597 1794 3597 1259 
Q 3597 606 3158 257 
Q 2719 -91 1894 -91 
Q 1528 -91 1179 -12 
Q 831 66 488 225 
L 488 1131 
L 838 1131 
Q 869 681 1141 450 
Q 1413 219 1906 219 
Q 2384 219 2661 495 
Q 2938 772 2938 1253 
Q 2938 1803 2653 2086 
Q 2369 2369 1819 2369 
L 1522 2369 
L 1522 2688 
L 1678 2688 
Q 2225 2688 2498 2914 
Q 2772 3141 2772 3597 
Q 2772 4006 2547 4223 
Q 2322 4441 1900 4441 
Q 1478 4441 1245 4241 
Q 1013 4041 972 3647 
L 622 3647 
L 622 4469 
z
" transform="scale(0.015625)"/>
       </defs>
       <use xlink:href="#DejaVuSerif-4f"/>
       <use xlink:href="#DejaVuSerif-63" x="81.982422"/>
       <use xlink:href="#DejaVuSerif-74" x="137.988281"/>
       <use xlink:href="#DejaVuSerif-20" x="178.173828"/>
       <use xlink:href="#DejaVuSerif-33" x="209.960938"/>
      </g>
     </g>
    </g>
    <g id="xtick_4">
     <g id="line2d_7">
      <path d="M 269.614286 448.56 
L 269.614286 60.48 
" clip-path="url(#p2430cf66c7)" style="fill: none; stroke: #ffffff; stroke-width: 0.8; stroke-linecap: square"/>
     </g>
     <g id="line2d_8">
      <g>
       <use xlink:href="#mbd7b947a6d" x="269.614286" y="448.56" style="stroke: #000000; stroke-width: 0.8"/>
      </g>
     </g>
     <g id="text_4">
      <!-- Oct 4 -->
      <g transform="translate(258.032374 492.636702) rotate(-45) scale(0.15 -0.15)">
       <defs>
        <path id="DejaVuSerif-34" d="M 2234 1581 
L 2234 4063 
L 641 1581 
L 2234 1581 
z
M 3609 0 
L 1484 0 
L 1484 331 
L 2234 331 
L 2234 1247 
L 197 1247 
L 197 1588 
L 2241 4750 
L 2859 4750 
L 2859 1581 
L 3750 1581 
L 3750 1247 
L 2859 1247 
L 2859 331 
L 3609 331 
L 3609 0 
z
" transform="scale(0.015625)"/>
       </defs>
       <use xlink:href="#DejaVuSerif-4f"/>
       <use xlink:href="#DejaVuSerif-63" x="81.982422"/>
       <use xlink:href="#DejaVuSerif-74" x="137.988281"/>
       <use xlink:href="#DejaVuSerif-20" x="178.173828"/>
       <use xlink:href="#DejaVuSerif-34" x="209.960938"/>
      </g>
     </g>
    </g>
    <g id="xtick_5">
     <g id="line2d_9">
      <path d="M 305.485714 448.56 
L 305.485714 60.48 
" clip-path="url(#p2430cf66c7)" style="fill: none; stroke: #ffffff; stroke-width: 0.8; stroke-linecap: square"/>
     </g>
     <g id="line2d_10">
      <g>
       <use xlink:href="#mbd7b947a6d" x="305.485714" y="448.56" style="stroke: #000000; stroke-width: 0.8"/>
      </g>
     </g>
     <g id="text_5">
      <!-- Oct 5 -->
      <g transform="translate(293.903802 492.636702) rotate(-45) scale(0.15 -0.15)">
       <defs>
        <path id="DejaVuSerif-35" d="M 3219 4666 
L 3219 4153 
L 1081 4153 
L 1081 2816 
Q 1244 2928 1461 2984 
Q 1678 3041 1947 3041 
Q 2703 3041 3140 2622 
Q 3578 2203 3578 1478 
Q 3578 738 3136 323 
Q 2694 -91 1894 -91 
Q 1572 -91 1234 -12 
Q 897 66 544 225 
L 544 1131 
L 897 1131 
Q 925 688 1179 453 
Q 1434 219 1894 219 
Q 2388 219 2653 544 
Q 2919 869 2919 1478 
Q 2919 2084 2655 2407 
Q 2391 2731 1894 2731 
Q 1613 2731 1398 2631 
Q 1184 2531 1019 2322 
L 750 2322 
L 750 4666 
L 3219 4666 
z
" transform="scale(0.015625)"/>
       </defs>
       <use xlink:href="#DejaVuSerif-4f"/>
       <use xlink:href="#DejaVuSerif-63" x="81.982422"/>
       <use xlink:href="#DejaVuSerif-74" x="137.988281"/>
       <use xlink:href="#DejaVuSerif-20" x="178.173828"/>
       <use xlink:href="#DejaVuSerif-35" x="209.960938"/>
      </g>
     </g>
    </g>
    <g id="xtick_6">
     <g id="line2d_11">
      <path d="M 341.357143 448.56 
L 341.357143 60.48 
" clip-path="url(#p2430cf66c7)" style="fill: none; stroke: #ffffff; stroke-width: 0.8; stroke-linecap: square"/>
     </g>
     <g id="line2d_12">
      <g>
       <use xlink:href="#mbd7b947a6d" x="341.357143" y="448.56" style="stroke: #000000; stroke-width: 0.8"/>
      </g>
     </g>
     <g id="text_6">
      <!-- Oct 6 -->
      <g transform="translate(329.775231 492.636702) rotate(-45) scale(0.15 -0.15)">
       <defs>
        <path id="DejaVuSerif-36" d="M 2094 219 
Q 2534 219 2771 542 
Q 3009 866 3009 1472 
Q 3009 2078 2771 2401 
Q 2534 2725 2094 2725 
Q 1647 2725 1412 2412 
Q 1178 2100 1178 1509 
Q 1178 888 1415 553 
Q 1653 219 2094 219 
z
M 1075 2569 
Q 1288 2803 1556 2918 
Q 1825 3034 2163 3034 
Q 2859 3034 3264 2615 
Q 3669 2197 3669 1472 
Q 3669 763 3233 336 
Q 2797 -91 2069 -91 
Q 1278 -91 853 498 
Q 428 1088 428 2181 
Q 428 3406 931 4078 
Q 1434 4750 2350 4750 
Q 2597 4750 2869 4703 
Q 3141 4656 3425 4563 
L 3425 3794 
L 3072 3794 
Q 3034 4109 2831 4275 
Q 2628 4441 2284 4441 
Q 1678 4441 1381 3981 
Q 1084 3522 1075 2569 
z
" transform="scale(0.015625)"/>
       </defs>
       <use xlink:href="#DejaVuSerif-4f"/>
       <use xlink:href="#DejaVuSerif-63" x="81.982422"/>
       <use xlink:href="#DejaVuSerif-74" x="137.988281"/>
       <use xlink:href="#DejaVuSerif-20" x="178.173828"/>
       <use xlink:href="#DejaVuSerif-36" x="209.960938"/>
      </g>
     </g>
    </g>
    <g id="xtick_7">
     <g id="line2d_13">
      <path d="M 377.228571 448.56 
L 377.228571 60.48 
" clip-path="url(#p2430cf66c7)" style="fill: none; stroke: #ffffff; stroke-width: 0.8; stroke-linecap: square"/>
     </g>
     <g id="line2d_14">
      <g>
       <use xlink:href="#mbd7b947a6d" x="377.228571" y="448.56" style="stroke: #000000; stroke-width: 0.8"/>
      </g>
     </g>
     <g id="text_7">
      <!-- Oct 7 -->
      <g transform="translate(365.64666 492.636702) rotate(-45) scale(0.15 -0.15)">
       <defs>
        <path id="DejaVuSerif-37" d="M 3609 4347 
L 1784 0 
L 1319 0 
L 3059 4153 
L 903 4153 
L 903 3578 
L 538 3578 
L 538 4666 
L 3609 4666 
L 3609 4347 
z
" transform="scale(0.015625)"/>
       </defs>
       <use xlink:href="#DejaVuSerif-4f"/>
       <use xlink:href="#DejaVuSerif-63" x="81.982422"/>
       <use xlink:href="#DejaVuSerif-74" x="137.988281"/>
       <use xlink:href="#DejaVuSerif-20" x="178.173828"/>
       <use xlink:href="#DejaVuSerif-37" x="209.960938"/>
      </g>
     </g>
    </g>
    <g id="xtick_8">
     <g id="line2d_15">
      <path d="M 413.1 448.56 
L 413.1 60.48 
" clip-path="url(#p2430cf66c7)" style="fill: none; stroke: #ffffff; stroke-width: 0.8; stroke-linecap: square"/>
     </g>
     <g id="line2d_16">
      <g>
       <use xlink:href="#mbd7b947a6d" x="413.1" y="448.56" style="stroke: #000000; stroke-width: 0.8"/>
      </g>
     </g>
     <g id="text_8">
      <!-- Oct 8 -->
      <g transform="translate(401.518088 492.636702) rotate(-45) scale(0.15 -0.15)">
       <defs>
        <path id="DejaVuSerif-38" d="M 2981 1275 
Q 2981 1775 2732 2051 
Q 2484 2328 2034 2328 
Q 1584 2328 1336 2051 
Q 1088 1775 1088 1275 
Q 1088 772 1336 495 
Q 1584 219 2034 219 
Q 2484 219 2732 495 
Q 2981 772 2981 1275 
z
M 2853 3541 
Q 2853 3966 2637 4203 
Q 2422 4441 2034 4441 
Q 1650 4441 1433 4203 
Q 1216 3966 1216 3541 
Q 1216 3113 1433 2875 
Q 1650 2638 2034 2638 
Q 2422 2638 2637 2875 
Q 2853 3113 2853 3541 
z
M 2516 2484 
Q 3047 2413 3344 2092 
Q 3641 1772 3641 1275 
Q 3641 619 3225 264 
Q 2809 -91 2034 -91 
Q 1263 -91 845 264 
Q 428 619 428 1275 
Q 428 1772 725 2092 
Q 1022 2413 1556 2484 
Q 1084 2569 832 2842 
Q 581 3116 581 3541 
Q 581 4103 968 4426 
Q 1356 4750 2034 4750 
Q 2713 4750 3100 4426 
Q 3488 4103 3488 3541 
Q 3488 3116 3236 2842 
Q 2984 2569 2516 2484 
z
" transform="scale(0.015625)"/>
       </defs>
       <use xlink:href="#DejaVuSerif-4f"/>
       <use xlink:href="#DejaVuSerif-63" x="81.982422"/>
       <use xlink:href="#DejaVuSerif-74" x="137.988281"/>
       <use xlink:href="#DejaVuSerif-20" x="178.173828"/>
       <use xlink:href="#DejaVuSerif-38" x="209.960938"/>
      </g>
     </g>
    </g>
    <g id="xtick_9">
     <g id="line2d_17">
      <path d="M 448.971429 448.56 
L 448.971429 60.48 
" clip-path="url(#p2430cf66c7)" style="fill: none; stroke: #ffffff; stroke-width: 0.8; stroke-linecap: square"/>
     </g>
     <g id="line2d_18">
      <g>
       <use xlink:href="#mbd7b947a6d" x="448.971429" y="448.56" style="stroke: #000000; stroke-width: 0.8"/>
      </g>
     </g>
     <g id="text_9">
      <!-- Oct 9 -->
      <g transform="translate(437.389517 492.636702) rotate(-45) scale(0.15 -0.15)">
       <defs>
        <path id="DejaVuSerif-39" d="M 2994 2091 
Q 2784 1856 2512 1740 
Q 2241 1625 1900 1625 
Q 1206 1625 804 2044 
Q 403 2463 403 3188 
Q 403 3897 839 4323 
Q 1275 4750 2003 4750 
Q 2794 4750 3217 4161 
Q 3641 3572 3641 2478 
Q 3641 1253 3137 581 
Q 2634 -91 1722 -91 
Q 1475 -91 1203 -44 
Q 931 3 647 97 
L 647 872 
L 997 872 
Q 1038 556 1241 387 
Q 1444 219 1784 219 
Q 2391 219 2687 676 
Q 2984 1134 2994 2091 
z
M 1978 4441 
Q 1534 4441 1298 4117 
Q 1063 3794 1063 3188 
Q 1063 2581 1298 2256 
Q 1534 1931 1978 1931 
Q 2422 1931 2658 2245 
Q 2894 2559 2894 3150 
Q 2894 3772 2656 4106 
Q 2419 4441 1978 4441 
z
" transform="scale(0.015625)"/>
       </defs>
       <use xlink:href="#DejaVuSerif-4f"/>
       <use xlink:href="#DejaVuSerif-63" x="81.982422"/>
       <use xlink:href="#DejaVuSerif-74" x="137.988281"/>
       <use xlink:href="#DejaVuSerif-20" x="178.173828"/>
       <use xlink:href="#DejaVuSerif-39" x="209.960938"/>
      </g>
     </g>
    </g>
    <g id="xtick_10">
     <g id="line2d_19">
      <path d="M 484.842857 448.56 
L 484.842857 60.48 
" clip-path="url(#p2430cf66c7)" style="fill: none; stroke: #ffffff; stroke-width: 0.8; stroke-linecap: square"/>
     </g>
     <g id="line2d_20">
      <g>
       <use xlink:href="#mbd7b947a6d" x="484.842857" y="448.56" style="stroke: #000000; stroke-width: 0.8"/>
      </g>
     </g>
     <g id="text_10">
      <!-- Oct 10 -->
      <g transform="translate(469.88672 499.385152) rotate(-45) scale(0.15 -0.15)">
       <defs>
        <path id="DejaVuSerif-30" d="M 2034 219 
Q 2513 219 2750 744 
Q 2988 1269 2988 2328 
Q 2988 3391 2750 3916 
Q 2513 4441 2034 4441 
Q 1556 4441 1318 3916 
Q 1081 3391 1081 2328 
Q 1081 1269 1318 744 
Q 1556 219 2034 219 
z
M 2034 -91 
Q 1275 -91 848 546 
Q 422 1184 422 2328 
Q 422 3475 848 4112 
Q 1275 4750 2034 4750 
Q 2797 4750 3222 4112 
Q 3647 3475 3647 2328 
Q 3647 1184 3222 546 
Q 2797 -91 2034 -91 
z
" transform="scale(0.015625)"/>
       </defs>
       <use xlink:href="#DejaVuSerif-4f"/>
       <use xlink:href="#DejaVuSerif-63" x="81.982422"/>
       <use xlink:href="#DejaVuSerif-74" x="137.988281"/>
       <use xlink:href="#DejaVuSerif-20" x="178.173828"/>
       <use xlink:href="#DejaVuSerif-31" x="209.960938"/>
       <use xlink:href="#DejaVuSerif-30" x="273.583984"/>
      </g>
     </g>
    </g>
    <g id="xtick_11">
     <g id="line2d_21">
      <path d="M 520.714286 448.56 
L 520.714286 60.48 
" clip-path="url(#p2430cf66c7)" style="fill: none; stroke: #ffffff; stroke-width: 0.8; stroke-linecap: square"/>
     </g>
     <g id="line2d_22">
      <g>
       <use xlink:href="#mbd7b947a6d" x="520.714286" y="448.56" style="stroke: #000000; stroke-width: 0.8"/>
      </g>
     </g>
     <g id="text_11">
      <!-- Oct 11 -->
      <g transform="translate(505.758149 499.385152) rotate(-45) scale(0.15 -0.15)">
       <use xlink:href="#DejaVuSerif-4f"/>
       <use xlink:href="#DejaVuSerif-63" x="81.982422"/>
       <use xlink:href="#DejaVuSerif-74" x="137.988281"/>
       <use xlink:href="#DejaVuSerif-20" x="178.173828"/>
       <use xlink:href="#DejaVuSerif-31" x="209.960938"/>
       <use xlink:href="#DejaVuSerif-31" x="273.583984"/>
      </g>
     </g>
    </g>
    <g id="xtick_12">
     <g id="line2d_23">
      <path d="M 556.585714 448.56 
L 556.585714 60.48 
" clip-path="url(#p2430cf66c7)" style="fill: none; stroke: #ffffff; stroke-width: 0.8; stroke-linecap: square"/>
     </g>
     <g id="line2d_24">
      <g>
       <use xlink:href="#mbd7b947a6d" x="556.585714" y="448.56" style="stroke: #000000; stroke-width: 0.8"/>
      </g>
     </g>
     <g id="text_12">
      <!-- Oct 12 -->
      <g transform="translate(541.629577 499.385152) rotate(-45) scale(0.15 -0.15)">
       <use xlink:href="#DejaVuSerif-4f"/>
       <use xlink:href="#DejaVuSerif-63" x="81.982422"/>
       <use xlink:href="#DejaVuSerif-74" x="137.988281"/>
       <use xlink:href="#DejaVuSerif-20" x="178.173828"/>
       <use xlink:href="#DejaVuSerif-31" x="209.960938"/>
       <use xlink:href="#DejaVuSerif-32" x="273.583984"/>
      </g>
     </g>
    </g>
    <g id="xtick_13">
     <g id="line2d_25">
      <path d="M 592.457143 448.56 
L 592.457143 60.48 
" clip-path="url(#p2430cf66c7)" style="fill: none; stroke: #ffffff; stroke-width: 0.8; stroke-linecap: square"/>
     </g>
     <g id="line2d_26">
      <g>
       <use xlink:href="#mbd7b947a6d" x="592.457143" y="448.56" style="stroke: #000000; stroke-width: 0.8"/>
      </g>
     </g>
     <g id="text_13">
      <!-- Oct 13 -->
      <g transform="translate(577.501006 499.385152) rotate(-45) scale(0.15 -0.15)">
       <use xlink:href="#DejaVuSerif-4f"/>
       <use xlink:href="#DejaVuSerif-63" x="81.982422"/>
       <use xlink:href="#DejaVuSerif-74" x="137.988281"/>
       <use xlink:href="#DejaVuSerif-20" x="178.173828"/>
       <use xlink:href="#DejaVuSerif-31" x="209.960938"/>
       <use xlink:href="#DejaVuSerif-33" x="273.583984"/>
      </g>
     </g>
    </g>
    <g id="xtick_14">
     <g id="line2d_27">
      <path d="M 628.328571 448.56 
L 628.328571 60.48 
" clip-path="url(#p2430cf66c7)" style="fill: none; stroke: #ffffff; stroke-width: 0.8; stroke-linecap: square"/>
     </g>
     <g id="line2d_28">
      <g>
       <use xlink:href="#mbd7b947a6d" x="628.328571" y="448.56" style="stroke: #000000; stroke-width: 0.8"/>
      </g>
     </g>
     <g id="text_14">
      <!-- Oct 14 -->
      <g transform="translate(613.372434 499.385152) rotate(-45) scale(0.15 -0.15)">
       <use xlink:href="#DejaVuSerif-4f"/>
       <use xlink:href="#DejaVuSerif-63" x="81.982422"/>
       <use xlink:href="#DejaVuSerif-74" x="137.988281"/>
       <use xlink:href="#DejaVuSerif-20" x="178.173828"/>
       <use xlink:href="#DejaVuSerif-31" x="209.960938"/>
       <use xlink:href="#DejaVuSerif-34" x="273.583984"/>
      </g>
     </g>
    </g>
    <g id="xtick_15">
     <g id="line2d_29">
      <path d="M 664.2 448.56 
L 664.2 60.48 
" clip-path="url(#p2430cf66c7)" style="fill: none; stroke: #ffffff; stroke-width: 0.8; stroke-linecap: square"/>
     </g>
     <g id="line2d_30">
      <g>
       <use xlink:href="#mbd7b947a6d" x="664.2" y="448.56" style="stroke: #000000; stroke-width: 0.8"/>
      </g>
     </g>
     <g id="text_15">
      <!-- Oct 15 -->
      <g transform="translate(649.243863 499.385152) rotate(-45) scale(0.15 -0.15)">
       <use xlink:href="#DejaVuSerif-4f"/>
       <use xlink:href="#DejaVuSerif-63" x="81.982422"/>
       <use xlink:href="#DejaVuSerif-74" x="137.988281"/>
       <use xlink:href="#DejaVuSerif-20" x="178.173828"/>
       <use xlink:href="#DejaVuSerif-31" x="209.960938"/>
       <use xlink:href="#DejaVuSerif-35" x="273.583984"/>
      </g>
     </g>
    </g>
    <g id="xtick_16">
     <g id="line2d_31">
      <path d="M 700.071429 448.56 
L 700.071429 60.48 
" clip-path="url(#p2430cf66c7)" style="fill: none; stroke: #ffffff; stroke-width: 0.8; stroke-linecap: square"/>
     </g>
     <g id="line2d_32">
      <g>
       <use xlink:href="#mbd7b947a6d" x="700.071429" y="448.56" style="stroke: #000000; stroke-width: 0.8"/>
      </g>
     </g>
     <g id="text_16">
      <!-- Oct 16 -->
      <g transform="translate(685.115292 499.385152) rotate(-45) scale(0.15 -0.15)">
       <use xlink:href="#DejaVuSerif-4f"/>
       <use xlink:href="#DejaVuSerif-63" x="81.982422"/>
       <use xlink:href="#DejaVuSerif-74" x="137.988281"/>
       <use xlink:href="#DejaVuSerif-20" x="178.173828"/>
       <use xlink:href="#DejaVuSerif-31" x="209.960938"/>
       <use xlink:href="#DejaVuSerif-36" x="273.583984"/>
      </g>
     </g>
    </g>
    <g id="xtick_17">
     <g id="line2d_33">
      <path d="M 735.942857 448.56 
L 735.942857 60.48 
" clip-path="url(#p2430cf66c7)" style="fill: none; stroke: #ffffff; stroke-width: 0.8; stroke-linecap: square"/>
     </g>
     <g id="line2d_34">
      <g>
       <use xlink:href="#mbd7b947a6d" x="735.942857" y="448.56" style="stroke: #000000; stroke-width: 0.8"/>
      </g>
     </g>
     <g id="text_17">
      <!-- Oct 17 -->
      <g transform="translate(720.98672 499.385152) rotate(-45) scale(0.15 -0.15)">
       <use xlink:href="#DejaVuSerif-4f"/>
       <use xlink:href="#DejaVuSerif-63" x="81.982422"/>
       <use xlink:href="#DejaVuSerif-74" x="137.988281"/>
       <use xlink:href="#DejaVuSerif-20" x="178.173828"/>
       <use xlink:href="#DejaVuSerif-31" x="209.960938"/>
       <use xlink:href="#DejaVuSerif-37" x="273.583984"/>
      </g>
     </g>
    </g>
    <g id="xtick_18">
     <g id="line2d_35">
      <path d="M 771.814286 448.56 
L 771.814286 60.48 
" clip-path="url(#p2430cf66c7)" style="fill: none; stroke: #ffffff; stroke-width: 0.8; stroke-linecap: square"/>
     </g>
     <g id="line2d_36">
      <g>
       <use xlink:href="#mbd7b947a6d" x="771.814286" y="448.56" style="stroke: #000000; stroke-width: 0.8"/>
      </g>
     </g>
     <g id="text_18">
      <!-- Oct 18 -->
      <g transform="translate(756.858149 499.385152) rotate(-45) scale(0.15 -0.15)">
       <use xlink:href="#DejaVuSerif-4f"/>
       <use xlink:href="#DejaVuSerif-63" x="81.982422"/>
       <use xlink:href="#DejaVuSerif-74" x="137.988281"/>
       <use xlink:href="#DejaVuSerif-20" x="178.173828"/>
       <use xlink:href="#DejaVuSerif-31" x="209.960938"/>
       <use xlink:href="#DejaVuSerif-38" x="273.583984"/>
      </g>
     </g>
    </g>
    <g id="xtick_19">
     <g id="line2d_37">
      <path d="M 807.685714 448.56 
L 807.685714 60.48 
" clip-path="url(#p2430cf66c7)" style="fill: none; stroke: #ffffff; stroke-width: 0.8; stroke-linecap: square"/>
     </g>
     <g id="line2d_38">
      <g>
       <use xlink:href="#mbd7b947a6d" x="807.685714" y="448.56" style="stroke: #000000; stroke-width: 0.8"/>
      </g>
     </g>
     <g id="text_19">
      <!-- Oct 19 -->
      <g transform="translate(792.729577 499.385152) rotate(-45) scale(0.15 -0.15)">
       <use xlink:href="#DejaVuSerif-4f"/>
       <use xlink:href="#DejaVuSerif-63" x="81.982422"/>
       <use xlink:href="#DejaVuSerif-74" x="137.988281"/>
       <use xlink:href="#DejaVuSerif-20" x="178.173828"/>
       <use xlink:href="#DejaVuSerif-31" x="209.960938"/>
       <use xlink:href="#DejaVuSerif-39" x="273.583984"/>
      </g>
     </g>
    </g>
    <g id="xtick_20">
     <g id="line2d_39">
      <path d="M 843.557143 448.56 
L 843.557143 60.48 
" clip-path="url(#p2430cf66c7)" style="fill: none; stroke: #ffffff; stroke-width: 0.8; stroke-linecap: square"/>
     </g>
     <g id="line2d_40">
      <g>
       <use xlink:href="#mbd7b947a6d" x="843.557143" y="448.56" style="stroke: #000000; stroke-width: 0.8"/>
      </g>
     </g>
     <g id="text_20">
      <!-- Oct 20 -->
      <g transform="translate(828.601006 499.385152) rotate(-45) scale(0.15 -0.15)">
       <use xlink:href="#DejaVuSerif-4f"/>
       <use xlink:href="#DejaVuSerif-63" x="81.982422"/>
       <use xlink:href="#DejaVuSerif-74" x="137.988281"/>
       <use xlink:href="#DejaVuSerif-20" x="178.173828"/>
       <use xlink:href="#DejaVuSerif-32" x="209.960938"/>
       <use xlink:href="#DejaVuSerif-30" x="273.583984"/>
      </g>
     </g>
    </g>
    <g id="xtick_21">
     <g id="line2d_41">
      <path d="M 879.428571 448.56 
L 879.428571 60.48 
" clip-path="url(#p2430cf66c7)" style="fill: none; stroke: #ffffff; stroke-width: 0.8; stroke-linecap: square"/>
     </g>
     <g id="line2d_42">
      <g>
       <use xlink:href="#mbd7b947a6d" x="879.428571" y="448.56" style="stroke: #000000; stroke-width: 0.8"/>
      </g>
     </g>
     <g id="text_21">
      <!-- Oct 21 -->
      <g transform="translate(864.472434 499.385152) rotate(-45) scale(0.15 -0.15)">
       <use xlink:href="#DejaVuSerif-4f"/>
       <use xlink:href="#DejaVuSerif-63" x="81.982422"/>
       <use xlink:href="#DejaVuSerif-74" x="137.988281"/>
       <use xlink:href="#DejaVuSerif-20" x="178.173828"/>
       <use xlink:href="#DejaVuSerif-32" x="209.960938"/>
       <use xlink:href="#DejaVuSerif-31" x="273.583984"/>
      </g>
     </g>
    </g>
    <g id="xtick_22">
     <g id="line2d_43">
      <path d="M 915.3 448.56 
L 915.3 60.48 
" clip-path="url(#p2430cf66c7)" style="fill: none; stroke: #ffffff; stroke-width: 0.8; stroke-linecap: square"/>
     </g>
     <g id="line2d_44">
      <g>
       <use xlink:href="#mbd7b947a6d" x="915.3" y="448.56" style="stroke: #000000; stroke-width: 0.8"/>
      </g>
     </g>
     <g id="text_22">
      <!-- Oct 22 -->
      <g transform="translate(900.343863 499.385152) rotate(-45) scale(0.15 -0.15)">
       <use xlink:href="#DejaVuSerif-4f"/>
       <use xlink:href="#DejaVuSerif-63" x="81.982422"/>
       <use xlink:href="#DejaVuSerif-74" x="137.988281"/>
       <use xlink:href="#DejaVuSerif-20" x="178.173828"/>
       <use xlink:href="#DejaVuSerif-32" x="209.960938"/>
       <use xlink:href="#DejaVuSerif-32" x="273.583984"/>
      </g>
     </g>
    </g>
    <g id="xtick_23">
     <g id="line2d_45">
      <path d="M 951.171429 448.56 
L 951.171429 60.48 
" clip-path="url(#p2430cf66c7)" style="fill: none; stroke: #ffffff; stroke-width: 0.8; stroke-linecap: square"/>
     </g>
     <g id="line2d_46">
      <g>
       <use xlink:href="#mbd7b947a6d" x="951.171429" y="448.56" style="stroke: #000000; stroke-width: 0.8"/>
      </g>
     </g>
     <g id="text_23">
      <!-- Oct 23 -->
      <g transform="translate(936.215292 499.385152) rotate(-45) scale(0.15 -0.15)">
       <use xlink:href="#DejaVuSerif-4f"/>
       <use xlink:href="#DejaVuSerif-63" x="81.982422"/>
       <use xlink:href="#DejaVuSerif-74" x="137.988281"/>
       <use xlink:href="#DejaVuSerif-20" x="178.173828"/>
       <use xlink:href="#DejaVuSerif-32" x="209.960938"/>
       <use xlink:href="#DejaVuSerif-33" x="273.583984"/>
      </g>
     </g>
    </g>
    <g id="xtick_24">
     <g id="line2d_47">
      <path d="M 987.042857 448.56 
L 987.042857 60.48 
" clip-path="url(#p2430cf66c7)" style="fill: none; stroke: #ffffff; stroke-width: 0.8; stroke-linecap: square"/>
     </g>
     <g id="line2d_48">
      <g>
       <use xlink:href="#mbd7b947a6d" x="987.042857" y="448.56" style="stroke: #000000; stroke-width: 0.8"/>
      </g>
     </g>
     <g id="text_24">
      <!-- Oct 24 -->
      <g transform="translate(972.08672 499.385152) rotate(-45) scale(0.15 -0.15)">
       <use xlink:href="#DejaVuSerif-4f"/>
       <use xlink:href="#DejaVuSerif-63" x="81.982422"/>
       <use xlink:href="#DejaVuSerif-74" x="137.988281"/>
       <use xlink:href="#DejaVuSerif-20" x="178.173828"/>
       <use xlink:href="#DejaVuSerif-32" x="209.960938"/>
       <use xlink:href="#DejaVuSerif-34" x="273.583984"/>
      </g>
     </g>
    </g>
    <g id="xtick_25">
     <g id="line2d_49">
      <path d="M 1022.914286 448.56 
L 1022.914286 60.48 
" clip-path="url(#p2430cf66c7)" style="fill: none; stroke: #ffffff; stroke-width: 0.8; stroke-linecap: square"/>
     </g>
     <g id="line2d_50">
      <g>
       <use xlink:href="#mbd7b947a6d" x="1022.914286" y="448.56" style="stroke: #000000; stroke-width: 0.8"/>
      </g>
     </g>
     <g id="text_25">
      <!-- Oct 25 -->
      <g transform="translate(1007.958149 499.385152) rotate(-45) scale(0.15 -0.15)">
       <use xlink:href="#DejaVuSerif-4f"/>
       <use xlink:href="#DejaVuSerif-63" x="81.982422"/>
       <use xlink:href="#DejaVuSerif-74" x="137.988281"/>
       <use xlink:href="#DejaVuSerif-20" x="178.173828"/>
       <use xlink:href="#DejaVuSerif-32" x="209.960938"/>
       <use xlink:href="#DejaVuSerif-35" x="273.583984"/>
      </g>
     </g>
    </g>
    <g id="xtick_26">
     <g id="line2d_51">
      <path d="M 1058.785714 448.56 
L 1058.785714 60.48 
" clip-path="url(#p2430cf66c7)" style="fill: none; stroke: #ffffff; stroke-width: 0.8; stroke-linecap: square"/>
     </g>
     <g id="line2d_52">
      <g>
       <use xlink:href="#mbd7b947a6d" x="1058.785714" y="448.56" style="stroke: #000000; stroke-width: 0.8"/>
      </g>
     </g>
     <g id="text_26">
      <!-- Oct 26 -->
      <g transform="translate(1043.829577 499.385152) rotate(-45) scale(0.15 -0.15)">
       <use xlink:href="#DejaVuSerif-4f"/>
       <use xlink:href="#DejaVuSerif-63" x="81.982422"/>
       <use xlink:href="#DejaVuSerif-74" x="137.988281"/>
       <use xlink:href="#DejaVuSerif-20" x="178.173828"/>
       <use xlink:href="#DejaVuSerif-32" x="209.960938"/>
       <use xlink:href="#DejaVuSerif-36" x="273.583984"/>
      </g>
     </g>
    </g>
    <g id="xtick_27">
     <g id="line2d_53">
      <path d="M 1094.657143 448.56 
L 1094.657143 60.48 
" clip-path="url(#p2430cf66c7)" style="fill: none; stroke: #ffffff; stroke-width: 0.8; stroke-linecap: square"/>
     </g>
     <g id="line2d_54">
      <g>
       <use xlink:href="#mbd7b947a6d" x="1094.657143" y="448.56" style="stroke: #000000; stroke-width: 0.8"/>
      </g>
     </g>
     <g id="text_27">
      <!-- Oct 27 -->
      <g transform="translate(1079.701006 499.385152) rotate(-45) scale(0.15 -0.15)">
       <use xlink:href="#DejaVuSerif-4f"/>
       <use xlink:href="#DejaVuSerif-63" x="81.982422"/>
       <use xlink:href="#DejaVuSerif-74" x="137.988281"/>
       <use xlink:href="#DejaVuSerif-20" x="178.173828"/>
       <use xlink:href="#DejaVuSerif-32" x="209.960938"/>
       <use xlink:href="#DejaVuSerif-37" x="273.583984"/>
      </g>
     </g>
    </g>
    <g id="xtick_28">
     <g id="line2d_55">
      <path d="M 1130.528571 448.56 
L 1130.528571 60.48 
" clip-path="url(#p2430cf66c7)" style="fill: none; stroke: #ffffff; stroke-width: 0.8; stroke-linecap: square"/>
     </g>
     <g id="line2d_56">
      <g>
       <use xlink:href="#mbd7b947a6d" x="1130.528571" y="448.56" style="stroke: #000000; stroke-width: 0.8"/>
      </g>
     </g>
     <g id="text_28">
      <!-- Oct 28 -->
      <g transform="translate(1115.572434 499.385152) rotate(-45) scale(0.15 -0.15)">
       <use xlink:href="#DejaVuSerif-4f"/>
       <use xlink:href="#DejaVuSerif-63" x="81.982422"/>
       <use xlink:href="#DejaVuSerif-74" x="137.988281"/>
       <use xlink:href="#DejaVuSerif-20" x="178.173828"/>
       <use xlink:href="#DejaVuSerif-32" x="209.960938"/>
       <use xlink:href="#DejaVuSerif-38" x="273.583984"/>
      </g>
     </g>
    </g>
   </g>
   <g id="matplotlib.axis_2">
    <g id="ytick_1">
     <g id="line2d_57">
      <path d="M 162 398.04937 
L 1166.4 398.04937 
" clip-path="url(#p2430cf66c7)" style="fill: none; stroke: #ffffff; stroke-width: 0.8; stroke-linecap: square"/>
     </g>
     <g id="line2d_58">
      <defs>
       <path id="m9d3dfb24df" d="M 0 0 
L -3.5 0 
" style="stroke: #000000; stroke-width: 0.8"/>
      </defs>
      <g>
       <use xlink:href="#m9d3dfb24df" x="162" y="398.04937" style="stroke: #000000; stroke-width: 0.8"/>
      </g>
     </g>
     <g id="text_29">
      <!-- 55000 -->
      <g transform="translate(107.28125 403.748198) scale(0.15 -0.15)">
       <use xlink:href="#DejaVuSerif-35"/>
       <use xlink:href="#DejaVuSerif-35" x="63.623047"/>
       <use xlink:href="#DejaVuSerif-30" x="127.246094"/>
       <use xlink:href="#DejaVuSerif-30" x="190.869141"/>
       <use xlink:href="#DejaVuSerif-30" x="254.492188"/>
      </g>
     </g>
    </g>
    <g id="ytick_2">
     <g id="line2d_59">
      <path d="M 162 346.738815 
L 1166.4 346.738815 
" clip-path="url(#p2430cf66c7)" style="fill: none; stroke: #ffffff; stroke-width: 0.8; stroke-linecap: square"/>
     </g>
     <g id="line2d_60">
      <g>
       <use xlink:href="#m9d3dfb24df" x="162" y="346.738815" style="stroke: #000000; stroke-width: 0.8"/>
      </g>
     </g>
     <g id="text_30">
      <!-- 60000 -->
      <g transform="translate(107.28125 352.437643) scale(0.15 -0.15)">
       <use xlink:href="#DejaVuSerif-36"/>
       <use xlink:href="#DejaVuSerif-30" x="63.623047"/>
       <use xlink:href="#DejaVuSerif-30" x="127.246094"/>
       <use xlink:href="#DejaVuSerif-30" x="190.869141"/>
       <use xlink:href="#DejaVuSerif-30" x="254.492188"/>
      </g>
     </g>
    </g>
    <g id="ytick_3">
     <g id="line2d_61">
      <path d="M 162 295.428259 
L 1166.4 295.428259 
" clip-path="url(#p2430cf66c7)" style="fill: none; stroke: #ffffff; stroke-width: 0.8; stroke-linecap: square"/>
     </g>
     <g id="line2d_62">
      <g>
       <use xlink:href="#m9d3dfb24df" x="162" y="295.428259" style="stroke: #000000; stroke-width: 0.8"/>
      </g>
     </g>
     <g id="text_31">
      <!-- 65000 -->
      <g transform="translate(107.28125 301.127087) scale(0.15 -0.15)">
       <use xlink:href="#DejaVuSerif-36"/>
       <use xlink:href="#DejaVuSerif-35" x="63.623047"/>
       <use xlink:href="#DejaVuSerif-30" x="127.246094"/>
       <use xlink:href="#DejaVuSerif-30" x="190.869141"/>
       <use xlink:href="#DejaVuSerif-30" x="254.492188"/>
      </g>
     </g>
    </g>
    <g id="ytick_4">
     <g id="line2d_63">
      <path d="M 162 244.117703 
L 1166.4 244.117703 
" clip-path="url(#p2430cf66c7)" style="fill: none; stroke: #ffffff; stroke-width: 0.8; stroke-linecap: square"/>
     </g>
     <g id="line2d_64">
      <g>
       <use xlink:href="#m9d3dfb24df" x="162" y="244.117703" style="stroke: #000000; stroke-width: 0.8"/>
      </g>
     </g>
     <g id="text_32">
      <!-- 70000 -->
      <g transform="translate(107.28125 249.816531) scale(0.15 -0.15)">
       <use xlink:href="#DejaVuSerif-37"/>
       <use xlink:href="#DejaVuSerif-30" x="63.623047"/>
       <use xlink:href="#DejaVuSerif-30" x="127.246094"/>
       <use xlink:href="#DejaVuSerif-30" x="190.869141"/>
       <use xlink:href="#DejaVuSerif-30" x="254.492188"/>
      </g>
     </g>
    </g>
    <g id="ytick_5">
     <g id="line2d_65">
      <path d="M 162 192.807148 
L 1166.4 192.807148 
" clip-path="url(#p2430cf66c7)" style="fill: none; stroke: #ffffff; stroke-width: 0.8; stroke-linecap: square"/>
     </g>
     <g id="line2d_66">
      <g>
       <use xlink:href="#m9d3dfb24df" x="162" y="192.807148" style="stroke: #000000; stroke-width: 0.8"/>
      </g>
     </g>
     <g id="text_33">
      <!-- 75000 -->
      <g transform="translate(107.28125 198.505976) scale(0.15 -0.15)">
       <use xlink:href="#DejaVuSerif-37"/>
       <use xlink:href="#DejaVuSerif-35" x="63.623047"/>
       <use xlink:href="#DejaVuSerif-30" x="127.246094"/>
       <use xlink:href="#DejaVuSerif-30" x="190.869141"/>
       <use xlink:href="#DejaVuSerif-30" x="254.492188"/>
      </g>
     </g>
    </g>
    <g id="ytick_6">
     <g id="line2d_67">
      <path d="M 162 141.496592 
L 1166.4 141.496592 
" clip-path="url(#p2430cf66c7)" style="fill: none; stroke: #ffffff; stroke-width: 0.8; stroke-linecap: square"/>
     </g>
     <g id="line2d_68">
      <g>
       <use xlink:href="#m9d3dfb24df" x="162" y="141.496592" style="stroke: #000000; stroke-width: 0.8"/>
      </g>
     </g>
     <g id="text_34">
      <!-- 80000 -->
      <g transform="translate(107.28125 147.19542) scale(0.15 -0.15)">
       <use xlink:href="#DejaVuSerif-38"/>
       <use xlink:href="#DejaVuSerif-30" x="63.623047"/>
       <use xlink:href="#DejaVuSerif-30" x="127.246094"/>
       <use xlink:href="#DejaVuSerif-30" x="190.869141"/>
       <use xlink:href="#DejaVuSerif-30" x="254.492188"/>
      </g>
     </g>
    </g>
    <g id="ytick_7">
     <g id="line2d_69">
      <path d="M 162 90.186036 
L 1166.4 90.186036 
" clip-path="url(#p2430cf66c7)" style="fill: none; stroke: #ffffff; stroke-width: 0.8; stroke-linecap: square"/>
     </g>
     <g id="line2d_70">
      <g>
       <use xlink:href="#m9d3dfb24df" x="162" y="90.186036" style="stroke: #000000; stroke-width: 0.8"/>
      </g>
     </g>
     <g id="text_35">
      <!-- 85000 -->
      <g transform="translate(107.28125 95.884864) scale(0.15 -0.15)">
       <use xlink:href="#DejaVuSerif-38"/>
       <use xlink:href="#DejaVuSerif-35" x="63.623047"/>
       <use xlink:href="#DejaVuSerif-30" x="127.246094"/>
       <use xlink:href="#DejaVuSerif-30" x="190.869141"/>
       <use xlink:href="#DejaVuSerif-30" x="254.492188"/>
      </g>
     </g>
    </g>
    <g id="text_36">
     <!-- (GW) -->
     <g transform="translate(100.161719 274.072734) rotate(-90) scale(0.15 -0.15)">
      <defs>
       <path id="DejaVuSerif-28" d="M 2041 -997 
Q 1281 -656 893 83 
Q 506 822 506 1931 
Q 506 3044 893 3783 
Q 1281 4522 2041 4863 
L 2041 4556 
Q 1559 4225 1350 3623 
Q 1141 3022 1141 1931 
Q 1141 844 1350 242 
Q 1559 -359 2041 -691 
L 2041 -997 
z
" transform="scale(0.015625)"/>
       <path id="DejaVuSerif-47" d="M 4097 3272 
Q 3988 3856 3641 4136 
Q 3294 4416 2675 4416 
Q 1869 4416 1472 3897 
Q 1075 3378 1075 2328 
Q 1075 1300 1484 772 
Q 1894 244 2688 244 
Q 3041 244 3362 331 
Q 3684 419 3975 594 
L 3975 1797 
L 3097 1797 
L 3097 2131 
L 4609 2131 
L 4609 391 
Q 4194 150 3714 29 
Q 3234 -91 2688 -91 
Q 1631 -91 995 570 
Q 359 1231 359 2328 
Q 359 3434 996 4092 
Q 1634 4750 2713 4750 
Q 3113 4750 3539 4658 
Q 3966 4566 4447 4378 
L 4447 3272 
L 4097 3272 
z
" transform="scale(0.015625)"/>
       <path id="DejaVuSerif-57" d="M 4878 0 
L 4366 0 
L 3297 3794 
L 2228 0 
L 1716 0 
L 494 4331 
L 31 4331 
L 31 4666 
L 1734 4666 
L 1734 4331 
L 1153 4331 
L 2125 884 
L 3188 4666 
L 3694 4666 
L 4775 844 
L 5753 4331 
L 5216 4331 
L 5216 4666 
L 6559 4666 
L 6559 4331 
L 6100 4331 
L 4878 0 
z
" transform="scale(0.015625)"/>
       <path id="DejaVuSerif-29" d="M 453 -997 
L 453 -691 
Q 934 -359 1145 242 
Q 1356 844 1356 1931 
Q 1356 3022 1145 3623 
Q 934 4225 453 4556 
L 453 4863 
Q 1216 4522 1603 3783 
Q 1991 3044 1991 1931 
Q 1991 822 1603 83 
Q 1216 -656 453 -997 
z
" transform="scale(0.015625)"/>
      </defs>
      <use xlink:href="#DejaVuSerif-28"/>
      <use xlink:href="#DejaVuSerif-47" x="39.013672"/>
      <use xlink:href="#DejaVuSerif-57" x="118.896484"/>
      <use xlink:href="#DejaVuSerif-29" x="221.679688"/>
     </g>
    </g>
   </g>
   <g id="line2d_71">
    <path d="M 162 273.616511 
L 163.494643 307.23453 
L 164.241964 320.128976 
L 164.989286 331.064805 
L 165.736607 339.848915 
L 167.23125 348.798143 
L 167.978571 350.140181 
L 168.725893 351.164514 
L 169.473214 349.978697 
L 170.220536 352.619877 
L 170.967857 353.956332 
L 171.715179 358.80755 
L 172.4625 347.081949 
L 173.209821 337.291443 
L 173.957143 330.680961 
L 174.704464 327.587724 
L 175.451786 327.593738 
L 176.199107 327.883889 
L 176.946429 328.044306 
L 177.69375 328.442651 
L 178.441071 330.493985 
L 179.188393 331.691871 
L 179.935714 336.275505 
L 180.683036 338.443252 
L 181.430357 336.214876 
L 182.177679 330.124056 
L 182.925 323.092489 
L 184.419643 303.309745 
L 185.914286 275.674413 
L 186.661607 259.475045 
L 187.408929 239.461199 
L 188.15625 208.789934 
L 188.903571 160.798987 
L 189.650893 135.680161 
L 190.398214 141.06938 
L 194.134821 216.034061 
L 194.882143 238.031717 
L 196.376786 268.1869 
L 197.124107 278.695723 
L 197.871429 325.013033 
L 199.366071 354.059466 
L 200.860714 375.639701 
L 201.608036 383.136922 
L 202.355357 389.327438 
L 203.102679 393.985287 
L 203.85 396.74443 
L 204.597321 398.844704 
L 205.344643 404.31756 
L 206.839286 423.548161 
L 207.586607 430.92 
L 208.333929 427.163975 
L 209.08125 425.852375 
L 209.828571 425.209823 
L 210.575893 424.165222 
L 211.323214 424.521102 
L 212.070536 423.06735 
L 212.817857 415.189867 
L 213.565179 410.246772 
L 214.3125 404.070479 
L 215.059821 401.929392 
L 215.807143 403.863739 
L 216.554464 405.368872 
L 217.301786 405.362746 
L 218.049107 403.229694 
L 218.796429 398.623823 
L 219.54375 389.632274 
L 220.291071 379.248362 
L 221.038393 366.043016 
L 221.785714 349.473113 
L 222.533036 328.515317 
L 223.280357 299.912996 
L 224.027679 264.447766 
L 224.775 209.123915 
L 225.522321 189.248258 
L 226.269643 192.602911 
L 229.258929 224.115217 
L 230.00625 235.48619 
L 230.753571 264.903989 
L 232.248214 298.141469 
L 232.995536 310.017892 
L 233.742857 337.195677 
L 234.490179 351.285484 
L 235.2375 362.721201 
L 235.984821 372.369935 
L 236.732143 380.23845 
L 237.479464 385.661258 
L 238.226786 387.52302 
L 238.974107 387.264333 
L 239.721429 385.611579 
L 240.46875 381.119268 
L 241.216071 371.868549 
L 241.963393 364.312906 
L 242.710714 347.382393 
L 243.458036 343.084477 
L 244.205357 311.833044 
L 244.952679 291.283977 
L 245.7 263.023611 
L 246.447321 253.655802 
L 247.194643 249.82003 
L 247.941964 245.205077 
L 248.689286 243.134347 
L 249.436607 237.928008 
L 250.183929 236.378737 
L 250.93125 241.076055 
L 251.678571 255.418299 
L 252.425893 257.678508 
L 253.173214 242.231199 
L 254.667857 208.540606 
L 255.415179 195.110058 
L 256.1625 186.000956 
L 257.657143 162.978269 
L 258.404464 160.452004 
L 259.151786 167.155492 
L 259.899107 155.550861 
L 261.39375 118.449512 
L 262.141071 113.385694 
L 262.888393 116.873293 
L 263.635714 123.621934 
L 264.383036 129.243477 
L 265.130357 132.044449 
L 265.877679 139.970442 
L 268.119643 204.340806 
L 268.866964 223.537665 
L 269.614286 285.953909 
L 271.108929 319.27446 
L 271.85625 329.471561 
L 272.603571 337.22709 
L 273.350893 343.14292 
L 274.098214 347.631454 
L 274.845536 349.821614 
L 275.592857 349.685087 
L 276.340179 347.642219 
L 277.0875 337.463662 
L 277.834821 329.998243 
L 278.582143 313.454899 
L 279.329464 305.896187 
L 280.076786 276.336648 
L 280.824107 257.840311 
L 281.571429 233.233103 
L 282.31875 226.821295 
L 283.066071 227.355037 
L 283.813393 225.395723 
L 284.560714 226.81446 
L 285.308036 223.880748 
L 286.055357 223.427881 
L 286.802679 229.563598 
L 287.55 243.119621 
L 288.297321 246.796638 
L 289.044643 231.933601 
L 290.539286 199.103702 
L 292.033929 175.775563 
L 293.528571 154.14841 
L 294.275893 149.170599 
L 295.023214 154.707244 
L 295.770536 139.993542 
L 297.265179 96.904425 
L 298.0125 95.924855 
L 298.759821 105.395686 
L 300.254464 119.092618 
L 301.001786 121.740242 
L 301.749107 133.059125 
L 303.991071 199.055644 
L 304.738393 217.009598 
L 305.485714 277.904165 
L 306.233036 296.052667 
L 306.980357 310.704355 
L 308.475 334.857496 
L 309.222321 341.201903 
L 309.969643 345.656911 
L 310.716964 347.249878 
L 311.464286 345.640112 
L 312.211607 343.221281 
L 312.958929 336.296213 
L 314.453571 319.009913 
L 315.200893 314.182667 
L 315.948214 283.682657 
L 316.695536 268.980644 
L 317.442857 245.849383 
L 318.190179 238.865114 
L 318.9375 238.801037 
L 319.684821 237.320553 
L 320.432143 238.803007 
L 321.179464 233.636229 
L 321.926786 232.457677 
L 322.674107 237.821652 
L 323.421429 250.772477 
L 324.16875 251.878569 
L 326.410714 206.651023 
L 327.158036 194.557679 
L 328.652679 173.484619 
L 329.4 162.585189 
L 330.147321 155.362243 
L 330.894643 157.03818 
L 331.641964 146.190595 
L 332.389286 126.760929 
L 333.136607 101.849634 
L 333.883929 98.528384 
L 334.63125 107.071673 
L 335.378571 112.200184 
L 336.125893 119.153688 
L 336.873214 124.733228 
L 337.620536 136.333806 
L 340.609821 218.018394 
L 341.357143 266.160379 
L 342.851786 299.739536 
L 344.346429 320.212048 
L 345.09375 328.963104 
L 345.841071 333.458124 
L 346.588393 334.844032 
L 347.335714 334.231374 
L 348.083036 333.92268 
L 348.830357 328.655723 
L 349.577679 321.608526 
L 350.325 311.713285 
L 351.072321 304.360852 
L 351.819643 272.679693 
L 352.566964 256.613814 
L 353.314286 233.347146 
L 354.061607 226.053104 
L 354.808929 225.288525 
L 355.55625 223.204219 
L 356.303571 223.406895 
L 357.050893 217.363282 
L 357.798214 216.920492 
L 358.545536 222.691154 
L 359.292857 236.76488 
L 360.040179 238.143236 
L 363.029464 172.582446 
L 363.776786 162.511046 
L 364.524107 148.940584 
L 365.271429 140.187013 
L 366.01875 135.158179 
L 366.766071 144.908097 
L 367.513393 134.749254 
L 368.260714 112.854373 
L 369.008036 94.849632 
L 369.755357 94.871727 
L 370.502679 103.501249 
L 371.25 108.157692 
L 371.997321 114.572373 
L 372.744643 116.742502 
L 373.491964 128.685906 
L 374.239286 148.368912 
L 374.986607 162.579042 
L 375.733929 190.908965 
L 376.48125 209.104622 
L 377.228571 260.015386 
L 377.975893 279.317863 
L 378.723214 295.416622 
L 380.217857 317.524277 
L 381.7125 332.313293 
L 382.459821 335.326526 
L 383.207143 332.181558 
L 383.954464 330.084363 
L 384.701786 324.735463 
L 385.449107 320.501572 
L 386.196429 305.061272 
L 386.94375 297.996794 
L 387.691071 268.137498 
L 388.438393 251.40764 
L 389.185714 229.861548 
L 389.933036 225.176422 
L 390.680357 223.581105 
L 391.427679 221.147466 
L 392.175 223.19016 
L 392.922321 219.477646 
L 393.669643 219.111288 
L 394.416964 224.732791 
L 395.164286 240.529187 
L 395.911607 241.118273 
L 396.658929 224.06915 
L 397.40625 202.929961 
L 398.153571 189.032723 
L 399.648214 168.582603 
L 401.142857 150.843302 
L 401.890179 148.280699 
L 402.6375 155.71801 
L 403.384821 145.466951 
L 404.132143 124.993732 
L 404.879464 100.237241 
L 405.626786 99.974069 
L 406.374107 111.034408 
L 407.121429 117.094215 
L 407.86875 126.24337 
L 408.616071 138.066892 
L 409.363393 146.962274 
L 410.858036 183.163955 
L 411.605357 183.966749 
L 412.352679 218.151596 
L 413.1 257.434383 
L 414.594643 291.873925 
L 416.089286 315.211967 
L 416.836607 322.584329 
L 417.583929 331.726557 
L 418.33125 335.24564 
L 419.825893 338.883333 
L 420.573214 340.730944 
L 422.815179 352.054619 
L 423.5625 341.278366 
L 424.309821 335.473582 
L 425.057143 327.431987 
L 425.804464 327.190283 
L 426.551786 327.515202 
L 427.299107 328.307663 
L 428.046429 328.450501 
L 428.79375 328.085334 
L 429.541071 327.404987 
L 430.288393 329.247477 
L 431.035714 332.967513 
L 431.783036 332.841084 
L 432.530357 328.499267 
L 433.277679 322.631022 
L 434.025 314.610751 
L 434.772321 304.550014 
L 435.519643 296.938 
L 437.014286 271.111181 
L 437.761607 254.778118 
L 438.508929 234.268273 
L 439.25625 201.371167 
L 440.003571 155.202144 
L 440.750893 131.033385 
L 441.498214 133.270576 
L 442.245536 145.883234 
L 443.740179 175.424065 
L 445.234821 203.084703 
L 445.982143 223.490973 
L 448.224107 265.492511 
L 448.971429 300.94478 
L 450.466071 330.688298 
L 451.960714 351.434798 
L 452.708036 358.261216 
L 453.455357 367.238685 
L 454.202679 372.485743 
L 455.697321 378.953798 
L 457.191964 395.287292 
L 457.939286 403.159152 
L 458.686607 415.356226 
L 459.433929 419.366176 
L 460.18125 419.852211 
L 460.928571 419.984787 
L 461.675893 422.528056 
L 462.423214 423.353181 
L 463.170536 423.62878 
L 463.917857 417.643271 
L 464.665179 413.662967 
L 465.4125 412.893001 
L 466.159821 409.282113 
L 466.907143 409.518572 
L 467.654464 408.709898 
L 468.401786 409.656516 
L 469.149107 405.370812 
L 469.896429 399.111878 
L 471.391071 376.590218 
L 472.885714 344.385364 
L 473.633036 324.174372 
L 475.127679 258.728733 
L 475.875 206.648622 
L 476.622321 183.7534 
L 477.369643 185.065729 
L 480.358929 212.551121 
L 481.10625 221.69851 
L 481.853571 248.829439 
L 482.600893 262.808271 
L 483.348214 279.896184 
L 485.590179 318.989871 
L 486.3375 332.129099 
L 487.084821 341.52871 
L 489.326786 359.388139 
L 490.074107 359.743393 
L 490.821429 360.332633 
L 491.56875 356.432384 
L 492.316071 348.381368 
L 493.063393 341.806382 
L 493.810714 327.714995 
L 494.558036 316.924703 
L 495.305357 285.858512 
L 496.052679 266.433495 
L 496.8 239.865926 
L 497.547321 231.202467 
L 499.041964 223.652201 
L 499.789286 223.801976 
L 500.536607 219.737082 
L 501.283929 216.578569 
L 502.03125 221.95104 
L 502.778571 234.909614 
L 503.525893 236.302018 
L 505.767857 188.941975 
L 506.515179 178.408441 
L 508.009821 160.182213 
L 508.757143 150.434439 
L 509.504464 146.845399 
L 510.251786 154.809865 
L 510.999107 145.24843 
L 512.49375 108.119281 
L 513.241071 104.207959 
L 515.483036 120.41602 
L 516.230357 124.001601 
L 516.977679 133.063179 
L 519.966964 216.114567 
L 520.714286 265.62717 
L 522.95625 309.221942 
L 523.703571 317.999198 
L 524.450893 325.080054 
L 525.198214 330.838505 
L 525.945536 332.586255 
L 526.692857 331.099142 
L 527.440179 328.532023 
L 528.934821 315.196225 
L 529.682143 302.254605 
L 530.429464 295.820918 
L 531.176786 264.760976 
L 531.924107 247.874683 
L 532.671429 223.260414 
L 533.41875 213.831381 
L 534.913393 202.335631 
L 535.660714 200.280951 
L 536.408036 196.03883 
L 537.155357 192.715835 
L 537.902679 198.024036 
L 538.65 213.756026 
L 539.397321 214.02006 
L 540.144643 199.846166 
L 540.891964 179.845403 
L 541.639286 164.958826 
L 542.386607 153.248413 
L 544.628571 124.342303 
L 545.375893 121.086413 
L 546.123214 129.742267 
L 546.870536 122.690637 
L 548.365179 80.027809 
L 549.1125 80.239649 
L 549.859821 90.13644 
L 550.607143 96.024942 
L 551.354464 100.934069 
L 552.101786 102.661777 
L 552.849107 111.493627 
L 555.091071 173.882871 
L 555.838393 189.967037 
L 556.585714 255.626097 
L 558.080357 290.337267 
L 558.827679 301.841216 
L 559.575 315.335718 
L 560.322321 323.624425 
L 561.069643 330.113363 
L 563.311607 343.716141 
L 564.058929 355.724576 
L 565.553571 383.257758 
L 566.300893 391.839787 
L 567.795536 386.621227 
L 568.542857 383.697757 
L 570.0375 381.089446 
L 570.784821 379.269522 
L 571.532143 371.504111 
L 573.774107 358.404064 
L 574.521429 358.522366 
L 575.26875 357.257437 
L 576.016071 355.063213 
L 576.763393 352.416584 
L 577.510714 347.370889 
L 579.005357 329.2288 
L 579.752679 318.276439 
L 580.5 304.013285 
L 581.247321 287.238499 
L 581.994643 261.159016 
L 582.741964 227.880745 
L 583.489286 180.356918 
L 584.236607 153.564147 
L 584.983929 146.837775 
L 585.73125 150.334312 
L 586.478571 156.784336 
L 587.973214 171.107052 
L 588.720536 185.372956 
L 589.467857 213.814705 
L 590.215179 229.151184 
L 590.9625 247.898932 
L 591.709821 260.827745 
L 592.457143 268.742327 
L 593.204464 285.469167 
L 593.951786 299.607617 
L 594.699107 310.819117 
L 596.19375 326.36092 
L 596.941071 331.096227 
L 597.688393 332.35388 
L 598.435714 333.156059 
L 599.183036 330.965426 
L 599.930357 327.022467 
L 600.677679 326.060774 
L 602.172321 307.384963 
L 602.919643 274.838965 
L 603.666964 255.954587 
L 604.414286 229.859157 
L 605.161607 217.694317 
L 605.908929 214.216056 
L 606.65625 208.073793 
L 607.403571 208.877275 
L 608.150893 205.30605 
L 608.898214 206.439603 
L 609.645536 211.028183 
L 610.392857 223.349961 
L 611.140179 223.53081 
L 613.382143 166.238942 
L 614.129464 152.977247 
L 615.624107 131.597534 
L 616.371429 124.368615 
L 617.11875 122.472506 
L 617.866071 134.755986 
L 618.613393 129.918365 
L 619.360714 115.959246 
L 620.108036 89.886988 
L 620.855357 89.947576 
L 621.602679 99.914887 
L 622.35 104.630707 
L 623.097321 111.65153 
L 623.844643 114.997994 
L 624.591964 121.549254 
L 626.086607 157.504952 
L 626.833929 177.602465 
L 627.58125 191.279632 
L 628.328571 245.591948 
L 629.823214 282.999283 
L 631.317857 308.065844 
L 632.065179 316.368476 
L 632.8125 321.201202 
L 633.559821 323.393497 
L 634.307143 322.819044 
L 635.054464 321.00888 
L 636.549107 312.120127 
L 637.296429 302.978792 
L 638.04375 296.214172 
L 638.791071 262.066618 
L 639.538393 242.955663 
L 640.285714 217.825364 
L 641.033036 209.76192 
L 641.780357 208.899554 
L 642.527679 206.534763 
L 643.275 206.736424 
L 644.022321 202.21502 
L 644.769643 202.216354 
L 645.516964 208.896609 
L 646.264286 222.504076 
L 647.011607 224.993418 
L 647.758929 209.351179 
L 648.50625 190.951573 
L 649.253571 177.180692 
L 650.000893 165.511492 
L 650.748214 157.256126 
L 651.495536 150.368834 
L 652.242857 147.604098 
L 652.990179 146.238324 
L 653.7375 150.634386 
L 654.484821 139.297904 
L 655.979464 97.629597 
L 656.726786 94.675895 
L 658.221429 112.009544 
L 658.96875 121.232022 
L 659.716071 125.209831 
L 660.463393 132.17254 
L 662.705357 181.814467 
L 663.452679 197.2639 
L 664.2 253.965359 
L 665.694643 293.408019 
L 667.189286 317.192493 
L 667.936607 324.40803 
L 668.683929 329.658957 
L 669.43125 332.927686 
L 671.673214 337.691532 
L 672.420536 346.513007 
L 673.167857 353.226891 
L 673.915179 353.114962 
L 674.6625 340.88819 
L 675.409821 335.304483 
L 676.157143 328.764163 
L 676.904464 324.445856 
L 677.651786 325.503028 
L 678.399107 326.252213 
L 679.89375 326.224054 
L 680.641071 325.769453 
L 681.388393 326.909676 
L 682.135714 330.006155 
L 682.883036 329.21039 
L 683.630357 328.952442 
L 684.377679 322.72373 
L 685.125 315.407789 
L 686.619643 296.452305 
L 687.366964 285.457335 
L 688.114286 272.766306 
L 689.608929 240.379863 
L 690.35625 210.251064 
L 691.103571 162.32174 
L 691.850893 139.604413 
L 692.598214 135.624294 
L 693.345536 145.696474 
L 694.840179 174.515745 
L 696.334821 200.385316 
L 697.082143 220.634996 
L 698.576786 251.280585 
L 699.324107 264.384562 
L 700.071429 297.989271 
L 701.566071 328.653917 
L 703.060714 351.213259 
L 704.555357 367.444276 
L 705.302679 372.747766 
L 706.797321 380.033803 
L 707.544643 389.225668 
L 709.039286 416.181833 
L 709.786607 424.097913 
L 710.533929 423.827291 
L 711.28125 423.17852 
L 712.028571 423.486199 
L 712.775893 423.038647 
L 713.523214 421.14223 
L 714.270536 418.569436 
L 715.017857 411.258452 
L 715.765179 407.328217 
L 716.5125 401.478096 
L 717.259821 398.508897 
L 718.007143 398.802681 
L 718.754464 398.250744 
L 719.501786 398.466371 
L 720.249107 395.410068 
L 720.996429 390.880578 
L 722.491071 372.819898 
L 723.238393 361.057241 
L 723.985714 344.878509 
L 724.733036 322.811533 
L 725.480357 295.775878 
L 726.227679 263.371209 
L 726.975 215.029431 
L 727.722321 191.961108 
L 728.469643 185.845178 
L 729.216964 191.052162 
L 732.20625 217.803875 
L 732.953571 246.342632 
L 735.195536 289.63619 
L 735.942857 311.033143 
L 737.4375 335.892102 
L 738.932143 352.703349 
L 739.679464 356.202072 
L 740.426786 358.444158 
L 741.174107 359.78633 
L 741.921429 359.197141 
L 742.66875 357.421867 
L 743.416071 353.220785 
L 744.163393 350.970889 
L 744.910714 339.662032 
L 745.658036 331.647344 
L 746.405357 299.079231 
L 747.152679 281.545962 
L 747.9 255.667607 
L 748.647321 246.41108 
L 750.141964 240.133654 
L 750.889286 239.527081 
L 751.636607 237.040264 
L 752.383929 236.484324 
L 753.13125 238.834091 
L 753.878571 250.917542 
L 754.625893 252.344797 
L 755.373214 237.38817 
L 756.120536 220.075578 
L 756.867857 205.474759 
L 759.109821 172.96277 
L 759.857143 165.823429 
L 760.604464 160.920901 
L 761.351786 166.439351 
L 762.099107 157.444764 
L 762.846429 135.797077 
L 763.59375 110.513842 
L 764.341071 105.138681 
L 765.088393 110.758347 
L 765.835714 115.48058 
L 766.583036 118.564345 
L 767.330357 122.288701 
L 768.077679 129.65585 
L 769.572321 169.321896 
L 770.319643 190.054685 
L 771.066964 204.79786 
L 771.814286 255.95941 
L 772.561607 273.596192 
L 773.308929 288.43892 
L 774.803571 310.001627 
L 775.550893 316.941205 
L 776.298214 321.878922 
L 777.045536 324.324876 
L 777.792857 324.576626 
L 778.540179 321.447852 
L 779.2875 320.603609 
L 780.034821 319.215073 
L 780.782143 306.606407 
L 781.529464 301.669367 
L 782.276786 269.298133 
L 783.024107 249.147636 
L 783.771429 225.922375 
L 784.51875 216.77867 
L 785.266071 216.030839 
L 786.013393 211.553162 
L 786.760714 211.426414 
L 788.255357 202.18134 
L 789.002679 207.846364 
L 789.75 220.688493 
L 790.497321 221.29483 
L 791.244643 204.728971 
L 791.991964 184.569464 
L 793.486607 155.818179 
L 795.728571 128.385585 
L 796.475893 125.808913 
L 797.223214 136.617861 
L 797.970536 131.921755 
L 798.717857 116.542145 
L 799.465179 91.669024 
L 800.2125 90.989077 
L 800.959821 102.219562 
L 801.707143 108.005741 
L 802.454464 115.074888 
L 803.201786 118.880418 
L 803.949107 125.475682 
L 805.44375 161.011782 
L 806.191071 182.746779 
L 806.938393 199.701378 
L 807.685714 244.506935 
L 809.180357 278.37223 
L 810.675 299.826774 
L 811.422321 307.692292 
L 812.169643 312.020492 
L 812.916964 313.639648 
L 813.664286 312.794173 
L 814.411607 312.25496 
L 815.158929 308.851819 
L 815.90625 307.630237 
L 816.653571 297.799351 
L 817.400893 290.200031 
L 818.148214 256.892523 
L 818.895536 240.857154 
L 819.642857 213.935254 
L 820.390179 203.729564 
L 821.884821 197.545883 
L 822.632143 196.851394 
L 823.379464 193.338397 
L 824.126786 194.942888 
L 824.874107 200.542132 
L 825.621429 215.327073 
L 826.36875 215.823565 
L 828.610714 162.5672 
L 829.358036 149.250274 
L 830.852679 129.041714 
L 831.6 122.645484 
L 832.347321 119.401477 
L 833.094643 131.346297 
L 833.841964 125.543473 
L 834.589286 112.044774 
L 835.336607 84.678279 
L 836.083929 81.361134 
L 836.83125 88.911482 
L 837.578571 92.651067 
L 838.325893 98.590326 
L 839.073214 102.442958 
L 839.820536 108.178555 
L 840.567857 124.257805 
L 841.315179 142.969379 
L 842.0625 165.77961 
L 842.809821 184.765603 
L 843.557143 243.328424 
L 845.051786 274.487888 
L 845.799107 285.189874 
L 846.546429 293.781672 
L 847.29375 300.696211 
L 848.041071 306.548662 
L 848.788393 308.661785 
L 849.535714 308.295828 
L 850.283036 307.704576 
L 851.030357 303.355914 
L 851.777679 300.167189 
L 852.525 290.377648 
L 853.272321 283.106532 
L 854.019643 250.755678 
L 854.766964 235.937344 
L 855.514286 212.067375 
L 856.261607 201.982152 
L 857.75625 194.473006 
L 858.503571 194.376974 
L 859.250893 188.384239 
L 859.998214 187.290698 
L 860.745536 190.816821 
L 861.492857 205.059349 
L 862.240179 207.179963 
L 862.9875 190.274766 
L 863.734821 169.85805 
L 864.482143 153.942008 
L 865.229464 143.180574 
L 867.471429 119.004302 
L 868.21875 116.802771 
L 868.966071 127.974885 
L 869.713393 126.139199 
L 870.460714 112.130873 
L 871.208036 87.635953 
L 871.955357 84.360616 
L 872.702679 91.284164 
L 873.45 94.650835 
L 874.197321 96.991499 
L 874.944643 97.334171 
L 875.691964 103.761075 
L 877.186607 140.903052 
L 877.933929 163.542942 
L 878.68125 179.239949 
L 879.428571 224.738917 
L 881.670536 272.062479 
L 882.417857 282.263274 
L 883.165179 289.898746 
L 883.9125 295.830359 
L 884.659821 299.54039 
L 885.407143 300.316513 
L 886.154464 298.379755 
L 886.901786 298.214258 
L 887.649107 294.854073 
L 888.396429 285.980795 
L 889.14375 279.277471 
L 889.891071 247.107734 
L 890.638393 229.531108 
L 891.385714 205.323229 
L 892.133036 194.767149 
L 892.880357 191.140098 
L 893.627679 188.609554 
L 894.375 188.609821 
L 895.122321 183.91156 
L 895.869643 184.917288 
L 896.616964 189.561806 
L 897.364286 204.297746 
L 898.111607 207.185238 
L 900.353571 155.5246 
L 901.100893 145.373392 
L 902.595536 132.293192 
L 903.342857 126.962343 
L 904.090179 128.015544 
L 904.8375 136.808182 
L 905.584821 132.646229 
L 906.332143 118.884697 
L 907.079464 94.301461 
L 907.826786 88.160788 
L 908.574107 95.571921 
L 910.06875 107.548923 
L 910.816071 109.381962 
L 911.563393 115.42379 
L 912.310714 129.667128 
L 913.058036 146.63715 
L 913.805357 170.700149 
L 914.552679 186.454583 
L 915.3 226.892021 
L 916.794643 261.441655 
L 917.541964 275.197225 
L 918.289286 286.197521 
L 919.783929 302.089754 
L 920.53125 307.206669 
L 921.278571 309.770678 
L 922.025893 313.790942 
L 922.773214 318.847649 
L 923.520536 325.452528 
L 924.267857 335.097147 
L 925.015179 338.26699 
L 925.7625 328.092569 
L 927.257143 315.907143 
L 928.004464 312.688247 
L 928.751786 312.864304 
L 930.246429 309.931372 
L 930.99375 309.429576 
L 931.741071 310.681974 
L 933.235714 315.76527 
L 933.983036 316.078459 
L 934.730357 312.593046 
L 935.477679 306.177256 
L 936.225 298.707075 
L 936.972321 289.955814 
L 938.466964 268.81959 
L 939.214286 256.177993 
L 939.961607 240.159689 
L 940.708929 221.672342 
L 941.45625 189.301405 
L 942.203571 148.664441 
L 942.950893 123.555128 
L 943.698214 120.838542 
L 944.445536 130.085207 
L 946.6875 168.978341 
L 947.434821 181.480804 
L 948.182143 200.185308 
L 949.676786 229.604092 
L 950.424107 240.729 
L 951.171429 287.975883 
L 952.666071 318.131877 
L 953.413393 331.160468 
L 954.160714 341.661994 
L 955.655357 355.205939 
L 956.402679 359.894954 
L 957.15 362.209276 
L 957.897321 366.918948 
L 960.139286 401.806924 
L 960.886607 410.678078 
L 961.633929 409.456384 
L 963.128571 407.60514 
L 963.875893 406.600079 
L 964.623214 406.958627 
L 965.370536 405.206115 
L 966.117857 398.071465 
L 967.6125 389.023536 
L 968.359821 386.922071 
L 969.107143 388.175044 
L 969.854464 390.733203 
L 970.601786 390.64969 
L 971.349107 387.482023 
L 972.096429 381.921611 
L 973.591071 365.039176 
L 975.085714 336.914598 
L 975.833036 316.665996 
L 977.327679 257.109803 
L 978.075 209.040422 
L 978.822321 181.956258 
L 979.569643 172.904809 
L 980.316964 176.485609 
L 981.811607 191.02426 
L 983.30625 210.093048 
L 984.053571 236.160288 
L 984.800893 250.230186 
L 985.548214 267.084298 
L 986.295536 280.77457 
L 987.042857 304.575576 
L 988.5375 332.269689 
L 989.284821 342.016129 
L 990.032143 349.003519 
L 990.779464 354.08506 
L 991.526786 357.406094 
L 992.274107 359.720734 
L 993.76875 355.216499 
L 994.516071 352.505546 
L 995.263393 348.542822 
L 996.010714 335.579538 
L 996.758036 326.306038 
L 997.505357 296.415679 
L 998.252679 277.440636 
L 999 249.775616 
L 999.747321 241.581197 
L 1000.494643 240.238636 
L 1001.241964 238.14576 
L 1001.989286 238.199657 
L 1002.736607 233.788601 
L 1003.483929 231.063846 
L 1004.23125 235.131768 
L 1004.978571 247.361085 
L 1005.725893 248.488665 
L 1006.473214 233.419463 
L 1007.967857 199.508265 
L 1008.715179 186.612948 
L 1010.957143 159.384683 
L 1011.704464 154.335283 
L 1012.451786 162.568298 
L 1013.199107 157.134151 
L 1014.69375 113.672602 
L 1015.441071 105.854176 
L 1016.188393 109.030772 
L 1016.935714 112.914971 
L 1017.683036 115.950616 
L 1018.430357 118.113222 
L 1019.177679 125.280055 
L 1020.672321 164.580113 
L 1021.419643 186.606329 
L 1022.166964 202.133796 
L 1022.914286 256.729263 
L 1024.408929 288.474714 
L 1025.15625 300.721651 
L 1025.903571 309.644536 
L 1026.650893 316.915478 
L 1027.398214 321.769877 
L 1028.145536 325.287482 
L 1028.892857 323.672052 
L 1029.640179 322.323497 
L 1030.3875 319.068458 
L 1031.134821 317.307983 
L 1032.629464 298.701482 
L 1033.376786 267.45045 
L 1034.124107 251.050242 
L 1034.871429 225.768761 
L 1035.61875 216.366954 
L 1036.366071 214.257638 
L 1037.113393 211.517367 
L 1037.860714 211.103332 
L 1038.608036 206.545918 
L 1039.355357 205.49867 
L 1040.102679 211.459674 
L 1040.85 222.714695 
L 1041.597321 226.042041 
L 1043.091964 188.889936 
L 1043.839286 170.322287 
L 1044.586607 158.457173 
L 1046.08125 138.804666 
L 1046.828571 128.274765 
L 1047.575893 125.08095 
L 1048.323214 139.337064 
L 1049.070536 135.900109 
L 1049.817857 124.161311 
L 1050.565179 92.3908 
L 1051.3125 84.769017 
L 1052.059821 92.951798 
L 1052.807143 95.928478 
L 1053.554464 99.985798 
L 1054.301786 99.304548 
L 1055.049107 107.609131 
L 1056.54375 145.059915 
L 1057.291071 169.857906 
L 1058.038393 187.187944 
L 1058.785714 252.41187 
L 1059.533036 271.034636 
L 1060.280357 286.340144 
L 1061.775 306.919114 
L 1062.522321 315.103651 
L 1064.016964 322.41207 
L 1064.764286 320.18668 
L 1065.511607 318.389148 
L 1066.258929 315.676636 
L 1067.00625 314.879926 
L 1067.753571 307.047134 
L 1068.500893 296.788543 
L 1069.248214 272.054392 
L 1069.995536 257.739866 
L 1070.742857 234.083083 
L 1071.490179 227.678509 
L 1072.2375 225.372777 
L 1072.984821 221.127219 
L 1073.732143 219.822545 
L 1074.479464 215.950743 
L 1075.226786 214.593979 
L 1075.974107 219.676361 
L 1076.721429 232.034971 
L 1077.46875 232.147012 
L 1078.963393 192.810585 
L 1080.458036 161.640039 
L 1082.7 130.296924 
L 1083.447321 126.942291 
L 1084.194643 141.526301 
L 1084.941964 139.740191 
L 1085.689286 127.714413 
L 1086.436607 100.946989 
L 1087.183929 92.975576 
L 1087.93125 96.348106 
L 1088.678571 101.760477 
L 1089.425893 108.881817 
L 1090.173214 110.016509 
L 1090.920536 116.415274 
L 1093.909821 193.567139 
L 1094.657143 241.794874 
L 1096.151786 276.020873 
L 1097.646429 298.326967 
L 1099.141071 310.213283 
L 1099.888393 313.17069 
L 1101.383036 312.758471 
L 1102.130357 311.124681 
L 1102.877679 312.675717 
L 1103.625 302.143364 
L 1104.372321 295.655493 
L 1105.119643 266.934871 
L 1105.866964 252.219035 
L 1106.614286 227.879041 
L 1107.361607 218.742797 
L 1108.108929 211.357104 
L 1108.85625 206.149698 
L 1109.603571 205.745268 
L 1110.350893 198.601823 
L 1111.098214 197.753106 
L 1111.845536 201.240335 
L 1112.592857 214.651744 
L 1113.340179 215.680983 
L 1115.582143 156.013846 
L 1116.329464 141.658015 
L 1117.824107 121.314416 
L 1118.571429 114.820326 
L 1119.31875 114.732729 
L 1120.066071 126.830793 
L 1120.813393 125.267566 
L 1121.560714 113.617874 
L 1122.308036 91.680579 
L 1123.055357 81.870391 
L 1124.55 93.735916 
L 1125.297321 97.319178 
L 1126.044643 94.182492 
L 1126.791964 100.337676 
L 1128.286607 136.614649 
L 1129.033929 161.864122 
L 1129.78125 181.571111 
L 1130.528571 216.211698 
L 1132.023214 250.266617 
L 1132.770536 263.726658 
L 1133.517857 274.15051 
L 1135.0125 287.3325 
L 1135.759821 290.817031 
L 1136.507143 290.824009 
L 1137.254464 290.386186 
L 1138.001786 290.125272 
L 1138.749107 291.436041 
L 1139.496429 279.408067 
L 1140.24375 273.205534 
L 1140.991071 242.093841 
L 1141.738393 225.061158 
L 1142.485714 196.676856 
L 1143.233036 187.931465 
L 1144.727679 175.792711 
L 1145.475 174.827385 
L 1146.222321 170.335187 
L 1146.969643 170.643769 
L 1147.716964 179.825741 
L 1148.464286 193.722323 
L 1149.211607 194.296437 
L 1151.453571 143.546921 
L 1152.200893 130.974347 
L 1152.948214 122.147669 
L 1153.695536 115.921225 
L 1154.442857 111.711266 
L 1155.190179 115.259812 
L 1155.9375 129.213994 
L 1156.684821 123.550222 
L 1157.432143 114.063732 
L 1158.179464 86.488064 
L 1158.926786 78.12 
L 1159.674107 85.133045 
L 1160.421429 89.391359 
L 1161.16875 94.506898 
L 1161.916071 95.689914 
L 1162.663393 103.525703 
L 1164.158036 136.251063 
L 1164.905357 157.001195 
L 1165.652679 172.39976 
L 1165.652679 172.39976 
" clip-path="url(#p2430cf66c7)" style="fill: none; stroke: #d60000; stroke-opacity: 0.8; stroke-width: 1.5; stroke-linecap: square"/>
   </g>
   <g id="patch_3">
    <path d="M 162 448.56 
L 162 60.48 
" style="fill: none; stroke: #000000; stroke-width: 1.2; stroke-linejoin: miter; stroke-linecap: square"/>
   </g>
   <g id="patch_4">
    <path d="M 1166.4 448.56 
L 1166.4 60.48 
" style="fill: none; stroke: #000000; stroke-width: 1.2; stroke-linejoin: miter; stroke-linecap: square"/>
   </g>
   <g id="patch_5">
    <path d="M 162 448.56 
L 1166.4 448.56 
" style="fill: none; stroke: #000000; stroke-width: 1.2; stroke-linejoin: miter; stroke-linecap: square"/>
   </g>
   <g id="patch_6">
    <path d="M 162 60.48 
L 1166.4 60.48 
" style="fill: none; stroke: #000000; stroke-width: 1.2; stroke-linejoin: miter; stroke-linecap: square"/>
   </g>
   <g id="legend_1">
    <g id="patch_7">
     <path d="M 609.847266 41.820913 
L 718.552734 41.820913 
Q 721.552734 41.820913 721.552734 38.820913 
L 721.552734 1.1256 
Q 721.552734 -1.8744 718.552734 -1.8744 
L 609.847266 -1.8744 
Q 606.847266 -1.8744 606.847266 1.1256 
L 606.847266 38.820913 
Q 606.847266 41.820913 609.847266 41.820913 
z
" style="fill: #e5e5e5; opacity: 0.8; stroke: #cccccc; stroke-width: 0.5; stroke-linejoin: miter"/>
    </g>
    <g id="text_37">
     <!-- SCENARIOS -->
     <g transform="translate(632.049219 11.724038) scale(0.1 -0.1)">
      <defs>
       <path id="DejaVuSerif-53" d="M 594 225 
L 594 1288 
L 953 1284 
Q 969 753 1261 498 
Q 1553 244 2150 244 
Q 2706 244 2998 464 
Q 3291 684 3291 1106 
Q 3291 1444 3114 1625 
Q 2938 1806 2369 1978 
L 1753 2163 
Q 1084 2366 811 2669 
Q 538 2972 538 3500 
Q 538 4094 959 4422 
Q 1381 4750 2144 4750 
Q 2469 4750 2856 4679 
Q 3244 4609 3681 4475 
L 3681 3481 
L 3328 3481 
Q 3275 3975 2998 4195 
Q 2722 4416 2156 4416 
Q 1663 4416 1405 4214 
Q 1147 4013 1147 3628 
Q 1147 3294 1340 3103 
Q 1534 2913 2163 2725 
L 2741 2553 
Q 3375 2363 3645 2067 
Q 3916 1772 3916 1275 
Q 3916 597 3481 253 
Q 3047 -91 2188 -91 
Q 1803 -91 1404 -12 
Q 1006 66 594 225 
z
" transform="scale(0.015625)"/>
       <path id="DejaVuSerif-43" d="M 4513 1234 
Q 4306 581 3820 245 
Q 3334 -91 2591 -91 
Q 2134 -91 1743 65 
Q 1353 222 1050 525 
Q 700 875 529 1320 
Q 359 1766 359 2328 
Q 359 3416 987 4083 
Q 1616 4750 2644 4750 
Q 3025 4750 3456 4650 
Q 3888 4550 4384 4347 
L 4384 3272 
L 4031 3272 
Q 3916 3859 3567 4137 
Q 3219 4416 2591 4416 
Q 1844 4416 1459 3886 
Q 1075 3356 1075 2328 
Q 1075 1303 1459 773 
Q 1844 244 2591 244 
Q 3113 244 3450 492 
Q 3788 741 3938 1234 
L 4513 1234 
z
" transform="scale(0.015625)"/>
       <path id="DejaVuSerif-45" d="M 353 0 
L 353 331 
L 947 331 
L 947 4331 
L 353 4331 
L 353 4666 
L 4109 4666 
L 4109 3628 
L 3725 3628 
L 3725 4281 
L 1581 4281 
L 1581 2719 
L 3109 2719 
L 3109 3303 
L 3494 3303 
L 3494 1753 
L 3109 1753 
L 3109 2338 
L 1581 2338 
L 1581 384 
L 3775 384 
L 3775 1038 
L 4159 1038 
L 4159 0 
L 353 0 
z
" transform="scale(0.015625)"/>
       <path id="DejaVuSerif-4e" d="M 313 0 
L 313 331 
L 941 331 
L 941 4331 
L 313 4331 
L 313 4666 
L 1509 4666 
L 4306 984 
L 4306 4331 
L 3681 4331 
L 3681 4666 
L 5319 4666 
L 5319 4331 
L 4691 4331 
L 4691 -91 
L 4313 -91 
L 1325 3841 
L 1325 331 
L 1953 331 
L 1953 0 
L 313 0 
z
" transform="scale(0.015625)"/>
       <path id="DejaVuSerif-41" d="M 1281 1691 
L 2994 1691 
L 2138 3909 
L 1281 1691 
z
M -38 0 
L -38 331 
L 372 331 
L 2034 4666 
L 2559 4666 
L 4225 331 
L 4684 331 
L 4684 0 
L 2988 0 
L 2988 331 
L 3506 331 
L 3116 1356 
L 1153 1356 
L 763 331 
L 1275 331 
L 1275 0 
L -38 0 
z
" transform="scale(0.015625)"/>
       <path id="DejaVuSerif-52" d="M 3066 2316 
Q 3284 2256 3442 2114 
Q 3600 1972 3725 1716 
L 4403 331 
L 4972 331 
L 4972 0 
L 3872 0 
L 3144 1484 
Q 2934 1916 2759 2042 
Q 2584 2169 2278 2169 
L 1581 2169 
L 1581 331 
L 2241 331 
L 2241 0 
L 353 0 
L 353 331 
L 947 331 
L 947 4331 
L 353 4331 
L 353 4666 
L 2719 4666 
Q 3400 4666 3770 4341 
Q 4141 4016 4141 3419 
Q 4141 2938 3870 2661 
Q 3600 2384 3066 2316 
z
M 1581 2503 
L 2503 2503 
Q 2975 2503 3200 2726 
Q 3425 2950 3425 3419 
Q 3425 3888 3200 4109 
Q 2975 4331 2503 4331 
L 1581 4331 
L 1581 2503 
z
" transform="scale(0.015625)"/>
       <path id="DejaVuSerif-49" d="M 1581 331 
L 2175 331 
L 2175 0 
L 353 0 
L 353 331 
L 947 331 
L 947 4331 
L 353 4331 
L 353 4666 
L 2175 4666 
L 2175 4331 
L 1581 4331 
L 1581 331 
z
" transform="scale(0.015625)"/>
      </defs>
      <use xlink:href="#DejaVuSerif-53"/>
      <use xlink:href="#DejaVuSerif-43" x="68.505859"/>
      <use xlink:href="#DejaVuSerif-45" x="145.019531"/>
      <use xlink:href="#DejaVuSerif-4e" x="218.017578"/>
      <use xlink:href="#DejaVuSerif-41" x="305.517578"/>
      <use xlink:href="#DejaVuSerif-52" x="377.734375"/>
      <use xlink:href="#DejaVuSerif-49" x="453.027344"/>
      <use xlink:href="#DejaVuSerif-4f" x="492.529297"/>
      <use xlink:href="#DejaVuSerif-53" x="574.511719"/>
     </g>
    </g>
    <g id="line2d_72">
     <path d="M 612.847266 27.451381 
L 627.847266 27.451381 
L 642.847266 27.451381 
" style="fill: none; stroke: #d60000; stroke-opacity: 0.8; stroke-width: 1.5; stroke-linecap: square"/>
    </g>
    <g id="text_38">
     <!-- V1A1F2 -->
     <g transform="translate(654.847266 32.701381) scale(0.15 -0.15)">
      <defs>
       <path id="DejaVuSerif-56" d="M 1119 4331 
L 2497 750 
L 3872 4331 
L 3347 4331 
L 3347 4666 
L 4716 4666 
L 4716 4331 
L 4263 4331 
L 2597 0 
L 2059 0 
L 403 4331 
L -63 4331 
L -63 4666 
L 1638 4666 
L 1638 4331 
L 1119 4331 
z
" transform="scale(0.015625)"/>
       <path id="DejaVuSerif-46" d="M 353 0 
L 353 331 
L 947 331 
L 947 4331 
L 353 4331 
L 353 4666 
L 4172 4666 
L 4172 3628 
L 3788 3628 
L 3788 4281 
L 1581 4281 
L 1581 2719 
L 3175 2719 
L 3175 3303 
L 3559 3303 
L 3559 1753 
L 3175 1753 
L 3175 2338 
L 1581 2338 
L 1581 331 
L 2328 331 
L 2328 0 
L 353 0 
z
" transform="scale(0.015625)"/>
      </defs>
      <use xlink:href="#DejaVuSerif-56"/>
      <use xlink:href="#DejaVuSerif-31" x="72.216797"/>
      <use xlink:href="#DejaVuSerif-41" x="135.839844"/>
      <use xlink:href="#DejaVuSerif-31" x="208.056641"/>
      <use xlink:href="#DejaVuSerif-46" x="271.679688"/>
      <use xlink:href="#DejaVuSerif-32" x="341.064453"/>
     </g>
    </g>
   </g>
  </g>
 </g>
 <defs>
  <clipPath id="p2430cf66c7">
   <rect x="162" y="60.48" width="1004.4" height="388.08"/>
  </clipPath>
 </defs>
</svg>
