<?xml version="1.0" encoding="utf-8" standalone="no"?>
<!DOCTYPE svg PUBLIC "-//W3C//DTD SVG 1.1//EN"
  "http://www.w3.org/Graphics/SVG/1.1/DTD/svg11.dtd">
<svg xmlns:xlink="http://www.w3.org/1999/xlink" width="1296pt" height="504pt" viewBox="0 0 1296 504" xmlns="http://www.w3.org/2000/svg" version="1.1">
 <metadata>
  <rdf:RDF xmlns:dc="http://purl.org/dc/elements/1.1/" xmlns:cc="http://creativecommons.org/ns#" xmlns:rdf="http://www.w3.org/1999/02/22-rdf-syntax-ns#">
   <cc:Work>
    <dc:type rdf:resource="http://purl.org/dc/dcmitype/StillImage"/>
    <dc:date>2024-10-27T19:22:07.364979</dc:date>
    <dc:format>image/svg+xml</dc:format>
    <dc:creator>
     <cc:Agent>
      <dc:title>Matplotlib v3.7.2, https://matplotlib.org/</dc:title>
     </cc:Agent>
    </dc:creator>
   </cc:Work>
  </rdf:RDF>
 </metadata>
 <defs>
  <style type="text/css">*{stroke-linejoin: round; stroke-linecap: butt}</style>
 </defs>
 <g id="figure_1">
  <g id="patch_1">
   <path d="M 0 504 
L 1296 504 
L 1296 0 
L 0 0 
z
" style="fill: #ffffff"/>
  </g>
  <g id="axes_1">
   <g id="patch_2">
    <path d="M 162 448.56 
L 1166.4 448.56 
L 1166.4 60.48 
L 162 60.48 
z
" style="fill: #e5e5e5"/>
   </g>
   <g id="matplotlib.axis_1">
    <g id="xtick_1">
     <g id="line2d_1">
      <defs>
       <path id="maaaeb28145" d="M 0 0 
L 0 3.5 
" style="stroke: #000000; stroke-width: 0.8"/>
      </defs>
      <g>
       <use xlink:href="#maaaeb28145" x="262.44" y="448.56" style="stroke: #000000; stroke-width: 0.8"/>
      </g>
     </g>
     <g id="text_1">
      <!-- AC-RO -->
      <g transform="translate(236.954062 466.957656) scale(0.15 -0.15)">
       <defs>
        <path id="DejaVuSerif-41" d="M 1281 1691 
L 2994 1691 
L 2138 3909 
L 1281 1691 
z
M -38 0 
L -38 331 
L 372 331 
L 2034 4666 
L 2559 4666 
L 4225 331 
L 4684 331 
L 4684 0 
L 2988 0 
L 2988 331 
L 3506 331 
L 3116 1356 
L 1153 1356 
L 763 331 
L 1275 331 
L 1275 0 
L -38 0 
z
" transform="scale(0.015625)"/>
        <path id="DejaVuSerif-43" d="M 4513 1234 
Q 4306 581 3820 245 
Q 3334 -91 2591 -91 
Q 2134 -91 1743 65 
Q 1353 222 1050 525 
Q 700 875 529 1320 
Q 359 1766 359 2328 
Q 359 3416 987 4083 
Q 1616 4750 2644 4750 
Q 3025 4750 3456 4650 
Q 3888 4550 4384 4347 
L 4384 3272 
L 4031 3272 
Q 3916 3859 3567 4137 
Q 3219 4416 2591 4416 
Q 1844 4416 1459 3886 
Q 1075 3356 1075 2328 
Q 1075 1303 1459 773 
Q 1844 244 2591 244 
Q 3113 244 3450 492 
Q 3788 741 3938 1234 
L 4513 1234 
z
" transform="scale(0.015625)"/>
        <path id="DejaVuSerif-2d" d="M 281 1959 
L 1881 1959 
L 1881 1472 
L 281 1472 
L 281 1959 
z
" transform="scale(0.015625)"/>
        <path id="DejaVuSerif-52" d="M 3066 2316 
Q 3284 2256 3442 2114 
Q 3600 1972 3725 1716 
L 4403 331 
L 4972 331 
L 4972 0 
L 3872 0 
L 3144 1484 
Q 2934 1916 2759 2042 
Q 2584 2169 2278 2169 
L 1581 2169 
L 1581 331 
L 2241 331 
L 2241 0 
L 353 0 
L 353 331 
L 947 331 
L 947 4331 
L 353 4331 
L 353 4666 
L 2719 4666 
Q 3400 4666 3770 4341 
Q 4141 4016 4141 3419 
Q 4141 2938 3870 2661 
Q 3600 2384 3066 2316 
z
M 1581 2503 
L 2503 2503 
Q 2975 2503 3200 2726 
Q 3425 2950 3425 3419 
Q 3425 3888 3200 4109 
Q 2975 4331 2503 4331 
L 1581 4331 
L 1581 2503 
z
" transform="scale(0.015625)"/>
        <path id="DejaVuSerif-4f" d="M 2625 244 
Q 3391 244 3781 770 
Q 4172 1297 4172 2328 
Q 4172 3363 3781 3889 
Q 3391 4416 2625 4416 
Q 1856 4416 1465 3889 
Q 1075 3363 1075 2328 
Q 1075 1297 1465 770 
Q 1856 244 2625 244 
z
M 2625 -91 
Q 2150 -91 1751 65 
Q 1353 222 1050 525 
Q 700 875 529 1319 
Q 359 1763 359 2328 
Q 359 2894 529 3339 
Q 700 3784 1050 4134 
Q 1356 4441 1750 4595 
Q 2144 4750 2625 4750 
Q 3641 4750 4266 4084 
Q 4891 3419 4891 2328 
Q 4891 1769 4719 1320 
Q 4547 872 4197 525 
Q 3891 219 3497 64 
Q 3103 -91 2625 -91 
z
" transform="scale(0.015625)"/>
       </defs>
       <use xlink:href="#DejaVuSerif-41"/>
       <use xlink:href="#DejaVuSerif-43" x="72.216797"/>
       <use xlink:href="#DejaVuSerif-2d" x="148.730469"/>
       <use xlink:href="#DejaVuSerif-52" x="182.519531"/>
       <use xlink:href="#DejaVuSerif-4f" x="257.8125"/>
      </g>
     </g>
    </g>
    <g id="xtick_2">
     <g id="line2d_2">
      <g>
       <use xlink:href="#maaaeb28145" x="463.32" y="448.56" style="stroke: #000000; stroke-width: 0.8"/>
      </g>
     </g>
     <g id="text_2">
      <!-- Nordeste -->
      <g transform="translate(428.115703 466.957656) scale(0.15 -0.15)">
       <defs>
        <path id="DejaVuSerif-4e" d="M 313 0 
L 313 331 
L 941 331 
L 941 4331 
L 313 4331 
L 313 4666 
L 1509 4666 
L 4306 984 
L 4306 4331 
L 3681 4331 
L 3681 4666 
L 5319 4666 
L 5319 4331 
L 4691 4331 
L 4691 -91 
L 4313 -91 
L 1325 3841 
L 1325 331 
L 1953 331 
L 1953 0 
L 313 0 
z
" transform="scale(0.015625)"/>
        <path id="DejaVuSerif-6f" d="M 1925 219 
Q 2388 219 2623 584 
Q 2859 950 2859 1663 
Q 2859 2375 2623 2739 
Q 2388 3103 1925 3103 
Q 1463 3103 1227 2739 
Q 991 2375 991 1663 
Q 991 950 1228 584 
Q 1466 219 1925 219 
z
M 1925 -91 
Q 1200 -91 759 389 
Q 319 869 319 1663 
Q 319 2456 758 2934 
Q 1197 3413 1925 3413 
Q 2653 3413 3092 2934 
Q 3531 2456 3531 1663 
Q 3531 869 3092 389 
Q 2653 -91 1925 -91 
z
" transform="scale(0.015625)"/>
        <path id="DejaVuSerif-72" d="M 3059 3328 
L 3059 2497 
L 2728 2497 
Q 2713 2744 2591 2866 
Q 2469 2988 2234 2988 
Q 1809 2988 1582 2694 
Q 1356 2400 1356 1850 
L 1356 331 
L 2022 331 
L 2022 0 
L 263 0 
L 263 331 
L 781 331 
L 781 2994 
L 231 2994 
L 231 3322 
L 1356 3322 
L 1356 2731 
Q 1525 3078 1790 3245 
Q 2056 3413 2438 3413 
Q 2578 3413 2733 3391 
Q 2888 3369 3059 3328 
z
" transform="scale(0.015625)"/>
        <path id="DejaVuSerif-64" d="M 3359 331 
L 3909 331 
L 3909 0 
L 2784 0 
L 2784 519 
Q 2616 206 2355 57 
Q 2094 -91 1709 -91 
Q 1097 -91 708 395 
Q 319 881 319 1663 
Q 319 2444 706 2928 
Q 1094 3413 1709 3413 
Q 2094 3413 2355 3264 
Q 2616 3116 2784 2803 
L 2784 4531 
L 2241 4531 
L 2241 4863 
L 3359 4863 
L 3359 331 
z
M 2784 1497 
L 2784 1825 
Q 2784 2422 2554 2737 
Q 2325 3053 1888 3053 
Q 1444 3053 1217 2703 
Q 991 2353 991 1663 
Q 991 975 1217 622 
Q 1444 269 1888 269 
Q 2325 269 2554 583 
Q 2784 897 2784 1497 
z
" transform="scale(0.015625)"/>
        <path id="DejaVuSerif-65" d="M 3469 1600 
L 991 1600 
L 991 1575 
Q 991 903 1244 561 
Q 1497 219 1991 219 
Q 2369 219 2611 417 
Q 2853 616 2950 1006 
L 3413 1006 
Q 3275 459 2904 184 
Q 2534 -91 1931 -91 
Q 1203 -91 761 389 
Q 319 869 319 1663 
Q 319 2450 753 2931 
Q 1188 3413 1894 3413 
Q 2647 3413 3050 2948 
Q 3453 2484 3469 1600 
z
M 2791 1931 
Q 2772 2513 2545 2808 
Q 2319 3103 1894 3103 
Q 1497 3103 1269 2806 
Q 1041 2509 991 1931 
L 2791 1931 
z
" transform="scale(0.015625)"/>
        <path id="DejaVuSerif-73" d="M 359 184 
L 359 959 
L 691 959 
Q 703 588 923 403 
Q 1144 219 1575 219 
Q 1963 219 2166 364 
Q 2369 509 2369 788 
Q 2369 1006 2220 1140 
Q 2072 1275 1594 1428 
L 1178 1569 
Q 750 1706 558 1912 
Q 366 2119 366 2438 
Q 366 2894 700 3153 
Q 1034 3413 1625 3413 
Q 1888 3413 2178 3344 
Q 2469 3275 2778 3144 
L 2778 2419 
L 2447 2419 
Q 2434 2741 2221 2922 
Q 2009 3103 1644 3103 
Q 1281 3103 1095 2975 
Q 909 2847 909 2591 
Q 909 2381 1050 2254 
Q 1191 2128 1613 1997 
L 2069 1856 
Q 2541 1709 2748 1489 
Q 2956 1269 2956 922 
Q 2956 450 2595 179 
Q 2234 -91 1600 -91 
Q 1278 -91 972 -22 
Q 666 47 359 184 
z
" transform="scale(0.015625)"/>
        <path id="DejaVuSerif-74" d="M 691 2988 
L 184 2988 
L 184 3322 
L 691 3322 
L 691 4353 
L 1269 4353 
L 1269 3322 
L 2350 3322 
L 2350 2988 
L 1269 2988 
L 1269 878 
Q 1269 456 1350 337 
Q 1431 219 1650 219 
Q 1875 219 1978 351 
Q 2081 484 2088 781 
L 2522 781 
Q 2497 328 2275 118 
Q 2053 -91 1600 -91 
Q 1103 -91 897 129 
Q 691 350 691 878 
L 691 2988 
z
" transform="scale(0.015625)"/>
       </defs>
       <use xlink:href="#DejaVuSerif-4e"/>
       <use xlink:href="#DejaVuSerif-6f" x="87.5"/>
       <use xlink:href="#DejaVuSerif-72" x="147.705078"/>
       <use xlink:href="#DejaVuSerif-64" x="195.507812"/>
       <use xlink:href="#DejaVuSerif-65" x="259.521484"/>
       <use xlink:href="#DejaVuSerif-73" x="318.701172"/>
       <use xlink:href="#DejaVuSerif-74" x="370.019531"/>
       <use xlink:href="#DejaVuSerif-65" x="410.205078"/>
      </g>
     </g>
    </g>
    <g id="xtick_3">
     <g id="line2d_3">
      <g>
       <use xlink:href="#maaaeb28145" x="664.2" y="448.56" style="stroke: #000000; stroke-width: 0.8"/>
      </g>
     </g>
     <g id="text_3">
      <!-- Norte -->
      <g transform="translate(642.084375 466.957656) scale(0.15 -0.15)">
       <use xlink:href="#DejaVuSerif-4e"/>
       <use xlink:href="#DejaVuSerif-6f" x="87.5"/>
       <use xlink:href="#DejaVuSerif-72" x="147.705078"/>
       <use xlink:href="#DejaVuSerif-74" x="195.507812"/>
       <use xlink:href="#DejaVuSerif-65" x="235.693359"/>
      </g>
     </g>
    </g>
    <g id="xtick_4">
     <g id="line2d_4">
      <g>
       <use xlink:href="#maaaeb28145" x="865.08" y="448.56" style="stroke: #000000; stroke-width: 0.8"/>
      </g>
     </g>
     <g id="text_4">
      <!-- SE-CO -->
      <g transform="translate(839.904609 466.957656) scale(0.15 -0.15)">
       <defs>
        <path id="DejaVuSerif-53" d="M 594 225 
L 594 1288 
L 953 1284 
Q 969 753 1261 498 
Q 1553 244 2150 244 
Q 2706 244 2998 464 
Q 3291 684 3291 1106 
Q 3291 1444 3114 1625 
Q 2938 1806 2369 1978 
L 1753 2163 
Q 1084 2366 811 2669 
Q 538 2972 538 3500 
Q 538 4094 959 4422 
Q 1381 4750 2144 4750 
Q 2469 4750 2856 4679 
Q 3244 4609 3681 4475 
L 3681 3481 
L 3328 3481 
Q 3275 3975 2998 4195 
Q 2722 4416 2156 4416 
Q 1663 4416 1405 4214 
Q 1147 4013 1147 3628 
Q 1147 3294 1340 3103 
Q 1534 2913 2163 2725 
L 2741 2553 
Q 3375 2363 3645 2067 
Q 3916 1772 3916 1275 
Q 3916 597 3481 253 
Q 3047 -91 2188 -91 
Q 1803 -91 1404 -12 
Q 1006 66 594 225 
z
" transform="scale(0.015625)"/>
        <path id="DejaVuSerif-45" d="M 353 0 
L 353 331 
L 947 331 
L 947 4331 
L 353 4331 
L 353 4666 
L 4109 4666 
L 4109 3628 
L 3725 3628 
L 3725 4281 
L 1581 4281 
L 1581 2719 
L 3109 2719 
L 3109 3303 
L 3494 3303 
L 3494 1753 
L 3109 1753 
L 3109 2338 
L 1581 2338 
L 1581 384 
L 3775 384 
L 3775 1038 
L 4159 1038 
L 4159 0 
L 353 0 
z
" transform="scale(0.015625)"/>
       </defs>
       <use xlink:href="#DejaVuSerif-53"/>
       <use xlink:href="#DejaVuSerif-45" x="68.505859"/>
       <use xlink:href="#DejaVuSerif-2d" x="143.378906"/>
       <use xlink:href="#DejaVuSerif-43" x="177.167969"/>
       <use xlink:href="#DejaVuSerif-4f" x="253.681641"/>
      </g>
     </g>
    </g>
    <g id="xtick_5">
     <g id="line2d_5">
      <g>
       <use xlink:href="#maaaeb28145" x="1065.96" y="448.56" style="stroke: #000000; stroke-width: 0.8"/>
      </g>
     </g>
     <g id="text_5">
      <!-- Sul -->
      <g transform="translate(1053.593203 466.957656) scale(0.15 -0.15)">
       <defs>
        <path id="DejaVuSerif-75" d="M 2266 3322 
L 3341 3322 
L 3341 331 
L 3884 331 
L 3884 0 
L 2766 0 
L 2766 588 
Q 2606 256 2353 82 
Q 2100 -91 1766 -91 
Q 1213 -91 952 223 
Q 691 538 691 1209 
L 691 2988 
L 172 2988 
L 172 3322 
L 1269 3322 
L 1269 1388 
Q 1269 781 1417 556 
Q 1566 331 1947 331 
Q 2347 331 2556 625 
Q 2766 919 2766 1478 
L 2766 2988 
L 2266 2988 
L 2266 3322 
z
" transform="scale(0.015625)"/>
        <path id="DejaVuSerif-6c" d="M 1313 331 
L 1856 331 
L 1856 0 
L 184 0 
L 184 331 
L 738 331 
L 738 4531 
L 184 4531 
L 184 4863 
L 1313 4863 
L 1313 331 
z
" transform="scale(0.015625)"/>
       </defs>
       <use xlink:href="#DejaVuSerif-53"/>
       <use xlink:href="#DejaVuSerif-75" x="68.505859"/>
       <use xlink:href="#DejaVuSerif-6c" x="132.910156"/>
      </g>
     </g>
    </g>
    <g id="text_6">
     <!-- Region -->
     <g transform="translate(632.241563 487.498438) scale(0.18 -0.18)">
      <defs>
       <path id="DejaVuSerif-67" d="M 3359 2988 
L 3359 72 
Q 3359 -644 2965 -1033 
Q 2572 -1422 1844 -1422 
Q 1516 -1422 1216 -1362 
Q 916 -1303 641 -1184 
L 641 -488 
L 941 -488 
Q 997 -813 1206 -963 
Q 1416 -1113 1806 -1113 
Q 2313 -1113 2548 -827 
Q 2784 -541 2784 72 
L 2784 519 
Q 2616 206 2355 57 
Q 2094 -91 1709 -91 
Q 1097 -91 708 395 
Q 319 881 319 1663 
Q 319 2444 706 2928 
Q 1094 3413 1709 3413 
Q 2094 3413 2355 3264 
Q 2616 3116 2784 2803 
L 2784 3322 
L 3909 3322 
L 3909 2988 
L 3359 2988 
z
M 2784 1825 
Q 2784 2422 2554 2737 
Q 2325 3053 1888 3053 
Q 1444 3053 1217 2703 
Q 991 2353 991 1663 
Q 991 975 1217 622 
Q 1444 269 1888 269 
Q 2325 269 2554 583 
Q 2784 897 2784 1497 
L 2784 1825 
z
" transform="scale(0.015625)"/>
       <path id="DejaVuSerif-69" d="M 622 4353 
Q 622 4497 726 4603 
Q 831 4709 978 4709 
Q 1122 4709 1226 4603 
Q 1331 4497 1331 4353 
Q 1331 4206 1228 4103 
Q 1125 4000 978 4000 
Q 831 4000 726 4103 
Q 622 4206 622 4353 
z
M 1356 331 
L 1900 331 
L 1900 0 
L 231 0 
L 231 331 
L 781 331 
L 781 2988 
L 231 2988 
L 231 3322 
L 1356 3322 
L 1356 331 
z
" transform="scale(0.015625)"/>
       <path id="DejaVuSerif-6e" d="M 263 0 
L 263 331 
L 781 331 
L 781 2988 
L 231 2988 
L 231 3322 
L 1356 3322 
L 1356 2731 
Q 1516 3069 1770 3241 
Q 2025 3413 2363 3413 
Q 2913 3413 3172 3097 
Q 3431 2781 3431 2113 
L 3431 331 
L 3944 331 
L 3944 0 
L 2356 0 
L 2356 331 
L 2853 331 
L 2853 1931 
Q 2853 2541 2703 2767 
Q 2553 2994 2175 2994 
Q 1775 2994 1565 2701 
Q 1356 2409 1356 1850 
L 1356 331 
L 1856 331 
L 1856 0 
L 263 0 
z
" transform="scale(0.015625)"/>
      </defs>
      <use xlink:href="#DejaVuSerif-52"/>
      <use xlink:href="#DejaVuSerif-65" x="75.292969"/>
      <use xlink:href="#DejaVuSerif-67" x="134.472656"/>
      <use xlink:href="#DejaVuSerif-69" x="198.486328"/>
      <use xlink:href="#DejaVuSerif-6f" x="230.46875"/>
      <use xlink:href="#DejaVuSerif-6e" x="290.673828"/>
     </g>
    </g>
   </g>
   <g id="matplotlib.axis_2">
    <g id="ytick_1">
     <g id="line2d_6">
      <path d="M 162 430.92 
L 1166.4 430.92 
" clip-path="url(#p21bac2d4df)" style="fill: none; stroke: #ffffff; stroke-width: 0.8; stroke-linecap: square"/>
     </g>
     <g id="line2d_7">
      <defs>
       <path id="m87f570c86f" d="M 0 0 
L -3.5 0 
" style="stroke: #000000; stroke-width: 0.8"/>
      </defs>
      <g>
       <use xlink:href="#m87f570c86f" x="162" y="430.92" style="stroke: #000000; stroke-width: 0.8"/>
      </g>
     </g>
     <g id="text_7">
      <!-- 0.0 -->
      <g transform="translate(123.19375 438.518438) scale(0.2 -0.2)">
       <defs>
        <path id="DejaVuSerif-30" d="M 2034 219 
Q 2513 219 2750 744 
Q 2988 1269 2988 2328 
Q 2988 3391 2750 3916 
Q 2513 4441 2034 4441 
Q 1556 4441 1318 3916 
Q 1081 3391 1081 2328 
Q 1081 1269 1318 744 
Q 1556 219 2034 219 
z
M 2034 -91 
Q 1275 -91 848 546 
Q 422 1184 422 2328 
Q 422 3475 848 4112 
Q 1275 4750 2034 4750 
Q 2797 4750 3222 4112 
Q 3647 3475 3647 2328 
Q 3647 1184 3222 546 
Q 2797 -91 2034 -91 
z
" transform="scale(0.015625)"/>
        <path id="DejaVuSerif-2e" d="M 603 325 
Q 603 500 722 622 
Q 841 744 1019 744 
Q 1191 744 1312 622 
Q 1434 500 1434 325 
Q 1434 153 1312 31 
Q 1191 -91 1019 -91 
Q 841 -91 722 29 
Q 603 150 603 325 
z
" transform="scale(0.015625)"/>
       </defs>
       <use xlink:href="#DejaVuSerif-30"/>
       <use xlink:href="#DejaVuSerif-2e" x="63.623047"/>
       <use xlink:href="#DejaVuSerif-30" x="95.410156"/>
      </g>
     </g>
    </g>
    <g id="ytick_2">
     <g id="line2d_8">
      <path d="M 162 370.426656 
L 1166.4 370.426656 
" clip-path="url(#p21bac2d4df)" style="fill: none; stroke: #ffffff; stroke-width: 0.8; stroke-linecap: square"/>
     </g>
     <g id="line2d_9">
      <g>
       <use xlink:href="#m87f570c86f" x="162" y="370.426656" style="stroke: #000000; stroke-width: 0.8"/>
      </g>
     </g>
     <g id="text_8">
      <!-- 0.5 -->
      <g transform="translate(123.19375 378.025093) scale(0.2 -0.2)">
       <defs>
        <path id="DejaVuSerif-35" d="M 3219 4666 
L 3219 4153 
L 1081 4153 
L 1081 2816 
Q 1244 2928 1461 2984 
Q 1678 3041 1947 3041 
Q 2703 3041 3140 2622 
Q 3578 2203 3578 1478 
Q 3578 738 3136 323 
Q 2694 -91 1894 -91 
Q 1572 -91 1234 -12 
Q 897 66 544 225 
L 544 1131 
L 897 1131 
Q 925 688 1179 453 
Q 1434 219 1894 219 
Q 2388 219 2653 544 
Q 2919 869 2919 1478 
Q 2919 2084 2655 2407 
Q 2391 2731 1894 2731 
Q 1613 2731 1398 2631 
Q 1184 2531 1019 2322 
L 750 2322 
L 750 4666 
L 3219 4666 
z
" transform="scale(0.015625)"/>
       </defs>
       <use xlink:href="#DejaVuSerif-30"/>
       <use xlink:href="#DejaVuSerif-2e" x="63.623047"/>
       <use xlink:href="#DejaVuSerif-35" x="95.410156"/>
      </g>
     </g>
    </g>
    <g id="ytick_3">
     <g id="line2d_10">
      <path d="M 162 309.933311 
L 1166.4 309.933311 
" clip-path="url(#p21bac2d4df)" style="fill: none; stroke: #ffffff; stroke-width: 0.8; stroke-linecap: square"/>
     </g>
     <g id="line2d_11">
      <g>
       <use xlink:href="#m87f570c86f" x="162" y="309.933311" style="stroke: #000000; stroke-width: 0.8"/>
      </g>
     </g>
     <g id="text_9">
      <!-- 1.0 -->
      <g transform="translate(123.19375 317.531749) scale(0.2 -0.2)">
       <defs>
        <path id="DejaVuSerif-31" d="M 909 0 
L 909 331 
L 1722 331 
L 1722 4213 
L 781 3603 
L 781 4013 
L 1919 4750 
L 2350 4750 
L 2350 331 
L 3163 331 
L 3163 0 
L 909 0 
z
" transform="scale(0.015625)"/>
       </defs>
       <use xlink:href="#DejaVuSerif-31"/>
       <use xlink:href="#DejaVuSerif-2e" x="63.623047"/>
       <use xlink:href="#DejaVuSerif-30" x="95.410156"/>
      </g>
     </g>
    </g>
    <g id="ytick_4">
     <g id="line2d_12">
      <path d="M 162 249.439967 
L 1166.4 249.439967 
" clip-path="url(#p21bac2d4df)" style="fill: none; stroke: #ffffff; stroke-width: 0.8; stroke-linecap: square"/>
     </g>
     <g id="line2d_13">
      <g>
       <use xlink:href="#m87f570c86f" x="162" y="249.439967" style="stroke: #000000; stroke-width: 0.8"/>
      </g>
     </g>
     <g id="text_10">
      <!-- 1.5 -->
      <g transform="translate(123.19375 257.038404) scale(0.2 -0.2)">
       <use xlink:href="#DejaVuSerif-31"/>
       <use xlink:href="#DejaVuSerif-2e" x="63.623047"/>
       <use xlink:href="#DejaVuSerif-35" x="95.410156"/>
      </g>
     </g>
    </g>
    <g id="ytick_5">
     <g id="line2d_14">
      <path d="M 162 188.946623 
L 1166.4 188.946623 
" clip-path="url(#p21bac2d4df)" style="fill: none; stroke: #ffffff; stroke-width: 0.8; stroke-linecap: square"/>
     </g>
     <g id="line2d_15">
      <g>
       <use xlink:href="#m87f570c86f" x="162" y="188.946623" style="stroke: #000000; stroke-width: 0.8"/>
      </g>
     </g>
     <g id="text_11">
      <!-- 2.0 -->
      <g transform="translate(123.19375 196.54506) scale(0.2 -0.2)">
       <defs>
        <path id="DejaVuSerif-32" d="M 819 3553 
L 469 3553 
L 469 4384 
Q 803 4563 1142 4656 
Q 1481 4750 1806 4750 
Q 2534 4750 2956 4397 
Q 3378 4044 3378 3438 
Q 3378 2753 2422 1800 
Q 2347 1728 2309 1691 
L 1131 513 
L 3078 513 
L 3078 1088 
L 3444 1088 
L 3444 0 
L 434 0 
L 434 341 
L 1850 1753 
Q 2319 2222 2519 2614 
Q 2719 3006 2719 3438 
Q 2719 3909 2473 4175 
Q 2228 4441 1797 4441 
Q 1350 4441 1106 4219 
Q 863 3997 819 3553 
z
" transform="scale(0.015625)"/>
       </defs>
       <use xlink:href="#DejaVuSerif-32"/>
       <use xlink:href="#DejaVuSerif-2e" x="63.623047"/>
       <use xlink:href="#DejaVuSerif-30" x="95.410156"/>
      </g>
     </g>
    </g>
    <g id="ytick_6">
     <g id="line2d_16">
      <path d="M 162 128.453278 
L 1166.4 128.453278 
" clip-path="url(#p21bac2d4df)" style="fill: none; stroke: #ffffff; stroke-width: 0.8; stroke-linecap: square"/>
     </g>
     <g id="line2d_17">
      <g>
       <use xlink:href="#m87f570c86f" x="162" y="128.453278" style="stroke: #000000; stroke-width: 0.8"/>
      </g>
     </g>
     <g id="text_12">
      <!-- 2.5 -->
      <g transform="translate(123.19375 136.051716) scale(0.2 -0.2)">
       <use xlink:href="#DejaVuSerif-32"/>
       <use xlink:href="#DejaVuSerif-2e" x="63.623047"/>
       <use xlink:href="#DejaVuSerif-35" x="95.410156"/>
      </g>
     </g>
    </g>
    <g id="ytick_7">
     <g id="line2d_18">
      <path d="M 162 67.959934 
L 1166.4 67.959934 
" clip-path="url(#p21bac2d4df)" style="fill: none; stroke: #ffffff; stroke-width: 0.8; stroke-linecap: square"/>
     </g>
     <g id="line2d_19">
      <g>
       <use xlink:href="#m87f570c86f" x="162" y="67.959934" style="stroke: #000000; stroke-width: 0.8"/>
      </g>
     </g>
     <g id="text_13">
      <!-- 3.0 -->
      <g transform="translate(123.19375 75.558371) scale(0.2 -0.2)">
       <defs>
        <path id="DejaVuSerif-33" d="M 622 4469 
Q 988 4606 1323 4678 
Q 1659 4750 1953 4750 
Q 2638 4750 3022 4454 
Q 3406 4159 3406 3634 
Q 3406 3213 3140 2930 
Q 2875 2647 2388 2547 
Q 2963 2466 3280 2130 
Q 3597 1794 3597 1259 
Q 3597 606 3158 257 
Q 2719 -91 1894 -91 
Q 1528 -91 1179 -12 
Q 831 66 488 225 
L 488 1131 
L 838 1131 
Q 869 681 1141 450 
Q 1413 219 1906 219 
Q 2384 219 2661 495 
Q 2938 772 2938 1253 
Q 2938 1803 2653 2086 
Q 2369 2369 1819 2369 
L 1522 2369 
L 1522 2688 
L 1678 2688 
Q 2225 2688 2498 2914 
Q 2772 3141 2772 3597 
Q 2772 4006 2547 4223 
Q 2322 4441 1900 4441 
Q 1478 4441 1245 4241 
Q 1013 4041 972 3647 
L 622 3647 
L 622 4469 
z
" transform="scale(0.015625)"/>
       </defs>
       <use xlink:href="#DejaVuSerif-33"/>
       <use xlink:href="#DejaVuSerif-2e" x="63.623047"/>
       <use xlink:href="#DejaVuSerif-30" x="95.410156"/>
      </g>
     </g>
    </g>
    <g id="text_14">
     <!-- $\mathrm{VVPI}^\mathrm{l,cap}$ -->
     <g transform="translate(115.450312 294.03) rotate(-90) scale(0.18 -0.18)">
      <defs>
       <path id="DejaVuSerif-56" d="M 1119 4331 
L 2497 750 
L 3872 4331 
L 3347 4331 
L 3347 4666 
L 4716 4666 
L 4716 4331 
L 4263 4331 
L 2597 0 
L 2059 0 
L 403 4331 
L -63 4331 
L -63 4666 
L 1638 4666 
L 1638 4331 
L 1119 4331 
z
" transform="scale(0.015625)"/>
       <path id="DejaVuSerif-50" d="M 1581 2375 
L 2406 2375 
Q 2872 2375 3115 2626 
Q 3359 2878 3359 3353 
Q 3359 3831 3115 4081 
Q 2872 4331 2406 4331 
L 1581 4331 
L 1581 2375 
z
M 353 0 
L 353 331 
L 947 331 
L 947 4331 
L 353 4331 
L 353 4666 
L 2559 4666 
Q 3259 4666 3668 4311 
Q 4078 3956 4078 3353 
Q 4078 2753 3668 2397 
Q 3259 2041 2559 2041 
L 1581 2041 
L 1581 331 
L 2303 331 
L 2303 0 
L 353 0 
z
" transform="scale(0.015625)"/>
       <path id="DejaVuSerif-49" d="M 1581 331 
L 2175 331 
L 2175 0 
L 353 0 
L 353 331 
L 947 331 
L 947 4331 
L 353 4331 
L 353 4666 
L 2175 4666 
L 2175 4331 
L 1581 4331 
L 1581 331 
z
" transform="scale(0.015625)"/>
       <path id="DejaVuSerif-2c" d="M 231 -622 
Q 525 -406 662 -114 
Q 800 178 800 594 
L 800 709 
L 1416 709 
Q 1391 175 1164 -208 
Q 938 -591 481 -872 
L 231 -622 
z
" transform="scale(0.015625)"/>
       <path id="DejaVuSerif-63" d="M 3291 997 
Q 3169 466 2822 187 
Q 2475 -91 1925 -91 
Q 1200 -91 759 389 
Q 319 869 319 1663 
Q 319 2459 759 2936 
Q 1200 3413 1925 3413 
Q 2241 3413 2553 3339 
Q 2866 3266 3181 3116 
L 3181 2266 
L 2847 2266 
Q 2781 2703 2561 2903 
Q 2341 3103 1931 3103 
Q 1466 3103 1228 2742 
Q 991 2381 991 1663 
Q 991 944 1227 581 
Q 1463 219 1931 219 
Q 2303 219 2525 412 
Q 2747 606 2828 997 
L 3291 997 
z
" transform="scale(0.015625)"/>
       <path id="DejaVuSerif-61" d="M 2547 1044 
L 2547 1747 
L 1806 1747 
Q 1378 1747 1168 1562 
Q 959 1378 959 997 
Q 959 650 1171 447 
Q 1384 244 1747 244 
Q 2106 244 2326 466 
Q 2547 688 2547 1044 
z
M 3122 2075 
L 3122 331 
L 3634 331 
L 3634 0 
L 2547 0 
L 2547 359 
Q 2356 128 2106 18 
Q 1856 -91 1522 -91 
Q 969 -91 644 203 
Q 319 497 319 997 
Q 319 1513 691 1797 
Q 1063 2081 1741 2081 
L 2547 2081 
L 2547 2309 
Q 2547 2688 2317 2895 
Q 2088 3103 1672 3103 
Q 1328 3103 1125 2947 
Q 922 2791 872 2484 
L 575 2484 
L 575 3156 
Q 875 3284 1158 3348 
Q 1441 3413 1709 3413 
Q 2400 3413 2761 3070 
Q 3122 2728 3122 2075 
z
" transform="scale(0.015625)"/>
       <path id="DejaVuSerif-70" d="M 1313 1825 
L 1313 1497 
Q 1313 897 1542 583 
Q 1772 269 2209 269 
Q 2650 269 2876 622 
Q 3103 975 3103 1663 
Q 3103 2353 2876 2703 
Q 2650 3053 2209 3053 
Q 1772 3053 1542 2737 
Q 1313 2422 1313 1825 
z
M 738 2988 
L 184 2988 
L 184 3322 
L 1313 3322 
L 1313 2803 
Q 1481 3116 1742 3264 
Q 2003 3413 2388 3413 
Q 3000 3413 3387 2928 
Q 3775 2444 3775 1663 
Q 3775 881 3387 395 
Q 3000 -91 2388 -91 
Q 2003 -91 1742 57 
Q 1481 206 1313 519 
L 1313 -997 
L 1856 -997 
L 1856 -1331 
L 184 -1331 
L 184 -997 
L 738 -997 
L 738 2988 
z
" transform="scale(0.015625)"/>
      </defs>
      <use xlink:href="#DejaVuSerif-56" transform="translate(0 0.476562)"/>
      <use xlink:href="#DejaVuSerif-56" transform="translate(72.216797 0.476562)"/>
      <use xlink:href="#DejaVuSerif-50" transform="translate(144.433594 0.476562)"/>
      <use xlink:href="#DejaVuSerif-49" transform="translate(211.71875 0.476562)"/>
      <use xlink:href="#DejaVuSerif-6c" transform="translate(252.129063 36.810937) scale(0.7)"/>
      <use xlink:href="#DejaVuSerif-2c" transform="translate(274.516758 36.810937) scale(0.7)"/>
      <use xlink:href="#DejaVuSerif-63" transform="translate(310.043125 36.810937) scale(0.7)"/>
      <use xlink:href="#DejaVuSerif-61" transform="translate(349.247227 36.810937) scale(0.7)"/>
      <use xlink:href="#DejaVuSerif-70" transform="translate(390.980625 36.810937) scale(0.7)"/>
     </g>
    </g>
   </g>
   <g id="patch_3">
    <path d="M 262.44 430.92 
L 262.44 430.92 
L 262.44 430.92 
L 262.44 430.92 
z
" clip-path="url(#p21bac2d4df)" style="fill: #c7dfdf; stroke: #5f5f5f; stroke-width: 1.5; stroke-linejoin: miter"/>
   </g>
   <g id="patch_4">
    <path d="M 262.44 430.92 
L 262.44 430.92 
L 262.44 430.92 
L 262.44 430.92 
z
" clip-path="url(#p21bac2d4df)" style="fill: #86a5b8; stroke: #5f5f5f; stroke-width: 1.5; stroke-linejoin: miter"/>
   </g>
   <g id="patch_5">
    <path d="M 188.1144 430.92 
L 256.4136 430.92 
L 256.4136 409.613039 
L 188.1144 409.613039 
L 188.1144 430.92 
z
" clip-path="url(#p21bac2d4df)" style="fill: #c7dfdf; stroke: #5f5f5f; stroke-width: 1.5; stroke-linejoin: miter"/>
   </g>
   <g id="line2d_20">
    <path d="M 222.264 430.92 
L 222.264 430.92 
" clip-path="url(#p21bac2d4df)" style="fill: none; stroke: #00008b; stroke-width: 1.5"/>
   </g>
   <g id="line2d_21">
    <path d="M 222.264 409.613039 
L 222.264 380.658639 
" clip-path="url(#p21bac2d4df)" style="fill: none; stroke: #00008b; stroke-width: 1.5"/>
   </g>
   <g id="line2d_22">
    <path d="M 205.1892 430.92 
L 239.3388 430.92 
" clip-path="url(#p21bac2d4df)" style="fill: none; stroke: #00008b; stroke-width: 1.5; stroke-linecap: square"/>
   </g>
   <g id="line2d_23">
    <path d="M 205.1892 380.658639 
L 239.3388 380.658639 
" clip-path="url(#p21bac2d4df)" style="fill: none; stroke: #00008b; stroke-width: 1.5; stroke-linecap: square"/>
   </g>
   <g id="line2d_24">
    <defs>
     <path id="m047c15793d" d="M 0 3 
C 0.795609 3 1.55874 2.683901 2.12132 2.12132 
C 2.683901 1.55874 3 0.795609 3 0 
C 3 -0.795609 2.683901 -1.55874 2.12132 -2.12132 
C 1.55874 -2.683901 0.795609 -3 0 -3 
C -0.795609 -3 -1.55874 -2.683901 -2.12132 -2.12132 
C -2.683901 -1.55874 -3 -0.795609 -3 0 
C -3 0.795609 -2.683901 1.55874 -2.12132 2.12132 
C -1.55874 2.683901 -0.795609 3 0 3 
z
" style="stroke: #5f5f5f"/>
    </defs>
    <g clip-path="url(#p21bac2d4df)">
     <use xlink:href="#m047c15793d" x="222.264" y="317.845195" style="fill: #808080; stroke: #5f5f5f"/>
     <use xlink:href="#m047c15793d" x="222.264" y="352.232254" style="fill: #808080; stroke: #5f5f5f"/>
     <use xlink:href="#m047c15793d" x="222.264" y="340.482398" style="fill: #808080; stroke: #5f5f5f"/>
     <use xlink:href="#m047c15793d" x="222.264" y="340.032786" style="fill: #808080; stroke: #5f5f5f"/>
     <use xlink:href="#m047c15793d" x="222.264" y="320.985711" style="fill: #808080; stroke: #5f5f5f"/>
     <use xlink:href="#m047c15793d" x="222.264" y="326.108482" style="fill: #808080; stroke: #5f5f5f"/>
     <use xlink:href="#m047c15793d" x="222.264" y="322.143726" style="fill: #808080; stroke: #5f5f5f"/>
     <use xlink:href="#m047c15793d" x="222.264" y="371.533051" style="fill: #808080; stroke: #5f5f5f"/>
     <use xlink:href="#m047c15793d" x="222.264" y="279.236349" style="fill: #808080; stroke: #5f5f5f"/>
     <use xlink:href="#m047c15793d" x="222.264" y="279.897524" style="fill: #808080; stroke: #5f5f5f"/>
     <use xlink:href="#m047c15793d" x="222.264" y="222.112179" style="fill: #808080; stroke: #5f5f5f"/>
     <use xlink:href="#m047c15793d" x="222.264" y="312.234971" style="fill: #808080; stroke: #5f5f5f"/>
     <use xlink:href="#m047c15793d" x="222.264" y="148.747346" style="fill: #808080; stroke: #5f5f5f"/>
     <use xlink:href="#m047c15793d" x="222.264" y="219.997564" style="fill: #808080; stroke: #5f5f5f"/>
     <use xlink:href="#m047c15793d" x="222.264" y="307.744722" style="fill: #808080; stroke: #5f5f5f"/>
     <use xlink:href="#m047c15793d" x="222.264" y="351.79896" style="fill: #808080; stroke: #5f5f5f"/>
     <use xlink:href="#m047c15793d" x="222.264" y="176.57628" style="fill: #808080; stroke: #5f5f5f"/>
     <use xlink:href="#m047c15793d" x="222.264" y="334.5029" style="fill: #808080; stroke: #5f5f5f"/>
    </g>
   </g>
   <g id="patch_6">
    <path d="M 388.9944 430.880293 
L 457.2936 430.880293 
L 457.2936 428.60079 
L 388.9944 428.60079 
L 388.9944 430.880293 
z
" clip-path="url(#p21bac2d4df)" style="fill: #c7dfdf; stroke: #5f5f5f; stroke-width: 1.5; stroke-linejoin: miter"/>
   </g>
   <g id="line2d_25">
    <path d="M 423.144 430.880293 
L 423.144 430.92 
" clip-path="url(#p21bac2d4df)" style="fill: none; stroke: #00008b; stroke-width: 1.5"/>
   </g>
   <g id="line2d_26">
    <path d="M 423.144 428.60079 
L 423.144 425.220584 
" clip-path="url(#p21bac2d4df)" style="fill: none; stroke: #00008b; stroke-width: 1.5"/>
   </g>
   <g id="line2d_27">
    <path d="M 406.0692 430.92 
L 440.2188 430.92 
" clip-path="url(#p21bac2d4df)" style="fill: none; stroke: #00008b; stroke-width: 1.5; stroke-linecap: square"/>
   </g>
   <g id="line2d_28">
    <path d="M 406.0692 425.220584 
L 440.2188 425.220584 
" clip-path="url(#p21bac2d4df)" style="fill: none; stroke: #00008b; stroke-width: 1.5; stroke-linecap: square"/>
   </g>
   <g id="line2d_29">
    <g clip-path="url(#p21bac2d4df)">
     <use xlink:href="#m047c15793d" x="423.144" y="423.162406" style="fill: #808080; stroke: #5f5f5f"/>
     <use xlink:href="#m047c15793d" x="423.144" y="419.747434" style="fill: #808080; stroke: #5f5f5f"/>
     <use xlink:href="#m047c15793d" x="423.144" y="419.31822" style="fill: #808080; stroke: #5f5f5f"/>
     <use xlink:href="#m047c15793d" x="423.144" y="423.711252" style="fill: #808080; stroke: #5f5f5f"/>
    </g>
   </g>
   <g id="patch_7">
    <path d="M 589.8744 428.857266 
L 658.1736 428.857266 
L 658.1736 427.30999 
L 589.8744 427.30999 
L 589.8744 428.857266 
z
" clip-path="url(#p21bac2d4df)" style="fill: #c7dfdf; stroke: #5f5f5f; stroke-width: 1.5; stroke-linejoin: miter"/>
   </g>
   <g id="line2d_30">
    <path d="M 624.024 428.857266 
L 624.024 430.92 
" clip-path="url(#p21bac2d4df)" style="fill: none; stroke: #00008b; stroke-width: 1.5"/>
   </g>
   <g id="line2d_31">
    <path d="M 624.024 427.30999 
L 624.024 425.099776 
" clip-path="url(#p21bac2d4df)" style="fill: none; stroke: #00008b; stroke-width: 1.5"/>
   </g>
   <g id="line2d_32">
    <path d="M 606.9492 430.92 
L 641.0988 430.92 
" clip-path="url(#p21bac2d4df)" style="fill: none; stroke: #00008b; stroke-width: 1.5; stroke-linecap: square"/>
   </g>
   <g id="line2d_33">
    <path d="M 606.9492 425.099776 
L 641.0988 425.099776 
" clip-path="url(#p21bac2d4df)" style="fill: none; stroke: #00008b; stroke-width: 1.5; stroke-linecap: square"/>
   </g>
   <g id="line2d_34">
    <g clip-path="url(#p21bac2d4df)">
     <use xlink:href="#m047c15793d" x="624.024" y="420.172735" style="fill: #808080; stroke: #5f5f5f"/>
     <use xlink:href="#m047c15793d" x="624.024" y="417.355061" style="fill: #808080; stroke: #5f5f5f"/>
     <use xlink:href="#m047c15793d" x="624.024" y="423.504153" style="fill: #808080; stroke: #5f5f5f"/>
     <use xlink:href="#m047c15793d" x="624.024" y="401.874011" style="fill: #808080; stroke: #5f5f5f"/>
     <use xlink:href="#m047c15793d" x="624.024" y="424.636851" style="fill: #808080; stroke: #5f5f5f"/>
     <use xlink:href="#m047c15793d" x="624.024" y="422.755428" style="fill: #808080; stroke: #5f5f5f"/>
    </g>
   </g>
   <g id="patch_8">
    <path d="M 790.7544 430.594104 
L 859.0536 430.594104 
L 859.0536 429.580019 
L 790.7544 429.580019 
L 790.7544 430.594104 
z
" clip-path="url(#p21bac2d4df)" style="fill: #c7dfdf; stroke: #5f5f5f; stroke-width: 1.5; stroke-linejoin: miter"/>
   </g>
   <g id="line2d_35">
    <path d="M 824.904 430.594104 
L 824.904 430.913537 
" clip-path="url(#p21bac2d4df)" style="fill: none; stroke: #00008b; stroke-width: 1.5"/>
   </g>
   <g id="line2d_36">
    <path d="M 824.904 429.580019 
L 824.904 428.323165 
" clip-path="url(#p21bac2d4df)" style="fill: none; stroke: #00008b; stroke-width: 1.5"/>
   </g>
   <g id="line2d_37">
    <path d="M 807.8292 430.913537 
L 841.9788 430.913537 
" clip-path="url(#p21bac2d4df)" style="fill: none; stroke: #00008b; stroke-width: 1.5; stroke-linecap: square"/>
   </g>
   <g id="line2d_38">
    <path d="M 807.8292 428.323165 
L 841.9788 428.323165 
" clip-path="url(#p21bac2d4df)" style="fill: none; stroke: #00008b; stroke-width: 1.5; stroke-linecap: square"/>
   </g>
   <g id="line2d_39">
    <g clip-path="url(#p21bac2d4df)">
     <use xlink:href="#m047c15793d" x="824.904" y="427.992707" style="fill: #808080; stroke: #5f5f5f"/>
     <use xlink:href="#m047c15793d" x="824.904" y="427.448271" style="fill: #808080; stroke: #5f5f5f"/>
     <use xlink:href="#m047c15793d" x="824.904" y="427.626937" style="fill: #808080; stroke: #5f5f5f"/>
     <use xlink:href="#m047c15793d" x="824.904" y="427.561297" style="fill: #808080; stroke: #5f5f5f"/>
    </g>
   </g>
   <g id="patch_9">
    <path d="M 991.6344 430.92 
L 1059.9336 430.92 
L 1059.9336 430.186833 
L 991.6344 430.186833 
L 991.6344 430.92 
z
" clip-path="url(#p21bac2d4df)" style="fill: #c7dfdf; stroke: #5f5f5f; stroke-width: 1.5; stroke-linejoin: miter"/>
   </g>
   <g id="line2d_40">
    <path d="M 1025.784 430.92 
L 1025.784 430.92 
" clip-path="url(#p21bac2d4df)" style="fill: none; stroke: #00008b; stroke-width: 1.5"/>
   </g>
   <g id="line2d_41">
    <path d="M 1025.784 430.186833 
L 1025.784 429.097266 
" clip-path="url(#p21bac2d4df)" style="fill: none; stroke: #00008b; stroke-width: 1.5"/>
   </g>
   <g id="line2d_42">
    <path d="M 1008.7092 430.92 
L 1042.8588 430.92 
" clip-path="url(#p21bac2d4df)" style="fill: none; stroke: #00008b; stroke-width: 1.5; stroke-linecap: square"/>
   </g>
   <g id="line2d_43">
    <path d="M 1008.7092 429.097266 
L 1042.8588 429.097266 
" clip-path="url(#p21bac2d4df)" style="fill: none; stroke: #00008b; stroke-width: 1.5; stroke-linecap: square"/>
   </g>
   <g id="line2d_44">
    <g clip-path="url(#p21bac2d4df)">
     <use xlink:href="#m047c15793d" x="1025.784" y="429.079129" style="fill: #808080; stroke: #5f5f5f"/>
     <use xlink:href="#m047c15793d" x="1025.784" y="428.896224" style="fill: #808080; stroke: #5f5f5f"/>
     <use xlink:href="#m047c15793d" x="1025.784" y="428.833124" style="fill: #808080; stroke: #5f5f5f"/>
     <use xlink:href="#m047c15793d" x="1025.784" y="427.451205" style="fill: #808080; stroke: #5f5f5f"/>
     <use xlink:href="#m047c15793d" x="1025.784" y="428.110945" style="fill: #808080; stroke: #5f5f5f"/>
     <use xlink:href="#m047c15793d" x="1025.784" y="428.232599" style="fill: #808080; stroke: #5f5f5f"/>
     <use xlink:href="#m047c15793d" x="1025.784" y="428.461279" style="fill: #808080; stroke: #5f5f5f"/>
     <use xlink:href="#m047c15793d" x="1025.784" y="428.423668" style="fill: #808080; stroke: #5f5f5f"/>
     <use xlink:href="#m047c15793d" x="1025.784" y="428.851899" style="fill: #808080; stroke: #5f5f5f"/>
     <use xlink:href="#m047c15793d" x="1025.784" y="428.657843" style="fill: #808080; stroke: #5f5f5f"/>
     <use xlink:href="#m047c15793d" x="1025.784" y="428.713357" style="fill: #808080; stroke: #5f5f5f"/>
    </g>
   </g>
   <g id="patch_10">
    <path d="M 268.4664 379.864716 
L 336.7656 379.864716 
L 336.7656 296.61788 
L 268.4664 296.61788 
L 268.4664 379.864716 
z
" clip-path="url(#p21bac2d4df)" style="fill: #86a5b8; stroke: #5f5f5f; stroke-width: 1.5; stroke-linejoin: miter"/>
   </g>
   <g id="line2d_45">
    <path d="M 302.616 379.864716 
L 302.616 430.92 
" clip-path="url(#p21bac2d4df)" style="fill: none; stroke: #00008b; stroke-width: 1.5"/>
   </g>
   <g id="line2d_46">
    <path d="M 302.616 296.61788 
L 302.616 178.631332 
" clip-path="url(#p21bac2d4df)" style="fill: none; stroke: #00008b; stroke-width: 1.5"/>
   </g>
   <g id="line2d_47">
    <path d="M 285.5412 430.92 
L 319.6908 430.92 
" clip-path="url(#p21bac2d4df)" style="fill: none; stroke: #00008b; stroke-width: 1.5; stroke-linecap: square"/>
   </g>
   <g id="line2d_48">
    <path d="M 285.5412 178.631332 
L 319.6908 178.631332 
" clip-path="url(#p21bac2d4df)" style="fill: none; stroke: #00008b; stroke-width: 1.5; stroke-linecap: square"/>
   </g>
   <g id="line2d_49">
    <g clip-path="url(#p21bac2d4df)">
     <use xlink:href="#m047c15793d" x="302.616" y="138.983955" style="fill: #808080; stroke: #5f5f5f"/>
     <use xlink:href="#m047c15793d" x="302.616" y="123.923861" style="fill: #808080; stroke: #5f5f5f"/>
     <use xlink:href="#m047c15793d" x="302.616" y="78.12" style="fill: #808080; stroke: #5f5f5f"/>
     <use xlink:href="#m047c15793d" x="302.616" y="127.041953" style="fill: #808080; stroke: #5f5f5f"/>
     <use xlink:href="#m047c15793d" x="302.616" y="87.768892" style="fill: #808080; stroke: #5f5f5f"/>
    </g>
   </g>
   <g id="patch_11">
    <path d="M 469.3464 430.68923 
L 537.6456 430.68923 
L 537.6456 429.226288 
L 469.3464 429.226288 
L 469.3464 430.68923 
z
" clip-path="url(#p21bac2d4df)" style="fill: #86a5b8; stroke: #5f5f5f; stroke-width: 1.5; stroke-linejoin: miter"/>
   </g>
   <g id="line2d_50">
    <path d="M 503.496 430.68923 
L 503.496 430.92 
" clip-path="url(#p21bac2d4df)" style="fill: none; stroke: #00008b; stroke-width: 1.5"/>
   </g>
   <g id="line2d_51">
    <path d="M 503.496 429.226288 
L 503.496 427.513823 
" clip-path="url(#p21bac2d4df)" style="fill: none; stroke: #00008b; stroke-width: 1.5"/>
   </g>
   <g id="line2d_52">
    <path d="M 486.4212 430.92 
L 520.5708 430.92 
" clip-path="url(#p21bac2d4df)" style="fill: none; stroke: #00008b; stroke-width: 1.5; stroke-linecap: square"/>
   </g>
   <g id="line2d_53">
    <path d="M 486.4212 427.513823 
L 520.5708 427.513823 
" clip-path="url(#p21bac2d4df)" style="fill: none; stroke: #00008b; stroke-width: 1.5; stroke-linecap: square"/>
   </g>
   <g id="line2d_54">
    <g clip-path="url(#p21bac2d4df)">
     <use xlink:href="#m047c15793d" x="503.496" y="421.005542" style="fill: #808080; stroke: #5f5f5f"/>
     <use xlink:href="#m047c15793d" x="503.496" y="426.408701" style="fill: #808080; stroke: #5f5f5f"/>
     <use xlink:href="#m047c15793d" x="503.496" y="416.804677" style="fill: #808080; stroke: #5f5f5f"/>
     <use xlink:href="#m047c15793d" x="503.496" y="420.326778" style="fill: #808080; stroke: #5f5f5f"/>
     <use xlink:href="#m047c15793d" x="503.496" y="421.36858" style="fill: #808080; stroke: #5f5f5f"/>
     <use xlink:href="#m047c15793d" x="503.496" y="413.647252" style="fill: #808080; stroke: #5f5f5f"/>
     <use xlink:href="#m047c15793d" x="503.496" y="412.655138" style="fill: #808080; stroke: #5f5f5f"/>
     <use xlink:href="#m047c15793d" x="503.496" y="425.403928" style="fill: #808080; stroke: #5f5f5f"/>
     <use xlink:href="#m047c15793d" x="503.496" y="424.660548" style="fill: #808080; stroke: #5f5f5f"/>
     <use xlink:href="#m047c15793d" x="503.496" y="425.201106" style="fill: #808080; stroke: #5f5f5f"/>
     <use xlink:href="#m047c15793d" x="503.496" y="426.235444" style="fill: #808080; stroke: #5f5f5f"/>
     <use xlink:href="#m047c15793d" x="503.496" y="418.212684" style="fill: #808080; stroke: #5f5f5f"/>
    </g>
   </g>
   <g id="patch_12">
    <path d="M 670.2264 420.276037 
L 738.5256 420.276037 
L 738.5256 410.663032 
L 670.2264 410.663032 
L 670.2264 420.276037 
z
" clip-path="url(#p21bac2d4df)" style="fill: #86a5b8; stroke: #5f5f5f; stroke-width: 1.5; stroke-linejoin: miter"/>
   </g>
   <g id="line2d_55">
    <path d="M 704.376 420.276037 
L 704.376 427.42197 
" clip-path="url(#p21bac2d4df)" style="fill: none; stroke: #00008b; stroke-width: 1.5"/>
   </g>
   <g id="line2d_56">
    <path d="M 704.376 410.663032 
L 704.376 403.182098 
" clip-path="url(#p21bac2d4df)" style="fill: none; stroke: #00008b; stroke-width: 1.5"/>
   </g>
   <g id="line2d_57">
    <path d="M 687.3012 427.42197 
L 721.4508 427.42197 
" clip-path="url(#p21bac2d4df)" style="fill: none; stroke: #00008b; stroke-width: 1.5; stroke-linecap: square"/>
   </g>
   <g id="line2d_58">
    <path d="M 687.3012 403.182098 
L 721.4508 403.182098 
" clip-path="url(#p21bac2d4df)" style="fill: none; stroke: #00008b; stroke-width: 1.5; stroke-linecap: square"/>
   </g>
   <g id="line2d_59">
    <g clip-path="url(#p21bac2d4df)">
     <use xlink:href="#m047c15793d" x="704.376" y="391.171983" style="fill: #808080; stroke: #5f5f5f"/>
     <use xlink:href="#m047c15793d" x="704.376" y="395.913416" style="fill: #808080; stroke: #5f5f5f"/>
    </g>
   </g>
   <g id="patch_13">
    <path d="M 871.1064 429.089166 
L 939.4056 429.089166 
L 939.4056 427.628518 
L 871.1064 427.628518 
L 871.1064 429.089166 
z
" clip-path="url(#p21bac2d4df)" style="fill: #86a5b8; stroke: #5f5f5f; stroke-width: 1.5; stroke-linejoin: miter"/>
   </g>
   <g id="line2d_60">
    <path d="M 905.256 429.089166 
L 905.256 430.049188 
" clip-path="url(#p21bac2d4df)" style="fill: none; stroke: #00008b; stroke-width: 1.5"/>
   </g>
   <g id="line2d_61">
    <path d="M 905.256 427.628518 
L 905.256 426.116808 
" clip-path="url(#p21bac2d4df)" style="fill: none; stroke: #00008b; stroke-width: 1.5"/>
   </g>
   <g id="line2d_62">
    <path d="M 888.1812 430.049188 
L 922.3308 430.049188 
" clip-path="url(#p21bac2d4df)" style="fill: none; stroke: #00008b; stroke-width: 1.5; stroke-linecap: square"/>
   </g>
   <g id="line2d_63">
    <path d="M 888.1812 426.116808 
L 922.3308 426.116808 
" clip-path="url(#p21bac2d4df)" style="fill: none; stroke: #00008b; stroke-width: 1.5; stroke-linecap: square"/>
   </g>
   <g id="line2d_64">
    <g clip-path="url(#p21bac2d4df)">
     <use xlink:href="#m047c15793d" x="905.256" y="425.330143" style="fill: #808080; stroke: #5f5f5f"/>
     <use xlink:href="#m047c15793d" x="905.256" y="425.002606" style="fill: #808080; stroke: #5f5f5f"/>
    </g>
   </g>
   <g id="patch_14">
    <path d="M 1071.9864 420.20571 
L 1140.2856 420.20571 
L 1140.2856 417.228052 
L 1071.9864 417.228052 
L 1071.9864 420.20571 
z
" clip-path="url(#p21bac2d4df)" style="fill: #86a5b8; stroke: #5f5f5f; stroke-width: 1.5; stroke-linejoin: miter"/>
   </g>
   <g id="line2d_65">
    <path d="M 1106.136 420.20571 
L 1106.136 424.528451 
" clip-path="url(#p21bac2d4df)" style="fill: none; stroke: #00008b; stroke-width: 1.5"/>
   </g>
   <g id="line2d_66">
    <path d="M 1106.136 417.228052 
L 1106.136 413.140728 
" clip-path="url(#p21bac2d4df)" style="fill: none; stroke: #00008b; stroke-width: 1.5"/>
   </g>
   <g id="line2d_67">
    <path d="M 1089.0612 424.528451 
L 1123.2108 424.528451 
" clip-path="url(#p21bac2d4df)" style="fill: none; stroke: #00008b; stroke-width: 1.5; stroke-linecap: square"/>
   </g>
   <g id="line2d_68">
    <path d="M 1089.0612 413.140728 
L 1123.2108 413.140728 
" clip-path="url(#p21bac2d4df)" style="fill: none; stroke: #00008b; stroke-width: 1.5; stroke-linecap: square"/>
   </g>
   <g id="line2d_69">
    <g clip-path="url(#p21bac2d4df)">
     <use xlink:href="#m047c15793d" x="1106.136" y="425.53367" style="fill: #808080; stroke: #5f5f5f"/>
     <use xlink:href="#m047c15793d" x="1106.136" y="426.44385" style="fill: #808080; stroke: #5f5f5f"/>
     <use xlink:href="#m047c15793d" x="1106.136" y="425.96182" style="fill: #808080; stroke: #5f5f5f"/>
     <use xlink:href="#m047c15793d" x="1106.136" y="425.815144" style="fill: #808080; stroke: #5f5f5f"/>
     <use xlink:href="#m047c15793d" x="1106.136" y="412.022177" style="fill: #808080; stroke: #5f5f5f"/>
    </g>
   </g>
   <g id="line2d_70">
    <path d="M 188.1144 430.92 
L 256.4136 430.92 
" clip-path="url(#p21bac2d4df)" style="fill: none; stroke: #00008b; stroke-width: 1.5"/>
   </g>
   <g id="line2d_71">
    <path d="M 388.9944 430.241881 
L 457.2936 430.241881 
" clip-path="url(#p21bac2d4df)" style="fill: none; stroke: #00008b; stroke-width: 1.5"/>
   </g>
   <g id="line2d_72">
    <path d="M 589.8744 428.035903 
L 658.1736 428.035903 
" clip-path="url(#p21bac2d4df)" style="fill: none; stroke: #00008b; stroke-width: 1.5"/>
   </g>
   <g id="line2d_73">
    <path d="M 790.7544 429.890828 
L 859.0536 429.890828 
" clip-path="url(#p21bac2d4df)" style="fill: none; stroke: #00008b; stroke-width: 1.5"/>
   </g>
   <g id="line2d_74">
    <path d="M 991.6344 430.672579 
L 1059.9336 430.672579 
" clip-path="url(#p21bac2d4df)" style="fill: none; stroke: #00008b; stroke-width: 1.5"/>
   </g>
   <g id="line2d_75">
    <path d="M 268.4664 334.378986 
L 336.7656 334.378986 
" clip-path="url(#p21bac2d4df)" style="fill: none; stroke: #00008b; stroke-width: 1.5"/>
   </g>
   <g id="line2d_76">
    <path d="M 469.3464 429.94056 
L 537.6456 429.94056 
" clip-path="url(#p21bac2d4df)" style="fill: none; stroke: #00008b; stroke-width: 1.5"/>
   </g>
   <g id="line2d_77">
    <path d="M 670.2264 414.858246 
L 738.5256 414.858246 
" clip-path="url(#p21bac2d4df)" style="fill: none; stroke: #00008b; stroke-width: 1.5"/>
   </g>
   <g id="line2d_78">
    <path d="M 871.1064 428.527476 
L 939.4056 428.527476 
" clip-path="url(#p21bac2d4df)" style="fill: none; stroke: #00008b; stroke-width: 1.5"/>
   </g>
   <g id="line2d_79">
    <path d="M 1071.9864 418.354429 
L 1140.2856 418.354429 
" clip-path="url(#p21bac2d4df)" style="fill: none; stroke: #00008b; stroke-width: 1.5"/>
   </g>
   <g id="patch_15">
    <path d="M 162 448.56 
L 162 60.48 
" style="fill: none; stroke: #000000; stroke-width: 1.2; stroke-linejoin: miter; stroke-linecap: square"/>
   </g>
   <g id="patch_16">
    <path d="M 1166.4 448.56 
L 1166.4 60.48 
" style="fill: none; stroke: #000000; stroke-width: 1.2; stroke-linejoin: miter; stroke-linecap: square"/>
   </g>
   <g id="patch_17">
    <path d="M 162 448.56 
L 1166.4 448.56 
" style="fill: none; stroke: #000000; stroke-width: 1.2; stroke-linejoin: miter; stroke-linecap: square"/>
   </g>
   <g id="patch_18">
    <path d="M 162 60.48 
L 1166.4 60.48 
" style="fill: none; stroke: #000000; stroke-width: 1.2; stroke-linejoin: miter; stroke-linecap: square"/>
   </g>
   <g id="legend_1">
    <g id="text_15">
     <!-- Cenários -->
     <g transform="translate(628.1175 17.1831) scale(0.16 -0.16)">
      <defs>
       <path id="DejaVuSerif-e1" d="M 2547 1044 
L 2547 1747 
L 1806 1747 
Q 1378 1747 1168 1562 
Q 959 1378 959 997 
Q 959 650 1171 447 
Q 1384 244 1747 244 
Q 2106 244 2326 466 
Q 2547 688 2547 1044 
z
M 3122 2075 
L 3122 331 
L 3634 331 
L 3634 0 
L 2547 0 
L 2547 359 
Q 2356 128 2106 18 
Q 1856 -91 1522 -91 
Q 969 -91 644 203 
Q 319 497 319 997 
Q 319 1513 691 1797 
Q 1063 2081 1741 2081 
L 2547 2081 
L 2547 2309 
Q 2547 2688 2317 2895 
Q 2088 3103 1672 3103 
Q 1328 3103 1125 2947 
Q 922 2791 872 2484 
L 575 2484 
L 575 3156 
Q 875 3284 1158 3348 
Q 1441 3413 1709 3413 
Q 2400 3413 2761 3070 
Q 3122 2728 3122 2075 
z
M 2210 5119 
L 2832 5119 
L 1770 3944 
L 1404 3944 
L 2210 5119 
z
" transform="scale(0.015625)"/>
      </defs>
      <use xlink:href="#DejaVuSerif-43"/>
      <use xlink:href="#DejaVuSerif-65" x="76.513672"/>
      <use xlink:href="#DejaVuSerif-6e" x="135.693359"/>
      <use xlink:href="#DejaVuSerif-e1" x="200.097656"/>
      <use xlink:href="#DejaVuSerif-72" x="259.716797"/>
      <use xlink:href="#DejaVuSerif-69" x="307.519531"/>
      <use xlink:href="#DejaVuSerif-6f" x="339.501953"/>
      <use xlink:href="#DejaVuSerif-73" x="399.707031"/>
     </g>
    </g>
    <g id="patch_19">
     <path d="M 527.26125 40.6681 
L 559.26125 40.6681 
L 559.26125 29.4681 
L 527.26125 29.4681 
z
" style="fill: #c7dfdf; stroke: #5f5f5f; stroke-width: 1.5; stroke-linejoin: miter"/>
    </g>
    <g id="text_16">
     <!-- PQ Buses -->
     <g transform="translate(572.06125 40.6681) scale(0.16 -0.16)">
      <defs>
       <path id="DejaVuSerif-51" d="M 2700 -91 
Q 1628 -91 993 567 
Q 359 1225 359 2328 
Q 359 2894 529 3339 
Q 700 3784 1050 4134 
Q 1356 4441 1750 4595 
Q 2144 4750 2625 4750 
Q 3641 4750 4266 4084 
Q 4891 3419 4891 2328 
Q 4891 1403 4422 773 
Q 3953 144 3128 -38 
Q 3297 -247 3539 -347 
Q 3781 -447 4122 -447 
L 4219 -447 
L 4219 -1025 
Q 3691 -1000 3314 -767 
Q 2938 -534 2700 -91 
z
M 2625 244 
Q 3391 244 3781 770 
Q 4172 1297 4172 2328 
Q 4172 3363 3781 3889 
Q 3391 4416 2625 4416 
Q 1856 4416 1465 3889 
Q 1075 3363 1075 2328 
Q 1075 1297 1465 770 
Q 1856 244 2625 244 
z
" transform="scale(0.015625)"/>
       <path id="DejaVuSerif-20" transform="scale(0.015625)"/>
       <path id="DejaVuSerif-42" d="M 1581 331 
L 2516 331 
Q 3078 331 3337 575 
Q 3597 819 3597 1350 
Q 3597 1878 3339 2120 
Q 3081 2363 2516 2363 
L 1581 2363 
L 1581 331 
z
M 1581 2694 
L 2375 2694 
Q 2888 2694 3123 2891 
Q 3359 3088 3359 3513 
Q 3359 3941 3123 4136 
Q 2888 4331 2375 4331 
L 1581 4331 
L 1581 2694 
z
M 353 0 
L 353 331 
L 947 331 
L 947 4331 
L 353 4331 
L 353 4666 
L 2656 4666 
Q 3363 4666 3720 4377 
Q 4078 4088 4078 3513 
Q 4078 3097 3829 2850 
Q 3581 2603 3103 2547 
Q 3697 2472 4005 2167 
Q 4313 1863 4313 1350 
Q 4313 656 3875 328 
Q 3438 0 2509 0 
L 353 0 
z
" transform="scale(0.015625)"/>
      </defs>
      <use xlink:href="#DejaVuSerif-50"/>
      <use xlink:href="#DejaVuSerif-51" x="67.285156"/>
      <use xlink:href="#DejaVuSerif-20" x="149.267578"/>
      <use xlink:href="#DejaVuSerif-42" x="181.054688"/>
      <use xlink:href="#DejaVuSerif-75" x="254.541016"/>
      <use xlink:href="#DejaVuSerif-73" x="318.945312"/>
      <use xlink:href="#DejaVuSerif-65" x="370.263672"/>
      <use xlink:href="#DejaVuSerif-73" x="429.443359"/>
     </g>
    </g>
    <g id="patch_20">
     <path d="M 680.98125 40.6681 
L 712.98125 40.6681 
L 712.98125 29.4681 
L 680.98125 29.4681 
z
" style="fill: #86a5b8; stroke: #5f5f5f; stroke-width: 1.5; stroke-linejoin: miter"/>
    </g>
    <g id="text_17">
     <!-- PV Buses -->
     <g transform="translate(725.78125 40.6681) scale(0.16 -0.16)">
      <use xlink:href="#DejaVuSerif-50"/>
      <use xlink:href="#DejaVuSerif-56" x="67.285156"/>
      <use xlink:href="#DejaVuSerif-20" x="139.501953"/>
      <use xlink:href="#DejaVuSerif-42" x="171.289062"/>
      <use xlink:href="#DejaVuSerif-75" x="244.775391"/>
      <use xlink:href="#DejaVuSerif-73" x="309.179688"/>
      <use xlink:href="#DejaVuSerif-65" x="360.498047"/>
      <use xlink:href="#DejaVuSerif-73" x="419.677734"/>
     </g>
    </g>
   </g>
  </g>
 </g>
 <defs>
  <clipPath id="p21bac2d4df">
   <rect x="162" y="60.48" width="1004.4" height="388.08"/>
  </clipPath>
 </defs>
</svg>
